<?xml version="1.0" encoding="utf-8"?>
<!-- Generator: Adobe Illustrator 24.0.3, SVG Export Plug-In . SVG Version: 6.00 Build 0)  -->
<svg version="1.1" id="Layer_1" xmlns="http://www.w3.org/2000/svg" xmlns:xlink="http://www.w3.org/1999/xlink" x="0px" y="0px"
	 viewBox="0 0 800 800" style="enable-background:new 0 0 800 800;" xml:space="preserve">
<style type="text/css">
	.st0{fill:#999999;}
	.st1{font-family:'SourceSansPro-Regular';}
	.st2{font-size:51.0236px;}
	
		.st3{fill-rule:evenodd;clip-rule:evenodd;fill:none;stroke:#000000;stroke-width:11.3386;stroke-linecap:round;stroke-linejoin:round;stroke-miterlimit:10;}
	.st4{fill:none;stroke:#000000;stroke-width:19.8425;stroke-linecap:round;stroke-linejoin:round;stroke-miterlimit:10;}
	
		.st5{fill:none;stroke:#000000;stroke-width:25.5118;stroke-linecap:square;stroke-miterlimit:10;stroke-dasharray:28.3465,73.7008,85.0394,59.5276,48.189,53.8583;}
	.st6{fill:none;stroke:#000000;stroke-width:5.6693;stroke-linecap:square;stroke-miterlimit:10;}
</style>
<g>
	<path d="M60.2,393.8c14.1,1,28.3,1.4,42.4,1.7c14.1,0.3,28.3,0.3,42.4,0.2c14.1-0.2,28.3-0.4,42.4-0.9c14.1-0.5,28.3-0.9,42.4-1.9
		c14.1-0.9,28.3-2.2,42.4-3.7l42.4-4.8c14.1-1.5,28.3-2.8,42.4-3.6c14.1-0.8,28.3-1.2,42.4-1.1c14.1,0.1,28.3,0.6,42.4,1.7
		c14.1,1.1,28.3,2.7,42.4,4.4c14.1,1.7,28.3,3.6,42.4,5c14.1,1.5,28.3,2.6,42.4,3.2c28.3,1.2,56.6,1.9,84.9,2
		c14.1,0,28.3-0.1,42.4-0.4c7.1-0.2,14.1-0.4,21.2-0.7c7.1-0.3,14.1-0.7,21.2-1.2v11.3c-7.1-0.5-14.1-0.9-21.2-1.2
		c-7.1-0.3-14.1-0.5-21.2-0.7c-14.1-0.3-28.3-0.4-42.4-0.4c-28.3,0.1-56.6,0.8-84.9,2c-14.1,0.6-28.3,1.7-42.4,3.2
		c-14.1,1.4-28.3,3.3-42.4,5c-14.1,1.8-28.3,3.3-42.4,4.4c-14.1,1.1-28.3,1.7-42.4,1.7c-14.1,0.1-28.3-0.3-42.4-1.1
		c-14.1-0.8-28.3-2.1-42.4-3.6l-42.4-4.8c-14.1-1.5-28.3-2.8-42.4-3.7c-14.1-1-28.3-1.4-42.4-1.9c-14.1-0.5-28.3-0.7-42.4-0.9
		c-14.1-0.1-28.3-0.1-42.4,0.2c-14.1,0.3-28.3,0.7-42.4,1.7V393.8z"/>
</g>
<g>
	<polygon points="776.6,61.8 493.1,331.6 476.9,316.1 732.4,19.6 	"/>
</g>
<g>
	<polygon points="86.4,23.3 337.5,324 327.3,333.7 39.4,68.1 	"/>
</g>
<g>
	<polygon points="732.6,773.7 480.1,474.3 489.9,465.1 776.4,732 	"/>
</g>
<g>
	<polygon points="45.7,741.8 327.5,470.4 336.6,479.1 79.5,774 	"/>
</g>
<text transform="matrix(1 0 0 1 514.6367 778.5576)" class="st0 st1 st2">annoyed</text>
</svg>
