<?xml version="1.0" encoding="UTF-8"?>
<svg id="Layer_1" data-name="Layer 1" xmlns="http://www.w3.org/2000/svg" viewBox="0 0 800 800">
  <path d="m35.06,706.27c9.65-82.3,17.45-164.75,28.02-246.99,1.73-12.51,3.44-25.03,6.08-37.51.75-3.33,1.52-6.78,2.72-10.15.77-2.08,2.17-5.53,4.37-7.45,5.31-5.08,13.39-3.08,16.87,2.71,4.14,7.04,5,15.45,6.35,23.08,7.5,57.8,8.92,116.1,13.41,174.03,1.81,24.62,3.61,49.25,7.02,73.63.58,4.01,1.22,8,1.98,11.9,1.02,4.96,2.02,10.12,4.14,14.09-.09-.07-.32-.37-1.19-.76-.86-.42-2.35-.48-3.32-.14-.86.29-1.11.58-1.17.62-.05.04.04-.02.18-.2,1.95-2.66,3.12-6,4.38-9.19,13.11-38.96,19.47-79.98,30.75-119.7,1.79-6.17,3.61-12.38,6.21-18.41,1.77-3.75,3.53-7.96,8.03-9.71,4.57-1.64,8.84,1.6,10.23,5.78,2.26,6.59,2.28,13.58,2.7,20.23.36,8.41.46,16.7.62,24.98.53,24.49.87,49.26,5.48,73.31,2.91,14.63,11.06,43.63,30.89,33,26.83-15.59,51.82-68.87,85.67-70.78,9.38-.55,18.64,4,24.95,10.56,11.67,12.08,18.2,28.14,28.99,40.65,9.96,12.01,24.37,21.18,40.07,21.93,16.19.64,30.77-8.53,45.26-15.18,15.1-7.29,31.8-12.51,48.76-12.36,8.52-.08,17.33,1.4,25.06,5.14,3.89,1.81,7.51,3.96,11.07,6.06,10.49,6.44,21.6,11.51,33.54,14.61,23.92,6.2,48.85,7.06,73.5,6.97,8.32-.16,16.74.41,24.98,1.68,15.32,2.29,33.55,7.66,48.45,11.42,24.01,6.18,48.6,10.02,73.39,10.87.29.01.52.26.51.55-.01.29-.25.51-.54.51-16.58-.32-33.16-1.79-49.52-4.68-24.51-3.97-48.17-12.25-72.7-15.93-8.14-1.17-16.3-1.64-24.54-1.4-16.6.29-33.25-.03-49.83-1.91-16.6-1.92-33.26-5.56-48.34-13.07-7.42-3.59-14.38-8.36-21.78-11.76-14.74-6.76-31.86-5.03-47.1-.9-34.25,9.57-57.93,38.98-95.46,18.35-15.33-8.17-25.7-22.91-34.63-37.09-4.49-6.92-8.84-13.88-14.3-19.25-5.21-5.23-12.08-8.65-19.44-8.18-34.86,2.43-63.98,77.32-96.24,74.56-19.83-2.68-26.58-25.99-30.31-42.37-5.13-24.73-5.86-49.94-6.76-75.02-.28-8.28-.5-16.55-.97-24.67-.46-5.67-.53-11.37-2.19-16.59-.09-.23-.19-.4-.13-.29.2.3.45.52.79.75.76.53,1.85.8,2.81.67.48-.07,1.04-.22,1.38-.42.52-.3.48-.36.42-.27-1.78,2.63-2.97,6.15-4.05,9.3-10.75,35.42-16.46,72.28-25.68,108.3-2.65,10.2-5.27,20.76-9.55,30.74-1.47,3.2-2.99,6.34-5.81,8.92-3.78,3.62-10.15,3.58-13.82-.63-2.52-2.76-3.19-4.94-4.4-7.85-3.04-8.64-4.32-16.82-5.81-25.55-12-81.92-12.44-165.15-24.04-246.99-1.01-5.45-1.75-10.73-3.74-15.59-.09-.18-.16-.29-.1-.19,1.03,1.37,2.29,2.18,4.55,2.63,2.58.51,6.29-.82,7.65-3.08-1.12,2.5-1.68,6.05-2.37,9.02-2.3,11.87-3.79,24-5.28,36.12-9.31,82.15-15.88,164.71-24.29,247-2.09,15.13-23.95,13-22.87-2.45h0Z"/>
</svg>