<?xml version="1.0" encoding="UTF-8"?>
<svg id="Layer_1" data-name="Layer 1" xmlns="http://www.w3.org/2000/svg" viewBox="0 0 800 800">
  <path d="m751.39,693.92c-22.91-6.24-45.47-13.85-67.62-22.45-22.13-8.67-43.9-18.3-64.99-29.23-10.55-5.46-20.89-11.32-31.13-17.31-5.08-3.08-10.18-6.08-15.19-9.26-2.51-1.57-5.05-3.1-7.54-4.7l-7.47-4.8c-9.93-6.44-19.82-12.91-29.59-19.56-9.81-6.58-19.48-13.34-29.12-20.15-4.77-3.47-9.6-6.87-14.31-10.42-2.36-1.77-4.75-3.5-7.1-5.29l-7.04-5.37c-4.71-3.56-9.3-7.27-13.96-10.9-4.57-3.73-9.21-7.39-13.74-11.19-4.53-3.79-9.09-7.55-13.54-11.44-2.23-1.94-4.49-3.84-6.7-5.81l-6.6-5.92c-8.82-7.89-17.42-16.03-25.82-24.38-16.83-16.67-32.72-34.3-47.76-52.57-15.06-18.26-29.23-37.19-43.15-56.13-6.94-9.49-13.91-18.91-21.01-28.16-7.11-9.24-14.44-18.27-22.33-26.62-7.88-8.35-16.42-16.01-25.95-21.84-4.77-2.88-9.77-5.3-14.98-7.05-5.21-1.72-10.6-2.86-16.08-3.22-2.73-.24-5.49-.21-8.24-.13-2.76.16-5.51.4-8.25.84-5.48.83-10.9,2.2-16.17,4.09-10.54,3.77-20.44,9.39-29.48,16.1-9.06,6.71-17.26,14.56-24.75,22.97-7.49,8.41-14.21,17.47-20.42,26.79-6.18,9.34-11.82,19.02-16.86,28.97-5.04,9.95-9.54,20.17-13.24,30.67-7.45,20.97-12.18,42.95-12.97,65.27-.4,11.16.24,22.35,2.03,33.49,1.73,11.16,4.59,22.21,8.35,32.96,3.78,10.75,8.54,21.17,14.18,31.08,5.64,9.91,12.16,19.32,19.59,27.94,7.43,8.61,15.77,16.44,25.02,23.02,9.23,6.58,19.35,11.95,30.09,15.61,5.36,1.85,10.87,3.29,16.47,4.32,5.6,1.01,11.28,1.61,16.98,1.81,11.42.42,22.91-.82,34.14-3.32,22.5-5.05,43.8-15.09,63.23-27.75,19.47-12.66,37.09-28.21,52.35-45.7,7.64-8.74,14.69-17.97,21.16-27.53,6.47-9.57,12.34-19.5,17.51-29.71,2.57-5.1,5.04-10.38,7.37-15.63,2.35-5.26,4.53-10.6,6.58-15.97,4.09-10.75,7.55-21.72,10.38-32.82,5.72-22.21,8.82-44.9,10.82-67.81,1-11.46,1.73-23,2.46-34.63.7-11.63,1.37-23.34,2.26-35.15.89-11.8,2.11-23.69,3.92-35.57,1.81-11.88,4.2-23.75,7.25-35.48,3.07-11.72,6.74-23.28,10.92-34.61l1.6-4.24,1.73-4.32c1.22-2.86,2.46-5.7,3.83-8.47,2.72-5.56,5.73-10.96,9.05-16.13,13.3-20.73,31.37-38.02,52.3-50.95,10.45-6.5,21.59-11.95,33.18-16.43,5.8-2.24,11.72-4.22,17.73-5.97,6.02-1.73,12.13-3.18,18.33-4.41,12.39-2.41,25.11-3.67,37.97-3.69,6.42.02,12.89.31,19.34.99,3.23.35,6.45.77,9.67,1.29,1.6.26,3.21.53,4.87.89,1.64.34,3.3.66,4.93,1.05,6.54,1.56,13,3.57,19.32,6,6.3,2.46,12.43,5.39,18.36,8.66,5.9,3.32,11.57,7.05,17.01,11.07,5.37,4.1,10.52,8.48,15.35,13.16,9.61,9.41,17.99,19.96,24.83,31.27,6.93,11.28,12.28,23.32,16.39,35.59,4.08,12.29,6.75,24.87,8.52,37.39,1.78,12.51,2.35,25.16,2.66,37.14.28,12.12.39,24.15.34,36.15-.08,12-.16,23.96-.65,35.91-1.05,23.89-3.49,47.73-8.09,71.24-2.28,11.75-5.13,23.42-8.68,34.9-3.58,11.47-7.89,22.76-13.31,33.58-5.43,10.8-11.97,21.19-20.21,30.3-4.09,4.57-8.65,8.76-13.62,12.43-1.22.95-2.53,1.78-3.79,2.67-1.3.82-2.63,1.67-3.94,2.42-2.61,1.53-5.29,2.94-7.99,4.3-10.85,5.35-22.36,9.34-34.23,11.66-11.85,2.32-24.07,3.03-36.12,1.74-12.04-1.3-23.92-4.51-34.84-9.86-10.92-5.33-20.78-12.79-28.97-21.71-8.2-8.93-14.73-19.28-19.63-30.26-4.93-10.98-8.25-22.58-10.66-34.26-2.41-11.67-4.12-23.57-4.3-35.7-.21-12.09,1.12-24.54,5.5-36.45,2.21-5.92,5.14-11.71,8.99-16.94,3.82-5.25,8.51-9.95,13.8-13.84,10.64-7.78,23.51-12.02,36.26-13.22,12.81-1.21,25.64.39,37.6,4.28,12.42,4.01,23.12,11.21,32.25,19.55,4.55,4.22,8.73,8.75,12.59,13.5,3.83,4.78,7.35,9.76,10.54,14.93,6.36,10.34,11.54,21.39,14.96,33.02,3.42,11.62,5.14,23.71,5.21,35.8.06,12.09-1.62,24.16-4.77,35.79-3.11,11.65-7.75,22.84-13.46,33.39-2.82,5.3-5.96,10.42-9.3,15.39-1.64,2.51-3.42,4.91-5.16,7.35-1.82,2.37-3.59,4.79-5.5,7.08-3.73,4.68-7.69,9.15-11.76,13.52-4.06,4.35-8.4,8.56-12.56,12.62-8.38,8.2-16.62,16.55-24.77,24.99-8.16,8.43-16.18,17.01-24.33,25.55-8.13,8.53-16.39,17.04-25.13,25.18-8.74,8.12-18.03,15.82-27.92,22.69-9.88,6.9-20.27,13.04-30.93,18.56-21.21,11-43.88,20.27-67.9,25.2-23.96,5.02-49.21,5.52-73.47.99-1.52-.25-3.03-.56-4.54-.88-1.51-.32-3.02-.61-4.52-.96-2.99-.73-5.98-1.43-8.94-2.28-5.93-1.59-11.76-3.49-17.5-5.59-11.48-4.19-22.53-9.29-33.18-14.96-5.31-2.84-10.54-5.82-15.67-8.92-2.59-1.55-5.24-3.24-7.8-4.94-2.55-1.76-5.07-3.54-7.52-5.43-9.83-7.48-18.75-16.12-26.46-25.65-15.51-19.04-26.12-41.4-32.18-64.64-6.12-23.3-7.37-47.56-5.32-71.32,1.04-11.89,2.91-23.69,5.49-35.32,2.57-11.63,5.82-23.11,9.78-34.36,3.96-11.25,8.6-22.26,13.85-32.95,5.24-10.69,11.01-21.09,17.01-31.29,12.02-20.39,24.77-40.09,35.16-60.81,5.21-10.34,9.83-20.93,13.71-31.77,3.87-10.84,7.02-21.92,9.42-33.17,1.2-5.62,2.24-11.29,3.08-16.99.42-2.85.82-5.7,1.15-8.56.37-2.89.65-5.64.85-8.47.81-11.25.35-22.62-1.2-33.82-1.57-11.2-4.22-22.24-8-32.84-3.77-10.6-8.68-20.74-14.77-30.03-6.08-9.27-13.35-17.69-21.73-24.6-8.37-6.98-17.81-12.23-28.14-16.01-10.29-3.79-21.16-6.19-32.01-7.01-10.85-.81-21.72-.01-31.81,2.84-10.1,2.81-19.32,7.75-26.86,14.6-7.59,6.86-13.38,15.47-17.06,25.06-3.72,9.59-5.41,20.13-5.53,30.81-.06,5.34.27,10.73.96,16.08.35,2.67.77,5.33,1.3,7.95.26,1.31.54,2.61.85,3.88l.47,1.88c.15.58.35,1.27.46,1.63l3.55,11.01-22.74,6.59-3.03-11.16c-.29-1.06-.46-1.79-.65-2.64l-.52-2.42c-.32-1.6-.61-3.19-.86-4.77-.51-3.17-.91-6.33-1.21-9.51-.59-6.35-.77-12.74-.5-19.15.55-12.8,2.98-25.82,8.17-38.04,2.58-6.1,5.85-11.97,9.78-17.37,3.93-5.41,8.49-10.32,13.55-14.66,5.06-4.34,10.66-8.06,16.58-11.06,5.92-3.01,12.15-5.27,18.48-6.86,12.68-3.2,25.65-3.72,38.22-2.45,12.58,1.3,24.83,4.36,36.5,9.01,5.83,2.34,11.53,5.09,17.01,8.37,5.48,3.27,10.64,7.03,15.41,11.19,9.58,8.29,17.61,18.11,24.18,28.65,6.57,10.56,11.69,21.87,15.57,33.52,3.89,11.65,6.49,23.66,7.93,35.8,1.41,12.14,1.65,24.41.52,36.61-.28,3.04-.66,6.13-1.1,9.07-.41,2.97-.9,5.94-1.4,8.9-1.01,5.92-2.22,11.81-3.6,17.66-2.77,11.7-6.3,23.24-10.63,34.45-4.32,11.22-9.4,22.12-15.03,32.65-11.25,21.11-24.65,40.63-36.93,60.52-12.37,19.83-23.34,40.4-31.29,62.23-7.93,21.8-13.2,44.66-15.23,67.75-2,23.07-.52,46.51,5.58,68.71,3.06,11.08,7.38,21.8,13.03,31.73,5.63,9.93,12.53,19.09,20.48,27.11,7.95,8.04,16.86,15.01,26.4,20.87,4.79,2.94,9.66,5.58,14.77,8.05,5.18,2.57,10.41,4.98,15.63,7.37,20.94,9.38,42.27,17.19,64.27,21.5,21.96,4.37,44.53,5.07,66.92,2.06,11.19-1.5,22.31-4.01,33.26-7.28l4.1-1.25,4.07-1.38c1.35-.47,2.72-.9,4.06-1.4l4.03-1.51c5.39-1.98,10.73-4.28,15.99-6.61,10.5-4.76,20.68-10.15,30.27-16.47,9.64-6.25,18.63-13.47,27.31-21.15,8.66-7.71,16.98-15.91,25.27-24.23l24.88-25.05c8.33-8.34,16.79-16.58,25.34-24.71,4.31-4.1,8.47-8.03,12.5-12.23,3.99-4.19,7.91-8.47,11.55-12.96,1.87-2.21,3.59-4.53,5.37-6.81,1.7-2.34,3.43-4.65,5.03-7.05,3.25-4.77,6.32-9.67,9.05-14.74,5.49-10.13,9.94-20.82,12.9-31.91,2.98-11.08,4.49-22.53,4.39-33.97-.09-11.44-1.88-22.84-5.2-33.77-3.38-10.9-8.17-21.41-14.64-30.79-3.25-4.68-6.86-9.09-10.81-13.14-3.95-4.05-8.26-7.71-12.77-11-4.54-3.24-9.28-6.14-14.21-8.47-2.44-1.22-4.96-2.21-7.47-3.19-2.53-.91-5.06-1.71-7.62-2.36-10.61-2.64-21.53-3.94-32.19-3.17-10.64.79-21,3.73-29.81,9.29-8.82,5.53-15.96,13.76-20.63,23.61-4.68,9.85-7.11,21.07-7.75,32.45-.66,11.41.34,23.01,2.4,34.43,2,11.42,5.33,22.56,10.09,33.03,4.73,10.47,10.98,20.24,18.74,28.61,7.75,8.37,17.06,15.25,27.32,20.18,10.27,4.91,21.44,7.92,32.81,8.96,11.37,1.07,22.9.25,34.09-2.09,11.2-2.35,22.04-6.35,32.17-11.63,2.52-1.34,5.02-2.73,7.45-4.24,1.22-.74,2.35-1.51,3.52-2.28,1.12-.83,2.29-1.59,3.37-2.49,4.39-3.45,8.43-7.37,12.07-11.67,7.31-8.58,13.11-18.49,17.84-28.88,4.73-10.41,8.39-21.34,11.3-32.48,2.92-11.14,5.06-22.51,6.68-33.95,3.19-22.91,4.23-46.13,3.73-69.28-.25-11.58-.86-23.15-2.2-34.64-1.33-11.49-3.26-22.91-5.8-34.15-2.52-11.37-5.52-22.02-9.42-32.36-3.88-10.32-8.42-20.21-13.47-29.6-5.11-9.36-10.59-18.32-16.67-26.65-6-8.39-12.58-16.17-19.6-23.4-14.12-14.37-30.68-25.93-49.46-33.65-4.64-1.85-9.68-3.68-14.77-5.22-5.1-1.54-10.29-2.93-15.58-4.04-10.56-2.28-21.47-3.59-32.51-3.85-11.04-.26-22.2.64-33.16,2.84-10.96,2.21-21.73,5.72-31.85,10.65-10.13,4.9-19.61,11.22-27.97,18.8-8.34,7.59-15.47,16.51-20.93,26.33-2.73,4.91-5.04,10.03-6.93,15.29-.96,2.63-1.78,5.3-2.54,7.98-.36,1.35-.7,2.69-1.04,4.06l-.97,4.21c-2.48,11.24-4.23,22.6-5.47,34.01-1.28,11.41-2.07,22.86-2.78,34.37l-2.04,34.76c-1.47,23.32-3.05,47.1-6.7,70.91-3.6,23.79-9.37,47.51-17.46,70.3-4.02,11.4-8.62,22.58-13.68,33.5-5.08,10.93-10.57,21.56-16.66,31.96-12.32,20.83-27.52,39.56-44.25,56.55-16.77,16.96-35.04,32.38-54.99,45.44-19.98,12.94-41.85,23.37-65.27,28.95-11.69,2.78-23.75,4.24-35.87,4.1-12.1-.16-24.25-2-35.89-5.62-11.64-3.62-22.73-8.98-32.89-15.71-10.16-6.73-19.44-14.75-27.71-23.65-16.6-17.82-29.19-38.94-38.62-61.28-4.73-11.19-8.61-22.76-11.61-34.65-2.98-11.89-4.86-24.21-5.56-36.57-.73-12.37-.16-24.83,1.48-37.13.83-6.15,1.96-12.26,3.37-18.3,1.39-6.05,3.08-12.02,5.01-17.91,7.77-23.53,19.53-45.74,35.02-64.99,15.45-19.26,34.35-35.67,55.54-48.12,10.61-6.2,21.85-11.38,33.67-14.96,11.81-3.54,24.32-5.44,36.86-4.3,6.26.53,12.45,1.89,18.39,3.88,5.93,2.05,11.6,4.74,16.89,7.93,10.63,6.38,19.83,14.48,28.32,22.98,8.48,8.54,16.24,17.62,23.76,26.79,7.52,9.18,14.72,18.54,21.91,27.86,14.31,18.7,28.39,37.42,42.96,55.71,7.29,9.15,14.67,18.21,22.2,27.14,7.55,8.92,15.21,17.75,23.07,26.41,15.72,17.31,32.25,33.92,49.64,49.63,2.15,1.99,4.36,3.91,6.58,5.83l6.64,5.76,6.77,5.61c2.26,1.87,4.5,3.75,6.82,5.54l6.91,5.44c2.3,1.82,4.67,3.55,7.01,5.31,4.66,3.56,9.44,6.96,14.21,10.36,4.79,3.38,9.63,6.69,14.51,9.93,4.92,3.18,9.83,6.39,14.86,9.4,9.98,6.14,20.25,11.83,30.63,17.25,10.41,5.39,20.96,10.45,31.59,15.34,10.65,4.84,21.36,9.5,32.1,14.05,10.76,4.51,21.54,8.94,32.37,13.23,10.85,4.25,21.75,8.35,32.7,12.31,21.92,7.88,44.05,15.1,66.29,22.1l8.87,2.79-5.12,17.49-8.97-2.44Z"/>
</svg>