<?xml version="1.0" encoding="UTF-8"?>
<svg id="Layer_1" data-name="Layer 1" xmlns="http://www.w3.org/2000/svg" viewBox="0 0 800 800">
  <path d="m26.3,40.95c16.43,9.49,69.7,38.32,55.3,62.13-11.01,17.47-55.55,17.58-58.71,38.29-2.33,31.27,88.04,62.06,76.09,106.09-3.45,12.64-14.85,21.18-25.35,27.56-10,6.06-20.7,10.91-30.55,16.82-13.99,8.24-23.87,19.48-5.12,29.28,9.67,5.09,20.9,8.19,31.58,11.33,11.11,3.18,22.44,6.23,33.72,9.99,17.47,5.99,35.29,13.06,48.2,27.1,9.24,9.79,13.77,24.46,12.19,37.76-.17,2.04-.61,4.12-1.3,6.04-7.71,22.7-53.01,37.22-73.78,46.6-14.27,6.37-45.89,18.32-51.06,32.77-4.08,18.82,25.47,26.48,39.42,30.96,28.65,8.86,61.07,14.27,84.01,36.29,10.09,9.69,16.53,24.22,17.28,38.14.15,2.17.07,4.57-.23,6.72-2.9,18.14-18.54,32.97-30.55,45.26-33.39,32.04-68.16,62.47-97.88,97.81-4.84,5.67-13.36,6.34-19.03,1.5-5.76-4.91-6.35-13.64-1.29-19.27,23.66-26.53,49.56-50.62,76.04-74.01,8.7-7.74,17.4-15.39,25.64-23.14,7.59-7.18,15.83-15.22,21.24-23.66,1.93-3.17,3.34-5.87,3.52-9.27-.12-4.83-1.12-9.48-2.87-13.66-18.67-42.51-112.04-35.11-131.01-75.42-3.41-7.43-4.3-16.06-1.83-23.83,4.7-13.73,17.74-21.88,29.44-28.28,21.18-11.08,43.44-18.12,64.91-27.44,10.53-4.79,29.21-12.61,33.85-23.17.33-.8.49-1.62.58-2.46,3.94-29.08-26.66-42.65-49.77-50.98-16.2-5.83-33.36-10.21-49.81-16.12-11.41-4.42-26.51-9.87-31.45-22.55-11.57-39.56,75-41.2,73.56-78.23-2.27-34.85-78.57-64.47-74.27-97.31,3-19.69,32.84-23.66,47.89-30.7,22.27-9.03,16.89-22.66,2.48-36.8-12.55-11.93-27.38-21.21-42.26-30.03-.57-.33-.77-1.07-.43-1.65.33-.57,1.06-.76,1.63-.45h0Z"/>
  <path d="m86.24,762.83c17.53-11.57,33.41-25.13,49.54-38.6,4.09-3.34,8.23-6.65,12.71-9.65,16.9-11.97,32.53-8.36,43.79,8.43,10.64,14.82,18.17,42.95,40.81,26.19,24.94-19.43,42.67-71.28,69.64-85.71,20.22-10.08,33.95,7.33,42.16,23.6,7.41,14.21,12.43,28.82,20.13,42.44,6.91,11.99,15.66,21.56,27.78,8.65,6.64-6.98,11.7-16.09,16.44-24.71,4.91-9.09,9.55-18.51,14.58-27.89,9.25-16.57,19.38-36.05,37.38-45.28,23.94-11.09,42.44,6.11,53.97,25.48,8.37,13.71,14.74,28.84,21.51,42.98,4.23,8.68,8.72,18.1,14.65,25.29,2.41,2.72,5.08,5.55,8.36,5.79.33,0,.65.01.93-.19,1.72-1.21,3.76-5.08,4.68-7.82,2.5-6.8,3.94-13.94,5.37-21.29,5.94-28.05,8.94-80.83,42.98-89.03,14.14-3.45,28.84.51,40.27,8.78,9.66,6.78,17.22,15.06,24.72,23.62,20.11,23.72,39.07,48.67,62.24,68.72,5.19,4.55,5.71,12.45,1.16,17.64-4.55,5.19-12.45,5.71-17.64,1.16-16.25-14.89-30.52-31.57-43.72-48.31-6.59-8.31-12.95-16.65-19.41-24.49-11.41-13.18-24.49-30.06-42.96-26.4-10.55,2.36-15.54,17.17-18.73,26.88-4.51,14.79-6.88,29.72-10.22,45.21-3.22,13.52-6.77,34.14-20.35,41.39-7.6,4.21-18.13,1.65-24.27-3.48-7.37-5.81-12.21-14.03-16.34-21.68-2.59-4.9-4.88-9.8-7.07-14.66-6.51-14.38-12.07-28.53-19.81-41.92-8.64-15.05-21.99-30.32-39.4-17.09-11.49,9.07-18.89,22.3-26.39,35.22-5.09,9.02-9.93,18.33-15.2,27.61-5.56,9.59-11.01,18.97-19.06,27.09-10.34,10.64-24.62,13.33-35.96,2.32-8.17-8.01-12.74-18.66-17.25-28.78-4.22-9.76-7.95-19.53-12.44-28.64-5.48-10.96-14.6-27.17-28.98-19.99-26.97,14.29-47.87,74.98-77.23,87.24-24.15,9.18-31.65-17.43-41.83-32.87-5.22-8.29-13.19-14.97-23.35-13.53-9.68,1.71-18.18,8.98-26.03,14.89-16.37,13.09-32.79,26.5-50.6,37.71-.65.41-1.51.22-1.92-.43-.41-.64-.23-1.49.4-1.9h0Z"/>
  <path d="m766.74,677.21c-5.42-20.16-18.5-36.99-30.51-53.74-6.11-8.64-12.6-16.95-16.63-26.95-3.44-7.84-1.62-17.36,3.68-23.96,4.99-6.46,12.15-10.91,18.93-14.98,9.71-6.1,23.87-12.19,26.72-24.08.92-4.38.31-9.2-2.1-13.01-14.9-22-73.88-17.99-78.13-60.26-3.25-39.62,52.89-52.38,68.38-82.67,2.29-4.6,3.4-9.53,3.18-14.57.12-7.42-11-10.01-17.39-11.78-23.94-6.52-73.65-5.29-80.58-35.3-6.71-34.74,33.97-51.62,58.26-65.47,12.86-7.31,26.28-14.02,35.06-25.4,3.64-5,5.06-10.28,3.89-15.99-.93-5.23-5.19-6.76-10.13-7.4-9.05-.98-19.27.79-28.61,2.37-17.17,2.57-42.73,10.11-59.53,1.73-10.82-5.29-14.53-18.12-13.16-29.45,3.02-25.51,31.41-49.86,48.38-67.57,21.57-21.5,43-44.06,58.93-69.68,3.22-5.15,10.01-6.72,15.16-3.5,5.21,3.25,6.74,10.16,3.41,15.31-17.81,27.29-40.3,50.03-63.45,72.18-11.1,10.76-22.25,21.05-31.95,32.74-6.86,8.63-14.35,18.89-11.85,30.04,2.02,12.21,41.29,2.63,51.32,1.57,5.24-.8,10.57-1.56,16.1-2.02,8.69-.63,18.51-.95,27.21,2.98,10.96,4.8,15.32,16.46,14.02,27.73-3.04,24.41-29.22,36.79-48.05,47.02-16.76,9.29-51.36,23.14-52.99,44.13-.28,3.78.18,7.81,2.35,11.02,9.07,12.98,37.78,15.69,53.23,18.99,13.92,2.99,39.38,6.16,40.64,24.34,1.2,31.28-31.49,46.76-52.45,63.16-7.66,5.97-15.4,12.68-19.39,21.47-3.79,8.34-2.91,18.69,1.78,26.47,14.86,25.49,70.09,24.03,74.14,53.26,1.32,8.96-2.98,17.4-9.87,22.91-10.1,8.43-22.91,12.88-32.99,21.06-7.77,6-12.67,15.81-8.72,25.34,3.6,9.48,9.94,18.03,15.66,26.46,11.79,17.14,24.68,34.49,29.76,55.08.11.48-.18.96-.66,1.07-.48.11-.95-.18-1.07-.65h0Z"/>
  <path d="m692.48,25.31c-18.97,21.24-66.25,75.87-97.85,59.48-17.41-9.89-19.67-32.34-29.04-47.72-9.55-15.97-23.29,4.17-29.45,13.19-7.55,11.32-14.05,23.75-21.67,35.28-5.67,8.09-14.16,21.31-26.1,18.35-11.01-3.39-12.63-19.02-14.63-28.34-.83-4.58-1.59-9.09-2.47-13.49-1.65-8.08-3.66-16.98-8.22-23.51-4.47-6.29-10.65-7.11-17.86-4.96-7.85,2.38-15.32,7.25-22.12,12.17-29.69,21.9-53.27,50.89-83.88,72.3-6.44,4.24-13.76,8.47-21.95,9.75-11.12,1.88-20.9-4.06-25.14-14.39-5.84-14.5-4.75-29.88-4.96-44.39-.16-10.42.75-21.58-1.95-31.4-.43-1.4-1.1-2.24-.97-2,.06.09.42.34.69.43.23.09.47.09.49.1.05-.02-.97.32-2.16,1.2-1.21.85-2.6,2.09-3.98,3.46-4.51,4.58-8.46,9.67-12.58,14.9-11.83,15.07-23.49,30.62-39.8,42.16-13.61,9.71-31.43,15.04-48.17,10.06-15.98-4.72-26.51-18.02-36.41-29.97-5.84-7.11-11.45-13.8-17.53-19.8-6.05-6.02-12.53-11.37-19.51-15.98-5.53-3.65-7.06-11.09-3.42-16.62,3.7-5.64,11.39-7.1,16.91-3.23,8.25,5.73,15.85,12.37,22.67,19.49,6.84,7.11,12.87,14.71,18.53,21.95,8.13,9.92,14.17,19.44,25.13,23.49,33.54,9.02,59.92-40.05,80.96-60.06,4.61-4.32,10.12-8.71,17-9.57,9.73-1.28,17.23,5.67,19.63,14.45,3.4,12.45,2.17,24.84,2.03,37.24-.13,12.79-1.32,26.03,2.68,37.53,1.47,3.71,3.52,5.52,7.57,4.92,5.52-.84,10.53-3.74,15.62-6.88,7.21-4.61,14.24-10.24,21.14-16.05,13.83-11.69,27.25-24.34,41.43-36.42,15.99-13.13,43.43-37.47,65.61-31.32,21.11,6.52,22.72,34.47,25.9,52.57.79,4.13,2.85,20.89,7.66,20.24,2.2-.48,4.02-2.07,5.94-3.9,2.86-2.84,5.54-6.38,8.08-10.01,10.6-15.15,18.85-32.02,31.33-46.07,10.28-11.81,25.02-16.93,34.58-1.01,5.94,10.14,8.45,21.73,13.69,32,9.31,19.52,24.05,20,41.86,10.94,24-12.94,43.24-33.28,61.74-53.17.73-.81,1.99-.87,2.8-.14.8.72.86,1.95.16,2.77h0Z"/>
</svg>