<?xml version="1.0" encoding="UTF-8"?>
<svg id="Layer_1" data-name="Layer 1" xmlns="http://www.w3.org/2000/svg" viewBox="0 0 800 800">
  <path d="m408.95,373.72c17.03,21.49,64.19,16.57,75.6,37.75,7.33,15.36-4.16,25.72-16.04,33.17-4.9,3.17-9.86,5.97-14.09,9.03-2.07,1.5-3.99,3.17-4.92,4.57-1.21,1.55-.38,2.37.48,3.61,5.76,7.23,15.58,7.02,24.43,6.31,16.44-1.86,32.24-7.27,48.14-12.42,21.87-7.06,43.68-15.62,66.78-18.52,9.28-1.01,20.24-.95,29,4.27,9.71,5.58,14.75,17.69,13.28,28.56-3.43,26.9-33.28,54.16-52.7,71.38-17.43,15.06-35.83,28.81-54.72,41.9-9.52,6.56-18.95,12.84-28.81,18.97,0,0-5.24-15.75-5.24-15.75l261.3-28.46c9.92-1.1,15.62,11.34,8.17,18.11.03.15-213.7,192.6-213.73,192.75,0,0-12.21-21.47-12.21-21.47,0,0,238.43-77.79,238.43-77.79,0,0,8.79,27.64,8.79,27.64,0,0-239.57,74.21-239.57,74.21-13.19,4.02-22.32-12.37-12.21-21.47,0,0,216.43-189.39,216.43-189.39,0,0,8.01,18.25,8.01,18.25-.02.04-261.77,24.52-261.8,24.55-4.67.44-8.82-2.99-9.25-7.67-.32-3.37,1.39-6.46,4.11-8.09,4.7-2.8,9.52-5.81,14.24-8.81,4.74-3.01,9.44-6.08,14.12-9.19,31.53-21.39,79.24-55.04,98.07-87.79,5.31-9.25,8.45-22.33-1.64-28.97-10.1-5.72-25.43-2.43-36.67-.11-27.64,6.38-53.87,17.27-81.74,23.57-8.65,1.88-17.7,3.42-26.75,3.06-8.26-.28-17.28-2.73-23.09-9.22-2.89-3.15-5.24-7.19-4.73-11.66,1.28-10.92,16.96-17.14,24.78-22.41,5.38-3.56,13.23-7.97,14.09-14.66.38-4.55-1.49-7.8-5.17-10.54-6.44-4.55-14.3-6.66-22.06-9.05-11.06-3.29-22.39-6.23-32.76-11.88-5.27-2.91-10.37-6.71-14.23-11.79,0,0,5.9-4.57,5.9-4.57h0Z"/>
  <path d="m403.03,378.75c-8.86,6.81-18.73,11.17-28.5,16.02-9.18,4.78-38.88,17.29-33.09,30.47,2.92,6.34,8.73,10.96,14.31,15.62,4.02,3.23,8.25,6.36,12.52,9.61,6.57,5.13,13.64,10.26,18.68,17.47,10.47,15.16-4.11,29.44-19.88,28.76-14.39-.42-27.52-6.48-40.29-12.12-19.17-8.75-37.73-19.34-57.23-26.58-44.45-16.28-36.2,14.3-19.96,41.56,10.57,17.76,23.49,34.36,36.78,50.3,6.74,8.03,13.67,15.92,20.75,23.68,7.03,7.69,14.32,15.43,21.64,22.77,3.43,3.44,3.43,9,0,12.44-2.46,2.46-6.01,3.16-9.09,2.1-.09.05-219.7-76.16-219.8-76.14,0,0,12.45-16.49,12.45-16.49,0,0,155.88,214.66,155.88,214.66,7.91,11.07-4.1,25.36-16.37,19.47-.22-.08-244.04-119.91-244.28-120,0,0,13.91-27.7,13.91-27.7l241.94,124.11s-16.59,19.36-16.59,19.36c-.13-.06-152.12-217.42-152.23-217.49-3.42-4.89-2.23-11.62,2.65-15.04,2.98-2.09,6.72-2.43,9.9-1.29,0,0,218.32,79.9,218.32,79.9,0,0-9.21,14.49-9.21,14.49-7.53-7.83-14.67-15.67-21.82-23.77-21.29-24.42-41.87-49.47-58.17-77.67-9.11-16.56-23.07-44.01-7.15-60.56,18.9-18.6,55.54,2.93,74.75,12.19,14.15,7.2,27.82,14.79,42.38,20.67,8.27,3.14,18.67,6.99,26.89,4.65,2.36-.71,4.54-2.41,5.65-4.43,1.7-3.57-2.92-8.1-5.5-10.91-7.27-7.16-16.11-13.26-24.11-20.02-16.56-13.56-27.66-29.22-7.13-45.96,16.96-13.34,38.65-18.26,55.93-30.64,0,0,5.05,6.5,5.05,6.5h0Z"/>
  <path d="m398.13,372.69c-11.92-17.45-45.69-12.94-64.61-11.53-12.03,1.15-24.13,2.66-36.46,3.54-18.15,1-43.78,2.6-56.37-13.47-10.11-14.37,5.5-28.97,15.87-37.43,14.28-11.55,30.38-21.18,44.87-31.86,6.33-4.89,13.58-9.94,17.18-16.54.35-.78.42-1.33.4-1.52-.03-.19-.02-.17-.24-.52-.85-1.04-1.9-1.22-3.47-1.59-7.85-1.15-16.27.65-24.41,2.23-29.59,6.45-58.64,16.98-88.69,22.51-14.49,2.35-32.91,5.33-46.17-3.28-5.07-3.36-8.5-8.52-8.03-14.62.93-13.44,14.16-29.7,22.11-40.1,15.6-19.43,32.33-37.18,49.93-54.74,0,0,8.18,15.88,8.18,15.88,0,0-170.71,33.57-170.71,33.57-5.9,1.16-11.62-2.68-12.78-8.58-.69-3.53.4-7,2.67-9.47-.02-.3,177.4-190.55,177.44-190.84,0,0,14.57,21.52,14.57,21.52,0,0-221.19,90.04-221.19,90.04,0,0-11.42-28.82-11.42-28.82,0,0,222.81-85.96,222.81-85.96,13.45-5.19,24.31,11.14,14.57,21.52,0,0-180.73,187.36-180.73,187.36,0,0-9.94-18.24-9.94-18.24.05-.04,171.35-30.42,171.41-30.45,9.12-1.55,14.61,9.58,8.06,15.9-17.14,16.5-34.17,33.94-49.37,52.22-5.53,6.76-10.87,13.6-15.21,21.01-1.72,3.01-3.35,6.11-3.78,8.99-.02.19,0,.22-.04.03-.05-.17-.21-.63-.53-1.04-.15-.17,0,0,.03.04,8.8,9.15,40.92,1.61,52.9-.9,23.77-5.31,46.96-12.6,71.12-17.41,9.67-1.71,19.64-3.63,29.9-1.76,7.4,1.24,14.49,7.24,14.42,15.37.02,6.76-4.54,12.31-8.47,16.35-13.76,13.16-30.31,22.07-45.5,32.58-6.78,4.81-35.16,22.82-28.61,32.03,12.74,16.91,62.74,7.9,82.87,7.02,12.37-.91,24.76-1.66,37.25-.48,6.31.64,12.73,1.77,18.95,4.3,6.32,2.52,12.29,6.87,15.97,12.76,0,0-6.74,4.37-6.74,4.37h0Z"/>
  <path d="m404.93,368.26c13.14-10.14,31.13-7.9,46.35-6.79,11.9.69,35.49,5.22,43.49-4.8,2.45-3.27,3.06-5.66.63-9.31-3.49-5.27-9.54-9.69-14.86-13.57-5.89-4.18-12.14-8.12-18.42-12.11-17.84-11.69-43.51-26.07-52.42-46.32-4.96-11.04-2.12-24.12,5.76-33.04,4.72-5.62,12.75-8.88,19.68-9,45.93-1.7,129.37,81.27,180.98,81.49,1.25-.03,2.54-.03,3.72-.3.86-.17.99-.45.59-.12-.17.15-.35.42-.41.57-.07.14-.06.11-.04-.08.02-.18-.01-.59-.05-1.03-1.17-6.45-5.32-13.03-8.99-18.86-3.83-5.9-8.14-11.71-12.62-17.42-27.55-34.47-59.22-65.89-90.88-96.67-10.67-10.27-21.49-20.5-32.33-30.43-4.42-4.05-4.72-10.92-.67-15.34,3.21-3.5,8.19-4.42,12.32-2.64.08-.07,246,106.95,246.12,106.92,0,0-15.95,20.02-15.95,20.02l-160.86-210.6c-9.25-12.24,2.96-29.02,17.42-24.06,0,0,210.62,69.15,210.62,69.15l-11.21,33.16s-209.38-72.85-209.38-72.85c0,0,17.42-24.06,17.42-24.06.15.14,157.14,213.44,157.27,213.58,7.95,11.09-3.76,25.31-16.09,19.83,0,0-244.04-111.15-244.04-111.15,0,0,11.8-17.9,11.8-17.9,21.81,20.74,42.93,41.81,63.7,63.54,25.87,27.62,52.01,55.18,72.78,87.13,5.41,9.07,12.07,19.89,11.33,31.31-.64,8.32-7.15,14.29-15.24,15.4-50.18,5.29-120.4-61.4-167.91-80.32-8.14-3.04-18.22-6.71-26.15-2.45-2.19,1.3-3.92,3.41-5.22,5.65-3.03,5.1-3.55,10.18-1.37,15.63,2.35,5.84,6.93,11.04,11.64,15.53,5.07,4.8,10.81,9.22,16.73,13.47,15.17,11.03,31.83,20.14,46.1,32.66,6.52,5.75,14.28,15.37,10.3,24.97-1.81,4.48-4.98,8.4-9.06,10.95-13.57,8.2-32.52,4.05-47.16,2.73-7.34-.82-14.61-1.56-21.63-1.31-6.97.24-13.79,1.57-18.66,5.34,0,0-5.13-6.48-5.13-6.48h0Z"/>
</svg>