<?xml version="1.0" encoding="UTF-8"?>
<svg id="Layer_1" data-name="Layer 1" xmlns="http://www.w3.org/2000/svg" viewBox="0 0 800 800">
  <path d="m746,44.57L38,50.97l10.97-10.97h0s9.19,731,9.19,731l-19.97-20.16h.01l546.96,7.88-10.79,3.66h.01s150.87-118.14,150.87-118.14l-1.51,26.18h-.01s-145.68-151.35-145.68-151.35l16.28.58h-.02c-14.99,12.46-29.92,25.15-44.74,37.87-14.8,12.75-29.5,25.61-43.74,38.78-7.08,6.58-14.15,13.27-20.52,20.06-1.57,1.69-3.1,3.39-4.41,5.01-.64.79-1.25,1.6-1.65,2.2-.2.3-.35.54-.35.54,0,0,.05-.11.12-.39.02-.08.06-.22.08-.33l.08-.45c.03-.21.05-.39.06-.63.02-.33.02-.67,0-1-.04-.4-.04-.27-.05-.3,0,.03.01.11.04.23.05.23.16.59.3.97.27.77.66,1.69,1.09,2.62.88,1.88,1.95,3.88,3.08,5.87,4.59,8,10.08,15.97,15.67,23.78,5.63,7.81,11.52,15.49,17.59,23.01,6.09,7.5,12.37,14.86,18.89,21.91,3.26,3.53,6.61,6.95,10.02,10.24,3.41,3.28,6.92,6.44,10.49,9.18,1.78,1.36,3.59,2.62,5.28,3.56.84.47,1.65.85,2.28,1.07.3.11.55.17.67.19.06.02.12,0,.18.03h.38c.65-.02,1.6-.19,2.57-.41.97-.22,2.01-.52,3.06-.85,2.1-.67,4.25-1.49,6.4-2.37,8.61-3.6,17.13-8.17,25.34-13.1,8.23-4.95,16.23-10.32,23.8-16.19,7.54-5.85,14.79-12.16,20.77-19.21,2.96-3.51,5.63-7.24,7.31-11,.82-1.88,1.42-3.7,1.54-5.44.17-1.86.01-3.9-.36-5.96-.75-4.15-2.38-8.4-4.42-12.48-2.04-4.09-4.5-8.07-7.22-11.88-5.43-7.64-11.85-14.68-18.78-21.07-6.94-6.38-14.5-12.09-22.47-16.63-4-2.23-8.1-4.17-12.22-5.47-2.06-.65-4.11-1.14-6.11-1.41-1.94-.27-3.98-.32-6.09-.18-4.21.28-8.56,1.23-12.82,2.62-4.26,1.4-8.45,3.2-12.45,5.38-7.98,4.35-15.37,10.03-20.97,16.89-5.58,6.87-9.21,14.95-8.58,23.22.2,4.36,1.17,8.7,2.59,12.92,1.5,4.2,3.47,8.28,5.94,12.09,4.87,7.65,11.45,14.36,18.99,19.43,1.88,1.28,3.84,2.43,5.84,3.45,2,1.04,4.05,1.93,6.14,2.65,2.08.72,4.2,1.31,6.32,1.64l.39.07.33.04c.22.03.45.05.68.07.46.04.94.04,1.42.04.97-.01,1.98-.11,3.01-.28,4.12-.67,8.37-2.31,12.34-4.45,3.99-2.15,7.76-4.8,11.18-7.81,3.42-3.01,6.48-6.41,8.93-10.1,2.46-3.68,4.28-7.7,4.96-11.78.17-1.04.28-1.99.29-3.1.05-1.08.02-2.17-.05-3.26-.13-2.18-.49-4.35-1.04-6.49-1.11-4.27-2.95-8.39-5.45-12.09-2.52-3.69-5.68-6.95-9.33-9.52-3.65-2.57-7.81-4.37-12.18-5.23-2.18-.44-4.41-.6-6.65-.54-.56,0-1.12.04-1.67.09-.56.05-1.13.08-1.64.17-1.05.14-2.08.42-3.1.72-4.09,1.32-7.81,3.97-10.83,7.26-3.02,3.29-5.43,7.23-6.86,11.31-.69,2.03-1.13,4.13-1.07,5.98.03.97.14,1.59.5,2.76.31,1.05.68,2.05,1.12,2.99.87,1.88,2.02,3.47,3.46,4.57,1.43,1.1,3.2,1.72,5.21,1.85,4.01.28,8.68-1.26,12.62-3.27l.13-.07c1.01-.52,2.26-.12,2.78.9.47.92.19,2.02-.62,2.6-1.15.84-2.2,1.5-3.37,2.14-1.15.63-2.35,1.19-3.59,1.68-2.48.97-5.18,1.65-8.09,1.68-2.88.03-6.04-.74-8.6-2.51-2.58-1.75-4.43-4.23-5.7-6.74-.64-1.26-1.15-2.56-1.57-3.85-.2-.65-.4-1.25-.58-2.1-.17-.79-.27-1.58-.3-2.34-.15-3.06.5-5.84,1.38-8.44,1.84-5.17,4.85-9.67,8.57-13.49,3.73-3.8,8.28-6.94,13.54-8.68,1.32-.41,2.66-.78,4.04-.97.7-.13,1.35-.18,2.02-.25.66-.07,1.33-.14,1.99-.15,2.66-.14,5.36,0,8,.46,5.29.88,10.38,2.87,14.89,5.75,4.5,2.89,8.43,6.62,11.63,10.89,6.34,8.58,9.89,19.39,8.53,30.6-.82,5.64-3.09,10.78-5.96,15.3-2.91,4.52-6.45,8.49-10.34,12.01-3.9,3.51-8.19,6.56-12.81,9.11-4.64,2.52-9.6,4.61-15.17,5.6-1.39.24-2.82.4-4.3.45-.74.02-1.49.02-2.25-.03-.38-.03-.76-.05-1.15-.1l-.58-.07-.51-.08c-2.74-.38-5.38-1.07-7.94-1.91-2.56-.84-5.03-1.86-7.41-3.05-2.38-1.17-4.68-2.47-6.88-3.91-8.81-5.74-16.38-13.21-22.21-21.99-2.94-4.37-5.36-9.13-7.24-14.14-1.81-5.03-3.09-10.33-3.45-15.77-.1-1.33-.18-2.78-.12-4.22.03-1.44.17-2.87.37-4.28.41-2.83,1.12-5.59,2.09-8.21,1.92-5.27,4.76-10.02,8.05-14.27,6.62-8.51,14.94-15.2,24.06-20.38,4.58-2.58,9.37-4.81,14.42-6.51,5.05-1.7,10.33-2.94,15.92-3.3,2.79-.18,5.67-.14,8.59.27,2.85.41,5.58,1.1,8.19,1.94,5.22,1.7,10,4.03,14.51,6.67,9.01,5.3,16.97,11.79,24.28,18.87,7.3,7.1,13.9,14.86,19.66,23.33,2.86,4.25,5.52,8.67,7.79,13.39,2.24,4.73,4.19,9.71,5.19,15.23.48,2.76.73,5.66.45,8.68-.25,3.16-1.21,6.07-2.34,8.67-2.31,5.21-5.46,9.51-8.77,13.52-3.34,3.98-6.93,7.62-10.62,11.09-3.69,3.47-7.52,6.74-11.44,9.89-7.85,6.26-16,12.06-24.43,17.45-8.46,5.36-17.11,10.39-26.47,14.67-2.35,1.06-4.76,2.06-7.3,2.97-1.28.45-2.58.87-3.99,1.24-1.41.36-2.87.7-4.67.86-.49.03-.95.06-1.46.06-.55-.02-1.11-.02-1.66-.1-1.1-.13-2.05-.36-2.91-.62-1.71-.53-3.14-1.17-4.47-1.84-2.64-1.35-4.9-2.85-7.08-4.39-4.32-3.09-8.21-6.39-11.99-9.77-3.77-3.38-7.38-6.88-10.93-10.4-7.09-7.06-13.87-14.36-20.45-21.82-6.59-7.46-12.98-15.08-19.16-22.92-3.09-3.92-6.12-7.91-9.08-11.98-2.96-4.08-5.85-8.24-8.62-12.66-1.38-2.22-2.73-4.49-4.03-7.01-.65-1.27-1.29-2.57-1.9-4.09-.31-.77-.61-1.56-.89-2.51-.14-.48-.28-.99-.4-1.56-.13-.63-.23-1.11-.32-2.11-.03-.48-.04-.97-.01-1.46.03-.39.07-.72.12-1.09.06-.39.11-.64.17-.9.06-.26.13-.54.2-.77.26-.86.53-1.54.78-2.1.51-1.12.98-1.93,1.43-2.67.91-1.48,1.75-2.65,2.61-3.8,1.7-2.26,3.38-4.26,5.08-6.22,6.79-7.76,13.75-14.8,20.79-21.82,14.08-13.96,28.45-27.44,42.91-40.82,14.47-13.37,29.05-26.52,43.82-39.62h.02c4.54-4.1,11.41-3.98,15.8.11l.48.45,153.29,143.63h.01s.02.04.02.04c6.85,6.77,6.91,17.81.14,24.67-.51.52-1.12,1.05-1.68,1.49l-151.1,117.84h-.01c-3.14,2.49-6.88,3.69-10.6,3.67h-.2s-547.01-2.12-547.01-2.12h-.01s-.51-.01-.51-.01c-10.92-.24-19.6-9.24-19.47-20.14L27.03,40.01h0s0-.2,0-.2c.05-6,4.97-10.83,10.97-10.77l708,6.4c2.52.02,4.55,2.09,4.53,4.61-.02,2.5-2.05,4.51-4.53,4.53Z"/>
</svg>