<?xml version="1.0" encoding="utf-8"?>
<!-- Generator: Adobe Illustrator 24.0.3, SVG Export Plug-In . SVG Version: 6.00 Build 0)  -->
<svg version="1.1" id="Layer_1" xmlns="http://www.w3.org/2000/svg" xmlns:xlink="http://www.w3.org/1999/xlink" x="0px" y="0px"
	 viewBox="0 0 800 800" style="enable-background:new 0 0 800 800;" xml:space="preserve">
<style type="text/css">
	
		.st0{fill-rule:evenodd;clip-rule:evenodd;fill:none;stroke:#000000;stroke-width:11.3386;stroke-linecap:round;stroke-linejoin:round;stroke-miterlimit:10;}
	.st1{fill:#999999;}
	.st2{font-family:'SourceSansPro-Regular';}
	.st3{font-size:51.0236px;}
	.st4{fill:none;stroke:#000000;stroke-width:19.8425;stroke-linecap:round;stroke-linejoin:round;stroke-miterlimit:10;}
	
		.st5{fill:none;stroke:#000000;stroke-width:25.5118;stroke-linecap:square;stroke-miterlimit:10;stroke-dasharray:28.3465,73.7008,85.0394,59.5276,48.189,53.8583;}
	.st6{fill:none;stroke:#000000;stroke-width:5.6693;stroke-linecap:square;stroke-miterlimit:10;}
</style>
<text transform="matrix(1 0 0 1 647.9526 788.2727)" class="st1 st2 st3">fearful</text>
<g>
	<path d="M746,44.6L38,51l11-11v0l9.2,731l-20-20.2h0l547,7.9l-10.8,3.7l0,0l150.9-118.1l-1.5,26.2l0,0L578,519.1l16.3,0.6l0,0
		c-15,12.4-29.9,25.1-44.7,37.9c-14.8,12.7-29.5,25.6-43.7,38.8c-7.1,6.6-14.2,13.3-20.5,20.1c-1.6,1.7-3.1,3.4-4.4,5
		c-0.6,0.8-1.3,1.6-1.6,2.2c-0.2,0.3-0.4,0.5-0.4,0.5c0,0,0-0.1,0.1-0.4c0-0.1,0.1-0.2,0.1-0.3l0.1-0.4c0-0.2,0-0.4,0.1-0.6
		c0-0.3,0-0.7,0-1c0-0.4,0-0.3,0-0.3c0,0,0,0.1,0,0.2c0,0.2,0.2,0.6,0.3,1c0.3,0.8,0.7,1.7,1.1,2.6c0.9,1.9,1.9,3.9,3.1,5.9
		c4.6,8,10.1,16,15.7,23.8c5.6,7.8,11.5,15.5,17.6,23c6.1,7.5,12.4,14.9,18.9,21.9c3.3,3.5,6.6,7,10,10.2c3.4,3.3,6.9,6.4,10.5,9.2
		c1.8,1.4,3.6,2.6,5.3,3.6c0.8,0.5,1.7,0.8,2.3,1.1c0.3,0.1,0.6,0.2,0.7,0.2c0.1,0,0.1,0,0.2,0l0.4,0c0.7,0,1.6-0.2,2.6-0.4
		c1-0.2,2-0.5,3.1-0.8c2.1-0.7,4.3-1.5,6.4-2.4c8.6-3.6,17.1-8.2,25.3-13.1c8.2-4.9,16.2-10.3,23.8-16.2
		c7.5-5.9,14.8-12.2,20.8-19.2c3-3.5,5.6-7.2,7.3-11c0.8-1.9,1.4-3.7,1.5-5.4c0.2-1.9,0-3.9-0.4-6c-0.8-4.1-2.4-8.4-4.4-12.5
		c-2-4.1-4.5-8.1-7.2-11.9c-5.4-7.6-11.8-14.7-18.8-21.1c-6.9-6.4-14.5-12.1-22.5-16.6c-4-2.2-8.1-4.2-12.2-5.5
		c-2.1-0.6-4.1-1.1-6.1-1.4c-1.9-0.3-4-0.3-6.1-0.2c-4.2,0.3-8.6,1.2-12.8,2.6c-4.3,1.4-8.4,3.2-12.4,5.4c-8,4.4-15.4,10-21,16.9
		c-5.6,6.9-9.2,14.9-8.6,23.2c0.2,4.4,1.2,8.7,2.6,12.9c1.5,4.2,3.5,8.3,5.9,12.1c4.9,7.7,11.4,14.4,19,19.4
		c1.9,1.3,3.8,2.4,5.8,3.4c2,1,4.1,1.9,6.1,2.6c2.1,0.7,4.2,1.3,6.3,1.6l0.4,0.1l0.3,0c0.2,0,0.5,0,0.7,0.1c0.5,0,0.9,0,1.4,0
		c1,0,2-0.1,3-0.3c4.1-0.7,8.4-2.3,12.3-4.4c4-2.1,7.8-4.8,11.2-7.8c3.4-3,6.5-6.4,8.9-10.1c2.5-3.7,4.3-7.7,5-11.8
		c0.2-1,0.3-2,0.3-3.1c0.1-1.1,0-2.2,0-3.3c-0.1-2.2-0.5-4.4-1-6.5c-1.1-4.3-2.9-8.4-5.5-12.1c-2.5-3.7-5.7-7-9.3-9.5
		c-3.6-2.6-7.8-4.4-12.2-5.2c-2.2-0.4-4.4-0.6-6.6-0.5c-0.6,0-1.1,0-1.7,0.1c-0.6,0-1.1,0.1-1.6,0.2c-1,0.1-2.1,0.4-3.1,0.7
		c-4.1,1.3-7.8,4-10.8,7.3c-3,3.3-5.4,7.2-6.9,11.3c-0.7,2-1.1,4.1-1.1,6c0,1,0.1,1.6,0.5,2.8c0.3,1,0.7,2,1.1,3
		c0.9,1.9,2,3.5,3.5,4.6c1.4,1.1,3.2,1.7,5.2,1.9c4,0.3,8.7-1.3,12.6-3.3l0.1-0.1c1-0.5,2.3-0.1,2.8,0.9c0.5,0.9,0.2,2-0.6,2.6
		c-1.1,0.8-2.2,1.5-3.4,2.1c-1.1,0.6-2.3,1.2-3.6,1.7c-2.5,1-5.2,1.7-8.1,1.7c-2.9,0-6-0.7-8.6-2.5c-2.6-1.7-4.4-4.2-5.7-6.7
		c-0.6-1.3-1.1-2.6-1.6-3.9c-0.2-0.7-0.4-1.2-0.6-2.1c-0.2-0.8-0.3-1.6-0.3-2.3c-0.1-3.1,0.5-5.8,1.4-8.4c1.8-5.2,4.8-9.7,8.6-13.5
		c3.7-3.8,8.3-6.9,13.5-8.7c1.3-0.4,2.7-0.8,4-1c0.7-0.1,1.4-0.2,2-0.3c0.7-0.1,1.3-0.1,2-0.2c2.7-0.1,5.4,0,8,0.5
		c5.3,0.9,10.4,2.9,14.9,5.7c4.5,2.9,8.4,6.6,11.6,10.9c6.3,8.6,9.9,19.4,8.5,30.6c-0.8,5.6-3.1,10.8-6,15.3
		c-2.9,4.5-6.4,8.5-10.3,12c-3.9,3.5-8.2,6.6-12.8,9.1c-4.6,2.5-9.6,4.6-15.2,5.6c-1.4,0.2-2.8,0.4-4.3,0.4c-0.7,0-1.5,0-2.3,0
		c-0.4,0-0.8,0-1.2-0.1l-0.6-0.1l-0.5-0.1c-2.7-0.4-5.4-1.1-7.9-1.9c-2.6-0.8-5-1.9-7.4-3c-2.4-1.2-4.7-2.5-6.9-3.9
		c-8.8-5.7-16.4-13.2-22.2-22c-2.9-4.4-5.4-9.1-7.2-14.1c-1.8-5-3.1-10.3-3.4-15.8c-0.1-1.3-0.2-2.8-0.1-4.2c0-1.4,0.2-2.9,0.4-4.3
		c0.4-2.8,1.1-5.6,2.1-8.2c1.9-5.3,4.8-10,8-14.3c6.6-8.5,14.9-15.2,24.1-20.4c4.6-2.6,9.4-4.8,14.4-6.5c5-1.7,10.3-2.9,15.9-3.3
		c2.8-0.2,5.7-0.1,8.6,0.3c2.9,0.4,5.6,1.1,8.2,1.9c5.2,1.7,10,4,14.5,6.7c9,5.3,17,11.8,24.3,18.9c7.3,7.1,13.9,14.9,19.7,23.3
		c2.9,4.2,5.5,8.7,7.8,13.4c2.2,4.7,4.2,9.7,5.2,15.2c0.5,2.8,0.7,5.7,0.4,8.7c-0.3,3.2-1.2,6.1-2.3,8.7c-2.3,5.2-5.5,9.5-8.8,13.5
		c-3.3,4-6.9,7.6-10.6,11.1c-3.7,3.5-7.5,6.7-11.4,9.9c-7.9,6.3-16,12.1-24.4,17.5c-8.5,5.4-17.1,10.4-26.5,14.7
		c-2.4,1.1-4.8,2.1-7.3,3c-1.3,0.4-2.6,0.9-4,1.2c-1.4,0.4-2.9,0.7-4.7,0.9c-0.5,0-0.9,0.1-1.5,0.1c-0.6,0-1.1,0-1.7-0.1
		c-1.1-0.1-2-0.4-2.9-0.6c-1.7-0.5-3.1-1.2-4.5-1.8c-2.6-1.4-4.9-2.8-7.1-4.4c-4.3-3.1-8.2-6.4-12-9.8c-3.8-3.4-7.4-6.9-10.9-10.4
		c-7.1-7.1-13.9-14.4-20.5-21.8c-6.6-7.5-13-15.1-19.2-22.9c-3.1-3.9-6.1-7.9-9.1-12c-3-4.1-5.8-8.2-8.6-12.7c-1.4-2.2-2.7-4.5-4-7
		c-0.6-1.3-1.3-2.6-1.9-4.1c-0.3-0.8-0.6-1.6-0.9-2.5c-0.1-0.5-0.3-1-0.4-1.6c-0.1-0.6-0.2-1.1-0.3-2.1c0-0.5,0-1,0-1.5
		c0-0.4,0.1-0.7,0.1-1.1c0.1-0.4,0.1-0.6,0.2-0.9c0.1-0.3,0.1-0.5,0.2-0.8c0.3-0.9,0.5-1.5,0.8-2.1c0.5-1.1,1-1.9,1.4-2.7
		c0.9-1.5,1.8-2.6,2.6-3.8c1.7-2.3,3.4-4.3,5.1-6.2c6.8-7.8,13.8-14.8,20.8-21.8c14.1-14,28.4-27.4,42.9-40.8
		c14.5-13.4,29.1-26.5,43.8-39.6l0,0c4.5-4.1,11.4-4,15.8,0.1l0.5,0.5l153.3,143.6l0,0l0,0c6.9,6.8,6.9,17.8,0.1,24.7
		c-0.5,0.5-1.1,1.1-1.7,1.5L595.6,789.6l0,0c-3.1,2.5-6.9,3.7-10.6,3.7l-0.2,0l-547-2.1l0,0l-0.5,0c-10.9-0.2-19.6-9.2-19.5-20.1
		L27,40v0l0-0.2c0.1-6,5-10.8,11-10.8l708,6.4c2.5,0,4.6,2.1,4.5,4.6C750.5,42.5,748.5,44.5,746,44.6z"/>
</g>
</svg>
