<?xml version="1.0" encoding="UTF-8"?>
<svg id="Layer_1" data-name="Layer 1" xmlns="http://www.w3.org/2000/svg" viewBox="0 0 800 800">
  <path d="m41.48,48.05c-1.22,125.89-8.3,251.79-1.46,377.56,3.39,84.35,29.16,169.56,86.94,232.68,58.29,65,144.76,97.06,230.45,103.74,51.53,4.67,104.27,1.82,153.65-14.44,133.74-41.39,236.88-168.53,242.18-309.45,2.09-65.88-6.88-134.64-36.87-193.69-55.74-113.03-182.53-153.64-301.14-156.55-132.78-8.63-223.51,64.24-254.23,192.16-11.68,49.43-13.91,101.88-8.97,152.64,8.34,84.58,49.39,161.14,131.82,192.54,61.18,23.01,133.26,23.17,193.63-1.86,78.33-31.98,125.66-108.63,139.79-190.03,3.12-16.52,5.04-33.34,6.11-50.27,2.76-26.68,41.06-24.22,40.25,2.73-8.41,138.16-82.58,261.95-226.32,288.19-55.64,9.65-113.84,5.19-166.62-15.53-73.33-28.44-123.63-92.13-142.32-167.54-9.39-35.92-12.2-72.73-11.73-109.63.85-91.23,25.22-188.99,93.05-254.14,56.45-54.55,129.89-73.17,206.66-67.97,54.48,2.42,108.72,10.89,160.13,30.48,101.71,38.69,166.3,115.12,189.86,221.1,9.71,44.39,12.9,90.17,10,135.45-9.68,147.19-119,278.16-259.33,320.33-52,16.59-107.24,19.27-161.27,13.9-89.69-7.74-180.26-42.56-240.82-111.31-57.77-64.24-85.12-150.87-88.45-236.09-.74-13.27-1.36-26.7-1.68-39.97-2.14-79.74.42-159.49,2.87-239.15,1.1-35.37,2.31-70.73,2.86-106.02.4-7.03,10.58-7.33,10.95.13h0Z"/>
</svg>