<?xml version="1.0" encoding="UTF-8"?>
<svg id="Layer_1" data-name="Layer 1" xmlns="http://www.w3.org/2000/svg" viewBox="0 0 800 800">
  <path d="m33.05,728.98c3.16-15.09,6.58-30.1,11.48-44.78,2.67-7.54,5.26-14.89,10.11-21.54,8.28-10.91,17.01-5.82,21.95,4.45,6.8,13.83,10.03,29.25,16.04,43.22,1.46,3.37,3.1,6.69,5.12,9.32,2.98,3.91,5.86,4.76,9.45,1.04,3.68-3.79,6.06-8.65,8.38-13.52,3.11-6.76,5.71-13.88,8.19-21.06,4.98-14.47,9.26-29.15,14.31-43.67,2.65-7.44,5.26-14.73,9.05-21.8,2.49-4.12,4.3-7.8,9.16-10.38,6.2-3,11.68,1.74,14.28,6.97,3.82,7.48,5.5,15.04,7.31,22.96,3.27,15.2,5.44,30.38,8.15,45.36,2.08,10.86,3.87,22.13,8.19,32.1.79,1.74,1.75,3.32,2.82,4.06-.01-.03-.3-.06-.29-.04,2.07-1.27,3.4-3.69,4.73-5.94,1.69-3.03,3.17-6.41,4.54-9.83,13.28-35.67,20.46-73.07,31.29-109.93,4.02-12.94,10.64-38.66,20.57-47.47,4.76-4.27,11.52-3.71,15.68,1.06,3.39,3.86,4.93,7.64,6.66,12,2.87,7.7,4.75,15.27,6.53,22.87,6.76,30.09,10.98,60.42,16.85,90.51,2.18,11.1,4.45,22.13,7.61,32.91,1.53,5.02,3.13,10,5.66,14.32.53.82.89,1.41,1.49,1.99.27.24.26.15-.08.02-.2-.09-.49-.14-.81-.15-1.3,0-1.3.59-.39-.44,2.41-2.84,3.96-6.41,5.63-10.36,11.75-31.67,17.36-65.73,24.28-98.89,10.72-52.68,18.78-106.24,34.16-158,3.42-10.1,6.51-20.27,13.41-28.99,5.56-7.02,15.17-9.27,22.33-2.75,5.88,5.47,8.08,12.36,10.48,18.95,3.73,11.39,6.08,23.12,8.23,34.73,6.72,37.94,10.72,76.39,15.18,114.42,3.52,30.22,6.84,60.67,11.73,90.59,1.24,7.42,2.59,14.8,4.22,21.94,1.58,6.43,3.07,13.17,6.07,18.85.26.46.52.81.6.89.06.1,0-.16-1.01-.74-.49-.27-1.29-.59-2.24-.71-.94-.14-1.96-.04-2.72.17-1.56.47-1.93.95-2,.98,1.24-1.75,2.36-3.89,3.26-6.19,2.6-6.42,4.62-13.58,6.38-20.46,7.24-29.14,12.05-59.42,16.84-89.23,11.92-75.64,21.27-151.79,34.61-227.31,4.21-22.98,8.54-46.06,15.27-68.69,1.81-5.93,3.89-12.04,6.57-17.85,2.36-4.98,5.23-10.17,9.85-14.02,7.15-6.19,17.99-6.02,24.95.75,9.12,8.81,12.66,23.87,15.83,35.41,7.45,30.7,11.41,61.11,15.64,92.07,12.43,90.92,18.51,182.09,36.67,271.68,2.82,11.66,5.29,23.42,10.7,33.74.56.98,1.15,1.74,1.21,1.77-1.08-1-2.45-1.57-4.08-1.87-1.61-.33-3.63-.1-4.97.39-1.36.47-2.05,1.01-2.36,1.25-.31.25-.29.27-.18.12.77-1.21,1.61-2.46,2.34-4.17,2.6-5.82,4.83-12.75,6.59-19.21,7.69-28.6,12.87-58.9,17.99-88.37,23.51-141.11,46.42-311.22,68.12-453.89,4.48-24.59,40.5-19.93,37.62,5.82-26.76,160.03-51.4,341.11-82.14,499.27-4.04,19.05-8.25,38.7-14.69,57.63-4.94,14.51-14.17,35.12-33.58,32.1-11.5-1.9-18.38-12.65-22.31-22.08-4.89-11.75-7.77-23.95-10.36-35.94-20.21-105.84-24.31-213.85-40.02-319.93-3.57-21.53-6.17-43.43-14.15-63.36-.58-1.25-1.2-2.37-1.59-2.92-.18-.27-.3-.37-.13-.22.19.15.7.65,2.09,1.17.68.25,1.56.44,2.49.47.94.04,1.88-.09,2.61-.3.75-.21,1.29-.48,1.65-.68.38-.22.57-.37.68-.46.21-.18.09-.11-.11.13-1.84,2.41-3.23,5.57-4.72,9.22-3.94,10.05-6.7,20.57-9.36,31.26-7.08,29.31-12.36,59.39-17.46,89.24-15.99,90.75-25.7,182.65-47.29,272.46-3.22,11.25-6.09,22.82-12.76,32.86-4.4,6.66-12.94,10.75-20.66,6.49-8-4.67-10.45-13.36-13-21.2-3.34-11.58-5.33-23.38-7.18-35.08-10.18-68.17-13.54-137.22-24.59-205.1-1.91-10.97-3.96-21.87-7.24-32.35-1.35-4.15-2.92-8.56-5.25-11.32-.08-.09.07.1.71.31.63.23,1.67.22,2.22.04.56-.17.66-.33.52-.21-1.18,1.06-2.09,2.41-3.11,4.16-3.33,5.88-5.85,12.93-8.07,19.56-6.96,21.51-11.9,43.69-16.82,65.88-11.52,52.29-20.62,105.44-34.02,157.43-3.05,11.34-6.26,22.75-10.82,33.74-2.73,6.1-5.87,13.54-12.2,17.55-5.51,3.5-12.56,1.49-16.44-3.71-2.29-2.81-3.85-6.12-5.17-9.22-3.11-7.63-5.01-15.24-6.86-23.08-8.39-37.41-12.39-75.76-20.38-113.09-1.62-7.33-3.39-14.66-5.81-21.34-1.07-2.72-2.4-6.19-4.13-8.13-.3-.34-.53-.45-.35-.38.17.12.92.18,1.17.08.29-.11.07-.05-.24.2-.32.26-.75.7-1.18,1.23-4.12,5.49-6.63,12.37-9.12,18.88-15.44,43.15-23.23,88.86-39.9,131.98-2.38,5.64-4.9,11.41-8.92,16.39-2.78,3.64-8.07,6.75-12.87,4.63-11.02-4.3-14.27-32.96-16.42-43.54-3.28-18.91-5.31-37.7-10.16-56.02-.99-3.52-2.15-7.02-3.66-9.92-.93-1.65-1.76-3.07-2.93-3.56-2.18.38-4.77,4.71-6.03,6.94-7,13.25-11.26,27.92-16.13,42.14-4.92,14.65-9.52,29.34-16.11,43.46-4.43,8.82-12.13,24.39-24.36,18.32-5.89-3.55-8.47-9.96-11.03-15.6-4.49-10.89-7.3-21.87-11.17-32.78-1.78-4.51-5.98-17.72-11.32-17.65-1.96.32-3.47,1.96-4.88,3.72-4.25,5.71-7.04,13-9.48,19.81-4.95,14.32-8.53,29.2-11.81,44.03-.29,1.35-1.63,2.2-2.98,1.91-1.34-.29-2.19-1.61-1.92-2.95h0Z"/>
</svg>