<?xml version="1.0" encoding="UTF-8"?>
<svg id="Layer_1" data-name="Layer 1" xmlns="http://www.w3.org/2000/svg" viewBox="0 0 800 800">
  <path d="m51.48,34.75c78.36,55.16,167.48,90.46,256.31,125.37,46.63,19.94,109.3,43.06,125.19,96.7,3.63,12.6,4.49,25.78,3.22,38.77-2.25,26.01-16.44,49.91-35.61,67.04-43.02,38.05-99.29,54.63-149.71,79.7-21.01,10.4-41.7,21.66-58.16,38.21-16.46,16.35-24.34,37.57-20.89,60.68,1.02,7.46,2.93,14.89,5.51,22.14,2.41,7.01,5.48,13.9,10.09,19.72,14.17,18.23,38.23,24.24,60.32,26.85,55.61,5.32,111.32-2.77,167.12-4.44,112.27-5.88,232.36,8.46,317.43,89.16,11.86,11,22.86,22.9,33.03,35.44,1.04,1.29.85,3.18-.44,4.22-1.28,1.04-3.17.85-4.21-.43-62-77.28-152.68-113.6-249.88-119.21-80-6.16-159.69,7.42-239.79,7.04-16.38-.41-32.79-1.67-48.8-5.83-26.7-6.78-46.48-21.89-55.33-48.75-13.01-34.53-9.4-68.07,17.03-95.1,58.18-61.01,200.3-77.29,231.63-156.66,7.4-20.36,7.12-44.23-2.14-63.91-6.33-13.25-16.8-24.02-28.65-32.83-24.97-18.27-54.82-30.13-83.69-41.76-29.63-11.67-59.79-22.78-89.6-34.99-59.86-24.3-118.3-53.25-171.94-89.64-4.85-3.28-6.12-9.86-2.84-14.71,3.3-4.88,9.96-6.13,14.81-2.78h0Z"/>
</svg>