<?xml version="1.0" encoding="UTF-8"?>
<svg id="Layer_1" data-name="Layer 1" xmlns="http://www.w3.org/2000/svg" viewBox="0 0 800 800">
  <path d="m430,108.9c5.89,1.52,12.62,2.57,19.25,3.45,3.32.48,6.71.81,10.07,1.21,3.38.33,6.76.69,10.16.96,13.59,1.15,27.28,1.86,40.95,2.18,13.67.32,27.35.21,40.85-.54,3.43-.17,6.62-.4,9.83-.78,1.6-.19,3.2-.37,4.78-.64l2.37-.37,2.34-.46c6.23-1.22,12.22-3.07,17.6-5.57,2.66-1.27,5.15-2.72,7.29-4.32,2.13-1.59,3.88-3.38,4.93-4.97.12-.2.2-.38.32-.57.11-.19.23-.37.27-.53.06-.17.14-.33.22-.48.03-.14.06-.27.1-.4.1-.49.13-.76.09-.89-.05-.14-.11-.3-.34-.65-.2-.16-.3-.38-.62-.59-.21-.23-.62-.44-.96-.69-.38-.23-.86-.45-1.3-.69-.54-.19-1.01-.43-1.59-.61l-.88-.26c-.29-.09-.64-.21-.7-.18-.13,0-.26-.03-.39-.07-.05-.03-.14-.04-.27-.03h-.35c-.23-.01-.47-.02-.7-.04-.27,0-.59.04-.88.06l-.9.05c-.31.02-.67.09-1,.14-1.32.15-2.8.49-4.24.78-5.96,1.44-12.26,3.65-18.5,6.08-12.52,4.91-25.04,10.68-37.52,16.52-12.48,5.88-24.95,11.92-37.45,17.96-24.99,12.09-50.11,24.15-75.63,35.48-25.51,11.34-51.42,21.99-78.01,31.12-26.6,9.04-53.9,16.73-82.28,20.47-14.17,1.85-28.64,2.63-43.22,1.51-7.28-.5-14.59-1.68-21.81-3.38-3.62-.81-7.19-1.94-10.74-3.09l-5.27-1.97c-1.82-.77-3.71-1.57-5.55-2.62-3.68-2.03-7.43-4.67-10.56-8.71-1.49-2.09-2.9-4.43-3.64-7.19-.77-2.69-1.05-5.66-.64-8.4.37-2.74,1.22-5.33,2.4-7.53.55-1.16,1.23-2.13,1.89-3.16.7-.95,1.42-1.9,2.18-2.75,3.06-3.41,6.55-5.99,10.17-8.05,7.27-4.08,15.13-6.13,22.99-6.85.98-.07,1.97-.17,2.95-.2l2.95-.06c.98,0,1.96.05,2.94.08.51.02.92.02,1.57.08.6.05,1.19.11,1.73.19,4.34.63,7.85,1.69,11.4,2.79,6.99,2.24,13.57,4.84,20.1,7.52,6.52,2.69,12.94,5.51,19.32,8.37,12.75,5.74,25.34,11.71,37.87,17.77,25.06,12.12,49.89,24.58,74.69,37.07l74.31,37.53c24.78,12.47,49.58,24.85,74.5,36.93,24.93,12.04,49.96,23.9,75.33,34.51,6.34,2.64,12.71,5.17,19.1,7.52,6.38,2.32,12.82,4.51,19.13,6.05,3.11.75,6.31,1.36,8.87,1.42.64.02,1.18-.02,1.61-.06.22-.03.29-.05.5-.09l.33-.09.38-.13c1.07-.39,2.35-1.01,3.62-1.76,2.57-1.5,5.18-3.39,7.68-5.41,2.51-2.04,4.93-4.23,7.25-6.53,4.61-4.6,8.9-9.65,12.11-14.92,1.58-2.61,2.9-5.34,3.46-7.7.3-1.17.35-2.19.27-2.86-.12-.67-.22-.9-.52-1.23-.27-.33-.96-.78-1.95-1.16-.52-.18-1.16-.32-1.73-.51l-1.99-.36c-2.8-.37-5.96-.33-9.14-.14-6.42.46-13.06,1.62-19.67,3.05-13.25,2.88-26.51,6.68-39.72,10.65-13.22,3.98-26.41,8.2-39.62,12.42-26.41,8.48-52.86,17.03-79.52,25.01-26.66,7.99-53.51,15.44-80.65,21.87-27.13,6.43-54.55,11.87-82.27,15.61-27.7,3.75-55.72,5.88-83.8,5.22l-5.26-.14-5.26-.24c-3.51-.12-7.01-.42-10.52-.65-3.51-.25-7-.62-10.51-.93-3.57-.39-7.11-.9-10.63-1.5-14.06-2.43-27.57-6.62-40.79-10.4-3.3-.93-6.59-1.82-9.84-2.57-3.24-.75-6.47-1.34-9.48-1.51-3.02-.22-5.72.23-7.13,1.22-.17.16-.32.23-.54.42l-.79.77c-.56.5-.98,1.05-1.46,1.57-.84,1.07-1.63,2.16-2.01,3.21-.42,1.05-.59,2.01-.52,2.93.1.92.46,1.88,1.06,2.89,1.26,2.01,3.5,4.01,6.11,5.66,2.59,1.68,5.51,3.12,8.54,4.38,3.03,1.28,6.17,2.4,9.38,3.39,12.85,3.98,26.41,6.39,40,8.27,1.7.24,3.4.47,5.11.67l2.56.31c.85.1,1.7.21,2.62.35,1.8.29,3.62.51,5.41.86l5.34,1.2c7.06,1.84,13.82,4.55,20.22,7.74,12.83,6.42,24.32,14.5,35.86,22.06,11.52,7.59,23.18,14.75,35.53,20.44l4.64,2.1,4.71,1.92c1.56.67,3.16,1.24,4.76,1.8,1.6.56,3.18,1.17,4.8,1.7,3.25.98,6.46,2.09,9.76,2.89,1.64.42,3.28.88,4.93,1.28l4.98,1.07,2.49.54c.83.17,1.67.29,2.51.43l5.03.84c3.36.52,6.75.85,10.13,1.28,3.4.26,6.79.54,10.2.75,3.41.09,6.82.26,10.24.29,3.42-.05,6.84-.04,10.26-.13l10.26-.52,10.24-.91,5.24-.45c1.77-.14,3.53-.32,5.3-.42,7.1-.34,14.25-.28,21.39.48,7.13.85,14.22,2.4,21.03,4.78,6.81,2.37,13.3,5.57,19.4,9.25,6.09,3.71,11.81,7.85,17.38,12.09,11.11,8.52,21.71,17.37,32.84,25.49,11.06,8.19,22.62,15.65,34.61,22.35,11.99,6.71,24.43,12.63,37.16,17.86,6.34,2.67,12.82,5.03,19.29,7.39l9.79,3.33c3.26,1.13,6.65,2.19,9.92,3.42,13.21,4.74,26.07,10.68,38.01,18.27,11.92,7.57,22.83,17.04,31.42,28.43,4.31,5.67,8,11.81,11.06,18.21,3.06,6.41,5.51,13.09,7.44,19.87,1.96,6.78,3.42,13.65,4.73,20.5,1.32,6.84,2.46,13.67,4.03,20.31.79,3.31,1.7,6.57,2.85,9.69,1.15,3.12,2.56,6.1,4.4,8.74,3.56,5.38,9.11,8.96,15.42,10.64,1.24.33,1.98,1.61,1.65,2.85-.33,1.24-1.61,1.98-2.85,1.65h0c-3.55-.95-7.04-2.42-10.17-4.52-1.58-1.02-3.02-2.27-4.38-3.57-1.3-1.36-2.55-2.77-3.59-4.32-2.15-3.05-3.73-6.39-5-9.77-1.27-3.38-2.24-6.81-3.08-10.24-1.66-6.87-2.84-13.72-4.19-20.5-1.33-6.78-2.81-13.48-4.73-20.02-1.9-6.55-4.29-12.93-7.24-19.03-2.96-6.09-6.49-11.89-10.61-17.24-8.2-10.75-18.63-19.72-30.15-26.95-11.53-7.24-24.05-12.95-36.97-17.51-3.23-1.19-6.47-2.18-9.78-3.3l-9.94-3.32c-6.58-2.36-13.16-4.71-19.62-7.39-12.96-5.25-25.66-11.2-37.93-17.97-12.27-6.77-24.12-14.33-35.41-22.58-11.35-8.18-22.12-17.07-33.08-25.37-5.49-4.13-11.05-8.1-16.84-11.58-5.8-3.45-11.84-6.38-18.15-8.53-6.3-2.17-12.85-3.56-19.5-4.32-6.67-.67-13.42-.69-20.18-.33-1.69.1-3.38.29-5.07.43l-5.13.47-10.48.99-10.53.59c-3.52.11-7.04.13-10.55.19-3.52-.02-7.05-.16-10.57-.24-3.52-.19-7.04-.47-10.56-.72-3.51-.43-7.03-.75-10.53-1.27l-5.24-.85c-.87-.15-1.75-.27-2.62-.44l-2.6-.54-5.2-1.09c-1.72-.41-3.43-.87-5.15-1.31-3.45-.81-6.81-1.95-10.21-2.96-1.69-.54-3.35-1.16-5.02-1.74-1.68-.58-3.35-1.17-4.98-1.86l-4.93-1.98-4.85-2.16c-12.91-5.86-25.01-13.21-36.69-20.81-11.69-7.58-23.04-15.42-35.1-21.36-6.03-2.96-12.23-5.39-18.62-7.02l-4.82-1.05c-1.62-.3-3.25-.49-4.87-.74-.79-.13-1.66-.23-2.54-.33l-2.61-.3c-1.74-.19-3.48-.42-5.21-.65-13.89-1.84-27.79-4.2-41.49-8.35-3.42-1.03-6.83-2.23-10.21-3.63-3.37-1.39-6.72-2.99-9.97-5.07-3.22-2.07-6.46-4.61-8.95-8.47-1.2-1.95-2.16-4.27-2.42-6.82-.24-2.55.25-5.08,1.12-7.24.85-2.22,2.12-3.97,3.41-5.62.68-.76,1.34-1.58,2.06-2.25l1.07-1.04c.43-.38.99-.81,1.5-1.2,2.14-1.49,4.51-2.24,6.67-2.61,2.2-.39,4.24-.4,6.2-.31,3.92.21,7.54.89,11.06,1.67,3.52.79,6.93,1.7,10.31,2.63,13.46,3.77,26.56,7.73,39.89,9.96,3.33.55,6.66,1.01,9.99,1.35,3.41.28,6.81.63,10.23.85,3.42.2,6.83.47,10.26.57l5.13.2,5.14.1c27.43.49,54.92-1.75,82.18-5.6,27.27-3.85,54.33-9.37,81.16-15.89,26.84-6.52,53.44-14.06,79.91-22.16,26.47-8.08,52.78-16.76,79.17-25.39,13.2-4.31,26.42-8.62,39.75-12.71,13.34-4.08,26.76-8.03,40.61-11.13,6.94-1.53,13.99-2.83,21.41-3.41,3.73-.25,7.55-.35,11.64.15,1.05.18,2.08.34,3.13.55,1.09.31,2.15.56,3.26.95,2.24.83,4.69,2.1,6.78,4.33,1.02,1.1,1.94,2.4,2.56,3.81.63,1.39,1.04,2.86,1.23,4.24.37,2.78.05,5.27-.47,7.46-1.07,4.4-2.9,7.95-4.87,11.29-3.99,6.6-8.77,12.2-13.93,17.43-2.59,2.6-5.3,5.08-8.17,7.43-2.88,2.35-5.88,4.58-9.29,6.6-1.72,1.01-3.54,1.96-5.73,2.77l-.85.29-.92.27c-.63.16-1.41.33-2.05.41-1.3.17-2.49.22-3.59.2-4.39-.11-8.03-.88-11.67-1.71-7.19-1.72-13.91-3.98-20.58-6.36-6.65-2.4-13.19-4.96-19.67-7.61-12.96-5.31-25.72-10.94-38.41-16.71-12.68-5.77-25.27-11.69-37.82-17.68-25.1-11.98-50.02-24.26-74.9-36.6l-74.53-37.11c-24.84-12.34-49.69-24.63-74.67-36.53-12.49-5.94-25.01-11.79-37.6-17.38-6.29-2.78-12.6-5.51-18.92-8.07-6.31-2.55-12.67-5.01-18.91-6.97-3.08-.95-6.26-1.82-8.8-2.15-.99-.15-2.67-.15-4.15-.18l-2.25.06c-.75.03-1.49.12-2.24.17-5.93.57-11.77,2.2-16.59,4.97-2.4,1.37-4.52,3.03-6.08,4.8-.4.44-.71.89-1.05,1.33-.25.45-.6.88-.77,1.31-.47.86-.66,1.64-.76,2.32-.13.69,0,1.27.16,1.89.12.62.59,1.29,1.07,2.02,1.14,1.46,3.1,3,5.5,4.28,1.18.67,2.49,1.21,3.86,1.79l4.49,1.64c3.05.96,6.11,1.92,9.27,2.61,6.29,1.44,12.73,2.47,19.3,2.87,13.11.93,26.5.17,39.82-1.65,26.68-3.66,53.05-11.2,78.91-20.16,25.86-9.05,51.28-19.65,76.42-31,25.15-11.34,50.01-23.45,74.91-35.67,12.45-6.11,24.92-12.24,37.51-18.26,12.62-5.99,25.28-11.93,38.57-17.24,6.68-2.62,13.47-5.11,20.99-6.98,1.95-.42,3.85-.86,5.99-1.13.53-.07,1.02-.16,1.58-.21l1.7-.13c.57-.03,1.12-.08,1.71-.1l1.9.05.95.04c.3,0,.64.04,1.02.1.73.11,1.45.23,2.18.37.8.13,1.27.3,1.81.46l1.61.48c1.08.34,2.19.82,3.27,1.24,1.11.53,2.21,1.05,3.31,1.71,1.11.71,2.2,1.37,3.28,2.31,1.08.83,2.11,1.93,3.1,3.03,1.94,2.35,3.52,5.32,4.25,8.57.74,3.27.51,6.55-.18,9.42-.19.7-.39,1.41-.6,2.1-.25.64-.51,1.28-.78,1.92-.26.66-.57,1.23-.88,1.79-.32.57-.63,1.15-.96,1.69-2.73,4.24-6.04,7.36-9.42,9.95-3.4,2.58-6.94,4.63-10.53,6.37-7.19,3.39-14.55,5.64-21.93,7.14l-2.77.56-2.77.46c-1.85.33-3.69.55-5.53.78-3.68.45-7.42.74-10.91.94-14.2.86-28.3,1.06-42.37.81-14.07-.25-28.12-.9-42.19-2.01-3.52-.26-7.04-.62-10.56-.94-3.53-.39-7.05-.73-10.6-1.21-7.12-.92-14.14-1.92-21.71-3.81-5.32-1.33-8.55-6.71-7.22-12.03,1.33-5.32,6.71-8.55,12.03-7.22l.08.02.12.03Z"/>
</svg>