<?xml version="1.0" encoding="UTF-8"?>
<svg id="Layer_1" data-name="Layer 1" xmlns="http://www.w3.org/2000/svg" viewBox="0 0 800 800">
  <polygon points="54.86 51.66 356.47 96.19 358.84 126.15 70.84 231.15 68.78 201.26 353.86 276.82 354.21 280.07 117.95 402.69 116.74 373.82 357.74 459.82 357.57 489.24 68 573.97 67.9 571 355.48 632.43 356.52 662.26 63.51 775 45.49 722 346.48 632.74 347.52 662.57 67.1 574 67 571.03 347.43 459.76 347.26 489.18 106.26 403.18 105.05 374.31 352.79 276.93 353.14 280.18 62.22 231.74 60.16 201.85 348.16 96.85 350.53 126.81 54.14 55.34 54.86 51.66"/>
  <polygon points="770.22 75.66 410.75 164.67 410.25 137.2 713.96 218.93 714.03 227.05 408.48 314.74 409.01 287.4 745.01 386.4 744.19 413.81 395.5 482.17 395.68 477.87 757.3 580.49 754.63 608.08 408.63 648.08 410.22 620.2 703.78 699.66 702.22 706.34 403.78 647.8 405.37 619.92 751.37 579.92 748.7 607.51 394.32 482.13 394.5 477.83 737.81 386.19 736.99 413.6 400.99 314.6 401.52 287.26 711.97 218.95 712.04 227.07 403.75 164.8 403.25 137.33 757.78 30.34 770.22 75.66"/>
</svg>