<?xml version="1.0" encoding="utf-8"?>
<!-- Generator: Adobe Illustrator 24.0.3, SVG Export Plug-In . SVG Version: 6.00 Build 0)  -->
<svg version="1.1" id="Layer_1" xmlns="http://www.w3.org/2000/svg" xmlns:xlink="http://www.w3.org/1999/xlink" x="0px" y="0px"
	 viewBox="0 0 800 800" style="enable-background:new 0 0 800 800;" xml:space="preserve">
<style type="text/css">
	
		.st0{fill-rule:evenodd;clip-rule:evenodd;fill:none;stroke:#000000;stroke-width:11.3386;stroke-linecap:round;stroke-linejoin:round;stroke-miterlimit:10;}
	.st1{fill:#999999;}
	.st2{font-family:'SourceSansPro-Regular';}
	.st3{font-size:51.0236px;}
	.st4{fill:none;stroke:#000000;stroke-width:19.8425;stroke-linecap:round;stroke-linejoin:round;stroke-miterlimit:10;}
	
		.st5{fill:none;stroke:#000000;stroke-width:25.5118;stroke-linecap:square;stroke-miterlimit:10;stroke-dasharray:28.3465,73.7008,85.0394,59.5276,48.189,53.8583;}
	.st6{fill:none;stroke:#000000;stroke-width:5.6693;stroke-linecap:square;stroke-miterlimit:10;}
</style>
<text transform="matrix(1 0 0 1 594.861 770.8199)" class="st1 st2 st3">stressed</text>
<g>
	<polygon points="54.9,51.7 356.5,96.2 358.8,126.1 70.8,231.1 68.8,201.3 353.9,276.8 354.2,280.1 118,402.7 116.7,373.8 
		357.7,459.8 357.6,489.2 68,574 67.9,571 355.5,632.4 356.5,662.3 63.5,775 45.5,722 346.5,632.7 347.5,662.6 67.1,574 67,571 
		347.4,459.8 347.3,489.2 106.3,403.2 105,374.3 352.8,276.9 353.1,280.2 62.2,231.7 60.2,201.9 348.2,96.9 350.5,126.8 54.1,55.3 	
		"/>
</g>
<g>
	<polygon points="770.2,75.7 410.8,164.7 410.2,137.2 714,218.9 714,227.1 408.5,314.7 409,287.4 745,386.4 744.2,413.8 
		395.5,482.2 395.7,477.9 757.3,580.5 754.6,608.1 408.6,648.1 410.2,620.2 703.8,699.7 702.2,706.3 403.8,647.8 405.4,619.9 
		751.4,579.9 748.7,607.5 394.3,482.1 394.5,477.8 737.8,386.2 737,413.6 401,314.6 401.5,287.3 712,218.9 712,227.1 403.8,164.8 
		403.2,137.3 757.8,30.3 	"/>
</g>
</svg>
