<?xml version="1.0" encoding="UTF-8"?>
<svg id="Layer_1" data-name="Layer 1" xmlns="http://www.w3.org/2000/svg" viewBox="0 0 800 800">
  <path d="m428.73,364.73L712.48,34.48c31.99-34.44,83.11,9.25,53.83,46.25-1.14,1.33-2.51,2.67-3.79,3.79l-330.25,283.75c-1.05.9-2.63.78-3.54-.27-.82-.95-.8-2.34,0-3.27h0Z"/>
  <path d="m363.73,372.27S30.38,79.62,30.38,79.62C.27,51.05,39.32,6.29,71.74,32.51c4.4,3.66,291.7,332.4,295.53,336.22.91,1.04.81,2.62-.23,3.53-.96.84-2.37.82-3.31,0h0Z"/>
  <path d="m369.27,433.27L81.52,764.52c-30.23,32.2-78.06-9.11-50.35-43.74,1-1.15,2.2-2.33,3.31-3.31,0,0,331.25-287.75,331.25-287.75,1.04-.91,2.63-.8,3.54.25.83.96.81,2.36,0,3.29h0Z"/>
  <path d="m434.77,429.23l321.83,285.17c27.24,26.07-8.42,66.59-37.78,42.63-3.38-2.73-284.59-321.31-287.6-324.26-.92-1.03-.82-2.62.21-3.53.96-.85,2.39-.83,3.32,0h0Z"/>
  <path d="m364.15,37.41c25.97,21.19,71.41,60.8,52.33,98.27-6.53,12.27-19.23,20.2-30.48,26.61-13.12,7.73-29.59,14.55-36.92,27.58-2.59,5.05-3.51,9.81-1,14.59,3.89,7.13,10.95,12.5,17.45,17.78,13.49,10.59,27.85,21.11,38.76,35.1,7.9,9.9,14.12,22.1,16.68,34.78.58,2.42.76,5.05,1.04,7.52,0,0,.03,3.92.03,3.92.11,11.95-6.21,23.23-10.71,33.29-3,6.81-4.56,13.41-4.84,20.67,0,0-20.97-1.03-20.97-1.03.63-9.56,3.34-19.48,7.5-27.93,5.39-11.36,10.22-17.57,10.14-28.08-.72-11.92-5.65-22.86-12.73-32.59-11.97-16.63-29.8-28.05-44.63-42.46-9.05-8.94-16.26-19.98-12.57-33.45,3.35-12.62,13.7-21.92,24.36-28.25,26.85-16.19,66.08-25.27,49.41-65.16-10.13-22.38-28.75-39.79-47.14-55.98,0,0,4.3-5.19,4.3-5.19h0Z"/>
  <path d="m766.83,486.39c-9.64-23.27-13.79-48.33-23.66-71.4-3.56-8.25-8.02-17.44-14.9-22.91-6.86-5.47-15.1-2.68-22.09,1.74-12.09,7.93-21.52,19.15-31.4,30.02-10.27,11.33-20.3,23.56-33.13,32.76-6.51,4.57-14.58,8.37-22.96,7.46-4.16-.51-8.31-1.55-12.15-3.3-4.19-1.85-8.06-4.61-11.34-7.79-5.09-4.97-9.1-11.42-12.11-17.37-6.7-13.26-11.41-28.29-18.68-40.48-5.84-9.88-13.22-17.46-23.1-22.07-21.38-9.54-48.68,11.97-67.61,22.54-9.6,5.56-20.32,11.57-31.75,12.87,0,0-1.9-20.91-1.9-20.91,7.7-.72,16.35-5.54,23.72-9.46,8.55-4.68,17.29-9.95,26.71-14.66,17.52-8.99,39.53-15.96,58.51-6.32,12.84,6.31,23.13,17.4,29.82,29.76,7.75,13.99,11.6,28.18,17.99,41.98,3.58,7.39,7.5,14.12,14.54,18.18,2.53,1.49,5.4,2.36,8.3,2.91,5.1.87,9.43-1.42,14.42-4.53,25.14-16.28,53.1-63.48,82.76-66.64,18.95-1.86,29.09,18.04,34.8,32.8,7.31,18.94,11.39,38.81,16.91,58.19,1.37,4.75,2.83,9.48,4.65,13.87l-6.34,2.78h0Z"/>
  <path d="m406.5,447.2c-.15,11.24,9.58,20.01,16.12,29.05,11.61,14.78,16.34,29.81,7.9,47.61-10.41,23.28-35.29,33.96-55.37,46.21-3.55,2.29-7.07,4.78-9.78,8.02-9.64,12.12,10.93,22.83,19.93,28.18,16.02,8.96,33.21,16.25,48.09,27.95,7.92,6.29,15.18,14.32,18.35,24.38,8.78,29.64-19.46,56.36-39.68,73.64-14.26,11.83-29.44,22.24-44.91,32.05-1.83,1.16-4.26.62-5.42-1.21-1.14-1.8-.63-4.19,1.13-5.37,26.34-18.29,62.31-43.52,75.78-72.92,12.41-27.98-13.97-42.84-35.56-53.72-12.19-6.18-25.3-11.64-37.09-19.31-9.09-5.77-19-15.5-18.8-27.55-.12-9.49,5.64-17.6,12.78-23.31,12.25-9.92,27.98-16.75,39.55-26.62,10.55-8.83,20.97-23.39,14.06-36.33-.78-1.52-1.75-3.08-2.82-4.66-3.82-5.41-8.02-9.83-12.45-15.41-6.83-8.17-13.11-19.65-12.79-31.08-.06-5.8,4.6-10.54,10.4-10.6,6.02-.08,10.87,4.99,10.6,11h0Z"/>
  <path d="m351.2,412.5c-13.3.31-25.33-7.87-33.98-16.52-3.97-3.84-7.49-7.67-10.89-11.03-3.66-3.39-7.82-7.92-12.62-8.29-.5-.03-1.19.1-1.69.23-4.68,1.2-8.49,3.81-12.61,7.41-14.1,12.99-23.96,31.41-35.02,47.74-10.2,15.35-26.65,38.4-46.4,21.23-4.57-4.08-7.83-8.65-11.03-13.54-11.27-18.02-18.99-36.98-28.37-55.61-6.53-12.49-16.33-33.67-28.45-40.11-10.33-4.17-19.5,6.18-25.82,13.44-6.32,7.67-11.89,16.18-17.16,24.71-16,26.2-30.29,53.47-45.01,80.47,0,0-6.28-3.28-6.28-3.28,9.27-18.34,18.49-36.71,28.07-54.97,7.24-13.71,14.61-27.45,23.02-40.57,7.51-11.24,15.57-23.57,28.27-29.84,17.05-7.69,29.5,4.07,38.75,16.96,17.94,25.33,28.54,55,45.41,80.55,2.69,3.92,5.65,7.67,8.58,10.12,1.42,1.16,2.85,1.95,3.56,2.02,3.57.31,8.31-5.73,10.67-8.62,18.38-23.62,36.34-72.19,69.23-77.29,22.11-1.83,33.27,22.23,49.91,31.32,3.37,1.84,6.42,2.53,9.48,2.46,0,0,.4,21,.4,21h0Z"/>
</svg>