<?xml version="1.0" encoding="UTF-8"?>
<svg id="Layer_1" data-name="Layer 1" xmlns="http://www.w3.org/2000/svg" viewBox="0 0 800 800">
  <polygon points="478.5 773.59 272.4 729.83 271.49 702.38 533.36 642.63 533.38 655.37 313.52 598.82 313.13 587.29 487.57 531.64 487.31 540.26 328.87 475.84 326.04 474.69 328.27 469.06 331.13 470.16 490.69 531.74 490.43 540.36 316.87 598.71 316.48 587.18 536.62 642.63 536.64 655.37 278.51 729.62 277.6 702.17 485.5 736.41 504.18 739.48 497.01 777.52 478.5 773.59"/>
  <polygon points="437.72 357.99 482.01 471.83 473.12 471.52 546.29 306.42 558.15 307.83 602.04 534.67 588.05 534.25 638.9 326.96 654.87 326.19 725.3 502.89 696.14 504.86 734.87 305.17 738.4 286.98 775.26 294.76 771.13 312.83 725.86 511.14 696.7 513.11 639.13 331.81 655.1 331.04 601.95 537.75 587.96 537.33 545.85 310.17 557.71 311.58 481.88 475.48 472.99 475.17 432.28 360.01 431.32 357.28 436.67 355.29 437.72 357.99"/>
  <polygon points="24.85 515.22 60.38 316.17 85.08 313.9 141.14 485.56 120.61 486.4 169.04 307.26 182.84 306.83 244.91 507.79 233.94 508.38 274.28 317.25 281.18 315.92 348.84 420.97 350.35 423.32 345.71 426.36 344.16 424.03 274.82 320.08 281.72 318.75 245.06 510.62 234.09 511.21 169.16 311.17 182.96 310.74 141.39 491.6 120.86 492.44 60.92 322.1 85.62 319.83 63.15 520.78 61 540.02 21.44 534.29 24.85 515.22"/>
  <polygon points="358.64 346.43 469.99 297.14 470.11 306.9 272.76 231.8 273.12 220.07 486.74 150.9 487 165.18 289.31 112.64 287.03 94.31 415.84 15.5 428.13 7.98 442.86 33.71 430.16 40.5 296.98 111.69 294.69 93.36 491 150.82 491.26 165.1 276.88 231.93 277.24 220.2 473.89 297.1 474.01 306.86 360.36 350.57 358.26 351.38 356.59 347.34 358.64 346.43"/>
</svg>