<?xml version="1.0" encoding="UTF-8"?>
<svg id="Layer_1" data-name="Layer 1" xmlns="http://www.w3.org/2000/svg" viewBox="0 0 800 800">
  <path d="m60.19,393.8c14.15.98,28.29,1.42,42.44,1.69,14.15.26,28.29.3,42.44.18,14.15-.16,28.29-.41,42.44-.88,14.15-.48,28.29-.92,42.44-1.9,14.15-.91,28.29-2.2,42.44-3.74l42.44-4.81c14.15-1.53,28.29-2.83,42.44-3.61,14.15-.79,28.29-1.15,42.44-1.06,14.15.07,28.29.65,42.44,1.74,14.15,1.09,28.29,2.68,42.44,4.44,14.15,1.74,28.29,3.59,42.44,5.03,14.15,1.47,28.29,2.56,42.44,3.21,28.29,1.23,56.58,1.94,84.87,2.02,14.15.03,28.29-.07,42.44-.41,7.07-.19,14.15-.39,21.22-.7,7.07-.28,14.15-.68,21.22-1.2v11.34c-7.07-.52-14.15-.92-21.22-1.2-7.07-.31-14.15-.52-21.22-.7-14.15-.34-28.29-.45-42.44-.41-28.29.08-56.58.79-84.87,2.02-14.15.65-28.29,1.74-42.44,3.21-14.15,1.45-28.29,3.29-42.44,5.03-14.15,1.76-28.29,3.35-42.44,4.44-14.15,1.09-28.29,1.67-42.44,1.74-14.15.09-28.29-.27-42.44-1.06-14.15-.79-28.29-2.08-42.44-3.61l-42.44-4.81c-14.15-1.54-28.29-2.83-42.44-3.74-14.15-.98-28.29-1.42-42.44-1.9-14.15-.47-28.29-.72-42.44-.88-14.15-.12-28.29-.08-42.44.18-14.15.28-28.29.71-42.44,1.69v-11.34Z"/>
  <polygon points="776.64 61.76 493.13 331.58 476.87 316.1 732.36 19.61 776.64 61.76"/>
  <polygon points="86.39 23.32 337.52 323.96 327.26 333.72 39.39 68.06 86.39 23.32"/>
  <polygon points="732.58 773.74 480.14 474.34 489.86 465.09 776.42 732.01 732.58 773.74"/>
  <polygon points="45.66 741.78 327.5 470.37 336.63 479.06 79.48 773.97 45.66 741.78"/>
</svg>