<?xml version="1.0" encoding="UTF-8"?>
<svg id="Layer_1" data-name="Layer 1" xmlns="http://www.w3.org/2000/svg" viewBox="0 0 800 800">
  <path d="m27.92,458.79c2.03-.95,4.31-2.83,6.39-5.05,2.12-2.2,4.07-4.78,5.97-7.45,1.91-2.67,3.65-5.51,5.36-8.4,1.72-2.89,3.36-5.85,4.93-8.86,6.31-12.05,11.82-24.66,17.2-37.32,5.37-12.68,10.55-25.48,15.9-38.26,5.35-12.78,10.84-25.56,17.31-38.05,3.26-6.23,6.74-12.4,10.75-18.35,4.03-5.92,8.47-11.73,13.93-16.91,2.72-2.59,5.71-5.01,9.01-7.13,3.3-2.12,6.95-3.9,10.89-5.11,3.94-1.21,8.17-1.75,12.33-1.58,4.16.14,8.33,1.13,12.06,2.63,1.87.76,3.67,1.63,5.37,2.6,1.69.99,3.31,2.05,4.85,3.17,3.07,2.27,5.84,4.78,8.38,7.42,5.08,5.29,9.29,11.08,13.21,16.94,7.73,11.8,14.44,23.89,21.61,35.71l21.24,35.54c7.14,11.78,14.47,23.45,22.25,34.69,7.75,11.24,15.93,22.16,24.87,31.81,4.5,4.77,9.19,9.24,14.12,12.83,2.45,1.81,4.97,3.38,7.5,4.62,2.52,1.26,5.04,2.17,7.5,2.66,2.46.51,4.85.61,7.22.31.59-.07,1.18-.18,1.77-.29l.88-.21c.2-.04.18-.05.21-.06.03-.01.05,0,.1-.04.33-.12,1.05-.52,1.9-1.13,1.7-1.24,3.78-3.25,5.76-5.49,2.02-2.23,4.02-4.72,6.04-7.27,4-5.15,7.96-10.64,11.73-16.29,3.81-5.65,7.34-11.52,10.88-17.41,7.07-11.8,14.31-23.6,21.59-35.37,7.27-11.79,14.46-23.62,21.81-35.39,3.69-5.88,7.37-11.78,11.14-17.65,3.77-5.88,7.59-11.77,11.68-17.52,4.1-5.75,8.48-11.36,13.22-16.76,4.76-5.37,9.79-10.62,15.24-15.65,5.44-5.03,11.37-9.8,18-13.87,6.63-4.04,14-7.32,21.87-9.18,1.97-.45,3.95-.86,5.96-1.16,2.01-.3,4.03-.51,6.05-.65,2.03-.12,4.06-.15,6.09-.13,2.48.05,5.06.34,7.53.86,4.98,1.03,9.6,3.01,13.55,5.47,2,1.22,3.83,2.56,5.54,3.96,1.71,1.4,3.32,2.85,4.77,4.37,5.87,6.05,10.16,12.58,13.8,19.15,3.61,6.59,6.53,13.27,9.11,19.98,5.11,13.43,8.99,26.91,12.68,40.35,3.7,13.43,7.27,26.78,11.2,39.99,3.95,13.19,7.98,26.36,13.55,38.89,2.78,6.26,5.86,12.38,9.27,18.25,3.41,5.86,7.04,11.54,10.96,16.7,1.94,2.59,3.95,5.05,5.99,7.3,1.04,1.11,2.05,2.2,3.09,3.19,1.05.98,2.1,1.89,3.13,2.7,2.07,1.63,4.12,2.81,5.93,3.43.91.33,1.77.51,2.62.62l.64.05h.66c.55.01,1.1-.01,1.64-.05,2.16-.19,4.25-.8,6.38-1.83,2.13-1.01,4.28-2.47,6.35-4.28,4.19-3.6,8.07-8.45,11.62-13.7,3.56-5.27,6.83-11,9.91-16.9,3.1-5.9,6.01-12,8.78-18.21,5.57-12.4,10.68-25.18,15.51-38.07,4.84-12.9,9.42-25.93,14.08-38.95,4.73-13.01,9.41-26.05,15-38.91,2.83-6.42,5.88-12.8,9.61-19.03,3.76-6.2,8.15-12.35,14.64-17.56l.29-.23c2.82-2.26,6.94-1.82,9.2,1s1.82,6.94-1,9.2c-.51.41-1.08.74-1.65.97-1.3.52-2.56,1.24-3.83,2.04-1.24.82-2.46,1.75-3.65,2.76-2.39,2.01-4.58,4.4-6.65,6.94-4.12,5.1-7.63,10.9-10.77,16.88-6.26,12.03-11.06,24.92-15.29,37.96-4.25,13.05-7.92,26.32-11.51,39.66-3.61,13.33-7.06,26.77-11.18,40.16-4.2,13.37-8.81,26.8-16.07,39.77-3.67,6.45-8.01,12.84-13.99,18.57-3.02,2.82-6.49,5.47-10.51,7.56-4.01,2.08-8.62,3.52-13.32,4-1.17.11-2.35.18-3.52.19-.62,0-1.29-.03-1.93-.06-.65-.05-1.29-.12-1.93-.19-2.57-.32-5.07-1.04-7.36-1.97-4.61-1.9-8.33-4.71-11.37-7.68-3.06-2.99-5.47-6.2-7.59-9.44-1.04-1.63-2.01-3.27-2.92-4.92-.88-1.66-1.73-3.32-2.51-4.99-3.08-6.7-5.51-13.43-7.69-20.16-2.18-6.73-4.21-13.41-6.31-20.04-4.17-13.25-8.95-26.2-13.77-39.13-4.84-12.91-9.97-25.71-15.62-38.21-5.68-12.47-11.72-24.74-18.46-36.2-1.68-2.86-3.39-5.68-5.17-8.4-1.76-2.74-3.56-5.39-5.45-7.92-1.86-2.54-3.77-4.96-5.76-7.17-1.97-2.23-3.98-4.28-6.04-6-2.05-1.73-4.09-3.19-6.07-4.18-1.99-1-3.84-1.65-5.65-1.9-.91-.14-1.77-.2-2.74-.18-1.42.01-2.83.04-4.24.15-1.41.08-2.82.17-4.23.34-1.41.13-2.82.31-4.23.54-5.65.84-11.36,2.2-17.14,4.13-5.79,1.92-11.57,4.53-17.16,7.73-5.59,3.21-10.93,7.1-15.97,11.41-5.07,4.29-9.93,8.92-14.63,13.77-9.46,9.66-18.05,20.37-25.54,31.81-7.52,11.43-14.21,23.42-20.35,35.71-6.13,12.3-11.81,24.84-17.85,37.28l-9.13,18.76c-3.09,6.29-6.17,12.66-9.9,18.92-1.85,3.15-3.91,6.24-6.29,9.31-1.21,1.52-2.49,3.06-3.95,4.54-1.45,1.5-3.07,2.98-5.02,4.39-1.93,1.41-4.22,2.77-7.17,3.73-.35.12-.75.23-1.13.33-.38.1-.81.21-1.04.24l-1.65.3c-1.11.16-2.22.31-3.35.39-4.49.34-9.07-.09-13.29-1.25-4.24-1.14-8.13-2.89-11.65-4.94-3.52-2.07-6.68-4.45-9.59-6.96-5.81-5.05-10.63-10.65-14.98-16.42-8.7-11.55-15.58-23.81-22.15-36.09-6.5-12.32-12.59-24.74-18.83-37.04-6.24-12.3-12.6-24.51-19.47-36.4-6.88-11.86-14.84-23.18-24.03-33.16-4.56-4.99-9.43-9.64-14.5-13.67-5.07-4.02-10.43-7.37-15.82-9.23-5.35-1.89-10.85-2.06-16.15-.46-5.31,1.59-10.42,4.93-15.1,9.09-4.67,4.18-8.99,9.11-12.96,14.39-3.98,5.28-7.7,10.88-11.19,16.66-7,11.57-13.2,23.78-18.94,36.22-5.74,12.45-10.96,25.17-16.08,37.98-5.14,12.8-10.11,25.69-15.6,38.55-1.39,3.21-2.79,6.43-4.29,9.64-1.49,3.21-3.1,6.39-4.8,9.59-1.72,3.2-3.61,6.36-5.81,9.52-2.24,3.13-4.78,6.3-8.49,9.19l-.38.29c-3.27,2.54-7.98,1.96-10.52-1.31s-1.96-7.98,1.31-10.52c.44-.34.95-.65,1.43-.88Z"/>
  <polygon points="628.75 348.46 710.83 80.78 716.84 61.15 757.6 76.5 749.17 95.22 634.25 350.54 633.04 353.22 627.89 351.28 628.75 348.46"/>
  <polygon points="485 383.13 629.91 660.42 641.02 681.67 594.14 702.16 586.09 679.58 481 384.87 480.26 382.81 483.99 381.19 485 383.13"/>
  <polygon points="340.3 351.45 178.4 86.95 167.38 68.93 206.73 47.88 215.6 67.05 345.7 348.55 346.99 351.34 341.9 354.07 340.3 351.45"/>
  <polygon points="62.23 689.02 192.07 382.17 194.12 377.32 203.54 380.82 201.93 385.83 99.77 702.98 93.62 722.06 54.42 707.48 62.23 689.02"/>
</svg>