<?xml version="1.0" encoding="UTF-8"?>
<svg id="Layer_1" data-name="Layer 1" xmlns="http://www.w3.org/2000/svg" viewBox="0 0 800 800">
  <path d="m81.48,41.5s-13.81,695-13.81,695c0,0-10.18-10.18-10.18-10.18,0,.01,452.99,4.67,453,4.68-.02,0-1.86,10.73-1.92,10.66-.04,0-280.02-105.63-280.06-105.63-1.39-.53-2.1-2.08-1.57-3.48.39-1.03,1.34-1.68,2.38-1.74,16.13-1.63,32.29-3.46,48.41-5.42,48.33-5.84,96.55-12.8,144.41-21.63,47.41-9.15,95.1-18.98,139.81-36.98,5.37-2.06,10.88-4.88,16.06-7.35,1.7-.92,3.36-1.88,5.05-2.81,1.08-.6,3.59-1.94,4.35-2.56,0,0,.32-.25.32-.25l.25-.24c.2-.15.27-.3.42-.43.18-.26.34-.46.36-.6.09-.25.1-.47.09-.76-.11-1.09-.58-2.17-1.42-3.65-3.43-5.64-9.41-10.74-14.89-15.03-6.07-4.69-12.66-8.99-19.42-13.06-41.02-23.82-86.5-42.09-132.92-51.92-12.64-2.37-40.51-7.07-50.24,1.84-2.36,2.58-1.96,6.24-1.32,9.65,2.3,12.58,38.61,2,47.21-.85,30.2-9.82,59.5-23.82,87.69-38.77,35.28-19.17,70.17-40.18,100.45-66.68,2.96-2.66,5.84-5.38,8.53-8.22,3.75-4.04,7.58-8.26,9.56-13.14.88-2.74-6.11-5.95-8.23-6.95-22.23-8.88-46.36-11.7-70.01-15.53-48.19-7.01-96.93-11.76-145.2-19.12-24.38-3.91-48.97-7.77-72.58-15.9-14.45-5.14-33.33-14.26-27.67-33.09,4.11-12.87,17.26-21.35,28.24-27.71,14.76-8.2,30.23-14.27,46-19.83,31.11-10.87,62.88-19.12,94.86-26.66,16.07-3.72,31.95-7.23,48.2-10.4,0,0-1.9,20.96-1.9,20.96,0,0-249.16-95.05-249.16-95.05-2.92-.98-4.48-4.22-3.37-7.11.51-1.35,1.5-2.38,2.69-2.97,0,0,109.89-54.22,109.89-54.22.52-.27,1.06-.42,1.62-.4.01,0,366.99-7.49,367-7.49,6.11-.13,11.11,4.89,11,11,0,0,13.19,695,13.19,695h-48.37s13.19-695,13.19-695c-.01,0,11.05,11.02,10.98,11,1.2-.85-373.22-6.5-365.38-7.88-.02,0-108.07,57.77-108.09,57.77.02,0-.71-10.13-.63-10.06,0,0,252.79,84.94,252.79,84.94,5.66,1.9,8.71,8.03,6.8,13.69-1.35,4.02-4.8,6.68-8.73,7.27-7.85,1.11-15.89,2.41-23.82,3.75-23.85,4.07-47.65,8.78-71.17,14.4-29.99,7.47-87.1,21.62-108.5,42.76-3.11,3.47-5.05,6.33-4.5,10.3.42,2.05,2.64,3.97,4.6,5.45,4.43,3.19,9.47,5.38,14.73,7.42,37.84,13.25,78.43,17.89,118.02,23.96,28.45,4.14,68.69,9.03,96.73,13.49,20.28,3.26,40.62,6.45,60.4,12.29,13.52,4.22,34.52,11.89,21.8,29.42-9.83,13.82-23.16,24.24-36.08,34.83-31.01,26.09-220.35,156.95-240.84,88.26-2.38-9.1-1.18-20.19,5.78-27.3,22.86-23.81,88-2.76,115.5,6.53,35.65,12.41,110.09,44.44,129.52,76.38,5.29,8.89,4.79,19.89-4.54,26.54-2.06,1.54-4.14,2.49-6.16,3.61-7.28,4.02-15.31,7.58-23.01,10.6-46.27,17.71-94.9,26.67-143.5,34.73-64.49,10.06-129.35,16.73-194.48,20.54-.1.07.73-5.23.7-5.23,0,0,281.94,100.36,281.94,100.36,2.87,1,4.38,4.15,3.36,7.02-.79,2.23-2.87,3.63-5.11,3.65-.11.09-453,4.6-453.12,4.68-5.65.12-10.28-4.53-10.18-10.18,0,0-13.81-695-13.81-695,0,0,47.96,0,47.96,0h0Z"/>
</svg>