<?xml version="1.0" encoding="UTF-8"?>
<svg id="Layer_2" data-name="Layer 2" xmlns="http://www.w3.org/2000/svg" viewBox="0 0 3305 2505">
  <defs>
    <style>
      .cls-1 {
        stroke-width: 5.67px;
      }

      .cls-1, .cls-2, .cls-3 {
        fill: none;
        stroke: currentcolor;
        stroke-miterlimit: 10;
      }

      .cls-1, .cls-3 {
        stroke-linecap: square;
      }

      .cls-2 {
        stroke-width: 5px;
      }

      .cls-3 {
        stroke-dasharray: 28.35 86 175 97 69 65;
        stroke-width: 25.51px;
      }
    </style>
  </defs>
  <g id="Layer_1-2" data-name="Layer 1">
    <g>
      <path d="M81.38,425.55c56.54,3.3,113.23,2.17,169.75-.9,24.36-1.43,60.2-5.74,84.87-8.54,42.3-4.73,84.86-6.22,127.31-2.94,28.32,2.13,56.62,6.57,84.87,9.47,63.46,5.88,127.32,6.13,190.97,4.11,7.07-.28,14.15-.68,21.22-1.2v11.34c-7.07-.52-14.15-.92-21.22-1.2-63.64-2.02-127.5-1.77-190.97,4.11-42.32,4.62-84.65,11.43-127.31,11.21-41.07.71-86.35-4.68-127.31-9.48-28.23-3.17-56.52-4.86-84.87-5.63-28.29-.89-56.58-1.21-84.87-.7-14.15.28-28.29.71-42.44,1.69,0,0,0-11.34,0-11.34h0Z"/>
      <polygon points="797.83 93.51 514.31 363.33 498.05 347.85 753.54 51.36 797.83 93.51 797.83 93.51"/>
      <polygon points="107.57 55.07 358.7 355.71 348.45 365.47 60.57 99.81 107.57 55.07 107.57 55.07"/>
      <polygon points="753.76 805.49 501.32 506.09 511.04 496.84 797.6 763.76 753.76 805.49 753.76 805.49"/>
      <polygon points="66.84 773.53 348.68 502.12 357.82 510.81 100.66 805.72 66.84 773.53 66.84 773.53"/>
      <polygon points="2959.68 805.34 2753.58 761.58 2752.67 734.13 3014.54 674.38 3014.56 687.12 2794.7 630.57 2794.31 619.04 2968.76 563.39 2968.49 572.01 2810.06 507.59 2807.23 506.44 2809.46 500.81 2812.31 501.91 2971.87 563.49 2971.61 572.11 2798.06 630.46 2797.67 618.93 3017.81 674.38 3017.83 687.12 2759.69 761.37 2758.79 733.92 2966.69 768.16 2985.36 771.23 2978.19 809.27 2959.68 805.34 2959.68 805.34"/>
      <polygon points="2918.9 389.74 2963.19 503.58 2954.3 503.27 3027.48 338.17 3039.34 339.58 3083.23 566.42 3069.23 566 3120.08 358.71 3136.05 357.94 3206.49 534.64 3177.32 536.61 3216.05 336.92 3219.58 318.73 3256.44 326.51 3252.32 344.58 3207.05 542.89 3177.88 544.86 3120.32 363.56 3136.29 362.79 3083.14 569.5 3069.14 569.08 3027.03 341.92 3038.89 343.33 2963.07 507.23 2954.17 506.92 2913.47 391.76 2912.5 389.03 2917.85 387.04 2918.9 389.74 2918.9 389.74"/>
      <polygon points="2506.03 546.97 2541.56 347.92 2566.26 345.65 2622.32 517.31 2601.8 518.15 2650.23 339.01 2664.02 338.58 2726.09 539.54 2715.13 540.13 2755.46 349 2762.36 347.67 2830.02 452.72 2831.53 455.07 2826.9 458.11 2825.35 455.78 2756.01 351.83 2762.91 350.5 2726.24 542.37 2715.28 542.96 2650.35 342.92 2664.14 342.49 2622.57 523.35 2602.05 524.19 2542.1 353.85 2566.81 351.58 2544.34 552.53 2542.19 571.77 2502.63 566.04 2506.03 546.97 2506.03 546.97"/>
      <path d="M2839.83,378.18l111.35-49.29s.12,9.76.12,9.76l-197.35-75.1.36-11.73,213.63-69.17s.25,14.28.25,14.28l-197.69-52.53s-2.28-18.33-2.28-18.33c4.3-2.76,141.59-86.53,141.11-86.33,0,0,14.73,25.72,14.73,25.72,0,0-12.71,6.79-12.71,6.79l-133.18,71.19-2.28-18.33,196.31,57.47.25,14.28-214.37,66.83s.36-11.73.36-11.73l196.65,76.9s.12,9.76.12,9.76c0,0-113.65,43.71-113.65,43.71l-2.09.8-1.67-4.04s2.05-.91,2.05-.91h0Z"/>
      <path d="M1592.57,1545.67c-57.19-15.85-112.65-38.74-163.75-68.99-30.43-18.21-59.95-38.03-88.91-58.47-57.66-41.23-111.73-88.19-156.57-143.29-22.64-27.26-42.77-56.24-64.16-84.3-20.44-25.89-44.12-56.08-79.34-58.72-57.66-2.81-100.38,53.32-124.17,99.62-15.12,29.77-24.97,62.43-26.21,95.94-2.91,76.3,49.5,167.57,132.71,170.23,80.45,1.29,153.86-65.53,188.39-134.02,21.19-41,31.63-86.38,35.14-132.23,4.1-46.95,3.49-94.86,15.88-140.82,4.77-17.61,10.27-35.15,18.07-51.64,18.77-39.2,54.22-68.27,94.53-83.51,35.59-13.68,75.34-18.29,112.84-9.85,39.4,9.12,74.14,35.72,94.87,70.16,27.74,44.78,28.24,95.67,27.9,146.27.47,67.29-8.52,185.5-72.3,223.45-58.39,34.04-133.27,21.33-161.78-44.13-12.77-29.92-20.97-75.08-9.46-106.41,9.02-25.62,32.44-41.78,59.06-43.99,33.61-3.11,62.06,11.48,82.44,37.33,19.05,23.59,30.81,53.28,30.7,83.75.35,42.62-21.24,82.22-49.95,112.52-4.06,4.35-8.4,8.56-12.56,12.62-16.83,16.41-32.9,33.46-49.09,50.54-16.36,17.21-33.34,34.26-53.05,47.87-30.05,20.33-62.9,36-98.83,43.76-48.12,10.65-99.33-.16-142.13-23.67-97.77-48.55-113.33-155.3-79.69-250.58,15.07-44.91,44.77-83.45,66.02-125.04,13.09-25.73,22.03-53.38,26.21-81.92,2.73-16.83,3.25-33.94.8-50.85-4.65-32.84-18.71-65.97-44.5-87.47-31.02-25.58-87.4-34-118.82-5.58-23.05,20.6-26.26,54.99-19.5,83.78.08,1.06,3.98,12.98,4.49,14.52,0,0-22.74,6.59-22.74,6.59,0,0-3.03-11.16-3.03-11.16-5.93-25.23-5.63-52.18,4.43-76.54,16.52-39.16,55.67-57.01,96.61-52.41,25.06,2.71,49.79,11.92,68.93,28.57,37.37,33.17,52.23,85.92,48.2,134.58-7.28,68.12-33.16,107.93-68.69,163.25-42.34,65.5-67.05,158.27-27.91,230.42,18.16,31.98,44.39,49.15,77.28,63.4,52.15,24.47,108.75,33.87,164.45,16.28,21.92-6.74,43.32-16.09,62.53-28.62,19.45-12.66,36.17-28.91,52.58-45.37,14.72-14.83,35.23-35.65,50.23-49.76,17.05-15.75,32.41-33.34,43.5-53.79,16.69-30.04,22.46-66.57,12.1-99.65-13.45-44.91-52.24-75.29-99.7-72.12-67.34,5.05-67.1,84.94-45.69,132.81,9.3,20.9,25.28,38.97,46.06,48.8,36.32,17.34,81.51,9.61,113.4-13.76,13.39-10.52,22.86-25.07,29.91-40.55,22.36-51.1,24.77-115.34,19.52-170.36-3.84-33.39-12.55-66.84-28.69-96.11-19.41-35.88-47.31-68.13-85.73-83.71-30.09-12.03-63.88-16.68-96.02-10.28-32.91,6.43-64.36,25.95-80.74,55.77-5.51,9.81-9.17,20.56-11.47,31.54-5,22.51-6.85,45.39-8.25,68.38-4.55,90.92-9.1,160.01-56.54,241.42-45.27,74.05-144.2,157.41-236.27,129.42-79.86-24.92-126.63-130.08-114.92-208.99,8.19-61.36,45.37-118.22,98.94-149.32,21.26-12.29,45.5-21.38,70.53-19.25,25.03,1.86,46.71,17.51,63.61,34.79,16.77,17.01,31.15,35.89,45.67,54.65,28.43,37.38,56.65,74.56,88.23,109.27,31.42,34.64,66.24,66.6,104.58,93.49,38.09,27.39,80.54,47.93,123.69,65.97,42.9,18.29,86.83,33.8,131.36,47.63,0,0,8.87,2.79,8.87,2.79,0,0-5.12,17.49-5.12,17.49,0,0-8.97-2.44-8.97-2.44h0Z"/>
      <path d="M1271.19,140.65c9.03,2.31,19.67,3.56,29.32,4.66,16.97,1.75,34.03,2.73,51.11,3.14,18.55.24,37.18.52,55.45-1.96,10.46-1.67,21.19-4.6,29.6-10.73,2.34-1.78,4.15-3.56,5.25-5.54.3-.48.44-.9.6-1.42.1-.49.13-.76.09-.89-.74-1.66-3.09-2.59-4.82-3.22,0,0-.88-.26-.88-.26-.29-.09-.64-.21-.7-.18-.13,0-.26-.03-.39-.07-.97-.11-2.1-.03-3.1.04-8.11,1.05-15.69,3.96-23.74,6.99-25.32,10.1-50.22,22.64-74.96,34.49-81.82,38.42-228.12,114.92-316.96,80.14-10.86-4.12-22.28-13.66-20.39-26.92,1.2-9.58,8.81-17.07,16.64-21.48,10.95-6.02,23.03-7.95,35.12-6.76,11.33,1.89,21.22,6.26,31.5,10.31,44.93,19.03,88.3,41.46,131.88,63.21,71.98,35.99,150.57,77.57,224.14,108.97,12.45,5.1,25.34,10.31,38.23,13.56,3.75.86,7.19,1.63,10.48,1.35.22-.03.29-.05.5-.09,0,0,.33-.09.33-.09,7.11-2.79,13.37-8.5,18.94-13.83,6.42-6.56,13.03-14.08,15.58-22.62.4-1.67.55-3.06-.25-4.09-1.04-1.21-3.98-1.74-5.67-2.03-2.8-.37-5.96-.33-9.14-.14-20.11,1.79-39.84,8.02-59.39,13.69-120.72,37.22-242.87,83.29-371.13,80-12.29-.55-24.78-1.24-36.92-3.32-14.06-2.43-27.57-6.62-40.79-10.4-6.33-1.72-12.95-3.67-19.32-4.08-3.36-.2-5.99.18-7.67,1.64-3.15,2.87-6.55,7.22-3.73,11.37,10.69,14.76,53.51,20.34,71.69,22.68,4.09.43,9.3,1.43,13.37,2.41,20.76,5.38,38.73,18.43,56.09,29.8,11.52,7.59,23.18,14.75,35.53,20.44,24.65,11.64,52.01,16.75,79.17,16.9,5.87.01,14.55-.26,20.51-.65,3.56-.23,12.06-1.13,15.48-1.36,55.64-5.42,76.86,21.72,117.34,51.66,27.62,20.58,58.62,36.17,91.06,47.61,33.19,10.49,67.6,24.66,89.13,53.45,13.06,16.91,19.5,37.86,23.23,58.58,2.82,13.21,3.83,27.27,11.27,38.74,3.56,5.38,9.12,8.96,15.42,10.64,1.24.33,1.98,1.61,1.65,2.85-.33,1.25-1.62,1.99-2.86,1.65-3.55-.94-7.04-2.42-10.17-4.52-3.12-2.07-5.85-4.82-7.96-7.9-4.19-6.01-6.35-13.05-8.08-20.01-3.2-13.55-4.96-27.26-8.92-40.52-12.73-46.62-50.98-70.43-94.74-84.02-9.81-3.18-20.09-6.84-29.55-10.71-25.95-10.44-50.77-24-73.33-40.55-11.35-8.18-22.12-17.07-33.08-25.37-16.27-12.62-33.72-22.4-54.49-24.42-10.01-1.04-20.34-.51-30.38.58,0,0-10.48.99-10.48.99l-10.53.59c-17.6.59-35.38-.33-52.67-3.87-12.12-2.38-24.12-6.16-35.51-10.93-14.6-6.23-28.45-14.39-41.54-22.97-20.02-12.9-39.46-27.32-63.42-30.17-3.3-.49-7.03-.79-10.36-1.28-13.89-1.84-27.79-4.2-41.49-8.35-6.99-2.18-13.84-4.69-20.18-8.69-12.81-7.9-15.87-20.44-3.71-31.44,7.09-6.24,17.3-4.11,25.44-2.44,20.23,4.86,39.7,12.02,60.19,13.94,65.21,6.15,130.73-4.53,194.11-19.76,53.81-13.04,106.44-30.27,159.08-47.55,26.63-8.58,52.92-17.56,80.36-23.84,11.63-2.39,24.03-5.06,36.18-2.71,6.54,1.3,13.03,5.99,13.83,13.33,2.15,17.67-22.73,41.87-36.71,50.22-2.08,1.26-4.87,2.61-7.5,3.33-10.88,2.51-27.61-4.04-37.88-7.46-32.82-12.08-64.36-27.09-95.9-42-72.22-34.47-151.93-75.75-224.1-110.24-18.7-8.87-37.42-17.64-56.52-25.45-9.04-3.55-18.49-7.53-27.71-9.12-10.84-.88-23.82,1.75-31.32,9.81-2.23,2.59-3.81,5.9-1.35,8.87,2.83,3.7,9.24,6.12,13.85,7.71,102.04,32.07,278.28-79.03,374.7-118.5,8.88-3.44,18.6-7.1,28.55-8.32,1.63-.13,3.66-.29,5.31-.17,10.74.69,22.22,7.12,24.79,18.32,3.14,15.56-11.06,27.44-23.37,33.24-13.96,6.55-28.85,9.04-43.9,9.87-14.2.86-28.3,1.06-42.37.81-21.14-.42-42.33-1.53-63.35-4.16-7.12-.92-14.14-1.92-21.71-3.81-5.32-1.33-8.55-6.71-7.22-12.03,1.34-5.39,6.87-8.63,12.23-7.17h0Z"/>
      <path d="M2407.18,896.32s-708,6.4-708,6.4c0,0,10.97-10.97,10.97-10.97,0,0,9.19,731,9.19,731,0,0-19.97-20.16-19.97-20.16,0,0,546.97,7.88,546.97,7.88.01-.01-10.85,3.69-10.78,3.65,0,0,150.87-118.13,150.87-118.13,0,0-1.51,26.18-1.51,26.18,0,0-145.7-151.34-145.7-151.35,0,0,16.28.58,16.28.58-14.99,12.45-29.93,25.14-44.75,37.87-14.8,12.75-29.5,25.61-43.74,38.78-9.29,8.87-18.96,17.28-26.57,27.26-.2.3-.35.54-.35.54,0,0,.05-.11.12-.39.02-.08.06-.22.08-.33,0,0,.08-.45.08-.45.08-.52.1-1.1.05-1.63-.04-.4-.04-.27-.05-.3,0,.03.01.11.04.23.97,3.25,2.73,6.32,4.47,9.46,4.59,8,10.08,15.97,15.67,23.78,11.27,15.6,23.46,30.77,36.49,44.92,6.39,6.85,13.21,13.75,20.51,19.42,2.67,1.98,5.28,3.96,8.23,4.82.06.02.12,0,.18.03,0,0,.38,0,.38,0,4.02-.43,8.16-2.07,12.02-3.63,8.61-3.6,17.13-8.17,25.35-13.1,17.59-10.83,42.68-27.92,51.88-46.39,5.3-11.14-4.04-26.49-10.45-35.76-13-18.03-37.25-40.68-59.59-44.58-10.78-1.22-21.79,2.8-31.35,7.81-14.68,8.07-30.53,22.4-29.55,40.12.2,4.36,1.17,8.7,2.59,12.92,6.7,18.55,23.85,35.69,43.61,39.33,6.22.69,12.11-1.65,17.79-4.58,12.78-7.09,26.58-20.37,25.3-36.05-.73-11.05-6.74-21.72-15.82-28.1-11.24-7.83-26.55-8.47-36.07,2.48-4.22,4.74-7.86,10.97-7.93,17.28.51,5.59,4.04,12,10.29,12.17,4.01.28,8.68-1.26,12.62-3.27,1.02-.61,2.37-.24,2.91.83.47.92.19,2.02-.62,2.6-2.22,1.62-4.44,2.81-6.96,3.82-8.81,3.64-18.05,1.41-22.39-7.58-1.26-2.62-2.3-5.34-2.45-8.29-.16-8.51,4.38-16.06,9.95-21.92,5.52-5.75,13.38-9.92,21.59-10.06,24.97-1.36,46.11,23.01,43.05,47.69-3.06,20.07-24.96,38.29-44.28,42.02-8.26,1.55-16.77-1.25-24.14-4.79-23.11-11.61-42.44-37.54-39.54-64.31,4.35-31.42,51.21-61.21,81.3-50.47,28.85,9.45,65.44,47.57,71.42,77.49,3.63,17.15-10.11,31.19-21.29,41.95-11.03,10.3-23.23,19.19-35.87,27.34-10.64,6.67-21.73,13.2-33.77,17.63-11.21,4.26-16.91,1.74-26.23-4.78-8.42-6.08-15.64-13-22.92-20.18-17.61-17.73-33.89-36.57-48.7-56.72-5.32-7.52-10.82-15.08-14.55-23.76-2.35-5.49-2.2-10.11,1.08-15.17,8.05-11.96,18.7-21.78,28.48-31.84,28.18-27.8,57.21-54.18,86.75-80.45,4.72-4.27,11.95-3.9,16.28.58.05.02,153.29,143.64,153.33,143.67,6.85,6.77,6.91,17.81.14,24.67-.51.52-1.12,1.05-1.68,1.49,0,.01-151.11,117.84-151.11,117.86-3.14,2.48-6.88,3.68-10.6,3.66-.7-.01-547.05-2.1-547.73-2.13-10.92-.24-19.6-9.24-19.47-20.14,0,0,9.19-730.99,9.19-731-.05-6.06,4.89-11.04,10.97-10.97,0,0,708,6.4,708,6.4,5.99.45,6.06,8.76,0,9.14h0Z"/>
      <path d="M1689.1,490.54c20.56-11.27,44.93-81.19,55.75-105.33,12.3-28.21,30.09-75.4,61.89-85.54,11.86-3.81,24.92-.61,34.62,6.82,8.84,6.54,15.65,15.47,21.59,24.36,12.95,20.36,30.15,50.41,42.85,71.25,14.39,22.69,55.7,94.93,86.11,86.43,2.9-1.15,5.32-3.86,7.99-6.72,6.44-7.28,12.2-15.28,17.77-23.56,18.4-29.13,35.91-58.95,54.28-88.18,7.45-11.82,14.73-23.71,22.83-35.17,8.33-11.73,17.78-22.5,28.46-32.41,12.55-11.77,28.23-21.73,45.84-24.21,27.71-4.7,44.77,10.36,57.34,33.03,16.63,31.59,22.56,66.76,33,100.31,5.79,19.75,12.35,39.39,22.82,57.14,6.58,10.98,13.4,21.79,23.18,29.89,13.88,11.66,28.06-4.02,35.83-15.76,7.25-10.86,13.26-23.02,18.69-35.11,11.23-24.98,20.35-51.14,29.59-77.02,9.05-23.47,19.64-59.8,39.54-75.73,2.82-2.26,6.94-1.82,9.2,1,2.74,3.33,1.37,8.61-2.65,10.17-5.72,2.46-10.14,6.92-14.13,11.73-4.12,5.1-7.63,10.9-10.77,16.88-12.49,24.36-19.54,51.23-26.8,77.62-7.61,27.23-13.38,54.49-27.25,79.93-5.63,9.97-13.53,20.45-24.5,26.13-19.17,9.64-36.28,1.95-47.02-15.14-9.67-15.37-13.88-33.18-19.43-50.1-8.55-26.27-18.2-52.16-29.39-77.34-9.54-20.43-27.6-59.16-46.95-69.87-4.18-2.28-8.16-2.26-12.62-1.94-2.83.15-5.65.44-8.46.88-18.33,2.61-36.14,10.87-50.28,23.27-15.38,13.18-29,28.51-40.17,45.58-18.87,28.53-31.93,61.2-47.33,91.75-4.73,9.6-9.45,19.52-16.19,28.23-4.55,5.66-9.71,10.9-17.27,12.99-6.31,1.52-13.17,1.37-19.33-.31-15.37-4.18-27.09-16.26-36.23-28.32-16.94-22.85-28.15-48.23-40.99-73.13-12.52-24.28-24.82-49.44-43.5-69.56-8.64-9.22-18.72-18.73-30.32-22.9-11.42-4.19-22.45.59-31.25,8.63-9.6,8.66-17.33,19.87-24.15,31.05-23.29,38.31-36.6,81.55-54.91,122.38-5.1,10.33-9.7,20.61-19.09,28.3-3.22,2.83-8.27,2.41-10.9-1.02-2.95-3.71-1.58-9.44,2.74-11.4h0Z"/>
      <polygon points="2289.94 380.21 2372.01 112.53 2378.03 92.9 2418.78 108.25 2410.36 126.97 2295.43 382.29 2294.22 384.97 2289.07 383.03 2289.94 380.21 2289.94 380.21"/>
      <polygon points="2146.18 414.88 2291.1 692.17 2302.2 713.42 2255.32 733.91 2247.27 711.33 2142.18 416.62 2141.45 414.56 2145.17 412.94 2146.18 414.88 2146.18 414.88"/>
      <polygon points="2001.48 383.2 1839.59 118.7 1828.56 100.68 1867.92 79.63 1876.78 98.8 2006.89 380.3 2008.18 383.09 2003.08 385.82 2001.48 383.2 2001.48 383.2"/>
      <polygon points="1723.41 720.77 1853.26 413.92 1855.31 409.07 1864.72 412.57 1863.11 417.58 1760.95 734.73 1754.81 753.81 1715.6 739.23 1723.41 720.77 1723.41 720.77"/>
      <rect class="cls-3" x="80.18" y="905.75" width="684" height="668"/>
      <circle class="cls-1" cx="422.18" cy="1239.75" r="102"/>
      <path d="M2507.49,892.7c16.43,9.49,69.7,38.32,55.3,62.13-11.01,17.47-55.55,17.58-58.71,38.29-2.33,31.27,88.04,62.06,76.09,106.09-3.45,12.64-14.85,21.18-25.35,27.56-10,6.06-20.7,10.91-30.55,16.82-13.99,8.24-23.87,19.48-5.12,29.28,9.67,5.09,20.9,8.19,31.58,11.33,11.11,3.18,22.44,6.23,33.72,9.99,17.47,5.99,35.29,13.06,48.2,27.1,9.24,9.79,13.77,24.46,12.19,37.76-.17,2.04-.61,4.12-1.3,6.04-7.72,22.71-53.01,37.22-73.78,46.6-14.27,6.37-45.89,18.32-51.06,32.77-4.08,18.81,25.48,26.48,39.42,30.96,28.65,8.86,61.07,14.27,84.01,36.29,10.09,9.69,16.53,24.22,17.28,38.14.15,2.17.07,4.57-.23,6.72-2.9,18.14-18.54,32.97-30.55,45.26-33.39,32.04-68.16,62.47-97.88,97.81-4.84,5.67-13.36,6.34-19.03,1.5-5.76-4.91-6.35-13.65-1.29-19.27,23.66-26.53,49.56-50.62,76.04-74.01,8.7-7.74,17.4-15.39,25.64-23.14,7.59-7.18,15.83-15.22,21.24-23.66,1.93-3.17,3.34-5.87,3.52-9.27-.13-4.83-1.12-9.48-2.87-13.66-18.67-42.51-112.04-35.11-131.01-75.42-3.41-7.43-4.3-16.06-1.83-23.83,4.7-13.73,17.74-21.88,29.44-28.28,21.18-11.08,43.44-18.12,64.91-27.44,10.53-4.79,29.21-12.61,33.85-23.17.32-.8.49-1.62.58-2.46,3.94-29.08-26.66-42.65-49.77-50.98-16.2-5.83-33.36-10.21-49.81-16.12-11.41-4.42-26.51-9.87-31.45-22.55-11.56-39.56,75-41.2,73.56-78.23-2.27-34.85-78.58-64.47-74.27-97.31,3-19.69,32.84-23.66,47.89-30.7,22.27-9.03,16.89-22.66,2.48-36.8-12.55-11.93-27.38-21.21-42.26-30.03-.57-.33-.77-1.07-.43-1.65.33-.57,1.06-.76,1.63-.45h0Z"/>
      <path d="M2567.42,1614.58c17.53-11.57,33.41-25.13,49.54-38.6,4.09-3.34,8.23-6.65,12.71-9.65,16.9-11.97,32.53-8.36,43.79,8.43,10.64,14.82,18.17,42.95,40.81,26.19,24.94-19.43,42.67-71.28,69.64-85.71,20.22-10.08,33.95,7.33,42.16,23.6,7.41,14.21,12.43,28.82,20.13,42.44,6.91,11.99,15.66,21.56,27.78,8.65,6.64-6.98,11.7-16.09,16.44-24.71,4.91-9.09,9.55-18.51,14.58-27.89,9.25-16.57,19.38-36.05,37.38-45.28,23.94-11.09,42.44,6.11,53.97,25.48,8.37,13.71,14.74,28.84,21.51,42.98,4.23,8.68,8.72,18.1,14.65,25.29,2.41,2.72,5.08,5.55,8.36,5.79.33,0,.65.01.93-.19,1.72-1.21,3.76-5.08,4.68-7.82,2.5-6.8,3.94-13.94,5.37-21.29,5.94-28.04,8.94-80.84,42.98-89.03,14.14-3.45,28.84.51,40.27,8.78,9.66,6.78,17.22,15.06,24.72,23.62,20.11,23.72,39.07,48.67,62.24,68.72,5.19,4.55,5.71,12.45,1.16,17.64-4.55,5.19-12.45,5.71-17.64,1.16-16.25-14.89-30.52-31.57-43.72-48.31-6.59-8.31-12.95-16.65-19.41-24.49-11.41-13.18-24.49-30.06-42.96-26.4-10.55,2.36-15.54,17.17-18.73,26.88-4.51,14.79-6.88,29.72-10.22,45.21-3.22,13.52-6.77,34.14-20.35,41.39-7.6,4.21-18.13,1.65-24.27-3.48-7.37-5.81-12.21-14.03-16.34-21.68-2.59-4.9-4.88-9.8-7.07-14.66-6.51-14.38-12.07-28.53-19.81-41.92-8.64-15.05-21.99-30.32-39.4-17.09-11.49,9.07-18.89,22.3-26.39,35.22-5.09,9.02-9.93,18.33-15.2,27.61-5.56,9.59-11.01,18.97-19.06,27.09-10.34,10.64-24.62,13.33-35.95,2.32-8.17-8.01-12.74-18.66-17.25-28.78-4.22-9.76-7.95-19.53-12.44-28.64-5.48-10.96-14.6-27.17-28.98-19.99-26.97,14.29-47.88,74.98-77.24,87.24-24.14,9.18-31.65-17.43-41.83-32.87-5.22-8.29-13.19-14.97-23.35-13.53-9.68,1.71-18.18,8.98-26.03,14.89-16.37,13.09-32.79,26.5-50.6,37.71-.65.41-1.51.22-1.92-.43-.41-.64-.23-1.49.4-1.9h0Z"/>
      <path d="M3247.92,1528.96c-5.42-20.16-18.5-36.99-30.51-53.74-6.11-8.64-12.6-16.95-16.63-26.95-3.44-7.84-1.62-17.36,3.68-23.96,4.99-6.46,12.15-10.91,18.93-14.98,9.71-6.1,23.87-12.19,26.72-24.08.92-4.38.31-9.2-2.1-13.01-14.9-22-73.88-17.99-78.13-60.26-3.25-39.62,52.89-52.38,68.38-82.67,2.29-4.6,3.4-9.53,3.18-14.57.12-7.42-11-10.01-17.39-11.78-23.94-6.52-73.65-5.29-80.58-35.3-6.71-34.74,33.97-51.62,58.26-65.47,12.86-7.31,26.28-14.02,35.06-25.4,3.64-5,5.06-10.28,3.9-15.99-.93-5.23-5.19-6.76-10.13-7.4-9.05-.98-19.27.79-28.61,2.37-17.17,2.57-42.73,10.11-59.53,1.73-10.82-5.29-14.53-18.12-13.16-29.45,3.02-25.51,31.42-49.86,48.38-67.57,21.57-21.5,43-44.06,58.93-69.68,3.22-5.15,10.01-6.72,15.16-3.5,5.21,3.25,6.74,10.16,3.41,15.31-17.81,27.29-40.3,50.03-63.45,72.18-11.1,10.76-22.25,21.05-31.95,32.74-6.86,8.63-14.35,18.89-11.85,30.04,2.02,12.21,41.29,2.63,51.32,1.57,5.24-.8,10.57-1.56,16.1-2.02,8.69-.63,18.51-.95,27.21,2.98,10.96,4.8,15.32,16.46,14.01,27.73-3.04,24.41-29.22,36.79-48.05,47.02-16.76,9.29-51.36,23.14-52.99,44.13-.28,3.78.19,7.81,2.35,11.02,9.07,12.98,37.78,15.69,53.23,18.99,13.92,2.99,39.38,6.16,40.64,24.34,1.2,31.28-31.49,46.76-52.45,63.16-7.66,5.97-15.4,12.68-19.39,21.47-3.79,8.34-2.91,18.69,1.78,26.47,14.86,25.49,70.09,24.03,74.14,53.26,1.32,8.96-2.98,17.4-9.87,22.91-10.1,8.43-22.91,12.88-32.99,21.06-7.77,6-12.67,15.81-8.72,25.34,3.6,9.48,9.94,18.03,15.66,26.46,11.79,17.14,24.68,34.49,29.76,55.08.11.48-.18.96-.66,1.07-.48.11-.95-.18-1.07-.65h0Z"/>
      <path d="M3173.67,877.06c-18.97,21.24-66.25,75.87-97.85,59.48-17.41-9.89-19.67-32.34-29.04-47.72-9.55-15.97-23.29,4.17-29.45,13.19-7.55,11.32-14.05,23.75-21.67,35.28-5.67,8.09-14.16,21.31-26.1,18.35-11.01-3.39-12.63-19.02-14.63-28.34-.83-4.58-1.59-9.09-2.47-13.49-1.65-8.08-3.66-16.98-8.22-23.51-4.47-6.29-10.65-7.11-17.86-4.96-7.85,2.38-15.32,7.25-22.13,12.17-29.69,21.9-53.27,50.89-83.88,72.3-6.44,4.24-13.76,8.47-21.95,9.75-11.12,1.88-20.9-4.06-25.14-14.39-5.84-14.5-4.75-29.88-4.96-44.39-.16-10.42.75-21.58-1.95-31.4-.43-1.4-1.1-2.24-.97-2,.06.09.42.34.69.43.23.09.47.09.49.1.05-.02-.97.32-2.16,1.2-1.21.85-2.6,2.09-3.98,3.46-4.51,4.58-8.46,9.67-12.58,14.9-11.83,15.07-23.49,30.62-39.8,42.16-13.61,9.71-31.43,15.04-48.17,10.06-15.98-4.72-26.51-18.02-36.41-29.97-5.84-7.11-11.45-13.8-17.53-19.8-6.05-6.02-12.53-11.37-19.51-15.98-5.53-3.65-7.06-11.09-3.42-16.62,3.7-5.64,11.39-7.1,16.91-3.23,8.25,5.73,15.85,12.37,22.67,19.49,6.84,7.11,12.87,14.71,18.53,21.95,8.13,9.92,14.17,19.44,25.13,23.49,33.54,9.02,59.92-40.05,80.96-60.06,4.61-4.32,10.12-8.71,17-9.57,9.73-1.28,17.23,5.67,19.63,14.45,3.4,12.45,2.17,24.84,2.03,37.24-.13,12.79-1.32,26.03,2.68,37.53,1.47,3.71,3.52,5.52,7.57,4.92,5.52-.84,10.53-3.74,15.62-6.88,7.21-4.61,14.24-10.24,21.14-16.05,13.83-11.69,27.25-24.34,41.43-36.42,15.99-13.13,43.43-37.47,65.61-31.32,21.11,6.52,22.72,34.47,25.9,52.57.79,4.13,2.85,20.89,7.66,20.24,2.2-.48,4.02-2.07,5.94-3.9,2.86-2.84,5.54-6.38,8.08-10.01,10.6-15.15,18.85-32.02,31.33-46.07,10.28-11.81,25.02-16.93,34.57-1.01,5.94,10.14,8.45,21.73,13.69,32,9.31,19.52,24.05,20,41.86,10.94,24-12.94,43.23-33.28,61.74-53.17.74-.81,1.99-.87,2.8-.14.8.72.86,1.95.17,2.77h0Z"/>
      <polygon points="1199.4 2432.75 1238.66 2116.25 1250.66 2116.25 1289.92 2432.75 1199.4 2432.75 1199.4 2432.75"/>
      <polygon points="1297.62 1700.75 1250.41 2018.25 1238.41 2018.25 1191.19 1700.75 1297.62 1700.75 1297.62 1700.75"/>
      <polygon points="870.18 2019.76 1195.68 2061.75 1195.68 2073.75 870.18 2115.74 870.18 2019.76 870.18 2019.76"/>
      <polygon points="1616.18 2109.79 1293.68 2073.75 1293.68 2061.75 1616.18 2025.71 1616.18 2109.79 1616.18 2109.79"/>
      <path d="M2089.92,2036.48l283.75-330.25c31.99-34.44,83.11,9.25,53.83,46.25-1.14,1.33-2.51,2.67-3.79,3.79l-330.25,283.75c-1.05.9-2.63.78-3.54-.27-.82-.95-.79-2.34,0-3.27h0Z"/>
      <path d="M2024.92,2044.02l-333.35-292.65c-30.11-28.56,8.94-73.33,41.36-47.11,4.4,3.66,291.7,332.4,295.53,336.22.91,1.04.81,2.62-.23,3.53-.96.84-2.37.82-3.31,0h0Z"/>
      <path d="M2030.45,2105.02l-287.75,331.25c-30.23,32.2-78.06-9.11-50.35-43.74,1-1.15,2.2-2.33,3.31-3.31l331.25-287.75c1.04-.91,2.63-.8,3.54.25.83.95.81,2.36,0,3.29h0Z"/>
      <path d="M2095.95,2100.98l321.83,285.17c27.24,26.07-8.42,66.59-37.78,42.63-3.38-2.73-284.59-321.31-287.6-324.26-.92-1.03-.82-2.62.22-3.54.96-.85,2.39-.83,3.32,0h0Z"/>
      <circle cx="3181.18" cy="2364.75" r="40"/>
      <path d="M2025.33,1709.16c25.97,21.19,71.41,60.79,52.33,98.27-6.53,12.27-19.23,20.2-30.48,26.61-13.12,7.73-29.59,14.55-36.92,27.58-2.59,5.05-3.51,9.81-1,14.59,3.89,7.14,10.95,12.5,17.45,17.78,13.49,10.59,27.85,21.11,38.76,35.1,10.08,12.76,17.93,29.54,17.75,46.22.11,11.95-6.21,23.23-10.71,33.29-3,6.81-4.56,13.41-4.84,20.67,0,0-20.97-1.03-20.97-1.03.63-9.56,3.34-19.48,7.5-27.93,5.39-11.36,10.22-17.57,10.14-28.08-.72-11.92-5.65-22.86-12.73-32.59-11.97-16.63-29.8-28.05-44.63-42.46-9.05-8.94-16.26-19.98-12.57-33.45,3.35-12.62,13.7-21.92,24.36-28.25,26.85-16.19,66.08-25.27,49.41-65.16-10.13-22.38-28.75-39.79-47.14-55.98,0,0,4.3-5.19,4.3-5.19h0Z"/>
      <path d="M2428.01,2158.14c-9.64-23.27-13.79-48.33-23.66-71.4-3.56-8.25-8.02-17.44-14.9-22.91-6.86-5.47-15.09-2.68-22.09,1.74-12.09,7.93-21.52,19.15-31.4,30.02-10.27,11.33-20.3,23.56-33.13,32.76-6.51,4.57-14.58,8.37-22.96,7.46-4.16-.51-8.31-1.55-12.15-3.3-4.19-1.85-8.06-4.61-11.34-7.79-5.09-4.97-9.1-11.42-12.11-17.37-6.7-13.26-11.41-28.29-18.68-40.48-5.84-9.88-13.22-17.46-23.1-22.07-21.38-9.54-48.68,11.97-67.61,22.54-9.6,5.56-20.32,11.57-31.75,12.87,0,0-1.9-20.91-1.9-20.91,7.7-.72,16.35-5.54,23.72-9.46,8.55-4.68,17.29-9.95,26.71-14.66,17.52-8.99,39.53-15.96,58.51-6.32,12.84,6.31,23.13,17.4,29.82,29.76,7.75,13.99,11.6,28.18,17.99,41.98,3.58,7.39,7.5,14.12,14.54,18.17,2.53,1.49,5.4,2.36,8.3,2.91,5.1.87,9.43-1.42,14.42-4.53,25.14-16.28,53.1-63.48,82.76-66.64,18.95-1.86,29.09,18.03,34.8,32.8,7.31,18.94,11.39,38.81,16.91,58.19,1.37,4.75,2.83,9.48,4.65,13.87,0,0-6.34,2.77-6.34,2.77h0Z"/>
      <path d="M2067.68,2118.95c-.15,11.24,9.58,20.01,16.12,29.05,11.61,14.78,16.34,29.81,7.9,47.61-10.41,23.28-35.29,33.96-55.37,46.21-3.55,2.29-7.07,4.78-9.78,8.02-9.64,12.12,10.93,22.83,19.93,28.17,16.02,8.96,33.21,16.25,48.09,27.95,7.92,6.29,15.18,14.32,18.35,24.38,8.78,29.64-19.46,56.36-39.68,73.64-14.26,11.83-29.44,22.24-44.91,32.05-1.83,1.16-4.26.62-5.42-1.21-1.14-1.8-.63-4.19,1.13-5.37,26.34-18.29,62.31-43.52,75.78-72.92,12.41-27.98-13.97-42.84-35.56-53.72-12.19-6.18-25.3-11.64-37.09-19.31-9.09-5.77-19-15.5-18.8-27.55-.12-9.49,5.64-17.6,12.78-23.31,12.25-9.92,27.98-16.75,39.55-26.62,10.55-8.83,20.97-23.39,14.06-36.33-.78-1.52-1.75-3.08-2.82-4.66-3.82-5.41-8.02-9.83-12.45-15.41-6.83-8.17-13.11-19.65-12.79-31.08-.06-5.8,4.6-10.54,10.4-10.6,6.02-.08,10.87,4.99,10.6,11h0Z"/>
      <path d="M2012.38,2084.25c-13.3.31-25.33-7.87-33.98-16.52-3.97-3.84-7.49-7.67-10.89-11.03-3.66-3.39-7.82-7.92-12.62-8.29-.5-.03-1.19.1-1.69.23-4.68,1.2-8.49,3.81-12.61,7.41-14.1,12.99-23.96,31.41-35.02,47.74-10.2,15.35-26.65,38.4-46.4,21.23-4.57-4.08-7.83-8.65-11.03-13.54-11.27-18.02-18.99-36.98-28.37-55.61-6.53-12.49-16.33-33.67-28.45-40.11-10.33-4.17-19.5,6.18-25.82,13.44-6.32,7.67-11.89,16.18-17.16,24.71-16,26.2-30.29,53.47-45.01,80.47,0,0-6.28-3.28-6.28-3.28,9.27-18.34,18.49-36.71,28.07-54.97,7.24-13.71,14.61-27.45,23.02-40.57,7.51-11.24,15.57-23.57,28.27-29.84,17.05-7.69,29.5,4.07,38.75,16.96,17.94,25.33,28.54,55,45.41,80.55,2.69,3.92,5.65,7.67,8.58,10.12,1.42,1.16,2.85,1.95,3.56,2.02,3.57.31,8.31-5.73,10.67-8.62,18.38-23.62,36.34-72.19,69.23-77.29,22.11-1.83,33.27,22.23,49.91,31.32,3.37,1.84,6.42,2.53,9.48,2.46l.4,21h0Z"/>
      <path d="M62.66,1719.8c-1.22,125.89-8.3,251.79-1.46,377.56,3.39,84.35,29.16,169.56,86.94,232.68,58.29,65,144.76,97.06,230.45,103.74,51.53,4.67,104.27,1.82,153.65-14.44,133.74-41.39,236.88-168.53,242.18-309.45,2.09-65.88-6.88-134.64-36.87-193.69-55.74-113.03-182.53-153.64-301.14-156.55-132.78-8.63-223.51,64.24-254.23,192.16-11.68,49.43-13.91,101.88-8.97,152.64,8.34,84.58,49.39,161.14,131.82,192.54,61.18,23.01,133.26,23.17,193.63-1.86,78.33-31.98,125.66-108.63,139.79-190.03,3.12-16.52,5.04-33.34,6.11-50.27,2.76-26.68,41.06-24.22,40.25,2.73-8.41,138.16-82.58,261.95-226.32,288.19-55.64,9.65-113.84,5.19-166.62-15.53-73.33-28.44-123.63-92.12-142.32-167.54-9.39-35.92-12.2-72.73-11.73-109.63.85-91.23,25.22-188.99,93.05-254.14,56.45-54.55,129.89-73.17,206.66-67.97,54.48,2.42,108.72,10.89,160.13,30.48,101.71,38.69,166.3,115.12,189.86,221.1,9.71,44.39,12.9,90.17,10,135.45-9.68,147.19-119,278.16-259.33,320.33-52,16.59-107.24,19.27-161.27,13.9-89.69-7.74-180.26-42.56-240.82-111.31-57.77-64.24-85.12-150.87-88.45-236.09-.74-13.27-1.36-26.7-1.68-39.96-2.14-79.74.42-159.49,2.87-239.15,1.1-35.37,2.31-70.73,2.86-106.02.4-7.03,10.58-7.33,10.95.13h0Z"/>
    </g>
    <line class="cls-2" x1="827.5" y1="2.5" x2="827.5" y2="2502.5"/>
    <line class="cls-2" x1="1652.5" y1="2.5" x2="1652.5" y2="2502.5"/>
    <line class="cls-2" x1="2477.5" y1="2.5" x2="2477.5" y2="2502.5"/>
    <line class="cls-2" x1="3302.5" y1="1669.17" x2="2.5" y2="1669.17"/>
    <line class="cls-2" x1="3302.5" y1="835.83" x2="2.5" y2="835.83"/>
  </g>
</svg>