<?xml version="1.0" encoding="utf-8"?>
<!-- Generator: Adobe Illustrator 25.1.0, SVG Export Plug-In . SVG Version: 6.00 Build 0)  -->
<svg version="1.1" xmlns="http://www.w3.org/2000/svg" xmlns:xlink="http://www.w3.org/1999/xlink" x="0px" y="0px"
	 viewBox="0 0 576 648" style="enable-background:new 0 0 576 648;" xml:space="preserve">
<style type="text/css">
	.st0{stroke:#000000;stroke-width:3.0987;stroke-miterlimit:10;}
	.st1{font-family:'HennyPenny-Regular';}
	.st2{font-size:84px;}
	.st3{letter-spacing:3.9;}
	.st4{stroke:#000000;stroke-width:2.3215;stroke-miterlimit:10;}
	.st5{font-family:'TemplateGothicOT-Bold';}
	.st6{font-size:78.6641px;}
	.st7{letter-spacing:3;}
	.st8{stroke:#000000;stroke-width:3.2411;stroke-miterlimit:10;}
	.st9{font-family:'BadDog';}
	.st10{font-size:105.1974px;}
	.st11{letter-spacing:4.6;}
	.st12{stroke:#000000;stroke-width:2.103;stroke-miterlimit:10;}
	.st13{font-family:'BadTyp-Regular';}
	.st14{letter-spacing:7.3;}
	.st15{stroke:#000000;stroke-width:2.8871;stroke-miterlimit:10;}
	.st16{font-size:80px;}
	.st17{letter-spacing:3.2;}
	.st18{fill:#FFFFFF;}
	.st19{fill:#FFFFFF;stroke:#000000;stroke-width:3.1652;stroke-linecap:round;stroke-linejoin:round;stroke-miterlimit:10;}
</style>
<g id="Layer_1">
	<text transform="matrix(1.275 0 0 1 35.982 95.8915)" class="st0 st1 st2 st3">Traveling</text>
	<text transform="matrix(1 0 0 1 84.6261 427.8958)" class="st4 st5 st6 st7">Two</text>
	<text transform="matrix(1.09 0 0 1 232.2012 620.3546)" class="st8 st9 st10 st11">Toddlerz</text>
	<text transform="matrix(0.8206 0 0 1 30.4858 525.8965)" class="st12 st13 st6 st14">Tenacious</text>
	<text transform="matrix(1.1727 -0.4014 0.3238 0.9461 30.4974 246.3855)" class="st15 st1 st16 st17">Tales</text>
	<text transform="matrix(1 0 0 1 15.245 341.3602)" class="st4 st5 st6 st7">of</text>
</g>
<g id="Layer_2">
	<g>
		<g>
			<path d="M537.8,251.9c6.8,8.5-5,9.5-4.7,16.1c0.9,0.3,2.4,0.9,3.9,1.2c3.7,0.7,6.4,2.4,7.6,7c0.9,3.6,3.1,5.8,6.6,5.1
				c0.5-0.1,1,0,1.4,0c10.8,0.4,10,0.6,12.9,12.4c1.8,7.3,0,11-4,15.5c-38.4,44.1-76.6,88.3-114.8,132.6c-3.8,4.4-7.6,5.3-12.8,3.7
				c-47.2-13.7-93.5-30.3-137.9-55.1c-12.4-6.9-25.1-13.2-39.1-13.8c-6.8-0.3-13.4-3.4-17.2-11.5c-0.5-1-2-1.6-3.2-2
				c-31.7-11-63.3-21.9-95-32.9c-7.7-2.6-15.4-5.2-23.1-7.5c-3-0.9-4.4-2.3-4.7-6c-1.3-16.4-0.3-19,12.7-25.5c4-2,6.7-4.6,9.1-9
				c4.6-8.7,10.9-16,18.7-21.3c37.3-25.5,74.6-50.9,114.8-70.7c0.1-0.1,0.3-0.2,0.4-0.3c25.2-18.3,53-15.1,80.9-5.9
				c11.8,3.9,23.1,10.9,34.3,17.3c4.4,2.5,8.1,7.1,12.1,10.8c29.1-13.6,60-10.3,91.1-0.1c12.5,4.1,24.9,9.6,36.9,15.9
				c5,2.7,9.1,8.7,12.8,14C539,244,537.9,248.2,537.8,251.9z M339.6,345c15,3.7,83.6,31.2,85,29.3c11.1-14.1,29.8-38.2,40.9-52.3
				c4.9-6.3,9.8-12.6,14.9-18.7c1-1.2,2.7-1.5,4.1-2.2c0.4,0.7,0.9,1.4,1.3,2.1c-16.4,27.2-35.7,51.4-57.8,74c2.9,7,6,14.5,9.4,22.7
				c3.1-3.2,5.5-5.7,7.9-8.3c23.2-25.7,46.3-51.4,69.5-77.1c8.2-9.1,16.5-18.1,24.7-27.2c2.7-3,2.7-6.2-0.2-8.9
				c-8.4,6.3-16.6,12.5-25,18.5c-1.3,0.9-3,1-4.5,1.5c-0.4-0.8-0.8-1.7-1.1-2.5c8.6-6.6,17.1-13.2,25.7-19.9
				c-4.6-4.6-7.9-3.6-11.9,0.3c-8.3,7.9-17.1,15.1-25.8,22.4c-1.3,1.1-3.1,1.4-4.7,2.1c-0.4-0.7-0.8-1.4-1.2-2.1
				c14.9-13.8,29.9-27.6,44.8-41.5c-0.2-0.6-0.5-1.2-0.7-1.8c-1.4,0.4-3,0.4-4.1,1.2c-2.2,1.7-4,4-6.2,5.7c-1.3,1-3,1.1-4.5,1.7
				c0.5-1.7,0.7-3.7,1.6-5c4-5.2,8.2-10.2,12.4-15.3c-5.7-8.7-5.7-8.7-14-12.5c-2.8-1.2-5.5-2.5-8.3-3.7
				c-28.8-12.3-58.1-19.9-88.3-16.3c-9.6,1.1-19,3-26.6,10.2c-2.6,2.5-5.8,4.4-8.9,6.1c-40.2,22.2-75.6,52.4-109.6,84.7
				c-3.4,3.2-10.3,12.6-14.4,17.1 M269.5,352.9c0,0.6,0,1.2,0,1.9c5.1,2.1,10.1,4.4,15.2,6.4c49.6,19.2,99.2,38.5,148.9,57.4
				c2.4,0.9,6,0.3,7.9-1.3c7.4-6.4,14.7-12.9,21.3-20.3c27.2-31,54-62.4,81-93.7c4.1-4.8,8.3-9.6,12.6-14.7c-9.3-2-9.2-2-13.9,5
				c-2,3-4.3,5.7-6.7,8.3c-23.7,25.6-47.6,51-71.2,76.7c-9.2,10-18.1,20.4-26.5,31.2c-2.2,2.8-4.2,4-7.2,3.3c-1.9-0.4-3.8-1-5.7-1.9
				c-49.6-22-99.8-41.4-150.6-58.4C273,352.2,271.2,352.8,269.5,352.9z M268.6,368.6c11.8,6,22.9,11.6,34,17.2c2,1,3.9,2.2,5.9,3
				c33.3,13.5,66.6,27.2,100,40.3c8.1,3.2,16.6,4.7,25.5,7.1c-0.4-4.8-0.8-8.4-1.1-12.2c-54.6-20.2-109.1-40.4-164-60.8
				C268.7,365.6,268.6,367.9,268.6,368.6z M271.8,341.4c7.8,6.2,16,9.6,24.9,10.3c11.4,0.8,23,0.5,34.3,2.6
				c31.4,5.8,61.1,19.2,90.2,34.6c1.4,0.7,2.7,1.4,4.1,2.2c0.2-0.4,0.5-0.8,0.7-1.1c-1.4-1.7-2.6-3.8-4.2-5
				c-5.9-4.2-37.7-17.9-41.7-20.2C335.7,347.8,325,345.7,271.8,341.4z M241.8,346.7c-4.6-1.8-9.2-3.7-13.9-5.3
				c-33.5-11.6-67.1-23.1-100.6-34.6c-2.8-1-5.8-1.2-8.8-1.8c0.4,4.3,0.7,7.5,1,10.7c4,0.9,7.7,1.5,11.3,2.7
				c33.5,11.5,67.8,19.3,100.4,35.1C239.2,357.5,239.9,356.5,241.8,346.7z M562,292.4c-2.9,3.1-5.7,5.7-8.2,8.6
				C531.2,327,509,353.5,486,379.1c-13.6,15.2-28.4,29.1-42.6,43.6c-0.6,0.6-1.1,1.8-1,2.6c0.3,3.1,0.9,6.1,1.5,10.1
				c1.7-1.9,2.7-3.2,3.8-4.4c37.3-42,74.5-84,111.9-125.8C562.8,301.6,564.3,298.4,562,292.4z M137.7,286.4
				c34.7,18.7,70,30.3,105.5,41.6c-6-4.7-15.2-9.3-21.8-12.5c-30.8-14.7-41.2-18.1-79.8-30.7C140.6,284.5,139.4,285.6,137.7,286.4z
				 M247.4,342.7c0.1-0.7,0.2-1.4,0.2-2.1c-10.4-4.6-20.7-9.4-31.2-13.8c-25.9-10.9-51.8-21.4-77.7-32.4c-5.4-2.3-8.4,0.8-12.3,4.3
				c15,5.8,29.3,11.5,43.8,16.9c23.7,8.8,47.4,17.4,71.1,26C243.4,342.2,245.4,342.3,247.4,342.7z M149.4,271.5
				c0.2,0.4,0.3,0.8,0.5,1.1c12.7,2.4,20.7,6.8,29.5,9.6c18.5,6.6,21.5,6.3,43.6,17.3c16.1,8,24.6,10.6,33.9,30
				c6.8-15,53.1-52.3,71.6-67c16.5-13,67.5-44,64.9-46.6c-38.6-38.8-98.3-41.5-115.7-27.2C275.9,188.8,186.8,240.7,149.4,271.5z
				 M321.2,360.4c-0.1,0.5-0.2,0.9-0.3,1.4c36.1,13.5,72.3,26.9,108.4,40.4C424.1,391.6,338.1,359.6,321.2,360.4z M242.6,321.8
				c0.2-0.4-3.2-5-3.1-5.4c-2.4-2-4.6-4.5-7.2-6c-14.5-8.6-21.4-11.2-36.9-17.9c-13-5.7-27.7-10.8-46.7-14.3c-1.9-0.3-3.9,0.2-5.7,1
				c0.1,0.7,0.1,1.4,0.2,2.1C182.6,292.7,208.5,302.6,242.6,321.8z M262.7,367.9c0.2-2.4,0.4-4.9,0.4-6c-6.1-2.4-11.5-4.6-17.5-6.9
				c0.2,1.8-0.4,5.6,0.8,6.6C251.1,365.7,256.1,370,262.7,367.9z M264.5,351.7c-4-2.3-8.1-4.5-12.6-7.1c-0.6,0.5-1.6,1.4-2.7,2.4
				C253.8,353.6,259,355.1,264.5,351.7z"/>
			<path class="st18" d="M262.7,367.9c-6.7,2.2-11.6-2.2-16.3-6.3c-1.2-1-0.6-4.8-0.8-6.6c5.9,2.3,11.4,4.5,17.5,6.9
				C263.1,363,262.9,365.4,262.7,367.9z"/>
			<path class="st18" d="M264.5,351.7c-5.5,3.4-10.7,1.8-15.3-4.7c1-0.9,2.1-1.8,2.7-2.4C256.4,347.2,260.4,349.5,264.5,351.7z"/>
			<path d="M415.7,294.2c6-2.5,11.1-4.7,16.4-6.6c4.2-1.5,8.4-1.3,11.4,3.5c0.8,1.2,0.5,3.3,0.7,5c-1.4-0.2-2.7-0.3-4.1-0.5
				c-2.6-0.4-5.4-1.8-7.7-1.2c-5.2,1.4-10.2,3.9-15.3,5.7c-1.8,0.6-3.8,0.9-5.7,0.6c-3.8-0.6-4.8-2.7-3-6.5c1.2-2.7,2.7-5.2,4.8-9.4
				c-4.2,0.2-7.1,0.1-10,0.5c-3.6,0.5-7.2,1.7-10.8,2.3c-3.5,0.5-5.6-1.2-4.5-5.5c1.5-5.7-1.5-5.6-4.7-4.9
				c-3.9,0.8-7.8,1.9-11.6,3.1c-4.2,1.3-9.1-0.5-8.8-6.9c0.1-3.4-1.8-4.4-4.2-3.8c-4.2,1-8.3,2.3-12.4,3.6c-1.4,0.4-2.9,1-4.3,1.5
				c-0.3-0.4-0.6-0.9-0.9-1.3c0.8-1.2,1.5-3,2.6-3.5c5.6-2.2,11.2-4.7,17.1-5.8c4.9-0.9,6.6,1.8,8,10.3c4.3-1.2,8.5-2.4,12.8-3.5
				c7.8-2,11.3,0.6,13,9.7c3.9-0.8,7.7-2,11.6-2.5C416.2,277.1,419.8,282.5,415.7,294.2z"/>
			<path d="M401.3,320.6c-0.1-5.7-1.3-7.2-6.1-6.5c-4.6,0.7-9,2.3-13.5,3.4c-2.3,0.6-4.7,1.2-7.1,1.2c-4.8,0.1-7.1-2.5-7.8-8.1
				c-0.8-6.5-2.1-7.4-7.2-5c-2.8,1.3-5.3,3-8,4.5c-6.1,3.4-11.8,1-11.9-8.1c-0.1-7.3-3-8.9-8.5-5.6c-2.1,1.2-4,2.9-6.1,4.1
				c-0.7,0.4-1.7-0.1-2.6-0.2c0.1-1-0.1-2.6,0.4-2.9c4-2.7,7.8-6.1,12.2-7.6c4.5-1.5,8.5,3.7,9.4,10.5c0.7,5.7,1.7,6.2,6.1,3.6
				c3.5-2.1,6.9-4.4,10.7-5.4c6.2-1.7,10.3,2.4,10.6,9.9c0.1,4,1.9,5,4.7,4.2c4.1-1.2,8.2-2.9,12.3-4c2.8-0.7,5.7-1.1,8.5-1.1
				c6,0.1,9.3,4,9.7,10.9c0.3,6.3,1.5,7.3,6.5,5.1c3.5-1.5,6.9-3.6,10.4-5.1c0.9-0.4,2.3,0.4,3.4,0.6c-0.4,1.2-0.4,3.1-1.2,3.6
				c-4.3,2.9-8.4,6.4-13.1,8.1C406.7,333.4,401.5,328.4,401.3,320.6z"/>
			<path d="M399.5,258.6c4-1.1,7.4-2.2,10.9-3.1c9.2-2.5,11.5-0.3,10.9,10.9c4.8-1.2,9.4-2.3,14-3.4c2-0.5,4.1-0.9,6.2-0.9
				c5.2-0.2,7,1.8,8,8.7c5.8,0.4,11.3-0.3,16.1-4.5c1-0.9,2.7-0.7,4-1c-0.1,1.6,0.2,3.6-0.5,4.8c-4,6.7-18.7,10.5-25.1,6.2
				c-1.4-0.9-1.7-4.2-3.1-7.7c-2.2,0.5-5.8,1.3-9.4,2.1c-3.4,0.8-6.8,2-10.3,2.3c-6.3,0.5-8.1-2.2-6.1-8.8c0.2-0.8,0.5-1.7,0.9-3.3
				c-4.7,1.2-8.8,2.3-12.9,3.2c-1.5,0.4-3.2,0.7-4.7,0.6c-4.4-0.2-5.5-1.9-4.6-6.8c0.4-2.3,1.1-4.4,2.1-7.9
				c-3.4,0.6-6.1,0.8-8.8,1.6c-2.3,0.7-4.4,2.1-6.7,2.8c-0.9,0.3-2-0.4-3-0.6c0.3-1.1,0.4-2.7,1-3.1c4.4-2.2,8.8-5.1,13.5-6
				c6.9-1.4,9.8,2.9,8,10.7C399.8,256,399.7,256.9,399.5,258.6z"/>
			<path d="M440.6,234.3c-3.5,1.4-7,3-10.5,4.1c-3.6,1.1-7.3,2.6-11,2.4c-5-0.2-5.7-2-4.1-7.5c0.3-1,0.5-2.1,1.1-4.3
				c-3.1,1-5.6,1.6-8,2.5c-4.4,1.6-8.7,3.4-13.1,4.8c-0.9,0.3-2.1-0.7-3.2-1.2c0.7-0.8,1.2-1.9,2.1-2.3c5.2-2.5,10.4-5.2,15.8-7.1
				c3-1,6.9-1.6,9.5-0.1c1.4,0.8,0.8,6.5,1.2,10.8c2.6-1,5.7-2.5,9-3.5c4.2-1.3,8.5-3,12.9-2.9c5.3,0.1,6.3,2.4,4.6,8.8
				c3.7-1,7-2.3,10.4-2.7c2.1-0.2,5.7,0.2,6.5,1.7c3.2,5.9,7.2,4.9,11.5,4c2.8-0.6,5.7-1.2,8.5-1.1c3.9,0.2,4.8,2.4,3,6.3
				c-0.7,1.6-1.3,3.3-2.1,4.8c-0.8,1.3-1.9,2.3-2.9,3.4c-0.6-1.6-1.5-3.1-1.8-4.8c-0.2-1.1,0.3-2.4,0.6-4c-2.9,0.6-5.4,1.2-7.8,1.6
				c-4.5,0.7-8.5-0.6-12.1-4.6c-0.9-1.1-3.1-1.2-4.6-1c-3.9,0.6-7.8,1.8-11.7,2.3c-1.5,0.2-3.2-0.9-4.9-1.4c0.3-1.7,0.6-3.4,1-5.1
				c0.2-0.8,0.7-1.5,1-2.3C441.2,235.4,440.9,234.9,440.6,234.3z"/>
			<path d="M508.5,299.2c-1.7,2.6-2.6,4.3-3.7,5.6c-9.1,9.9-18.2,19.5-27.3,29.5c-3.9,4.3-7.5,9.1-11.4,13.5c-0.8,0.9-2.3,1-3.5,1.5
				c0-1.6-0.4-3.3,0-4.7c0.3-1.3,1.2-2.5,2.1-3.5c11.3-13.1,22.7-26.1,34.1-39c1.4-1.6,3.2-2.9,5.1-3.7
				C504.8,297.9,506.2,298.7,508.5,299.2z"/>
			<path d="M485.4,340c-1.3,2.5-1.7,3.8-2.5,4.5c-3,3.1-6.1,6.1-9.2,9.1c-7.2,6.9-14.3,13.9-21.5,20.7c-1,1-2.6,1.2-3.9,1.8
				c0.3-1.7,0.1-3.9,0.9-5.1c8.7-12.4,19.9-21.7,31.5-30.4C481.6,340,483.1,340.3,485.4,340z"/>
			<path d="M489.2,292.1c-0.6-0.5-1.5-0.8-1.6-1.3c-0.2-1-0.4-2.5,0.1-3c7.6-7.6,15.3-15.2,23-22.6c0.5-0.5,1.7,0,2.6,0
				c0,1.2,0.3,2.7-0.2,3.4c-1.4,1.9-3.1,3.5-4.8,5.1c-5.7,5.5-11.5,11-17.2,16.5C490.6,290.9,490,291.5,489.2,292.1z"/>
			<path d="M331.8,213.7c-2.4,0.4-5.5,0.8-8.6,1.5c-9.6,2-11.7,0.3-12.6-11c-3.4,0.2-6.9,0.5-10.3,0.4c-3.1-0.1-7.2,1.4-7.6-5.1
				c0-0.6-2.5-1.8-3.6-1.5c-2.6,0.6-5,2.1-7.5,3c-0.9,0.3-1.9,0-2.9,0c0.2-1,0.1-2.2,0.5-2.9c3.9-5.9,13.4-5.7,18.1,0.1
				c0.8,1,2.6,1.4,3.8,1.3c3.2-0.2,6.4-0.9,9.6-1.1c5.1-0.3,5.9,0.8,5.7,6.8c0,1.1-0.1,2.2-0.2,4.5c4.1-0.7,7.7-1.6,11.4-1.9
				c3.1-0.2,6.5-0.1,9.5,1c4.7,1.7,5.2,4.1,2.1,8.4c-0.5,0.7-1.3,1-1.9,1.6c0.3,0.5,0.5,1,0.8,1.4c1.7-0.5,3.4-1,5.1-1.5
				c3.6-1,6,1.1,5,4.8c-1.1,4.3-3.6,8-5.7,11.8c-0.3,0.5-2.3,0.4-2.8-0.1c-0.6-0.7-0.6-2.3-0.3-3.4c0.4-1.5,1.3-2.9,1.5-3.4
				c-3.2-1.4-7-2-9.3-4.5C330.4,222.5,331.6,218,331.8,213.7z"/>
			<path d="M244.7,255.8c-2.8,0.5-5.2,0.7-7.4,1.4c-3.8,1.2-8.2,2.4-10.6-2.1c-1.6-3-0.6-7.6-0.8-12c-4.4,1.5-9.9,3.4-15.4,5.2
				c-0.3-0.5-0.5-0.9-0.8-1.4c0.7-1,1.1-2.4,2-2.8c4.3-2.2,8.5-4.7,13-6.1c2-0.6,5.4,0.5,6.9,2.3c1,1.2,0,4.9-0.3,7.4
				c-0.1,1.2-0.8,2.3-1.5,4.3c2.4-0.1,4.2-0.1,6-0.3c1.9-0.3,3.7-1,5.6-1.4c6.9-1.1,9.3,1.8,8.6,11.2c2.2,0.1,4.4,0.1,6.5,0.3
				c5.6,0.6,9.7,4.9,10,11.3c0.2,3.9,1.5,5.9,4.6,6.8c0.9,0.3,2,0.5,2.8,1.1c1.8,1.5,4.7,3.1,4.9,4.8c0.2,2-1.8,4.4-3.3,6.1
				c-0.8,0.9-2.5,0.7-3.8,1c0-1.5-0.1-3,0-4.4c0-0.6,0.4-1.2,0.8-2c-2.5-1.3-5.2-2-6.9-3.8c-1.9-2-3.7-4.9-4.1-7.6
				c-0.9-6.3-2-7.9-7.4-7.9c-0.2,0-0.3,0-0.5,0C244,267.5,244,267.5,244.7,255.8z"/>
			<path d="M230.4,232.2c0.6-2.2,0.7-3.7,1.2-3.9c5.6-2.2,11.1-5.1,17-6.1c5.6-1,7.1,4.7,7.8,9.5c4.4-0.2,8.6-1.4,12.5-0.4
				c5.8,1.5,4.5,7.2,4,12.5c3.2,0,6.2-0.1,9.2,0.1c5.7,0.3,8.8,3.2,9.7,9.7c0.5,3.5,2.2,4.1,4.7,4.5c3.5,0.6,6.4,2.5,6.1,7.3
				c-0.1,1.2-1,2.9-1.8,3.1c-0.8,0.2-2.1-1.1-3.1-1.8c-1.5-1.1-2.8-2.8-4.4-3.4c-3.4-1.1-5.6-3.1-6.1-7.2c-0.6-5.2-3.4-6.9-7.5-6.8
				c-2.7,0.1-5.5,0.1-8.2,0c-3.8-0.1-5.3-1.9-3.9-6.4c1.7-5.7,0.7-6.9-4.7-6c-1.3,0.2-2.5,0.6-3.7,0.8c-5.9,1.4-6.8,0.8-7.6-6
				c-0.4-3.4-1.7-4.9-4.5-4.1c-3.2,0.9-6.4,2.1-9.6,3C235.5,231.1,233.4,231.5,230.4,232.2z"/>
			<path d="M308.9,239.7c1.5,0.4,4.3,0.8,6.9,1.8c5.3,1.9,7.2,7.8,4.2,12.9c-0.5,0.9-1.7,1.3-2.5,2c-0.6-1.2-1.8-2.6-1.6-3.5
				c1-5-1.4-6.3-5-6.7c-0.8-0.1-1.6-0.3-2.4-0.5c-7.6-2.1-8.4-4.1-4.7-11.5c0.4-0.7,0.5-1.6,1-3.2c-2.3,0.1-4.1,0.1-5.9,0.3
				c-2.9,0.3-5.7,1.1-8.5,0.9c-3.5-0.2-6.1-2.3-6.8-6.8c-1.1-7.3-2.5-8.3-9-6.7c-3.4,0.8-6.6,2.4-7.5-4c-0.1-0.9-3.4-1.9-5.3-2
				c-3.3-0.2-6.6,0.2-9.9-0.3c4.6-6.6,16.4-5.6,20.6,1.1c1.6-0.2,3.4-0.6,5.1-0.7c5.7-0.5,9.8,2.7,10.3,9.2c0.4,4.6,2.3,5.4,5.4,4.8
				c1.7-0.3,3.4-0.9,5.1-1.2c3.5-0.6,7.7-1.6,9.7,2.7C309.5,230.9,308.7,235,308.9,239.7z"/>
		</g>
		<g>
			<polyline class="st19" points="396.9,215.2 151.7,270.7 232.4,301.4 			"/>
			<path class="st19" d="M396.9,215.2c-10.3,10.2-127.3,116.9-137.6,127.1c-1.5-16.2,14.1-45,16.1-45.9
				C282.3,293.5,399.6,212.4,396.9,215.2z"/>
			<polyline class="st19" points="274.1,317.3 424.6,374.5 396.9,215.2 			"/>
			<polygon class="st19" points="273.9,317.3 259.3,342.3 232.2,301.4 396.9,215.2 273.9,317.3 			"/>
		</g>
	</g>
</g>
<g id="Layer_3">
</g>
</svg>
