<?xml version="1.0" encoding="utf-8"?>
<!-- Generator: Adobe Illustrator 28.0.0, SVG Export Plug-In . SVG Version: 6.00 Build 0)  -->
<svg version="1.1" id="coder_x5F_avatar" xmlns="http://www.w3.org/2000/svg" xmlns:xlink="http://www.w3.org/1999/xlink" x="0px"
	 y="0px" viewBox="0 0 264 280" style="enable-background:new 0 0 264 280;" xml:space="preserve">
<style type="text/css">
	.st0{fill-rule:evenodd;clip-rule:evenodd;fill:#D0C6AC;}
	.st1{filter:url(#Adobe_OpacityMaskFilter);}
	.st2{fill-rule:evenodd;clip-rule:evenodd;fill:#FFFFFF;}
	.st3{mask:url(#react-mask-6_00000043445119476861824050000005350964705965242271_);}
	.st4{fill-rule:evenodd;clip-rule:evenodd;fill:#EDB98A;}
	.st5{filter:url(#Adobe_OpacityMaskFilter_00000048488290760723252070000000073669345507287169_);}
	
		.st6{mask:url(#react-mask-6_00000129886744523590057660000012820432339786135941_);fill-rule:evenodd;clip-rule:evenodd;fill-opacity:0.1;}
	.st7{fill-rule:evenodd;clip-rule:evenodd;fill:#E6E6E6;}
	.st8{filter:url(#Adobe_OpacityMaskFilter_00000017508897195570421920000003688649576528623508_);}
	.st9{mask:url(#react-mask-166_00000155868724776604954350000008780983021724760985_);}
	.st10{fill-rule:evenodd;clip-rule:evenodd;fill:#0067C1;}
	.st11{fill-opacity:0.6;}
	.st12{fill-rule:evenodd;clip-rule:evenodd;fill-opacity:0.16;}
	.st13{fill-rule:evenodd;clip-rule:evenodd;fill-opacity:0.6;}
	.st14{filter:url(#Adobe_OpacityMaskFilter_00000112594851981582653860000016300575784982160831_);}
	.st15{mask:url(#react-mask-153_00000158722023890266215150000017215032721948863366_);}
	.st16{fill-rule:evenodd;clip-rule:evenodd;fill:#272C2E;}
	.st17{filter:url(#Adobe_OpacityMaskFilter_00000057125736124046721470000000042262174704516522_);}
	.st18{mask:url(#react-mask-154_00000016761493839931630220000005124170323908131245_);}
	.st19{fill-rule:evenodd;clip-rule:evenodd;fill:#A55728;}
	.st20{fill:none;stroke:#6327CE;stroke-width:5;stroke-miterlimit:10;}
	.st21{fill:#6327CE;}
</style>
<g id="Body" transform="translate(32.000000, 36.000000)">
	<g>
		<path id="react-path-3_00000160885590890831027180000014833760966788557489_" class="st0" d="M124,144.6V163h4l0,0
			c39.8,0,72,32.2,72,72v9H0v-9c0-39.8,32.2-72,72-72l0,0h4v-18.4c-17.2-8.2-29.6-24.9-31.7-44.7C38.5,99.1,34,94.1,34,88V74
			c0-5.9,4.3-10.9,10-11.8V56l0,0c0-30.9,25.1-56,56-56l0,0l0,0c30.9,0,56,25.1,56,56v6.2c5.7,1,10,5.9,10,11.8v14
			c0,6.1-4.5,11.1-10.3,11.9C153.6,119.7,141.2,136.4,124,144.6z"/>
	</g>
	<defs>
		<filter id="Adobe_OpacityMaskFilter" filterUnits="userSpaceOnUse" x="0" y="0" width="264" height="280">
			<feColorMatrix  type="matrix" values="1 0 0 0 0  0 1 0 0 0  0 0 1 0 0  0 0 0 1 0"/>
		</filter>
	</defs>
	
		<mask maskUnits="userSpaceOnUse" x="0" y="0" width="264" height="280" id="react-mask-6_00000043445119476861824050000005350964705965242271_">
		<g class="st1">
			<path id="react-path-3_00000076596479314400599160000017200497109908422018_" class="st2" d="M124,144.6V163h4l0,0
				c39.8,0,72,32.2,72,72v9H0v-9c0-39.8,32.2-72,72-72l0,0h4v-18.4c-17.2-8.2-29.6-24.9-31.7-44.7C38.5,99.1,34,94.1,34,88V74
				c0-5.9,4.3-10.9,10-11.8V56l0,0c0-30.9,25.1-56,56-56l0,0l0,0c30.9,0,56,25.1,56,56v6.2c5.7,1,10,5.9,10,11.8v14
				c0,6.1-4.5,11.1-10.3,11.9C153.6,119.7,141.2,136.4,124,144.6z"/>
		</g>
	</mask>
	<g id="Skin_x2F__xD83D__xDC76__xD83C__xDFFD_-03-Brown" class="st3">
		<g id="Color" transform="translate(0.000000, 0.000000)">
			<rect class="st4" width="264" height="280"/>
		</g>
	</g>
	<defs>
		
			<filter id="Adobe_OpacityMaskFilter_00000068645696159129480690000012163222267849372296_" filterUnits="userSpaceOnUse" x="44" y="79" width="112" height="79">
			<feColorMatrix  type="matrix" values="1 0 0 0 0  0 1 0 0 0  0 0 1 0 0  0 0 0 1 0"/>
		</filter>
	</defs>
	
		<mask maskUnits="userSpaceOnUse" x="44" y="79" width="112" height="79" id="react-mask-6_00000129886744523590057660000012820432339786135941_">
		<g style="filter:url(#Adobe_OpacityMaskFilter_00000068645696159129480690000012163222267849372296_);">
			<path id="react-path-3_00000011714664704756309130000009426131170988284346_" class="st2" d="M124,144.6V163h4l0,0
				c39.8,0,72,32.2,72,72v9H0v-9c0-39.8,32.2-72,72-72l0,0h4v-18.4c-17.2-8.2-29.6-24.9-31.7-44.7C38.5,99.1,34,94.1,34,88V74
				c0-5.9,4.3-10.9,10-11.8V56l0,0c0-30.9,25.1-56,56-56l0,0l0,0c30.9,0,56,25.1,56,56v6.2c5.7,1,10,5.9,10,11.8v14
				c0,6.1-4.5,11.1-10.3,11.9C153.6,119.7,141.2,136.4,124,144.6z"/>
		</g>
	</mask>
	<path id="Neck-Shadow" class="st6" d="M156,79v23c0,30.9-25.1,56-56,56s-56-25.1-56-56V79v15c0,30.9,25.1,56,56,56s56-25.1,56-56
		V79z"/>
</g>
<g id="Clothing_x2F_Shirt-Scoop-Neck" transform="translate(0.000000, 170.000000)">
	<g id="Clothes">
		<path id="react-path-165_00000145026291013767385060000000059065573756964512_" class="st7" d="M181.5,32.3
			c29.2,9.2,50.5,36.5,50.5,68.7v8.9H32v-8.9c0-32.7,21.7-60.2,51.5-69c-0.4,1.4-0.5,2.9-0.5,4.3c0,16.3,22.2,29.5,49.5,29.5
			S182,52.6,182,36.3C182,35,181.8,33.6,181.5,32.3z"/>
	</g>
	<defs>
		
			<filter id="Adobe_OpacityMaskFilter_00000068669970775419718090000015728157602287024549_" filterUnits="userSpaceOnUse" x="0" y="0" width="264" height="110">
			<feColorMatrix  type="matrix" values="1 0 0 0 0  0 1 0 0 0  0 0 1 0 0  0 0 0 1 0"/>
		</filter>
	</defs>
	
		<mask maskUnits="userSpaceOnUse" x="0" y="0" width="264" height="110" id="react-mask-166_00000155868724776604954350000008780983021724760985_">
		<g style="filter:url(#Adobe_OpacityMaskFilter_00000068669970775419718090000015728157602287024549_);">
			<path id="react-path-165_00000050621998993710786330000000902000905293856419_" class="st2" d="M181.5,32.3
				c29.2,9.2,50.5,36.5,50.5,68.7v8.9H32v-8.9c0-32.7,21.7-60.2,51.5-69c-0.4,1.4-0.5,2.9-0.5,4.3c0,16.3,22.2,29.5,49.5,29.5
				S182,52.6,182,36.3C182,35,181.8,33.6,181.5,32.3z"/>
		</g>
	</mask>
	<g id="Color_x2F_Palette_x2F_Gray-01" class="st9">
		<rect id="_xD83D__xDD8D_Color" class="st10" width="264" height="110"/>
	</g>
</g>
<g id="Face" transform="translate(76.000000, 82.000000)">
	<g id="Mouth_x2F_Twinkle" transform="translate(2.000000, 52.000000)">
		<path id="Mouth" class="st11" d="M40,16c0,5.4,6.2,9,14,9s14-3.6,14-9c0-1.1-0.9-2-2-2c-1.3,0-1.9,0.9-2,2c-1.2,2.9-4.3,4.7-10,5
			c-5.7-0.3-8.8-2.1-10-5c-0.1-1.1-0.7-2-2-2C40.9,14,40,14.9,40,16z"/>
	</g>
	<g id="Nose_x2F_Default" transform="translate(28.000000, 40.000000)">
		<path id="Nose" class="st12" d="M16,8c0,4.4,5.4,8,12,8l0,0c6.6,0,12-3.6,12-8"/>
	</g>
	<g id="Eyes_x2F_Default-_xD83D__xDE00_" transform="translate(0.000000, 8.000000)">
		<circle id="Eye" class="st13" cx="30" cy="22" r="6"/>
		<circle id="Eye_00000037654407838955123080000002373581274745371532_" class="st13" cx="82" cy="22" r="6"/>
	</g>
	<g id="Eyebrow_x2F_Outline_x2F_Default">
		<g id="I-Browse" transform="translate(12.000000, 6.000000)">
			<path id="Eyebrow" class="st11" d="M3.6,11.2c3.9-5.5,14.6-8.6,23.9-6.3c1.1,0.3,2.2-0.4,2.4-1.5c0.3-1.1-0.4-2.2-1.5-2.4
				C17.7-1.7,5.3,1.9,0.4,8.8c-0.6,0.9-0.4,2.1,0.5,2.8S3,12.1,3.6,11.2z"/>
			<path id="Eyebrow_00000085969123589812536410000017172425839698181280_" class="st11" d="M84.4,11.2c-3.9-5.5-14.6-8.6-23.9-6.3
				c-1.1,0.3-2.2-0.4-2.4-1.5s0.4-2.2,1.5-2.4c10.7-2.6,23.2,0.9,28.1,7.9c0.6,0.9,0.4,2.1-0.5,2.8S85,12.1,84.4,11.2z"/>
		</g>
	</g>
</g>
<g id="Top">
	<g id="Mask_00000026845168494817024700000001056564348833611927_">
	</g>
	<defs>
		
			<filter id="Adobe_OpacityMaskFilter_00000075854943525398225780000003692848360719913659_" filterUnits="userSpaceOnUse" x="39" y="15" width="264" height="280">
			<feColorMatrix  type="matrix" values="1 0 0 0 0  0 1 0 0 0  0 0 1 0 0  0 0 0 1 0"/>
		</filter>
	</defs>
	
		<mask maskUnits="userSpaceOnUse" x="39" y="15" width="264" height="280" id="react-mask-153_00000158722023890266215150000017215032721948863366_">
		<g style="filter:url(#Adobe_OpacityMaskFilter_00000075854943525398225780000003692848360719913659_);">
			<rect id="react-path-155_00000094593652126979444940000016596405274622255038_" class="st2" width="264" height="280"/>
		</g>
	</mask>
	<g id="Top_x2F_Long-Hair_x2F_Straight" class="st15">
		<g transform="translate(-1.000000, 0.000000)">
			<g id="Hair" transform="translate(40.000000, 15.000000)">
				<g>
					<path id="react-path-156_00000126297526843769823270000000155083589259185835_" class="st16" d="M21,157.5V69
						c0-3.5,0.4-7,1.2-10.3c3.1-20,14.6-36,27.8-45.8c19.9-14.8,53.4-19,65-1.5c8.7-3.8,21.5-0.3,31,8.5
						c9.6,9.4,17.2,30.2,12.7,47.2c0.1,1.3,0.2,2.5,0.2,3.8v21.9c-0.9-5-4.8-8.9-9.8-9.7V83c-6-21.5-23.8-31.4-34.6-41.2
						C97.5,60.7,44.8,60.7,27,98v10c0,6,4.4,11,10.2,11.9c1.7,20.2,14.3,37.4,31.8,45.7v0.4c2.9,43.9-6.6,98.8-69,82
						C13.6,240,20.8,189.1,21,157.5z M117,165.6c17.5-8.3,30-25.5,31.8-45.7c5.1-0.8,9.1-4.7,10-9.8v1.4l0,0
						c0,15.8,3.8,31.4,11,45.5l26.9,52.7c7,13.6,4.9,29.5-3.9,40.8C190,213.3,158.9,184,121,184l0,0h-4V165.6z"/>
				</g>
				<defs>
					
						<filter id="Adobe_OpacityMaskFilter_00000124124541462855578720000000580428473738474388_" filterUnits="userSpaceOnUse" x="0" y="0" width="264" height="280">
						<feColorMatrix  type="matrix" values="1 0 0 0 0  0 1 0 0 0  0 0 1 0 0  0 0 0 1 0"/>
					</filter>
				</defs>
				
					<mask maskUnits="userSpaceOnUse" x="0" y="0" width="264" height="280" id="react-mask-154_00000016761493839931630220000005124170323908131245_">
					<g style="filter:url(#Adobe_OpacityMaskFilter_00000124124541462855578720000000580428473738474388_);">
						<path id="react-path-156_00000011025746110105208790000013554343264352359333_" class="st2" d="M21,157.5V69
							c0-3.5,0.4-7,1.2-10.3c3.1-20,14.6-36,27.8-45.8c19.9-14.8,53.4-19,65-1.5c8.7-3.8,21.5-0.3,31,8.5
							c9.6,9.4,17.2,30.2,12.7,47.2c0.1,1.3,0.2,2.5,0.2,3.8v21.9c-0.9-5-4.8-8.9-9.8-9.7V83c-6-21.5-23.8-31.4-34.6-41.2
							C97.5,60.7,44.8,60.7,27,98v10c0,6,4.4,11,10.2,11.9c1.7,20.2,14.3,37.4,31.8,45.7v0.4c2.9,43.9-6.6,98.8-69,82
							C13.6,240,20.8,189.1,21,157.5z M117,165.6c17.5-8.3,30-25.5,31.8-45.7c5.1-0.8,9.1-4.7,10-9.8v1.4l0,0
							c0,15.8,3.8,31.4,11,45.5l26.9,52.7c7,13.6,4.9,29.5-3.9,40.8C190,213.3,158.9,184,121,184l0,0h-4V165.6z"/>
					</g>
				</mask>
				<g id="Skin_x2F__xD83D__xDC76__xD83C__xDFFD_-03-Brown_00000031909623630752915350000010525966585550116240_" class="st18">
					<g id="Color_00000048468152447058140330000009854508274512910745_" transform="translate(0.000000, 0.000000) ">
						<rect class="st19" width="264" height="280"/>
					</g>
				</g>
			</g>
			<path id="Shadow" class="st12" d="M67,113c17.8-32.3,70.5-32.4,87.4-48.8c10.8,8.5,28.5,15.1,34.5,33.7
				c-6.1-21.4-23.8-31.3-34.5-41.1C137.5,75.7,84.8,75.7,67,113z"/>
			<g id="Wayfarers" transform="translate(6 7)">
				<path class="st20" d="M183,95.6c0,0-1.8,8.8-5.4,16.7c-1.7,3.7-7.8,6.4-11.9,6.9c-4.4,0.5-9.8,0.5-14.9,0
					c-8.7-0.9-11.1-8.5-17-23.1 M69.4,95.6c0,0,1.8,8.8,5.4,16.7c1.7,3.7,7.8,6.4,11.9,6.9c4.4,0.5,9.8,0.5,14.9,0
					c8.7-0.9,11.1-8.5,17-23.1"/>
				<path id="Stuff" class="st21" d="M64.4,92.8C65,92.1,72.6,87,93.9,87c17.9,0,21.6,1.9,27.4,4.7l0.4,0.2c0.4,0.1,2.4,0.8,4.8,0.9
					c2.2-0.1,4-0.7,4.6-0.9c6.5-3.2,12.9-4.9,27.8-4.9c21.3,0,28.9,5.1,29.5,5.8c1.6,0,3,0.3,3,1.9v2.9c0,1.6-1.3,2.9-3,2.9
					c0,0-3.9-0.2-4.7,2.6c-0.9,3.1-3.7-3.9-3.7-5.4l0.6-2.9c-3.6-1.4-11.1-2.9-21.8-2.9c-11.8,0-17.8,1.4-22.8,3.5l0.5,1.7l-2.7,1.5
					l-2.7-1.1c-0.2-0.1-0.8-0.3-1.5-0.5c-2-0.5-4.1-0.7-6-0.3c-0.7,0.1-1.3,0.3-1.9,0.6l-2.6,1.3l-3-2.9l0.3-0.9
					c-4.4-2-8.1-3-22.5-3c-10.6,0-18.5,1.8-22.1,3.2l0.8,3.1c0,1.6-3.1,8-3.8,5.2c-0.7-3.1-4.4-2.9-4.4-2.9c-1.6,0-3-1.3-3-2.9v-2.8
					C61.4,93.1,62.7,92.8,64.4,92.8z"/>
			</g>
		</g>
	</g>
</g>
</svg>
