<?xml version="1.0" encoding="UTF-8"?>
<svg id="Layer_2" xmlns="http://www.w3.org/2000/svg" xmlns:xlink="http://www.w3.org/1999/xlink" version="1.1" viewBox="0 0 360 277.7">
  <!-- Generator: Adobe Illustrator 29.0.1, SVG Export Plug-In . SVG Version: 2.1.0 Build 192)  -->
  <defs>
    <style>
      .st0 {
        fill: none;
      }

      .st1 {
        fill: #58b947;
      }

      .st2 {
        clip-path: url(#clippath-17);
      }

      .st3 {
        clip-path: url(#clippath-19);
      }

      .st4 {
        clip-path: url(#clippath-11);
      }

      .st5 {
        clip-path: url(#clippath-16);
      }

      .st6 {
        clip-path: url(#clippath-18);
      }

      .st7 {
        clip-path: url(#clippath-10);
      }

      .st8 {
        clip-path: url(#clippath-15);
      }

      .st9 {
        clip-path: url(#clippath-13);
      }

      .st10 {
        clip-path: url(#clippath-14);
      }

      .st11 {
        clip-path: url(#clippath-12);
      }

      .st12 {
        clip-path: url(#clippath-61);
      }

      .st13 {
        clip-path: url(#clippath-67);
      }

      .st14 {
        clip-path: url(#clippath-68);
      }

      .st15 {
        clip-path: url(#clippath-60);
      }

      .st16 {
        clip-path: url(#clippath-65);
      }

      .st17 {
        clip-path: url(#clippath-62);
      }

      .st18 {
        clip-path: url(#clippath-64);
      }

      .st19 {
        clip-path: url(#clippath-66);
      }

      .st20 {
        clip-path: url(#clippath-63);
      }

      .st21 {
        clip-path: url(#clippath-76);
      }

      .st22 {
        clip-path: url(#clippath-78);
      }

      .st23 {
        clip-path: url(#clippath-75);
      }

      .st24 {
        clip-path: url(#clippath-79);
      }

      .st25 {
        clip-path: url(#clippath-50);
      }

      .st26 {
        clip-path: url(#clippath-55);
      }

      .st27 {
        clip-path: url(#clippath-52);
      }

      .st28 {
        clip-path: url(#clippath-57);
      }

      .st29 {
        clip-path: url(#clippath-54);
      }

      .st30 {
        clip-path: url(#clippath-56);
      }

      .st31 {
        clip-path: url(#clippath-53);
      }

      .st32 {
        clip-path: url(#clippath-70);
      }

      .st33 {
        clip-path: url(#clippath-77);
      }

      .st34 {
        clip-path: url(#clippath-74);
      }

      .st35 {
        clip-path: url(#clippath-71);
      }

      .st36 {
        clip-path: url(#clippath-73);
      }

      .st37 {
        clip-path: url(#clippath-72);
      }

      .st38 {
        clip-path: url(#clippath-51);
      }

      .st39 {
        clip-path: url(#clippath-58);
      }

      .st40 {
        clip-path: url(#clippath-59);
      }

      .st41 {
        clip-path: url(#clippath-31);
      }

      .st42 {
        clip-path: url(#clippath-32);
      }

      .st43 {
        clip-path: url(#clippath-33);
      }

      .st44 {
        clip-path: url(#clippath-34);
      }

      .st45 {
        clip-path: url(#clippath-35);
      }

      .st46 {
        clip-path: url(#clippath-39);
      }

      .st47 {
        clip-path: url(#clippath-30);
      }

      .st48 {
        clip-path: url(#clippath-36);
      }

      .st49 {
        clip-path: url(#clippath-37);
      }

      .st50 {
        clip-path: url(#clippath-38);
      }

      .st51 {
        clip-path: url(#clippath-27);
      }

      .st52 {
        clip-path: url(#clippath-29);
      }

      .st53 {
        clip-path: url(#clippath-26);
      }

      .st54 {
        clip-path: url(#clippath-28);
      }

      .st55 {
        clip-path: url(#clippath-20);
      }

      .st56 {
        clip-path: url(#clippath-21);
      }

      .st57 {
        clip-path: url(#clippath-22);
      }

      .st58 {
        clip-path: url(#clippath-23);
      }

      .st59 {
        clip-path: url(#clippath-24);
      }

      .st60 {
        clip-path: url(#clippath-25);
      }

      .st61 {
        clip-path: url(#clippath-69);
      }

      .st62 {
        clip-path: url(#clippath-41);
      }

      .st63 {
        clip-path: url(#clippath-42);
      }

      .st64 {
        clip-path: url(#clippath-43);
      }

      .st65 {
        clip-path: url(#clippath-44);
      }

      .st66 {
        clip-path: url(#clippath-45);
      }

      .st67 {
        clip-path: url(#clippath-49);
      }

      .st68 {
        clip-path: url(#clippath-40);
      }

      .st69 {
        clip-path: url(#clippath-46);
      }

      .st70 {
        clip-path: url(#clippath-47);
      }

      .st71 {
        clip-path: url(#clippath-48);
      }

      .st72 {
        clip-path: url(#clippath-90);
      }

      .st73 {
        clip-path: url(#clippath-95);
      }

      .st74 {
        clip-path: url(#clippath-93);
      }

      .st75 {
        clip-path: url(#clippath-99);
      }

      .st76 {
        clip-path: url(#clippath-94);
      }

      .st77 {
        clip-path: url(#clippath-96);
      }

      .st78 {
        clip-path: url(#clippath-85);
      }

      .st79 {
        clip-path: url(#clippath-86);
      }

      .st80 {
        clip-path: url(#clippath-87);
      }

      .st81 {
        clip-path: url(#clippath-80);
      }

      .st82 {
        clip-path: url(#clippath-89);
      }

      .st83 {
        clip-path: url(#clippath-81);
      }

      .st84 {
        clip-path: url(#clippath-82);
      }

      .st85 {
        clip-path: url(#clippath-83);
      }

      .st86 {
        clip-path: url(#clippath-84);
      }

      .st87 {
        clip-path: url(#clippath-88);
      }

      .st88 {
        clip-path: url(#clippath-92);
      }

      .st89 {
        clip-path: url(#clippath-97);
      }

      .st90 {
        clip-path: url(#clippath-91);
      }

      .st91 {
        clip-path: url(#clippath-98);
      }

      .st92 {
        clip-path: url(#clippath-1);
      }

      .st93 {
        clip-path: url(#clippath-3);
      }

      .st94 {
        clip-path: url(#clippath-4);
      }

      .st95 {
        clip-path: url(#clippath-2);
      }

      .st96 {
        clip-path: url(#clippath-7);
      }

      .st97 {
        clip-path: url(#clippath-6);
      }

      .st98 {
        clip-path: url(#clippath-9);
      }

      .st99 {
        clip-path: url(#clippath-8);
      }

      .st100 {
        clip-path: url(#clippath-5);
      }

      .st101 {
        clip-path: url(#clippath-102);
      }

      .st102 {
        clip-path: url(#clippath-101);
      }

      .st103 {
        clip-path: url(#clippath-104);
      }

      .st104 {
        clip-path: url(#clippath-109);
      }

      .st105 {
        clip-path: url(#clippath-106);
      }

      .st106 {
        clip-path: url(#clippath-103);
      }

      .st107 {
        clip-path: url(#clippath-105);
      }

      .st108 {
        clip-path: url(#clippath-100);
      }

      .st109 {
        clip-path: url(#clippath-108);
      }

      .st110 {
        clip-path: url(#clippath-107);
      }

      .st111 {
        clip-path: url(#clippath-118);
      }

      .st112 {
        clip-path: url(#clippath-114);
      }

      .st113 {
        clip-path: url(#clippath-119);
      }

      .st114 {
        clip-path: url(#clippath-111);
      }

      .st115 {
        clip-path: url(#clippath-110);
      }

      .st116 {
        clip-path: url(#clippath-113);
      }

      .st117 {
        clip-path: url(#clippath-112);
      }

      .st118 {
        clip-path: url(#clippath-117);
      }

      .st119 {
        clip-path: url(#clippath-115);
      }

      .st120 {
        clip-path: url(#clippath-116);
      }

      .st121 {
        clip-path: url(#clippath-120);
      }

      .st122 {
        clip-path: url(#clippath-125);
      }

      .st123 {
        clip-path: url(#clippath-122);
      }

      .st124 {
        clip-path: url(#clippath-121);
      }

      .st125 {
        clip-path: url(#clippath-123);
      }

      .st126 {
        clip-path: url(#clippath-124);
      }

      .st127 {
        clip-path: url(#clippath-126);
      }

      .st128 {
        fill: #fff;
      }

      .st129 {
        fill: #582700;
      }

      .st130 {
        clip-path: url(#clippath);
      }
    </style>
    <clipPath id="clippath">
      <rect class="st0" y="3.6" width="360" height="209.5"/>
    </clipPath>
    <clipPath id="clippath-1">
      <rect class="st0" x="24.3" y="10.7" width="316" height="174.3"/>
    </clipPath>
    <clipPath id="clippath-2">
      <rect class="st0" x="24.3" y="10.7" width="316" height="174.3"/>
    </clipPath>
    <clipPath id="clippath-3">
      <rect class="st0" x="24.3" y="10.7" width="316" height="174.3"/>
    </clipPath>
    <clipPath id="clippath-4">
      <rect class="st0" x="24.3" y="10.7" width="316" height="174.3"/>
    </clipPath>
    <clipPath id="clippath-5">
      <rect class="st0" x="24.3" y="10.7" width="316" height="174.3"/>
    </clipPath>
    <clipPath id="clippath-6">
      <rect class="st0" x="24.3" y="10.7" width="316" height="174.3"/>
    </clipPath>
    <clipPath id="clippath-7">
      <rect class="st0" x="24.3" y="10.7" width="316" height="174.3"/>
    </clipPath>
    <clipPath id="clippath-8">
      <rect class="st0" x="24.3" y="10.7" width="316" height="174.3"/>
    </clipPath>
    <clipPath id="clippath-9">
      <rect class="st0" x="24.3" y="10.7" width="316" height="174.3"/>
    </clipPath>
    <clipPath id="clippath-10">
      <rect class="st0" x="24.3" y="10.7" width="316" height="174.3"/>
    </clipPath>
    <clipPath id="clippath-11">
      <rect class="st0" x="24.3" y="10.7" width="316" height="174.3"/>
    </clipPath>
    <clipPath id="clippath-12">
      <rect class="st0" x="24.3" y="10.7" width="316" height="174.3"/>
    </clipPath>
    <clipPath id="clippath-13">
      <rect class="st0" x="24.3" y="10.7" width="316" height="174.3"/>
    </clipPath>
    <clipPath id="clippath-14">
      <rect class="st0" x="24.3" y="10.7" width="316" height="174.3"/>
    </clipPath>
    <clipPath id="clippath-15">
      <rect class="st0" x="24.3" y="10.7" width="316" height="174.3"/>
    </clipPath>
    <clipPath id="clippath-16">
      <rect class="st0" x="24.3" y="10.7" width="316" height="174.3"/>
    </clipPath>
    <clipPath id="clippath-17">
      <rect class="st0" x="24.3" y="10.7" width="316" height="174.3"/>
    </clipPath>
    <clipPath id="clippath-18">
      <rect class="st0" x="24.3" y="10.7" width="316" height="174.3"/>
    </clipPath>
    <clipPath id="clippath-19">
      <rect class="st0" x="24.3" y="10.7" width="316" height="174.3"/>
    </clipPath>
    <clipPath id="clippath-20">
      <rect class="st0" x="24.3" y="10.7" width="316" height="174.3"/>
    </clipPath>
    <clipPath id="clippath-21">
      <rect class="st0" x="24.3" y="10.7" width="316" height="174.3"/>
    </clipPath>
    <clipPath id="clippath-22">
      <rect class="st0" x="24.3" y="10.7" width="316" height="174.3"/>
    </clipPath>
    <clipPath id="clippath-23">
      <rect class="st0" x="24.3" y="10.7" width="316" height="174.3"/>
    </clipPath>
    <clipPath id="clippath-24">
      <rect class="st0" x="24.3" y="10.7" width="316" height="174.3"/>
    </clipPath>
    <clipPath id="clippath-25">
      <rect class="st0" x="24.3" y="10.7" width="316" height="174.3"/>
    </clipPath>
    <clipPath id="clippath-26">
      <rect class="st0" x="24.3" y="10.7" width="316" height="174.3"/>
    </clipPath>
    <clipPath id="clippath-27">
      <rect class="st0" x="24.3" y="10.7" width="316" height="174.3"/>
    </clipPath>
    <clipPath id="clippath-28">
      <rect class="st0" x="24.3" y="10.7" width="316" height="174.3"/>
    </clipPath>
    <clipPath id="clippath-29">
      <rect class="st0" x="24.3" y="10.7" width="316" height="174.3"/>
    </clipPath>
    <clipPath id="clippath-30">
      <rect class="st0" x="24.3" y="10.7" width="316" height="174.3"/>
    </clipPath>
    <clipPath id="clippath-31">
      <rect class="st0" x="24.3" y="10.7" width="316" height="174.3"/>
    </clipPath>
    <clipPath id="clippath-32">
      <rect class="st0" x="24.3" y="10.7" width="316" height="174.3"/>
    </clipPath>
    <clipPath id="clippath-33">
      <rect class="st0" x="24.3" y="10.7" width="316" height="174.3"/>
    </clipPath>
    <clipPath id="clippath-34">
      <rect class="st0" x="24.3" y="10.7" width="316" height="174.3"/>
    </clipPath>
    <clipPath id="clippath-35">
      <rect class="st0" x="24.3" y="10.7" width="316" height="174.3"/>
    </clipPath>
    <clipPath id="clippath-36">
      <rect class="st0" x="24.3" y="10.7" width="316" height="174.3"/>
    </clipPath>
    <clipPath id="clippath-37">
      <rect class="st0" x="24.3" y="10.7" width="316" height="174.3"/>
    </clipPath>
    <clipPath id="clippath-38">
      <rect class="st0" x="24.3" y="10.7" width="316" height="174.3"/>
    </clipPath>
    <clipPath id="clippath-39">
      <rect class="st0" x="24.3" y="10.7" width="316" height="174.3"/>
    </clipPath>
    <clipPath id="clippath-40">
      <rect class="st0" x="24.3" y="10.7" width="316" height="174.3"/>
    </clipPath>
    <clipPath id="clippath-41">
      <rect class="st0" x="24.3" y="10.7" width="316" height="174.3"/>
    </clipPath>
    <clipPath id="clippath-42">
      <rect class="st0" x="24.3" y="10.7" width="316" height="174.3"/>
    </clipPath>
    <clipPath id="clippath-43">
      <rect class="st0" x="24.3" y="10.7" width="316" height="174.3"/>
    </clipPath>
    <clipPath id="clippath-44">
      <rect class="st0" x="24.3" y="10.7" width="316" height="174.3"/>
    </clipPath>
    <clipPath id="clippath-45">
      <rect class="st0" x="24.3" y="10.7" width="316" height="174.3"/>
    </clipPath>
    <clipPath id="clippath-46">
      <rect class="st0" x="24.3" y="10.7" width="316" height="174.3"/>
    </clipPath>
    <clipPath id="clippath-47">
      <rect class="st0" x="24.3" y="10.7" width="316" height="174.3"/>
    </clipPath>
    <clipPath id="clippath-48">
      <rect class="st0" x="24.3" y="10.7" width="316" height="174.3"/>
    </clipPath>
    <clipPath id="clippath-49">
      <rect class="st0" x="24.3" y="10.7" width="316" height="174.3"/>
    </clipPath>
    <clipPath id="clippath-50">
      <rect class="st0" x="24.3" y="10.7" width="316" height="174.3"/>
    </clipPath>
    <clipPath id="clippath-51">
      <rect class="st0" x="24.3" y="10.7" width="316" height="174.3"/>
    </clipPath>
    <clipPath id="clippath-52">
      <rect class="st0" x="24.3" y="10.7" width="316" height="174.3"/>
    </clipPath>
    <clipPath id="clippath-53">
      <rect class="st0" x="24.3" y="10.7" width="316" height="174.3"/>
    </clipPath>
    <clipPath id="clippath-54">
      <rect class="st0" x="24.3" y="10.7" width="316" height="174.3"/>
    </clipPath>
    <clipPath id="clippath-55">
      <rect class="st0" x="24.3" y="10.7" width="316" height="174.3"/>
    </clipPath>
    <clipPath id="clippath-56">
      <rect class="st0" x="24.3" y="10.7" width="316" height="174.3"/>
    </clipPath>
    <clipPath id="clippath-57">
      <rect class="st0" x="24.3" y="10.7" width="316" height="174.3"/>
    </clipPath>
    <clipPath id="clippath-58">
      <rect class="st0" x="24.3" y="10.7" width="316" height="174.3"/>
    </clipPath>
    <clipPath id="clippath-59">
      <rect class="st0" x="24.3" y="10.7" width="316" height="174.3"/>
    </clipPath>
    <clipPath id="clippath-60">
      <rect class="st0" x="24.3" y="10.7" width="316" height="174.3"/>
    </clipPath>
    <clipPath id="clippath-61">
      <rect class="st0" x="24.3" y="10.7" width="316" height="174.3"/>
    </clipPath>
    <clipPath id="clippath-62">
      <rect class="st0" x="24.3" y="10.7" width="316" height="174.3"/>
    </clipPath>
    <clipPath id="clippath-63">
      <rect class="st0" x="24.3" y="10.7" width="316" height="174.3"/>
    </clipPath>
    <clipPath id="clippath-64">
      <rect class="st0" x="24.3" y="10.7" width="316" height="174.3"/>
    </clipPath>
    <clipPath id="clippath-65">
      <rect class="st0" x="24.3" y="10.7" width="316" height="174.3"/>
    </clipPath>
    <clipPath id="clippath-66">
      <rect class="st0" x="24.3" y="10.7" width="316" height="174.3"/>
    </clipPath>
    <clipPath id="clippath-67">
      <rect class="st0" x="24.3" y="10.7" width="316" height="174.3"/>
    </clipPath>
    <clipPath id="clippath-68">
      <rect class="st0" x="24.3" y="10.7" width="316" height="174.3"/>
    </clipPath>
    <clipPath id="clippath-69">
      <rect class="st0" x="24.3" y="10.7" width="316" height="174.3"/>
    </clipPath>
    <clipPath id="clippath-70">
      <rect class="st0" x="24.3" y="10.7" width="316" height="174.3"/>
    </clipPath>
    <clipPath id="clippath-71">
      <rect class="st0" x="24.3" y="10.7" width="316" height="174.3"/>
    </clipPath>
    <clipPath id="clippath-72">
      <rect class="st0" x="24.3" y="10.7" width="316" height="174.3"/>
    </clipPath>
    <clipPath id="clippath-73">
      <rect class="st0" x="24.3" y="10.7" width="316" height="174.3"/>
    </clipPath>
    <clipPath id="clippath-74">
      <rect class="st0" x="24.3" y="10.7" width="316" height="174.3"/>
    </clipPath>
    <clipPath id="clippath-75">
      <rect class="st0" x="24.3" y="10.7" width="316" height="174.3"/>
    </clipPath>
    <clipPath id="clippath-76">
      <rect class="st0" x="24.3" y="10.7" width="316" height="174.3"/>
    </clipPath>
    <clipPath id="clippath-77">
      <rect class="st0" x="24.3" y="10.7" width="316" height="174.3"/>
    </clipPath>
    <clipPath id="clippath-78">
      <rect class="st0" x="24.3" y="10.7" width="316" height="174.3"/>
    </clipPath>
    <clipPath id="clippath-79">
      <rect class="st0" x="24.3" y="10.7" width="316" height="174.3"/>
    </clipPath>
    <clipPath id="clippath-80">
      <rect class="st0" x="24.3" y="10.7" width="316" height="174.3"/>
    </clipPath>
    <clipPath id="clippath-81">
      <rect class="st0" x="24.3" y="10.7" width="316" height="174.3"/>
    </clipPath>
    <clipPath id="clippath-82">
      <rect class="st0" x="24.3" y="10.7" width="316" height="174.3"/>
    </clipPath>
    <clipPath id="clippath-83">
      <rect class="st0" x="24.3" y="10.7" width="316" height="174.3"/>
    </clipPath>
    <clipPath id="clippath-84">
      <rect class="st0" x="24.3" y="10.7" width="316" height="174.3"/>
    </clipPath>
    <clipPath id="clippath-85">
      <rect class="st0" x="24.3" y="10.7" width="316" height="174.3"/>
    </clipPath>
    <clipPath id="clippath-86">
      <rect class="st0" x="24.3" y="10.7" width="316" height="174.3"/>
    </clipPath>
    <clipPath id="clippath-87">
      <rect class="st0" x="24.3" y="10.7" width="316" height="174.3"/>
    </clipPath>
    <clipPath id="clippath-88">
      <rect class="st0" x="24.3" y="10.7" width="316" height="174.3"/>
    </clipPath>
    <clipPath id="clippath-89">
      <rect class="st0" x="24.3" y="10.7" width="316" height="174.3"/>
    </clipPath>
    <clipPath id="clippath-90">
      <rect class="st0" x="24.3" y="10.7" width="316" height="174.3"/>
    </clipPath>
    <clipPath id="clippath-91">
      <rect class="st0" x="24.3" y="10.7" width="316" height="174.3"/>
    </clipPath>
    <clipPath id="clippath-92">
      <rect class="st0" x="24.3" y="10.7" width="316" height="174.3"/>
    </clipPath>
    <clipPath id="clippath-93">
      <rect class="st0" x="24.3" y="10.7" width="316" height="174.3"/>
    </clipPath>
    <clipPath id="clippath-94">
      <rect class="st0" x="24.3" y="10.7" width="316" height="174.3"/>
    </clipPath>
    <clipPath id="clippath-95">
      <rect class="st0" x="24.3" y="10.7" width="316" height="174.3"/>
    </clipPath>
    <clipPath id="clippath-96">
      <rect class="st0" x="24.3" y="10.7" width="316" height="174.3"/>
    </clipPath>
    <clipPath id="clippath-97">
      <rect class="st0" x="24.3" y="10.7" width="316" height="174.3"/>
    </clipPath>
    <clipPath id="clippath-98">
      <rect class="st0" x="24.3" y="10.7" width="316" height="174.3"/>
    </clipPath>
    <clipPath id="clippath-99">
      <rect class="st0" x="24.3" y="10.7" width="316" height="174.3"/>
    </clipPath>
    <clipPath id="clippath-100">
      <rect class="st0" x="24.3" y="10.7" width="316" height="174.3"/>
    </clipPath>
    <clipPath id="clippath-101">
      <rect class="st0" x="24.3" y="10.7" width="316" height="174.3"/>
    </clipPath>
    <clipPath id="clippath-102">
      <rect class="st0" x="24.3" y="10.7" width="316" height="174.3"/>
    </clipPath>
    <clipPath id="clippath-103">
      <rect class="st0" x="24.3" y="10.7" width="316" height="174.3"/>
    </clipPath>
    <clipPath id="clippath-104">
      <rect class="st0" x="24.3" y="10.7" width="316" height="174.3"/>
    </clipPath>
    <clipPath id="clippath-105">
      <rect class="st0" x="24.3" y="10.7" width="316" height="174.3"/>
    </clipPath>
    <clipPath id="clippath-106">
      <rect class="st0" x="24.3" y="10.7" width="316" height="174.3"/>
    </clipPath>
    <clipPath id="clippath-107">
      <rect class="st0" x="24.3" y="10.7" width="316" height="174.3"/>
    </clipPath>
    <clipPath id="clippath-108">
      <rect class="st0" x="24.3" y="10.7" width="316" height="174.3"/>
    </clipPath>
    <clipPath id="clippath-109">
      <rect class="st0" x="24.3" y="10.7" width="316" height="174.3"/>
    </clipPath>
    <clipPath id="clippath-110">
      <rect class="st0" x="24.3" y="10.7" width="316" height="174.3"/>
    </clipPath>
    <clipPath id="clippath-111">
      <rect class="st0" x="24.3" y="10.7" width="316" height="174.3"/>
    </clipPath>
    <clipPath id="clippath-112">
      <rect class="st0" x="24.3" y="10.7" width="316" height="174.3"/>
    </clipPath>
    <clipPath id="clippath-113">
      <rect class="st0" x="17.7" y="210.1" width="329.3" height="56.8"/>
    </clipPath>
    <clipPath id="clippath-114">
      <rect class="st0" x="17.7" y="210.1" width="329.3" height="56.8"/>
    </clipPath>
    <clipPath id="clippath-115">
      <rect class="st0" x="17.7" y="210.1" width="329.3" height="56.8"/>
    </clipPath>
    <clipPath id="clippath-116">
      <rect class="st0" x="17.7" y="210.1" width="329.3" height="56.8"/>
    </clipPath>
    <clipPath id="clippath-117">
      <rect class="st0" x="17.7" y="210.1" width="329.3" height="56.8"/>
    </clipPath>
    <clipPath id="clippath-118">
      <rect class="st0" x="17.7" y="210.1" width="329.3" height="56.8"/>
    </clipPath>
    <clipPath id="clippath-119">
      <rect class="st0" x="17.7" y="210.1" width="329.3" height="56.8"/>
    </clipPath>
    <clipPath id="clippath-120">
      <rect class="st0" x="17.7" y="210.1" width="329.3" height="56.8"/>
    </clipPath>
    <clipPath id="clippath-121">
      <rect class="st0" x="17.7" y="210.1" width="329.3" height="56.8"/>
    </clipPath>
    <clipPath id="clippath-122">
      <rect class="st0" x="17.7" y="210.1" width="329.3" height="56.8"/>
    </clipPath>
    <clipPath id="clippath-123">
      <rect class="st0" x="17.7" y="210.1" width="329.3" height="56.8"/>
    </clipPath>
    <clipPath id="clippath-124">
      <rect class="st0" x="17.7" y="210.1" width="329.3" height="56.8"/>
    </clipPath>
    <clipPath id="clippath-125">
      <rect class="st0" x="17.7" y="210.1" width="329.3" height="56.8"/>
    </clipPath>
    <clipPath id="clippath-126">
      <rect class="st0" x="17.7" y="210.1" width="329.3" height="56.8"/>
    </clipPath>
  </defs>
  <g id="Layer_2-2">
    <rect class="st128" width="360" height="277.7"/>
  </g>
  <g id="Layer_1-2">
    <g>
      <g class="st130">
        <path id="flat_bottom_ground" class="st129" d="M-82.5,191c34.3-5.3,107.1-9.4,233.4-12.2,202.2-4.5,363.1,32.5,500.7,32.2,64.4-.1,174.2-14.8,205.8-23.2v56.5H-82.5c0,.1,0-44.3,0-53.3Z"/>
      </g>
      <g>
        <g>
          <g class="st92">
            <path class="st129" d="M193,74.6c.7-1.7,1.8-4,3.7-6.5,3-4,7.3-9.7,20.2-12.8,14-3.4,23.2-5.8,37.2-9,3.1-.7,5.4-1.3,7.5-1.9,3.1.8,12.1,0,18.7,2.8,3.6,1.5,11.5,5.1,12.3,4,1.9-2.6-14.3-9.8-23-9.9h.2c1.2-.7,2.2-1.3,3.6-1.9,6.5-3.2,11-11.8,0-6.5-1.3.7-9.2,3.8-13.3,4.9-9.4,2.6-17.1,3.9-25,5.6-1.2-.6.9-3.4,2-4.6,7.6-7.6,3.1-9.6-4.5-.4-1.8,2.1-2.6,4.7-3.8,6-4.5.9-7.9,2-13,3.4-1.2.4-2.2.6-3.3.9-1.7-4,13.5-14.4,9.9-18-1.1-1.1-5.7,4.1-7.3,5.9-2.8,3.2-4.7,4.3-7.1,7.6-1.8,2.5-2.5,4.7-5.3,8.1-8.3,3.8-12.6,8.1-15.3,12.9-4.9-7.9-3.6-11.4.4-17.3,7.9-11.8,1.4-10.9-6.6,0-3.3,4.4-3.4,9.6-1.2,18.9.2.9-1.4,3.6-4.5,5.1-1.2.6-4,1.8-5.4,2.4-3.8,1.7-5,5.8,6.3,2,3.1-.9,4.4-3.7,6.6-3.2v-1.2c.4.6.8,2.2,1.2,2.8-.4,1.4-.7,1.7-1.1,3.2-.9,4-1.9,8.4-5.4,17.2-4.7-5.1-10.3-9.5-16.2-13.3-.5-1.5.2-5.6.8-8.4,1.3-1.5,5.6,0,10.7-4.5,2.7-1.7,6-8.5,2.2-6,0,0-3.8,2.4-5.3,3.6-1.8,1.4-4.4,2.8-5.7,2.2h0c2.5-4,6.4-8.3,6.7-14,1.1-22.1-3.2-29.6-5-.9-.2,3.1-1.1,4.7-2.2,6.4h0c-5.2-3.2-7.7-5.2-9.7-5.9-9-3.7-14-3.6-11.5-.9,2.6,2.6,4.9,2.2,12.8,7.1,1.3.8,3.1,1.7,3.6,4-2,2-4.3,5.8-4.5,8.3-4.5-10.5-11.1-12.9-18.6-15.9-.2-6.9-.1-6.6,1.2-10.3,3-8.8,5.3-11.7,4-11.6-3.7.4-6.2,9.2-7.5,12.1,0,0-.1.2-.1.4-3.9-.7-19.7-16.3-18.6-11.6,1.5,6.9,16.5,14.2,15.9,17.1h0c-.4.7-.6,1.1-1.1,2-4.4-1.2-8.9-1.9-13.5-2.6-4.3-.4-8.3-.5-12.1-.2-2.7-7.3-8.6-9.8-11.6-11-2.6-1.1-9.6-2.5-9.5-1.4.2,2.4,17.6,7.7,14.6,12.9-3.7.4-7,.7-9.9,1.1-3.1.4-8.4.4-11.8-.8-6-2-7.7-1.7-5.7,2,3.9,7,33.6,2.2,46.1,5.1,9.2,2.1,19.7,7.9,24.3,12.3-13.5-4.6-27.2-6.5-37.9-5.7-5.7.5-14.8,3.4-22.3,5.7-1.5-2.6,1.7-4.7,2.2-5.8,1.7-3,1.5-4,1.7-4.5.4-3.8-3.3.6-4.5,2.5-1.5,2.5-2.2,3.4-5.1,5.9-2.4-1.5-11.2-1.1-16.2-8.3-.7-.9-4.3-5.9-5.4-5.2-1.7.7,1.9,7.9,2.7,9.2,1.1,1.7,4.5,5.6,7.3,6.5,1.7.6,5.3.8,7.3,2.4-6.3,1.3-11.8,2-19.7,2.4-6.9,0-8.5,4.1-1.5,6,12.8,2.1,23.2.9,34.6-1.2-2.1,4-2.1,4.1-5.4,7.3-.7.6-1.4,1.2-2.1,1.8h0c-7.3-5.1-21.7,5.2-30.2,0-10.9-6.9-1.8,4.5,3.8,5.1,9.9,1.2,17.1-3.1,19.7.7-2.6,2.1-5.4,4-8.8,6.9-6.9,6.2-16.2,16.6-14.4,17.3,2.4.9,23.3-16.2,29.5-20.7,6.5-4.7,5.8-5,12.1-9.7,3.9-3,7.8-6.2,15.2-12.1h0c4.1-.2,8.4,0,12.7.6,0,.6-1.1,2.1-1.5,2.7-1.3,1.3-5.9,3.8-7.5,4.5-16,7.3-14.3,10.7-1.1,6.2,12.6-4.3,12.6-5.3,21-11.5,3.1.7,6,1.5,8.6,2.5,13.9,4.6,25.8,19.2,30,31.7,5.7,16.8,7.8,32.1,5.9,47.4-1.5,7.6-4,15.3-7.2,22.5,8.5.1,32.8,0,41.4.1-9.2-22.1-14.1-46.7-3.6-68.1,6.9-12.6,21.4-22.6,33.9-27.6,2.4-.8,4.6-1.7,6.7-2.5,10.8,0,19.3-4.9,32.1.8,5.7,2.7,7.5-.6.8-4.4-5.1-2.8-11.4-2.5-16.9-2.6,4.6-1.7,9.1-3,13.9-3.9h0c9.6.8,6.5,2.5,11.7,6.7.1.8,0,4.5,0,7.7-.1,6,3.9,9,4,4,0-2.8-.6-8.2-.1-8.8.7.4,1.3.7,2,1.2,1.4.7,3,1.5,4.7,2.1,2,1.3,1.2,9.5,8.5,15.4,14.1,11.4,22.5,6.9,7.3-.7-5.9-3-8.5-10.4-8.6-12.1,5.6,1.9,11.4,3.9,14.3,5.2,9,4.3,14.7,1.1.9-5.3-15.4-7-27.8-11.7-30.8-16.7,7.7.8,12.1.5,20.5,3.1,13.9,4.3,23.2.2,3.8-6.2-28.5-9.5-43.2-6-75.7,4.3-5.3,1.7-14.2,7-19.3,9.4-1.8-4.1,22.4-13.6,31.1-16.7,7.9-2.7,21.6-4.7,30.4-9.2h0c2.5-.2,2.6.7,6.6,1.1,5.1.4,5.7.4,12-.5,9.6-.8,13.7-6.2-1.3-4.1-4.4.6-12.2.8-11.1,0,11.7-9.6-6.2-5.2-30.1,3.9h0c0-3,3.6-4.1,9.7-7.6,7.3-4,4.7-9.5-11.2,1.7-3.6,2.5-4.5,6.4-5.6,7.9-1.1.2-2,.5-3,.7-8.8,1.9-17.8,5.2-25.1,9.9-.6-1.4-.6-4.3.6-6.7,1.7-3.2,4-3.6,7-6.6,6.9-7-3.8-2.2-8.1,1.9-3.2,3.1-3.7,6-4.5,8.3-2-.6-3.6-3-5.6-4.6-2-1.7-5.9-1.1-.7,4.3,2.8,2.8,3.8,5.1,4.1,6.7-.1.6.1,1.3,0,2-3.4,3.2-6.3,7-8.1,11.2h0c-3-3.1-5.7-8.7-9.6-15.3h0c-1.7,3.8-2,6-2.6,8.5,2.1,5.8,5,13.4,5,13.4l-3.6,2.4s-4.1-4-1.3-15.6c.3-2,1-5.1,2.5-8.7"/>
          </g>
          <g class="st95">
            <path class="st129" d="M231.5,155.1c0-4.6.5-8.8,1.3-12.4.8-3.7,2-6.7,3.6-9.4,1.5-2.6,3.2-4.5,5.1-5.9,1.9-1.4,3.9-2,5.9-2s4.4.7,6.3,2c1.8,1.3,3.3,3.3,4.5,5.7,1.2,2.5,2.1,5.3,2.7,8.6s.9,6.9.9,10.8,0,3-.1,4.1c-.1,1.3-.1,2.2-.2,3h-20.6c.5,4.4,1.5,7.5,3.1,9.5,1.7,1.9,3.6,3,5.8,3s2.7-.4,4-.9c1.3-.7,2.6-1.7,3.9-3l3,10.1c-1.8,2-3.7,3.7-5.8,4.9-2.1,1.2-4.3,1.8-6.3,1.8s-4.6-.7-6.6-2-3.9-3.3-5.3-5.8c-1.5-2.6-2.7-5.7-3.7-9.4-1.2-3.8-1.5-8-1.5-12.7M253.6,149.3c0-3.3-.5-5.9-1.4-8.1-.9-2-2.5-3.1-4.6-3.1s-3.1.9-4.4,2.7c-1.3,1.8-2.1,4.6-2.5,8.4h12.9Z"/>
          </g>
          <g class="st93">
            <path class="st129" d="M263.8,155.1c0-4.6.5-8.8,1.3-12.4.8-3.7,2-6.7,3.6-9.4s3.2-4.5,5.1-5.9,3.9-2,5.9-2,4.4.7,6.3,2c1.8,1.3,3.3,3.3,4.5,5.7,1.2,2.5,2.1,5.3,2.7,8.6s.9,6.9.9,10.8,0,3-.1,4.1c-.1,1.3-.1,2.2-.2,3h-20.6c.5,4.4,1.5,7.5,3.1,9.5,1.7,1.9,3.6,3,5.8,3s2.7-.4,4-.9c1.3-.7,2.6-1.7,3.9-3l3,10.1c-1.8,2-3.7,3.7-5.8,4.9s-4.3,1.8-6.3,1.8-4.6-.7-6.6-2-3.9-3.3-5.3-5.8c-1.5-2.6-2.7-5.7-3.7-9.4-1.2-3.8-1.5-8-1.5-12.7M285.9,149.3c0-3.3-.5-5.9-1.4-8.1-.9-2-2.5-3.1-4.6-3.1s-3.1.9-4.4,2.7-2.1,4.6-2.5,8.4h12.9Z"/>
          </g>
          <g class="st94">
            <path class="st129" d="M300,165.6c1.8,2,3.6,3.7,5.3,4.9s3.7,1.8,5.8,1.8,3.6-.4,4.5-1.3c.9-.8,1.3-2,1.3-3.6s-.7-3.2-2.2-4.3-3.6-2.2-5.9-3.6c-1.3-.7-2.7-1.5-4-2.5-1.3-.9-2.5-2.1-3.6-3.4-1.1-1.3-1.9-2.8-2.5-4.6s-.9-3.8-.9-6,.4-5,.9-7.2c.7-2.2,1.7-4,2.8-5.6,1.2-1.5,2.7-2.7,4.5-3.6,1.8-.8,3.7-1.3,5.9-1.3s5.2.8,7.5,2.5c2.2,1.7,4.1,3.4,5.8,5.3l-4,10.1c-1.4-1.5-2.8-2.8-4.3-3.8-1.5-1.1-3.1-1.5-4.6-1.5s-3.3.4-4.1,1.2c-.8.7-1.2,1.9-1.2,3.3s.2,1.7.6,2.2c.4.7.9,1.3,1.7,1.8.7.6,1.5,1.1,2.5,1.5.9.5,2,1.1,3.1,1.5,1.5.7,3,1.7,4.3,2.6,1.3.9,2.6,2.1,3.6,3.4,1.1,1.3,1.9,2.8,2.5,4.7.6,1.8.9,3.9.9,6.4s-.4,5-.9,7.2c-.7,2.2-1.7,4.1-2.8,5.8-1.3,1.7-2.8,3-4.7,3.9-1.9.9-4,1.4-6.5,1.4s-5.4-.8-8.1-2.5c-2.6-1.7-5-3.8-6.9-6.2l3.7-10.5h0Z"/>
          </g>
          <g class="st100">
            <path class="st129" d="M206.1,128.2h7.5l.7,12.3h.2c1.5-4.6,3.3-8.1,5.6-10.3,2.1-2.2,4.5-3.4,6.9-3.4s2.5.2,3.3.6,1.8.9,2.6,1.8l-1.9,14.1c-.9-.6-1.8-.9-2.6-1.2-.7-.2-1.8-.4-2.8-.4-1.9,0-3.8,1.1-5.6,3.1-1.9,2-3.4,5.7-4.7,10.8v29.5h-9.1v-56.9h-.1,0Z"/>
          </g>
          <g class="st97">
            <path class="st1" d="M55.8,185c-.5-.1-.9-.4-1.4-.6-2.4-1.1-4.3-2.7-5.8-4.7s-2.7-4.5-3.4-7.3-1.1-6.2-1.1-9.7v-35.4h13.3v37.2c0,2.5.4,4.5,1.2,6.2s2.2,2.4,4.4,2.4,3.7-.8,4.5-2.4c.8-1.7,1.2-3.7,1.2-6.2v-37.2h12.8v35.4c0,3.7-.4,6.9-1.1,9.7s-1.8,5.3-3.2,7.3c-1.5,2-3.4,3.7-5.7,4.7-.5.2-.8.4-1.3.6h-14.4Z"/>
          </g>
          <g class="st96">
            <path class="st1" d="M84.4,127.2h13.4l8.4,25.8,4,12.9h.4c0-1.5-.4-3.2-.6-5.1s-.4-3.7-.6-5.7c-.2-1.9-.4-3.9-.5-5.8,0-1.9-.2-3.8-.2-5.6v-16.7h12.6v57.9h-13.3l-8.4-25.9-4-12.9h-.4c.4,3.3.7,6.9,1.2,10.9.5,3.9.7,7.7.7,11.2v16.7h-12.7v-57.7h0Z"/>
          </g>
          <g class="st99">
            <path class="st1" d="M125.8,127.2h16.5c2.6,0,5.1.2,7.3.7s4.3,1.2,5.9,2.2c1.7,1.1,3,2.5,4,4.4.9,1.9,1.4,4.3,1.4,7.1s-.1,2.5-.5,3.8-.8,2.5-1.5,3.7-1.5,2.1-2.6,3.1c-1.1.9-2.4,1.5-3.8,2v.4c3.6.8,6.2,2.4,7.9,4.5,1.8,2.1,2.6,5.2,2.6,9s-.5,5.6-1.5,7.7c-.9,2.1-2.4,3.9-4.1,5.3s-3.8,2.4-6.2,3.1c-2.4.7-4.9.9-7.6.9h-17.9v-57.9h.1ZM141.9,150c2.1,0,3.7-.6,4.7-1.7.9-1.1,1.4-2.6,1.4-4.4s-.5-3.1-1.4-3.8c-.9-.8-2.5-1.2-4.7-1.2h-3v11h3q0,.1,0,0ZM142.9,173.3c2.6,0,4.5-.6,5.7-1.7s1.8-2.7,1.8-4.9-.6-3.7-1.8-4.6c-1.2-.9-3.1-1.4-5.7-1.4h-3.8v12.7h3.8Z"/>
          </g>
          <g class="st98">
            <path class="st1" d="M163.2,56.9s12.1,8.3,5.4,12.7c-6.9,2.6-5.4-12.7-5.4-12.7"/>
          </g>
          <g class="st7">
            <path class="st1" d="M105.3,67.4c-9.9,1.1-9-17.1-9-17.1,0,0,18.6,7.9,9,17.1"/>
          </g>
          <g class="st4">
            <path class="st1" d="M91.2,80s4.7,14.6,13.6,9.1c3.9-11.6-13.6-9.1-13.6-9.1"/>
          </g>
          <g class="st11">
            <path class="st1" d="M134.4,20.8s9.7,10.8,3.2,16.7c-12.7-1.7-3.2-16.7-3.2-16.7"/>
          </g>
          <g class="st9">
            <path class="st1" d="M103,30.6s1.3,17.6-6.9,14.4c-4.9-8.2,6.9-14.4,6.9-14.4"/>
          </g>
          <g class="st10">
            <path class="st1" d="M209.3,73.7s-16.2-3.4-14.1,7.9c8.1,4.7,14.1-7.9,14.1-7.9"/>
          </g>
          <g class="st8">
            <path class="st1" d="M199,61.2s-15.2-3.9-13.6,4.3c5.4,7,13.6-4.3,13.6-4.3"/>
          </g>
          <g class="st5">
            <path class="st1" d="M313,49.4s-5,11.2-11.2,8.1c-5.9-6.7,11.2-8.1,11.2-8.1"/>
          </g>
          <g class="st2">
            <path class="st1" d="M275.3,63.7s-16.3-4.5-11.1-12.8c8.7-4.2,11.1,12.8,11.1,12.8"/>
          </g>
          <g class="st6">
            <path class="st1" d="M311.5,54.9s-11.8,12.4-.7,18.6c10.2-2,.7-18.6.7-18.6"/>
          </g>
          <g class="st3">
            <path class="st1" d="M155.8,74.7s10.3-5.7,12.9,1.9c-3.7,6.7-12.9-1.9-12.9-1.9"/>
          </g>
          <g class="st55">
            <path class="st1" d="M212.1,70.6s1.1,14.9,11.1,12.1c7.5-9.2-11.1-12.1-11.1-12.1"/>
          </g>
          <g class="st56">
            <path class="st1" d="M289.9,62.5s1.4-11.1-4.7-10.1c-5.8,4.2,4.7,10.1,4.7,10.1"/>
          </g>
          <g class="st57">
            <path class="st1" d="M283,57.7s4.3,9.7-1.9,10.7c-7.5-2,1.9-10.7,1.9-10.7"/>
          </g>
          <g class="st58">
            <path class="st1" d="M122,42s12-10.1,14.6-1.5c-1.3,8.6-14.6,1.5-14.6,1.5"/>
          </g>
          <g class="st59">
            <path class="st1" d="M334.1,111.5s-2.1-14.1-12-12.9c-8.2,8.6,12,12.9,12,12.9"/>
          </g>
          <g class="st60">
            <path class="st1" d="M122.3,53.1s-15.5,3.9-10.9,13.6c11.1,2.2,10.9-13.6,10.9-13.6"/>
          </g>
          <g class="st53">
            <path class="st1" d="M231.9,71.7s-15.3,1.1-13-8.6c6.9-6.8,13,8.6,13,8.6"/>
          </g>
          <g class="st51">
            <path class="st1" d="M51.3,95.7s11.4-2.8,9.8-12.1c-10.1-5.7-9.8,12.1-9.8,12.1"/>
          </g>
          <g class="st54">
            <path class="st1" d="M183.8,49s13,2.4,10.9,8.9c-10.1,6.5-10.9-8.9-10.9-8.9"/>
          </g>
          <g class="st52">
            <path class="st1" d="M249.4,20.4s19.9,9.7,13.3,19.8c-16.3,4-13.3-19.8-13.3-19.8"/>
          </g>
          <g class="st47">
            <path class="st1" d="M77.9,113.9s-16.7,3-16-6.2c6.7-7.3,16,6.2,16,6.2"/>
          </g>
          <g class="st41">
            <path class="st1" d="M195.3,27.2s18-.2,17.1,14.1c-13.3,8.7-17.1-14.1-17.1-14.1"/>
          </g>
          <g class="st42">
            <path class="st1" d="M240.1,47.2s-15,.9-15,10.1c6.4,8.1,15-10.1,15-10.1"/>
          </g>
          <g class="st43">
            <path class="st1" d="M236.2,45.1s-10.8-14.4-18.8-7.7c-4.8,11,18.8,7.7,18.8,7.7"/>
          </g>
          <g class="st44">
            <path class="st1" d="M289.7,118.8s-6.2-21.7,8.9-21.3c10.8,8.2-8.9,21.3-8.9,21.3"/>
          </g>
          <g class="st45">
            <path class="st1" d="M212.5,44.4s17.5,6,9.6,14.9c-9.2,3.9-9.6-14.9-9.6-14.9"/>
          </g>
          <g class="st48">
            <path class="st1" d="M237.1,19.7s-3.1,20.6-15.3,12.6c-4.3-9,15.3-12.6,15.3-12.6"/>
          </g>
          <g class="st49">
            <path class="st1" d="M166.1,51.9s11.6-7,14.4-.9c-.6,9.9-14.4.9-14.4.9"/>
          </g>
          <g class="st50">
            <path class="st1" d="M176.9,90.3s3.7-16.1-5.9-14.2c-8.7,5.4,5.9,14.2,5.9,14.2"/>
          </g>
          <g class="st46">
            <path class="st1" d="M337.4,119.6s-14-17.9-21.3-9c-3.2,14,21.3,9,21.3,9"/>
          </g>
          <g class="st68">
            <path class="st1" d="M302.9,88.1s-16.7-3.9-16.7,6c6.8,8.3,16.7-6,16.7-6"/>
          </g>
          <g class="st62">
            <path class="st1" d="M93.7,25.4s5.3,12.7-3.7,15.7c-7.9-4.6,3.7-15.7,3.7-15.7"/>
          </g>
          <g class="st63">
            <path class="st1" d="M65.8,86.3s9.9,10.7,17.3,2.8c1-11.3-17.3-2.8-17.3-2.8"/>
          </g>
          <g class="st64">
            <path class="st1" d="M186,77.5s-17.6-.4-14.3-8.8c8.1-7.3,14.3,8.8,14.3,8.8"/>
          </g>
          <g class="st65">
            <path class="st1" d="M262,54.9s5,13.1-7,16.5c-10.4-6.9,7-16.5,7-16.5"/>
          </g>
          <g class="st66">
            <path class="st1" d="M26.5,82.7s17.6,7.6,18.2-3c-7.4-10.5-18.2,3-18.2,3"/>
          </g>
          <g class="st69">
            <path class="st1" d="M209,52.4s5.6,11.4-2,13.4c-8.3-3.8,2-13.4,2-13.4"/>
          </g>
          <g class="st70">
            <path class="st1" d="M331.7,61.2s-20.6,5.1-16.1,14c11.4,6.3,16.1-14,16.1-14"/>
          </g>
          <g class="st71">
            <path class="st1" d="M47.3,68.2s11.8-5.9,15.5,1.5c-2.9,10.3-15.5-1.5-15.5-1.5"/>
          </g>
          <g class="st67">
            <path class="st1" d="M210.8,15s-6,21.8,6.2,20.7c10.4-6.3-6.2-20.7-6.2-20.7"/>
          </g>
          <g class="st25">
            <path class="st1" d="M186.5,42.8s-12.3,9.8-18.1,2.5c1.6-11.8,18.1-2.5,18.1-2.5"/>
          </g>
          <g class="st38">
            <path class="st1" d="M109.4,41.4s-12.8,2.8-8.1,8.4c7,3.8,8.1-8.4,8.1-8.4"/>
          </g>
          <g class="st27">
            <path class="st1" d="M186.6,20.9s11.5,14,2.2,20.8c-12.5.5-2.2-20.8-2.2-20.8"/>
          </g>
          <g class="st31">
            <path class="st1" d="M155.8,31s14.7,3.2,10.9,14.1c-14.9,2-10.9-14.1-10.9-14.1"/>
          </g>
          <g class="st29">
            <path class="st1" d="M49.1,96.7s13.6,0,13.4,8.8c-8.1,7.1-13.4-8.8-13.4-8.8"/>
          </g>
          <g class="st26">
            <path class="st1" d="M101.3,23.3s4,18.6,14.1,12.7c8.9-9.8-14.1-12.7-14.1-12.7"/>
          </g>
          <g class="st30">
            <path class="st1" d="M302.9,69.9s2.4-12.2-4.7-10.8c-7.1,4.6,4.7,10.8,4.7,10.8"/>
          </g>
          <g class="st28">
            <path class="st1" d="M75.9,50.4s10.1,9.7,3.8,13.7c-8.8.5-3.8-13.7-3.8-13.7"/>
          </g>
          <g class="st39">
            <path class="st1" d="M52.3,81.7s-9.7,2.2-8.4,9.2c7.4,4.8,8.4-9.2,8.4-9.2"/>
          </g>
          <g class="st40">
            <path class="st1" d="M47.7,115.3c9.5,7.3-8.6,19.8-8.6,19.8,0,0-4.2-21.4,8.6-19.8"/>
          </g>
          <g class="st15">
            <path class="st1" d="M209.5,49.3s-20.5,7.6-22.1-4.5c5.6-11.7,22.1,4.5,22.1,4.5"/>
          </g>
          <g class="st12">
            <path class="st1" d="M154.2,39.4s.6,12.2-8.3,13.7c-9.8-7,8.3-13.7,8.3-13.7"/>
          </g>
          <g class="st17">
            <path class="st1" d="M241.9,46.1s17.1,10.9,7.3,16.9c-9.7,2.1-7.3-16.9-7.3-16.9"/>
          </g>
          <g class="st20">
            <path class="st1" d="M98.5,65.9s-9-12.3-16-4.3c-.7,10.9,16,4.3,16,4.3"/>
          </g>
          <g class="st18">
            <path class="st1" d="M246.4,15.3s-15.3,11.8-6.7,17.9c12.9,2.8,6.7-17.9,6.7-17.9"/>
          </g>
          <g class="st16">
            <path class="st1" d="M232.2,63.1s4.6,15.2,13.5,11c5.1-8.1-13.5-11-13.5-11"/>
          </g>
          <g class="st19">
            <path class="st1" d="M39,65.4s14.6,4.3,11,12.6c-10.6,3.9-11-12.6-11-12.6"/>
          </g>
          <g class="st13">
            <path class="st1" d="M308.1,130s14.3-16.6-.1-22.3c-12.8,4.3.1,22.3.1,22.3"/>
          </g>
          <g class="st14">
            <path class="st1" d="M82.8,55.8s-.6-14.2,9.6-13c7.4,8.4-9.6,13-9.6,13"/>
          </g>
          <g class="st61">
            <path class="st1" d="M86,111.1s-6.6-19.2-13.4-12.7c-6.5,9.7,13.4,12.7,13.4,12.7"/>
          </g>
          <g class="st32">
            <path class="st1" d="M291.8,32.4s-13.5,9.1-4.3,15.4c8.7,1.2,4.3-15.4,4.3-15.4"/>
          </g>
          <g class="st35">
            <path class="st1" d="M181.1,55.3s-1.3,13-7.1,10.1c-5.7-5.8,7.1-10.1,7.1-10.1"/>
          </g>
          <g class="st37">
            <path class="st1" d="M24.3,88.3s17.1-6.6,17.9,3c-6.4,9.7-17.9-3-17.9-3"/>
          </g>
          <g class="st36">
            <path class="st1" d="M134.1,66.3s2.5-13.9,13-12c4.7,10.7-13,12-13,12"/>
          </g>
          <g class="st34">
            <path class="st1" d="M292.6,16.9s-17.6,4.5-14.7,16c12.9,8.6,14.7-16,14.7-16"/>
          </g>
          <g class="st23">
            <path class="st1" d="M278,39.6s-3.8,13.7,5.2,13.3c7.7-4.9-5.2-13.3-5.2-13.3"/>
          </g>
          <g class="st21">
            <path class="st1" d="M170.3,19.5s-8.9,16.3-1.4,20c13.6-.8,1.4-20,1.4-20"/>
          </g>
          <g class="st33">
            <path class="st1" d="M128.7,48s12.6-4.7,14,4c-5,7.8-14-4-14-4"/>
          </g>
          <g class="st22">
            <path class="st1" d="M340.3,90.4s-22.1-5.4-18.7,6c6.4,6.6,18.7-6,18.7-6"/>
          </g>
          <g class="st24">
            <path class="st1" d="M310,93.9s-9-12.9.4-15c7.6,3-.4,15-.4,15"/>
          </g>
          <g class="st81">
            <path class="st1" d="M72.8,28.5s15.2,1.4,13.3,12.2c-9.8,7.6-13.3-12.2-13.3-12.2"/>
          </g>
          <g class="st83">
            <path class="st1" d="M239.3,97.4s.8-15.7,12.1-15c8,7.9-12.1,15-12.1,15"/>
          </g>
          <g class="st84">
            <path class="st1" d="M265.8,15.3s-7.5,17.6,5,20.2c12.9-6.8-5-20.2-5-20.2"/>
          </g>
          <g class="st85">
            <path class="st1" d="M80.4,98.9s9.6-14.3,17.2-7.3c2.1,13-17.2,7.3-17.2,7.3"/>
          </g>
          <g class="st86">
            <path class="st1" d="M31.9,58s18-10.5,21.8,2.8c-9.5,9.6-21.8-2.8-21.8-2.8"/>
          </g>
          <g class="st78">
            <path class="st1" d="M125.4,97.4s14.2-10.8,5-16.6c-10.4,0-5,16.6-5,16.6"/>
          </g>
          <g class="st79">
            <path class="st1" d="M304.7,106.2s16.2-2.2,12.8-11.2c-9.7-5.8-12.8,11.2-12.8,11.2"/>
          </g>
          <g class="st80">
            <path class="st1" d="M130.4,27.2s-1.7,14.4-11.1,12c-7.1-10.5,11.1-12,11.1-12"/>
          </g>
          <g class="st87">
            <path class="st1" d="M249.8,41.5s1.5,12.8,10.5,10.2c6.1-9.5-10.5-10.2-10.5-10.2"/>
          </g>
          <g class="st82">
            <path class="st1" d="M109.1,55.4s-1.7-17.4,11.2-14.2c5.9,8.1-11.2,14.2-11.2,14.2"/>
          </g>
          <g class="st72">
            <path class="st1" d="M62.2,86.3s-4.4,13.5,4.6,14c8.6-3.6-4.6-14-4.6-14"/>
          </g>
          <g class="st90">
            <path class="st1" d="M247.9,45.2s-13.5-2.5-9.7-9.8c7.8-5.3,9.7,9.8,9.7,9.8"/>
          </g>
          <g class="st88">
            <path class="st1" d="M277.4,37.6s-7.9,15.2-13.5,11.1c-6.8-9.7,13.5-11.1,13.5-11.1"/>
          </g>
          <g class="st74">
            <path class="st1" d="M36.4,111.1s16.2-9.4,9.7-17.6c-13.9-1.9-9.7,17.6-9.7,17.6"/>
          </g>
          <g class="st76">
            <path class="st1" d="M123,100.8s-16.8-5.4-13.1-12.2c10.6-6,13.1,12.2,13.1,12.2"/>
          </g>
          <g class="st73">
            <path class="st1" d="M194.5,69.7s7.3-7,11.5-3c.7,7.9-11.5,3-11.5,3"/>
          </g>
          <g class="st77">
            <path class="st1" d="M288.9,77.2s-6.7,13.7-14.8,7.6c-1.4-11.1,14.8-7.6,14.8-7.6"/>
          </g>
          <g class="st89">
            <path class="st1" d="M146.4,74.7s-1.3-18.9,8.6-16.3c9.5,6.3-8.6,16.3-8.6,16.3"/>
          </g>
          <g class="st91">
            <path class="st1" d="M166.9,47.1s-6.5,14.4-13.9,8.3c-5-9.9,13.9-8.3,13.9-8.3"/>
          </g>
          <g class="st75">
            <path class="st1" d="M271.5,107.7s4-17.4,14.7-12.8c4.9,8.5-14.7,12.8-14.7,12.8"/>
          </g>
          <g class="st108">
            <path class="st1" d="M258.7,98.7s-6.9-12.4,1.7-15c9.9,2-1.7,15-1.7,15"/>
          </g>
          <g class="st102">
            <path class="st1" d="M62.5,127.1s4.3-15.6-5.8-15.3c-8.1,6.3,5.8,15.3,5.8,15.3"/>
          </g>
          <g class="st101">
            <path class="st1" d="M60.1,36.4s6.5,18.4-4.7,22.9c-12.3-8.4,4.7-22.9,4.7-22.9"/>
          </g>
          <g class="st106">
            <path class="st1" d="M153.1,31s-16.5-.4-14.8,9.5c7.3,6.2,14.8-9.5,14.8-9.5"/>
          </g>
          <g class="st103">
            <path class="st1" d="M310.1,45.9s-10.4,11.5-18.9,4.6c-1.1-11.7,18.9-4.6,18.9-4.6"/>
          </g>
          <g class="st107">
            <path class="st1" d="M340.4,86.2s-13.7-14.1-22-7c-2.3,15.1,22,7,22,7"/>
          </g>
          <g class="st105">
            <path class="st1" d="M264.6,104s-3-18.7,8.9-17.6c9.8,8.8-8.9,17.6-8.9,17.6"/>
          </g>
          <g class="st110">
            <path class="st1" d="M65.3,71.9s12.3-12.3,5.7-17.5c-13.1-2.3-5.7,17.5-5.7,17.5"/>
          </g>
          <g class="st109">
            <path class="st1" d="M65.1,31.6s-7,19.9,7,21.3c13.1-7.7-7-21.3-7-21.3"/>
          </g>
          <g class="st104">
            <path class="st1" d="M107.9,111.1s5.6-15.6-4.4-20c-13.2,6.4,4.4,20,4.4,20"/>
          </g>
          <g class="st115">
            <path class="st1" d="M128.8,52.4s9.1,12.2-.6,16.8c-10.8-3.6.6-16.8.6-16.8"/>
          </g>
          <g class="st114">
            <path class="st1" d="M181.5,96.6s17.1-.7,11.5-12.4c-9.7-2.4-11.5,12.4-11.5,12.4"/>
          </g>
          <g class="st117">
            <path class="st1" d="M47.7,101.8s10.9,8.2,3.7,13.4c-9.1.6-3.7-13.4-3.7-13.4"/>
          </g>
        </g>
        <g id="Dark_Skyline">
          <g class="st116">
            <g>
              <g class="st112">
                <path class="st129" d="M40.9,233h0c0-.1,0,0,0,0h-.6.6,0v.5h0v-.5h.2c0,.1,0,0,0,0h0Z"/>
              </g>
              <g class="st119">
                <rect class="st129" x="40.9" y="233.7" width="0" height=".1"/>
              </g>
              <g class="st120">
                <polygon class="st129" points="41.3 233.6 41.3 233.6 41.3 233.7 41.3 233.7 41.4 233.7 41.3 233.6"/>
              </g>
              <g class="st118">
                <rect class="st129" x="41.5" y="233" width="0" height=".1"/>
              </g>
              <g class="st111">
                <polygon class="st129" points="41.5 232.8 41.6 232.6 41.6 232.6 41.5 232.6 41.5 232.8"/>
              </g>
              <g class="st113">
                <polygon class="st129" points="41.3 232.4 41.3 232.5 41.4 232.3 41.3 232.3 41.3 232.4"/>
              </g>
              <g class="st121">
                <rect class="st129" x="40.9" y="232.2" width="0" height=".1"/>
              </g>
              <g class="st124">
                <polygon class="st129" points="40.6 232.5 40.7 232.4 40.6 232.3 40.6 232.3 40.4 232.3 40.6 232.5"/>
              </g>
              <g class="st123">
                <polygon class="st129" points="40.2 232.6 40.3 232.8 40.3 232.6 40.2 232.6"/>
              </g>
              <g class="st125">
                <rect class="st129" x="40.1" y="233" width="0" height=".1"/>
              </g>
              <g class="st126">
                <polygon class="st129" points="40.2 233.3 40.2 233.5 40.3 233.3 40.3 233.3 40.2 233.3"/>
              </g>
              <g class="st122">
                <polygon class="st129" points="40.4 233.7 40.6 233.7 40.7 233.6 40.6 233.6 40.4 233.7"/>
              </g>
              <g class="st127">
                <path class="st129" d="M21.3,213.2h5.6v.5h.2v2.8h-.2v.4l1.8,1.1v1.9c0,.2-.1.2-.1.2-.1,0-.1.1-.1.1v.2c0,.1.1.1.1.1v.7c.2,1.3,1.5,1.7,1.5,1.7v1.8l-.4.2v.4l1.7,1.3h3v.6h.6v.9h.4v2s0,.2,0,.6,0,.2,0,.6v1.5h.4s.2,3.9,4.3,5.1v.4s0,.1,0,.1v1.2s-.2,0-.2.2.2.1.2.4,0,.9.9,1.1v.4c0,0-.2.1-.2.4s0,.2.2.4h0v.9h-.5s0,.1,0,.1h.4v.4c0,0,0,.1,0,.1v-.9h.4s0,0,0-.1,0,0,0,0h-.6v-.8h0c0-.1.2-.2.2-.5s0-.2-.2-.4v-.4c.9,0,.9-.8.9-1.1s.2-.1.2-.4,0-.1,0-.1v-1.2c0,0,0-.1,0-.1v-.4c4-1.2,4.3-5.1,4.3-5.1h.4v-1.5c0-.4,0-.2,0-.6s0-.6,0-.6v-1.9h.4v-1h.6v-.6h7.6v.2h.5v3.4l-.2.6v.4h-.2v.3l3.2,1.1v.4c0,0-.2.1-.2.4s0,.2.2.4h0v.9h-.7s0,.1,0,.1h.4v.4c0,0,0,.1,0,.1v-.3h0c0,.1.4.1.4.1,0,0,0,0,0-.1s0,0,0,0h-.4v-.8h0c0-.1.2-.2.2-.5s0-.2-.2-.4v-.4l3.2-1.1v-.2h-.2v-.5l-.2-.6v-3.4h.5v-.2l-.4-.5v-3.2h.5c0-.1,2.6-.1,2.6-.1.7.5,1.5.9,2.5,1.4v.6h0v8.1h.2v.5h.2v1.4s0,0,0,.1h0v.4h0s0,.1,0,.1,0,.4,0,.6c0,0-.2.2,0,.7h0c0-.1,0,1.3,0,1.3h.2v.2h0c0-.1,0-.2,0-.2h0v-.3h.2l.7,2.4v1.2s0,.1,0,.2h.2v1.2h0v.2h0s-.2,1.1.4,1.5v1.9h0c0,0-.4-.1-.5-.2s0-.1-.2-.1h0v.5c0,.1.2.2.4.5l.2.4v.2h0c0,.2,0,.2,0,.2s0,0,0-.1q0-.1,0-.1v-3.1c.6-.5.4-1.5.4-1.5h0c0-.1,0-.2,0-.2v-1.2h.2c0-.2,0-.2,0-.2v-1.2l.7-2.4h.2v.3h.2v.2h0c0-.1,0-.2,0-.2h0v-1.4h0c.4-.4,0-.6,0-.6,0-.2,0-.6,0-.6s0-.1,0-.1v-.4h.7c0-.1,0-.1,0-.1v-1.4h.2v-.5h.2v-6.2c2,.6,4.3.9,6.5.9,5.7,0,11-2.5,14.7-4.9h12.1v.4h1.5v.5h-1.5v.7h1.5v.5h-1.5v.7h1.5v.5h-1.5v.7h1.5v.5h-1.5v.7h1.5v.5h-1.5v.7h1.5v.5h-1.5v.7h1.5v.5h-1.5v.7h1.5v.5h-1.5v.7h1.5v.5h-1.5v.7h1.5v.5h-1.5v.7h1.5v.5h-1.5v.7h1.5v.5h-1.5v.7h1.5v.5h-1.5v.7h1.5v.5h-1.5v.7h1.5v.5h-1.5v.7h1.5v.5h-1.5v.7h1.5v.5h-1.5v.7h1.5v.5h-1.5v.9h13.7v-.9h-1.5v-.5h2.3c0,.1.2.1.2.1v1.7h.8v1.1h1.7l.2,3.2h0v.6h0c0-.1,0-.1,0-.1h0c0,.1,0,0,0,0h0c0,.1,0,0,0,0h0c0,.1,0-.4,0-.4h0c0-.1.2-3.3.2-3.3h0v8.2h0v-1.7h.2v-6.7h1.3v-1.1h.8v-1.7h.2c0-.1,1.4-.1,1.4-.1v-4.7h0v-19.2h.8v19.9h.6v.9h.6v-.4h1.3v.4h.6v-.9h6.3v4.1h.1v.6h.1v.3s-.1.1.2.5v.2-.2c.4-.2.2-.5.2-.5v-1.4h.1v-.6l1.4,2.1v2c.1,0,.1.1.1.1h.1v.2h.1v2.3c-.5.2-1.8-.2-1.5,0,.2.2.2.5.2.5.2,0,.5.1.7.2h.6v.2h0v-3.2h.1v-.2h.1v-.4c.1,0,.1-1.8.1-1.8l1.4-2.1v.5h.1v.3s-.1.1.2.5v.2-.2c.4-.2.2-.5.2-.5v-.2h.1v-.6h.1v-4.1h0v-16.8h1.2v27.6h.1v.2h.1v5h.1v.2h.1v.4h.2v1h0v-1h.2v-.4h.1v-.2h.5v.8h0v-.8h.6v.8h0v-.8h.6v.8h0v-.8h.6v.8h0v-.8h.6v.8h0v-.8h.6v.8h0v-.8h.2l.9,1.7h-.1v.5h.1v1.8h.1s0,.6.6.7v2.4c-.2.1-.9-.2-1.1-.1-.2.2-.1.5-.1.5,0,0,.5,0,.6.1s.5.1.5.1v.2h0v-3.1c.6,0,.6-.7.6-.7h.1v-1.8h.1v-.4h-.1c0-.1.9-1.8.9-1.8h.2v.8h0v-.8h.6v.8h0v-.8h.6v.8h0v-.8h.6v.8h0v-.8h.6v.8h0v-.8h.6v.8h0v-.8h.5v.2h.1v.4h.2v1h0v-1h.2v-.4h.1v-.2h.1v-5h.1v-.4h.1v-2.6l2.4.4v.7l14.4-.7,3-1.4v3.4l.7,1.1.7-1.1v-.6l.8,1.3h0l.5,1.5h.4l2.5,4.1v1.8s-.1.1-.2.1h-.5v.5h.7c0,.1,0-2.4,0-2.4l2.5-4.1h.4l.5-1.5h0l.8-1.3v.6l.7,1.1.7-1.1v-8.9l1.9-.5v-1.4h.2s.1,0,.1-.2-.1-.2-.4-.2v-10.5h1.5v6.3h.9v3.2h.7v4.1h1.4v.2h.1v1.3h.2v.7h.9c-.1.1-.4.3-.4.8s.4,1.1.4,1.5h0c0,.1,0,.2.1.2s.1-.1.1-.1h0c0-.5.4-1,.4-1.6s-.2-.6-.4-.7h0c0-.1.9-.1.9-.1v-.7h.2v-1.3h.1v-.2h1.4v-4.3h.7v-3.2h.9v-6.3h1.7v-8.4h.8v47.6h4.2v.7h8.4v-.7h4.2v-23.5h8.4v-29.5h.8v.6h1.1v.7h-1.1v.6h1.1v.7h-1.1v.6h1.1v.7h-1.1v.6h1.1v.7h-1.1v.6h1.1v.7h-1.1v.6h1.1v.7h-1.1v.6h1.1v.7h-1.1v.6h1.1v.7h-1.1v.6h1.1v.7h-1.1v.6h1.1v.7h-1.1v.6h1.1v.7h-1.1v.6h1.1v.7h-1.1v.6h1.1v.7h-1.1v.6h1.1v.7h-1.1v.6h1.1v.7h-1.1v18.2h2.8v.6h4v.6h2.8v-1.3h.6v-10.1h.7v-10.2h1.3v12.9h1.5v1.5l3.1,3.2h0l3.1-3.2v-1.5h1.5v-12.9h1.5v31.1c9.9,0,15.3-4,15.3-4v-9.5c.5-.1.7-.2.7-.2v-21.2l30.1,12.7,3.9,5.4s.1.1.1,0v-.2l-3.8-5.4h0l.4-9.6c1.2,1.5,3,1.7,3.8,1.7h.1c1.1.1,3.8,1.4,3.9,1.4h0c.2.2.6.4.8.5l1.9,2.1h0l-1.2-1.8c3.6,1.9,7.2,2.1,7.2,2.1,0,0,.1,0,.1-.1h0c0-.1-.9-.8-3.8-1.8-1.5-.5-3.2-1.5-4.5-2.7l5-6.5h5.6v2.8h.4v.4h.2v-.4h.4v-2.8h5.8l.6-3.4h1.4v-.4h-.2v-2h4.3l1.7,14.1s0,.1-.1.2l-.2.2v.2h.1v.7h.7v1.3h-.1c0,.1.9.9.9.9v.4h0c0,.1.1.1.1.1v.2h0v-.2h.1v-.5l.9-.8h-.1v-1.4h.7v-.7h.1v-.2l-.2-.2c-.1-.1-.1-.2-.1-.2l2.2-18.5h.2v-.8h5.7c1.8,0,3.3-1.3,3.4-3.1H17.7c.3,1.7,1.8,3,3.6,3M141.3,249.8c-.1-.2,0-.5,0-.6v.6ZM152,261.8v-.2.2ZM44.5,220.7q0,0,0,0v-.4c0,.1.2.1.4.1h0c0,0,0,.1-.2.2-.1,0-.2,0-.3.1M44.7,220.2c-.2,0-.4-.2-.4-.2h0v-5h.7v5.1c0,0-.2.1-.3.1M45.1,220.2h0q0,0,0,0c0,.1,0,0,0,0M45.2,220.4h0s0,0-.2.1c0,0,.1-.1.2-.1M45.5,220.2c0,0-.2-.1-.4-.2v-5.1h.6v5.1c0,.1,0,.2-.2.2M45.3,220.3h0c0-.1,0,0,0,0M45.4,220.3s0,0,0,0c0,0,0,0,0,0h0M45.9,220.3q0,0,0,0h0q0,0,0,0M50.6,219.6h0c.2,0,.3,0,.5-.1v.4c0,.1,0,.2-.2.4h0c0-.3,0-.6-.3-.7M50.8,219.5c0,0-.2-.1-.4-.2.2-.1.5-.2.7-.4v.2c0,.3-.2.4-.3.4M50.3,219.5h0q0,0,0,0c0,.1,0,0,0,0M50.4,219.5s0,.1,0,0c0,.1,0,.1,0,0h0ZM50.3,218.7c-.2.1-.5.2-.8.4v-2.8h.8v2.4h0ZM49.8,220.1h0c0,0-.2,0-.2-.3v-.2s0,0,0-.1h0v.2c0,.2,0,.3,0,.4M50,220c0-.1.2-.2.4-.2s.4.1.4.4,0,.4-.4.4-.2-.1-.4-.2v-.4ZM50.4,218.7v-2.4h.7v2c-.2.1-.5.2-.7.4M51.7,215.6c-.2,0-.2-.5-.2-.5v-1.3h.6v1.3s0,.5-.4.5M52.5,215.6c-.2,0-.2-.5-.2-.5v-1.3h.6v1.3c0,0,0,.5-.4.5M56.1,215.6h0c0,0,0,0,0,0h0ZM56.8,215.6h0c0-.1,0-.2,0-.4v.7c0-.2,0-.3,0-.3M54.9,216.3h0c-.2.1-.5.4-.7.5v-.5h.7M54.3,219.6h0c.2,0,.3,0,.5-.1v.4c0,.1,0,.2-.2.4h0c0-.3,0-.6-.3-.7M54.1,219.7c.2,0,.4.1.4.4s0,.4-.4.4-.4-.1-.4-.4,0-.4.4-.4M53.8,219.6c0,0,0-.1,0,0h0q0,0,0,0M54.2,219.5s0,.1,0,0q0,0,0,0h0ZM54.4,219.5c0,0-.4-.2-.4-.2v-1.8c.2-.1.5-.2.7-.4v2.1c0,.2,0,.3-.3.3M53.9,216.9c-.2.1-.5.2-.8.5v-1.1h.8v.6ZM53.2,218c.2-.1.5-.2.7-.4v1.7c0,.1-.2.2-.4.2s-.2-.1-.2-.1v-1.4h0ZM53.2,219.6c0,.1.2.1.4.1h0c0,.1-.2.2-.2.5h0c0,0-.1,0-.2,0,0,0,0-.5,0-.5h0ZM56.1,216.4h0c0-.2.2-.2.4-.3v.4h-.4q0-.1,0,0ZM56.6,216.3c0,.1,0,.1.2.2h-.2v-.2ZM57.3,216.2v-2.2h.9v2.6h-.6c0-.3-.2-.4-.3-.4M61.4,216.8c-.5,0-.5-.6-.5-.6v-1.9h.9v1.9c0,0,0,.6-.4.6M62.9,216.8c-.5,0-.5-.6-.5-.6v-1.9h.9v1.9c0,0,0,.6-.4.6M40.6,229.1h.8v1.4s0,.4-.4.4-.4-.4-.4-.4v-1.4h0ZM40.2,227.5h.5c0,.1-.2.2-.2.4s0,.2,0,.4c-.4-.3-.4-.8-.4-.8M41.2,228.3c0-.1,0-.2,0-.4s0-.2-.2-.4h.5s0,.5-.4.8M41,225.8h0c0-.1.2-.1.2-.1,0,.1,0,.1-.3.1M41.3,227.9c0,.2,0,.4-.4.4s-.4-.1-.4-.4,0-.4.4-.4.4.2.4.4M40.9,225.8c0,0-.2.1-.4.1s-.2,0-.4-.1c0,0,0-.1,0-.2l.2-.7h.2l.2.7c.4-.1.3,0,.3.2M40.6,224.7c-.2,0-.4-.1-.4-.4s0-.2.2-.4h.2c0,0,.2.1.2.4,0,.3,0,.4-.2.4M39.4,223.9s0,0-.2.1v-1.3c0,.1.4.4.7.4h.3c0,.1,0,.1,0,.2,0,0,0,0-.2-.1h0c0,0-.2.1-.4.2s-.2.2-.2.4,0,.2,0,.1M40.9,222c0,0-.2-.1-.4-.2v-3.2h.6v3.2c.2.1,0,.2-.2.2M41.3,222.1h0s0,0,0,0c0,0,0,0,0,0M40.1,222.2s0,0,0,0c.2,0,.4,0,.4-.1v.4c0,.1,0,.2-.2.2h0c0-.4,0-.5-.2-.5M40.3,223c0,0,.2-.1.4-.1s.2,0,.4.1c0,0,0,.1,0,.2l-.2.7h-.2l-.2-.7c-.4,0-.4-.2-.3-.2M40.6,222.8h-.2c0,0,.1-.1.2-.2,0,.1,0,.2.2.2h-.2M40.6,218.7v3.2c0,.1-.2.2-.4.2s-.2-.1-.2-.2v-3.2h.6M40.2,222.6c0,.1,0,.2,0,.2h0c0,0-.4-.1-.4-.4s0-.4.4-.4c0,.2.2.3.2.6M39.7,221.9c0,.1-.2.2-.4.2s-.4-.2-.4-.2h0v-3.2h.6v3.2h.2ZM39.5,222.2c0,0,.2,0,.4-.1h0c-.2,0-.4.2-.4.5v.2c-.2-.1-.2-.4-.4-.4v-.4c.2.1.3.2.4.2M39.6,223.3c0-.1.2-.1.2-.1,0,0,.2.1.2.1l.2.7c0,0,0,.1,0,.1l-.7-.2s0-.1,0-.2c0-.2.2-.3.3-.4M40.8,224l.2-.7s0-.1.2-.1.2,0,.2.1c0,.1,0,.2,0,.2,0,.1,0,.2,0,.2l-.6.3q0,0,0,0M40.9,222.6h0c0,0-.1,0-.2-.2v-.4c0,.1.2.1.4.1h0c-.3.1-.3.2-.3.5M41.3,222.2c0,0,.4.1.4.4s0,.4-.4.4h0c0,0,0-.1,0-.2,0-.5,0-.6.2-.6M36.1,220v-5.1h.7v5h0s0,.2-.4.2c0,.1-.2,0-.3-.1M36.2,220.3h0c0-.1,0,0,0,0M29.1,215.7c-.2,0-.2-.2-.2-.2v-.8h.6v.8c-.2,0-.1.2-.4.2M32.3,218.1v1.8s0,.1-.2.1-.1,0-.2-.1v-1.8h.4ZM32,220.3c-.1,0-.1-.1-.1-.2v-.2c0,0,.1.1.2.1h0c-.2.1-.2.2-.2.3h0M32.3,220.4c0,0-.2-.1-.2-.2s0-.2.2-.2.2.1.2.2c0,.2,0,.2-.2.2M32.8,220.1c0,.1,0,.1,0,.2h0c0-.2,0-.3,0-.3h0c0,0,.1,0,.2-.1v.2h-.1ZM32.9,219.7h0s0,.1-.2.1,0,0-.2-.1v-1.8h.5v1.8h0ZM35.9,214.9v5.1s0,.2-.4.2-.2-.1-.4-.2v-5.1h.8ZM35.9,220.2h0q0,0,0,0c0,.1,0,0,0,0M35.6,220.9c0-.1-.2-.2-.2-.4v-.4c0,.1.2.1.4.1h0c-.3.2-.4.4-.3.7q0,0,0,0M36.1,232c0,0-.2-.1-.4-.1v-.7c0,0,.2.1.4.1v.7ZM36.1,221.2c-.2,0-.4-.1-.4-.4s0-.4.4-.4.4.1.4.4c-.2.1-.3.4-.4.4M36.3,220.3s0,0,0,0c.2,0,.4,0,.5-.1v.4c0,.1,0,.2-.2.4h0c0-.4-.2-.6-.3-.7M37,232.4c0,0-.4-.1-.5-.1v-.7c0,0,.2.1.5.1v.7ZM37,230s0,.4-.2.4-.2-.4-.2-.4v-1.4c0,0,.2.1.5.1,0,0,0,1.3,0,1.3h0ZM38.3,232.5c-.2,0-.4,0-.6-.1v-.7c.2,0,.4,0,.6.1v.7ZM39.1,224.3h0c0-.2,0-.2,0-.3,0,0,.1-.1.2-.1l.7.2v.2l-.7.2s0,0-.2-.1h0c0,0,0-.1,0-.1M39.3,225.1c0,0,0-.1,0-.2h0v.2M39.9,225.5c0,0-.2,0-.2-.1,0-.1,0-.2,0-.2,0-.1,0-.2,0-.2l.7-.2c0,.1,0,.1,0,.1l-.2.7c-.2-.1-.3-.1-.4-.1M40.1,225.6s0,.1,0,.1c0,0-.2-.1-.2-.1h0M40.3,239.4c-.2,0,0-.2,0-.2v-.9s0,.1.4.1v.7c-.2,0-.2.3-.3.3M40.9,239.5c-.2,0-.2-.2-.2-.2v-.8h.4v.8c0,0,0,.2-.2.2M41.5,239.4c-.2,0,0-.2,0-.2v-.7c.2,0,.4-.1.4-.1v.8c0-.1,0,.2-.3.2M40.9,233.8c-.5,0-.8-.4-.8-.8s.4-.8.8-.8.8.4.8.8c0,.5-.3.8-.8.8M41.6,225.4c0,.1-.2.1-.2.1,0,0-.2-.1-.2-.1l-.2-.7c0,0,0-.1,0-.1l.7.2s0,.1,0,.2c0,.2,0,.3-.3.4M41.9,225.1h0c0-.1,0-.1,0-.1,0,0,0,0,0,.1M42.1,224.3h0c0,.2,0,.2,0,.2,0,0-.1.1-.2.1l-.7-.2v-.2l.7-.2s0,0,.2.1c0,0,0,.1,0,.2h0ZM42.1,224c0,0,0-.1-.2-.1v-.2c0-.1,0-.2-.2-.4,0-.1-.2-.2-.4-.2h0c0,0-.1,0-.2.1,0,0,0-.1,0-.2h.2c.4,0,.6-.2.7-.4v1.4h.2ZM42.1,222.3c0,.1,0,.2-.4.4v-.2c0-.2,0-.4-.4-.5h0c0,.1.2.1.4.1s.2-.1.4-.1v.3ZM42.1,221.7q0,.1,0,0c0-.2,0,.2-.4.2s-.2-.1-.4-.2v-3.2h.7v3.2h.1ZM44.1,232.5c-.2,0-.4,0-.6.1v-.7c.2,0,.4,0,.6-.1v.7ZM45.3,232.3c0,0-.2.1-.5.1v-.7c0,0,.4-.1.5-.1v.7ZM45.3,230s0,.4-.2.4-.2-.4-.2-.4v-1.3c0,0,.4-.1.5-.1,0,0,0,1.4,0,1.4h0ZM46.1,231.9c0,0-.2.1-.4.1v-.7c0,0,.2-.1.4-.1v.7ZM57.6,229.6h0v.2h0s0,.5-.5.5-.5-.5-.5-.5h0v-.2h0v-1.5h0v-.2h.9v.2h0c0-.1,0,1.5,0,1.5ZM57.6,224.6v-1.3h.6v1.3s0,.4-.2.4c-.4-.1-.4-.4-.4-.4M58.9,229.6h0v.2h0s0,.5-.5.5-.5-.5-.5-.5h0v-.2h0v-1.5h0v-.2h.9v.2h0c0-.1,0,1.5,0,1.5ZM58.9,224.9c-.4,0-.2-.4-.2-.4v-1.2h.6v1.3s0,.3-.4.3M60.3,229.6h0v.2h0s0,.5-.5.5-.5-.5-.5-.5h0v-.2h0v-1.5h0v-.2h.9v.2h0c0-.1,0,1.5,0,1.5ZM66.9,223.5c-.5-.2-.8-.5-1.3-.7h1.3v.7ZM63.7,221.2v-.2l2.5-1.3v-.5h-.5v-.4l-.2-.5v-4.6c0,0,0-.4,0-.4h1.1v4h0v3.9h-3.1,0ZM71,223.5h.2v.4h-.2v-.4ZM71.2,224.2h-.2v-.4h.2v.4ZM70.9,222.9h-.2c0-.1.2-.1.2-.1h0ZM70.6,223.5h.2v.4h-.2v-.4ZM70.9,224.2h-.2v-.4h.2v.4ZM71,222.8h.2c0,.1-.2.1-.2.1h0ZM69.8,236.4v-.5h-.3.3v.5c-.4,0-.5-.2-.5-.5s.2-.5.5-.5.5.2.5.5-.2.5-.5.5M70.1,236.4c0,0,0,.1-.2.1h0c0-.1.2-.1.2-.1ZM69.3,235.6c0,0,0,.1,0,.2h0c0-.1,0-.2.2-.2h0ZM69.2,235.5c0-.1,0-.1.2-.2h0c0,.2,0,.2-.2.2h0ZM69.8,235.2h0c0,0-.1.1-.2.1h0c0-.1,0-.1.2-.1M69.6,233.3h.4v.9h-.4v-.9ZM70.1,235.4h0c0,0,.2,0,.2.1h-.2M70.1,235.4c0,0-.1,0-.2-.1h0c0-.1.2-.1.2,0h0ZM69.8,231.3c-.5,0-.4-.5-.4-.5v-1.4h.8v1.4c0,.1,0,.5-.4.5M69.7,227h-.2v-.2h.2v.2ZM69.5,226.4h.2v.2h-.2v-.2ZM69.7,227.3h-.2v-.2h.2v.2ZM69.7,228.5h-.2v-.4h.2v.4ZM70.1,227.3h-.2v-.2h.2v.2ZM69.8,226.7h.2v.2h-.2v-.2ZM70.1,228.5h-.2v-.4h.2v.4ZM70.1,226.6h-.2v-.2h.2v.2ZM70.1,222.9h-.2c0-.1.2-.1.2-.1h0ZM69.8,223.5h.2v.4h-.2v-.4ZM70.1,224.2h-.2v-.4h.2v.4ZM69.7,222.9h-.2c0-.1.2-.1.2-.1h0ZM69.5,223.5h.2v.4h-.2v-.4ZM69.7,224.2h-.2v-.4h.2v.4ZM69.3,223.4h-.2.2ZM68.9,222.9h-.2c0-.1.2-.1.2-.1h0ZM68.6,223.5h.2v.4h-.2v-.4ZM68.9,224.2h-.2v-.4h.2v.4ZM68.5,222.9h-.2c0-.1.2-.1.2-.1h0ZM68.5,223.9h-.2v-.4h.2v.4ZM68.2,223.4h-.2.2ZM68.3,224.2v-.4h.2v.4h-.2M68.5,218h-.2v-.2h.2v.2ZM68.3,217.4h.2v.2h-.2v-.2ZM68.5,218.3h-.2v-.2h.2v.2ZM68.5,219.1h-.2v-.2h.2v.2ZM68.5,219.5h-.2v-.2h.2v.2ZM68.5,219.8h-.2v-.2h.2v.2ZM68.5,220.7h-.2v-.2h.2v.2ZM68.5,221h-.2v-.2h.2v.2ZM68.9,218h-.2v-.2h.2v.2ZM68.6,217.4h.2v.2h-.2v-.2ZM68.9,218.3h-.2v-.2h.2v.2ZM68.9,219.1h-.2v-.2h.2v.2ZM68.9,219.5h-.2v-.2h.2v.2ZM68.9,219.8h-.2v-.2h.2v.2ZM68.9,220.7h-.2v-.2h.2v.2ZM68.9,221h-.2v-.2h.2v.2ZM69.7,218h-.2v-.2h.2v.2ZM69.5,217.4h.2v.2h-.2v-.2ZM69.7,218.3h-.2v-.2h.2v.2ZM69.7,219.1h-.2v-.2h.2v.2ZM69.7,219.5h-.2v-.2h.2v.2ZM69.7,219.8h-.2v-.2h.2v.2ZM69.7,220.7h-.2v-.2h.2v.2ZM69.7,221h-.2v-.2h.2v.2ZM70.1,218h-.2v-.2h.2v.2ZM69.8,217.4h.2v.2h-.2v-.2ZM70.1,218.3h-.2v-.2h.2v.2ZM70.1,219.1h-.2v-.2h.2v.2ZM70.1,219.5h-.2v-.2h.2v.2ZM70.1,219.8h-.2v-.2h.2v.2ZM70.1,220.7h-.2v-.2h.2v.2ZM70.1,221h-.2v-.2h.2v.2ZM70.9,218h-.2v-.2h.2v.2ZM70.6,217.4h.2v.2h-.2v-.2ZM70.9,218.3h-.2v-.2h.2v.2ZM70.9,219.1h-.2v-.2h.2v.2ZM70.9,219.5h-.2v-.2h.2v.2ZM70.9,219.8h-.2v-.2h.2v.2ZM70.9,220.7h-.2v-.2h.2v.2ZM70.9,221h-.2v-.2h.2v.2ZM71.2,218.3h-.2v-.2h.2v.2ZM71,217.7h.2v.2h-.2v-.2ZM71.2,219.1h-.2v-.2h.2v.2ZM71.2,219.5h-.2v-.2h.2v.2ZM71.2,219.8h-.2v-.2h.2v.2ZM71.2,220.7h-.2v-.2h.2v.2ZM71.2,221h-.2v-.2h.2v.2ZM71.2,217.5h-.2v-.2h.2v.2ZM71.2,213.9s0,.8-1.4.8-1.4-.8-1.4-.8v-.7h2.7v.7h.1ZM69.7,225.6v.2h-.2v-.4h0c0,.1,0,.1,0,.2M68.7,227.1h.3v.2h-.2v-.2h-.1ZM68.9,228.5h-.2v-.4h.2v.4ZM68.6,225.5h.2v.4h-.2v-.4ZM68.7,226.7h.3v.2h-.2v-.2h-.1ZM68.7,226.4h.3v.2h-.2v-.2h-.1ZM68.4,227.1h.2v.2h-.2v-.2ZM68.5,228.5h-.2v-.4h.2v.4ZM68.3,225.5h.2v.4h-.2v-.4ZM68.4,226.7h.2v.2h-.2v-.2ZM68.4,226.4h.2v.2h-.2v-.2ZM67.6,234.3h0v-.7h0v.7ZM67.7,236.1h0v-.6h0v.6ZM67.8,234.3h0v-.7h0v.7ZM67.8,236.1h0v-.6h0v.6ZM68,234.3h0v-.7h0v.7ZM68.6,231.3c-.5,0-.5-.5-.5-.5v-1.4h.9v1.4c0,.1,0,.5-.4.5M69.1,233.3h.4v.9h-.4v-.9ZM69.1,236h0c0,0,0,.1,0,.2h0c0-.1,0-.2,0-.2M69.2,236.2h0c0,0,.2.1.2.1h0c0,.1,0,0-.2,0M69.6,242.3h0v-.5c0,0,0,0,0,0v.5ZM69.5,236.4h.2c0,.1,0,.1-.2,0M69.8,242.3h0v-.5c0,0,0,0,0,0v.5ZM70.2,242.3h0v-.5c0,0,0,0,0,0v.5ZM70.2,236.4h0c0-.1,0-.2,0-.2h0c0,.1-.2.2-.2.2M70.4,236.2h0v-.2h0c0,0,0,.1,0,.2M70.4,235.8c0,0,0-.1,0-.2h0v.2h0ZM70.5,234.3h-.4v-1h.4v1ZM71.4,230.7c0,.1,0,.5-.5.5s-.5-.5-.5-.5v-1.4h.9c0,0,0,1.4,0,1.4ZM70.9,226.6h-.2v-.2h.2v.2ZM70.9,228.5h-.2v-.4h.2v.4ZM70.9,227h-.2v-.2h.2v.2ZM70.9,227.3h-.2v-.2h.2v.2ZM71.2,226.6h-.2v-.2h.2v.2ZM71.2,228.5h-.2v-.4h.2v.4ZM71.2,227h-.2v-.2h.2v.2ZM71.2,227.3h-.2v-.2h.2v.2ZM71.6,234.3h0v-.7h0v.7ZM71.8,236.1h0v-.6h0v.6ZM71.8,234.3h0v-.7h0v.7ZM71.9,236.1h0v-.6h0v.6ZM72.1,234.3h0v-.7h0v.7ZM70.1,225.9h-.2v-.2c0-.1.2.1.2.2h0ZM73.8,226.4c-.5-.1-.8-.2-1.3-.4v-1.2h0v-2.1h1.2s0,3.7,0,3.7ZM77.4,227c-1.2-.1-2.2-.4-3.4-.6v-3.6h3.4v4.2h0ZM80.8,227c-.6,0-1.2.1-1.7.1s-1.2,0-1.7-.1v-4.1h3.4v4.1h0ZM84.3,226.4c-1.1.2-2.2.5-3.4.6v-4.1h3.4v3.5ZM87.8,225.2c-1.1.5-2.2.8-3.4,1.1v-3.6h3.4v2.5ZM91.2,223.5c-1.1.6-2.2,1.2-3.4,1.7v-2.4h3.4v.7ZM91.4,223.5v-.7h1.3c-.5.2-.9.5-1.3.7M72.7,221.2v-3.9h0v-4h28.3c0,.4.2,1.5.2,2.2h.2c-.4.4-2.7,3-6.4,5.6h-22.4q0,.1,0,0ZM176.5,234.3v.7h-.1v-.7h.1ZM176.4,233.7v-.7h.1v.7h-.1ZM176.5,235.5v.7h-.1c0,.1,0-.6,0-.6h.1ZM176.5,236.8v.7h-.1c0,.1,0-.6,0-.6h.1ZM176.5,218.1v.7h-.1v-.7h.1ZM176.4,217.5v-.7h.1v.7h-.1ZM176.5,219.3v.7h-.1v-.7h.1ZM176.5,220.6v.7h-.1v-.7h.1ZM176.5,221.7v.7h-.1v-.7h.1ZM176.5,223v.7h-.1v-.7h.1ZM176.5,224.2v.7h-.1v-.7h.1ZM176.5,225.5v.7h-.1v-.7h.1ZM176.5,226.7v.7h-.1v-.7h.1ZM176.5,228v.7h-.1v-.7h.1ZM176.5,229.3v.7h-.1v-.7h.1ZM176.5,230.5v.7h-.1v-.7h.1ZM176.5,215h-.1v-.7h.1v.7ZM172.6,237.8v-.7h.7v.7h-.7ZM173.3,238.4v.7h-.7v-.7h.7ZM172.6,236.7v-.7h.7v.7h-.7ZM172.6,235.4v-.7h.7v.7h-.7ZM173.3,216.9v.7h-.7v-.7h.7ZM172.6,216.2v-.7h.7v.7h-.7ZM173.3,218.1v.7h-.7v-.7h.7ZM173.3,219.4v.7h-.7v-.7h.7ZM173.3,222v.7h-.7v-.7h.7ZM173.3,223.2v.7h-.7v-.7h.7ZM173.3,224.5v.7h-.7v-.7h.7ZM173.3,225.8v.7h-.7v-.7h.7ZM173.3,228.3v.7h-.7v-.7h.7ZM173.3,229.6v.7h-.7v-.7h.7ZM173.3,230.9v.7h-.7v-.7h.7ZM173.3,232.2v.7h-.7v-.7h.7ZM172.2,236v.7h-.1v-.7h.1ZM172.2,232.8h-.1v-.7h.1v.7ZM172.1,220.7v.7h-.1v-.7h.1ZM172.1,217.5h-.1v-.7h.1v.7ZM171.8,241.2v.7h-.7v-.7h.7ZM171.1,240.6v-.7h.7v.7h-.7ZM171.8,234.8v.7h-.7v-.7h.7ZM171.1,234.2v-.7h.7v.7h-.7ZM171.8,237.3v.7h-.7v-.7h.7ZM171.1,227.8v-.7h.7v.7h-.7ZM171.8,228.4v.7h-.7v-.7h.7ZM171.8,225.2h-.7v-.7h.7v.7ZM171.1,218.8v-.7h.7v.7h-.7ZM171.8,219.4v.7h-.7v-.7h.7ZM171.8,216.2h-.7v-.7h.7v.7ZM170.2,223.3v.7h-.7v-.7h.7ZM170.2,221.4h-.7v-.7h.7v.7ZM168.7,232.3v.7h-.7v-.7h.7ZM168,231.7v-.7h.7v.7h-.7ZM142.5,233.7c-.1,0-.2-.1-.2-.1v-.8h.4v.8c.1.1-.1.1-.2.1M142.8,234.4v.8s0,.1-.2.1-.2-.1-.2-.1v-.8h.4ZM142.5,232.2c-.1,0-.2-.1-.2-.1v-.8h.4v.8c.1.1-.1.1-.2.1M142.5,230.6c-.1,0-.2-.1-.2-.1v-.8h.4v.8c.1.1-.1.1-.2.1M142.5,229.1c-.1,0-.2-.1-.2-.1v-.8h.4v.8c.1.1-.1.1-.2.1M142.5,227.5c-.1,0-.2-.1-.2-.1v-.8h.4v.8c.1.1-.1.1-.2.1M142.5,226c-.1,0-.2-.1-.2-.1v-.8h.4v.8c.1.1-.1.1-.2.1M142.5,224.5c-.1,0-.2-.1-.2-.1v-.8h.4v.8c.1.1-.1.1-.2.1M142.5,222.9c-.1,0-.2-.1-.2-.1v-.8h.4v.8c.1.1-.1.1-.2.1M142.5,221.4c-.1,0-.2-.1-.2-.1v-.7h.4v.8c.1,0-.1,0-.2,0M142.5,219.8c-.1,0-.2-.1-.2-.1v-.8h.4v.8c.1.1-.1.1-.2.1M142.5,218.3c-.1,0-.2-.1-.2-.1v-.8h.4v.8c.1.1-.1.1-.2.1M142.5,216.8c-.1,0-.2-.1-.2-.1v-.8h.4v.8c.1.1-.1.1-.2.1M142.5,215.2c-.1,0-.2-.1-.2-.1v-.8h.4v.8c.1.1-.1.1-.2.1M141.9,233.7c-.1,0-.2-.1-.2-.1v-.8h.4v.8c.1.1-.1.1-.2.1M142.2,234.4v.8s0,.1-.2.1-.2-.1-.2-.1v-.8h.4ZM141.9,232.2c-.1,0-.2-.1-.2-.1v-.8h.4v.8c.1.1-.1.1-.2.1M141.9,230.6c-.1,0-.2-.1-.2-.1v-.8h.4v.8c.1.1-.1.1-.2.1M141.9,229.1c-.1,0-.2-.1-.2-.1v-.8h.4v.8c.1.1-.1.1-.2.1M141.9,227.5c-.1,0-.2-.1-.2-.1v-.8h.4v.8c.1.1-.1.1-.2.1M141.9,226c-.1,0-.2-.1-.2-.1v-.8h.4v.8c.1.1-.1.1-.2.1M141.9,224.5c-.1,0-.2-.1-.2-.1v-.8h.4v.8c.1.1-.1.1-.2.1M141.9,222.9c-.1,0-.2-.1-.2-.1v-.8h.4v.8c.1.1-.1.1-.2.1M141.9,221.4c-.1,0-.2-.1-.2-.1v-.7h.4v.8c.1,0-.1,0-.2,0M141.9,219.8c-.1,0-.2-.1-.2-.1v-.8h.4v.8c.1.1-.1.1-.2.1M141.9,218.3c-.1,0-.2-.1-.2-.1v-.8h.4v.8c.1.1-.1.1-.2.1M141.9,216.8c-.1,0-.2-.1-.2-.1v-.8h.4v.8c.1.1-.1.1-.2.1M141.9,215.2c-.1,0-.2-.1-.2-.1v-.8h.4v.8c.1.1-.1.1-.2.1M123.6,247.2h.2v.4c0,0-.2-.4-.2-.4ZM123.8,247.9h0v-.2.2ZM123.6,247.2v-.2c0,0,.2.2.2.2h-.2ZM123.6,246.5h.2v.4c0,0-.2-.4-.2-.4ZM123.6,245.9h.2v.2c0,0-.2-.2-.2-.2ZM123.8,246.4h-.2v-.2c0,0,.2.2.2.2ZM123.6,245.7v-.7h.4v.7h-.4ZM123.5,247.2h0v-.6.6ZM123.5,247.2v.6l-.2-.6h.2ZM123.6,245.9v.2c0,0,0,.2,0,.2v-.4ZM123.7,246.1v-.2c0,0,0,.5,0,.5v-.3ZM123.8,247.2h0v.6c0,0,0-.6,0-.6ZM123.8,247.2v-.6.6h0ZM123.9,245.9h0v.5-.5ZM123.5,246.4v-.5c0,0,0,0,0,0v.5ZM118.1,238.8h.9v.5h-.9v-.5ZM119.1,240.5h-.9v-.5h.9v.5ZM118.1,237.7h.9v.5h-.9v-.5ZM118.1,236.7h.8v.5h-.8v-.5ZM118.1,235.5h.8v.5h-.8v-.5ZM118.1,234.4h.8v.5h-.8v-.5ZM118.1,233.2h.8v.5h-.8v-.5ZM118.1,232.2h.8v.5h-.8v-.5ZM118.1,231h.8v.5h-.8v-.5ZM118.1,229.9h.8v.5h-.8v-.5ZM118.1,228.7h.8v.5h-.8v-.5ZM118.1,227.7h.8v.5h-.8v-.5ZM118.1,226.5h.8v.5h-.8v-.5ZM118.1,225.4h.8v.5h-.8v-.5ZM118.1,224.2h.8v.5h-.8v-.5ZM118.1,223.2h.8v.5h-.8v-.5ZM118.1,222h.8v.5h-.8v-.5ZM118.1,220.9h.8v.5h-.8v-.5ZM118.1,219.8h.8v.5h-.8v-.5ZM118.1,218.7h.8v.5h-.8v-.5ZM118.1,217.6h.8v.5h-.8v-.5ZM118.1,216.4h.8v.5h-.8v-.5ZM118.1,215.3h.8v.5h-.8v-.5ZM118.1,214.2h.8v.5h-.8v-.5ZM111.7,216.9h-1.5v-.5h1.5v.5ZM110.2,215.3h1.5v.5h-1.5v-.5ZM111.7,218h-1.5v-.5h1.5v.5ZM111.7,219.1h-1.5v-.5h1.5v.5ZM110.2,220.9h1.3v.2h-1.3v-.2ZM111.7,220.9h0v.2h0v-.2ZM110.9,219.8h.8v.2c-.2,0-.6-.2-.8-.2M111.7,214.6h-1.5v-.5h1.5v.5ZM107.5,214.2v.5h-1.5v.7h1.5v.5h-1.5v.7h1.5v.5h-1.5v.7h1.5v.5h-.9c-2.2-1.1-3.9-2.1-4.4-2.5h0c0-.7,0-1.9.2-2.2h3.4v.9h1.5v-.3h.1ZM98.4,221.2h-2.1c.8-.6,1.5-1.2,2.1-1.8v1.8ZM101.7,221.2h-3.1v-1.9c1.5-1.3,2.6-2.4,3.1-3v4.9ZM105,221.2h-3.1v-5c.5.4,1.5.9,3.1,1.8v3.2ZM105.2,218.1c.2.1.5.2.8.4v.2h.6c.4.1.6.2.9.5h-1.4v.7h1.5v.5h-1.5v.7h1.5v.2h-2.2v-3.2h-.2ZM111.7,242.6h-1.5v-.5h1.5v.5ZM111.7,241.5h-1.5v-.5h1.5v.5ZM111.7,240.5h-1.5v-.5h1.5v.5ZM111.7,239.3h-1.5v-.5h1.5v.5ZM111.7,238.2h-1.5v-.5h1.5v.5ZM111.7,237h-1.5v-.5h1.5v.5ZM111.7,236h-1.5v-.5h1.5v.5ZM111.7,234.8h-1.5v-.5h1.5v.5ZM111.7,233.7h-1.5v-.5h1.5v.5ZM111.7,232.5h-1.5v-.5h1.5v.5ZM111.7,231.5h-1.5v-.5h1.5v.5ZM111.7,230.3h-1.5v-.5h1.5v.5ZM111.7,229.2h-1.5v-.5h1.5v.5ZM111.7,228h-1.5v-.4h1.5v.4ZM111.7,227h-1.5v-.5h1.5v.5ZM111.7,225.8h-1.5v-.5h1.5v.5ZM111.7,224.7h-1.5v-.5h1.5v.5ZM111.7,223.6h-1.5v-.5h1.5v.5ZM115.4,242.6h-1.5v-.5h1.5v.5ZM115.4,241.5h-1.5v-.5h1.5v.5ZM115.4,240.5h-1.5v-.5h1.5v.5ZM115.4,239.3h-1.5v-.5h1.5v.5ZM115.4,238.2h-1.5v-.5h1.5v.5ZM115.4,237h-1.5v-.5h1.5v.5ZM115.4,236h-1.5v-.5h1.5v.5ZM115.4,234.8h-1.5v-.5h1.5v.5ZM115.4,233.7h-1.5v-.5h1.5v.5ZM115.4,232.5h-1.5v-.5h1.5v.5ZM115.4,231.5h-1.5v-.5h1.5v.5ZM115.4,230.3h-1.5v-.5h1.5v.5ZM115.4,229.2h-1.5v-.5h1.5v.5ZM115.4,228h-1.5v-.4h1.5v.4ZM115.4,227h-1.5v-.5h1.5v.5ZM115.4,225.8h-1.5v-.5h1.5v.5ZM115.4,224.7h-1.5v-.5h1.5v.5ZM115.4,223.6h-1.5v-.5h1.5v.5ZM115.4,222.5h0v-.5h0v.5ZM115.4,221.4h0c0-.1,0-.2,0-.2,0-.1,0-.1,0-.2h.4v.5h-.2q0-.1,0,0ZM115.4,220.2h-1.5v-.5h1.5v.5ZM115.4,219.1h-1.5v-.5h1.5v.5ZM115.4,218h-1.5v-.5h1.5v.5ZM115.4,216.9h-1.5v-.5h1.5v.5ZM115.4,215.7h-1.5v-.5h1.5v.5ZM115.4,214.6h-1.5v-.5h1.5v.5ZM118.1,241h.9v.5h-.9v-.5ZM123.2,245.1h.2v.7h-.2v-.7ZM123.2,245.9h0l.2.6h0v-.6ZM123.3,247.1v-.6h0v.6ZM123.3,247.3l.2.6h0v-.6ZM123.3,247.9h0c0,.1,0,0,0,0h0ZM123.3,248h0c0,.1,0,.1,0,.1h0ZM123.3,248.3h0c0,.1,0,.1,0,.1h0ZM123.3,248.5h0c0-.1,0,0,0,0h0ZM123.6,247.1v-.5.2c0,0,0,.3,0,.3ZM123.6,247.3v.2c0,0,0,.2,0,.2v-.4ZM123.8,248.5h0c0-.1,0,0,0,0h0ZM123.8,248.4h0c0-.1.2-.1.2-.1h0ZM123.8,248.3h-.2c0-.1.2-.1.2-.1h0ZM123.8,248h-.2c0-.1.2,0,.2,0h0ZM123.8,247.8v-.2c0,0,0-.2,0-.2v.4ZM123.7,246.8v-.2c0,0,0,.5,0,.5v-.3ZM123.9,248.5h0c0-.1,0,0,0,0h0ZM123.9,248.4h0c0-.1,0-.1,0-.1h0ZM124,248.1h0c0-.1,0-.1,0-.1h0ZM124,248h0c0-.1,0,0,0,0h0ZM124,247.9h0v-.6c0,0,0,.6,0,.6ZM124,247.1v-.6c0,0,0,0,0,0v.6ZM124,246.4h0v-.6h0v.6ZM124.2,245.7h-.2v-.7h.2v.7ZM124.4,251.5h0v-.7c0,0,0,0,0,0v.7ZM124.4,250.6h0v-.7c0,0,0,0,0,0v.7ZM124.4,249.9h0v-.7c0,0,0,0,0,0v.7ZM124.4,249.1h0v-.7c0,0,0,0,0,0v.7ZM124.4,248.3h0v-.7c0,0,0,0,0,0v.7ZM124.4,247.4h0v-.7c0,0,0,0,0,0v.7ZM124.4,246.7h0v-.7c0,0,0,0,0,0v.7ZM124.4,245.9h0v-.7c0,0,0,0,0,0v.7ZM131,236.8s0,.1-.2.1-.2-.1-.2-.1v-.8h.4v.8h0ZM131,235.2s0,.1-.2.1-.2-.1-.2-.1v-.8h.4v.8h0ZM131,233.7s0,.1-.2.1-.2-.1-.2-.1v-.8h.4v.8h0ZM131,232.2s0,.1-.2.1-.2-.1-.2-.1v-.9h.4v.8h0q0,.1,0,0ZM131,230.6s0,.1-.2.1-.2-.1-.2-.1v-.8h.4v.8h0ZM131,229.1s0,.1-.2.1-.2-.1-.2-.1v-.8h.4v.8h0ZM131,227.5s0,.1-.2.1-.2-.1-.2-.1v-.8h.4v.8h0ZM131,226s0,.1-.2.1-.2-.1-.2-.1v-.8h.4v.8h0ZM131,224.5s0,.1-.2.1-.2-.1-.2-.1v-.8h.4v.8h0ZM131,222.9s0,.1-.2.1-.2-.1-.2-.1v-.8h.4v.8h0ZM131,221.4s0,.1-.2.1-.2-.1-.2-.1v-.8h.4v.8h0ZM131,219.8s0,.1-.2.1-.2-.1-.2-.1v-.8h.4v.8h0ZM131,218.3s0,.1-.2.1-.2-.1-.2-.1v-.8h.4v.8h0ZM131,216.8s0,.1-.2.1-.2-.1-.2-.1v-.8h.4v.8h0ZM131,215.2s0,.1-.2.1-.2-.1-.2-.1v-.8h.4v.8h0ZM131.6,236.8s0,.1-.2.1-.2-.1-.2-.1v-.8h.4v.8h0ZM131.6,235.2s0,.1-.2.1-.2-.1-.2-.1v-.8h.4v.8h0ZM131.6,233.7s0,.1-.2.1-.2-.1-.2-.1v-.8h.4v.8h0ZM131.6,232.2s0,.1-.2.1-.2-.1-.2-.1v-.9h.4v.8h0q0,.1,0,0ZM131.6,230.6s0,.1-.2.1-.2-.1-.2-.1v-.8h.4v.8h0ZM131.6,229.1s0,.1-.2.1-.2-.1-.2-.1v-.8h.4v.8h0ZM131.6,227.5s0,.1-.2.1-.2-.1-.2-.1v-.8h.4v.8h0ZM131.6,226s0,.1-.2.1-.2-.1-.2-.1v-.8h.4v.8h0ZM131.6,224.5s0,.1-.2.1-.2-.1-.2-.1v-.8h.4v.8h0ZM131.6,222.9s0,.1-.2.1-.2-.1-.2-.1v-.8h.4v.8h0ZM131.6,221.4s0,.1-.2.1-.2-.1-.2-.1v-.8h.4v.8h0ZM131.6,219.8s0,.1-.2.1-.2-.1-.2-.1v-.8h.4v.8h0ZM131.6,218.3s0,.1-.2.1-.2-.1-.2-.1v-.8h.4v.8h0ZM131.6,216.8s0,.1-.2.1-.2-.1-.2-.1v-.8h.4v.8h0ZM131.6,215.2s0,.1-.2.1-.2-.1-.2-.1v-.8h.4v.8h0ZM133.2,236.8h-.2v-.8h.2v.8ZM133.2,235.2h-.2v-.8h.2v.8ZM133.2,233.7h-.2v-.8h.2v.8ZM133.2,232.2h-.2v-.9h.2v.9ZM133.2,230.6h-.2v-.8h.2v.8ZM133.2,229.1h-.2v-.8h.2v.8ZM133.2,227.5h-.2v-.8h.2v.8ZM133.2,226h-.2v-.8h.2v.8ZM133.2,224.5h-.2v-.8h.2v.8ZM133.2,222.9h-.2v-.8h.2v.8ZM133.2,221.4h-.2v-.8h.2v.8ZM133.2,219.8h-.2v-.8h.2v.8ZM133.2,218.3h-.2v-.8h.2v.8ZM133.2,216.8h-.2v-.8h.2v.8ZM133.2,215.2h-.2v-.8h.2v.8ZM133.6,236.8h-.4v-.8h.4v.8ZM133.6,235.2h-.4v-.8h.4v.8ZM133.6,233.7h-.4v-.8h.4v.8ZM133.6,232.2h-.4v-.9h.4v.9ZM133.6,230.6h-.4v-.8h.4v.8ZM133.6,229.1h-.4v-.8h.4v.8ZM133.6,227.5h-.4v-.8h.4v.8ZM133.6,226h-.4v-.8h.4v.8ZM133.6,224.5h-.4v-.8h.4v.8ZM133.6,222.9h-.4v-.8h.4v.8ZM133.6,221.4h-.4v-.8h.4v.8ZM133.6,219.8h-.4v-.8h.4v.8ZM133.6,218.3h-.4v-.8h.4v.8ZM133.6,216.8h-.4v-.8h.4v.8ZM133.6,215.2h-.4v-.8h.4v.8ZM134.1,236.8h-.2v-.8h.2v.8ZM134.1,235.2h-.2v-.8h.2v.8ZM134.1,233.7h-.2v-.8h.2v.8ZM134.1,232.2h-.2v-.9h.2v.9ZM134.1,230.6h-.2v-.8h.2v.8ZM134.1,229.1h-.2v-.8h.2v.8ZM134.1,227.5h-.2v-.8h.2v.8ZM134.1,226h-.2v-.8h.2v.8ZM134.1,224.5h-.2v-.8h.2v.8ZM134.1,222.9h-.2v-.8h.2v.8ZM134.1,221.4h-.2v-.8h.2v.8ZM134.1,219.8h-.2v-.8h.2v.8ZM134.1,218.3h-.2v-.8h.2v.8ZM134.1,216.8h-.2v-.8h.2v.8ZM134.1,215.2h-.2v-.8h.2v.8ZM135.4,236.8h-.2v-.8h.2v.8ZM135.4,235.2h-.2v-.8h.2v.8ZM135.4,233.7h-.2v-.8h.2v.8ZM135.4,232.2h-.2v-.9h.2v.9ZM135.4,230.6h-.2v-.8h.2v.8ZM135.4,229.1h-.2v-.8h.2v.8ZM135.4,227.5h-.2v-.8h.2v.8ZM135.4,226h-.2v-.8h.2v.8ZM135.4,224.5h-.2v-.8h.2v.8ZM135.4,222.9h-.2v-.8h.2v.8ZM135.4,221.4h-.2v-.8h.2v.8ZM135.4,219.8h-.2v-.8h.2v.8ZM135.4,218.3h-.2v-.8h.2v.8ZM135.4,216.8h-.2v-.8h.2v.8ZM135.4,215.2h-.2v-.8h.2v.8ZM136,236.8h-.4v-.8h.4v.8ZM136,235.2h-.4v-.8h.4v.8ZM136,233.7h-.4v-.8h.4v.8ZM136,232.2h-.4v-.9h.4v.9ZM136,230.6h-.4v-.8h.4v.8ZM136,229.1h-.4v-.8h.4v.8ZM136,227.5h-.4v-.8h.4v.8ZM136,226h-.4v-.8h.4v.8ZM136,224.5h-.4v-.8h.4v.8ZM136,222.9h-.4v-.8h.4v.8ZM136,221.4h-.4v-.8h.4v.8ZM136,219.8h-.4v-.8h.4v.8ZM136,218.3h-.4v-.8h.4v.8ZM136,216.8h-.4v-.8h.4v.8ZM136,215.2h-.4v-.8h.4v.8ZM136.5,236.8h-.2v-.8h.2v.8ZM136.5,235.2h-.2v-.8h.2v.8ZM136.5,233.7h-.2v-.8h.2v.8ZM136.5,232.2h-.2v-.9h.2v.9ZM136.5,230.6h-.2v-.8h.2v.8ZM136.5,229.1h-.2v-.8h.2v.8ZM136.5,227.5h-.2v-.8h.2v.8ZM136.5,226h-.2v-.8h.2v.8ZM136.5,224.5h-.2v-.8h.2v.8ZM136.5,222.9h-.2v-.8h.2v.8ZM136.5,221.4h-.2v-.8h.2v.8ZM136.5,219.8h-.2v-.8h.2v.8ZM136.5,218.3h-.2v-.8h.2v.8ZM136.5,216.8h-.2v-.8h.2v.8ZM136.5,215.2h-.2v-.8h.2v.8ZM137.8,236.8h-.2v-.8h.2v.8ZM137.8,235.2h-.2v-.8h.2v.8ZM137.8,233.7h-.2v-.8h.2v.8ZM137.8,232.2h-.2v-.9h.2v.9ZM137.8,230.6h-.2v-.8h.2v.8ZM137.8,229.1h-.2v-.8h.2v.8ZM137.8,227.5h-.2v-.8h.2v.8ZM137.8,226h-.2v-.8h.2v.8ZM137.8,224.5h-.2v-.8h.2v.8ZM137.8,222.9h-.2v-.8h.2v.8ZM137.8,221.4h-.2v-.8h.2v.8ZM137.8,219.8h-.2v-.8h.2v.8ZM137.8,218.3h-.2v-.8h.2v.8ZM137.8,216.8h-.2v-.8h.2v.8ZM137.8,215.2h-.2v-.8h.2v.8ZM138.3,236.8h-.4v-.8h.4v.8ZM138.3,235.2h-.4v-.8h.4v.8ZM138.3,233.7h-.4v-.8h.4v.8ZM138.3,232.2h-.4v-.9h.4v.9ZM138.3,230.6h-.4v-.8h.4v.8ZM138.3,229.1h-.4v-.8h.4v.8ZM138.3,227.5h-.4v-.8h.4v.8ZM138.3,226h-.4v-.8h.4v.8ZM138.3,224.5h-.4v-.8h.4v.8ZM138.3,222.9h-.4v-.8h.4v.8ZM138.3,221.4h-.4v-.8h.4v.8ZM138.3,219.8h-.4v-.8h.4v.8ZM138.3,218.3h-.4v-.8h.4v.8ZM138.3,216.8h-.4v-.8h.4v.8ZM138.3,215.2h-.4v-.8h.4v.8ZM138.7,236.8h-.2v-.8h.2v.8ZM138.7,235.2h-.2v-.8h.2v.8ZM138.7,233.7h-.2v-.8h.2v.8ZM138.7,232.2h-.2v-.9h.2v.9ZM138.7,230.6h-.2v-.8h.2v.8ZM138.7,229.1h-.2v-.8h.2v.8ZM138.7,227.5h-.2v-.8h.2v.8ZM138.7,226h-.2v-.8h.2v.8ZM138.7,224.5h-.2v-.8h.2v.8ZM138.7,222.9h-.2v-.8h.2v.8ZM138.7,221.4h-.2v-.8h.2v.8ZM138.7,219.8h-.2v-.8h.2v.8ZM138.7,218.3h-.2v-.8h.2v.8ZM138.7,216.8h-.2v-.8h.2v.8ZM138.7,215.2h-.2v-.8h.2v.8ZM139,242.8v-.3.3c.1,0,0,0,0,0h0M139.1,243.2h0q0,0,0,0h0c0-.1,0,0,0,0ZM139.2,243.2h0c0-.1,0,0,0,0ZM139.2,242.8h0v-.2c-.1,0-.1-.1-.1-.1v.3h.1ZM139.4,243.2h0q0,0,0,0h0c0-.1,0,0,0,0ZM139.4,242.8h0s-.1,0,0,0v-.2c-.1,0-.1-.1-.1-.1v.3h.1ZM140,240.5s0,.1,0,0c-.2.1-.2,0-.2,0v-.8h.2v.8ZM140,239h-.2v-.8h.2v.8ZM140,236.8h-.2v-.8h.2v.8ZM140,235.2h-.2v-.8h.2v.8ZM140,233.7h-.2v-.8h.2v.8ZM140,232.2h-.2v-.9h.2v.9ZM140,230.6h-.2v-.8h.2v.8ZM140,229.1h-.2v-.8h.2v.8ZM140,227.5h-.2v-.8h.2v.8ZM140,226h-.2v-.8h.2v.8ZM140,224.5h-.2v-.8h.2v.8ZM140,222.9h-.2v-.8h.2v.8ZM140,221.4h-.2v-.8h.2v.8ZM140,219.8h-.2v-.8h.2v.8ZM140,218.3h-.2v-.8h.2v.8ZM140,216.8h-.2v-.8h.2v.8ZM140,215.2h-.2v-.8h.2v.8ZM140.6,240.5s0,.1-.1.1-.1-.1-.1-.1v-.8h.4v.8h-.2,0ZM140.6,239h-.4v-.8h.4v.8ZM140.6,236.8h-.4v-.8h.4v.8ZM140.6,235.2h-.4v-.8h.4v.8ZM140.6,233.7h-.4v-.8h.4v.8ZM140.6,232.2h-.4v-.9h.4v.9ZM140.6,230.6h-.4v-.8h.4v.8ZM140.6,229.1h-.4v-.8h.4v.8ZM140.6,227.5h-.4v-.8h.4v.8ZM140.6,226h-.4v-.8h.4v.8ZM140.6,224.5h-.4v-.8h.4v.8ZM140.6,222.9h-.4v-.8h.4v.8ZM140.6,221.4h-.4v-.8h.4v.8ZM140.6,219.8h-.4v-.8h.4v.8ZM140.6,218.3h-.4v-.8h.4v.8ZM140.6,216.8h-.4v-.8h.4v.8ZM140.6,215.2h-.4v-.8h.4v.8ZM141.1,240.5s0,.1,0,0c-.2.1-.2,0-.2,0v-.8h.2v.8ZM141.1,239h-.2v-.8h.2v.8ZM141.1,236.8h-.2v-.8h.2v.8ZM141.1,235.2h-.2v-.8h.2v.8ZM141.1,233.7h-.2v-.8h.2v.8ZM141.1,232.2h-.2v-.9h.2v.9ZM141.1,230.6h-.2v-.8h.2v.8ZM141.1,229.1h-.2v-.8h.2v.8ZM141.1,227.5h-.2v-.8h.2v.8ZM141.1,226h-.2v-.8h.2v.8ZM141.1,224.5h-.2v-.8h.2v.8ZM141.1,222.9h-.2v-.8h.2v.8ZM141.1,221.4h-.2v-.8h.2v.8ZM141.1,219.8h-.2v-.8h.2v.8ZM141.1,218.3h-.2v-.8h.2v.8ZM141.1,216.8h-.2v-.8h.2v.8ZM141.1,215.2h-.2v-.8h.2v.8ZM141.2,246.1s0,.2,0,0c-.1.2-.1,0,0,0v-.2c-.1,0,0,0,0,0v.2ZM141.2,245.8s0,.1,0,0c-.1.1-.1,0,0,0v-.2c-.1,0,0,0,0,0v.2ZM141.2,245.3s0,.1,0,0c-.1.1-.1,0,0,0v-.2c-.1,0,0,0,0,0v.2ZM141.3,246.6h0v-.2c-.1,0,0,0,0,0v.2ZM141.5,246.1s0,.2,0,0c-.2.2-.2,0,0,0v-.2c-.1,0,0,0,0,0v.2ZM141.5,245.8s0,.1,0,0c-.2.1-.2,0,0,0v-.2c-.1,0,0,0,0,0v.2ZM141.5,245.3s0,.1,0,0c-.2.1-.2,0,0,0v-.2c-.1,0,0,0,0,0v.2ZM141.6,246.1s0,.2,0,0c-.1.2-.1,0,0,0v-.2c-.1,0,0,0,0,0v.2ZM141.6,245.8s0,.1,0,0c-.1.1-.1,0,0,0v-.2c-.1,0,0,0,0,0v.2ZM141.6,245.3s0,.1,0,0c-.1.1-.1,0,0,0v-.2c-.1,0,0,0,0,0v.2ZM141.8,240.5s0,.1,0,0c-.2.1-.2,0-.2,0v-.8h.2v.8ZM141.8,239h-.2v-.8h.2v.8ZM141.8,236.8v-.8h.4v.8s0,.1-.2.1h-.2M142.4,240.5s0,.1-.1.1-.1-.1-.1-.1v-.8h.4v.8h-.2,0ZM142.4,239h-.4v-.8h.4v.8ZM142.4,236.8v-.8h.4v.8s0,.1-.2.1h-.2M142.9,240.5s0,.1,0,0c-.2.1-.2,0-.2,0v-.8h.2v.8ZM142.9,239h-.2v-.8h.2v.8ZM143.2,242.8v-.3.3q.1,0,0,0h0M143.4,243.2h0c0-.1,0,0,0,0ZM143.6,243.2s-.1,0,0,0q0,0,0,0h0c0-.1,0,0,0,0ZM143.6,242.8h0q0,0,0,0v-.2c-.1,0-.1-.1-.1-.1v.3h.1ZM143.7,243.2h0s-.1,0,0,0h0c0-.1,0,0,0,0ZM143.7,242.8h0v-.2c-.1,0-.1-.1-.1-.1v.3h.1ZM146.3,249.6c-.1,0-.1-.1,0,0h0ZM152.2,257.5h-.5v-1.1h.5v1.1ZM159.2,244.5h-.2v-.7h.2v.7ZM159.2,243.2h-.2v-.7h.2v.7ZM159.2,241.9h-.2v-.7h.2v.7ZM159.2,240.6h-.2v-.7h.2v.7ZM159.2,239.4h-.2v-.7h.2v.7ZM159.2,238.1h-.2v-.7h.2v.7ZM159.2,236.8h-.2v-.7h.2v.7ZM159.2,235.5h-.2v-.7h.2v.7ZM159.2,234.2h-.2v-.7h.2v.7ZM159.2,232.9h-.2v-.7h.2v.7ZM159.2,231.6h-.2v-.7h.2v.7ZM159.2,230.4h-.2v-.7h.2v.7ZM159.2,229.1h-.2v-.7h.2v.7ZM159.2,227.8h-.2v-.7h.2v.7ZM159.2,226.5h-.2v-.7h.2v.7ZM159.2,225.2h-.2v-.7h.2v.7ZM159.2,223.9h-.2v-.7h.2v.7ZM159.2,222.7h-.2v-.7h.2v.7ZM159.2,221.4h-.2v-.7h.2v.7ZM159.2,220.1h-.2v-.7h.2v.7ZM159.2,218.8h-.2v-.7h.2v.7ZM159.2,217.5h-.2v-.7h.2v.7ZM159.2,216.2h-.2v-.7h.2v.7ZM159.2,215h-.2v-.7h.2v.7ZM159.9,244.6h-.2v-.7h.2v.7ZM159.9,243.3h-.2v-.7h.2v.7ZM159.9,242h-.2v-.7h.2v.7ZM159.9,240.7h-.2v-.7h.2v.7ZM159.9,239.4h-.2v-.7h.2v.7ZM159.9,238.2h-.2v-.7h.2v.7ZM159.9,236.9h-.2v-.7h.2v.7ZM159.9,235.6h-.2v-.7h.2v.7ZM159.9,234.3h-.2v-.7h.2v.7ZM159.9,233h-.2v-.7h.2v.7ZM159.9,231.7h-.2v-.7h.2v.7ZM159.9,230.4h-.2v-.7h.2v.7ZM159.9,229.1h-.2v-.7h.2v.7ZM159.9,227.8h-.2v-.7h.2v.7ZM159.9,226.6h-.2v-.7h.2v.7ZM159.9,225.3h-.2v-.7h.2v.7ZM159.9,224h-.2v-.7h.2v.7ZM159.9,222.7h-.2v-.7h.2v.7ZM159.9,221.4h-.2v-.7h.2v.7ZM159.9,220.1h-.2v-.7h.2v.7ZM159.9,218.8h-.2v-.6h.2v.6ZM159.9,217.5h-.2v-.7h.2v.7ZM159.9,216.2h-.2v-.7h.2v.7ZM159.9,215h-.2v-.7h.2v.7ZM160.6,244.7h-.2v-.7h.2v.7ZM160.6,243.4h-.2v-.7h.2v.7ZM160.6,242.1h-.2v-.7h.2v.7ZM160.6,240.8h-.2v-.7h.2v.7ZM160.6,239.5h-.2v-.7h.2v.7ZM160.6,238.2h-.2v-.7h.2v.7ZM160.6,237h-.2v-.7h.2v.7ZM160.6,235.7h-.2v-.7h.2v.7ZM160.6,234.4h-.2v-.7h.2v.7ZM160.6,233.1h-.2v-.7h.2v.7ZM160.6,231.8h-.2v-.7h.2v.7ZM160.6,230.5h-.2v-.7h.2v.7ZM160.6,229.2h-.2v-.7h.2v.7ZM160.6,227.9h-.2v-.7h.2v.7ZM160.6,226.6h-.2v-.7h.2v.7ZM160.6,225.3h-.2v-.7h.2v.7ZM160.6,224h-.2v-.7h.2v.7ZM160.6,222.7h-.2v-.7h.2v.7ZM160.6,221.4h-.2v-.7h.2v.7ZM160.6,220.1h-.2v-.7h.2v.7ZM160.6,218.8h-.2v-.6h.2v.6ZM160.6,217.5h-.2v-.7h.2v.7ZM160.6,216.2h-.2v-.7h.2v.7ZM160.6,215h-.2v-.7h.2v.7ZM161.2,244.8h-.2v-.7h.2v.7ZM161.2,243.5h-.2v-.7h.2v.7ZM161.2,242.2h-.2v-.7h.2v.7ZM161.2,240.9h-.2v-.7h.2v.7ZM161.2,239.6h-.2v-.7h.2v.7ZM161.2,238.3h-.2v-.7h.2v.7ZM161.2,237h-.2v-.7h.2v.7ZM161.2,235.7h-.2v-.7h.2v.7ZM161.2,234.4h-.2v-.7h.2v.7ZM161.2,233.1h-.2v-.7h.2v.7ZM161.2,231.8h-.2v-.6h.2v.6ZM161.2,230.5h-.2v-.7h.2v.7ZM161.2,229.2h-.2v-.7h.2v.7ZM161.2,227.9h-.2v-.7h.2v.7ZM161.2,226.6h-.2v-.7h.2v.7ZM161.2,225.3h-.2v-.7h.2v.7ZM161.2,224h-.2v-.7h.2v.7ZM161.2,222.7h-.2v-.7h.2v.7ZM161.2,221.4h-.2v-.7h.2v.7ZM161.2,220.1h-.2v-.7h.2v.7ZM161.2,218.8h-.2v-.6h.2v.6ZM161.2,217.5h-.2v-.7h.2v.7ZM161.2,216.3h-.2v-.7h.2v.7ZM161.2,215h-.2v-.7h.2v.7ZM161.8,214.3h.7v.7h-.7v-.7ZM161.8,215.6h.7v.7h-.7v-.7ZM161.8,216.9h.7v.7h-.7v-.7ZM161.8,218.2h.7v.7h-.7v-.7ZM161.8,219.5h.7v.7h-.7v-.7ZM161.8,220.8h.7v.7h-.7v-.7ZM161.8,222.1h.7v.7h-.7v-.7ZM161.8,223.4h.7v.7h-.7v-.7ZM161.8,224.7h.7v.7h-.7v-.7ZM161.8,226h.7v.7h-.7v-.7ZM161.8,227.3h.7v.7h-.7v-.7ZM161.8,228.6h.7v.7h-.7v-.7ZM161.8,229.9h.7v.7h-.7v-.7ZM161.8,231.2h.7v.7h-.7v-.7ZM161.8,232.5h.7v.7h-.7v-.7ZM161.8,233.8h.7v.7h-.7v-.7ZM161.8,235.1h.7v.7h-.7v-.7ZM161.8,236.4h.7v.7h-.7v-.7ZM161.8,237.7h.7v.7h-.7v-.7ZM161.8,239h.7v.7h-.7v-.7ZM161.8,240.3h.7v.7h-.7v-.7ZM161.8,241.6h.7v.7h-.7v-.7ZM161.8,242.9h.7v.7h-.7v-.7ZM161.8,244.2h.7v.7h-.7v-.7ZM162.5,246.1h-.7v-.7h.7v.7ZM162.8,214.3h.1v.7h-.1v-.7ZM162.8,215.6h.1v.7h-.1v-.7ZM162.8,216.9h.1v.7h-.1v-.7ZM162.8,218.2h.1v.7h-.1v-.7ZM162.8,219.5h.1v.7h-.1v-.7ZM162.8,220.8h.1v.7h-.1v-.7ZM162.8,222.1h.1v.7h-.1v-.7ZM162.8,223.4h.1v.7h-.1v-.7ZM162.8,224.7h.1v.7h-.1v-.7ZM162.8,226h.1v.7h-.1v-.7ZM162.8,227.3h.1v.7h-.1v-.7ZM162.8,228.6h.1v.7h-.1v-.7ZM162.8,229.9h.1v.7h-.1v-.7ZM162.8,231.2h.1v.7h-.1v-.7ZM162.8,232.5h.1v.7h-.1v-.7ZM162.8,233.8h.1v.7h-.1v-.7ZM162.8,235.1h.1v.7h-.1v-.7ZM162.8,236.4h.1v.7h-.1v-.7ZM162.8,237.7h.1v.7h-.1v-.7ZM162.8,239h.1v.7h-.1v-.7ZM162.8,240.3h.1v.7h-.1v-.7ZM162.8,241.6h.1v.7h-.1v-.7ZM162.8,242.9h.1v.7h-.1v-.7ZM162.8,244.1h.1v.7h-.1v-.7ZM163,246.1h-.1v-.7h.1v.7ZM163.4,214.3h.7v.7h-.7v-.7ZM163.4,215.6h.7v.7h-.7v-.7ZM163.4,216.9h.7v.7h-.7v-.7ZM163.4,218.2h.7v.7h-.7v-.7ZM163.4,219.5h.7v.7h-.7v-.7ZM163.4,220.8h.7v.7h-.7v-.7ZM163.4,222.1h.7v.7h-.7v-.7ZM163.4,223.4h.7v.7h-.7v-.7ZM163.4,224.7h.7v.7h-.7v-.7ZM163.4,226h.7v.7h-.7v-.7ZM163.4,227.3h.7v.7h-.7v-.7ZM163.4,228.6h.7v.7h-.7v-.7ZM163.4,229.9h.7v.7h-.7v-.7ZM163.4,231.2h.7v.7h-.7v-.7ZM163.4,232.4h.7v.7h-.7v-.7ZM163.4,233.7h.7v.7h-.7v-.7ZM163.4,235h.7v.7h-.7v-.7ZM163.4,236.3h.7v.7h-.7v-.7ZM163.4,237.6h.7v.7h-.7v-.7ZM163.4,238.9h.7v.7h-.7v-.7ZM163.4,240.2h.7v.7h-.7v-.7ZM163.4,241.5h.7v.7h-.7v-.7ZM163.4,242.8h.7v.7h-.7v-.7ZM164.1,244.1v.7h-.7v-.7h.7ZM164.1,246h-.7v-.6h.7v.6ZM164.3,214.3h.1v.7h-.1v-.7ZM164.3,215.6h.1v.7h-.1v-.7ZM164.3,216.9h.1v.7h-.1v-.7ZM164.4,218.2v.7h-.1v-.7h.1ZM164.3,219.5h.1v.7h-.1v-.7ZM164.3,220.8h.1v.7h-.1v-.7ZM164.3,222.1h.1v.7h-.1v-.7ZM164.3,223.4h.1v.7h-.1v-.7ZM164.3,224.7h.1v.7h-.1v-.7ZM164.3,225.9h.1v.7h-.1v-.7ZM164.3,227.2h.1v.7h-.1v-.7ZM164.3,228.5h.1v.7h-.1v-.7ZM164.3,229.8h.1v.7h-.1v-.7ZM164.3,231.1h.1v.7h-.1v-.7ZM164.3,232.4h.1v.7h-.1v-.7ZM164.3,233.7h.1v.7h-.1v-.7ZM164.3,235h.1v.7h-.1v-.7ZM164.3,236.3h.1v.7h-.1v-.7ZM164.3,237.6h.1v.7h-.1v-.7ZM164.3,238.9h.1v.7h-.1v-.7ZM164.3,240.2h.1v.7h-.1v-.7ZM164.3,241.5h.1v.7h-.1v-.7ZM164.3,242.8h.1v.7h-.1v-.7ZM164.3,244.1h.1v.7h-.1v-.7ZM164.5,246h-.1v-.6h.1v.6ZM164.9,214.3h.7v.7h-.7v-.7ZM164.9,215.6h.7v.7h-.7v-.7ZM164.9,216.9h.7v.7h-.7v-.7ZM164.9,218.2h.7v.7h-.7v-.7ZM164.9,219.5h.7v.7h-.7v-.7ZM164.9,220.8h.7v.7h-.7v-.7ZM164.9,222.1h.7v.7h-.7v-.7ZM164.9,223.4h.7v.7h-.7v-.7ZM164.9,224.6h.7v.7h-.7v-.7ZM164.9,225.9h.7v.7h-.7v-.7ZM164.9,227.2h.7v.7h-.7v-.7ZM164.9,228.5h.7v.7h-.7v-.7ZM164.9,229.8h.7v.7h-.7v-.7ZM164.9,231.1h.7v.7h-.7v-.7ZM164.9,232.4h.7v.7h-.7v-.7ZM164.9,233.7h.7v.7h-.7v-.7ZM164.9,235h.7v.7h-.7v-.7ZM164.9,236.3h.7v.7h-.7v-.7ZM164.9,237.6h.7v.7h-.7v-.7ZM164.9,238.9h.7v.7h-.7v-.7ZM165.6,240.1v.7h-.7v-.7h.7ZM164.9,241.5h.7v.7h-.7v-.7ZM164.9,242.8h.7v.7h-.7v-.7ZM164.9,244h.7v.7h-.7v-.7ZM165.6,246h-.7v-.7h.7v.7ZM165.8,214.3h.1v.7h-.1v-.7ZM165.8,215.6h.1v.7h-.1v-.7ZM165.8,216.9h.1v.7h-.1v-.7ZM165.8,218.2h.1v.7h-.1v-.7ZM165.8,219.5h.1v.7h-.1v-.7ZM165.8,220.8h.1v.7h-.1v-.7ZM165.8,222h.1v.7h-.1v-.7ZM165.8,223.3h.1v.7h-.1v-.7ZM165.8,224.6h.1v.7h-.1v-.7ZM165.8,225.9h.1v.7h-.1v-.7ZM165.8,227.2h.1v.7h-.1v-.7ZM165.8,228.5h.1v.7h-.1v-.7ZM165.8,229.8h.1v.7h-.1v-.7ZM165.8,231.1h.1v.7h-.1v-.7ZM165.8,232.4h.1v.7h-.1v-.7ZM165.8,233.7h.1v.7h-.1v-.7ZM165.8,235h.1v.7h-.1v-.7ZM165.8,236.3h.1v.7h-.1v-.7ZM165.8,237.5h.1v.7h-.1v-.7ZM165.8,238.8h.1v.7h-.1v-.7ZM165.8,240.1h.1v.7h-.1v-.7ZM165.8,241.4h.1v.7h-.1v-.7ZM165.8,242.7h.1v.7h-.1v-.7ZM165.8,244h.1v.7h-.1v-.7ZM166.1,245.9h-.1v-.7h.1v.7ZM166.4,214.3h.7v.7h-.7v-.7ZM166.4,215.6h.7v.7h-.7v-.7ZM166.4,216.9h.7v.7h-.7v-.7ZM166.4,218.2h.7v.7h-.7v-.7ZM166.4,219.5h.7v.7h-.7v-.7ZM166.4,220.7h.7v.7h-.7v-.7ZM167.2,222v.7h-.7v-.7h.7ZM166.4,223.3h.7v.7h-.7v-.7ZM166.4,224.6h.7v.7h-.7v-.7ZM166.4,225.9h.7v.7h-.7v-.7ZM166.4,227.2h.7v.7h-.7v-.7ZM166.4,228.5h.7v.7h-.7v-.7ZM166.4,229.8h.7v.7h-.7v-.7ZM166.4,231.1h.7v.7h-.7v-.7ZM166.4,232.4h.7v.7h-.7v-.7ZM166.4,233.7h.7v.7h-.7v-.7ZM166.4,234.9h.7v.7h-.7v-.7ZM166.4,236.2h.7v.7h-.7v-.7ZM166.4,237.5h.7v.7h-.7v-.7ZM166.4,238.8h.7v.7h-.7v-.7ZM166.4,240.1h.7v.7h-.7v-.7ZM166.4,241.4h.7v.7h-.7v-.7ZM166.4,242.7h.7v.7h-.7v-.7ZM166.4,244h.7v.7h-.7v-.7ZM167.2,245.9h-.7v-.7h.7v.7ZM167.4,214.3h.1v.7h-.1v-.7ZM167.4,215.6h.1v.7h-.1v-.7ZM167.4,216.9h.1v.7h-.1v-.7ZM167.4,218.2h.1v.7h-.1v-.7ZM167.4,219.5h.1v.7h-.1v-.7ZM167.4,220.7h.1v.7h-.1v-.7ZM167.5,222v.7h-.1v-.7h.1ZM167.4,223.3h.1v.7h-.1v-.7ZM167.4,224.6h.1v.7h-.1v-.7ZM167.4,225.9h.1v.7h-.1v-.7ZM167.4,227.2h.1v.7h-.1v-.7ZM167.4,228.5h.1v.7h-.1v-.7ZM167.4,229.8h.1v.7h-.1v-.7ZM167.4,231h.1v.7h-.1v-.7ZM167.4,232.3h.1v.7h-.1v-.7ZM167.4,233.6h.1v.7h-.1v-.7ZM167.4,234.9h.1v.7h-.1v-.7ZM167.4,236.2h.1v.7h-.1v-.7ZM167.4,237.5h.1v.7h-.1v-.7ZM167.4,238.8h.1v.7h-.1v-.7ZM167.4,240.1h.1v.7h-.1v-.7ZM167.4,241.4h.1v.7h-.1v-.7ZM167.4,242.6h.1v.7h-.1v-.7ZM167.4,243.9h.1v.7h-.1v-.7ZM167.6,245.9h-.1v-.7h.1v.7ZM168,214.3h.7v.7h-.7v-.7ZM168,215.6h.7v.7h-.7v-.7ZM168,216.9h.7v.7h-.7v-.7ZM168,218.2h.7v.7h-.7v-.7ZM168,219.4h.7v.7h-.7v-.7ZM168,220.7h.7v.7h-.7v-.7ZM168.7,222v.7h-.7v-.7h.7ZM168,223.3h.7v.7h-.7v-.7ZM168,224.6h.7v.7h-.7v-.7ZM168,225.9h.7v.7h-.7v-.7ZM168,227.2h.7v.7h-.7v-.7ZM168,228.5h.7v.7h-.7v-.7ZM168,229.7h.7v.7h-.7v-.7ZM168,233.6h.7v.7h-.7v-.7ZM168,234.9h.7v.7h-.7v-.7ZM168,236.2h.7v.7h-.7v-.7ZM168,237.5h.7v.7h-.7v-.7ZM168,238.8h.7v.7h-.7v-.7ZM168,240h.7v.7h-.7v-.7ZM168,241.3h.7v.7h-.7v-.7ZM168.7,242.6v.7h-.7v-.7h.7ZM168,243.9h.7v.7h-.7v-.7ZM168.7,245.8h-.7v-.7h.7v.7ZM168.9,214.3h.1v.7h-.1v-.7ZM168.9,215.6h.1v.7h-.1v-.7ZM168.9,216.9h.1v.7h-.1v-.7ZM168.9,218.2h.1v.7h-.1v-.7ZM168.9,219.4h.1v.7h-.1v-.7ZM168.9,220.7h.1v.7h-.1v-.7ZM168.9,222h.1v.7h-.1v-.7ZM168.9,223.3h.1v.7h-.1v-.7ZM168.9,224.6h.1v.7h-.1v-.7ZM168.9,225.9h.1v.7h-.1v-.7ZM168.9,227.1h.1v.7h-.1v-.7ZM168.9,228.4h.1v.7h-.1v-.7ZM168.9,229.7h.1v.7h-.1v-.7ZM168.9,231h.1v.7h-.1v-.7ZM168.9,232.3h.1v.7h-.1v-.7ZM169,233.6v.7h-.1v-.7h.1ZM168.9,234.9h.1v.7h-.1v-.7ZM168.9,236.1h.1v.7h-.1v-.7ZM168.9,237.4h.1v.7h-.1v-.7ZM168.9,238.7h.1v.7h-.1v-.7ZM168.9,240h.1v.7h-.1v-.7ZM168.9,241.3h.1v.7h-.1v-.7ZM168.9,242.6h.1v.7h-.1v-.7ZM169.2,245.8h-.2v-.7h.1v.7h.1,0ZM169.2,244.5h-.2v-.7h.1v.7h.1,0ZM169.5,214.3h.7v.7h-.7v-.7ZM169.5,215.6h.7v.7h-.7v-.7ZM170.2,216.9v.7h-.7v-.7h.7ZM169.5,218.1h.7v.7h-.7v-.7ZM169.5,219.4h.7v.7h-.7v-.7ZM169.5,222h.7v.7h-.7v-.7ZM169.5,224.6h.7v.7h-.7v-.7ZM170.2,227.1v.7h-.7v-.7h.7ZM169.5,225.9h.7v.7h-.7v-.7ZM169.5,228.4h.7v.7h-.7v-.7ZM170.2,229.7v.7h-.7v-.7h.7ZM169.5,231h.7v.7h-.7v-.7ZM169.5,232.3h.7v.7h-.7v-.7ZM170.2,233.5v.7h-.7v-.6h.7q0-.1,0,0ZM169.5,234.8h.7v.7h-.7v-.7ZM169.5,236.1h.7v.7h-.7v-.7ZM170.2,237.4v.7h-.7v-.7h.7ZM169.5,238.7h.7v.7h-.7v-.7ZM170.2,239.9v.7h-.7v-.7h.7ZM169.5,241.3h.7v.7h-.7v-.7ZM169.5,242.5h.7v.7h-.7v-.7ZM170.2,245.7h-.7v-.7h.7v.7ZM170.2,244.4h-.7v-.7h.7v.7ZM170.5,214.3h.1v.7h-.1v-.7ZM170.5,215.6h.1v.7h-.1v-.7ZM170.5,216.9h.1v.7h-.1v-.7ZM170.5,218.1h.1v.7h-.1v-.7ZM170.5,219.4h.1v.7h-.1v-.7ZM170.5,220.7h.1v.7h-.1v-.7ZM170.6,222v.7h-.1v-.7h.1ZM170.5,223.3h.1v.7h-.1v-.7ZM170.5,224.6h.1v.7h-.1v-.7ZM170.5,225.8h.1v.7h-.1v-.7ZM170.5,227.1h.1v.7h-.1v-.7ZM170.5,228.4h.1v.7h-.1v-.7ZM170.5,229.7h.1v.7h-.1v-.7ZM170.6,232.2v.7h-.1v-.7h.1ZM170.5,231h.1v.7h-.1v-.7ZM170.5,233.5h.1v.7h-.1v-.7ZM170.5,234.8h.1v.7h-.1v-.7ZM170.5,236.1h.1v.7h-.1v-.7ZM170.5,237.4h.1v.7h-.1v-.7ZM170.5,238.7h.1v.7h-.1v-.7ZM170.5,239.9h.1v.7h-.1v-.7ZM170.5,241.2h.1v.7h-.1v-.7ZM170.7,242.5v.7h-.1v-.7h.1ZM170.7,245.7h-.1v-.7h.1v.7ZM170.7,244.4h-.1v-.7h.1v.7ZM171.1,214.3h.7v.7h-.7v-.7ZM171.1,216.9h.7v.7h-.7v-.7ZM171.1,220.7h.7v.7h-.7v-.7ZM171.8,222v.7h-.7v-.7h.7ZM171.1,223.3h.7v.7h-.7v-.7ZM171.1,225.8h.7v.7h-.7v-.7ZM171.1,229.7h.7v.7h-.7v-.7ZM171.8,230.9v.7h-.7v-.7h.7ZM171.1,232.2h.7v.7h-.7v-.7ZM171.1,236.1h.7v.7h-.7v-.7ZM171.1,238.6h.7v.7h-.7v-.7ZM171.1,242.5h.7v.7h-.7v-.7ZM171.8,245.7h-.7v-.7h.7v.7ZM171.8,244.4h-.7v-.7h.7v.7ZM172,214.3h.1v.7h-.1v-.7ZM172,215.6h.1v.7h-.1v-.7ZM172,218.1h.1v.7h-.1v-.7ZM172,219.4h.1v.7h-.1v-.7ZM172,222h.1v.7h-.1v-.7ZM172,223.2h.1v.7h-.1v-.7ZM172.1,224.5v.7h-.1v-.7h.1ZM172,225.8h.1v.7h-.1v-.7ZM172,227.1h.1v.7h-.1v-.7ZM172.1,228.4v.7h-.1v-.7h.1ZM172,229.6h.1v.7h-.1v-.7ZM172,230.9h.1v.7h-.1v-.7ZM172,233.5h.1v.7h-.1v-.7ZM172,234.8h.1v.7h-.1v-.7ZM172,237.3h.1v.7h-.1v-.7ZM172,238.6h.1v.7h-.1v-.7ZM172.2,239.9v.7h-.1v-.7h.1ZM172.2,245.5h-.1v-.7h.1v.7ZM172.2,244.4h-.1v-.7h.1v.7ZM172.2,243.1h-.1v-.8h.1v.8ZM172.2,241.8h-.1v-.7h.1v.7ZM172.6,214.3h.7v.7h-.7v-.7ZM172.6,220.7h.7v.7h-.7v-.7ZM172.6,227.1h.7v.7h-.7v-.7ZM172.6,233.5h.7v.7h-.7v-.7ZM172.6,239.7h.7v.7h-.7v-.7ZM173.3,245.5h-.7v-.7h.7v.7ZM173.3,244.2h-.7v-.7h.7v.7ZM173.3,242.9h-.7v-.7h.7v.7ZM173.3,241.6h-.7v-.7h.7v.7ZM173.7,245.5h-.1v-.7h.1v.7ZM173.7,244.2h-.1v-.7h.1v.7ZM173.7,242.9h-.1v-.7h.1v.7ZM173.7,241.6h-.1v-.7h.1v.7ZM173.7,240.5h-.1v-.7h.1v.7ZM173.7,239.1h-.1v-.7h.1v.7ZM173.7,237.8h-.1v-.7h.1v.7ZM173.7,236.5h-.1v-.6h.1v.6ZM173.7,235.4h-.1v-.7h.1v.7ZM173.7,234.1h-.1v-.8h.1v.8ZM173.7,232.8h-.1v-.7h.1v.7ZM173.7,231.5h-.1v-.7h.1v.7ZM173.7,230.3h-.1v-.7h.1v.7ZM173.7,229h-.1v-.7h.1v.7ZM173.7,227.7h-.1v-.7h.1v.7ZM173.7,226.4h-.1v-.7h.1v.7ZM173.7,225.2h-.1v-.7h.1v.7ZM173.7,223.9h-.1v-.7h.1v.7ZM173.7,222.6h-.1v-.7h.1v.7ZM173.7,221.3h-.1v-.7h.1v.7ZM173.7,220.1h-.1v-.7h.1v.7ZM173.7,218.8h-.1v-.7h.1v.7ZM173.7,217.5h-.1v-.7h.1v.7ZM173.7,216.2h-.1v-.7h.1v.7ZM173.7,215h-.1v-.7h.1v.7ZM174.8,245.4h-.7v-.7h.7v.7ZM174.8,244.1h-.7v-.7h.7v.7ZM174.8,242.9h-.7v-.7h.7v.7ZM174.8,241.6h-.7v-.7h.7v.7ZM174.8,240.3h-.7v-.7h.7v.7ZM174.8,239h-.7v-.7h.7v.7ZM174.8,237.8h-.7v-.7h.7v.7ZM174.8,236.5h-.7v-.6h.7v.6ZM174.8,235.2h-.7v-.7h.7v.7ZM174.8,233.9h-.7v-.7h.7v.7ZM174.8,232.8h-.7v-.7h.7v.7ZM174.8,231.5h-.7v-.7h.7v.7ZM174.8,230.1h-.7v-.7h.7v.7ZM174.8,229h-.7v-.7h.7v.7ZM174.8,227.7h-.7v-.7h.7v.7ZM174.8,226.4h-.7v-.7h.7v.7ZM174.8,225.1h-.7v-.8h.7v.8ZM174.8,223.9h-.7v-.7h.7v.7ZM174.8,222.6h-.7v-.7h.7v.7ZM174.8,221.3h-.7v-.7h.7v.7ZM174.8,220h-.7v-.6h.7v.6ZM174.8,218.8h-.7v-.7h.7v.7ZM174.8,217.5h-.7v-.7h.7v.7ZM174.8,216.2h-.7v-.7h.7v.7ZM174.8,215h-.7v-.7h.7v.7ZM175.2,245.4h-.1v-.7h.1v.7ZM175.2,244.1h-.1v-.7h.1v.7ZM175.2,242.8h-.1v-.7h.1v.7ZM175.2,241.6h-.1v-.7h.1v.7ZM175.2,240.3h-.1v-.7h.1v.7ZM175.2,239h-.1v-.7h.1v.7ZM175.3,237.7h-.1v-.6h.1v.6ZM175.3,236.5h-.1v-.7h.1v.7ZM175.3,235.2h-.1v-.7h.1v.7ZM175.3,233.9h-.1v-.7h.1v.7ZM175.3,232.8h-.1v-.7h.1v.7ZM175.3,231.5h-.1v-.7h.1v.7ZM175.3,230.1h-.1v-.7h.1v.7ZM175.3,228.8h-.1v-.7h.1v.7ZM175.3,227.7h-.1v-.7h.1v.7ZM175.3,226.4h-.1v-.7h.1v.7ZM175.3,225.1h-.1v-.8h.1v.8ZM175.3,223.9h-.1v-.7h.1v.7ZM175.3,222.6h-.1v-.7h.1v.7ZM175.3,221.3h-.1v-.7h.1v.7ZM175.3,220h-.1v-.6h.1v.6ZM175.3,218.8h-.1v-.7h.1v.7ZM175.3,217.5h-.1v-.7h.1v.7ZM175.3,216.2h-.1v-.7h.1v.7ZM175.3,215h-.1v-.7h.1v.7ZM176,245.2h-.1c0,.1,0-.6,0-.6h.1c0-.1,0,.6,0,.6ZM176,243.9h-.1c0,.1,0-.6,0-.6h.1c0-.1,0,.6,0,.6ZM176,242.6h-.1c0,.1,0-.6,0-.6h.1c0-.1,0,.6,0,.6ZM176,241.4h-.1c0,.1,0-.6,0-.6h.1c0-.1,0,.6,0,.6ZM176,240.1h-.1c0,.1,0-.6,0-.6h.1c0-.1,0,.6,0,.6ZM176,238.8h-.1c0,.1,0-.6,0-.6h.1c0-.1,0,.6,0,.6ZM176,237.6h-.1c0,.1,0-.6,0-.6h.1c0-.1,0,.6,0,.6ZM176,236.3h-.1c0,.1,0-.6,0-.6h.1c0-.1,0,.6,0,.6ZM176,235.1h-.1v-.7h.1v.7ZM176,233.8h-.1v-.7h.1v.7ZM176,232.5h-.1v-.7h.1v.7ZM176,231.3h-.1v-.7h.1v.7ZM176,230h-.1v-.7h.1v.7ZM176,228.7h-.1v-.7h.1v.7ZM176,227.5h-.1v-.7h.1v.7ZM176,226.2h-.1v-.7h.1v.7ZM176,225.1h-.1v-.8h.1v.8ZM176,223.8h-.1v-.7h.1v.7ZM176,222.5h-.1v-.7h.1v.7ZM176,221.3h-.1v-.7h.1v.7ZM176,220h-.1v-.6h.1v.6ZM176,218.7h-.1v-.7h.1v.7ZM176,217.5h-.1v-.7h.1v.7ZM176,216.2h-.1v-.7h.1v.7ZM176,215h-.1v-.7h.1v.7ZM176.4,215.6h.1v.7h-.1v-.7ZM176.4,231.8h.1v.7h-.1v-.7ZM176.5,245h-.1c0,.1,0-.6,0-.6h.1c0-.1,0,.6,0,.6ZM176.5,243.6h-.1c0,.1,0-.6,0-.6h.1c0-.1,0,.6,0,.6ZM176.5,242.5h-.1c0,.1,0-.6,0-.6h.1c0-.1,0,.6,0,.6ZM176.5,241.2h-.1c0,.1,0-.6,0-.6h.1c0-.1,0,.6,0,.6ZM176.5,239.9h-.1c0,.1,0-.6,0-.6h.1c0-.1,0,.6,0,.6ZM176.5,238.7h-.1c0,.1,0-.6,0-.6h.1c0-.1,0,.6,0,.6ZM177,244.7h-.1c0,.1,0-.6,0-.6h.1c0-.1,0,.6,0,.6ZM177,243.4h-.1c0,.1,0-.6,0-.6h.1c0-.1,0,.6,0,.6ZM177,242.2h-.1c0,.1,0-.6,0-.6h.1c0-.1,0,.6,0,.6ZM177,240.9h-.1c0,.1,0-.6,0-.6h.1c0-.1,0,.6,0,.6ZM176.9,239.7v-.4h.1v.4h-.1ZM177.5,244.5h-.1c0,.1,0-.6,0-.6h.1c0-.1,0,.6,0,.6ZM177.5,243.2h-.1c0,.1,0-.6,0-.6h.1c0-.1,0,.6,0,.6ZM177.5,242h-.1c0,.1,0-.6,0-.6h.1c0-.1,0,.6,0,.6ZM177.5,240.8h-.1c0,.1,0-.6,0-.6h.1c0-.1,0,.6,0,.6ZM177.3,239.6h0c0-.1.1-.1.1-.1h-.1ZM177.9,244.2h-.1c0,.1,0-.6,0-.6h.1c0-.1,0,.6,0,.6ZM177.9,243.1h-.1c0,.1,0-.6,0-.6h.1c0-.1,0,.6,0,.6ZM177.9,241.8h-.1c0,.1,0-.6,0-.6h.1c0-.1,0,.6,0,.6ZM177.9,240.6h-.1c0,.1,0-.6,0-.6h.1c0-.1,0,.6,0,.6ZM178.4,244h-.1c0,.1,0-.6,0-.6h.1c0-.1,0,.6,0,.6ZM178.4,242.8h-.1c0,.1,0-.6,0-.6h.1c0-.1,0,.6,0,.6ZM178.4,241.6h-.1c0,.1,0-.6,0-.6h.1c0-.1,0,.6,0,.6ZM178.3,240.5v-.7h.1c0-.1,0,.5,0,.5v.2ZM222,241.8v-28.5h.1v28.5h-.1ZM222.5,213.2h.2v28.5h-.2v-28.5ZM223.2,213.2h.2v28.5h-.2v-28.5ZM223.8,213.2h.2v28.5h-.2v-28.5ZM224.5,213.2h.2v28.5h-.2v-28.5ZM225.1,213.2h.2v28.5h-.2v-28.5ZM225.6,213.2h.2v28.5h-.2v-28.5ZM226.4,213.2h.2v28.5h-.2v-28.5ZM227,213.2h.2v28.5h-.2v-28.5ZM227.7,213.2h.2v28.5h-.2v-28.5ZM228.3,213.2h.2v28.5h-.2v-28.5ZM229,213.2h.2v28.5h-.2v-28.5ZM229.9,241.8h-.2v-28.5h.2v28.5ZM253.4,219.3v-.5h.6v.5h-.6ZM248.6,225.9h.4v.7h-.4v-.7ZM249,228.3h-.4v-.6h.4v.6ZM248.6,224.1h.4v.7h-.4v-.7ZM248.6,222.3h.4v.7h-.4v-.7ZM248.6,220.6h.4v.7h-.4v-.7ZM248.6,218.8h.4v.7h-.4v-.7ZM285.2,219.4h0q0,0,0,0t0,0,0,0,0,0,0,0,0,0h1.2c0,.1,3.2,4.6,3.2,4.6l-7.2-5.9h3l.5.7c-.2-.1-.6.1-.7.6q0,0,0,0h0M291,220.1c.1.1.2.1.2.1h9.6l-10.4,3.9-3.2-4.6h3.7v.5c0,0,.1,0,.1.1M300.1,226.5l-1.9,8.8-1.2-1.8,3.1-9c-.1.7-.1,1.4,0,2M270.4,218.1l23.4,11.8,1.2,1.8-24.7-11.7v-1.9h.1ZM295.3,231.8l1.2,1.8-26.1-11.8v-1.7l24.9,11.7ZM270.4,221.7l26.2,12,1.2,1.8-27.4-12.1v-1.7h0ZM296.9,233.3l-1.2-1.8,5.6-10.9h0l-4.4,12.7ZM295.6,231.5l-1.2-1.8,6.7-9.1h0l-5.5,10.9h0ZM294.3,229.7l-1.2-1.8,7.9-7.3h0l-6.7,9.1h0ZM293.1,227.8l-1.2-1.8,9.1-5.7h0l-7.9,7.5ZM291.8,225.9l-1.2-1.8,10.4-3.9h0l-9.2,5.7h0ZM286.8,218.5l-.4-.6h2.5c-.8.4-1.6.5-2.1.6M289.8,224.2l1.3,1.8-12.7-8.1h3.8l7.6,6.3h0ZM291.3,226.1l1.2,1.8-18-9.9h3.8l13,8.1h0ZM292.6,228l1.2,1.8-23.3-11.8h3.8l18.3,10ZM254.1,214.6h-.8v-1.3h.8v1.3ZM253.4,217h.6c0,.1-.6,0-.6,0h0ZM252.4,214.6h-1.1v-1.3h1.1v1.3ZM251.6,216.9h.8v.2h-.8v-.2ZM250.8,217.1h-.8v-.2h.8v.2ZM250.5,214.6h-1.1v-1.3h1.1v1.3ZM249,217.4c0,0-.1.1-.1.2h-.2v-.6h.4v.4h-.1,0ZM252.4,218.7h-.2.2ZM270.4,223.4l27.5,12.1,1.2,1.8-28.7-12.3v-1.6ZM298.2,235.2l1.9-8.6c.1.6.2,1.1.4,1.5l-1.1,8.9-1.2-1.8h0ZM300.1,224.3l1.2-3.6h0l-.6,3.1-.6.5ZM301.3,220.9h0l-.2,2.6-.4.2.6-2.8ZM295.6,213.2c0,.5-2.6,2.5-4.3,3.3-.4.2-.7.4-1.1.6h-4.1l3.6-3.3s.1-.1.1-.6h5.8M288.4,213.3h0l.4.5h0l-4.3,3.3h-14.1v-3.9h18M247.2,225.9h.4v.7h-.4v-.7ZM247.6,228.3h-.4v-.6h.4v.6ZM247.2,224.1h.4v.7h-.4v-.7ZM247.2,222.3h.4v.7h-.4v-.7ZM247.2,220.6h.4v.7h-.4v-.7ZM247.2,218.8h.4v.7h-.4v-.7ZM247.2,217h.4v.7h-.4v-.7ZM245.4,224h.8v.7h-.8v-.7ZM246.3,226.6h-.8v-.7h.8v.7ZM245.4,222.2h.8v.7h-.8v-.7ZM245.4,220.4h.8v.7h-.8v-.7ZM245.4,218.7h.8v.7h-.8v-.7ZM245.4,216.9h.8v.7h-.8v-.7ZM241.5,214.6h0v-1.3h0v1.3ZM234.1,217.5h.8v.7h-.8v-.7ZM234.9,219.5h-.8v-.7h.8v.7ZM234.1,216.3h.8v.7h-.8v-.7ZM234.1,215h.8v.7h-.8v-.7ZM234.1,213.8h.8v.7h-.8v-.7ZM233.8,231.8h-.5v-.6h.5v.6ZM233.8,230.6h-.5v-.7h.5v.7ZM233.8,229.3h-.5v-.7h.5v.7ZM233.8,228.1h-.5v-.7h.5v.7ZM233.8,226.8h-.5v-.7h.5v.7ZM233.8,225.6h-.5v-.7h.5v.7ZM233.8,224.3h-.5v-.7h.5v.7ZM233.8,223.2h-.5v-.7h.5v.7ZM233.8,222h-.5v-.7h.5v.7ZM233.8,220.7h-.5v-.7h.5v.7ZM233.8,219.5h-.5v-.7h.5v.7ZM233.8,218.2h-.5v-.7h.5v.7ZM233.8,217h-.5v-.7h.5v.7ZM233.8,215.7h-.5v-.7h.5v.7ZM233.8,214.5h-.5v-.7h.5v.7ZM235.1,231.8h-1.1v-.6h1.1v.6ZM235.1,230.6h-1.1v-.7h1.1v.7ZM235.1,229.3h-1.1v-.7h1.1v.7ZM235.1,228.1h-1.1v-.7h1.1v.7ZM235.1,226.8h-1.1v-.7h1.1v.7ZM235.1,225.6h-1.1v-.7h1.1v.7ZM235.1,224.3h-1.1v-.7h1.1v.7ZM235.1,223.2h-1.1v-.7h1.1v.7ZM235.1,222h-1.1v-.7h1.1v.7ZM235.1,220.7h-1.1v-.7h1.1v.7ZM236.5,218.2h-1.1v-.7h1.1v.7ZM236.5,217h-1.1v-.7h1.1v.7ZM236.5,215.7h-1.1v-.7h1.1v.7ZM238,248.1h-.7v-.7h.7v.7ZM238,246.8h-.7v-.7h.7v.7ZM238,245.7h-.7v-.7h.7v.7ZM238,244.4h-.7v-.7h.7v.7ZM238,243.2h-.7v-.7h.7v.7ZM238,241.9h-.7v-.7h.7v.7ZM242.8,229.6h-.6v-.5h.6v.5ZM242.8,228.3h-.6v-.6h.6v.6ZM242.8,226.5h-.6v-.5h.6v.5ZM242.8,224.7h-.6v-.6h.6v.6ZM242.8,222.9h-.6v-.5h.6v.5ZM242.8,221.2h-.6v-.6h.6v.6ZM242.8,219.4h-.6v-.5h.6v.5ZM242.8,217.6h-.6v-.6h.6v.6ZM242.9,214.6h-.8v-1.3h.8v1.3ZM243.8,213.3h1.1v1.3h-1.1v-1.3ZM243.9,224h.8v.7h-.8v-.7ZM244.6,226.6h-.8v-.7h.8v.7ZM243.9,222.2h.8v.7h-.8v-.7ZM243.9,220.4h.8v.7h-.8v-.7ZM243.9,218.7h.8v.7h-.8v-.7ZM243.9,216.9h.8v.7h-.8v-.7ZM243.9,227.5h.8v.7h-.8v-.7ZM244,229.1h.6v.5h-.6v-.5ZM245,241.2h-.7v-.7h.7v.7ZM245,239.5h-.7v-.7h.7v.7ZM245,237.8h-.7v-.7h.7v.7ZM245,236.2h-.7v-.7h.7v.7ZM245,234.5h-.7v-.7h.7v.7ZM245,232.9h-.7v-.7h.7v.7ZM245,231.2h-.7v-.7h.7v.7ZM245.4,227.5h.8v.7h-.8v-.7ZM245.5,229.1h.6v.5h-.6v-.5ZM246.5,241.2h-.7v-.7h.7v.7ZM246.5,239.5h-.7v-.7h.7v.7ZM246.5,237.8h-.7v-.7h.7v.7ZM246.5,236.2h-.7v-.7h.7v.7ZM246.5,234.5h-.7v-.7h.7v.7ZM246.5,232.9h-.7v-.7h.7v.7ZM246.5,231.2h-.7v-.7h.7v.7ZM246.7,214.6h-1.1v-1.3h1.1v1.3ZM247.6,241.2h-.4v-.7h.4v.7ZM247.6,239.5h-.4v-.7h.4v.7ZM247.6,237.8h-.4v-.7h.4v.7ZM247.6,236.2h-.4v-.7h.4v.7ZM247.6,234.5h-.4v-.7h.4v.7ZM247.6,232.9h-.4v-.7h.4v.7ZM247.6,231.2h-.4v-.7h.4v.7ZM247.7,229.6h-.6v-.5h.6v.5ZM247.6,213.3h1.1v1.3h-1.1v-1.3ZM249,241.2h-.4v-.7h.4v.7ZM249,239.5h-.4v-.7h.4v.7ZM249,237.8h-.4v-.7h.4v.7ZM249,236.2h-.4v-.7h.4v.7ZM249,234.5h-.4v-.7h.4v.7ZM249,232.9h-.4v-.7h.4v.7ZM249,231.2h-.4v-.7h.4v.7ZM249.1,229.6h-.6v-.5h.6v.5ZM250.5,241.2h-.7v-.7h.7v.7ZM250.5,239.5h-.7v-.7h.7v.7ZM250.5,237.8h-.7v-.7h.7v.7ZM250.5,236.2h-.7v-.7h.7v.7ZM250.5,234.5h-.7v-.7h.7v.7ZM250.5,232.9h-.7v-.7h.7v.7ZM250.5,231.2h-.7v-.7h.7v.7ZM250.6,229.6h-.6v-.5h.6v.5ZM250.8,228.4h-.8v-.7h.8v.7ZM250.8,226.6h-.8v-.7h.8v.7ZM250.8,224.8h-.8v-.7h.8v.7ZM250.8,223h-.8v-.7h.8v.7ZM250.8,221.3h-.8v-.7h.8v.7ZM250.8,219.5h-.8v-.7h.8v.7ZM251.9,241.2h-.7v-.7h.7v.7ZM251.9,239.5h-.7v-.7h.7v.7ZM251.9,237.8h-.7v-.7h.7v.7ZM251.9,236.2h-.7v-.7h.7v.7ZM251.9,234.5h-.7v-.7h.7v.7ZM251.9,232.9h-.7v-.7h.7v.7ZM251.9,231.2h-.7v-.7h.7v.7ZM252.3,229.6h-.6v-.5h.6v.5ZM252.4,228.4h-.8v-.7h.8v.7ZM252.4,226.6h-.8v-.7h.8v.7ZM252.4,224.8h-.8v-.7h.8v.7ZM252.4,223h-.8v-.7h.8v.7ZM252.4,221.3h-.8v-.7h.8v.7ZM251.6,219.5v-.7h.4l.5.2v.6h-.9q0-.1,0-.1ZM253.9,229.6h-.6v-.5h.6v.5ZM253.9,228.3h-.6v-.6h.6v.6ZM253.9,226.5h-.6v-.5h.6v.5ZM253.9,224.7h-.6v-.6h.6v.6ZM253.9,222.9h-.6v-.5h.6v.5ZM253.9,221.2h-.6v-.6h.6v.6ZM270.4,226.4v-1.4l28.8,12.4,1.2,1.8-30-12.8ZM300.8,238.9l-1.2-1.8h0l1.1-8.8c.1.2.2.5.4.7,0,.1.1.1.1.2l-.4,9.7h0ZM301.2,223.5l.2-2.5h0v2.2c-.1,0-.2.3-.2.3ZM301.4,223.3v-2.1c.1,0,.9,1.4.9,1.4l-.9.7h0ZM318.4,216.8h-.7v-.6h.7v.6ZM317.7,215.3h.7v.6h-.7v-.6ZM318.7,220.8h-.7v-.6h.7v.6ZM318.1,220h0l.4-.6h.4v.6h-.8ZM320.3,220.8h-.7v-.6h.7v.6ZM319.7,219.4h.7v.6h-.7v-.6ZM320.7,216.8h-.7v-.6h.7v.6ZM320.7,215.9h-.7v-.6h.7v.6ZM322.2,223.4h-.4v-.5h.4v.5ZM322.9,223.4h-.4v-.5h.4v.5ZM324.3,216.8h-1.1v-2.6h1.1v2.6ZM325.7,220.3h-.7v-.6h.7v.6ZM325.7,219.6h-.7v-.6h.7v.6ZM326.4,216.8h-.7v-.6h.7v.6ZM326.4,215.9h-.7v-.6h.7v.6ZM329.1,216.8h-.7v-.6h.7v.6ZM329.1,215.9h-.7v-.6h.7v.6ZM333.2,233.7h-.6v-.5h.6v.5ZM333.8,235.2h-.4v-.8h.4v.8ZM334.6,235.2h-.7v-.8h.7v.8ZM334.2,219.1c.1,0,.2.1.2.2s-.1.2-.2.2-.2-.1-.2-.2c0-.2.1-.2.2-.2M334,216.1c0-.1.1-.2.2-.2s.2.1.2.2-.1.2-.2.2-.2-.1-.2-.2M334.2,222.3c.1,0,.2.1.2.2s-.1.2-.2.2-.2-.1-.2-.2.1-.2.2-.2M334.1,229.1h.1v.2h-.1v-.2ZM334.2,229.7h-.1v-.2h.1v.2ZM334.1,226.7h.1v.2h-.1v-.2ZM334.1,226.4h.1v.2h-.1v-.2ZM334.2,231.7c.1,0,.2.1.2.2s-.1.2-.2.2-.2-.1-.2-.2.1-.2.2-.2M335.1,235.2h-.4v-.8h.4v.8ZM335.8,233.7h-.6v-.5h.6v.5ZM314.1,213.9v2.4c-1.9-1.3-3.6-2.5-3.8-3.1h3.7v.7h.1,0Z"/>
              </g>
            </g>
          </g>
        </g>
      </g>
    </g>
  </g>
</svg>