<?xml version="1.0" encoding="UTF-8"?>
<svg id="Layer_2" data-name="Layer 2" xmlns="http://www.w3.org/2000/svg" xmlns:xlink="http://www.w3.org/1999/xlink" viewBox="0 0 612 792">
  <defs>
    <clipPath id="clippath">
      <rect width="612" height="792" style="fill: none;"/>
    </clipPath>
    <clipPath id="clippath-1">
      <rect x="39" y="265" width="166.92" height="250.32" style="fill: none;"/>
    </clipPath>
    <clipPath id="clippath-2">
      <rect x="39" y="265" width="166.92" height="250.32" style="fill: none;"/>
    </clipPath>
    <clipPath id="clippath-3">
      <rect x="39" y="265" width="166.92" height="250.32" style="fill: none;"/>
    </clipPath>
    <clipPath id="clippath-4">
      <rect y="8.9" width="612" height="156.53" style="fill: none;"/>
    </clipPath>
    <clipPath id="clippath-5">
      <rect x="51.4" y="8.9" width="226.1" height="122.35" style="fill: none;"/>
    </clipPath>
  </defs>
  <g id="Layer_1-2" data-name="Layer 1">
    <g style="clip-path: url(#clippath);">
      <g style="clip-path: url(#clippath-1);">
        <path d="m67.67,268.08c.98-.17,2.06-.25,3.17-.25,1.94,0,3.44.49,4.4,1.43.83.74,1.38,1.88,1.38,3.53,0,2.26-.93,4.34-2.44,5.58-1.4,1.14-3.15,1.64-5.62,1.64-1.26,0-2.44-.09-3.12-.19l2.23-11.74Zm.16,10.16c.41.06.87.07,1.32.07,1.63,0,2.93-.52,3.81-1.49.93-1.01,1.42-2.43,1.42-3.99,0-2-1.05-3.34-3.56-3.34-.49,0-1,.03-1.34.1l-1.65,8.64Zm9.46,1.69l1.65-8.68h2.08l-1.65,8.68h-2.08Zm1.98-11.05c0-.73.57-1.25,1.25-1.25s1.11.45,1.11,1.11c-.01.76-.58,1.24-1.29,1.24-.63,0-1.07-.45-1.07-1.11Zm2.68,9.11c.46.25,1.3.58,2.09.57.85,0,1.34-.49,1.34-1.07,0-.54-.29-.89-1.14-1.33-1-.52-1.72-1.27-1.72-2.26,0-1.67,1.46-2.85,3.52-2.85.91,0,1.66.21,2.04.44l-.52,1.5c-.34-.17-.92-.39-1.63-.39-.78,0-1.32.41-1.32,1,0,.49.38.82,1.12,1.2.95.51,1.8,1.23,1.8,2.33,0,1.91-1.6,2.97-3.69,2.97-1.02,0-1.97-.3-2.43-.64l.53-1.48Zm13.06,1.63c-.5.25-1.39.49-2.49.49-2.18,0-3.51-1.4-3.51-3.47,0-3.03,2.29-5.59,5.51-5.59.77,0,1.45.18,1.78.34l-.54,1.61c-.32-.14-.73-.27-1.31-.27-2.01,0-3.28,1.85-3.28,3.66,0,1.3.75,2.03,1.91,2.03.8,0,1.4-.22,1.85-.42l.08,1.6Zm10.45-8.38l-1.13,5.99c-.2,1.04-.33,1.94-.43,2.69h-1.85l.19-1.51h-.04c-.84,1.13-1.93,1.71-3.02,1.71-1.27,0-2.26-.68-2.26-2.47,0-.45.06-.95.17-1.54l.93-4.87h2.08l-.9,4.73c-.08.44-.14.86-.14,1.2,0,.71.29,1.23,1.1,1.23.96,0,2.08-1.14,2.42-2.95l.8-4.22h2.08Zm.94,6.75c.46.25,1.3.58,2.09.57.85,0,1.34-.49,1.34-1.07,0-.54-.29-.89-1.14-1.33-1-.52-1.72-1.27-1.72-2.26,0-1.67,1.46-2.85,3.52-2.85.91,0,1.66.21,2.04.44l-.52,1.5c-.34-.17-.92-.39-1.63-.39-.78,0-1.32.41-1.32,1,0,.49.38.82,1.12,1.2.95.51,1.8,1.23,1.8,2.33,0,1.91-1.6,2.97-3.69,2.97-1.02,0-1.97-.3-2.43-.64l.53-1.48Zm7.08,0c.46.25,1.3.58,2.09.57.85,0,1.34-.49,1.34-1.07,0-.54-.29-.89-1.14-1.33-1-.52-1.72-1.27-1.72-2.26,0-1.67,1.46-2.85,3.52-2.85.91,0,1.66.21,2.04.44l-.52,1.5c-.34-.17-.92-.39-1.63-.39-.78,0-1.32.41-1.32,1,0,.49.38.82,1.12,1.2.95.51,1.8,1.23,1.8,2.33,0,1.91-1.6,2.97-3.69,2.97-1.02,0-1.97-.3-2.43-.64l.53-1.48Zm13.67,1.44c-.85.45-2.02.69-3.08.69-2.4,0-3.55-1.48-3.55-3.59,0-2.63,1.93-5.48,4.91-5.48,1.71,0,2.81.99,2.81,2.44,0,2.24-2.34,2.95-5.7,2.88-.03.31.04.89.23,1.23.34.59.97.89,1.78.89.98,0,1.77-.25,2.39-.57l.2,1.52Zm-1.99-6.83c-1.29,0-2.15,1.16-2.4,2.21,2.14.02,3.51-.27,3.51-1.31,0-.56-.44-.9-1.11-.9Zm13.53-5.34l-1.82,9.57c-.19,1.01-.34,2.15-.39,3.09h-1.9l.17-1.55h-.04c-.77,1.19-1.85,1.74-2.97,1.74-1.56,0-2.64-1.26-2.64-3.22,0-3.05,2.23-5.85,5.42-5.85.44,0,.97.09,1.34.25l.77-4.03h2.07Zm-3.14,5.73c-.25-.18-.68-.33-1.2-.33-1.78,0-3.1,1.97-3.1,3.92,0,1.05.41,1.86,1.39,1.86.92,0,2.04-1.01,2.39-2.81l.51-2.64Zm10.5-3.27h-3.32l.36-1.81h8.75l-.35,1.81h-3.36l-1.93,10.21h-2.08l1.93-10.21Zm3.89,10.21l1.02-5.36c.23-1.23.35-2.55.44-3.33h1.81c-.06.59-.11,1.19-.2,1.83h.05c.59-1.17,1.54-2.02,2.72-2.02.15,0,.32,0,.45.02l-.4,2.03c-.11-.01-.25-.02-.4-.02-1.47,0-2.41,1.5-2.76,3.35l-.66,3.5h-2.08Zm12.94-.5c-.85.45-2.02.69-3.08.69-2.4,0-3.55-1.48-3.55-3.59,0-2.63,1.93-5.48,4.91-5.48,1.71,0,2.81.99,2.81,2.44,0,2.24-2.34,2.95-5.7,2.88-.03.31.04.89.23,1.23.34.59.97.89,1.78.89.98,0,1.77-.25,2.39-.57l.2,1.52Zm-1.99-6.83c-1.29,0-2.15,1.16-2.4,2.21,2.14.02,3.51-.27,3.51-1.31,0-.56-.44-.9-1.11-.9Zm10.59,6.83c-.85.45-2.02.69-3.08.69-2.4,0-3.55-1.48-3.55-3.59,0-2.63,1.93-5.48,4.91-5.48,1.71,0,2.81.99,2.81,2.44,0,2.24-2.34,2.95-5.7,2.88-.03.31.04.89.23,1.23.34.59.97.89,1.78.89.98,0,1.77-.25,2.39-.57l.2,1.52Zm-1.99-6.83c-1.29,0-2.15,1.16-2.4,2.21,2.14.02,3.51-.27,3.51-1.31,0-.56-.44-.9-1.11-.9Zm3.93,5.39c.46.25,1.3.58,2.09.57.85,0,1.34-.49,1.34-1.07,0-.54-.29-.89-1.14-1.33-1-.52-1.72-1.27-1.72-2.26,0-1.67,1.46-2.85,3.52-2.85.91,0,1.66.21,2.04.44l-.52,1.5c-.34-.17-.92-.39-1.63-.39-.78,0-1.32.41-1.32,1,0,.49.38.82,1.12,1.2.95.51,1.8,1.23,1.8,2.33,0,1.91-1.6,2.97-3.69,2.97-1.02,0-1.97-.3-2.43-.64l.53-1.48Z" style="fill: #63a744;"/>
      </g>
      <line x1="49.82" y1="504.68" x2="195.1" y2="504.68" style="fill: none; stroke: #63a844; stroke-miterlimit: 10; stroke-width: .84px;"/>
      <g style="clip-path: url(#clippath-2);">
        <path d="m50.4,512.13c.35.22.86.39,1.39.39.79,0,1.26-.41,1.26-1.02,0-.55-.33-.88-1.14-1.18-.98-.35-1.59-.87-1.59-1.71,0-.94.78-1.64,1.96-1.64.61,0,1.07.14,1.33.29l-.22.65c-.19-.11-.6-.29-1.14-.29-.82,0-1.13.48-1.13.89,0,.55.37.83,1.19,1.15,1.02.4,1.54.89,1.54,1.77,0,.92-.68,1.74-2.11,1.74-.58,0-1.22-.18-1.54-.39l.21-.66Zm5.44-4.6v1.24h1.12v.6h-1.12v2.31c0,.54.15.84.59.84.2,0,.35-.02.45-.06l.04.61c-.15.06-.4.11-.71.11-.36,0-.66-.12-.85-.33-.22-.24-.31-.62-.31-1.13v-2.34h-.67v-.6h.67v-1.04l.78-.21Zm2.01,2.59c0-.51-.01-.95-.04-1.35h.7l.03.85h.03c.2-.58.68-.94,1.2-.94.09,0,.15,0,.22.02v.75c-.08-.02-.16-.02-.27-.02-.55,0-.94.41-1.05,1-.02.11-.03.24-.03.37v2.3h-.79v-2.97Zm4.85,2.44c.56,0,.9-.1,1.2-.22l.14.57c-.28.13-.76.28-1.44.28-1.33,0-2.13-.88-2.13-2.18s.77-2.33,2.04-2.33c1.41,0,1.78,1.23,1.78,2.03,0,.17,0,.29-.03.37h-3.02c.02,1.05.69,1.48,1.47,1.48Zm.81-2.06c0-.49-.2-1.26-1.08-1.26-.8,0-1.14.72-1.2,1.26h2.27Zm3.67,2.06c.56,0,.9-.1,1.2-.22l.14.57c-.28.13-.76.28-1.44.28-1.33,0-2.13-.88-2.13-2.18s.77-2.33,2.04-2.33c1.41,0,1.78,1.23,1.78,2.03,0,.17,0,.29-.03.37h-3.02c.02,1.05.69,1.48,1.47,1.48Zm.81-2.06c0-.49-.2-1.26-1.08-1.26-.8,0-1.14.72-1.2,1.26h2.27Zm2.7-2.98v1.24h1.12v.6h-1.12v2.31c0,.54.15.84.59.84.2,0,.35-.02.45-.06l.04.61c-.15.06-.4.11-.71.11-.36,0-.66-.12-.85-.33-.22-.24-.31-.62-.31-1.13v-2.34h-.67v-.6h.67v-1.04l.78-.21Z" style="fill: #31261d;"/>
      </g>
      <line x1="40.11" y1="304.86" x2="204.8" y2="304.86" style="fill: none; stroke: #e6e7e8; stroke-miterlimit: 10; stroke-width: .56px;"/>
      <line x1="40.11" y1="319.91" x2="204.8" y2="319.91" style="fill: none; stroke: #e6e7e8; stroke-miterlimit: 10; stroke-width: .56px;"/>
      <line x1="40.11" y1="334.95" x2="204.8" y2="334.95" style="fill: none; stroke: #e6e7e8; stroke-miterlimit: 10; stroke-width: .56px;"/>
      <line x1="40.11" y1="350" x2="204.8" y2="350" style="fill: none; stroke: #e6e7e8; stroke-miterlimit: 10; stroke-width: .56px;"/>
      <line x1="40.11" y1="365.04" x2="204.8" y2="365.04" style="fill: none; stroke: #e6e7e8; stroke-miterlimit: 10; stroke-width: .56px;"/>
      <line x1="40.11" y1="380.09" x2="204.8" y2="380.09" style="fill: none; stroke: #e6e7e8; stroke-miterlimit: 10; stroke-width: .56px;"/>
      <line x1="40.11" y1="395.13" x2="204.8" y2="395.13" style="fill: none; stroke: #e6e7e8; stroke-miterlimit: 10; stroke-width: .56px;"/>
      <line x1="40.11" y1="410.17" x2="204.8" y2="410.17" style="fill: none; stroke: #e6e7e8; stroke-miterlimit: 10; stroke-width: .56px;"/>
      <line x1="40.11" y1="470.35" x2="204.8" y2="470.35" style="fill: none; stroke: #e6e7e8; stroke-miterlimit: 10; stroke-width: .56px;"/>
      <line x1="40.11" y1="440.26" x2="204.8" y2="440.26" style="fill: none; stroke: #e6e7e8; stroke-miterlimit: 10; stroke-width: .56px;"/>
      <line x1="40.11" y1="455.31" x2="204.8" y2="455.31" style="fill: none; stroke: #e6e7e8; stroke-miterlimit: 10; stroke-width: .56px;"/>
      <line x1="40.11" y1="425.22" x2="204.8" y2="425.22" style="fill: none; stroke: #e6e7e8; stroke-miterlimit: 10; stroke-width: .56px;"/>
      <line x1="190.16" y1="288.84" x2="190.16" y2="486.38" style="fill: none; stroke: #e6e7e8; stroke-miterlimit: 10; stroke-width: .56px;"/>
      <line x1="145.02" y1="288.84" x2="145.02" y2="486.38" style="fill: none; stroke: #e6e7e8; stroke-miterlimit: 10; stroke-width: .56px;"/>
      <line x1="129.98" y1="288.84" x2="129.98" y2="486.38" style="fill: none; stroke: #e6e7e8; stroke-miterlimit: 10; stroke-width: .56px;"/>
      <line x1="114.94" y1="288.84" x2="114.94" y2="486.38" style="fill: none; stroke: #e6e7e8; stroke-miterlimit: 10; stroke-width: .56px;"/>
      <line x1="99.89" y1="288.84" x2="99.89" y2="486.38" style="fill: none; stroke: #e6e7e8; stroke-miterlimit: 10; stroke-width: .56px;"/>
      <line x1="84.85" y1="288.84" x2="84.85" y2="486.38" style="fill: none; stroke: #e6e7e8; stroke-miterlimit: 10; stroke-width: .56px;"/>
      <line x1="69.8" y1="288.84" x2="69.8" y2="486.38" style="fill: none; stroke: #e6e7e8; stroke-miterlimit: 10; stroke-width: .56px;"/>
      <line x1="54.76" y1="288.84" x2="54.76" y2="486.38" style="fill: none; stroke: #e6e7e8; stroke-miterlimit: 10; stroke-width: .56px;"/>
      <line x1="160.07" y1="288.84" x2="160.07" y2="486.38" style="fill: none; stroke: #e6e7e8; stroke-miterlimit: 10; stroke-width: .56px;"/>
      <line x1="175.11" y1="288.84" x2="175.11" y2="486.38" style="fill: none; stroke: #e6e7e8; stroke-miterlimit: 10; stroke-width: .56px;"/>
      <g style="clip-path: url(#clippath-3);">
        <rect x="40.11" y="288.84" width="164.69" height="197.54" style="fill: none; stroke: #623618; stroke-miterlimit: 10; stroke-width: 2.23px;"/>
      </g>
      <line x1="24" y1="193.5" x2="188.2" y2="193.5" style="fill: none; stroke: #63a844;"/>
      <path d="m25.29,189.37c.73.44,1.91.81,3.01.81,1.79,0,2.82-1.01,2.82-2.49,0-1.38-.84-2.2-2.48-3.07-2.01-.99-3.59-2.48-3.59-4.56,0-2.53,1.9-4.44,4.92-4.44,1.31,0,2.36.34,2.92.67l-.54,1.96c-.48-.3-1.34-.64-2.46-.64-1.74,0-2.5,1.12-2.5,2.16,0,1.4.83,2.03,2.68,3.01,2.33,1.24,3.39,2.7,3.39,4.71,0,2.72-1.97,4.69-5.24,4.69-1.36,0-2.78-.41-3.43-.84l.49-1.98Zm12.21-2.7c.04,2.83,1.52,3.69,3.14,3.69,1.08,0,1.88-.21,2.52-.48l.36,1.67c-.76.36-1.94.63-3.26.63-3.23,0-5.03-2.28-5.03-5.85s1.85-6.21,4.75-6.21,4.1,2.72,4.1,5.38c0,.53-.03.9-.07,1.17h-6.5Zm4.35-1.68c.02-1.72-.63-3.15-2.06-3.15-1.51,0-2.18,1.74-2.28,3.15h4.34Zm4.37-1.27c0-1.22-.05-2.39-.1-3.37h2.06l.1,1.98h.07c.47-1.34,1.6-2.2,2.74-2.2.23,0,.37.01.54.04v2.3c-.17-.03-.36-.04-.6-.04-1.2,0-2.14.95-2.39,2.32-.05.29-.08.64-.08,1.03v6.23h-2.34v-8.27Zm9-3.37l1.64,6.19c.25.94.47,1.94.66,2.96h.06c.18-1,.41-1.97.65-2.96l1.61-6.19h2.39l-3.68,11.65h-2.19l-3.63-11.65h2.49Zm9.8-1.75c-.76,0-1.31-.58-1.3-1.39,0-.82.57-1.39,1.34-1.39s1.34.57,1.34,1.39c0,.8-.53,1.39-1.38,1.39Zm-1.12,13.4v-11.65h2.34v11.65h-2.34Zm12.15-.31c-.47.24-1.4.5-2.52.5-3.04,0-5.06-2.18-5.06-5.92,0-3.47,2.07-6.13,5.47-6.13.87,0,1.72.21,2.18.45l-.43,1.84c-.35-.17-.92-.38-1.73-.38-2.05,0-3.12,1.92-3.12,4.16,0,2.55,1.27,4.08,3.13,4.08.74,0,1.31-.17,1.78-.39l.3,1.79Zm3.36-5.01c.04,2.83,1.52,3.69,3.14,3.69,1.08,0,1.88-.21,2.52-.48l.36,1.67c-.76.36-1.94.63-3.26.63-3.23,0-5.03-2.28-5.03-5.85s1.85-6.21,4.75-6.21,4.1,2.72,4.1,5.38c0,.53-.03.9-.07,1.17h-6.5Zm4.35-1.68c.02-1.72-.63-3.15-2.06-3.15-1.51,0-2.18,1.74-2.28,3.15h4.34Zm11.28,2.35l-1.2,4.66h-2.34l4.36-16.18h2.78l4.27,16.18h-2.39l-1.23-4.66h-4.25Zm3.91-1.83l-1.04-4.08c-.26-1.07-.5-2.33-.7-3.4h-.07c-.2,1.08-.45,2.38-.7,3.4l-1.05,4.08h3.56Zm14.4-5.16c-.05.85-.1,1.88-.1,3.49v6.61c0,2.77-.46,4.18-1.42,5.13-.93.91-2.28,1.32-3.75,1.32-1.2,0-2.41-.27-3.21-.72l.52-1.81c.61.34,1.56.68,2.7.68,1.72,0,2.84-1,2.84-3.54v-1.09h-.05c-.5.94-1.51,1.55-2.76,1.55-2.5,0-4.1-2.45-4.1-5.71,0-4.06,2.16-6.11,4.38-6.11,1.46,0,2.28.82,2.73,1.65h.05l.11-1.43h2.07Zm-2.44,4.31c0-.31-.03-.61-.1-.86-.26-.9-.88-1.77-1.99-1.77-1.51,0-2.44,1.66-2.44,4.11s.95,3.97,2.43,3.97c.81,0,1.62-.47,1.98-1.67.11-.33.14-.7.14-1.04v-2.75Zm5.08-.94c0-1.22-.05-2.39-.1-3.37h2.06l.1,1.98h.07c.47-1.34,1.6-2.2,2.74-2.2.23,0,.37.01.54.04v2.3c-.17-.03-.36-.04-.6-.04-1.2,0-2.14.95-2.39,2.32-.05.29-.08.64-.08,1.03v6.23h-2.34v-8.27Zm8.48,2.95c.04,2.83,1.52,3.69,3.14,3.69,1.08,0,1.88-.21,2.52-.48l.36,1.67c-.76.36-1.94.63-3.26.63-3.23,0-5.03-2.28-5.03-5.85s1.85-6.21,4.75-6.21,4.1,2.72,4.1,5.38c0,.53-.03.9-.07,1.17h-6.5Zm4.35-1.68c.02-1.72-.63-3.15-2.06-3.15-1.51,0-2.18,1.74-2.28,3.15h4.34Zm6.04,1.68c.04,2.83,1.52,3.69,3.14,3.69,1.08,0,1.88-.21,2.52-.48l.36,1.67c-.76.36-1.94.63-3.26.63-3.23,0-5.03-2.28-5.03-5.85s1.85-6.21,4.75-6.21,4.1,2.72,4.1,5.38c0,.53-.03.9-.07,1.17h-6.5Zm4.35-1.68c.02-1.72-.63-3.15-2.06-3.15-1.51,0-2.18,1.74-2.28,3.15h4.34Zm4.29-4.65h2.04l.12,1.57h.05c.56-.96,1.54-1.79,3.07-1.79,1.32,0,2.34.69,2.8,1.94h.05c.34-.59.78-1.06,1.25-1.37.56-.37,1.19-.57,1.97-.57,1.73,0,3.28,1.23,3.28,4.56v7.3h-2.31v-6.9c0-1.73-.43-3.04-1.82-3.04-.88,0-1.58.67-1.86,1.63-.08.28-.12.64-.12,1v7.31h-2.31v-7.26c0-1.41-.42-2.68-1.77-2.68-.91,0-1.65.73-1.91,1.75-.08.29-.12.63-.12.98v7.2h-2.31v-8.43c0-1.32-.05-2.23-.1-3.21Zm19.11,6.32c.04,2.83,1.52,3.69,3.14,3.69,1.08,0,1.88-.21,2.52-.48l.36,1.67c-.76.36-1.94.63-3.26.63-3.23,0-5.03-2.28-5.03-5.85s1.85-6.21,4.75-6.21,4.1,2.72,4.1,5.38c0,.53-.03.9-.07,1.17h-6.5Zm4.35-1.68c.02-1.72-.63-3.15-2.06-3.15-1.51,0-2.18,1.74-2.28,3.15h4.34Zm4.29-4.65h2.05l.12,1.57h.05c.53-.96,1.64-1.79,3.16-1.79,1.8,0,3.41,1.26,3.41,4.47v7.39h-2.34v-7.11c0-1.49-.43-2.81-1.89-2.81-.95,0-1.72.71-2,1.78-.08.26-.12.63-.12,1.01v7.13h-2.34v-8.43c0-1.32-.05-2.23-.1-3.21Zm14.29-3.21v3.21h2.53v1.75h-2.53v6.15c0,1.46.49,2,1.35,2,.39,0,.7-.04.94-.1l.07,1.8c-.39.14-.98.23-1.73.23-.89,0-1.64-.26-2.14-.8-.56-.6-.82-1.51-.82-3.09v-6.2h-1.54v-1.75h1.54v-2.6l2.32-.61Z" style="fill: #31261d;"/>
      <path d="m211.61,188.56c0,2.51-1.73,3.59-3.29,3.59-1.79,0-3.17-1.35-3.17-3.48,0-2.28,1.5-3.58,3.27-3.58,1.9,0,3.19,1.4,3.19,3.46Zm-5.5.08c0,1.58.96,2.77,2.25,2.77s2.28-1.19,2.28-2.82c0-1.19-.64-2.76-2.25-2.76s-2.28,1.44-2.28,2.81Zm7.12-1.67c0-.66-.02-1.17-.06-1.72h.85l.06,1.16h.03c.35-.7,1.17-1.32,2.28-1.32.79,0,2.37.44,2.37,2.87v4.04h-.95v-3.94c0-1.16-.44-2.17-1.71-2.17-.88,0-1.6.63-1.84,1.41-.05.16-.09.38-.09.59v4.12h-.95v-5.03Z" style="fill: #31261d;"/>
      <line x1="223.8" y1="192" x2="360" y2="192" style="fill: none; stroke: #63a844; stroke-width: .5px;"/>
      <path d="m227.73,192.32v4.68c0,.35.01.73.03,1h-.64l-.04-.67h-.02c-.22.43-.68.75-1.31.75-.94,0-1.66-.79-1.66-1.97,0-1.29.8-2.08,1.74-2.08.59,0,.99.28,1.16.58h.02v-2.3h.71Zm-.71,3.38c0-.09,0-.21-.03-.3-.11-.44-.49-.8-1.01-.8-.72,0-1.16.64-1.16,1.48,0,.78.39,1.43,1.14,1.43.47,0,.89-.32,1.02-.84.02-.09.03-.19.03-.3v-.67Zm4.02,2.29l-.06-.49h-.02c-.21.3-.63.57-1.18.57-.78,0-1.18-.55-1.18-1.11,0-.94.83-1.45,2.32-1.44v-.08c0-.31-.09-.89-.88-.88-.36,0-.74.11-1.01.29l-.16-.47c.32-.21.79-.34,1.28-.34,1.18,0,1.48.81,1.48,1.59v1.44c0,.33.02.66.06.93h-.64Zm-.11-1.97c-.76-.02-1.62.12-1.62.86,0,.46.3.67.65.67.5,0,.82-.32.94-.64.02-.07.03-.15.03-.22v-.67Zm2.65-3.01v1.11h1.01v.54h-1.01v2.07c0,.48.14.75.53.75.18,0,.31-.02.41-.05l.03.54c-.14.05-.36.1-.63.1-.32,0-.59-.11-.76-.3-.19-.21-.27-.56-.27-1.01v-2.1h-.6v-.54h.6v-.93l.7-.18Zm3.48,4.51c.5,0,.81-.09,1.07-.2l.12.51c-.25.11-.68.25-1.29.25-1.19,0-1.91-.79-1.91-1.95s.69-2.09,1.82-2.09c1.26,0,1.59,1.1,1.59,1.82,0,.15,0,.26-.02.33h-2.71c.01.94.62,1.33,1.32,1.33Zm.73-1.84c0-.44-.18-1.13-.96-1.13-.71,0-1.02.64-1.07,1.13h2.04Z" style="fill: #31261d;"/>
      <line x1="223.75" y1="249.84" x2="360" y2="249.84" style="fill: none; stroke: #63a844; stroke-width: .5px;"/>
      <path d="m224.35,251.97h.64l.04.66h.02c.28-.47.74-.74,1.37-.74.93,0,1.64.79,1.64,1.96,0,1.39-.85,2.08-1.76,2.08-.52,0-.96-.22-1.19-.61h-.02v2.1h-.71v-4.19c0-.49-.01-.9-.03-1.26Zm.74,2.29c0,.1.01.2.03.29.13.49.55.82,1.04.82.74,0,1.17-.61,1.17-1.49,0-.77-.4-1.43-1.14-1.43-.48,0-.92.34-1.06.86-.02.09-.04.19-.04.28v.67Zm3.85-4.1h.71v2.41h.02c.12-.2.29-.37.51-.49.2-.12.45-.19.72-.19.53,0,1.35.32,1.35,1.65v2.3h-.71v-2.22c0-.62-.23-1.14-.89-1.14-.46,0-.81.32-.94.7-.04.1-.05.2-.05.33v2.34h-.71v-5.68Zm7.96,3.71c0,1.43-.99,2.06-1.93,2.06-1.05,0-1.86-.76-1.86-1.99,0-1.29.85-2.05,1.92-2.05s1.86.81,1.86,1.98Zm-3.06.04c0,.84.48,1.48,1.16,1.48s1.17-.63,1.17-1.5c0-.65-.33-1.47-1.16-1.47s-1.18.77-1.18,1.5Zm3.94-.89c0-.41-.01-.73-.03-1.05h.63l.04.63h.02c.19-.36.64-.72,1.28-.72.54,0,1.36.32,1.36,1.65v2.31h-.71v-2.23c0-.62-.23-1.14-.89-1.14-.46,0-.82.33-.94.72-.03.09-.05.21-.05.33v2.33h-.71v-2.82Zm6.17,2.35c.5,0,.81-.09,1.07-.2l.12.51c-.25.11-.68.25-1.29.25-1.19,0-1.91-.79-1.91-1.95s.69-2.09,1.82-2.09c1.26,0,1.59,1.1,1.59,1.82,0,.15,0,.26-.02.33h-2.71c.01.94.62,1.33,1.32,1.33Zm.73-1.84c0-.44-.18-1.13-.96-1.13-.71,0-1.02.65-1.07,1.13h2.04Z" style="fill: #31261d;"/>
      <path d="m25.16,220.8v-6.01h-.96v-.74h.96v-.35c0-1,.21-1.85.77-2.4.44-.43,1.02-.61,1.57-.61.44,0,.81.1,1.03.21l-.19.73c-.19-.09-.44-.17-.82-.17-1.15,0-1.41,1.04-1.41,2.2v.37h1.72v.74h-1.72v6.01h-.95Zm9.54-3.44c0,2.51-1.73,3.59-3.29,3.59-1.79,0-3.17-1.35-3.17-3.48,0-2.28,1.5-3.58,3.27-3.58,1.9,0,3.19,1.4,3.19,3.46Zm-5.5.08c0,1.58.96,2.77,2.25,2.77s2.28-1.19,2.28-2.82c0-1.19-.64-2.76-2.25-2.76s-2.28,1.44-2.28,2.81Zm7.12-1.33c0-.74-.02-1.42-.06-2.06h.85l.04,1.35h.04c.31-.88,1.03-1.5,1.9-1.5.11,0,.21,0,.31.03v.9c-.11-.02-.22-.03-.37-.03-.89,0-1.53.73-1.71,1.73-.03.18-.05.4-.05.61v3.67h-.95v-4.69Z" style="fill: #31261d;"/>
      <line x1="43" y1="220.8" x2="360" y2="220.8" style="fill: none; stroke: #63a844; stroke-width: .5px;"/>
      <path d="m43.58,223.98c0-.41-.01-.73-.03-1.05h.63l.04.63h.02c.19-.36.64-.72,1.28-.72.54,0,1.36.32,1.36,1.65v2.31h-.71v-2.23c0-.62-.23-1.14-.89-1.14-.46,0-.82.33-.94.72-.03.09-.05.21-.05.33v2.33h-.71v-2.82Zm6.59,2.82l-.06-.49h-.02c-.21.3-.63.57-1.18.57-.78,0-1.18-.55-1.18-1.11,0-.94.83-1.45,2.32-1.44v-.08c0-.31-.09-.89-.88-.88-.36,0-.74.11-1.01.29l-.16-.47c.32-.21.79-.34,1.28-.34,1.18,0,1.48.81,1.48,1.59v1.44c0,.33.02.66.06.93h-.64Zm-.11-1.97c-.76-.02-1.62.12-1.62.86,0,.46.3.67.65.67.5,0,.82-.32.94-.64.02-.07.03-.15.03-.22v-.67Zm1.83-.85c0-.41-.01-.73-.03-1.05h.62l.04.62h.02c.21-.37.57-.71,1.22-.71.52,0,.92.32,1.09.77h.02c.12-.22.28-.39.44-.5.23-.17.49-.27.85-.27.52,0,1.28.34,1.28,1.68v2.28h-.7v-2.19c0-.75-.27-1.19-.83-1.19-.4,0-.71.29-.83.63-.03.1-.06.23-.06.35v2.39h-.7v-2.32c0-.61-.27-1.05-.8-1.05-.44,0-.75.35-.87.7-.03.1-.05.23-.05.35v2.33h-.7v-2.82Zm8.4,2.35c.5,0,.81-.09,1.07-.2l.12.51c-.25.11-.68.25-1.29.25-1.19,0-1.91-.79-1.91-1.95s.69-2.09,1.82-2.09c1.26,0,1.59,1.1,1.59,1.82,0,.15,0,.26-.02.33h-2.71c.01.94.62,1.33,1.32,1.33Zm.73-1.84c0-.44-.18-1.13-.96-1.13-.71,0-1.02.65-1.07,1.13h2.04Z" style="fill: #31261d;"/>
      <line x1="371.94" y1="220.8" x2="588" y2="220.8" style="fill: none; stroke: #63a844; stroke-width: .5px;"/>
      <path d="m374.73,227.05l-.06-.49h-.02c-.21.3-.63.57-1.18.57-.78,0-1.18-.55-1.18-1.11,0-.94.83-1.45,2.32-1.44v-.08c0-.31-.09-.89-.88-.88-.36,0-.74.11-1.01.29l-.16-.47c.32-.21.79-.34,1.28-.34,1.18,0,1.48.81,1.48,1.59v1.44c0,.33.02.66.06.93h-.64Zm-.11-1.97c-.76-.02-1.62.12-1.62.86,0,.46.3.67.65.67.5,0,.82-.32.94-.64.02-.07.03-.15.03-.22v-.67Zm5.18-3.71v4.68c0,.35.01.73.03,1h-.64l-.04-.67h-.02c-.22.43-.68.75-1.31.75-.94,0-1.66-.79-1.66-1.97,0-1.29.8-2.08,1.74-2.08.59,0,.99.28,1.16.58h.02v-2.3h.71Zm-.71,3.38c0-.09,0-.21-.03-.3-.11-.44-.49-.8-1.01-.8-.72,0-1.16.64-1.16,1.48,0,.78.39,1.43,1.14,1.43.47,0,.89-.32,1.02-.84.02-.09.03-.19.03-.3v-.67Zm5.22-3.38v4.68c0,.35.01.73.03,1h-.64l-.04-.67h-.02c-.22.43-.68.75-1.31.75-.94,0-1.66-.79-1.66-1.97,0-1.29.8-2.08,1.74-2.08.59,0,.99.28,1.16.58h.02v-2.3h.71Zm-.71,3.38c0-.09,0-.21-.03-.3-.11-.44-.49-.8-1.01-.8-.72,0-1.16.64-1.16,1.48,0,.78.39,1.43,1.14,1.43.47,0,.89-.32,1.02-.84.02-.09.03-.19.03-.3v-.67Zm1.87-.37c0-.46-.01-.85-.03-1.21h.63l.03.76h.03c.18-.52.61-.85,1.08-.85.08,0,.13,0,.2.02v.67c-.07-.02-.14-.02-.24-.02-.49,0-.84.37-.94.89-.02.1-.03.21-.03.33v2.06h-.71v-2.66Zm4.27,2.19c.5,0,.81-.09,1.07-.2l.12.51c-.25.11-.68.25-1.29.25-1.19,0-1.91-.79-1.91-1.95s.69-2.09,1.82-2.09c1.26,0,1.59,1.1,1.59,1.82,0,.15,0,.26-.02.33h-2.71c.01.94.62,1.33,1.32,1.33Zm.73-1.84c0-.44-.18-1.13-.96-1.13-.71,0-1.02.65-1.07,1.13h2.04Zm1.47,1.59c.21.13.58.28.93.28.51,0,.75-.25.75-.57s-.2-.51-.72-.7c-.7-.25-1.03-.63-1.03-1.1,0-.63.51-1.14,1.34-1.14.39,0,.74.11.95.24l-.18.52c-.15-.09-.43-.23-.79-.23-.41,0-.64.24-.64.53,0,.32.23.46.73.65.67.25,1.01.59,1.02,1.16,0,.69-.53,1.17-1.45,1.17-.43,0-.82-.11-1.09-.27l.17-.54Zm3.18,0c.21.13.58.28.93.28.51,0,.75-.25.75-.57s-.2-.51-.72-.7c-.7-.25-1.03-.63-1.03-1.1,0-.63.51-1.14,1.34-1.14.39,0,.74.11.95.24l-.18.52c-.15-.09-.43-.23-.79-.23-.41,0-.64.24-.64.53,0,.32.23.46.73.65.67.25,1.01.59,1.02,1.16,0,.69-.53,1.17-1.45,1.17-.43,0-.82-.11-1.09-.27l.17-.54Z" style="fill: #31261d;"/>
      <line x1="43" y1="249.85" x2="206" y2="249.85" style="fill: none; stroke: #63a844; stroke-width: .5px;"/>
      <path d="m45.31,255.38c.5,0,.81-.09,1.07-.2l.12.51c-.25.11-.68.25-1.29.25-1.19,0-1.91-.79-1.91-1.95s.69-2.09,1.82-2.09c1.26,0,1.59,1.1,1.59,1.82,0,.15,0,.26-.02.33h-2.71c.01.94.62,1.33,1.32,1.33Zm.73-1.84c0-.44-.18-1.13-.96-1.13-.71,0-1.02.64-1.07,1.13h2.04Zm1.57-.5c0-.41-.01-.73-.03-1.05h.62l.04.62h.02c.21-.37.57-.71,1.22-.71.52,0,.92.32,1.09.77h.02c.12-.22.28-.39.44-.5.23-.17.49-.27.85-.27.52,0,1.28.34,1.28,1.68v2.28h-.7v-2.19c0-.75-.27-1.19-.83-1.19-.4,0-.71.29-.83.63-.03.1-.06.23-.06.35v2.39h-.7v-2.32c0-.61-.27-1.05-.8-1.05-.44,0-.75.35-.87.7-.03.1-.05.23-.05.35v2.33h-.7v-2.82Zm8.83,2.82l-.06-.49h-.02c-.21.3-.63.57-1.18.57-.78,0-1.18-.55-1.18-1.11,0-.94.83-1.45,2.32-1.44v-.08c0-.31-.09-.89-.88-.88-.36,0-.74.11-1.01.29l-.16-.47c.32-.21.79-.34,1.28-.34,1.18,0,1.48.81,1.48,1.59v1.44c0,.33.02.66.06.93h-.64Zm-.11-1.97c-.76-.02-1.62.12-1.62.86,0,.46.3.67.65.67.5,0,.82-.32.94-.64.02-.07.03-.15.03-.22v-.67Zm2.62-2.99c0,.24-.17.44-.45.44-.26,0-.43-.2-.43-.44,0-.24.18-.44.44-.44s.44.19.44.44Zm-.8,4.96v-3.87h.71v3.87h-.71Zm2.59-5.68v5.68h-.71v-5.68h.71Z" style="fill: #31261d;"/>
      <line x1="372" y1="249.85" x2="588" y2="249.85" style="fill: none; stroke: #63a844; stroke-width: .5px;"/>
      <path d="m225.01,269.68c.85-.14,1.87-.23,2.96-.23,2,0,3.43.47,4.37,1.35.96.87,1.53,2.12,1.53,3.86s-.55,3.2-1.55,4.2c-1.02,1-2.69,1.56-4.78,1.56-1,0-1.83-.04-2.53-.12v-10.62Zm2.8,9.61c2.99,0,4.59-1.66,4.59-4.57.02-2.55-1.42-4.16-4.36-4.16-.72,0-1.26.07-1.63.14v8.52c.35.06.87.07,1.4.07Zm11.32.1c1.01,0,1.62-.18,2.14-.4l.25,1c-.49.23-1.35.49-2.58.49-2.38,0-3.81-1.58-3.81-3.91s1.38-4.18,3.64-4.18c2.53,0,3.19,2.22,3.19,3.64,0,.3-.02.51-.05.66h-5.43c.03,1.9,1.24,2.69,2.65,2.69Zm1.47-3.7c.01-.89-.36-2.28-1.94-2.28-1.44,0-2.05,1.3-2.16,2.28h4.1Zm4.8-5.34v2.23h2.02v1.07h-2.02v4.17c0,.96.28,1.51,1.06,1.51.36,0,.63-.04.82-.1l.06,1.07c-.27.11-.71.19-1.26.19-.65,0-1.18-.21-1.52-.6-.39-.43-.55-1.11-.55-2.02v-4.23h-1.2v-1.07h1.2v-1.86l1.38-.36Zm7.9,9.97l-.12-.98h-.04c-.43.6-1.26,1.15-2.37,1.15-1.56,0-2.36-1.11-2.36-2.22,0-1.88,1.66-2.9,4.65-2.88v-.16c0-.63-.18-1.79-1.76-1.79-.72,0-1.47.21-2.02.58l-.32-.94c.64-.41,1.58-.68,2.56-.68,2.37,0,2.94,1.62,2.94,3.17v2.9c0,.66.03,1.32.12,1.85h-1.27Zm-.22-3.95c-1.52-.03-3.27.24-3.27,1.74,0,.92.61,1.35,1.31,1.35,1.02,0,1.66-.64,1.89-1.3.05-.15.07-.31.07-.44v-1.35Zm5.21-5.98c0,.48-.34.87-.9.87-.51,0-.85-.4-.85-.87,0-.48.36-.88.88-.88s.87.38.87.88Zm-1.57,9.93v-7.74h1.4v7.74h-1.4Zm5.14-11.36v11.36h-1.4v-11.36h1.4Zm2.18,9.93c.42.26,1.16.55,1.87.55,1.03,0,1.5-.51,1.5-1.15s-.41-1.03-1.44-1.42c-1.4-.51-2.06-1.27-2.06-2.2,0-1.25,1.01-2.27,2.68-2.27.79,0,1.47.21,1.9.48l-.35,1.02c-.3-.19-.87-.46-1.59-.46-.83,0-1.28.48-1.28,1.06,0,.64.46.93,1.47,1.32,1.33.5,2.03,1.17,2.03,2.33,0,1.37-1.07,2.33-2.9,2.33-.85,0-1.63-.22-2.18-.54l.34-1.06Zm6.2-5.04c0-.59.39-1.01.95-1.01s.94.42.94,1.01c0,.56-.37,1-.95,1s-.95-.44-.94-1Zm0,5.65c0-.59.39-1.01.95-1.01s.94.42.94,1.01c0,.56-.37,1-.95,1s-.95-.44-.94-1Z" style="fill: #31261d;"/>
      <line x1="223.8" y1="281.65" x2="272.64" y2="281.65" style="fill: none; stroke: #63a844; stroke-width: .75px;"/>
      <line x1="223.8" y1="298.7" x2="588" y2="298.7" style="fill: none; stroke: #492e1a; stroke-width: .25px;"/>
      <line x1="223.8" y1="315.48" x2="588" y2="315.48" style="fill: none; stroke: #492e1a; stroke-width: .25px;"/>
      <line x1="223.8" y1="332.27" x2="588" y2="332.27" style="fill: none; stroke: #492e1a; stroke-width: .25px;"/>
      <line x1="223.8" y1="349.05" x2="588" y2="349.05" style="fill: none; stroke: #492e1a; stroke-width: .25px;"/>
      <line x1="223.8" y1="365.83" x2="588" y2="365.83" style="fill: none; stroke: #492e1a; stroke-width: .25px;"/>
      <line x1="223.8" y1="382.61" x2="588" y2="382.61" style="fill: none; stroke: #492e1a; stroke-width: .25px;"/>
      <line x1="223.8" y1="399.4" x2="588" y2="399.4" style="fill: none; stroke: #492e1a; stroke-width: .25px;"/>
      <line x1="223.8" y1="416.18" x2="588" y2="416.18" style="fill: none; stroke: #492e1a; stroke-width: .25px;"/>
      <line x1="223.8" y1="432.96" x2="588" y2="432.96" style="fill: none; stroke: #492e1a; stroke-width: .25px;"/>
      <line x1="223.8" y1="449.75" x2="588" y2="449.75" style="fill: none; stroke: #492e1a; stroke-width: .25px;"/>
      <line x1="223.8" y1="466.53" x2="588" y2="466.53" style="fill: none; stroke: #492e1a; stroke-width: .25px;"/>
      <line x1="223.8" y1="483.31" x2="588" y2="483.31" style="fill: none; stroke: #492e1a; stroke-width: .25px;"/>
      <line x1="223.8" y1="500.1" x2="588" y2="500.1" style="fill: none; stroke: #492e1a; stroke-width: .25px;"/>
      <line x1="223.8" y1="516.88" x2="588" y2="516.88" style="fill: none; stroke: #492e1a; stroke-width: .25px;"/>
      <line x1="24" y1="533.66" x2="588" y2="533.66" style="fill: none; stroke: #492e1a; stroke-width: .25px;"/>
      <line x1="24" y1="550.44" x2="588" y2="550.44" style="fill: none; stroke: #492e1a; stroke-width: .25px;"/>
      <line x1="24" y1="567.23" x2="588" y2="567.23" style="fill: none; stroke: #492e1a; stroke-width: .25px;"/>
      <line x1="24" y1="600.79" x2="588" y2="600.79" style="fill: none; stroke: #492e1a; stroke-width: .25px;"/>
      <line x1="24" y1="617.58" x2="588" y2="617.58" style="fill: none; stroke: #492e1a; stroke-width: .25px;"/>
      <line x1="24" y1="634.36" x2="588" y2="634.36" style="fill: none; stroke: #492e1a; stroke-width: .25px;"/>
      <path d="m28.96,685.98c-.28.14-.82.27-1.5.27-1.8,0-3.08-1.27-3.08-3.72,0-2.63,1.52-3.88,3.26-3.88.68,0,1.14.14,1.34.25l-.22.8c-.27-.13-.61-.23-1.1-.23-1.24,0-2.26.92-2.26,2.99s.92,2.94,2.25,2.94c.44,0,.88-.09,1.15-.22l.17.79Zm.93-3.62c0-.55-.02-1.08-.04-1.53h.85l.04.93h.03c.21-.61.73-1.04,1.29-1.04.1,0,.16,0,.23.02v.95c-.08-.01-.16-.02-.26-.02-.59,0-1.03.48-1.14,1.14-.02.14-.04.3-.04.47v2.88h-.97v-3.8Zm3.72,1.3c.01,1.41.73,1.83,1.51,1.83.52,0,.89-.1,1.18-.23l.16.69c-.33.16-.86.3-1.49.3-1.47,0-2.3-1.06-2.3-2.68s.85-2.84,2.17-2.84c1.41,0,1.88,1.31,1.88,2.44,0,.22-.01.37-.03.49h-3.08Zm1.15-2.21c-.75,0-1.09.83-1.14,1.51h2.17c.01-.81-.31-1.51-1.03-1.51Zm5.47,4.11h-.03c-.27.41-.74.71-1.34.71-.9,0-1.45-.68-1.45-1.54,0-1.32,1.12-1.96,2.73-1.96v-.14c0-.56-.16-1.17-1.01-1.17-.42,0-.83.13-1.14.34l-.21-.66c.33-.22.91-.41,1.53-.41,1.38,0,1.8.92,1.8,2.06v2.13c0,.43.01.89.07,1.24h-.87l-.07-.61Zm-.07-2.11c-.73,0-1.8.13-1.8,1.19,0,.65.38.91.76.91.51,0,.88-.34,1-.81.03-.1.03-.21.03-.3v-.98Zm3.39-4.08v1.48h1.19v.73h-1.19v2.94c0,.67.22.95.64.95.19,0,.34-.02.45-.05l.04.74c-.17.06-.43.11-.77.11-.4,0-.74-.12-.96-.37-.25-.27-.36-.69-.36-1.38v-2.94h-.73v-.73h.73v-1.22l.96-.26Zm2.66,4.3c.01,1.41.73,1.83,1.51,1.83.52,0,.89-.1,1.18-.23l.16.69c-.33.16-.86.3-1.49.3-1.47,0-2.3-1.06-2.3-2.68s.85-2.84,2.17-2.84c1.41,0,1.88,1.31,1.88,2.44,0,.22-.01.37-.03.49h-3.08Zm1.15-2.21c-.75,0-1.09.83-1.14,1.51h2.17c.01-.81-.31-1.51-1.03-1.51Zm6.95-2.99v6.36c0,.43.02,1,.04,1.35h-.85l-.06-.78h-.03c-.24.48-.75.89-1.45.89-1.1,0-1.92-1.05-1.92-2.72,0-1.83.94-2.81,2-2.81.6,0,1.05.28,1.27.7h.02v-2.98h.96Zm-.96,4.48c0-.12,0-.26-.03-.37-.1-.56-.5-1.04-1.05-1.04-.83,0-1.23.91-1.23,2s.41,1.95,1.2,1.95c.44,0,.9-.28,1.07-.99.03-.11.04-.24.04-.38v-1.17Zm4.3,3.23c.02-.34.04-.92.04-1.35v-6.36h.96v3.11h.02c.31-.55.8-.83,1.45-.83,1.08,0,1.85,1.03,1.85,2.7,0,1.92-1,2.84-2.01,2.84-.65,0-1.1-.31-1.4-.88h-.03l-.06.78h-.83Zm1.01-2.01c0,.12.01.24.04.34.18.7.63.99,1.08.99.82,0,1.23-.85,1.23-2,0-1.05-.39-1.95-1.22-1.95-.5,0-.95.46-1.08,1.03-.02.11-.04.24-.04.38v1.22Zm4.78-3.31l.9,3.06c.11.38.2.76.27,1.08h.02c.07-.31.17-.71.27-1.08l.81-3.06h.99l-1.16,3.62c-.51,1.58-.93,2.68-1.56,3.36-.43.45-.88.66-1.1.72l-.29-.82c.24-.1.53-.29.79-.55.24-.24.48-.59.63-.95.05-.11.07-.18.07-.25,0-.06-.01-.13-.05-.22l-1.65-4.91h1.04Zm7.09-2.09v4.67c0,1.46.57,2.03,1.33,2.03.83,0,1.37-.59,1.37-2.03v-4.67h.97v4.57c0,2.1-.99,2.95-2.37,2.95s-2.27-.82-2.27-2.89v-4.63h.97Zm5.14,7.42v-7.42h.99l1.81,3.53c.41.82.82,1.7,1.12,2.48h.02c-.08-1.07-.11-2.02-.11-3.24v-2.78h.89v7.42h-.95l-1.82-3.58c-.4-.78-.8-1.63-1.11-2.49h-.03c.06.96.08,1.9.08,3.3v2.77h-.89Zm6.2-7.31c.39-.09.95-.15,1.53-.15.82,0,1.42.15,1.85.52.36.3.57.75.57,1.3,0,.73-.44,1.35-1.19,1.63v.03c.79.2,1.44.85,1.44,1.87,0,.62-.23,1.12-.59,1.48-.47.48-1.23.69-2.3.69-.61,0-1.04-.04-1.32-.08v-7.29Zm1.57,3.02c.83,0,1.41-.52,1.41-1.25s-.47-1.18-1.38-1.18c-.31,0-.51.02-.64.06v2.37h.61Zm0,3.59c.91,0,1.63-.43,1.63-1.42s-.77-1.43-1.67-1.44h-.57v2.82c.15.03.34.04.6.04Zm6.51-5.87h-1.78v-.84h4.54v.84h-1.79v6.57h-.97v-6.57Zm2.98,2.78c0-.55-.02-1.08-.04-1.53h.85l.04.93h.03c.21-.61.73-1.04,1.29-1.04.1,0,.16,0,.23.02v.95c-.08-.01-.16-.02-.26-.02-.59,0-1.03.48-1.14,1.14-.02.14-.04.3-.04.47v2.88h-.97v-3.8Zm3.72,1.3c.01,1.41.73,1.83,1.51,1.83.52,0,.89-.1,1.18-.23l.16.69c-.33.16-.86.3-1.49.3-1.47,0-2.3-1.06-2.3-2.68s.85-2.84,2.17-2.84c1.41,0,1.88,1.31,1.88,2.44,0,.22-.01.37-.03.49h-3.08Zm1.15-2.21c-.75,0-1.09.83-1.14,1.51h2.17c.01-.81-.31-1.51-1.03-1.51Zm3.63,2.21c.01,1.41.73,1.83,1.51,1.83.52,0,.89-.1,1.18-.23l.16.69c-.33.16-.86.3-1.49.3-1.47,0-2.3-1.06-2.3-2.68s.85-2.84,2.17-2.84c1.41,0,1.88,1.31,1.88,2.44,0,.22-.01.37-.03.49h-3.08Zm1.15-2.21c-.75,0-1.09.83-1.14,1.51h2.17c.01-.81-.31-1.51-1.03-1.51Zm2.87,3.74c.24.15.67.33,1.08.33.58,0,.88-.31.88-.75,0-.42-.21-.67-.82-.98-.84-.4-1.25-.9-1.25-1.52,0-.87.68-1.54,1.68-1.54.48,0,.88.14,1.14.3l-.24.71c-.21-.13-.52-.27-.9-.27-.5,0-.76.32-.76.68,0,.38.22.58.82.89.78.37,1.25.85,1.25,1.61,0,1.01-.74,1.6-1.82,1.6-.49,0-.99-.14-1.29-.34l.23-.73Zm7.57-6.49c.88,0,1.5.17,1.93.57.38.35.56.85.56,1.44,0,.95-.53,1.59-1.29,1.89v.02c.55.18.86.71,1.03,1.57.2,1.01.37,1.7.5,1.96h-.99c-.11-.22-.27-.89-.44-1.8-.19-1.01-.54-1.38-1.31-1.39h-.59v3.19h-.96v-7.31c.43-.1,1.01-.15,1.56-.15Zm-.6,3.53h.64c.89,0,1.47-.57,1.47-1.41s-.5-1.35-1.44-1.36c-.31,0-.55.03-.68.06v2.71Zm4.9,1.43c.01,1.41.73,1.83,1.51,1.83.52,0,.89-.1,1.18-.23l.16.69c-.33.16-.86.3-1.49.3-1.47,0-2.3-1.06-2.3-2.68s.85-2.84,2.17-2.84c1.41,0,1.88,1.31,1.88,2.44,0,.22-.01.37-.03.49h-3.08Zm1.15-2.21c-.75,0-1.09.83-1.14,1.51h2.17c.01-.81-.31-1.51-1.03-1.51Zm2.95-.61h.86l.05.78h.02c.34-.6.86-.88,1.5-.88,1.11,0,1.9,1.04,1.9,2.72,0,1.95-1,2.81-2.03,2.81-.6,0-1.04-.31-1.26-.71h-.02v2.75h-.96v-5.77c0-.74-.02-1.26-.04-1.7Zm1.01,3.26c0,.15.01.29.04.42.16.69.63.97,1.07.97.84,0,1.23-.88,1.23-2s-.4-1.96-1.22-1.96c-.5,0-.97.46-1.08,1.04-.03.12-.05.26-.05.39v1.14Zm4.38-1.73c0-.55-.02-1.08-.04-1.53h.85l.04.93h.03c.21-.61.73-1.04,1.29-1.04.1,0,.16,0,.23.02v.95c-.08-.01-.16-.02-.26-.02-.59,0-1.03.48-1.14,1.14-.02.14-.04.3-.04.47v2.88h-.97v-3.8Zm3.72,1.3c.01,1.41.73,1.83,1.51,1.83.52,0,.89-.1,1.18-.23l.16.69c-.33.16-.86.3-1.49.3-1.47,0-2.3-1.06-2.3-2.68s.85-2.84,2.17-2.84c1.41,0,1.88,1.31,1.88,2.44,0,.22-.01.37-.03.49h-3.08Zm1.15-2.21c-.75,0-1.09.83-1.14,1.51h2.17c.01-.81-.31-1.51-1.03-1.51Zm2.87,3.74c.24.15.67.33,1.08.33.58,0,.88-.31.88-.75,0-.42-.21-.67-.82-.98-.84-.4-1.25-.9-1.25-1.52,0-.87.68-1.54,1.68-1.54.48,0,.88.14,1.14.3l-.24.71c-.21-.13-.52-.27-.9-.27-.5,0-.76.32-.76.68,0,.38.22.58.82.89.78.37,1.25.85,1.25,1.61,0,1.01-.74,1.6-1.82,1.6-.49,0-.99-.14-1.29-.34l.23-.73Zm4.56-1.53c.01,1.41.73,1.83,1.51,1.83.52,0,.89-.1,1.18-.23l.16.69c-.33.16-.86.3-1.49.3-1.47,0-2.3-1.06-2.3-2.68s.85-2.84,2.17-2.84c1.41,0,1.88,1.31,1.88,2.44,0,.22-.01.37-.03.49h-3.08Zm1.15-2.21c-.75,0-1.09.83-1.14,1.51h2.17c.01-.81-.31-1.51-1.03-1.51Zm3,.82c0-.59-.02-.99-.04-1.43h.85l.05.75h.02c.24-.46.77-.85,1.48-.85.77,0,1.59.52,1.59,2.06v3.37h-.97v-3.25c0-.73-.22-1.38-.95-1.38-.48,0-.88.36-1.01.89-.03.12-.06.29-.06.46v3.27h-.97v-3.9Zm6.41-2.91v1.48h1.19v.73h-1.19v2.94c0,.67.22.95.64.95.19,0,.34-.02.45-.05l.04.74c-.17.06-.43.11-.77.11-.4,0-.74-.12-.96-.37-.25-.27-.36-.69-.36-1.38v-2.94h-.73v-.73h.73v-1.22l.96-.26Zm4.57,6.19h-.03c-.27.41-.74.71-1.34.71-.9,0-1.45-.68-1.45-1.54,0-1.32,1.12-1.96,2.73-1.96v-.14c0-.56-.16-1.17-1.01-1.17-.42,0-.83.13-1.14.34l-.21-.66c.33-.22.91-.41,1.53-.41,1.38,0,1.8.92,1.8,2.06v2.13c0,.43.01.89.07,1.24h-.87l-.07-.61Zm-.07-2.11c-.73,0-1.8.13-1.8,1.19,0,.65.38.91.76.91.51,0,.88-.34,1-.81.03-.1.03-.21.03-.3v-.98Zm3.39-4.08v1.48h1.19v.73h-1.19v2.94c0,.67.22.95.64.95.19,0,.34-.02.45-.05l.04.74c-.17.06-.43.11-.77.11-.4,0-.74-.12-.96-.37-.25-.27-.36-.69-.36-1.38v-2.94h-.73v-.73h.73v-1.22l.96-.26Zm3.16.03c0,.34-.23.6-.59.6-.33,0-.56-.25-.56-.6,0-.35.24-.6.57-.6s.57.25.58.6Zm-1.05,6.77v-5.33h.97v5.33h-.97Zm2.81-5.33l.83,2.93c.12.43.23.89.33,1.34h.03c.09-.45.2-.89.33-1.34l.82-2.93h.99l-1.73,5.33h-.9l-1.7-5.33h1.02Zm4.63,2.83c.01,1.41.73,1.83,1.51,1.83.52,0,.89-.1,1.18-.23l.16.69c-.33.16-.86.3-1.49.3-1.47,0-2.3-1.06-2.3-2.68s.85-2.84,2.17-2.84c1.41,0,1.88,1.31,1.88,2.44,0,.22-.01.37-.03.49h-3.08Zm1.15-2.21c-.75,0-1.09.83-1.14,1.51h2.17c.01-.81-.31-1.51-1.03-1.51Zm2.88.21c0-.4.27-.69.63-.69s.62.28.62.69c0,.39-.24.68-.63.68-.37,0-.63-.29-.62-.68Zm0,3.93c0-.4.27-.69.63-.69s.62.28.62.69c0,.39-.24.68-.63.68-.37,0-.63-.29-.62-.68Z"/>
      <path d="m240.76,685.47c-.28.14-.82.27-1.5.27-1.8,0-3.08-1.27-3.08-3.72,0-2.63,1.52-3.88,3.26-3.88.68,0,1.14.14,1.34.25l-.22.8c-.27-.13-.61-.23-1.1-.23-1.24,0-2.26.92-2.26,2.99s.92,2.94,2.25,2.94c.44,0,.88-.09,1.15-.22l.17.79Zm4.68-1.3c0,.58.02,1.06.04,1.48h-.85l-.06-.71h-.02c-.21.34-.69.81-1.45.81-.9,0-1.57-.61-1.57-2.19v-3.24h.97v3.08c0,.9.22,1.54.92,1.54.55,0,.87-.44.98-.77.04-.14.07-.3.07-.48v-3.38h.97v3.85Zm1.24.5c.24.15.67.33,1.08.33.58,0,.88-.31.88-.75,0-.42-.21-.67-.82-.98-.84-.4-1.25-.9-1.25-1.52,0-.87.68-1.54,1.68-1.54.48,0,.88.14,1.14.3l-.24.71c-.21-.13-.52-.27-.9-.27-.5,0-.76.32-.76.68,0,.38.22.58.82.89.78.37,1.25.85,1.25,1.61,0,1.01-.74,1.6-1.82,1.6-.49,0-.99-.14-1.29-.34l.23-.73Zm5.09-5.83v1.48h1.19v.73h-1.19v2.94c0,.67.22.95.64.95.19,0,.34-.02.45-.05l.04.74c-.17.06-.43.11-.77.11-.4,0-.74-.12-.96-.37-.25-.27-.36-.69-.36-1.38v-2.94h-.73v-.73h.73v-1.22l.96-.26Zm3.89,6.91c-1.22,0-2.16-.97-2.16-2.74s1.02-2.79,2.23-2.79,2.15,1.01,2.15,2.74c0,2.02-1.17,2.8-2.22,2.8Zm-1.18-2.76c0,1.01.39,2.02,1.22,2.02s1.2-1.03,1.2-2.04c0-.85-.29-2.01-1.2-2.01s-1.22,1.13-1.22,2.03Zm4.47-1.24c0-.59-.02-.99-.04-1.43h.84l.05.75h.02c.26-.46.71-.85,1.44-.85.61,0,1.09.33,1.31.93h.02c.16-.28.36-.5.57-.65.26-.18.56-.28.94-.28.74,0,1.52.52,1.52,2.1v3.33h-.95v-3.16c0-.84-.23-1.47-.92-1.47-.44,0-.79.34-.93.8-.04.14-.06.3-.06.47v3.35h-.95v-3.33c0-.7-.23-1.3-.89-1.3-.46,0-.84.37-.96.88-.04.14-.05.3-.05.46v3.29h-.95v-3.9Zm8.65,1.4c.01,1.41.73,1.83,1.51,1.83.52,0,.89-.1,1.18-.23l.16.69c-.33.16-.86.3-1.49.3-1.47,0-2.3-1.06-2.3-2.68s.85-2.84,2.17-2.84c1.41,0,1.88,1.31,1.88,2.44,0,.22-.01.37-.03.49h-3.08Zm1.15-2.21c-.75,0-1.09.83-1.14,1.51h2.17c.01-.81-.31-1.51-1.03-1.51Zm2.99.92c0-.55-.02-1.08-.04-1.53h.85l.04.93h.03c.21-.61.73-1.04,1.29-1.04.1,0,.16,0,.23.02v.95c-.08-.01-.16-.02-.26-.02-.59,0-1.03.48-1.14,1.14-.02.14-.04.3-.04.47v2.88h-.97v-3.8Zm7.7,3.19h-.03c-.27.41-.74.71-1.34.71-.9,0-1.45-.68-1.45-1.54,0-1.32,1.12-1.96,2.73-1.96v-.14c0-.56-.16-1.17-1.01-1.17-.42,0-.83.13-1.14.34l-.21-.66c.33-.22.91-.41,1.53-.41,1.38,0,1.8.92,1.8,2.06v2.13c0,.43.01.89.07,1.24h-.87l-.07-.61Zm-.07-2.11c-.73,0-1.8.13-1.8,1.19,0,.65.38.91.76.91.51,0,.88-.34,1-.81.03-.1.03-.21.03-.3v-.98Zm5.52,2.57c-.22.12-.66.25-1.2.25-1.39,0-2.32-1.01-2.32-2.71,0-1.59.95-2.81,2.5-2.81.42,0,.83.11,1.04.22l-.19.76c-.17-.09-.45-.19-.85-.19-1.01,0-1.52.93-1.52,1.99,0,1.21.62,1.95,1.52,1.95.37,0,.65-.09.88-.19l.14.74Zm4.06,0c-.22.12-.66.25-1.2.25-1.39,0-2.32-1.01-2.32-2.71,0-1.59.95-2.81,2.5-2.81.42,0,.83.11,1.04.22l-.19.76c-.17-.09-.45-.19-.85-.19-1.01,0-1.52.93-1.52,1.99,0,1.21.62,1.95,1.52,1.95.37,0,.65-.09.88-.19l.14.74Zm1.48-2.34c.01,1.41.73,1.83,1.51,1.83.52,0,.89-.1,1.18-.23l.16.69c-.33.16-.86.3-1.49.3-1.47,0-2.3-1.06-2.3-2.68s.85-2.84,2.17-2.84c1.41,0,1.88,1.31,1.88,2.44,0,.22-.01.37-.03.49h-3.08Zm1.15-2.21c-.75,0-1.09.83-1.14,1.51h2.17c.01-.81-.31-1.51-1.03-1.51Zm2.95-.61h.86l.05.78h.02c.34-.6.86-.88,1.5-.88,1.11,0,1.9,1.04,1.9,2.72,0,1.95-1,2.81-2.03,2.81-.6,0-1.04-.31-1.26-.71h-.02v2.75h-.96v-5.77c0-.74-.02-1.26-.04-1.7Zm1.01,3.26c0,.15.01.29.04.42.16.69.63.97,1.07.97.84,0,1.23-.88,1.23-2s-.4-1.96-1.22-1.96c-.5,0-.97.46-1.08,1.04-.03.12-.05.26-.05.39v1.14Zm5.55-4.74v1.48h1.19v.73h-1.19v2.94c0,.67.22.95.64.95.19,0,.34-.02.45-.05l.04.74c-.17.06-.43.11-.77.11-.4,0-.74-.12-.96-.37-.25-.27-.36-.69-.36-1.38v-2.94h-.73v-.73h.73v-1.22l.96-.26Zm1.97,5.83c.24.15.67.33,1.08.33.58,0,.88-.31.88-.75,0-.42-.21-.67-.82-.98-.84-.4-1.25-.9-1.25-1.52,0-.87.68-1.54,1.68-1.54.48,0,.88.14,1.14.3l-.24.71c-.21-.13-.52-.27-.9-.27-.5,0-.76.32-.76.68,0,.38.22.58.82.89.78.37,1.25.85,1.25,1.61,0,1.01-.74,1.6-1.82,1.6-.49,0-.99-.14-1.29-.34l.23-.73Zm5.9-4.35h.86l.05.78h.02c.34-.6.86-.88,1.5-.88,1.11,0,1.9,1.04,1.9,2.72,0,1.95-1,2.81-2.03,2.81-.6,0-1.04-.31-1.26-.71h-.02v2.75h-.96v-5.77c0-.74-.02-1.26-.04-1.7Zm1.01,3.26c0,.15.01.29.04.42.16.69.63.97,1.07.97.84,0,1.23-.88,1.23-2s-.4-1.96-1.22-1.96c-.5,0-.97.46-1.08,1.04-.03.12-.05.26-.05.39v1.14Zm4.38-1.73c0-.55-.02-1.08-.04-1.53h.85l.04.93h.03c.21-.61.73-1.04,1.29-1.04.1,0,.16,0,.23.02v.95c-.08-.01-.16-.02-.26-.02-.59,0-1.03.48-1.14,1.14-.02.14-.04.3-.04.47v2.88h-.97v-3.8Zm4.94,3.9c-1.22,0-2.16-.97-2.16-2.74s1.02-2.79,2.23-2.79,2.15,1.01,2.15,2.74c0,2.02-1.17,2.8-2.22,2.8Zm-1.18-2.76c0,1.01.39,2.02,1.22,2.02s1.2-1.03,1.2-2.04c0-.85-.29-2.01-1.2-2.01s-1.22,1.13-1.22,2.03Zm4.42-2.67h.86l.05.78h.02c.34-.6.86-.88,1.5-.88,1.11,0,1.9,1.04,1.9,2.72,0,1.95-1,2.81-2.03,2.81-.6,0-1.04-.31-1.26-.71h-.02v2.75h-.96v-5.77c0-.74-.02-1.26-.04-1.7Zm1.01,3.26c0,.15.01.29.04.42.16.69.63.97,1.07.97.84,0,1.23-.88,1.23-2s-.4-1.96-1.22-1.96c-.5,0-.97.46-1.08,1.04-.03.12-.05.26-.05.39v1.14Zm6.26,2.17c-1.22,0-2.16-.97-2.16-2.74s1.02-2.79,2.23-2.79,2.15,1.01,2.15,2.74c0,2.02-1.17,2.8-2.22,2.8Zm-1.18-2.76c0,1.01.39,2.02,1.22,2.02s1.2-1.03,1.2-2.04c0-.85-.29-2.01-1.2-2.01s-1.22,1.13-1.22,2.03Zm4.34,1.69c.24.15.67.33,1.08.33.58,0,.88-.31.88-.75,0-.42-.21-.67-.82-.98-.84-.4-1.25-.9-1.25-1.52,0-.87.68-1.54,1.68-1.54.48,0,.88.14,1.14.3l-.24.71c-.21-.13-.52-.27-.9-.27-.5,0-.76.32-.76.68,0,.38.22.58.82.89.78.37,1.25.85,1.25,1.61,0,1.01-.74,1.6-1.82,1.6-.49,0-.99-.14-1.29-.34l.23-.73Zm6.39.37h-.03c-.27.41-.74.71-1.34.71-.9,0-1.45-.68-1.45-1.54,0-1.32,1.12-1.96,2.73-1.96v-.14c0-.56-.16-1.17-1.01-1.17-.42,0-.83.13-1.14.34l-.21-.66c.33-.22.91-.41,1.53-.41,1.38,0,1.8.92,1.8,2.06v2.13c0,.43.01.89.07,1.24h-.87l-.07-.61Zm-.07-2.11c-.73,0-1.8.13-1.8,1.19,0,.65.38.91.76.91.51,0,.88-.34,1-.81.03-.1.03-.21.03-.3v-.98Zm2.3-4.99h.97v7.71h-.97v-7.71Zm6.88,7.1h-.03c-.27.41-.74.71-1.34.71-.9,0-1.45-.68-1.45-1.54,0-1.32,1.12-1.96,2.73-1.96v-.14c0-.56-.16-1.17-1.01-1.17-.42,0-.83.13-1.14.34l-.21-.66c.33-.22.91-.41,1.53-.41,1.38,0,1.8.92,1.8,2.06v2.13c0,.43.01.89.07,1.24h-.87l-.07-.61Zm-.07-2.11c-.73,0-1.8.13-1.8,1.19,0,.65.38.91.76.91.51,0,.88-.34,1-.81.03-.1.03-.21.03-.3v-.98Zm2.3-1.17c0-.59-.02-.99-.04-1.43h.85l.05.75h.02c.24-.46.77-.85,1.48-.85.77,0,1.59.52,1.59,2.06v3.37h-.97v-3.25c0-.73-.22-1.38-.95-1.38-.48,0-.88.36-1.01.89-.03.12-.06.29-.06.46v3.27h-.97v-3.9Zm9.25-3.81v6.36c0,.43.02,1,.04,1.35h-.85l-.06-.78h-.03c-.24.48-.75.89-1.45.89-1.1,0-1.92-1.05-1.92-2.72,0-1.83.94-2.81,2-2.81.6,0,1.05.28,1.27.7h.02v-2.98h.96Zm-.96,4.48c0-.12,0-.26-.03-.37-.1-.56-.5-1.04-1.05-1.04-.83,0-1.23.91-1.23,2s.41,1.95,1.2,1.95c.44,0,.89-.28,1.07-.99.03-.11.04-.24.04-.38v-1.17Zm6.82,2.62h-.03c-.27.41-.74.71-1.34.71-.9,0-1.45-.68-1.45-1.54,0-1.32,1.12-1.96,2.73-1.96v-.14c0-.56-.16-1.17-1.01-1.17-.42,0-.83.13-1.14.34l-.21-.66c.33-.22.91-.41,1.53-.41,1.38,0,1.8.92,1.8,2.06v2.13c0,.43.01.89.07,1.24h-.87l-.07-.61Zm-.07-2.11c-.73,0-1.8.13-1.8,1.19,0,.65.38.91.76.91.51,0,.88-.34,1-.81.03-.1.03-.21.03-.3v-.98Zm6.18,1.25c0,.58.02,1.06.04,1.48h-.85l-.06-.71h-.02c-.21.34-.69.81-1.45.81-.9,0-1.57-.61-1.57-2.19v-3.24h.97v3.08c0,.9.22,1.54.92,1.54.55,0,.87-.44.98-.77.04-.14.07-.3.07-.48v-3.38h.97v3.85Zm2.54-5.33v1.48h1.19v.73h-1.19v2.94c0,.67.22.95.64.95.19,0,.34-.02.45-.05l.04.74c-.17.06-.43.11-.77.11-.4,0-.74-.12-.96-.37-.25-.27-.36-.69-.36-1.38v-2.94h-.73v-.73h.73v-1.22l.96-.26Zm2.1-.91h.97v3.07h.02c.14-.23.34-.43.57-.57.24-.14.51-.23.84-.23.73,0,1.55.52,1.55,2.09v3.34h-.97v-3.24c0-.74-.23-1.39-.94-1.39-.49,0-.87.35-1.03.87-.04.12-.05.28-.05.43v3.33h-.97v-7.71Zm7.16,7.81c-1.22,0-2.16-.97-2.16-2.74s1.02-2.79,2.23-2.79,2.15,1.01,2.15,2.74c0,2.02-1.17,2.8-2.22,2.8Zm-1.18-2.76c0,1.01.39,2.02,1.22,2.02s1.2-1.03,1.2-2.04c0-.85-.29-2.01-1.2-2.01s-1.22,1.13-1.22,2.03Zm4.47-1.14c0-.55-.02-1.08-.04-1.53h.85l.04.93h.03c.21-.61.73-1.04,1.29-1.04.1,0,.16,0,.23.02v.95c-.08-.01-.16-.02-.26-.02-.59,0-1.03.48-1.14,1.14-.02.14-.04.3-.04.47v2.88h-.97v-3.8Zm4.27-2.97c0,.34-.23.6-.59.6-.33,0-.56-.25-.56-.6,0-.35.24-.6.57-.6s.57.25.58.6Zm-1.05,6.77v-5.33h.97v5.33h-.97Zm1.84-.58l1.99-3.12c.19-.29.39-.56.57-.82v-.02h-2.35v-.79h3.48v.62s-1.96,3.07-1.96,3.07c-.19.28-.38.57-.57.82v.02h2.55v.79h-3.7v-.58Zm5.12-1.92c.01,1.41.73,1.83,1.51,1.83.52,0,.89-.1,1.18-.23l.16.69c-.33.16-.86.3-1.49.3-1.47,0-2.3-1.06-2.3-2.68s.85-2.84,2.17-2.84c1.41,0,1.88,1.31,1.88,2.44,0,.22-.01.37-.03.49h-3.08Zm1.15-2.21c-.75,0-1.09.83-1.14,1.51h2.17c.01-.81-.31-1.51-1.03-1.51Zm2.87,3.74c.24.15.67.33,1.08.33.58,0,.88-.31.88-.75,0-.42-.21-.67-.82-.98-.84-.4-1.25-.9-1.25-1.52,0-.87.68-1.54,1.68-1.54.48,0,.88.14,1.14.3l-.24.71c-.21-.13-.52-.27-.9-.27-.5,0-.76.32-.76.68,0,.38.22.58.82.89.78.37,1.25.85,1.25,1.61,0,1.01-.74,1.6-1.82,1.6-.49,0-.99-.14-1.29-.34l.23-.73Zm7.01-1.74c.13.58.25,1.15.33,1.7h.03c.1-.54.25-1.14.4-1.68l.72-2.63h.78l.68,2.57c.16.61.29,1.18.4,1.74h.03c.08-.55.2-1.11.34-1.73l.61-2.58h.96l-1.52,5.33h-.84l-.69-2.5c-.16-.55-.27-1.06-.37-1.68h-.02c-.11.64-.24,1.16-.39,1.69l-.72,2.48h-.86l-1.45-5.33h1l.59,2.61Zm7.85,2.82c-1.22,0-2.16-.97-2.16-2.74s1.02-2.79,2.23-2.79,2.15,1.01,2.15,2.74c0,2.02-1.17,2.8-2.22,2.8Zm-1.18-2.76c0,1.01.39,2.02,1.22,2.02s1.2-1.03,1.2-2.04c0-.85-.29-2.01-1.2-2.01s-1.22,1.13-1.22,2.03Zm4.47-1.14c0-.55-.02-1.08-.04-1.53h.85l.04.93h.03c.21-.61.73-1.04,1.29-1.04.1,0,.16,0,.23.02v.95c-.08-.01-.16-.02-.26-.02-.59,0-1.03.48-1.14,1.14-.02.14-.04.3-.04.47v2.88h-.97v-3.8Zm4.19.91h.02c.11-.21.25-.43.37-.61l1.27-1.83h1.11l-1.71,2.21,1.92,3.11h-1.13l-1.44-2.5-.39.52v1.98h-.96v-7.71h.96v4.83Zm6.82-3.92v1.48h1.19v.73h-1.19v2.94c0,.67.22.95.64.95.19,0,.34-.02.45-.05l.04.74c-.17.06-.43.11-.77.11-.4,0-.74-.12-.96-.37-.25-.27-.36-.69-.36-1.38v-2.94h-.73v-.73h.73v-1.22l.96-.26Zm3.89,6.91c-1.22,0-2.16-.97-2.16-2.74s1.02-2.79,2.23-2.79,2.15,1.01,2.15,2.74c0,2.02-1.17,2.8-2.22,2.8Zm-1.18-2.76c0,1.01.39,2.02,1.22,2.02s1.2-1.03,1.2-2.04c0-.85-.29-2.01-1.2-2.01s-1.22,1.13-1.22,2.03Zm6.45,2.66c.02-.34.04-.92.04-1.35v-6.36h.96v3.11h.02c.31-.55.8-.83,1.45-.83,1.08,0,1.85,1.03,1.85,2.7,0,1.92-1,2.84-2.01,2.84-.65,0-1.1-.31-1.4-.88h-.03l-.06.78h-.83Zm1.01-2.01c0,.12.01.24.04.34.18.7.63.99,1.08.99.82,0,1.23-.85,1.23-2,0-1.05-.39-1.95-1.22-1.95-.5,0-.95.46-1.08,1.03-.02.11-.04.24-.04.38v1.22Zm5.03-.49c.01,1.41.73,1.83,1.51,1.83.52,0,.89-.1,1.18-.23l.16.69c-.33.16-.86.3-1.49.3-1.47,0-2.3-1.06-2.3-2.68s.85-2.84,2.17-2.84c1.41,0,1.88,1.31,1.88,2.44,0,.22-.01.37-.03.49h-3.08Zm1.15-2.21c-.75,0-1.09.83-1.14,1.51h2.17c.01-.81-.31-1.51-1.03-1.51Zm8.97-2.99v6.36c0,.43.02,1,.04,1.35h-.85l-.06-.78h-.03c-.24.48-.75.89-1.45.89-1.1,0-1.92-1.05-1.92-2.72,0-1.83.94-2.81,2-2.81.6,0,1.05.28,1.27.7h.02v-2.98h.96Zm-.96,4.48c0-.12,0-.26-.03-.37-.1-.56-.5-1.04-1.05-1.04-.83,0-1.23.91-1.23,2s.41,1.95,1.2,1.95c.44,0,.9-.28,1.07-.99.03-.11.04-.24.04-.38v-1.17Zm4.19,3.33c-1.22,0-2.16-.97-2.16-2.74s1.02-2.79,2.23-2.79,2.15,1.01,2.15,2.74c0,2.02-1.17,2.8-2.22,2.8Zm-1.18-2.76c0,1.01.39,2.02,1.22,2.02s1.2-1.03,1.2-2.04c0-.85-.29-2.01-1.2-2.01s-1.22,1.13-1.22,2.03Zm4.47-1.24c0-.59-.02-.99-.04-1.43h.85l.05.75h.02c.24-.46.77-.85,1.48-.85.77,0,1.59.52,1.59,2.06v3.37h-.97v-3.25c0-.73-.22-1.38-.95-1.38-.48,0-.88.36-1.01.89-.03.12-.06.29-.06.46v3.27h-.97v-3.9Zm5.94,1.4c.01,1.41.73,1.83,1.51,1.83.52,0,.89-.1,1.18-.23l.16.69c-.33.16-.86.3-1.49.3-1.47,0-2.3-1.06-2.3-2.68s.85-2.84,2.17-2.84c1.41,0,1.88,1.31,1.88,2.44,0,.22-.01.37-.03.49h-3.08Zm1.15-2.21c-.75,0-1.09.83-1.14,1.51h2.17c.01-.81-.31-1.51-1.03-1.51Zm2.88.21c0-.4.27-.69.63-.69s.62.28.62.69c0,.39-.24.68-.63.68-.37,0-.63-.29-.62-.68Zm0,3.93c0-.4.27-.69.63-.69s.62.28.62.69c0,.39-.24.68-.63.68-.37,0-.63-.29-.62-.68Z"/>
      <line x1="478.33" y1="676.8" x2="478.33" y2="773.58" style="fill: none; stroke: #492e1a; stroke-width: .25px;"/>
      <path d="m485.7,696.42c.24.15.66.31,1.05.31.58,0,.85-.28.85-.65s-.23-.58-.81-.8c-.79-.28-1.16-.71-1.16-1.23,0-.7.57-1.28,1.51-1.28.44,0,.82.12,1.07.27l-.2.58c-.17-.11-.49-.26-.89-.26-.47,0-.72.27-.72.6,0,.36.26.52.83.74.75.28,1.14.66,1.14,1.31,0,.77-.6,1.31-1.63,1.31-.48,0-.92-.12-1.22-.3l.19-.6Zm7.32-.39c0,.46.01.85.04,1.19h-.7l-.04-.71h-.02c-.2.35-.66.81-1.44.81-.68,0-1.5-.38-1.5-1.91v-2.54h.79v2.41c0,.83.26,1.39.97,1.39.53,0,.9-.37,1.05-.73.04-.11.07-.26.07-.41v-2.67h.79v3.16Zm1.28,1.19c.02-.3.04-.74.04-1.12v-5.27h.79v2.74h.02c.28-.49.78-.8,1.48-.8,1.08,0,1.84.9,1.84,2.22,0,1.56-.99,2.33-1.96,2.33-.63,0-1.13-.25-1.46-.81h-.02l-.04.72h-.68Zm.82-1.74c0,.1.01.2.03.29.15.55.62.93,1.19.93.83,0,1.32-.67,1.32-1.67,0-.88-.45-1.62-1.3-1.62-.54,0-1.04.38-1.2.97-.02.1-.05.2-.05.33v.78Zm6.3-.98v.58h-2.22v-.58h2.22Zm1.88-2.88v1.25h1.14v.6h-1.14v2.35c0,.54.16.85.6.85.21,0,.35-.03.46-.06l.04.6c-.15.06-.4.11-.71.11-.36,0-.67-.12-.85-.34-.22-.24-.31-.62-.31-1.14v-2.38h-.67v-.6h.67v-1.05l.78-.2Zm5.92,3.39c0,1.61-1.12,2.32-2.17,2.32-1.18,0-2.09-.86-2.09-2.24,0-1.46.96-2.31,2.16-2.31s2.1.91,2.1,2.23Zm-3.45.05c0,.96.55,1.67,1.32,1.67s1.33-.71,1.33-1.7c0-.74-.37-1.67-1.31-1.67s-1.33.87-1.33,1.69Zm5.4-3.44v1.25h1.14v.6h-1.14v2.35c0,.54.16.85.6.85.21,0,.35-.03.46-.06l.04.6c-.15.06-.4.11-.71.11-.36,0-.67-.12-.85-.34-.22-.24-.31-.62-.31-1.14v-2.38h-.67v-.6h.67v-1.05l.78-.2Zm4.44,5.61l-.07-.55h-.02c-.24.34-.71.65-1.33.65-.88,0-1.33-.62-1.33-1.25,0-1.05.93-1.63,2.62-1.62v-.09c0-.35-.1-1.01-.99-1-.41,0-.83.12-1.13.32l-.18-.53c.36-.23.89-.38,1.44-.38,1.33,0,1.66.91,1.66,1.78v1.63c0,.37.02.74.07,1.04h-.71Zm-.12-2.22c-.86-.02-1.84.14-1.84.98,0,.52.34.76.74.76.57,0,.93-.36,1.06-.73.03-.08.04-.17.04-.25v-.76Zm2.83-4.17v6.39h-.79v-6.39h.79Z" style="fill: #31261d;"/>
      <line x1="521.28" y1="696.98" x2="588" y2="696.98" style="fill: none; stroke: #63a844; stroke-width: .5px;"/>
      <path d="m489.19,733.98c.24.15.66.31,1.05.31.58,0,.85-.28.85-.65s-.23-.58-.81-.8c-.79-.28-1.16-.71-1.16-1.23,0-.7.57-1.28,1.51-1.28.44,0,.82.12,1.07.27l-.2.58c-.17-.11-.49-.26-.89-.26-.47,0-.72.27-.72.6,0,.36.26.52.83.74.75.28,1.14.66,1.14,1.31,0,.77-.6,1.31-1.63,1.31-.48,0-.92-.12-1.22-.3l.19-.6Zm6.09.81l-.07-.55h-.02c-.24.34-.71.65-1.33.65-.88,0-1.33-.62-1.33-1.25,0-1.05.93-1.63,2.62-1.62v-.09c0-.35-.1-1.01-.99-1-.41,0-.83.12-1.13.32l-.18-.53c.36-.23.89-.38,1.44-.38,1.33,0,1.66.91,1.66,1.78v1.63c0,.37.02.74.07,1.04h-.71Zm-.12-2.22c-.86-.02-1.84.14-1.84.98,0,.52.34.76.74.76.57,0,.93-.36,1.06-.73.03-.08.04-.17.04-.25v-.76Zm2.83-4.17v6.39h-.79v-6.39h.79Zm3.27,5.87c.57,0,.91-.1,1.21-.22l.14.56c-.28.13-.76.28-1.45.28-1.34,0-2.14-.89-2.14-2.2s.78-2.35,2.05-2.35c1.42,0,1.79,1.25,1.79,2.05,0,.17,0,.29-.03.37h-3.05c.02,1.07.69,1.51,1.49,1.51Zm.83-2.08c0-.5-.2-1.28-1.09-1.28-.81,0-1.15.73-1.22,1.28h2.31Zm1.64,1.8c.24.15.66.31,1.05.31.58,0,.85-.28.85-.65s-.23-.58-.81-.8c-.79-.28-1.16-.71-1.16-1.23,0-.7.57-1.28,1.51-1.28.44,0,.82.12,1.07.27l-.2.58c-.17-.11-.49-.26-.89-.26-.47,0-.72.27-.72.6,0,.36.26.52.83.74.75.28,1.14.66,1.14,1.31,0,.77-.6,1.31-1.63,1.31-.48,0-.92-.12-1.22-.3l.19-.6Zm6.53-4.8v1.25h1.14v.6h-1.14v2.35c0,.54.16.85.6.85.21,0,.35-.03.46-.06l.04.6c-.15.06-.4.11-.71.11-.36,0-.67-.12-.85-.34-.22-.24-.31-.62-.31-1.14v-2.38h-.67v-.6h.67v-1.05l.78-.2Zm4.44,5.61l-.07-.55h-.02c-.24.34-.71.65-1.33.65-.88,0-1.33-.62-1.33-1.25,0-1.05.93-1.63,2.62-1.62v-.09c0-.35-.1-1.01-.99-1-.41,0-.83.12-1.13.32l-.18-.53c.36-.23.89-.38,1.44-.38,1.33,0,1.66.91,1.66,1.78v1.63c0,.37.02.74.07,1.04h-.71Zm-.12-2.22c-.86-.02-1.84.14-1.84.98,0,.52.34.76.74.76.57,0,.93-.36,1.06-.73.03-.08.04-.17.04-.25v-.76Zm2.41-2.13l.62.93c.16.24.3.47.44.71h.02c.14-.26.29-.48.44-.72l.6-.92h.86l-1.49,2.1,1.53,2.25h-.9l-.64-.98c-.17-.25-.31-.5-.47-.76h-.02c-.14.27-.29.49-.46.76l-.63.98h-.87l1.55-2.22-1.48-2.13h.88Z" style="fill: #31261d;"/>
      <line x1="521.28" y1="734.54" x2="588" y2="734.54" style="fill: none; stroke: #63a844; stroke-width: .5px;"/>
      <line x1="547.44" y1="713.17" x2="588" y2="713.17" style="fill: none; stroke: #63a844; stroke-width: .25px;"/>
      <path d="m501.28,750.71v1.28h1.04v1.01h-1.04v1.56c0,.54.11.82.57.82.2,0,.35-.02.44-.05v1.03c-.16.07-.5.13-.9.13-.46,0-.84-.17-1.06-.4-.26-.27-.37-.7-.37-1.3v-1.79h-.61v-1.01h.61v-.97l1.32-.31Zm6.47,3.42c0,1.55-1.18,2.36-2.48,2.36s-2.42-.86-2.42-2.27.97-2.34,2.51-2.34c1.42,0,2.39.94,2.39,2.25Zm-3.48.06c0,.78.4,1.34,1.04,1.34.6,0,1.03-.49,1.03-1.35,0-.67-.31-1.34-1.02-1.34s-1.05.66-1.05,1.35Zm5.9-3.48v1.28h1.04v1.01h-1.04v1.56c0,.54.11.82.57.82.2,0,.35-.02.44-.05v1.03c-.16.07-.5.13-.9.13-.46,0-.84-.17-1.06-.4-.26-.27-.37-.7-.37-1.3v-1.79h-.61v-1.01h.61v-.97l1.32-.31Zm4.46,5.22h-.03c-.3.35-.78.56-1.35.56-.96,0-1.49-.67-1.49-1.34,0-1.14,1.02-1.7,2.75-1.7v-.05c0-.21-.1-.61-.88-.6-.47,0-.99.16-1.29.35l-.25-.86c.33-.19.95-.41,1.78-.41,1.5,0,2,.86,2,1.91v1.51c0,.43.02.84.07,1.08h-1.23l-.08-.45Zm-.08-1.63c-.83,0-1.43.18-1.43.71,0,.35.24.53.6.53.4,0,.71-.27.81-.56.02-.08.03-.16.03-.24v-.44Zm2.49-4.35h1.36v6.44h-1.36v-6.44Z" style="fill: #31261d;"/>
      <line x1="521.28" y1="756.14" x2="588" y2="756.14" style="fill: none; stroke: #63a844; stroke-width: .5px;"/>
      <line x1="24" y1="651.14" x2="588" y2="651.14" style="fill: none; stroke: #492e1a; stroke-width: .25px;"/>
      <line x1="24" y1="667.93" x2="588" y2="667.93" style="fill: none; stroke: #492e1a; stroke-width: .25px;"/>
      <line x1="24" y1="713.05" x2="223.8" y2="713.05" style="fill: none; stroke: #63a844; stroke-width: .5px;"/>
      <path d="m24.49,718.33c.21.13.58.28.93.28.51,0,.75-.25.75-.57s-.2-.51-.72-.7c-.7-.25-1.03-.63-1.03-1.1,0-.63.51-1.14,1.34-1.14.39,0,.74.11.95.24l-.18.52c-.15-.09-.43-.23-.79-.23-.41,0-.64.24-.64.53,0,.32.23.46.73.65.67.25,1.01.59,1.02,1.16,0,.69-.53,1.17-1.45,1.17-.43,0-.82-.11-1.09-.27l.17-.54Zm4.07-4.24c0,.24-.17.44-.45.44-.26,0-.43-.2-.43-.44,0-.24.18-.44.44-.44s.44.19.44.44Zm-.8,4.96v-3.87h.71v3.87h-.71Zm5.23-3.87c-.02.27-.03.59-.03,1.06v2.24c0,.89-.18,1.43-.55,1.77-.38.35-.92.46-1.41.46s-.98-.11-1.29-.32l.18-.55c.26.16.66.31,1.14.31.71,0,1.24-.37,1.24-1.35v-.43h-.02c-.21.36-.63.65-1.23.65-.96,0-1.65-.82-1.65-1.89,0-1.31.85-2.05,1.75-2.05.67,0,1.03.34,1.2.66h.02l.03-.58h.63Zm-.74,1.52c0-.11-.01-.22-.04-.31-.13-.41-.47-.74-.98-.74-.67,0-1.14.56-1.14,1.46,0,.75.39,1.39,1.14,1.39.43,0,.82-.27.97-.72.04-.11.05-.25.05-.37v-.69Zm1.83-.47c0-.41-.01-.73-.03-1.05h.63l.04.63h.02c.19-.36.64-.72,1.28-.72.54,0,1.36.32,1.36,1.65v2.31h-.71v-2.23c0-.62-.23-1.14-.89-1.14-.46,0-.82.33-.94.72-.03.09-.05.21-.05.33v2.33h-.71v-2.82Zm6.59,2.82l-.06-.49h-.02c-.21.3-.63.57-1.18.57-.78,0-1.18-.55-1.18-1.11,0-.94.83-1.45,2.32-1.44v-.08c0-.31-.09-.89-.88-.88-.36,0-.74.11-1.01.29l-.16-.47c.32-.21.79-.34,1.28-.34,1.18,0,1.48.81,1.48,1.59v1.44c0,.33.02.66.06.93h-.64Zm-.11-1.97c-.76-.02-1.62.12-1.62.86,0,.46.3.67.65.67.5,0,.82-.32.94-.64.02-.07.03-.15.03-.22v-.67Zm2.65-3.01v1.11h1.01v.54h-1.01v2.07c0,.48.14.75.53.75.18,0,.31-.02.41-.05l.03.54c-.14.05-.36.1-.63.1-.32,0-.59-.11-.76-.3-.19-.21-.27-.56-.27-1.01v-2.1h-.6v-.54h.6v-.93l.7-.18Zm5.04,3.92c0,.41.01.76.03,1.06h-.63l-.04-.63h-.02c-.18.31-.59.72-1.28.72-.61,0-1.33-.34-1.33-1.69v-2.26h.71v2.14c0,.73.23,1.23.86,1.23.47,0,.79-.33.92-.64.04-.1.06-.23.06-.36v-2.37h.71v2.81Zm1.16-1.6c0-.46-.01-.85-.03-1.21h.63l.03.76h.03c.18-.52.61-.85,1.08-.85.08,0,.13,0,.2.02v.67c-.07-.02-.14-.02-.24-.02-.49,0-.84.37-.94.89-.02.1-.03.21-.03.33v2.06h-.71v-2.66Zm4.27,2.19c.5,0,.81-.09,1.07-.2l.12.51c-.25.11-.68.25-1.29.25-1.19,0-1.91-.79-1.91-1.95s.69-2.09,1.82-2.09c1.26,0,1.59,1.1,1.59,1.82,0,.15,0,.26-.02.33h-2.71c.01.94.62,1.33,1.32,1.33Zm.73-1.84c0-.44-.18-1.13-.96-1.13-.71,0-1.02.64-1.07,1.13h2.04Z" style="fill: #31261d;"/>
      <line x1="24" y1="734.62" x2="223.8" y2="734.62" style="fill: none; stroke: #63a844; stroke-width: .5px;"/>
      <path d="m24.58,737.81c0-.41-.01-.73-.03-1.05h.63l.04.63h.02c.19-.36.64-.72,1.28-.72.54,0,1.36.32,1.36,1.65v2.31h-.71v-2.23c0-.62-.23-1.14-.89-1.14-.46,0-.82.33-.94.72-.03.09-.05.21-.05.33v2.33h-.71v-2.82Zm6.59,2.82l-.06-.49h-.02c-.21.3-.63.57-1.18.57-.78,0-1.18-.55-1.18-1.11,0-.94.83-1.45,2.32-1.44v-.08c0-.31-.09-.89-.88-.88-.36,0-.74.11-1.01.29l-.16-.47c.32-.21.79-.34,1.28-.34,1.18,0,1.48.81,1.48,1.59v1.44c0,.33.02.66.06.93h-.64Zm-.11-1.97c-.76-.02-1.62.12-1.62.86,0,.46.3.67.65.67.5,0,.82-.32.94-.64.02-.07.03-.15.03-.22v-.67Zm1.83-.85c0-.41-.01-.73-.03-1.05h.62l.04.62h.02c.21-.37.57-.71,1.22-.71.52,0,.92.32,1.09.77h.02c.12-.22.28-.39.44-.5.23-.17.49-.27.85-.27.52,0,1.28.34,1.28,1.68v2.28h-.7v-2.19c0-.75-.27-1.19-.83-1.19-.4,0-.71.29-.83.63-.03.1-.06.23-.06.35v2.39h-.7v-2.32c0-.61-.27-1.05-.8-1.05-.44,0-.75.35-.87.7-.03.1-.05.23-.05.35v2.33h-.7v-2.82Zm8.4,2.35c.5,0,.81-.09,1.07-.2l.12.51c-.25.11-.68.25-1.29.25-1.19,0-1.91-.79-1.91-1.95s.69-2.09,1.82-2.09c1.26,0,1.59,1.1,1.59,1.82,0,.15,0,.26-.02.33h-2.71c.01.94.62,1.33,1.32,1.33Zm.73-1.84c0-.44-.18-1.13-.96-1.13-.71,0-1.02.64-1.07,1.13h2.04Z" style="fill: #31261d;"/>
      <line x1="24" y1="756.2" x2="223.8" y2="756.2" style="fill: none; stroke: #63a844; stroke-width: .5px;"/>
      <path d="m27.93,756.27v4.68c0,.35.01.73.03,1h-.64l-.04-.67h-.02c-.22.43-.68.75-1.31.75-.94,0-1.66-.79-1.66-1.97,0-1.29.8-2.08,1.74-2.08.59,0,.99.28,1.16.58h.02v-2.3h.71Zm-.71,3.38c0-.09,0-.21-.03-.3-.11-.44-.49-.8-1.01-.8-.72,0-1.16.64-1.16,1.48,0,.78.39,1.43,1.14,1.43.47,0,.89-.32,1.02-.84.02-.09.03-.19.03-.3v-.67Zm4.02,2.29l-.06-.49h-.02c-.21.3-.63.57-1.18.57-.78,0-1.18-.55-1.18-1.11,0-.94.83-1.45,2.32-1.44v-.08c0-.31-.09-.89-.88-.88-.36,0-.74.11-1.01.29l-.16-.47c.32-.21.79-.34,1.28-.34,1.18,0,1.48.81,1.48,1.59v1.44c0,.33.02.66.06.93h-.64Zm-.11-1.97c-.76-.02-1.62.12-1.62.86,0,.46.3.67.65.67.5,0,.82-.32.94-.64.02-.07.03-.15.03-.22v-.67Zm2.65-3.01v1.11h1.01v.54h-1.01v2.07c0,.48.14.75.53.75.18,0,.31-.02.41-.05l.03.54c-.14.05-.36.1-.63.1-.32,0-.59-.11-.76-.3-.19-.21-.27-.56-.27-1.01v-2.1h-.6v-.54h.6v-.93l.7-.18Zm3.48,4.51c.5,0,.81-.09,1.07-.2l.12.51c-.25.11-.68.25-1.29.25-1.19,0-1.91-.79-1.91-1.95s.69-2.09,1.82-2.09c1.26,0,1.59,1.1,1.59,1.82,0,.15,0,.26-.02.33h-2.71c.01.94.62,1.33,1.32,1.33Zm.73-1.84c0-.44-.18-1.13-.96-1.13-.71,0-1.02.64-1.07,1.13h2.04Z" style="fill: #31261d;"/>
      <line x1="235.8" y1="713" x2="474" y2="713" style="fill: none; stroke: #63a844; stroke-width: .5px;"/>
      <path d="m236.29,718.28c.21.13.58.28.93.28.51,0,.75-.25.75-.57s-.2-.51-.72-.7c-.7-.25-1.03-.63-1.03-1.1,0-.63.51-1.14,1.34-1.14.39,0,.74.11.95.24l-.18.52c-.15-.09-.43-.23-.79-.23-.41,0-.64.24-.64.53,0,.32.23.46.73.65.67.25,1.01.59,1.02,1.16,0,.69-.53,1.17-1.45,1.17-.43,0-.82-.11-1.09-.27l.17-.54Zm4.07-4.24c0,.24-.17.44-.45.44-.26,0-.43-.2-.43-.44,0-.24.18-.44.44-.44s.44.19.44.44Zm-.8,4.96v-3.87h.71v3.87h-.71Zm5.23-3.87c-.02.27-.03.59-.03,1.06v2.24c0,.89-.18,1.43-.55,1.77-.38.35-.92.46-1.41.46s-.98-.11-1.29-.32l.18-.55c.26.16.66.31,1.14.31.71,0,1.24-.37,1.24-1.35v-.43h-.02c-.21.36-.63.65-1.23.65-.96,0-1.65-.82-1.65-1.89,0-1.31.85-2.05,1.75-2.05.67,0,1.03.34,1.2.66h.02l.03-.58h.63Zm-.74,1.52c0-.11-.01-.22-.04-.31-.13-.41-.47-.74-.98-.74-.67,0-1.14.56-1.14,1.46,0,.75.39,1.39,1.14,1.39.43,0,.82-.27.97-.72.04-.11.05-.25.05-.37v-.69Zm1.83-.47c0-.41-.01-.73-.03-1.05h.63l.04.63h.02c.19-.36.64-.72,1.28-.72.54,0,1.36.32,1.36,1.65v2.31h-.71v-2.23c0-.62-.23-1.14-.89-1.14-.46,0-.82.33-.94.72-.03.09-.05.21-.05.33v2.33h-.71v-2.82Zm6.59,2.82l-.06-.49h-.02c-.21.3-.63.57-1.18.57-.78,0-1.18-.55-1.18-1.11,0-.94.83-1.45,2.32-1.44v-.08c0-.31-.09-.89-.88-.88-.36,0-.74.11-1.01.29l-.16-.47c.32-.21.79-.34,1.28-.34,1.18,0,1.48.81,1.48,1.59v1.44c0,.33.02.66.06.93h-.64Zm-.11-1.97c-.76-.02-1.62.12-1.62.86,0,.46.3.67.65.67.5,0,.82-.32.94-.64.02-.07.03-.15.03-.22v-.67Zm2.65-3.01v1.11h1.01v.54h-1.01v2.07c0,.48.14.75.53.75.18,0,.31-.02.41-.05l.03.54c-.14.05-.36.1-.63.1-.32,0-.59-.11-.76-.3-.19-.21-.27-.56-.27-1.01v-2.1h-.6v-.54h.6v-.93l.7-.18Zm5.04,3.92c0,.41.01.76.03,1.06h-.63l-.04-.63h-.02c-.18.31-.59.72-1.28.72-.61,0-1.33-.34-1.33-1.69v-2.26h.71v2.14c0,.73.23,1.23.86,1.23.47,0,.79-.33.92-.64.04-.1.06-.23.06-.36v-2.37h.71v2.81Zm1.16-1.6c0-.46-.01-.85-.03-1.21h.63l.03.76h.03c.18-.52.61-.85,1.08-.85.08,0,.13,0,.2.02v.67c-.07-.02-.14-.02-.24-.02-.49,0-.84.37-.94.89-.02.1-.03.21-.03.33v2.06h-.71v-2.66Zm4.27,2.19c.5,0,.81-.09,1.07-.2l.12.51c-.25.11-.68.25-1.29.25-1.19,0-1.91-.79-1.91-1.95s.69-2.09,1.82-2.09c1.26,0,1.59,1.1,1.59,1.82,0,.15,0,.26-.02.33h-2.71c.01.94.62,1.33,1.32,1.33Zm.73-1.84c0-.44-.18-1.13-.96-1.13-.71,0-1.02.64-1.07,1.13h2.04Z" style="fill: #31261d;"/>
      <line x1="235.8" y1="734.58" x2="474" y2="734.58" style="fill: none; stroke: #63a844; stroke-width: .5px;"/>
      <path d="m236.38,737.76c0-.41-.01-.73-.03-1.05h.63l.04.63h.02c.19-.36.64-.72,1.28-.72.54,0,1.36.32,1.36,1.65v2.31h-.71v-2.23c0-.62-.23-1.14-.89-1.14-.46,0-.82.33-.94.72-.03.09-.05.21-.05.33v2.33h-.71v-2.82Zm6.59,2.82l-.06-.49h-.02c-.21.3-.63.57-1.18.57-.78,0-1.18-.55-1.18-1.11,0-.94.83-1.45,2.32-1.44v-.08c0-.31-.09-.89-.88-.88-.36,0-.74.11-1.01.29l-.16-.47c.32-.21.79-.34,1.28-.34,1.18,0,1.48.81,1.48,1.59v1.44c0,.33.02.66.06.93h-.64Zm-.11-1.97c-.76-.02-1.62.12-1.62.86,0,.46.3.67.65.67.5,0,.82-.32.94-.64.02-.07.03-.15.03-.22v-.67Zm1.83-.85c0-.41-.01-.73-.03-1.05h.62l.04.62h.02c.21-.37.57-.71,1.22-.71.52,0,.92.32,1.09.77h.02c.12-.22.28-.39.44-.5.23-.17.49-.27.85-.27.52,0,1.28.34,1.28,1.68v2.28h-.7v-2.19c0-.75-.27-1.19-.83-1.19-.4,0-.71.29-.83.63-.03.1-.06.23-.06.35v2.39h-.7v-2.32c0-.61-.27-1.05-.8-1.05-.44,0-.75.35-.87.7-.03.1-.05.23-.05.35v2.33h-.7v-2.82Zm8.4,2.35c.5,0,.81-.09,1.07-.2l.12.51c-.25.11-.68.25-1.29.25-1.19,0-1.91-.79-1.91-1.95s.69-2.09,1.82-2.09c1.26,0,1.59,1.1,1.59,1.82,0,.15,0,.26-.02.33h-2.71c.01.94.62,1.33,1.32,1.33Zm.73-1.84c0-.44-.18-1.13-.96-1.13-.71,0-1.02.64-1.07,1.13h2.04Z" style="fill: #31261d;"/>
      <line x1="235.8" y1="756.15" x2="474" y2="756.15" style="fill: none; stroke: #63a844; stroke-width: .5px;"/>
      <path d="m239.73,756.47v4.68c0,.35.01.73.03,1h-.64l-.04-.67h-.02c-.22.43-.68.75-1.31.75-.94,0-1.66-.79-1.66-1.97,0-1.29.8-2.08,1.74-2.08.59,0,.99.28,1.16.58h.02v-2.3h.71Zm-.71,3.38c0-.09,0-.21-.03-.3-.11-.44-.49-.8-1.01-.8-.72,0-1.16.64-1.16,1.48,0,.78.39,1.43,1.14,1.43.47,0,.89-.32,1.02-.84.02-.09.03-.19.03-.3v-.67Zm4.02,2.29l-.06-.49h-.02c-.21.3-.63.57-1.18.57-.78,0-1.18-.55-1.18-1.11,0-.94.83-1.45,2.32-1.44v-.08c0-.31-.09-.89-.88-.88-.36,0-.74.11-1.01.29l-.16-.47c.32-.21.79-.34,1.28-.34,1.18,0,1.48.81,1.48,1.59v1.44c0,.33.02.66.06.93h-.64Zm-.11-1.97c-.76-.02-1.62.12-1.62.86,0,.46.3.67.65.67.5,0,.82-.32.94-.64.02-.07.03-.15.03-.22v-.67Zm2.65-3.01v1.11h1.01v.54h-1.01v2.07c0,.48.14.75.53.75.18,0,.31-.02.41-.05l.03.54c-.14.05-.36.1-.63.1-.32,0-.59-.11-.76-.3-.19-.21-.27-.56-.27-1.01v-2.1h-.6v-.54h.6v-.93l.7-.18Zm3.48,4.51c.5,0,.81-.09,1.07-.2l.12.51c-.25.11-.68.25-1.29.25-1.19,0-1.91-.79-1.91-1.95s.69-2.09,1.82-2.09c1.26,0,1.59,1.1,1.59,1.82,0,.15,0,.26-.02.33h-2.71c.01.94.62,1.33,1.32,1.33Zm.73-1.84c0-.44-.18-1.13-.96-1.13-.71,0-1.02.64-1.07,1.13h2.04Z" style="fill: #31261d;"/>
      <path d="m543.52,706.44l.62.93c.16.24.3.47.44.71h.02c.14-.26.29-.48.44-.72l.6-.92h.86l-1.49,2.1,1.53,2.25h-.9l-.64-.98c-.17-.25-.31-.5-.47-.76h-.02c-.14.27-.29.49-.46.76l-.63.98h-.87l1.55-2.22-1.48-2.13h.88Z" style="fill: #31261d;"/>
      <line x1="24" y1="584.01" x2="588" y2="584.01" style="fill: none; stroke: #492e1a; stroke-width: .25px;"/>
      <path d="m374.23,198.08c-1.17,0-1.93-.79-1.93-1.98s.81-2.06,2.08-2.06c.41,0,.79.1.98.2l-.16.55c-.17-.09-.43-.18-.82-.18-.88,0-1.36.66-1.36,1.46,0,.89.57,1.44,1.34,1.44.39,0,.66-.1.86-.18l.12.54c-.19.09-.59.22-1.11.22Zm5.39-2.06c0,1.43-.99,2.06-1.93,2.06-1.05,0-1.86-.76-1.86-1.99,0-1.29.85-2.05,1.92-2.05s1.86.81,1.86,1.98Zm-3.06.04c0,.84.48,1.48,1.16,1.48s1.17-.63,1.17-1.5c0-.65-.33-1.47-1.16-1.47s-1.18.77-1.18,1.5Zm3.94-.89c0-.41-.01-.73-.03-1.05h.63l.04.63h.02c.19-.36.64-.72,1.28-.72.54,0,1.36.32,1.36,1.65v2.31h-.71v-2.23c0-.62-.23-1.14-.89-1.14-.46,0-.82.33-.94.72-.03.09-.05.21-.05.33v2.33h-.71v-2.82Zm5.27-2.16v1.11h1.01v.54h-1.01v2.07c0,.48.14.75.53.75.18,0,.31-.02.41-.05l.03.54c-.14.05-.36.1-.63.1-.32,0-.59-.11-.76-.3-.19-.21-.27-.56-.27-1.01v-2.1h-.6v-.54h.6v-.93l.7-.18Zm1.8,2.32c0-.46-.01-.85-.03-1.21h.63l.03.76h.03c.18-.52.61-.85,1.08-.85.08,0,.13,0,.2.02v.67c-.07-.02-.14-.02-.24-.02-.49,0-.84.37-.94.89-.02.1-.03.21-.03.33v2.06h-.71v-2.66Zm4.72,2.66l-.06-.49h-.02c-.21.3-.63.57-1.18.57-.78,0-1.18-.55-1.18-1.11,0-.94.83-1.45,2.32-1.44v-.08c0-.31-.09-.89-.88-.88-.36,0-.74.11-1.01.29l-.16-.47c.32-.21.79-.34,1.28-.34,1.18,0,1.48.81,1.48,1.59v1.44c0,.33.02.66.06.93h-.64Zm-.11-1.97c-.76-.02-1.62.12-1.62.86,0,.46.3.67.65.67.5,0,.82-.32.94-.64.02-.07.03-.15.03-.22v-.67Zm3.48,2.06c-1.17,0-1.93-.79-1.93-1.98s.81-2.06,2.08-2.06c.41,0,.79.1.98.2l-.16.55c-.17-.09-.43-.18-.82-.18-.88,0-1.36.66-1.36,1.46,0,.89.57,1.44,1.34,1.44.39,0,.66-.1.86-.18l.12.54c-.19.09-.59.22-1.11.22Zm2.89-5.07v1.11h1.01v.54h-1.01v2.07c0,.48.14.75.53.75.18,0,.31-.02.41-.05l.03.54c-.14.05-.36.1-.63.1-.32,0-.59-.11-.76-.3-.19-.21-.27-.56-.27-1.01v-2.1h-.6v-.54h.6v-.93l.7-.18Zm3.5,2.16c0-.41-.01-.73-.03-1.05h.63l.04.63h.02c.19-.36.64-.72,1.28-.72.54,0,1.36.32,1.36,1.65v2.31h-.71v-2.23c0-.62-.23-1.14-.89-1.14-.46,0-.82.33-.94.72-.03.09-.05.21-.05.33v2.33h-.71v-2.82Zm7.69,1.76c0,.41.01.76.03,1.06h-.63l-.04-.63h-.02c-.18.31-.59.72-1.28.72-.61,0-1.33-.34-1.33-1.69v-2.26h.71v2.14c0,.73.23,1.23.86,1.23.47,0,.79-.33.92-.64.04-.1.06-.23.06-.36v-2.37h.71v2.81Zm1.16-1.76c0-.41-.01-.73-.03-1.05h.62l.04.62h.02c.21-.37.57-.71,1.22-.71.52,0,.92.32,1.09.77h.02c.12-.22.28-.39.44-.5.23-.17.49-.27.85-.27.52,0,1.28.34,1.28,1.68v2.28h-.7v-2.19c0-.75-.27-1.19-.83-1.19-.4,0-.71.29-.83.63-.03.1-.06.23-.06.35v2.39h-.7v-2.32c0-.61-.27-1.05-.8-1.05-.44,0-.75.35-.87.7-.03.1-.05.23-.05.35v2.33h-.7v-2.82Zm6.65,2.82c.02-.27.03-.66.03-1v-4.68h.71v2.43h.02c.25-.43.69-.71,1.32-.71.96,0,1.64.8,1.63,1.97,0,1.39-.88,2.07-1.74,2.07-.56,0-1-.22-1.29-.72h-.02l-.04.63h-.62Zm.74-1.55c0,.09.01.17.03.25.13.48.54.82,1.05.82.73,0,1.17-.59,1.17-1.48,0-.77-.4-1.44-1.15-1.44-.47,0-.92.33-1.06.86-.02.09-.04.18-.04.29v.69Zm5.58,1.08c.5,0,.81-.09,1.07-.2l.12.51c-.25.11-.68.25-1.29.25-1.19,0-1.91-.79-1.91-1.95s.69-2.09,1.82-2.09c1.26,0,1.59,1.1,1.59,1.82,0,.15,0,.26-.02.33h-2.71c.01.94.62,1.33,1.32,1.33Zm.73-1.84c0-.44-.18-1.13-.96-1.13-.71,0-1.02.64-1.07,1.13h2.04Zm1.56-.35c0-.46-.01-.85-.03-1.21h.63l.03.76h.03c.18-.52.61-.85,1.08-.85.08,0,.13,0,.2.02v.67c-.07-.02-.14-.02-.24-.02-.49,0-.84.37-.94.89-.02.1-.03.21-.03.33v2.06h-.71v-2.66Z" style="fill: #31261d;"/>
      <line x1="372" y1="192" x2="588" y2="192" style="fill: none; stroke: #63a844; stroke-width: .5px;"/>
      <g style="clip-path: url(#clippath-4);">
        <path d="m-12.51,134.92c13.31-1.36,26.56-2.44,39.8-3.37,13.23-.92,26.44-1.65,39.66-2.31,13.21-.61,26.41-1.15,39.62-1.56,13.21-.4,26.41-.71,39.64-.9l9.93-.1,9.94-.04,9.96.04c3.33.05,6.69.08,10,.15l9.9.23,4.95.12,4.95.15,9.9.3,9.91.37c13.21.52,26.42,1.17,39.64,2.03,13.21.86,26.44,1.95,39.61,3.27l19.63,2.04c1.61.16,3.24.34,4.83.48l4.86.45,4.97.47,4.92.48c13.09,1.31,26.11,2.59,39.16,3.75,26.09,2.31,52.2,4.23,78.29,5.13l9.78.27,9.83.2c6.56.11,13.11.22,19.66.26,13.1.1,26.19.05,39.27-.25,13.08-.31,26.15-.87,39.18-1.82,13.03-.95,26.03-2.29,38.91-4.28l1,5.64c-13,2.56-26.1,4.44-39.23,5.95-13.13,1.5-26.3,2.6-39.47,3.45-13.17.85-26.35,1.44-39.53,1.88-6.59.22-13.17.39-19.76.55l-9.88.2-9.93.12c-26.46.13-52.85-.76-79.18-2.05-13.17-.65-26.33-1.42-39.44-2.21l-4.9-.29-4.86-.26-4.96-.26c-1.69-.09-3.33-.21-4.99-.3l-19.64-1.29c-13.02-.8-26.02-1.38-39.06-1.74-13.03-.36-26.09-.5-39.15-.53h-9.8s-9.8.08-9.8.08l-4.9.04-4.9.07-9.81.14c-3.26.05-6.47.15-9.71.24l-9.74.36-9.76.43-9.77.5c-13.04.71-26.08,1.54-39.12,2.46-13.04.93-26.06,1.98-39.07,3.11-13,1.17-25.99,2.42-38.93,3.84-12.93,1.44-25.83,3.01-38.6,4.84l-3.79-30.51Z" style="fill: #623515;"/>
      </g>
      <g style="clip-path: url(#clippath-5);">
        <path d="m171.88,51.77c.47-1.15,1.31-2.94,2.61-4.71,2.14-2.92,5.27-6.95,14.54-9.24,10.06-2.48,16.71-4.18,26.8-6.5,2.18-.5,3.91-.95,5.33-1.37,2.25.58,8.66-.08,13.44,2.03,2.57,1.13,8.29,3.7,8.84,2.93,1.34-1.89-10.3-7.06-16.53-7.19l.14-.07c.82-.42,1.58-.83,2.52-1.3,4.68-2.34,7.91-8.56-.03-4.64-.97.48-6.66,2.73-9.58,3.53-6.72,1.84-12.3,2.85-18.02,3.97-.89-.41.65-2.47,1.48-3.31,5.44-5.48,2.24-6.87-3.26-.28-1.3,1.56-1.86,3.42-2.74,4.33-3.2.66-5.7,1.42-9.36,2.42-.83.23-1.63.46-2.4.69-1.16-2.86,9.75-10.43,7.18-12.92-.79-.77-4.12,2.97-5.29,4.26-2.05,2.26-3.42,3.11-5.14,5.45-1.32,1.79-1.79,3.39-3.82,5.83-5.95,2.7-9.08,5.78-11.01,9.33-3.48-5.67-2.58-8.17.26-12.43,5.7-8.54,1.01-7.88-4.77-.1-2.36,3.18-2.46,6.87-.82,13.61.18.64-1.03,2.52-3.21,3.65-.88.46-2.94,1.26-3.96,1.72-2.7,1.23-3.57,4.14,4.54,1.45,2.18-.72,3.15-2.65,4.81-2.28v-.82c.28.42.56,1.65.84,2.06-.28,1-.54,1.22-.8,2.29-.71,2.88-1.32,6.09-3.93,12.36-3.42-3.68-7.39-6.85-11.68-9.53-.34-1.08.16-3.99.63-6.07.93-1.12,4,.01,7.66-3.27,1.99-1.2,4.32-6.18,1.62-4.37,0,0-2.73,1.69-3.83,2.59-1.29,1.05-3.18,2.02-4.1,1.67h0c1.74-2.91,4.63-5.99,4.82-10.06.77-15.92-2.27-21.28-3.62-.72-.18,2.2-.79,3.42-1.64,4.56h0c-3.79-2.27-5.57-3.72-6.97-4.28-6.47-2.61-10.08-2.59-8.23-.69,1.85,1.9,3.53,1.61,9.18,5.11.93.58,2.19,1.21,2.6,2.88-1.47,1.49-3.08,4.14-3.27,5.98-3.23-7.6-8.04-9.31-13.38-11.43-.13-4.99-.09-4.76.82-7.41,2.16-6.31,3.8-8.46,2.93-8.38-2.68.27-4.48,6.64-5.33,8.65-.04.1-.09.2-.13.3-2.86-.51-14.15-11.75-13.38-8.36,1.12,4.92,11.89,10.19,11.41,12.25h.01c-.29.55-.4.75-.77,1.49-3.15-.85-6.43-1.39-9.72-1.83-3.03-.29-5.94-.32-8.67-.21-1.94-5.31-6.26-7.04-8.36-7.96-1.84-.8-6.89-1.82-6.79-1,.2,1.7,12.7,5.53,10.5,9.26-2.64.24-5.05.54-7.17.79-2.19.25-6.01.28-8.57-.6-4.32-1.49-5.56-1.16-4.12,1.42,2.81,5.02,24.21,1.59,33.17,3.66,6.62,1.53,14.14,5.67,17.46,8.84-9.74-3.35-19.6-4.65-27.31-4.07-4.11.31-10.65,2.42-16.05,4.1-1.06-1.91,1.19-3.37,1.64-4.16,1.2-2.1,1.12-2.93,1.16-3.26.26-2.71-2.42.45-3.26,1.77-1.13,1.77-1.6,2.43-3.64,4.29-1.7-1.09-8.05-.81-11.64-5.98-.5-.71-3.07-4.29-3.9-3.78-1.22.54,1.36,5.68,1.94,6.6.76,1.19,3.22,4,5.29,4.65,1.23.39,3.8.56,5.3,1.69-4.5.91-8.52,1.41-14.14,1.68-4.98-.05-6.14,3-1.13,4.37,9.2,1.55,16.69.67,24.85-.9-1.58,2.88-1.52,2.97-3.87,5.27-.52.45-1.02.88-1.5,1.3h0c-5.25-3.63-15.6,3.8-21.71-.05-7.83-4.93-1.27,3.24,2.69,3.69,7.2.82,12.23-2.26,14.14.46-1.86,1.52-3.9,2.88-6.28,4.99-4.99,4.41-11.65,11.98-10.36,12.49,1.73.68,16.76-11.68,21.18-14.91,4.7-3.43,4.21-3.6,8.67-6.98,2.8-2.13,5.64-4.41,10.95-8.71,2.94-.16,6.05.01,9.15.4.08.4-.75,1.52-1.08,1.99-.91.92-4.23,2.71-5.4,3.24-11.46,5.25-10.34,7.71-.76,4.48,9-3.04,9.01-3.85,15.09-8.25,2.21.53,4.33,1.14,6.26,1.79,9.96,3.33,18.56,13.82,21.61,22.82,4.1,12.1,5.65,23.12,4.24,34.09-1.1,5.46-2.91,10.97-5.18,16.23,6.12.06,23.64.01,29.81.05-6.64-15.97-10.16-33.59-2.54-48.97,4.92-9,15.43-16.31,24.36-19.86,1.67-.59,3.3-1.19,4.88-1.79,7.76-.12,13.88-3.46,23.08.61,4.08,1.97,5.35-.4.62-3.12-3.63-2.09-8.22-1.79-12.17-1.89,3.3-1.17,6.54-2.15,9.99-2.83,6.87.6,4.66,1.76,8.4,4.84.1.6,0,3.23-.04,5.55-.07,4.39,2.83,6.52,2.89,2.91.04-2.07-.4-5.88-.08-6.33.47.29.91.54,1.49.85,1.02.54,2.17,1.07,3.39,1.56,1.49.96.88,6.85,6.14,11.09,10.14,8.16,16.24,4.95,5.31-.5-4.27-2.13-6.15-7.49-6.25-8.71,4.03,1.33,8.21,2.82,10.28,3.78,6.52,3.05,10.58.73.67-3.8-11.04-5.05-20.05-8.45-22.13-12.03,5.53.58,8.68.35,14.73,2.22,9.99,3.08,16.68.21,2.72-4.44-20.51-6.83-31.13-4.35-54.42,3.07-3.84,1.22-10.2,5.04-13.89,6.75-1.3-3.01,16.09-9.84,22.39-12.05,5.71-2,15.48-3.39,21.92-6.66h0c1.79-.19,1.83.49,4.75.73,3.71.3,4.08.26,8.58-.33,6.91-.6,9.89-4.44-.98-2.98-3.16.43-8.76.58-7.97-.06,8.46-6.89-4.44-3.73-21.69,2.77h0c-.02-2.16,2.53-3.03,6.97-5.47,5.24-2.89,3.43-6.78-8.1,1.18-2.54,1.76-3.22,4.62-3.97,5.72-.81.21-1.46.36-2.16.51-6.35,1.35-12.8,3.71-18.11,7.15-.41-1-.45-3.09.45-4.9,1.15-2.29,2.88-2.56,5.07-4.8,4.91-5.03-2.68-1.62-5.76,1.38-2.31,2.24-2.68,4.39-3.2,5.98-1.44-.41-2.56-2.16-3.96-3.28-1.48-1.18-4.27-.74-.5,3.04,2.04,2.04,2.75,3.66,3.01,4.9-.09.46.1.94.02,1.45-2.5,2.34-4.51,5.03-5.8,8.07h0c-2.16-1.97-4.09-6.02-6.85-10.73-1.16,2.74-1.45,4.37-1.88,6.15,1.56,4.14,3.54,9.59,3.54,9.59l-2.59,1.69s-3.02-2.87-.95-11.28c.32-1.3.79-3.57,1.88-6.15" style="fill: #623515;"/>
        <path d="m199.52,109.72c0-3.35.32-6.34.96-8.97.64-2.63,1.49-4.87,2.56-6.71,1.07-1.84,2.29-3.25,3.67-4.24,1.38-.99,2.81-1.48,4.29-1.48,1.69,0,3.19.49,4.49,1.48,1.31.99,2.39,2.36,3.25,4.11.86,1.76,1.51,3.83,1.96,6.21.44,2.39.67,4.98.67,7.78,0,1.1-.03,2.1-.09,3-.06.9-.12,1.6-.18,2.1h-14.86c.33,3.13,1.07,5.39,2.23,6.79,1.16,1.4,2.55,2.1,4.18,2.1,1.01,0,1.96-.23,2.87-.7.9-.46,1.85-1.16,2.83-2.1l2.14,7.24c-1.25,1.48-2.64,2.65-4.18,3.5-1.54.85-3.05,1.28-4.54,1.28-1.72,0-3.32-.48-4.8-1.44-1.48-.96-2.77-2.36-3.87-4.2-1.1-1.84-1.97-4.07-2.6-6.71-.64-2.63-.96-5.65-.96-9.05m15.93-4.2c0-2.36-.34-4.28-1.02-5.76-.68-1.48-1.78-2.22-3.29-2.22-1.19,0-2.25.65-3.18,1.93-.93,1.29-1.54,3.31-1.8,6.05h9.3Z" style="fill: #623515;"/>
        <path d="m222.79,109.72c0-3.35.32-6.34.96-8.97.64-2.63,1.49-4.87,2.56-6.71,1.07-1.84,2.29-3.25,3.67-4.24,1.38-.99,2.81-1.48,4.29-1.48,1.69,0,3.19.49,4.49,1.48,1.31.99,2.39,2.36,3.25,4.11.86,1.76,1.51,3.83,1.96,6.21.44,2.39.67,4.98.67,7.78,0,1.1-.03,2.1-.09,3-.06.9-.12,1.6-.18,2.1h-14.86c.33,3.13,1.07,5.39,2.23,6.79,1.16,1.4,2.55,2.1,4.18,2.1,1.01,0,1.96-.23,2.87-.7.9-.46,1.85-1.16,2.83-2.1l2.14,7.24c-1.25,1.48-2.64,2.65-4.18,3.5-1.54.85-3.05,1.28-4.54,1.28-1.72,0-3.32-.48-4.8-1.44-1.48-.96-2.77-2.36-3.87-4.2-1.1-1.84-1.96-4.07-2.6-6.71-.64-2.63-.96-5.65-.96-9.05m15.93-4.2c0-2.36-.34-4.28-1.02-5.76-.68-1.48-1.78-2.22-3.29-2.22-1.19,0-2.25.65-3.18,1.93-.93,1.29-1.54,3.31-1.8,6.05h9.3Z" style="fill: #623515;"/>
        <path d="m248.9,117.29c1.27,1.48,2.56,2.66,3.85,3.54,1.29.88,2.68,1.32,4.16,1.32s2.6-.3,3.25-.9c.65-.6.98-1.45.98-2.55,0-1.26-.54-2.29-1.62-3.09-1.08-.8-2.51-1.66-4.29-2.59-.98-.49-1.94-1.08-2.87-1.77-.93-.69-1.77-1.51-2.51-2.47-.74-.96-1.34-2.07-1.8-3.33-.46-1.26-.69-2.72-.69-4.36,0-1.86.24-3.59.71-5.18.48-1.59,1.15-2.93,2.02-4.03.87-1.1,1.94-1.96,3.2-2.59,1.26-.63,2.68-.95,4.25-.95,1.96,0,3.74.59,5.36,1.77,1.62,1.18,3,2.46,4.16,3.83l-2.94,7.24c-1.01-1.1-2.05-2.02-3.11-2.76-1.07-.74-2.18-1.11-3.34-1.11-1.4,0-2.38.28-2.96.82-.58.55-.87,1.35-.87,2.39,0,.6.15,1.15.44,1.65.29.49.7.93,1.2,1.32.5.38,1.1.76,1.8,1.11.7.36,1.43.73,2.2,1.11,1.1.55,2.14,1.17,3.11,1.85.98.69,1.84,1.5,2.58,2.43.74.93,1.33,2.06,1.78,3.37.44,1.32.67,2.85.67,4.61,0,1.87-.24,3.6-.71,5.19-.48,1.59-1.17,2.98-2.07,4.16-.9,1.18-2.03,2.11-3.38,2.8-1.35.69-2.92,1.03-4.69,1.03-1.99,0-3.93-.6-5.83-1.81-1.9-1.21-3.56-2.69-4.98-4.44l2.94-7.57Z" style="fill: #623515;"/>
        <path d="m181.29,90.38h5.34l.53,8.89h.13c1.1-3.35,2.42-5.83,3.96-7.45,1.54-1.62,3.2-2.43,4.98-2.43.98,0,1.77.14,2.38.41.61.28,1.24.69,1.89,1.23l-1.33,10.12c-.68-.38-1.3-.67-1.85-.86-.55-.19-1.24-.29-2.07-.29-1.36,0-2.71.74-4.03,2.22-1.32,1.48-2.46,4.06-3.4,7.74v21.24h-6.54v-40.82Z" style="fill: #623515;"/>
        <path d="m73.14,131.25c-.36-.12-.7-.26-1.03-.42-1.7-.79-3.09-1.92-4.2-3.39-1.11-1.47-1.92-3.24-2.43-5.31-.52-2.07-.77-4.4-.77-7.01v-25.46h9.51v26.74c0,1.79.28,3.26.86,4.41.57,1.15,1.61,1.73,3.12,1.73s2.62-.58,3.21-1.73c.59-1.15.89-2.62.89-4.41v-26.74h9.17v25.46c0,2.6-.25,4.94-.75,7.01-.5,2.07-1.28,3.84-2.35,5.31-1.07,1.47-2.44,2.6-4.12,3.39-.31.15-.64.28-.97.4l-10.13.02Z" style="fill: #63a844;"/>
        <path d="m93.72,89.67h9.62l6.03,18.55,2.93,9.34h.22c-.11-1.11-.24-2.32-.39-3.65-.15-1.32-.29-2.68-.44-4.06s-.27-2.77-.36-4.16-.14-2.72-.14-4v-12.03h9.06v41.58h-9.62l-6.02-18.62-2.93-9.28h-.22c.22,2.39.5,4.99.83,7.8s.5,5.5.5,8.06v12.03h-9.06v-41.58Z" style="fill: #63a844;"/>
        <path d="m123.51,89.67h11.83c1.88,0,3.64.16,5.28.48,1.64.32,3.07.86,4.28,1.63,1.22.77,2.17,1.82,2.87,3.17.7,1.34,1.05,3.04,1.05,5.08,0,.9-.12,1.8-.36,2.72-.24.92-.61,1.79-1.11,2.62-.5.83-1.13,1.57-1.91,2.21s-1.68,1.11-2.71,1.41v.26c2.54.6,4.45,1.67,5.72,3.23,1.27,1.56,1.91,3.72,1.91,6.49,0,2.13-.36,3.98-1.08,5.53-.72,1.56-1.71,2.84-2.98,3.84-1.27,1-2.76,1.74-4.45,2.21-1.69.47-3.5.7-5.42.7h-12.93v-41.58Zm11.61,16.38c1.55,0,2.67-.41,3.37-1.22.7-.81,1.05-1.86,1.05-3.13s-.35-2.2-1.05-2.75c-.7-.55-1.83-.83-3.37-.83h-2.1v7.93h2.1Zm.66,16.76c1.88,0,3.23-.4,4.06-1.21.83-.81,1.24-1.98,1.24-3.52s-.41-2.64-1.24-3.33c-.83-.68-2.18-1.02-4.06-1.02h-2.76v9.08h2.76Z" style="fill: #63a844;"/>
        <path d="m150.48,39.05s8.72,5.97,3.88,9.09c-5.06,1.91-3.88-9.09-3.88-9.09" style="fill: #63a844;"/>
        <path d="m108.78,46.58c-7.18.78-6.53-12.26-6.53-12.26,0,0,13.45,5.64,6.53,12.26" style="fill: #63a844;"/>
        <path d="m98.6,55.63s3.37,10.47,9.83,6.55c2.72-8.31-9.83-6.55-9.83-6.55" style="fill: #63a844;"/>
        <path d="m129.64,13.06s7,7.8,2.32,12.02c-9.14-1.25-2.32-12.02-2.32-12.02" style="fill: #63a844;"/>
        <path d="m107.05,20.09s.91,12.69-4.96,10.37c-3.42-5.86,4.96-10.37,4.96-10.37" style="fill: #63a844;"/>
        <path d="m183.6,51.15s-11.65-2.49-10.15,5.7c5.78,3.34,10.15-5.7,10.15-5.7" style="fill: #63a844;"/>
        <path d="m176.23,42.07s-10.91-2.81-9.79,3.11c3.86,5.14,9.79-3.11,9.79-3.11" style="fill: #63a844;"/>
        <path d="m258.27,33.68s-3.6,8.08-8.12,5.77c-4.21-4.89,8.12-5.77,8.12-5.77" style="fill: #63a844;"/>
        <path d="m231.03,43.91s-11.73-3.28-8.03-9.18c6.36-3.01,8.03,9.18,8.03,9.18" style="fill: #63a844;"/>
        <path d="m257.19,37.57s-8.55,8.95-.5,13.42c7.31-1.49.5-13.42.5-13.42" style="fill: #63a844;"/>
        <path d="m145.08,51.79s7.4-4.06,9.33,1.33c-2.72,4.91-9.33-1.33-9.33-1.33" style="fill: #63a844;"/>
        <path d="m185.62,48.93s.74,10.75,8.04,8.66c5.38-6.63-8.04-8.66-8.04-8.66" style="fill: #63a844;"/>
        <path d="m241.67,43.01s1.02-7.98-3.42-7.27c-4.2,3.03,3.42,7.27,3.42,7.27" style="fill: #63a844;"/>
        <path d="m236.59,39.65s3.09,7.01-1.35,7.72c-5.34-1.54,1.35-7.72,1.35-7.72" style="fill: #63a844;"/>
        <path d="m120.83,28.27s8.63-7.24,10.45-1.06c-.96,6.22-10.45,1.06-10.45,1.06" style="fill: #63a844;"/>
        <path d="m273.44,78.34s-1.52-10.14-8.59-9.34c-6.01,6.24,8.59,9.34,8.59,9.34" style="fill: #63a844;"/>
        <path d="m120.97,36.3s-11.21,2.85-7.88,9.8c8.05,1.57,7.88-9.8,7.88-9.8" style="fill: #63a844;"/>
        <path d="m199.89,49.71s-10.99.74-9.4-6.21c5-4.91,9.4,6.21,9.4,6.21" style="fill: #63a844;"/>
        <path d="m69.91,66.96s8.18-2.04,7.11-8.69c-7.36-4.17-7.11,8.69-7.11,8.69" style="fill: #63a844;"/>
        <path d="m165.3,33.31s9.37,1.74,7.85,6.37c-7.32,4.76-7.85-6.37-7.85-6.37" style="fill: #63a844;"/>
        <path d="m212.49,12.77s14.34,6.96,9.51,14.24c-11.72,2.95-9.51-14.24-9.51-14.24" style="fill: #63a844;"/>
        <path d="m89.01,80.06s-12,2.15-11.48-4.45c4.79-5.33,11.48,4.45,11.48,4.45" style="fill: #63a844;"/>
        <path d="m173.59,17.65s12.95-.18,12.29,10.1c-9.63,6.3-12.29-10.1-12.29-10.1" style="fill: #63a844;"/>
        <path d="m205.78,32.04s-10.84.64-10.84,7.24c4.6,5.9,10.84-7.24,10.84-7.24" style="fill: #63a844;"/>
        <path d="m202.99,30.52s-7.79-10.39-13.52-5.57c-3.46,7.99,13.52,5.57,13.52,5.57" style="fill: #63a844;"/>
        <path d="m241.5,83.62s-4.48-15.59,6.44-15.38c7.73,5.93-6.44,15.38-6.44,15.38" style="fill: #63a844;"/>
        <path d="m185.9,29.96s12.66,4.36,6.87,10.75c-6.67,2.83-6.87-10.75-6.87-10.75" style="fill: #63a844;"/>
        <path d="m203.63,12.25s-2.23,14.82-10.98,8.99c-3.19-6.38,10.98-8.99,10.98-8.99" style="fill: #63a844;"/>
        <path d="m152.48,35.47s8.36-4.99,10.38-.69c-.37,7.13-10.38.69-10.38.69" style="fill: #63a844;"/>
        <path d="m160.25,63.06s2.61-11.54-4.24-10.25c-6.27,3.95,4.24,10.25,4.24,10.25" style="fill: #63a844;"/>
        <path d="m275.8,84.1s-10.04-12.83-15.37-6.48c-2.27,10.17,15.37,6.48,15.37,6.48" style="fill: #63a844;"/>
        <path d="m250.95,61.44s-12.03-2.84-12.03,4.35c4.97,5.99,12.03-4.35,12.03-4.35" style="fill: #63a844;"/>
        <path d="m100.41,16.36s3.83,9.16-2.66,11.31c-5.7-3.26,2.66-11.31,2.66-11.31" style="fill: #63a844;"/>
        <path d="m80.3,60.16s7.19,7.64,12.48,2.06c.71-8.21-12.48-2.06-12.48-2.06" style="fill: #63a844;"/>
        <path d="m166.83,53.86s-12.73-.26-10.34-6.32c5.88-5.28,10.34,6.32,10.34,6.32" style="fill: #63a844;"/>
        <path d="m221.55,37.57s3.55,9.44-5.07,11.88c-7.49-4.95,5.07-11.88,5.07-11.88" style="fill: #63a844;"/>
        <path d="m52.03,57.61s12.74,5.45,13.15-2.13c-5.39-7.56-13.15,2.13-13.15,2.13" style="fill: #63a844;"/>
        <path d="m183.3,35.8s4.04,8.16-1.41,9.62c-5.94-2.75,1.41-9.62,1.41-9.62" style="fill: #63a844;"/>
        <path d="m271.76,42.11s-14.85,3.7-11.58,10.05c8.14,4.57,11.58-10.05,11.58-10.05" style="fill: #63a844;"/>
        <path d="m66.99,47.1s8.51-4.28,11.13,1.11c-2.07,7.46-11.13-1.11-11.13-1.11" style="fill: #63a844;"/>
        <path d="m184.73,8.9s-4.35,15.7,4.44,14.93c7.46-4.52-4.44-14.93-4.44-14.93" style="fill: #63a844;"/>
        <path d="m167.16,28.94s-8.88,7.06-13.05,1.8c1.17-8.62,13.05-1.8,13.05-1.8" style="fill: #63a844;"/>
        <path d="m111.64,27.9s-9.2,2.03-5.77,6.07c5.07,2.71,5.77-6.07,5.77-6.07" style="fill: #63a844;"/>
        <path d="m167.25,13.08s8.28,10.06,1.58,15.02c-9.02.34-1.58-15.02-1.58-15.02" style="fill: #63a844;"/>
        <path d="m145.06,20.38s10.56,2.3,7.81,10.15c-10.66,1.39-7.81-10.15-7.81-10.15" style="fill: #63a844;"/>
        <path d="m68.26,67.66s9.82,0,9.59,6.29c-5.71,5.15-9.59-6.29-9.59-6.29" style="fill: #63a844;"/>
        <path d="m105.88,14.87s2.9,13.38,10.14,9.1c6.38-6.97-10.14-9.1-10.14-9.1" style="fill: #63a844;"/>
        <path d="m250.95,48.42s1.72-8.77-3.38-7.78c-5.11,3.27,3.38,7.78,3.38,7.78" style="fill: #63a844;"/>
        <path d="m87.56,34.32s7.23,6.95,2.75,9.88c-6.37.41-2.75-9.88-2.75-9.88" style="fill: #63a844;"/>
        <path d="m70.56,56.89s-6.96,1.66-6.08,6.67c5.43,3.41,6.08-6.67,6.08-6.67" style="fill: #63a844;"/>
        <path d="m67.3,81.09c6.85,5.26-6.23,14.21-6.23,14.21,0,0-3.02-15.38,6.23-14.21" style="fill: #63a844;"/>
        <path d="m183.81,33.58s-14.77,5.47-15.9-3.27c3.96-8.38,15.9,3.27,15.9,3.27" style="fill: #63a844;"/>
        <path d="m143.96,26.39s.43,8.81-6,9.91c-7.04-5.05,6-9.91,6-9.91" style="fill: #63a844;"/>
        <path d="m207.03,31.31s12.31,7.83,5.31,12.19c-7,1.44-5.31-12.19-5.31-12.19" style="fill: #63a844;"/>
        <path d="m103.83,45.52s-6.5-8.89-11.47-3.09c-.58,7.87,11.47,3.09,11.47,3.09" style="fill: #63a844;"/>
        <path d="m210.31,9.14s-11.04,8.5-4.84,12.88c9.34,1.96,4.84-12.88,4.84-12.88" style="fill: #63a844;"/>
        <path d="m200.02,43.51s3.33,10.9,9.75,7.92c3.64-5.86-9.75-7.92-9.75-7.92" style="fill: #63a844;"/>
        <path d="m61.03,45.15s10.49,3.12,7.89,9.03c-7.62,2.86-7.89-9.03-7.89-9.03" style="fill: #63a844;"/>
        <path d="m254.72,91.61s10.27-11.9-.05-15.98c-9.25,3.03.05,15.98.05,15.98" style="fill: #63a844;"/>
        <path d="m92.6,38.29s-.38-10.27,6.9-9.39c5.28,6.05-6.9,9.39-6.9,9.39" style="fill: #63a844;"/>
        <path d="m94.85,78.07s-4.73-13.83-9.65-9.1c-4.67,6.86,9.65,9.1,9.65,9.1" style="fill: #63a844;"/>
        <path d="m243.02,21.4s-9.76,6.53-3.04,11.04c6.23.85,3.04-11.04,3.04-11.04" style="fill: #63a844;"/>
        <path d="m163.33,37.89s-.92,9.38-5.11,7.21c-4.12-4.14,5.11-7.21,5.11-7.21" style="fill: #63a844;"/>
        <path d="m50.5,61.62s12.27-4.73,12.91,2.14c-4.64,6.99-12.91-2.14-12.91-2.14" style="fill: #63a844;"/>
        <path d="m129.46,45.74s1.82-9.98,9.35-8.6c3.4,7.7-9.35,8.6-9.35,8.6" style="fill: #63a844;"/>
        <path d="m243.53,10.25s-12.71,3.24-10.55,11.47c9.27,6.21,10.55-11.47,10.55-11.47" style="fill: #63a844;"/>
        <path d="m233.07,26.56s-2.69,9.87,3.79,9.52c5.5-3.45-3.79-9.52-3.79-9.52" style="fill: #63a844;"/>
        <path d="m155.59,12.11s-6.37,11.73-1.03,14.41c9.78-.61,1.03-14.41,1.03-14.41" style="fill: #63a844;"/>
        <path d="m125.6,32.66s8.99-3.39,10.05,2.91c-3.63,5.48-10.05-2.91-10.05-2.91" style="fill: #63a844;"/>
        <path d="m277.91,63.11s-15.91-3.9-13.43,4.32c4.49,4.74,13.43-4.32,13.43-4.32" style="fill: #63a844;"/>
        <path d="m256.02,65.61s-6.45-9.26.3-10.82c5.54,2.26-.3,10.82-.3,10.82" style="fill: #63a844;"/>
        <path d="m85.37,18.59s10.87.99,9.52,8.79c-7.02,5.41-9.52-8.79-9.52-8.79" style="fill: #63a844;"/>
        <path d="m205.21,68.17s.57-11.38,8.73-10.82c5.69,5.75-8.73,10.82-8.73,10.82" style="fill: #63a844;"/>
        <path d="m224.27,9.09s-5.35,12.74,3.59,14.58c9.23-4.88-3.59-14.58-3.59-14.58" style="fill: #63a844;"/>
        <path d="m90.79,69.25s6.93-10.29,12.35-5.32c1.5,9.47-12.35,5.32-12.35,5.32" style="fill: #63a844;"/>
        <path d="m55.96,39.77s12.97-7.57,15.66,2.06c-6.8,6.91-15.66-2.06-15.66-2.06" style="fill: #63a844;"/>
        <path d="m123.19,68.22s10.26-7.78,3.6-11.89c-7.46-.14-3.6,11.89-3.6,11.89" style="fill: #63a844;"/>
        <path d="m252.31,74.54s11.66-1.66,9.2-8.07c-6.97-4.16-9.2,8.07-9.2,8.07" style="fill: #63a844;"/>
        <path d="m126.82,17.62s-1.2,10.44-8.02,8.6c-5.09-7.52,8.02-8.6,8.02-8.6" style="fill: #63a844;"/>
        <path d="m212.72,27.93s1.11,9.19,7.61,7.34c4.34-6.78-7.61-7.34-7.61-7.34" style="fill: #63a844;"/>
        <path d="m111.53,37.92s-1.19-12.5,8.13-10.25c4.14,5.92-8.13,10.25-8.13,10.25" style="fill: #63a844;"/>
        <path d="m77.76,60.16s-3.19,9.74,3.34,10.04c6.08-2.54-3.34-10.04-3.34-10.04" style="fill: #63a844;"/>
        <path d="m211.39,30.6s-9.72-1.76-7-7.04c5.68-3.77,7,7.04,7,7.04" style="fill: #63a844;"/>
        <path d="m232.62,25.18s-5.69,10.93-9.69,8c-4.88-6.97,9.69-8,9.69-8" style="fill: #63a844;"/>
        <path d="m59.19,78.08s11.63-6.73,7.02-12.72c-10.09-1.38-7.02,12.72-7.02,12.72" style="fill: #63a844;"/>
        <path d="m121.48,70.65s-12.08-3.9-9.44-8.79c7.63-4.3,9.44,8.79,9.44,8.79" style="fill: #63a844;"/>
        <path d="m172.96,48.22s5.28-5.02,8.29-2.16c.45,5.71-8.29,2.16-8.29,2.16" style="fill: #63a844;"/>
        <path d="m240.91,53.63s-4.82,9.87-10.64,5.42c-1.04-7.89,10.64-5.42,10.64-5.42" style="fill: #63a844;"/>
        <path d="m138.37,51.79s-.95-13.66,6.18-11.76c6.86,4.65-6.18,11.76-6.18,11.76" style="fill: #63a844;"/>
        <path d="m153.09,31.99s-4.65,10.39-9.97,5.95c-3.68-7.12,9.97-5.95,9.97-5.95" style="fill: #63a844;"/>
        <path d="m228.35,75.63s2.91-12.53,10.53-9.18c3.57,6.04-10.53,9.18-10.53,9.18" style="fill: #63a844;"/>
        <path d="m219.17,69.15s-4.91-8.97,1.18-10.8c7.16,1.44-1.18,10.8-1.18,10.8" style="fill: #63a844;"/>
        <path d="m77.89,89.58s3.08-11.28-4.17-11.01c-5.73,4.49,4.17,11.01,4.17,11.01" style="fill: #63a844;"/>
        <path d="m76.17,24.3s4.72,13.19-3.44,16.46c-8.8-6.09,3.44-16.46,3.44-16.46" style="fill: #63a844;"/>
        <path d="m143.09,20.38s-11.81-.3-10.63,6.79c5.27,4.57,10.63-6.79,10.63-6.79" style="fill: #63a844;"/>
        <path d="m256.09,31.14s-7.51,8.3-13.6,3.34c-.77-8.51,13.6-3.34,13.6-3.34" style="fill: #63a844;"/>
        <path d="m277.99,60.1s-9.92-10.16-15.81-5.02c-1.73,10.87,15.81,5.02,15.81,5.02" style="fill: #63a844;"/>
        <path d="m223.43,72.92s-2.15-13.44,6.41-12.72c7.03,6.36-6.41,12.72-6.41,12.72" style="fill: #63a844;"/>
        <path d="m79.94,49.89s8.83-8.85,4.07-12.59c-9.44-1.75-4.07,12.59-4.07,12.59" style="fill: #63a844;"/>
        <path d="m79.82,20.83s-5.03,14.31,5.06,15.37c9.4-5.62-5.06-15.37-5.06-15.37" style="fill: #63a844;"/>
        <path d="m110.66,78.07s3.96-11.23-3.16-14.41c-9.55,4.63,3.16,14.41,3.16,14.41" style="fill: #63a844;"/>
        <path d="m125.62,35.83s6.55,8.73-.46,12.1c-7.68-2.68.46-12.1.46-12.1" style="fill: #63a844;"/>
        <path d="m163.6,67.62s12.27-.52,8.22-8.93c-7.01-1.73-8.22,8.93-8.22,8.93" style="fill: #63a844;"/>
        <path d="m67.3,71.35s7.84,5.9,2.61,9.67c-6.5.34-2.61-9.67-2.61-9.67" style="fill: #63a844;"/>
      </g>
      <path d="m402.25,56.43c0-4.01,1.1-7.29,3.01-10.4l2.1.87c-1.67,2.94-2.4,6.3-2.4,9.53s.73,6.59,2.4,9.53l-2.1.87c-1.9-3.12-3.01-6.4-3.01-10.4Zm12.89,2.88h-6.25v-2.32l5.28-8.69h4.09v8.46h1.67v2.55h-1.67v3.45h-3.12v-3.45Zm0-4.91c0-.92.08-2.32.13-3.24h-.09c-.36.82-.77,1.62-1.18,2.44l-1.9,3.16h3.04v-2.36Zm6.91,5.66h3.16v-8.37h-2.71v-2.08c1.55-.29,2.57-.69,3.59-1.32h2.47v11.76h2.71v2.7h-9.21v-2.7Zm17.13-.75h-6.25v-2.32l5.28-8.69h4.09v8.46h1.67v2.55h-1.67v3.45h-3.12v-3.45Zm0-4.91c0-.92.08-2.32.13-3.24h-.09c-.36.82-.77,1.62-1.18,2.44l-1.9,3.16h3.04v-2.36Zm6.43,11.56c1.67-2.94,2.4-6.3,2.4-9.53s-.73-6.59-2.4-9.53l2.1-.87c1.9,3.12,3.01,6.4,3.01,10.4s-1.1,7.29-3.01,10.4l-2.1-.87Zm13.43-6.65h-6.25v-2.32l5.28-8.69h4.09v8.46h1.67v2.55h-1.67v3.45h-3.12v-3.45Zm0-4.91c0-.92.08-2.32.13-3.24h-.09c-.36.82-.77,1.62-1.18,2.44l-1.9,3.16h3.04v-2.36Zm5.83,6.58l1.54-2.11c.88.84,1.96,1.46,3.17,1.46,1.41,0,2.35-.62,2.35-1.73,0-1.27-.74-2.05-3.89-2.05v-2.37c2.6,0,3.41-.79,3.41-1.94,0-1.02-.65-1.59-1.78-1.59-1.03,0-1.81.47-2.7,1.26l-1.69-2.04c1.33-1.14,2.79-1.85,4.55-1.85,3,0,4.99,1.42,4.99,3.97,0,1.49-.85,2.56-2.41,3.21v.09c1.67.48,2.88,1.66,2.88,3.52,0,2.69-2.47,4.21-5.38,4.21-2.34,0-3.98-.83-5.04-2.05Zm12.02,0l1.54-2.11c.88.84,1.96,1.46,3.17,1.46,1.41,0,2.35-.62,2.35-1.73,0-1.27-.74-2.05-3.89-2.05v-2.37c2.6,0,3.41-.79,3.41-1.94,0-1.02-.65-1.59-1.78-1.59-1.03,0-1.81.47-2.7,1.26l-1.69-2.04c1.33-1.14,2.79-1.85,4.55-1.85,3,0,4.99,1.42,4.99,3.97,0,1.49-.85,2.56-2.41,3.21v.09c1.67.48,2.88,1.66,2.88,3.52,0,2.69-2.47,4.21-5.38,4.21-2.34,0-3.98-.83-5.04-2.05Zm12.51-5.17h5.59v2.37h-5.59v-2.37Zm7.16,3.25c0-1.74,1.11-2.82,2.47-3.55v-.09c-1.12-.83-1.94-1.89-1.94-3.4,0-2.46,1.94-3.99,4.63-3.99s4.4,1.56,4.4,3.97c0,1.38-.9,2.5-1.89,3.16v.09c1.38.76,2.49,1.86,2.49,3.78,0,2.28-2.05,4-5.11,4-2.88,0-5.04-1.62-5.04-3.97Zm7.04-.15c0-1.28-1.23-1.76-3.05-2.52-.64.57-1.11,1.4-1.11,2.29,0,1.27,1.01,2.02,2.23,2.02,1.1,0,1.93-.59,1.93-1.79Zm-.21-6.7c0-1.12-.65-1.87-1.75-1.87-.89,0-1.61.55-1.61,1.67,0,1.17,1.01,1.74,2.48,2.32.57-.67.89-1.37.89-2.13Zm5.19,6.84c0-1.74,1.11-2.82,2.47-3.55v-.09c-1.12-.83-1.94-1.89-1.94-3.4,0-2.46,1.94-3.99,4.63-3.99s4.4,1.56,4.4,3.97c0,1.38-.9,2.5-1.89,3.16v.09c1.38.76,2.49,1.86,2.49,3.78,0,2.28-2.05,4-5.11,4-2.88,0-5.04-1.62-5.04-3.97Zm7.04-.15c0-1.28-1.23-1.76-3.05-2.52-.64.57-1.11,1.4-1.11,2.29,0,1.27,1.01,2.02,2.23,2.02,1.1,0,1.93-.59,1.93-1.79Zm-.21-6.7c0-1.12-.65-1.87-1.75-1.87-.89,0-1.61.55-1.61,1.67,0,1.17,1.01,1.74,2.48,2.32.57-.67.89-1.37.89-2.13Zm5.17,3.64c0-5.4,2.8-7.84,5.84-7.84,1.91,0,3.31.81,4.23,1.74l-1.77,2c-.49-.56-1.4-1.04-2.24-1.04-1.59,0-2.86,1.15-3,4.53.77-.98,2.01-1.54,2.9-1.54,2.47,0,4.31,1.41,4.31,4.47s-2.19,4.85-4.81,4.85c-2.8,0-5.47-2.09-5.47-7.17Zm5.4,4.65c.99,0,1.82-.7,1.82-2.33,0-1.53-.81-2.11-1.9-2.11-.73,0-1.53.39-2.17,1.44.3,2.28,1.24,3,2.25,3Zm6.62-4.65c0-5.4,2.8-7.84,5.84-7.84,1.91,0,3.31.81,4.23,1.74l-1.77,2c-.49-.56-1.4-1.04-2.24-1.04-1.59,0-2.86,1.15-3,4.53.77-.98,2.01-1.54,2.9-1.54,2.47,0,4.31,1.41,4.31,4.47s-2.19,4.85-4.81,4.85c-2.8,0-5.47-2.09-5.47-7.17Zm5.4,4.65c.99,0,1.82-.7,1.82-2.33,0-1.53-.81-2.11-1.9-2.11-.73,0-1.53.39-2.17,1.44.3,2.28,1.24,3,2.25,3Z" style="fill: #24150b;"/>
      <path d="m388.5,80.63h2.23l1.15,4.91c.19.92.32,1.81.49,2.73h.08c.19-.93.37-1.84.6-2.73l1.24-4.91h2.01l1.27,4.91c.23.92.42,1.81.62,2.73h.08c.19-.93.32-1.81.51-2.73l1.13-4.91h2.08l-2.4,9.47h-2.64l-1.11-4.42c-.2-.89-.37-1.76-.57-2.75h-.08c-.19.99-.35,1.88-.56,2.77l-1.07,4.41h-2.56l-2.5-9.47Zm14.43,0h2.23l1.15,4.91c.19.92.32,1.81.49,2.73h.08c.19-.93.37-1.84.6-2.73l1.24-4.91h2.01l1.27,4.91c.23.92.42,1.81.62,2.73h.08c.19-.93.32-1.81.51-2.73l1.13-4.91h2.08l-2.4,9.47h-2.64l-1.11-4.42c-.2-.89-.37-1.76-.57-2.75h-.08c-.19.99-.35,1.88-.56,2.77l-1.07,4.41h-2.56l-2.5-9.47Zm14.43,0h2.23l1.15,4.91c.19.92.32,1.81.49,2.73h.08c.19-.93.37-1.84.6-2.73l1.24-4.91h2.01l1.27,4.91c.23.92.42,1.81.62,2.73h.08c.19-.93.32-1.81.51-2.73l1.13-4.91h2.08l-2.4,9.47h-2.64l-1.11-4.42c-.2-.89-.37-1.76-.57-2.75h-.08c-.19.99-.35,1.88-.56,2.77l-1.07,4.41h-2.56l-2.5-9.47Zm13.99,8.21c0-.87.62-1.51,1.43-1.51s1.43.64,1.43,1.51-.62,1.5-1.43,1.5-1.43-.64-1.43-1.5Zm5.17-4.27v-7.08h2.24v7.25c0,2.75,1.03,3.65,2.55,3.65s2.61-.9,2.61-3.65v-7.25h2.15v7.08c0,4.14-1.84,5.76-4.76,5.76s-4.79-1.62-4.79-5.76Zm12.7-7.08h2.3l3.92,7.09,1.3,2.69h.08c-.11-1.3-.29-2.9-.29-4.3v-5.48h2.13v12.61h-2.3l-3.92-7.1-1.3-2.68h-.08c.11,1.33.29,2.85.29,4.26v5.52h-2.13v-12.61Zm12.66,0h4.03c2.59,0,4.5.79,4.5,3.11,0,1.19-.65,2.35-1.75,2.73v.08c1.4.32,2.42,1.29,2.42,2.99,0,2.52-2.07,3.7-4.84,3.7h-4.36v-12.61Zm3.83,5.21c1.76,0,2.51-.69,2.51-1.78,0-1.22-.83-1.68-2.46-1.68h-1.64v3.46h1.6Zm.29,5.66c1.85,0,2.89-.66,2.89-2.08,0-1.33-1-1.91-2.89-1.91h-1.89v3.99h1.89Zm9.44-8.99h-3.64v-1.88h9.52v1.88h-3.64v10.73h-2.24v-10.73Zm6.95,1.26h1.82l.17,1.69h.06c.68-1.23,1.68-1.92,2.69-1.92.48,0,.79.06,1.07.19l-.39,1.93c-.33-.09-.58-.15-.97-.15-.76,0-1.67.52-2.24,1.96v5.78h-2.22v-9.47Zm6.38,4.74c0-3.08,2.14-4.98,4.37-4.98,2.56,0,3.91,1.85,3.91,4.5,0,.42-.05.85-.1,1.08h-6.01c.19,1.68,1.27,2.64,2.79,2.64.81,0,1.5-.25,2.2-.69l.76,1.38c-.9.61-2.04,1.03-3.25,1.03-2.62,0-4.67-1.84-4.67-4.96Zm6.36-.91c0-1.46-.65-2.35-1.94-2.35-1.1,0-2.08.83-2.27,2.35h4.21Zm3.43.91c0-3.08,2.14-4.98,4.37-4.98,2.56,0,3.91,1.85,3.91,4.5,0,.42-.05.85-.1,1.08h-6.01c.19,1.68,1.27,2.64,2.79,2.64.81,0,1.5-.25,2.2-.69l.76,1.38c-.9.61-2.04,1.03-3.25,1.03-2.62,0-4.67-1.84-4.67-4.96Zm6.36-.91c0-1.46-.65-2.35-1.94-2.35-1.1,0-2.08.83-2.27,2.35h4.21Zm3.11,4.55l1.03-1.41c.84.66,1.65,1.06,2.62,1.06,1.03,0,1.52-.49,1.52-1.13,0-.79-1.03-1.15-2.04-1.54-1.24-.47-2.66-1.18-2.66-2.76s1.33-2.83,3.45-2.83c1.32,0,2.38.54,3.15,1.13l-1.02,1.37c-.66-.49-1.33-.83-2.08-.83-.95,0-1.4.46-1.4,1.05,0,.75.96,1.03,1.98,1.41,1.28.48,2.72,1.1,2.72,2.86,0,1.63-1.29,2.94-3.68,2.94-1.3,0-2.66-.56-3.59-1.32Zm9.06-.18c0-.87.62-1.51,1.43-1.51s1.43.64,1.43,1.51-.62,1.5-1.43,1.5-1.43-.64-1.43-1.5Zm4.66-3.46c0-3.16,2.23-4.98,4.75-4.98,1.2,0,2.08.46,2.77,1.06l-1.08,1.44c-.5-.44-.98-.69-1.57-.69-1.53,0-2.58,1.27-2.58,3.16s1.04,3.15,2.52,3.15c.74,0,1.42-.36,1.96-.82l.9,1.47c-.89.79-2.01,1.16-3.09,1.16-2.58,0-4.57-1.82-4.57-4.96Zm8.45,0c0-3.16,2.14-4.98,4.51-4.98s4.51,1.82,4.51,4.98-2.14,4.96-4.51,4.96-4.51-1.82-4.51-4.96Zm6.73,0c0-1.9-.83-3.16-2.22-3.16s-2.22,1.27-2.22,3.16.83,3.15,2.22,3.15,2.22-1.25,2.22-3.15Zm6.31-4.74l.17,1.29h.06c.8-.84,1.72-1.52,2.91-1.52,1.39,0,2.18.63,2.62,1.7.91-.96,1.84-1.7,3.05-1.7,2,0,2.92,1.37,2.92,3.76v5.94h-2.22v-5.65c0-1.56-.46-2.14-1.46-2.14-.6,0-1.25.39-1.98,1.18v6.62h-2.22v-5.65c0-1.56-.46-2.14-1.46-2.14-.59,0-1.25.39-1.98,1.18v6.62h-2.22v-9.47h1.82Z" style="fill: #24150b;"/>
      <path d="m377.86,109.87l1.03-1.41c.84.66,1.65,1.06,2.62,1.06,1.03,0,1.52-.49,1.52-1.13,0-.79-1.03-1.15-2.04-1.54-1.24-.47-2.66-1.18-2.66-2.76s1.33-2.83,3.45-2.83c1.32,0,2.38.54,3.15,1.13l-1.02,1.37c-.66-.49-1.33-.83-2.08-.83-.95,0-1.4.46-1.4,1.05,0,.75.96,1.03,1.98,1.41,1.28.48,2.72,1.1,2.72,2.86,0,1.63-1.29,2.94-3.68,2.94-1.3,0-2.66-.56-3.59-1.32Zm8.63-3.64c0-3.08,2.14-4.98,4.37-4.98,2.56,0,3.91,1.85,3.91,4.5,0,.42-.05.85-.1,1.08h-6.01c.19,1.68,1.27,2.64,2.79,2.64.81,0,1.5-.25,2.2-.69l.76,1.38c-.9.61-2.04,1.03-3.25,1.03-2.62,0-4.67-1.84-4.67-4.96Zm6.36-.91c0-1.46-.65-2.35-1.94-2.35-1.1,0-2.08.83-2.27,2.35h4.21Zm4.05-3.83h1.82l.17,1.69h.06c.68-1.23,1.68-1.92,2.69-1.92.48,0,.79.06,1.07.19l-.39,1.93c-.33-.09-.58-.15-.97-.15-.76,0-1.67.52-2.24,1.96v5.78h-2.22v-9.47Zm6.33,0h2.25l1.5,4.91c.26.93.54,1.91.8,2.85h.08c.26-.95.54-1.92.8-2.85l1.5-4.91h2.14l-3.22,9.47h-2.57l-3.3-9.47Zm10.48-2.92c0-.75.59-1.26,1.37-1.26s1.37.51,1.37,1.26-.59,1.26-1.37,1.26-1.37-.52-1.37-1.26Zm.25,2.92h2.22v9.47h-2.22v-9.47Zm4.43,4.74c0-3.16,2.23-4.98,4.75-4.98,1.2,0,2.08.46,2.77,1.06l-1.08,1.44c-.5-.44-.98-.69-1.57-.69-1.53,0-2.58,1.27-2.58,3.16s1.04,3.15,2.52,3.15c.74,0,1.42-.36,1.96-.82l.9,1.47c-.89.79-2.01,1.16-3.09,1.16-2.58,0-4.57-1.82-4.57-4.96Zm8.45,0c0-3.08,2.14-4.98,4.37-4.98,2.56,0,3.91,1.85,3.91,4.5,0,.42-.05.85-.1,1.08h-6.01c.19,1.68,1.27,2.64,2.79,2.64.81,0,1.5-.25,2.2-.69l.76,1.38c-.9.61-2.04,1.03-3.25,1.03-2.62,0-4.67-1.84-4.67-4.96Zm6.36-.91c0-1.46-.65-2.35-1.94-2.35-1.1,0-2.08.83-2.27,2.35h4.21Zm11.97-7.05c4.03,0,6.59,2.72,6.59,6.64,0,3.45-2.24,5.21-4.13,5.21-1.08,0-1.94-.51-2.11-1.47h-.04c-.58.76-1.51,1.3-2.33,1.3-1.41,0-2.44-1.06-2.44-2.82,0-2.21,1.57-4.61,3.8-4.61.65,0,1.16.29,1.5.95h.04l.25-.79h1.4l-.82,4.06c-.32,1.32,0,1.95.96,1.95,1.19,0,2.45-1.42,2.45-3.73,0-2.93-1.66-5.31-5.31-5.31-3.36,0-6.65,2.87-6.65,7.29,0,3.79,2.55,5.76,5.69,5.76,1.08,0,2.19-.34,3.02-.8l.52,1.25c-1.15.65-2.37.95-3.73.95-3.82,0-7.06-2.38-7.06-7.1,0-5.28,3.85-8.75,8.38-8.75Zm-.04,9.24l.5-2.83c-.28-.47-.61-.68-1.06-.68-1.33,0-2.14,1.71-2.14,3.01,0,1.05.48,1.5,1.18,1.5.47,0,.95-.29,1.53-1Zm8.89-.08v-5.94h2.22v5.65c0,1.56.45,2.14,1.47,2.14.83,0,1.38-.39,2.1-1.31v-6.49h2.22v9.47h-1.82l-.17-1.4h-.06c-.83.99-1.75,1.63-3.05,1.63-2.03,0-2.92-1.37-2.92-3.76Zm10.84-5.94h1.82l.17,1.28h.06c.85-.83,1.81-1.51,3.11-1.51,2.03,0,2.92,1.37,2.92,3.76v5.94h-2.22v-5.65c0-1.56-.45-2.14-1.47-2.14-.83,0-1.38.41-2.16,1.18v6.62h-2.22v-9.47Zm12.81,8.48h-.06l-.19,1h-1.75v-13.62h2.22v3.53l-.06,1.57c.79-.69,1.76-1.18,2.73-1.18,2.37,0,3.74,1.9,3.74,4.81,0,3.25-1.94,5.13-4.04,5.13-.86,0-1.79-.44-2.58-1.23Zm4.34-3.87c0-1.89-.62-3.01-2.06-3.01-.69,0-1.35.35-2.07,1.06v4.41c.66.58,1.35.79,1.9.79,1.27,0,2.23-1.11,2.23-3.26Zm4.42,1.67v-4.51h-1.35v-1.67l1.47-.1.26-2.58h1.84v2.58h2.41v1.77h-2.41v4.51c0,1.11.43,1.66,1.34,1.66.32,0,.71-.11.99-.22l.38,1.64c-.52.17-1.18.35-1.94.35-2.18,0-2.99-1.38-2.99-3.43Zm6.63-6.28h1.82l.17,1.69h.06c.68-1.23,1.68-1.92,2.69-1.92.48,0,.79.06,1.07.19l-.39,1.93c-.33-.09-.58-.15-.97-.15-.76,0-1.67.52-2.24,1.96v5.78h-2.22v-9.47Zm6.38,4.74c0-3.08,2.14-4.98,4.37-4.98,2.56,0,3.91,1.85,3.91,4.5,0,.42-.05.85-.1,1.08h-6.01c.19,1.68,1.27,2.64,2.79,2.64.81,0,1.5-.25,2.2-.69l.76,1.38c-.9.61-2.04,1.03-3.25,1.03-2.62,0-4.67-1.84-4.67-4.96Zm6.36-.91c0-1.46-.65-2.35-1.94-2.35-1.1,0-2.08.83-2.27,2.35h4.21Zm3.43.91c0-3.08,2.14-4.98,4.37-4.98,2.56,0,3.91,1.85,3.91,4.5,0,.42-.05.85-.1,1.08h-6.01c.19,1.68,1.27,2.64,2.79,2.64.81,0,1.5-.25,2.2-.69l.76,1.38c-.9.61-2.04,1.03-3.25,1.03-2.62,0-4.67-1.84-4.67-4.96Zm6.36-.91c0-1.46-.65-2.35-1.94-2.35-1.1,0-2.08.83-2.27,2.35h4.21Zm3.11,4.55l1.03-1.41c.84.66,1.65,1.06,2.62,1.06,1.03,0,1.52-.49,1.52-1.13,0-.79-1.03-1.15-2.04-1.54-1.24-.47-2.66-1.18-2.66-2.76s1.33-2.83,3.45-2.83c1.32,0,2.38.54,3.15,1.13l-1.02,1.37c-.66-.49-1.33-.83-2.08-.83-.95,0-1.4.46-1.4,1.05,0,.75.96,1.03,1.98,1.41,1.28.48,2.72,1.1,2.72,2.86,0,1.63-1.29,2.94-3.68,2.94-1.3,0-2.66-.56-3.59-1.32Zm9.06-.18c0-.87.62-1.51,1.43-1.51s1.43.64,1.43,1.51-.62,1.5-1.43,1.5-1.43-.64-1.43-1.5Zm4.66-3.46c0-3.16,2.23-4.98,4.75-4.98,1.2,0,2.08.46,2.77,1.06l-1.08,1.44c-.5-.44-.98-.69-1.57-.69-1.53,0-2.58,1.27-2.58,3.16s1.04,3.15,2.52,3.15c.74,0,1.42-.36,1.96-.82l.9,1.47c-.89.79-2.01,1.16-3.09,1.16-2.58,0-4.57-1.82-4.57-4.96Zm8.45,0c0-3.16,2.14-4.98,4.51-4.98s4.51,1.82,4.51,4.98-2.14,4.96-4.51,4.96-4.51-1.82-4.51-4.96Zm6.73,0c0-1.9-.83-3.16-2.22-3.16s-2.22,1.27-2.22,3.16.83,3.15,2.22,3.15,2.22-1.25,2.22-3.15Zm6.31-4.74l.17,1.29h.06c.8-.84,1.72-1.52,2.91-1.52,1.39,0,2.18.63,2.62,1.7.91-.96,1.84-1.7,3.05-1.7,2,0,2.92,1.37,2.92,3.76v5.94h-2.22v-5.65c0-1.56-.46-2.14-1.46-2.14-.6,0-1.25.39-1.98,1.18v6.62h-2.22v-5.65c0-1.56-.46-2.14-1.46-2.14-.59,0-1.25.39-1.98,1.18v6.62h-2.22v-9.47h1.82Z" style="fill: #24150b;"/>
    </g>
  </g>
</svg>