<?xml version="1.0" encoding="UTF-8"?>
<svg id="Layer_2" data-name="Layer 2" xmlns="http://www.w3.org/2000/svg" xmlns:xlink="http://www.w3.org/1999/xlink" viewBox="0 0 1314 873.5">
  <defs>
    <clipPath id="clippath">
      <rect x="677.67" y="356.25" width="598.35" height="344.06" style="fill: none;"/>
    </clipPath>
    <clipPath id="clippath-1">
      <rect x="677.67" y="356.25" width="598.35" height="344.06" style="fill: none;"/>
    </clipPath>
  </defs>
  <g id="Layer_1-2" data-name="Layer 1">
    <path d="m0,690.34c59.08-28.85,274.72,4.43,496.63-8.75,46.83-2.78,450.45-1.23,477.69-1.21,216.08.1,263.88,1.08,306.05,8.48,22.29,3.91,18.83,4.47,33.63,6.4,0,0,0,178.24,0,178.24H0" style="fill: #582700;"/>
    <g>
      <path d="m70.98,92.14v35.06l102.06-11.32v48.57l-102.06,11.32v88.01h-20.79V94.33l-6.43.73v-48.57l6.43-.73v-12.05h20.79v9.86l110-12.05v48.57l-110,12.05Z" style="fill: #29712a; stroke: #29712a; stroke-miterlimit: 10; stroke-width: 10px;"/>
      <path d="m285.31,163.72c-4.91-1.83-9.07-2.56-18.14-2.56-12.85,0-26.84,6.57-45.74,23.74v78.88h-20.79V114.05h20.79v23.37c15.12-15.34,34.02-28.85,52.92-28.85,6.8,0,11.72,1.1,15.12,3.29v51.86h-4.16Z" style="fill: #29712a; stroke: #29712a; stroke-miterlimit: 10; stroke-width: 10px;"/>
      <path d="m421.01,176.01c-17.77,5.48-78.63,21.55-100.93,25.56,1.89,8.03,10.58,18.75,25.7,18.75,19.28,0,40.07-6.94,57.46-18.63h4.16v45.65c-20.79,13.88-44.6,20.82-62.37,20.82-24.57,0-45.74-15.34-45.74-60.62,0-61.72,33.64-98.6,77.87-98.6,27.59,0,41.99,19.65,42.74,52.51l1.11-.29v14.85Zm-25.7-7.18c0-10.23-13.23-16.07-23.81-16.07-20.03,0-41.96,15.34-50.65,33.96l74.47-17.89Z" style="fill: #29712a; stroke: #29712a; stroke-miterlimit: 10; stroke-width: 10px;"/>
      <path d="m558.22,176.01c-17.05,4.21-78.32,20.39-100.93,25.56,1.89,8.03,10.58,18.75,25.7,18.75,19.28,0,40.07-6.94,57.46-18.63h4.16v45.65c-20.79,13.88-44.6,20.82-62.37,20.82-24.57,0-45.74-15.34-45.74-60.62,0-61.72,33.64-98.6,77.87-98.6,27.59,0,42.02,20.61,42.77,53.48l1.08-.28v13.88Zm-25.7-7.18c0-10.23-13.23-16.07-23.81-16.07-20.03,0-41.96,15.34-50.65,33.96l74.47-17.89Z" style="fill: #29712a; stroke: #29712a; stroke-miterlimit: 10; stroke-width: 10px;"/>
    </g>
    <g>
      <path d="m824.2,261.95l-10.96,5.84-54.43-138.41-52.54,132.57-10.96,5.84-83.16-211.81,36.62-21.55h1.56l60.48,162.51,37.42-93.49-23.44-61.72,36.67-9.13,2.4.64,63.75,163.33,66.53-164.7h8.32v32.5l-78.25,197.57Z" style="fill: #29712a; stroke: #29712a; stroke-miterlimit: 10; stroke-width: 10px;"/>
      <path d="m1000.72,174.31c0,64.64-40.82,93.86-80.14,93.86-17.39,0-35.15-15.7-35.15-59.89,0-64.27,39.31-97.14,80.52-97.14,22.3,0,34.78,13.15,34.78,62.81v.37Zm-14.74-2.56c0-5.48-9.83-14.97-23.81-14.97-35.15,0-62.37,32.87-62.37,49.67,0,8.4,10.58,16.07,23.44,16.07,29.48,0,62.75-31.04,62.75-50.4v-.37Z" style="fill: #29712a; stroke: #29712a; stroke-miterlimit: 10; stroke-width: 10px;"/>
      <path d="m1134.91,174.31c0,64.64-40.82,93.86-80.14,93.86-17.39,0-35.15-15.7-35.15-59.89,0-64.27,39.31-97.14,80.52-97.14,22.3,0,34.78,13.15,34.78,62.81v.37Zm-14.74-2.56c0-5.48-9.83-14.97-23.81-14.97-35.15,0-62.37,32.87-62.37,49.67,0,8.4,10.58,16.07,23.44,16.07,29.48,0,62.75-31.04,62.75-50.4v-.37Z" style="fill: #29712a; stroke: #29712a; stroke-miterlimit: 10; stroke-width: 10px;"/>
      <path d="m1264.19,166.64v97.87h-20.79v-14.24c-14.36,10.59-29.11,15.7-41.2,15.7-26.46,0-45.74-16.8-45.74-63.18,0-65,37.42-92.76,77.87-92.76,2.65,0,5.67.37,9.07.73V34.44h20.79v81.07l6.05,2.19v52.59l-6.05-3.65Zm-20.79-6.57c-4.16-.73-8.32-1.1-11.34-1.1-35.15,0-61.24,25.56-61.24,40.9,0,7.67,14.74,17.53,34.02,17.53,10.58,0,26.08-6.21,38.56-14.97v-42.36Z" style="fill: #29712a; stroke: #29712a; stroke-miterlimit: 10; stroke-width: 10px;"/>
    </g>
    <g>
      <path d="m59.69,337.31c4.21-3.35,8.63-4.85,13.16-4.85,7.01,0,9.39,5.56,9.39,14.11,0,16.14-8.74,23.55-20.82,23.55-2.91,0-5.4-.53-7.66-1.41v-8.55l1.4.26v-46.48h4.53v23.37Zm0,23.72c.86.35,1.83.53,3.02.53,7.01,0,15.65-5.47,15.65-14.64,0-2.73-2.27-5.73-6.15-5.73-4.21,0-7.66,1.23-12.52,4.85v14.99Z" style="fill: #231f20; stroke: #221000; stroke-miterlimit: 10;"/>
      <path d="m112.88,341.9c-1.19-.44-2.7-.71-5.18-.71-3.99,0-7.23,1.32-12.3,5.73v22.58h-4.53v-36.16h4.53v5.03c4.1-3.79,8.52-6.35,13.49-6.35,2.59,0,4.1.35,5.18.88v9h-1.19Z" style="fill: #231f20; stroke: #221000; stroke-miterlimit: 10;"/>
      <path d="m145.25,347.54c0,15.7-11,22.84-20.82,22.84-5.07,0-9.49-3.62-9.49-14.29,0-15.52,10.36-23.64,20.5-23.64,6.26,0,9.82,3,9.82,14.99v.09Zm-3.67-.79c0-3.79-2.27-6-6.69-6-9.82,0-16.29,9.08-16.29,15.35,0,3.97,2.48,6,6.37,6,7.98,0,16.62-7.41,16.62-15.26v-.09Z" style="fill: #231f20; stroke: #221000; stroke-miterlimit: 10;"/>
      <path d="m158.2,333.35v25.14c0,1.94.97,2.82,2.59,2.82,3.45,0,7.44-1.59,11.65-5.38v-22.58h4.53v36.16h-4.53v-5.12c-3.78,3.35-8.42,5.91-12.84,5.91-3.02,0-5.93-1.76-5.93-5.91v-31.04h4.53Z" style="fill: #231f20; stroke: #221000; stroke-miterlimit: 10;"/>
      <path d="m214.09,342.69v26.28c0,13.32-11.98,16.85-20.61,16.85-3.02,0-7.55-1.23-8.85-2.12v-7.94h1.19c1.62.97,5.29,1.76,7.44,1.76,9.49,0,16.18-4.32,16.18-10.5v-5.29c-3.78,4.67-7.98,7.14-13.92,7.14-4.42,0-10.03-2.73-10.03-13.41,0-14.73,8.85-22.75,19.74-22.75,1.62,0,3.34.35,4.21.62v-1.23h4.64v2.21l1.4.53v8.38l-1.4-.53Zm-4.64-.88c-1.08-.35-3.13-.71-4.96-.71-9.06,0-15.11,6.79-15.11,13.41,0,3.79,3.13,6.26,6.15,6.26,5.29,0,8.74-1.59,13.92-7.32v-11.64Z" style="fill: #231f20; stroke: #221000; stroke-miterlimit: 10;"/>
      <path d="m243.44,369.51v-25.4c0-1.85-.65-2.73-2.37-2.73-2.7,0-6.69,1.76-11.87,5.56v22.58h-4.53v-55.56h4.53v24.43c4.32-3.09,10.03-6.35,14.46-6.35,2.59,0,4.42,1.23,4.42,4.41v33.07h-4.64Z" style="fill: #231f20; stroke: #221000; stroke-miterlimit: 10;"/>
      <path d="m268.79,342.43v27.08h-4.53v-26.64l-10.36,1.15v-8.64l10.36-1.15v-12.61h4.53v12.17l11.54-1.32v8.64l-11.54,1.32Z" style="fill: #231f20; stroke: #221000; stroke-miterlimit: 10;"/>
      <path d="m319.29,342.43v27.08h-4.53v-26.64l-10.36,1.15v-8.64l10.36-1.15v-12.61h4.53v12.17l11.54-1.32v8.64l-11.54,1.32Z" style="fill: #231f20; stroke: #221000; stroke-miterlimit: 10;"/>
      <path d="m362.01,347.54c0,15.7-11,22.84-20.82,22.84-5.07,0-9.49-3.62-9.49-14.29,0-15.52,10.36-23.64,20.5-23.64,6.26,0,9.82,3,9.82,14.99v.09Zm-3.67-.79c0-3.79-2.27-6-6.69-6-9.82,0-16.29,9.08-16.29,15.35,0,3.97,2.48,6,6.37,6,7.98,0,16.62-7.41,16.62-15.26v-.09Z" style="fill: #231f20; stroke: #221000; stroke-miterlimit: 10;"/>
      <path d="m401.07,382.91h-3.24l-1.4-.79,8.2-17.37-14.78-26.81,3.78-5.64h1.83l12.95,24.78,11.65-24.61h1.4v7.58l-20.39,42.86Z" style="fill: #231f20; stroke: #221000; stroke-miterlimit: 10;"/>
      <path d="m454.8,347.54c0,15.7-11,22.84-20.82,22.84-5.07,0-9.49-3.62-9.49-14.29,0-15.52,10.36-23.64,20.5-23.64,6.26,0,9.82,3,9.82,14.99v.09Zm-3.67-.79c0-3.79-2.27-6-6.69-6-9.82,0-16.29,9.08-16.29,15.35,0,3.97,2.48,6,6.37,6,7.98,0,16.62-7.41,16.62-15.26v-.09Z" style="fill: #231f20; stroke: #221000; stroke-miterlimit: 10;"/>
      <path d="m467.75,333.35v25.14c0,1.94.97,2.82,2.59,2.82,3.45,0,7.44-1.59,11.65-5.38v-22.58h4.53v36.16h-4.53v-5.12c-3.78,3.35-8.42,5.91-12.84,5.91-3.02,0-5.93-1.76-5.93-5.91v-31.04h4.53Z" style="fill: #231f20; stroke: #221000; stroke-miterlimit: 10;"/>
      <path d="m526.77,337.31c4.21-3.35,8.63-4.85,13.16-4.85,7.01,0,9.39,5.56,9.39,14.11,0,16.14-8.74,23.55-20.82,23.55-2.91,0-5.4-.53-7.66-1.41v-8.55l1.4.26v-46.48h4.53v23.37Zm0,23.72c.86.35,1.83.53,3.02.53,7.01,0,15.65-5.47,15.65-14.64,0-2.73-2.27-5.73-6.15-5.73-4.21,0-7.66,1.23-12.52,4.85v14.99Z" style="fill: #231f20; stroke: #221000; stroke-miterlimit: 10;"/>
      <path d="m563.99,382.91h-3.24l-1.4-.79,8.2-17.37-14.78-26.81,3.78-5.64h1.83l12.95,24.78,11.65-24.61h1.4v7.58l-20.39,42.86Z" style="fill: #231f20; stroke: #221000; stroke-miterlimit: 10;"/>
      <path d="m589.67,370.21v-9.08l9.6-.88v9.17l-9.6.79Zm.86-27.25v-9.08l9.6-.88v9.08l-9.6.88Z" style="fill: #231f20; stroke: #221000; stroke-miterlimit: 10;"/>
    </g>
    <g id="Logo_Grounded" data-name="Logo Grounded">
      <g style="clip-path: url(#clippath);">
        <g style="clip-path: url(#clippath-1);">
          <path d="m1275.11,699.83c-4.32-17.71-90.82-18.89-299.52-18.89-220.7,0-282.33,1.04-297.11,19.01l596.63-.12Z" style="fill: #582700;"/>
          <path d="m996.12,475.64c1.25-3.05,3.46-7.78,6.9-12.47,5.67-7.72,13.93-18.39,38.48-24.45,26.62-6.57,44.22-11.06,70.92-17.21,5.78-1.33,10.36-2.53,14.1-3.63,5.96,1.52,22.91-.22,35.58,5.38,6.8,3,21.95,9.8,23.39,7.76,3.54-4.99-27.24-18.68-43.74-19.03l.38-.19c2.16-1.11,4.19-2.2,6.66-3.43,12.4-6.19,20.94-22.64-.08-12.28-2.57,1.26-17.63,7.22-25.36,9.34-17.78,4.88-32.54,7.55-47.69,10.52-2.37-1.08,1.71-6.54,3.91-8.75,14.4-14.49,5.93-18.19-8.63-.75-3.45,4.14-4.91,9.07-7.26,11.47-8.46,1.75-15.09,3.76-24.78,6.42-2.2.6-4.32,1.22-6.35,1.84-3.07-7.57,25.81-27.6,19-34.19-2.09-2.02-10.91,7.87-14,11.27-5.43,5.99-9.04,8.23-13.59,14.42-3.49,4.74-4.75,8.96-10.11,15.41-15.75,7.15-24.02,15.29-29.14,24.69-9.22-15.02-6.83-21.62.69-32.9,15.08-22.61,2.66-20.85-12.62-.27-6.25,8.42-6.52,18.18-2.17,36.03.47,1.69-2.73,6.66-8.48,9.67-2.33,1.22-7.79,3.32-10.47,4.54-7.15,3.25-9.45,10.96,12.02,3.84,5.77-1.91,8.34-7.01,12.72-6.03v-2.16c.73,1.11,1.47,4.37,2.21,5.45-.74,2.66-1.42,3.24-2.11,6.07-1.87,7.63-3.51,16.11-10.41,32.72-9.04-9.73-19.56-18.12-30.91-25.21-.89-2.86.43-10.57,1.67-16.07,2.47-2.95,10.57.03,20.27-8.66,5.27-3.18,11.42-16.34,4.3-11.57,0,0-7.23,4.48-10.15,6.86-3.42,2.79-8.41,5.34-10.86,4.41h0c4.6-7.71,12.24-15.85,12.77-26.62,2.04-42.14-6-56.31-9.59-1.91-.47,5.82-2.1,9.04-4.34,12.07h0c-10.02-6.02-14.74-9.84-18.46-11.33-17.12-6.9-26.67-6.85-21.77-1.83,4.9,5.02,9.35,4.25,24.3,13.52,2.46,1.53,5.8,3.19,6.87,7.62-3.89,3.95-8.14,10.95-8.65,15.83-8.55-20.12-21.29-24.63-35.4-30.25-.36-13.2-.24-12.6,2.17-19.62,5.73-16.69,10.06-22.4,7.76-22.16-7.08.73-11.86,17.58-14.1,22.88-.11.27-.23.54-.34.8-7.56-1.36-37.44-31.08-35.4-22.12,2.97,13.02,31.46,26.97,30.19,32.42h.03c-.76,1.46-1.05,1.98-2.04,3.95-8.34-2.24-17.03-3.68-25.73-4.84-8.03-.76-15.73-.84-22.95-.56-5.13-14.06-16.56-18.63-22.13-21.06-4.87-2.12-18.24-4.83-17.98-2.64.53,4.5,33.61,14.64,27.78,24.5-6.99.62-13.37,1.44-18.97,2.08-5.8.66-15.91.73-22.67-1.59-11.43-3.94-14.72-3.07-10.89,3.77,7.43,13.29,64.06,4.2,87.77,9.69,17.51,4.06,37.42,15.02,46.21,23.4-25.77-8.86-51.87-12.31-72.28-10.77-10.88.82-28.17,6.41-42.47,10.85-2.81-5.06,3.15-8.91,4.34-11,3.17-5.56,2.97-7.75,3.06-8.63.69-7.18-6.4,1.2-8.62,4.68-2.99,4.68-4.23,6.43-9.64,11.35-4.51-2.88-21.31-2.15-30.81-15.83-1.31-1.89-8.11-11.35-10.33-10.01-3.22,1.42,3.59,15.05,5.13,17.47,2,3.14,8.53,10.58,14.01,12.31,3.26,1.03,10.06,1.48,14.02,4.47-11.91,2.41-22.55,3.74-37.42,4.44-13.18-.13-16.25,7.94-2.99,11.57,24.34,4.09,44.16,1.78,65.75-2.38-4.18,7.63-4.04,7.86-10.24,13.94-1.38,1.2-2.7,2.34-3.96,3.43h0c-13.89-9.61-41.29,10.05-57.45-.12-20.71-13.03-3.35,8.56,7.11,9.76,19.05,2.17,32.38-5.99,37.42,1.23-4.91,4.01-10.32,7.63-16.61,13.2-13.19,11.68-30.82,31.7-27.43,33.04,4.58,1.81,44.34-30.92,56.05-39.46,12.43-9.07,11.15-9.52,22.94-18.48,7.41-5.63,14.93-11.67,28.97-23.05h0c7.8-.41,16.02.03,24.21,1.07.2,1.07-1.97,4.03-2.87,5.26-2.41,2.45-11.19,7.17-14.28,8.58-30.33,13.89-27.38,20.41-2.01,11.85,23.81-8.04,23.84-10.2,39.94-21.84,5.86,1.41,11.45,3.03,16.57,4.74,26.36,8.82,49.12,36.58,57.18,60.38,10.84,32.01,14.96,61.2,11.21,90.22-2.9,14.45-7.7,29.02-13.7,42.96,16.2.17,62.57.04,78.9.13-17.56-42.25-26.88-88.89-6.73-129.58,13.01-23.82,40.82-43.16,64.45-52.55,4.43-1.55,8.72-3.14,12.91-4.74,20.52-.33,36.72-9.17,61.07,1.62,10.79,5.21,14.16-1.06,1.65-8.26-9.6-5.52-21.74-4.72-32.2-5.01,8.74-3.09,17.31-5.69,26.43-7.49h0c18.19,1.59,12.33,4.66,22.22,12.81.27,1.57,0,8.55-.09,14.67-.19,11.63,7.48,17.26,7.65,7.71.1-5.47-1.05-15.57-.22-16.75,1.24.77,2.4,1.42,3.93,2.24,2.71,1.44,5.76,2.82,8.98,4.13,3.93,2.53,2.32,18.14,16.24,29.34,26.83,21.6,42.97,13.1,14.04-1.33-11.31-5.64-16.27-19.83-16.55-23.05,10.67,3.51,21.72,7.45,27.21,10.01,17.26,8.06,28.01,1.92,1.77-10.07-29.23-13.36-53.06-22.37-58.56-31.82,14.63,1.54,22.97.93,38.98,5.86,26.44,8.14,44.13.54,7.2-11.76-54.28-18.07-82.37-11.51-144,8.11-10.17,3.24-26.99,13.34-36.76,17.87-3.44-7.97,42.59-26.05,59.25-31.89,15.12-5.29,40.96-8.96,58.02-17.64h0c4.73-.49,4.84,1.3,12.58,1.94,9.82.81,10.8.68,22.72-.88,18.29-1.58,26.18-11.76-2.59-7.88-8.36,1.13-23.17,1.53-21.09-.17,22.4-18.23-11.76-9.87-57.41,7.34h0c-.06-5.71,6.69-8.01,18.43-14.48,13.87-7.64,9.07-17.94-21.44,3.13-6.73,4.65-8.53,12.22-10.5,15.13-2.14.55-3.88.96-5.71,1.35-16.81,3.57-33.87,9.83-47.93,18.92-1.08-2.65-1.2-8.17,1.2-12.97,3.03-6.06,7.63-6.77,13.42-12.71,12.99-13.31-7.1-4.28-15.26,3.66-6.11,5.94-7.09,11.61-8.45,15.83-3.8-1.09-6.78-5.73-10.48-8.69-3.92-3.13-11.29-1.95-1.32,8.06,5.39,5.4,7.29,9.69,7.97,12.96-.23,1.21.26,2.49.05,3.84-6.61,6.2-11.92,13.31-15.34,21.35h0c-5.72-5.22-10.83-15.94-18.14-28.39h0c-3.06,7.24-3.84,11.57-4.98,16.27,4.13,10.94,9.37,25.39,9.37,25.39l-6.85,4.48s-7.98-7.59-2.51-29.86c.85-3.44,2.08-9.45,4.98-16.27" style="fill: #582700;"/>
          <path d="m1069.25,628.97c0-8.86.84-16.77,2.53-23.74,1.69-6.97,3.94-12.88,6.77-17.75,2.83-4.86,6.06-8.6,9.71-11.22s7.44-3.92,11.36-3.92c4.47,0,8.44,1.31,11.89,3.92,3.45,2.61,6.32,6.24,8.59,10.89,2.28,4.65,4,10.13,5.18,16.44,1.18,6.32,1.77,13.18,1.77,20.58,0,2.91-.08,5.55-.24,7.95-.16,2.4-.31,4.25-.47,5.55h-39.32c.86,8.28,2.83,14.27,5.89,17.97,3.06,3.7,6.75,5.55,11.07,5.55,2.67,0,5.2-.62,7.59-1.85,2.39-1.23,4.89-3.08,7.48-5.55l5.65,19.17c-3.3,3.92-6.99,7.01-11.07,9.26-4.08,2.25-8.09,3.38-12.01,3.38-4.55,0-8.79-1.27-12.72-3.81-3.93-2.54-7.34-6.24-10.24-11.11-2.9-4.86-5.2-10.78-6.89-17.75-1.69-6.97-2.53-14.95-2.53-23.96m42.15-11.11c0-6.24-.9-11.33-2.71-15.25-1.81-3.92-4.71-5.88-8.71-5.88-3.14,0-5.95,1.71-8.42,5.12-2.47,3.41-4.06,8.75-4.77,16.01h24.61Z" style="fill: #582700;"/>
          <path d="m1130.83,628.97c0-8.86.84-16.77,2.53-23.74,1.69-6.97,3.94-12.88,6.77-17.75,2.83-4.86,6.06-8.6,9.71-11.22s7.44-3.92,11.36-3.92c4.47,0,8.44,1.31,11.89,3.92,3.45,2.61,6.32,6.24,8.59,10.89,2.28,4.65,4,10.13,5.18,16.44,1.18,6.32,1.77,13.18,1.77,20.58,0,2.91-.08,5.55-.24,7.95-.16,2.4-.31,4.25-.47,5.55h-39.32c.86,8.28,2.83,14.27,5.89,17.97,3.06,3.7,6.75,5.55,11.07,5.55,2.67,0,5.2-.62,7.59-1.85,2.39-1.23,4.89-3.08,7.48-5.55l5.65,19.17c-3.3,3.92-6.99,7.01-11.07,9.26-4.08,2.25-8.09,3.38-12.01,3.38-4.55,0-8.79-1.27-12.72-3.81-3.93-2.54-7.34-6.24-10.24-11.11-2.9-4.86-5.2-10.78-6.89-17.75-1.69-6.97-2.53-14.95-2.53-23.96m42.15-11.11c0-6.24-.9-11.33-2.71-15.25-1.81-3.92-4.71-5.88-8.71-5.88-3.14,0-5.95,1.71-8.42,5.12-2.47,3.41-4.06,8.75-4.77,16.01h24.61Z" style="fill: #582700;"/>
          <path d="m1199.94,649.01c3.37,3.92,6.77,7.04,10.18,9.37,3.41,2.32,7.08,3.49,11.01,3.49s6.87-.8,8.6-2.4c1.73-1.6,2.59-3.85,2.59-6.75,0-3.34-1.43-6.06-4.3-8.17-2.87-2.1-6.65-4.39-11.36-6.86-2.59-1.31-5.12-2.86-7.59-4.68-2.47-1.81-4.69-3.99-6.65-6.53-1.96-2.54-3.55-5.48-4.77-8.82-1.22-3.34-1.83-7.19-1.83-11.54,0-4.93.63-9.51,1.88-13.72,1.25-4.21,3.04-7.77,5.36-10.67,2.31-2.9,5.14-5.19,8.48-6.86,3.33-1.67,7.08-2.5,11.24-2.5,5.18,0,9.91,1.56,14.19,4.68,4.28,3.12,7.95,6.5,11.01,10.13l-7.77,19.17c-2.67-2.9-5.42-5.34-8.24-7.3-2.83-1.96-5.77-2.94-8.83-2.94-3.69,0-6.3.73-7.83,2.18-1.53,1.45-2.3,3.56-2.3,6.32,0,1.6.39,3.05,1.18,4.36.78,1.31,1.84,2.47,3.18,3.49,1.33,1.02,2.92,2,4.77,2.94,1.84.95,3.79,1.93,5.83,2.94,2.9,1.45,5.65,3.09,8.24,4.9,2.59,1.82,4.87,3.96,6.83,6.42,1.96,2.47,3.53,5.45,4.71,8.93,1.18,3.48,1.77,7.55,1.77,12.2,0,4.94-.63,9.51-1.88,13.72-1.26,4.21-3.08,7.88-5.47,11-2.4,3.12-5.38,5.59-8.95,7.41-3.57,1.81-7.71,2.72-12.42,2.72-5.26,0-10.4-1.6-15.42-4.79-5.02-3.19-9.42-7.11-13.19-11.76l7.77-20.04Z" style="fill: #582700;"/>
          <path d="m1021.01,577.82h14.13l1.41,23.52h.35c2.9-8.86,6.4-15.43,10.48-19.71,4.08-4.28,8.48-6.42,13.19-6.42,2.59,0,4.69.36,6.3,1.09,1.61.73,3.28,1.82,5,3.27l-3.53,26.79c-1.81-1.01-3.43-1.78-4.89-2.29-1.45-.51-3.28-.76-5.48-.76-3.61,0-7.16,1.96-10.66,5.88-3.49,3.92-6.5,10.75-9.01,20.47v56.19h-17.31v-108.03Z" style="fill: #582700;"/>
          <path d="m734.82,685.97c-.94-.33-1.85-.7-2.72-1.1-4.49-2.09-8.19-5.08-11.12-8.97-2.92-3.89-5.07-8.58-6.44-14.05-1.37-5.47-2.05-11.65-2.05-18.54v-67.38h25.16v70.76c0,4.74.75,8.63,2.27,11.68,1.51,3.05,4.26,4.57,8.26,4.57s6.92-1.52,8.48-4.57c1.56-3.05,2.34-6.94,2.34-11.68v-70.76h24.28v67.38c0,6.89-.66,13.06-1.97,18.54-1.32,5.48-3.39,10.16-6.22,14.05-2.83,3.89-6.46,6.88-10.9,8.97-.83.39-1.69.74-2.58,1.06l-26.81.04Z" style="fill: #58b947;"/>
          <path d="m789.28,575.93h25.45l15.94,49.09,7.75,24.72h.59c-.29-2.93-.64-6.15-1.02-9.65-.39-3.5-.78-7.08-1.17-10.75-.39-3.67-.71-7.33-.95-11-.24-3.67-.37-7.2-.37-10.58v-31.83h23.99v110.04h-25.45l-15.94-49.26-7.75-24.55h-.59c.59,6.32,1.32,13.2,2.19,20.65.88,7.45,1.32,14.56,1.32,21.33v31.83h-23.99v-110.04Z" style="fill: #58b947;"/>
          <path d="m868.12,575.93h31.3c4.97,0,9.63.42,13.97,1.27,4.34.85,8.12,2.29,11.34,4.32,3.22,2.03,5.75,4.82,7.61,8.38,1.85,3.56,2.78,8.04,2.78,13.46,0,2.37-.32,4.77-.95,7.19-.64,2.43-1.61,4.74-2.93,6.94-1.32,2.2-3,4.15-5.05,5.84-2.05,1.69-4.44,2.94-7.17,3.72v.68c6.73,1.58,11.77,4.43,15.14,8.55,3.36,4.12,5.05,9.85,5.05,17.18,0,5.65-.95,10.53-2.85,14.64-1.9,4.12-4.53,7.51-7.9,10.16-3.36,2.65-7.29,4.6-11.77,5.84-4.49,1.24-9.27,1.86-14.33,1.86h-34.23v-110.04Zm30.72,43.34c4.1,0,7.07-1.07,8.92-3.22,1.85-2.14,2.78-4.91,2.78-8.29s-.93-5.81-2.78-7.28c-1.85-1.47-4.83-2.2-8.92-2.2h-5.56v20.99h5.56Zm1.76,44.35c4.97,0,8.56-1.07,10.75-3.22,2.19-2.14,3.29-5.25,3.29-9.31s-1.1-7-3.29-8.8c-2.19-1.8-5.78-2.71-10.75-2.71h-7.31v24.04h7.31Z" style="fill: #58b947;"/>
          <path d="m939.48,441.97s23.08,15.79,10.28,24.06c-13.39,5.05-10.28-24.06-10.28-24.06" style="fill: #58b947;"/>
          <path d="m829.14,461.9c-18.99,2.06-17.27-32.45-17.27-32.45,0,0,35.58,14.92,17.27,32.45" style="fill: #58b947;"/>
          <path d="m802.18,485.85s8.91,27.72,26,17.33c7.2-22-26-17.33-26-17.33" style="fill: #58b947;"/>
          <path d="m884.34,373.21s18.52,20.63,6.13,31.8c-24.2-3.3-6.13-31.8-6.13-31.8" style="fill: #58b947;"/>
          <path d="m824.54,391.79s2.4,33.59-13.12,27.43c-9.06-15.52,13.12-27.43,13.12-27.43" style="fill: #58b947;"/>
          <path d="m1027.14,474s-30.84-6.59-26.85,15.08c15.29,8.84,26.85-15.08,26.85-15.08" style="fill: #58b947;"/>
          <path d="m1007.63,449.97s-28.87-7.45-25.91,8.23c10.23,13.6,25.91-8.23,25.91-8.23" style="fill: #58b947;"/>
          <path d="m1224.72,427.76s-9.53,21.37-21.49,15.26c-11.14-12.94,21.49-15.26,21.49-15.26" style="fill: #58b947;"/>
          <path d="m1152.64,454.84s-31.03-8.67-21.26-24.29c16.82-7.97,21.26,24.29,21.26,24.29" style="fill: #58b947;"/>
          <path d="m1221.87,438.06s-22.62,23.68-1.31,35.52c19.34-3.93,1.31-35.52,1.31-35.52" style="fill: #58b947;"/>
          <path d="m925.18,475.7s19.59-10.75,24.7,3.51c-7.2,13-24.7-3.51-24.7-3.51" style="fill: #58b947;"/>
          <path d="m1032.49,468.12s1.97,28.43,21.29,22.91c14.24-17.55-21.29-22.91-21.29-22.91" style="fill: #58b947;"/>
          <path d="m1180.81,452.45s2.69-21.11-9.05-19.24c-11.12,8.01,9.05,19.24,9.05,19.24" style="fill: #58b947;"/>
          <path d="m1167.35,443.57s8.18,18.55-3.56,20.42c-14.12-4.06,3.56-20.42,3.56-20.42" style="fill: #58b947;"/>
          <path d="m861.02,413.43s22.85-19.16,27.67-2.8c-2.54,16.46-27.67,2.8-27.67,2.8" style="fill: #58b947;"/>
          <path d="m1264.89,545.96s-4.02-26.83-22.73-24.71c-15.91,16.52,22.73,24.71,22.73,24.71" style="fill: #58b947;"/>
          <path d="m861.38,434.68s-29.65,7.54-20.85,25.94c21.29,4.14,20.85-25.94,20.85-25.94" style="fill: #58b947;"/>
          <path d="m1070.24,470.19s-29.07,1.97-24.87-16.45c13.23-13,24.87,16.45,24.87,16.45" style="fill: #58b947;"/>
          <path d="m726.27,515.83s21.64-5.4,18.8-22.99c-19.48-11.03-18.8,22.99-18.8,22.99" style="fill: #58b947;"/>
          <path d="m978.71,426.78s24.8,4.6,20.78,16.86c-19.37,12.59-20.78-16.86-20.78-16.86" style="fill: #58b947;"/>
          <path d="m1103.59,372.41s37.94,18.43,25.17,37.68c-31.03,7.8-25.17-37.68-25.17-37.68" style="fill: #58b947;"/>
          <path d="m776.81,550.5s-31.77,5.69-30.37-11.77c12.68-14.12,30.37,11.77,30.37,11.77" style="fill: #58b947;"/>
          <path d="m1000.64,385.33s34.27-.47,32.52,26.73c-25.48,16.68-32.52-26.73-32.52-26.73" style="fill: #58b947;"/>
          <path d="m1085.83,423.42s-28.69,1.69-28.69,19.15c12.17,15.62,28.69-19.15,28.69-19.15" style="fill: #58b947;"/>
          <path d="m1078.44,419.4s-20.62-27.49-35.78-14.73c-9.15,21.14,35.78,14.73,35.78,14.73" style="fill: #58b947;"/>
          <path d="m1180.36,559.92s-11.84-41.26,17.03-40.7c20.45,15.68-17.03,40.7-17.03,40.7" style="fill: #58b947;"/>
          <path d="m1033.22,417.91s33.51,11.53,18.19,28.44c-17.64,7.48-18.19-28.44-18.19-28.44" style="fill: #58b947;"/>
          <path d="m1080.13,371.04s-5.89,39.22-29.05,23.8c-8.45-16.89,29.05-23.8,29.05-23.8" style="fill: #58b947;"/>
          <path d="m944.77,432.49s22.12-13.2,27.47-1.82c-.98,18.87-27.47,1.82-27.47,1.82" style="fill: #58b947;"/>
          <path d="m965.34,505.51s6.9-30.55-11.22-27.14c-16.59,10.46,11.22,27.14,11.22,27.14" style="fill: #58b947;"/>
          <path d="m1271.12,561.18s-26.58-33.96-40.66-17.15c-6,26.93,40.66,17.15,40.66,17.15" style="fill: #58b947;"/>
          <path d="m1205.36,501.21s-31.82-7.53-31.82,11.51c13.14,15.86,31.82-11.51,31.82-11.51" style="fill: #58b947;"/>
          <path d="m806.98,381.94s10.15,24.25-7.04,29.92c-15.07-8.63,7.04-29.92,7.04-29.92" style="fill: #58b947;"/>
          <path d="m753.76,497.83s19.02,20.21,33.04,5.44c1.88-21.72-33.04-5.44-33.04-5.44" style="fill: #58b947;"/>
          <path d="m982.76,481.17s-33.68-.68-27.37-16.73c15.55-13.97,27.37,16.73,27.37,16.73" style="fill: #58b947;"/>
          <path d="m1127.56,438.06s9.4,24.99-13.43,31.43c-19.82-13.09,13.43-31.43,13.43-31.43" style="fill: #58b947;"/>
          <path d="m678.97,491.09s33.72,14.42,34.8-5.65c-14.27-20.01-34.8,5.65-34.8,5.65" style="fill: #58b947;"/>
          <path d="m1026.34,433.37s10.69,21.58-3.74,25.47c-15.71-7.27,3.74-25.47,3.74-25.47" style="fill: #58b947;"/>
          <path d="m1260.44,450.08s-39.28,9.79-30.65,26.59c21.54,12.09,30.65-26.59,30.65-26.59" style="fill: #58b947;"/>
          <path d="m718.55,463.28s22.53-11.33,29.45,2.94c-5.47,19.75-29.45-2.94-29.45-2.94" style="fill: #58b947;"/>
          <path d="m1030.11,362.19s-11.52,41.54,11.75,39.52c19.75-11.98-11.75-39.52-11.75-39.52" style="fill: #58b947;"/>
          <path d="m983.62,415.21s-23.49,18.67-34.54,4.76c3.09-22.82,34.54-4.76,34.54-4.76" style="fill: #58b947;"/>
          <path d="m836.69,412.46s-24.35,5.37-15.26,16.06c13.41,7.16,15.26-16.06,15.26-16.06" style="fill: #58b947;"/>
          <path d="m983.86,373.26s21.93,26.61,4.19,39.75c-23.88.9-4.19-39.75-4.19-39.75" style="fill: #58b947;"/>
          <path d="m925.14,392.57s27.94,6.07,20.67,26.86c-28.22,3.68-20.67-26.86-20.67-26.86" style="fill: #58b947;"/>
          <path d="m721.91,517.69s25.98,0,25.39,16.65c-15.11,13.62-25.39-16.65-25.39-16.65" style="fill: #58b947;"/>
          <path d="m821.45,377.99s7.67,35.42,26.84,24.08c16.88-18.45-26.84-24.08-26.84-24.08" style="fill: #58b947;"/>
          <path d="m1205.36,466.77s4.57-23.2-8.94-20.58c-13.53,8.65,8.94,20.58,8.94,20.58" style="fill: #58b947;"/>
          <path d="m772.99,429.45s19.14,18.39,7.29,26.15c-16.87,1.08-7.29-26.15-7.29-26.15" style="fill: #58b947;"/>
          <path d="m727.99,489.17s-18.42,4.39-16.09,17.64c14.37,9.02,16.09-17.64,16.09-17.64" style="fill: #58b947;"/>
          <path d="m719.36,553.21c18.13,13.92-16.49,37.59-16.49,37.59,0,0-8-40.7,16.49-37.59" style="fill: #58b947;"/>
          <path d="m1027.68,427.49s-39.07,14.48-42.08-8.66c10.48-22.17,42.08,8.66,42.08,8.66" style="fill: #58b947;"/>
          <path d="m922.22,408.46s1.15,23.33-15.87,26.22c-18.64-13.35,15.87-26.22,15.87-26.22" style="fill: #58b947;"/>
          <path d="m1089.13,421.5s32.57,20.72,14.05,32.25c-18.54,3.8-14.05-32.25-14.05-32.25" style="fill: #58b947;"/>
          <path d="m816.02,459.1s-17.21-23.53-30.34-8.17c-1.53,20.82,30.34,8.17,30.34,8.17" style="fill: #58b947;"/>
          <path d="m1097.8,362.83s-29.2,22.5-12.82,34.09c24.71,5.19,12.82-34.09,12.82-34.09" style="fill: #58b947;"/>
          <path d="m1070.58,453.78s8.82,28.84,25.81,20.95c9.64-15.5-25.81-20.95-25.81-20.95" style="fill: #58b947;"/>
          <path d="m702.78,458.12s27.77,8.25,20.89,23.89c-20.17,7.56-20.89-23.89-20.89-23.89" style="fill: #58b947;"/>
          <path d="m1215.33,581.07s27.18-31.5-.14-42.3c-24.48,8.02.14,42.3.14,42.3" style="fill: #58b947;"/>
          <path d="m786.31,439.95s-1.01-27.17,18.25-24.85c13.98,16.02-18.25,24.85-18.25,24.85" style="fill: #58b947;"/>
          <path d="m792.28,545.24s-12.53-36.59-25.53-24.08c-12.35,18.15,25.53,24.08,25.53,24.08" style="fill: #58b947;"/>
          <path d="m1184.37,395.26s-25.82,17.28-8.05,29.22c16.48,2.26,8.05-29.22,8.05-29.22" style="fill: #58b947;"/>
          <path d="m973.5,438.9s-2.44,24.83-13.52,19.08c-10.9-10.94,13.52-19.08,13.52-19.08" style="fill: #58b947;"/>
          <path d="m674.91,501.7s32.47-12.53,34.15,5.65c-12.29,18.5-34.15-5.65-34.15-5.65" style="fill: #58b947;"/>
          <path d="m883.87,459.68s4.82-26.41,24.73-22.75c9,20.39-24.73,22.75-24.73,22.75" style="fill: #58b947;"/>
          <path d="m1185.72,365.76s-33.63,8.58-27.91,30.34c24.53,16.44,27.91-30.34,27.91-30.34" style="fill: #58b947;"/>
          <path d="m1158.06,408.91s-7.13,26.11,10.04,25.19c14.54-9.12-10.04-25.19-10.04-25.19" style="fill: #58b947;"/>
          <path d="m953,370.67s-16.87,31.04-2.73,38.12c25.88-1.61,2.73-38.12,2.73-38.12" style="fill: #58b947;"/>
          <path d="m873.65,425.05s23.8-8.96,26.6,7.7c-9.6,14.5-26.6-7.7-26.6-7.7" style="fill: #58b947;"/>
          <path d="m1276.7,505.65s-42.11-10.32-35.54,11.43c11.89,12.53,35.54-11.43,35.54-11.43" style="fill: #58b947;"/>
          <path d="m1218.77,512.26s-17.07-24.49.8-28.64c14.66,5.98-.8,28.64-.8,28.64" style="fill: #58b947;"/>
          <path d="m767.19,387.84s28.77,2.62,25.21,23.25c-18.59,14.33-25.21-23.25-25.21-23.25" style="fill: #58b947;"/>
          <path d="m1084.31,519.05s1.52-30.13,23.1-28.64c15.06,15.22-23.1,28.64-23.1,28.64" style="fill: #58b947;"/>
          <path d="m1134.75,362.69s-14.16,33.71,9.51,38.58c24.42-12.91-9.51-38.58-9.51-38.58" style="fill: #58b947;"/>
          <path d="m781.52,521.89s18.33-27.24,32.68-14.07c3.97,25.05-32.68,14.07-32.68,14.07" style="fill: #58b947;"/>
          <path d="m689.35,443.89s34.31-20.03,41.44,5.45c-17.98,18.28-41.44-5.45-41.44-5.45" style="fill: #58b947;"/>
          <path d="m867.28,519.18s27.16-20.58,9.54-31.48c-19.74-.37-9.54,31.48-9.54,31.48" style="fill: #58b947;"/>
          <path d="m1208.97,535.89s30.87-4.4,24.36-21.34c-18.45-11-24.36,21.34-24.36,21.34" style="fill: #58b947;"/>
          <path d="m876.86,385.27s-3.17,27.62-21.22,22.76c-13.48-19.9,21.22-22.76,21.22-22.76" style="fill: #58b947;"/>
          <path d="m1104.19,412.54s2.94,24.33,20.14,19.41c11.49-17.95-20.14-19.41-20.14-19.41" style="fill: #58b947;"/>
          <path d="m836.4,438.97s-3.15-33.09,21.51-27.12c10.96,15.66-21.51,27.12-21.51,27.12" style="fill: #58b947;"/>
          <path d="m747.05,497.83s-8.43,25.78,8.85,26.58c16.09-6.72-8.85-26.58-8.85-26.58" style="fill: #58b947;"/>
          <path d="m1100.66,419.62s-25.71-4.65-18.53-18.64c15.02-9.99,18.53,18.64,18.53,18.64" style="fill: #58b947;"/>
          <path d="m1156.86,405.26s-15.05,28.93-25.64,21.18c-12.93-18.45,25.64-21.18,25.64-21.18" style="fill: #58b947;"/>
          <path d="m697.91,545.25s30.79-17.81,18.58-33.65c-26.69-3.66-18.58,33.65-18.58,33.65" style="fill: #58b947;"/>
          <path d="m862.74,525.6s-31.98-10.31-24.99-23.27c20.19-11.37,24.99,23.27,24.99,23.27" style="fill: #58b947;"/>
          <path d="m998.96,466.23s13.97-13.29,21.93-5.73c1.18,15.11-21.93,5.73-21.93,5.73" style="fill: #58b947;"/>
          <path d="m1178.8,480.55s-12.75,26.11-28.15,14.34c-2.76-20.89,28.15-14.34,28.15-14.34" style="fill: #58b947;"/>
          <path d="m907.43,475.7s-2.5-36.14,16.36-31.11c18.16,12.3-16.36,31.11-16.36,31.11" style="fill: #58b947;"/>
          <path d="m946.4,423.3s-12.31,27.5-26.38,15.75c-9.73-18.83,26.38-15.75,26.38-15.75" style="fill: #58b947;"/>
          <path d="m1145.56,538.77s7.7-33.16,27.88-24.28c9.45,15.99-27.88,24.28-27.88,24.28" style="fill: #58b947;"/>
          <path d="m1121.27,521.61s-13-23.75,3.13-28.59c18.94,3.82-3.13,28.59-3.13,28.59" style="fill: #58b947;"/>
          <path d="m747.38,575.68s8.15-29.86-11.04-29.13c-15.17,11.88,11.04,29.13,11.04,29.13" style="fill: #58b947;"/>
          <path d="m742.83,402.94s12.48,34.91-9.11,43.55c-23.29-16.12,9.11-43.55,9.11-43.55" style="fill: #58b947;"/>
          <path d="m919.94,392.57s-31.25-.78-28.13,17.96c13.96,12.09,28.13-17.96,28.13-17.96" style="fill: #58b947;"/>
          <path d="m1218.95,421.03s-19.87,21.96-35.99,8.83c-2.03-22.53,35.99-8.83,35.99-8.83" style="fill: #58b947;"/>
          <path d="m1276.93,497.68s-26.24-26.89-41.84-13.29c-4.57,28.78,41.84,13.29,41.84,13.29" style="fill: #58b947;"/>
          <path d="m1132.54,531.6s-5.7-35.56,16.95-33.65c18.61,16.83-16.95,33.65-16.95,33.65" style="fill: #58b947;"/>
          <path d="m752.81,470.65s23.37-23.41,10.76-33.32c-24.99-4.63-10.76,33.32-10.76,33.32" style="fill: #58b947;"/>
          <path d="m752.48,393.74s-13.3,37.87,13.4,40.68c24.87-14.87-13.4-40.68-13.4-40.68" style="fill: #58b947;"/>
          <path d="m834.1,545.24s10.48-29.73-8.37-38.13c-25.28,12.25,8.37,38.13,8.37,38.13" style="fill: #58b947;"/>
          <path d="m873.71,433.46s17.33,23.11-1.22,32.02c-20.32-7.1,1.22-32.02,1.22-32.02" style="fill: #58b947;"/>
          <path d="m974.19,517.58s32.48-1.38,21.77-23.63c-18.55-4.58-21.77,23.63-21.77,23.63" style="fill: #58b947;"/>
          <path d="m719.35,527.45s20.76,15.62,6.91,25.59c-17.19.9-6.91-25.59-6.91-25.59" style="fill: #58b947;"/>
        </g>
      </g>
    </g>
    <g>
      <g>
        <polygon points="557.3 508.28 557.3 690.23 112.09 690.23 112.09 508.28 334.7 406.16 557.3 508.28" style="fill: #fff; stroke: #231f20; stroke-linecap: round; stroke-linejoin: bevel; stroke-width: 4px;"/>
        <polyline points="590.22 523.38 334.7 406.16 79.17 523.38" style="fill: none; stroke: #3e1707; stroke-linecap: round; stroke-linejoin: round; stroke-width: 7px;"/>
      </g>
      <g>
        <path d="m266.26,523.38v-24.58l-21.86-31.36h14.58l17.12,25.17,16.27-25.17h6.44l-19.75,29.66v26.27h-12.8Z" style="fill: #231f20;"/>
        <path d="m317.2,484.4c13.48,0,21.44,8.14,21.44,20,0,11.02-7.97,19.92-21.44,19.92s-21.44-7.37-21.44-19.32c0-11.02,7.97-20.59,21.44-20.59Zm0,34.83c5.25,0,9.07-3.47,9.07-14.83,0-12.2-3.81-15-9.07-15s-9.07,3.56-9.07,14.92c0,12.12,3.81,14.92,9.07,14.92Z" style="fill: #231f20;"/>
        <path d="m361.18,524.32c-8.05,0-13.73-5.08-13.73-13.64v-25.42h11.95v23.39c0,7.46,2.97,9.75,5.85,9.75,5.25,0,8.39-6.1,8.39-10.42v-22.71h11.86v38.14h-11.86v-7.29c-1.86,4.58-6.1,8.22-12.46,8.22Z" style="fill: #231f20;"/>
        <path d="m421.61,484.4c1.44,0,2.71.08,3.47.17v9.41c-1.53-.51-3.05-.85-5.85-.85-6.02,0-9.66,2.8-9.66,7.54v22.71h-11.86v-38.14h11.86v7.71c1.95-3.81,5.25-8.56,12.03-8.56Z" style="fill: #231f20;"/>
        <path d="m203.25,585.38h-6.19c0-1.44-1.44-2.8-3.31-4.24-3.73,3.14-8.81,5.08-14.49,5.08-18.81,0-27.63-11.27-27.63-28.39s12.03-29.24,28.22-29.24c11.44,0,19.92,7.88,21.44,18.47h-4.24c-1.27-8.05-7.2-13.39-15.76-13.39-9.92,0-16.36,5.25-16.36,24.15,0,17.2,5.76,23.31,16.02,23.31,3.73,0,7.03-1.02,9.58-2.8v-13.14h-6.78v-4.66h19.49v24.83Z" style="fill: #231f20;"/>
        <path d="m233.42,586.32c-12.29,0-20.93-7.12-20.93-19.75,0-11.02,8.05-20.17,19.83-20.17s18.64,8.05,18.64,20.08h-26.1c.25,10.76,5.59,13.9,11.27,13.9,4.32,0,9.83-1.78,11.02-7.63h3.31c-.42,7.03-6.61,13.56-17.03,13.56Zm-8.39-24.15h14.32c0-7.97-2.8-11.44-6.86-11.44-3.64,0-6.86,2.8-7.46,11.44Z" style="fill: #231f20;"/>
        <path d="m285.37,546.4c8.22,0,14.07,5,14.07,13.64v25.34h-11.86v-23.39c0-7.46-2.54-9.75-6.27-9.75-5.68,0-8.9,6.19-8.9,10.42v22.71h-11.86v-38.14h11.86v7.29c1.95-4.58,6.27-8.14,12.97-8.14Z" style="fill: #231f20;"/>
        <path d="m329.61,586.32c-12.29,0-20.93-7.12-20.93-19.75,0-11.02,8.05-20.17,19.83-20.17s18.64,8.05,18.64,20.08h-26.1c.25,10.76,5.59,13.9,11.27,13.9,4.32,0,9.83-1.78,11.02-7.63h3.31c-.42,7.03-6.61,13.56-17.03,13.56Zm-8.39-24.15h14.32c0-7.97-2.8-11.44-6.86-11.44-3.64,0-6.86,2.8-7.46,11.44Z" style="fill: #231f20;"/>
        <path d="m380.63,546.4c1.44,0,2.71.08,3.47.17v9.41c-1.53-.51-3.05-.85-5.85-.85-6.02,0-9.66,2.8-9.66,7.54v22.71h-11.86v-38.14h11.86v7.71c1.95-3.81,5.25-8.56,12.03-8.56Z" style="fill: #231f20;"/>
        <path d="m408.77,546.4c13.48,0,21.44,8.14,21.44,20,0,11.02-7.97,19.92-21.44,19.92s-21.44-7.37-21.44-19.32c0-11.02,7.97-20.59,21.44-20.59Zm0,34.83c5.25,0,9.07-3.47,9.07-14.83,0-12.2-3.81-15-9.07-15s-9.07,3.56-9.07,14.92c0,12.12,3.81,14.92,9.07,14.92Z" style="fill: #231f20;"/>
        <path d="m452.75,586.32c-8.05,0-13.73-5.08-13.73-13.64v-25.42h11.95v23.39c0,7.46,2.97,9.75,5.85,9.75,5.25,0,8.39-6.1,8.39-10.42v-22.71h11.86v38.14h-11.86v-7.29c-1.86,4.58-6.1,8.22-12.46,8.22Z" style="fill: #231f20;"/>
        <path d="m497.92,555.21c0,3.64,3.39,4.75,6.95,5.93,6.44,2.12,13.73,4.49,13.73,12.88s-7.46,12.2-16.7,12.2-15-4.83-15.68-12.8h3.31c1.19,6.36,5.76,8.64,11.86,8.64,4.58,0,6.69-1.87,6.69-4.58,0-3.73-3.81-4.66-7.46-5.85-6.1-1.95-12.8-4.58-12.8-12.88,0-7.2,5.34-12.37,14.92-12.37,7.88,0,13.14,3.73,14.41,11.69h-3.31c-1.27-4.83-4.75-7.71-9.41-7.71s-6.53,2.12-6.53,4.83Z" style="fill: #231f20;"/>
        <path d="m200.88,658.81l-35.34-45.93v45.51h-5.51v-55.93h12.2l28.56,36.78v-36.78h5.51v56.36h-5.42Z" style="fill: #231f20;"/>
        <path d="m238.08,659.32c-12.29,0-20.93-7.12-20.93-19.75,0-11.02,8.05-20.17,19.83-20.17s18.64,8.05,18.64,20.08h-26.1c.25,10.76,5.59,13.9,11.27,13.9,4.32,0,9.83-1.78,11.02-7.63h3.31c-.42,7.03-6.61,13.56-17.03,13.56Zm-8.39-24.15h14.32c0-7.97-2.8-11.44-6.86-11.44-3.64,0-6.86,2.8-7.46,11.44Z" style="fill: #231f20;"/>
        <path d="m277.07,610.76h-11.86v-11.53h11.86v11.53Zm0,47.63h-11.86v-38.14h11.86v38.14Z" style="fill: #231f20;"/>
        <path d="m301.98,679.57c-9.41,0-16.27-2.8-16.27-8.22,0-4.15,2.46-6.44,5.93-8.81-3.31-1.61-5-4.49-5-7.63,0-4.75,2.8-7.37,6.44-10.34-4.49-2.37-6.95-6.19-6.95-10.85,0-8.14,6.86-14.32,18.31-14.32,5.68,0,10.25,1.36,13.39,3.73l8.73-6.02h.25v9.75c-1.78-.08-3.73,0-5.51.17,1.02,1.78,1.53,3.81,1.53,6.1,0,7.71-6.95,13.9-18.39,13.9-2.8,0-5.25-.34-7.46-.93-1.7,1.19-2.46,2.29-2.46,3.22,0,2.37,1.27,3.73,4.66,3.73h12.88c9.41,0,13.9,4.58,13.9,10.68,0,11.7-11.86,15.85-23.98,15.85Zm14.41-11.19c0-2.29-1.53-4.58-5.85-4.58h-12.8c-.59,0-1.19,0-1.7-.08-1.95,1.86-2.8,3.47-2.8,5.85,0,3.47,2.88,4.75,10.42,4.75,7.97,0,12.71-2.2,12.71-5.93Zm-11.95-26.1c3.47,0,5.93-2.46,5.93-9.15,0-7.12-2.46-9.07-5.93-9.07s-5.93,2.46-5.93,9.66c0,6.53,2.46,8.56,5.93,8.56Z" style="fill: #231f20;"/>
        <path d="m359.1,619.4c8.22,0,14.24,5,14.24,13.64v25.34h-12.03v-23.39c0-7.46-2.88-9.75-6.27-9.75-5.68,0-8.9,6.19-8.9,10.42v22.71h-11.86v-62.29h11.86v31.44c1.95-4.58,6.27-8.14,12.97-8.14Z" style="fill: #231f20;"/>
        <path d="m397.07,651.52v6.86h-11.86v-62.29h11.86v31.27c2.71-5.76,9.07-7.97,13.39-7.97,10.51,0,17.63,9.15,17.63,20s-7.2,19.83-18.48,19.83c-4.15,0-10-2.2-12.54-7.71Zm10.34,2.2c5.08,0,8.31-3.81,8.31-14.32s-3.22-14.58-8.39-14.58-10.25,4.58-10.25,14.58,5.08,14.32,10.34,14.32Z" style="fill: #231f20;"/>
        <path d="m457.33,619.4c13.48,0,21.44,8.14,21.44,20,0,11.02-7.97,19.92-21.44,19.92s-21.44-7.37-21.44-19.32c0-11.02,7.97-20.59,21.44-20.59Zm0,34.83c5.25,0,9.07-3.47,9.07-14.83,0-12.2-3.81-15-9.07-15s-9.07,3.56-9.07,14.92c0,12.12,3.81,14.92,9.07,14.92Z" style="fill: #231f20;"/>
        <path d="m512.25,619.4c1.44,0,2.71.08,3.47.17v9.41c-1.53-.51-3.05-.85-5.85-.85-6.02,0-9.66,2.8-9.66,7.54v22.71h-11.86v-38.14h11.86v7.71c1.95-3.81,5.25-8.56,12.03-8.56Z" style="fill: #231f20;"/>
      </g>
    </g>
    <path d="m647.93,680.02c-1.44-1.51-2.81-3.02-4.27-4.84-4.42,3.37-10.96,5.99-19.4,5.99-17.7,0-25.53-10.51-25.53-21.04,0-9.66,5.31-16.66,13.68-21.08v-.35c-3.26-3.67-5.6-9.18-5.6-14.43,0-9.66,7.56-19.72,22.38-19.72,11.58,0,20.16,6.89,20.16,17.58,0,7.33-3.93,13.72-14.09,19.19l-.06.47c3.73,4.36,7.94,9.64,11.09,12.9,2.85-4.52,4.77-11.22,5.61-17.26h15.63c-1.8,11.09-5.58,20.83-12.1,27.96,4,4.64,8.29,9.64,12.78,14.62h-20.29Zm-12.32-14.8c-4.39-4.43-9.94-11.01-15.36-17.26-2.67,2.11-4.86,5.08-4.86,9.31,0,5.95,4.32,11.05,11.42,11.05,3.83,0,6.9-1.36,8.8-3.1Zm-12.95-42.5c0,3.58,1.47,6.7,4.7,10.24,4.85-3.53,7-6.43,7-10.35,0-3.26-1.74-6.98-5.72-6.98s-5.98,3.42-5.98,7.08Z" style="fill: #221000;"/>
    <g>
      <g>
        <path d="m1032.27,801.45h16.34v5.23h-10.91v10.1h10.16v5.14h-10.16v15.24h-5.43v-35.72Z" style="fill: #e6e6e5;"/>
        <path d="m1070.81,829.51c0,2.99.09,5.53.18,7.66h-4.73l-.28-3.54h-.12c-.92,1.72-3,4.08-6.51,4.08-4.08,0-7.17-3.05-7.17-10.96v-15.37h5.43v14.4c0,4.1.99,6.79,3.69,6.79,2.03,0,3.29-1.73,3.77-3.2.18-.57.3-1.3.3-2.08v-15.91h5.43v18.14Z" style="fill: #e6e6e5;"/>
        <path d="m1076.44,799.83h5.43v37.34h-5.43v-37.34Z" style="fill: #e6e6e5;"/>
        <path d="m1087.6,799.83h5.43v37.34h-5.43v-37.34Z" style="fill: #e6e6e5;"/>
        <path d="m1102.23,811.37l3.58,13.9c.41,1.64.81,3.48,1.11,4.93h.12c.3-1.43.68-3.29,1.05-4.95l3.11-13.88h5.66l-5.17,17.85c-2.51,8.42-4.42,13.08-7.01,16.02-2.08,2.3-4.29,3.25-5.53,3.51l-1.37-5.3c.97-.35,2.12-1.04,3.2-2.04,1.01-.9,2.09-2.38,2.75-3.97.21-.47.33-.83.33-1.16,0-.29-.06-.66-.25-1.18l-7.52-23.73h5.93Z" style="fill: #e6e6e5;"/>
        <path d="m1134.43,801.45v35.72h-5.43v-35.72h5.43Z" style="fill: #e6e6e5;"/>
        <path d="m1140.57,818.92c0-2.96-.09-5.3-.18-7.55h4.73l.27,3.62h.12c1.01-2.02,3.27-4.16,6.57-4.16,3.85,0,7.28,3.03,7.28,10.54v15.8h-5.43v-15.1c0-3.37-.97-6.09-3.77-6.09-1.94,0-3.36,1.61-3.9,3.63-.17.54-.26,1.35-.26,2.15v15.41h-5.43v-18.25Z" style="fill: #e6e6e5;"/>
        <path d="m1164.6,831.37c1.12.81,3.29,1.72,5.15,1.72,2.26,0,3.36-1.17,3.36-2.91s-.84-2.65-3.39-3.89c-4.06-1.9-5.7-4.56-5.68-7.49,0-4.51,3.13-7.96,7.99-7.96,2.27,0,4.2.67,5.44,1.46l-1.08,4.46c-.91-.62-2.48-1.37-4.23-1.37-1.92,0-2.95,1.19-2.95,2.72s.92,2.36,3.54,3.67c3.74,1.78,5.53,4.22,5.54,7.84,0,4.87-3.18,8.05-8.57,8.05-2.42,0-4.75-.7-6.2-1.71l1.09-4.58Z" style="fill: #e6e6e5;"/>
        <path d="m1201.09,829.51c0,2.99.09,5.53.18,7.66h-4.73l-.28-3.54h-.12c-.92,1.72-3,4.08-6.51,4.08-4.08,0-7.17-3.05-7.17-10.96v-15.37h5.43v14.4c0,4.1.99,6.79,3.69,6.79,2.03,0,3.29-1.73,3.77-3.2.18-.57.3-1.3.3-2.08v-15.91h5.43v18.14Z" style="fill: #e6e6e5;"/>
        <path d="m1206.71,819.36c0-3.14-.08-5.72-.18-7.99h4.71l.22,4.6h.15c1.03-3.33,3.41-5.13,5.64-5.13.53,0,.84.03,1.24.13v6c-.43-.1-.87-.15-1.47-.15-2.39,0-4.21,1.88-4.72,4.78-.1.59-.16,1.33-.16,2.12v13.46h-5.43v-17.81Z" style="fill: #e6e6e5;"/>
        <path d="m1225.46,825.99c.12,5,3.01,6.9,6.33,6.9,2.31,0,4.03-.46,5.52-1.11l.79,4.37c-1.76.88-4.26,1.51-7.15,1.51-6.81,0-10.71-5.07-10.71-13s3.68-13.82,10.15-13.82,8.86,6.3,8.86,12.33c0,1.29-.08,2.23-.18,2.82h-13.61Zm8.71-4.39c.03-2.92-.96-6.38-4.13-6.38s-4.37,3.62-4.58,6.38h8.71Z" style="fill: #e6e6e5;"/>
        <path d="m1262.41,799.83v30.18c0,2.49.09,5.34.18,7.16h-4.78l-.26-3.78h-.11c-1.17,2.57-3.57,4.31-6.48,4.31-5.03,0-8.72-5.32-8.72-13.2-.02-8.77,4.26-13.67,9.11-13.67,2.7,0,4.64,1.33,5.56,3.19h.09v-14.2h5.42Zm-5.42,22.02c0-.51-.02-1.14-.11-1.67-.41-2.38-1.99-4.38-4.2-4.38-3.29,0-4.97,3.82-4.97,8.55s1.78,8.29,4.89,8.29c1.89,0,3.64-1.44,4.22-4.21.12-.54.17-1.16.17-1.83v-4.76Z" style="fill: #e6e6e5;"/>
      </g>
      <g>
        <path d="m1017.19,738.72h16.34v5.23h-10.91v10.1h10.16v5.14h-10.16v15.24h-5.43v-35.72Z" style="fill: #e6e6e5;"/>
        <path d="m1037.53,756.63c0-3.14-.08-5.72-.18-7.99h4.71l.22,4.6h.15c1.03-3.33,3.41-5.13,5.64-5.13.53,0,.84.03,1.24.13v6c-.43-.1-.87-.15-1.47-.15-2.39,0-4.21,1.88-4.72,4.78-.1.59-.16,1.33-.16,2.12v13.46h-5.43v-17.81Z" style="fill: #e6e6e5;"/>
        <path d="m1056.27,763.26c.12,5,3.01,6.9,6.33,6.9,2.31,0,4.03-.46,5.52-1.11l.79,4.36c-1.76.88-4.26,1.51-7.15,1.51-6.81,0-10.71-5.07-10.71-13s3.68-13.82,10.15-13.82,8.86,6.3,8.86,12.33c0,1.29-.08,2.23-.18,2.82h-13.61Zm8.71-4.39c.03-2.92-.95-6.38-4.13-6.38s-4.37,3.63-4.58,6.38h8.71Z" style="fill: #e6e6e5;"/>
        <path d="m1078.26,763.26c.12,5,3.01,6.9,6.33,6.9,2.31,0,4.03-.46,5.52-1.11l.79,4.36c-1.76.88-4.26,1.51-7.15,1.51-6.81,0-10.71-5.07-10.71-13s3.68-13.82,10.15-13.82,8.86,6.3,8.86,12.33c0,1.29-.08,2.23-.18,2.82h-13.61Zm8.71-4.39c.03-2.92-.95-6.38-4.13-6.38s-4.37,3.63-4.58,6.38h8.71Z" style="fill: #e6e6e5;"/>
        <path d="m1121.18,758.47h-10.37v10.74h11.63v5.23h-17.06v-35.72h16.42v5.23h-10.99v9.37h10.37v5.14Z" style="fill: #e6e6e5;"/>
        <path d="m1126.61,768.64c1.12.81,3.29,1.72,5.15,1.72,2.26,0,3.36-1.17,3.36-2.91s-.84-2.65-3.39-3.89c-4.06-1.9-5.7-4.56-5.68-7.49,0-4.51,3.13-7.96,7.99-7.96,2.27,0,4.2.67,5.44,1.46l-1.08,4.46c-.91-.62-2.48-1.37-4.23-1.37-1.92,0-2.95,1.19-2.95,2.72s.92,2.36,3.54,3.66c3.74,1.78,5.53,4.22,5.54,7.84,0,4.87-3.18,8.05-8.57,8.05-2.42,0-4.75-.7-6.2-1.71l1.09-4.58Z" style="fill: #e6e6e5;"/>
        <path d="m1150.87,741.4v7.25h5.06v4.63h-5.06v11.98c0,3.16.83,4.52,2.71,4.52.85,0,1.5-.11,1.99-.25l.11,4.79c-.82.34-2.18.6-3.84.6-1.93,0-3.56-.71-4.59-1.97-1.17-1.42-1.73-3.64-1.73-7.16v-12.52h-3.04v-4.63h3.04v-5.73l5.35-1.51Z" style="fill: #e6e6e5;"/>
        <path d="m1165.49,741.56c.01,1.95-1.19,3.44-3.07,3.44-1.74,0-2.94-1.49-2.93-3.44-.01-1.99,1.24-3.46,3-3.46s2.99,1.45,3,3.46Zm-5.7,32.88v-25.8h5.43v25.8h-5.43Z" style="fill: #e6e6e5;"/>
        <path d="m1170.85,756.19c0-2.96-.09-5.3-.18-7.55h4.66l.26,3.58h.12c1.07-2,3.04-4.11,6.38-4.11,2.77,0,4.87,1.7,5.78,4.44h.09c.72-1.33,1.62-2.38,2.59-3.1,1.16-.88,2.46-1.35,4.11-1.35,3.66,0,6.9,2.99,6.9,10.69v15.64h-5.32v-14.68c0-3.95-1.01-6.54-3.55-6.54-1.73,0-3.02,1.43-3.56,3.31-.16.59-.25,1.4-.25,2.14v15.77h-5.32v-15.39c0-3.24-.97-5.83-3.45-5.83-1.83,0-3.17,1.66-3.66,3.53-.18.62-.25,1.39-.25,2.13v15.57h-5.32v-18.25Z" style="fill: #e6e6e5;"/>
        <path d="m1218.77,774.44l-.36-2.8h-.13c-1.28,2.02-3.42,3.33-6.03,3.33-4.14,0-6.62-3.55-6.62-7.66,0-6.55,4.98-9.69,12.26-9.68v-.5c0-1.99-.68-4.53-4.18-4.52-2.01,0-4.03.73-5.46,1.78l-1.07-4.12c1.51-1.07,4.24-2.16,7.52-2.16,6.74,0,8.62,5.02,8.62,10.63v9.6c0,2.24.09,4.48.33,6.11h-4.89Zm-.74-12.72c-3.36-.03-7.07.83-7.07,4.93,0,2.64,1.41,3.79,2.98,3.79,1.95,0,3.44-1.47,3.94-3.38.11-.44.15-.94.15-1.39v-3.95Z" style="fill: #e6e6e5;"/>
        <path d="m1234.83,741.4v7.25h5.07v4.63h-5.07v11.98c0,3.16.83,4.52,2.71,4.52.85,0,1.5-.11,1.99-.25l.11,4.79c-.82.34-2.18.6-3.84.6-1.93,0-3.56-.71-4.59-1.97-1.17-1.42-1.73-3.64-1.73-7.16v-12.52h-3.04v-4.63h3.04v-5.73l5.35-1.51Z" style="fill: #e6e6e5;"/>
        <path d="m1247.42,763.26c.12,5,3.01,6.9,6.33,6.9,2.31,0,4.03-.46,5.52-1.11l.79,4.36c-1.76.88-4.26,1.51-7.15,1.51-6.81,0-10.71-5.07-10.71-13s3.68-13.82,10.15-13.82,8.86,6.3,8.86,12.33c0,1.29-.08,2.23-.18,2.82h-13.61Zm8.71-4.39c.03-2.92-.95-6.38-4.13-6.38s-4.37,3.63-4.58,6.38h8.71Z" style="fill: #e6e6e5;"/>
        <path d="m1265.16,768.64c1.12.81,3.29,1.72,5.15,1.72,2.26,0,3.36-1.17,3.36-2.91s-.84-2.65-3.39-3.89c-4.06-1.9-5.7-4.56-5.68-7.49,0-4.51,3.13-7.96,7.99-7.96,2.27,0,4.2.67,5.44,1.46l-1.09,4.46c-.91-.62-2.48-1.37-4.23-1.37-1.92,0-2.95,1.19-2.95,2.72s.92,2.36,3.54,3.66c3.74,1.78,5.53,4.22,5.54,7.84,0,4.87-3.18,8.05-8.57,8.05-2.42,0-4.75-.7-6.2-1.71l1.09-4.58Z" style="fill: #e6e6e5;"/>
      </g>
    </g>
    <g>
      <g>
        <path d="m29.78,827.31l-2.35,9.86h-5.52l9.02-35.72h6.76l8.96,35.72h-5.69l-2.45-9.86h-8.73Zm7.92-4.78l-2.1-8.62c-.53-2.25-1.01-4.94-1.44-7.14h-.11c-.42,2.22-.89,4.98-1.38,7.13l-2.08,8.63h7.1Z" style="fill: #e6e6e5;"/>
        <path d="m63.69,837.17v-21.17h-7.47v21.17h-5.43v-21.17h-3v-4.63h3v-.81c0-3.2.69-6.18,2.4-8.2,1.32-1.56,3.27-2.53,5.99-2.53,1.1,0,2.24.33,2.89.66l-.89,4.71c-.52-.25-1.19-.47-1.89-.47-2.38,0-3.1,2.34-3.1,5.55v1.09h7.5v-1.15c0-3.2.68-6.38,2.55-8.49,1.55-1.76,3.67-2.44,5.58-2.44,1.47,0,2.64.28,3.48.63l-.46,4.83c-.57-.24-1.28-.44-2.25-.44-2.63,0-3.49,2.66-3.49,5.69v1.36h4.61v4.63h-4.58v21.17h-5.43Z" style="fill: #e6e6e5;"/>
        <path d="m95.79,824.07c0,9.76-5.43,13.63-10.45,13.63-5.84,0-10.22-4.89-10.22-13.28s4.57-13.59,10.54-13.59,10.14,5.21,10.14,13.24Zm-15.14.21c0,4.78,1.69,8.8,4.86,8.8,3,0,4.74-4.06,4.74-8.86,0-3.96-1.26-8.76-4.75-8.76s-4.86,4.68-4.86,8.82Z" style="fill: #e6e6e5;"/>
        <path d="m100.15,819.36c0-3.14-.08-5.72-.18-7.99h4.71l.22,4.6h.15c1.03-3.33,3.41-5.13,5.65-5.13.53,0,.84.03,1.24.13v6c-.43-.1-.87-.15-1.47-.15-2.39,0-4.21,1.88-4.72,4.78-.1.59-.16,1.33-.16,2.12v13.46h-5.43v-17.81Z" style="fill: #e6e6e5;"/>
        <path d="m133.86,799.83v30.18c0,2.49.09,5.34.18,7.16h-4.78l-.26-3.78h-.11c-1.17,2.57-3.57,4.31-6.48,4.31-5.03,0-8.72-5.32-8.72-13.2-.02-8.77,4.26-13.67,9.11-13.67,2.7,0,4.64,1.33,5.56,3.19h.09v-14.2h5.42Zm-5.42,22.02c0-.51-.02-1.14-.11-1.67-.41-2.38-1.99-4.38-4.2-4.38-3.29,0-4.97,3.82-4.97,8.55s1.78,8.29,4.89,8.29c1.89,0,3.64-1.44,4.22-4.21.12-.54.17-1.16.17-1.83v-4.76Z" style="fill: #e6e6e5;"/>
        <path d="m151.16,837.17l-.36-2.8h-.13c-1.28,2.02-3.42,3.34-6.03,3.34-4.14,0-6.62-3.55-6.62-7.66,0-6.55,4.98-9.69,12.26-9.68v-.5c0-1.99-.68-4.53-4.18-4.52-2.01,0-4.03.73-5.46,1.78l-1.07-4.12c1.51-1.07,4.24-2.16,7.52-2.16,6.74,0,8.62,5.02,8.62,10.62v9.6c0,2.24.09,4.48.33,6.11h-4.89Zm-.74-12.72c-3.36-.03-7.07.83-7.07,4.93,0,2.64,1.41,3.79,2.98,3.79,1.95,0,3.44-1.47,3.94-3.38.11-.44.15-.94.15-1.39v-3.95Z" style="fill: #e6e6e5;"/>
        <path d="m161.07,837.17c.09-1.79.18-4.67.18-7.16v-30.18h5.42v14.87h.09c1.29-2.42,3.46-3.86,6.4-3.86,5,0,8.42,5.21,8.39,13,0,9.24-4.53,13.87-9.22,13.87-2.65,0-4.8-1.25-6.25-4.21h-.11l-.26,3.67h-4.63Zm5.6-10.23c0,.57.06,1.11.16,1.57.61,2.67,2.32,4.19,4.28,4.19,3.2,0,4.97-3.36,4.97-8.56,0-4.61-1.62-8.31-4.94-8.31-1.98,0-3.77,1.83-4.29,4.35-.1.5-.18,1.1-.18,1.69v5.09Z" style="fill: #e6e6e5;"/>
        <path d="m185.92,799.83h5.43v37.34h-5.43v-37.34Z" style="fill: #e6e6e5;"/>
        <path d="m201.02,825.99c.12,5,3.01,6.9,6.33,6.9,2.31,0,4.03-.46,5.52-1.11l.79,4.37c-1.76.88-4.26,1.51-7.15,1.51-6.81,0-10.71-5.07-10.71-13s3.68-13.82,10.15-13.82,8.86,6.3,8.86,12.33c0,1.29-.08,2.23-.18,2.82h-13.61Zm8.71-4.39c.03-2.92-.95-6.38-4.13-6.38s-4.37,3.62-4.58,6.38h8.71Z" style="fill: #e6e6e5;"/>
        <path d="m228.14,801.93c1.91-.41,4.47-.72,7.79-.72,3.86,0,6.76.91,8.69,2.85,1.79,1.76,2.87,4.56,2.87,7.83,0,3.45-.9,6.15-2.53,8.06-2.14,2.57-5.49,3.8-9.08,3.8-.89,0-1.68-.04-2.35-.19v13.61h-5.39v-35.24Zm5.39,16.65c.61.17,1.34.24,2.29.24,3.92,0,6.27-2.47,6.27-6.63,0-3.76-2.03-6.09-5.76-6.09-1.29,0-2.26.14-2.8.3v12.19Z" style="fill: #e6e6e5;"/>
        <path d="m251.28,819.36c0-3.14-.08-5.72-.18-7.99h4.71l.22,4.6h.15c1.03-3.33,3.41-5.13,5.65-5.13.53,0,.84.03,1.24.13v6c-.43-.1-.87-.15-1.47-.15-2.39,0-4.21,1.88-4.72,4.78-.1.59-.16,1.33-.16,2.12v13.46h-5.43v-17.81Z" style="fill: #e6e6e5;"/>
        <path d="m272.18,804.29c.01,1.95-1.19,3.44-3.07,3.44-1.74,0-2.94-1.49-2.93-3.44-.01-1.99,1.24-3.45,3-3.45s2.99,1.45,3,3.45Zm-5.7,32.88v-25.8h5.43v25.8h-5.43Z" style="fill: #e6e6e5;"/>
        <path d="m292.54,836.47c-1.03.58-3.09,1.19-5.55,1.19-6.5,0-10.72-4.99-10.72-13.14,0-7.73,4.31-13.65,11.59-13.65,1.86,0,3.7.48,4.79,1.05l-.93,4.78c-.78-.43-1.97-.88-3.7-.88-3.98,0-6.26,3.73-6.24,8.46,0,5.29,2.66,8.37,6.26,8.37,1.63,0,2.84-.4,3.82-.9l.68,4.71Z" style="fill: #e6e6e5;"/>
        <path d="m299.95,825.99c.12,5,3.01,6.9,6.33,6.9,2.31,0,4.03-.46,5.52-1.11l.79,4.37c-1.76.88-4.26,1.51-7.15,1.51-6.81,0-10.71-5.07-10.71-13s3.68-13.82,10.15-13.82,8.86,6.3,8.86,12.33c0,1.29-.08,2.23-.18,2.82h-13.61Zm8.71-4.39c.03-2.92-.95-6.38-4.13-6.38s-4.37,3.62-4.58,6.38h8.71Z" style="fill: #e6e6e5;"/>
        <path d="m317.68,831.37c1.12.81,3.29,1.72,5.15,1.72,2.26,0,3.36-1.17,3.36-2.91s-.84-2.65-3.39-3.89c-4.06-1.9-5.7-4.56-5.68-7.49,0-4.51,3.13-7.96,7.99-7.96,2.27,0,4.2.67,5.44,1.46l-1.09,4.46c-.91-.62-2.48-1.37-4.23-1.37-1.92,0-2.95,1.19-2.95,2.72s.92,2.36,3.54,3.67c3.74,1.78,5.53,4.22,5.54,7.84,0,4.87-3.18,8.05-8.57,8.05-2.42,0-4.75-.7-6.2-1.71l1.09-4.58Z" style="fill: #e6e6e5;"/>
      </g>
      <g>
        <path d="m84.44,780.06c-3.77-1.31-7.38-2.9-10.72-4.5-.65-.33-1.26-.55-1.81-.58-6.7-.3-12.27-6.46-12.27-18.18,0-10.92,5.21-18.61,13.29-18.61s12.71,8.01,12.71,17.98c0,8.79-2.96,14.47-7.07,16.48v.21c2.48.9,5.21,1.66,7.53,2.28l-1.66,4.92Zm-4.51-23.62c0-6.79-2.32-13.12-7.2-13.12s-7.39,6.28-7.38,13.33c-.02,7.16,2.54,13.19,7.29,13.19s7.28-5.98,7.28-13.4Z" style="fill: #e6e6e5;"/>
        <path d="m108.78,766.78c0,2.99.09,5.53.18,7.66h-4.73l-.28-3.54h-.12c-.92,1.72-3,4.08-6.51,4.08-4.08,0-7.17-3.05-7.17-10.96v-15.37h5.43v14.4c0,4.1.99,6.79,3.69,6.79,2.03,0,3.29-1.73,3.77-3.2.18-.57.3-1.3.3-2.08v-15.91h5.43v18.14Z" style="fill: #e6e6e5;"/>
        <path d="m126.07,774.44l-.36-2.8h-.13c-1.28,2.02-3.42,3.33-6.03,3.33-4.14,0-6.62-3.55-6.62-7.66,0-6.55,4.98-9.69,12.26-9.68v-.5c0-1.99-.68-4.53-4.18-4.52-2.01,0-4.03.73-5.46,1.78l-1.07-4.12c1.51-1.07,4.24-2.16,7.52-2.16,6.74,0,8.62,5.02,8.62,10.63v9.6c0,2.24.09,4.48.33,6.11h-4.89Zm-.74-12.72c-3.36-.03-7.07.83-7.07,4.93,0,2.64,1.41,3.79,2.98,3.79,1.95,0,3.44-1.47,3.94-3.38.11-.44.15-.94.15-1.39v-3.95Z" style="fill: #e6e6e5;"/>
        <path d="m136.18,737.1h5.43v37.34h-5.43v-37.34Z" style="fill: #e6e6e5;"/>
        <path d="m153.04,741.56c.01,1.95-1.19,3.44-3.07,3.44-1.74,0-2.94-1.49-2.93-3.44-.01-1.99,1.24-3.45,3-3.45s2.99,1.45,3,3.45Zm-5.7,32.88v-25.8h5.43v25.8h-5.43Z" style="fill: #e6e6e5;"/>
        <path d="m164.68,741.4v7.25h5.06v4.63h-5.06v11.98c0,3.16.83,4.52,2.71,4.52.85,0,1.5-.11,1.99-.25l.11,4.8c-.82.34-2.18.6-3.84.6-1.93,0-3.56-.71-4.59-1.97-1.17-1.42-1.73-3.64-1.73-7.16v-12.52h-3.04v-4.63h3.04v-5.73l5.35-1.51Z" style="fill: #e6e6e5;"/>
        <path d="m177.39,748.64l3.58,13.9c.41,1.64.81,3.48,1.11,4.93h.12c.3-1.43.68-3.29,1.05-4.95l3.11-13.88h5.66l-5.17,17.85c-2.51,8.42-4.42,13.08-7.01,16.02-2.08,2.3-4.29,3.25-5.53,3.51l-1.37-5.3c.97-.35,2.12-1.04,3.2-2.04,1.01-.9,2.09-2.38,2.75-3.97.21-.47.33-.83.33-1.16,0-.29-.06-.66-.25-1.18l-7.52-23.74h5.93Z" style="fill: #e6e6e5;"/>
        <path d="m207.28,774.44l-6.97-35.72h5.74l2.66,16.03c.7,4.32,1.31,8.72,1.79,12.51h.11c.48-3.95,1.27-8.1,2.11-12.58l3.08-15.96h5.38l2.87,16.1c.71,4.18,1.36,8.18,1.8,12.34h.1c.51-4.23,1.17-8.24,1.88-12.51l2.85-15.93h5.47l-7.55,35.72h-5.72l-2.94-16.05c-.71-3.89-1.26-7.49-1.66-11.43h-.09c-.51,3.94-1.09,7.51-1.94,11.47l-3.28,16.01h-5.71Z" style="fill: #e6e6e5;"/>
        <path d="m257.36,761.35c0,9.76-5.43,13.63-10.45,13.63-5.84,0-10.22-4.89-10.22-13.28s4.57-13.59,10.54-13.59,10.14,5.21,10.14,13.24Zm-15.14.21c0,4.78,1.69,8.8,4.86,8.8,3,0,4.74-4.05,4.74-8.86,0-3.96-1.26-8.76-4.75-8.76s-4.86,4.68-4.86,8.82Z" style="fill: #e6e6e5;"/>
        <path d="m261.72,756.63c0-3.14-.08-5.72-.18-7.99h4.71l.22,4.6h.15c1.03-3.33,3.41-5.13,5.65-5.13.53,0,.84.03,1.24.13v6c-.43-.1-.87-.15-1.47-.15-2.39,0-4.21,1.88-4.72,4.78-.1.59-.16,1.33-.16,2.12v13.46h-5.43v-17.81Z" style="fill: #e6e6e5;"/>
        <path d="m282.33,760.04h.09c.5-1.09,1.06-2.17,1.58-3.1l4.89-8.3h6.34l-7.49,10.62,8.43,15.18h-6.49l-5.67-11.37-1.67,2.52v8.85h-5.42v-37.34h5.42v22.94Z" style="fill: #e6e6e5;"/>
      </g>
    </g>
    <g>
      <path d="m388.13,773.28c0-5,.39-12.63.6-17.63h-.42c-1.7,4.45-3.6,8.81-5.51,13.3l-8.84,17.18h36.49v13.89h-51.42v-12.6l24.58-47.33h19.07v78.71h-14.54v-45.52Z" style="fill: #dfe1df; stroke: #dfe1df; stroke-miterlimit: 10; stroke-width: 1.7px;"/>
      <path d="m420.32,804.09h14.72v-45.54h-12.61v-11.31c7.22-1.6,11.99-3.75,16.71-7.16h11.49v64.01h12.61v14.7h-42.92v-14.7Z" style="fill: #dfe1df; stroke: #dfe1df; stroke-miterlimit: 10; stroke-width: 1.7px;"/>
      <path d="m500.1,773.28c0-5,.39-12.63.6-17.63h-.42c-1.7,4.45-3.6,8.81-5.51,13.3l-8.84,17.18h36.49v13.89h-51.42v-12.6l24.58-47.33h19.07v78.71h-14.54v-45.52Z" style="fill: #dfe1df; stroke: #dfe1df; stroke-miterlimit: 10; stroke-width: 1.7px;"/>
      <path d="m529.51,780.97h26.05v12.91h-26.05v-12.91Z" style="fill: #dfe1df; stroke: #dfe1df; stroke-miterlimit: 10; stroke-width: 1.7px;"/>
      <path d="m589.58,773.28c0-5,.39-12.63.6-17.63h-.42c-1.7,4.45-3.6,8.81-5.51,13.3l-8.84,17.18h36.49v13.89h-51.42v-12.6l24.58-47.33h19.07v78.71h-14.54v-45.52Z" style="fill: #dfe1df; stroke: #dfe1df; stroke-miterlimit: 10; stroke-width: 1.7px;"/>
      <path d="m616.72,809.13l7.19-11.51c4.12,4.59,9.11,7.96,14.76,7.96,6.57,0,10.95-3.35,10.95-9.4,0-6.91-3.45-11.17-18.1-11.17v-12.91c12.1,0,15.9-4.3,15.9-10.54,0-5.54-3.02-8.67-8.31-8.67-4.79,0-8.42,2.54-12.58,6.88l-7.89-11.1c6.2-6.23,12.97-10.08,21.17-10.08,13.99,0,23.23,7.76,23.23,21.6,0,8.11-3.98,13.92-11.23,17.48v.5c7.78,2.6,13.42,9.01,13.42,19.19,0,14.66-11.49,22.92-25.04,22.92-10.9,0-18.54-4.52-23.48-11.16Z" style="fill: #dfe1df; stroke: #dfe1df; stroke-miterlimit: 10; stroke-width: 1.7px;"/>
      <path d="m672.7,809.13l7.19-11.51c4.12,4.59,9.11,7.96,14.75,7.96,6.57,0,10.95-3.35,10.95-9.4,0-6.91-3.45-11.17-18.1-11.17v-12.91c12.1,0,15.9-4.3,15.9-10.54,0-5.54-3.02-8.67-8.3-8.67-4.79,0-8.42,2.54-12.59,6.88l-7.89-11.1c6.2-6.23,12.98-10.08,21.17-10.08,13.99,0,23.23,7.76,23.23,21.6,0,8.11-3.98,13.92-11.23,17.48v.5c7.78,2.6,13.42,9.01,13.42,19.19,0,14.66-11.49,22.92-25.04,22.92-10.9,0-18.54-4.52-23.48-11.16Z" style="fill: #dfe1df; stroke: #dfe1df; stroke-miterlimit: 10; stroke-width: 1.7px;"/>
      <path d="m730.97,780.97h26.05v12.91h-26.05v-12.91Z" style="fill: #dfe1df; stroke: #dfe1df; stroke-miterlimit: 10; stroke-width: 1.7px;"/>
      <path d="m764.3,798.68c0-9.48,5.15-15.37,11.51-19.33v-.5c-5.23-4.54-9.06-10.28-9.06-18.5,0-13.4,9.03-21.74,21.54-21.74s20.47,8.52,20.47,21.6c0,7.5-4.19,13.59-8.79,17.21v.5c6.42,4.11,11.61,10.13,11.61,20.59,0,12.42-9.54,21.8-23.82,21.8-13.44,0-23.48-8.81-23.48-21.61Zm32.81-.8c0-6.97-5.75-9.59-14.21-13.73-2.97,3.12-5.16,7.61-5.16,12.49,0,6.9,4.71,10.99,10.39,10.99,5.11,0,8.98-3.19,8.98-9.75Zm-.99-36.45c0-6.11-3.03-10.16-8.17-10.16-4.13,0-7.49,3.02-7.49,9.08,0,6.38,4.69,9.46,11.54,12.65,2.66-3.66,4.13-7.45,4.13-11.57Z" style="fill: #dfe1df; stroke: #dfe1df; stroke-miterlimit: 10; stroke-width: 1.7px;"/>
      <path d="m820.28,798.68c0-9.48,5.15-15.37,11.51-19.33v-.5c-5.23-4.54-9.06-10.28-9.06-18.5,0-13.4,9.03-21.74,21.54-21.74s20.47,8.52,20.47,21.6c0,7.5-4.19,13.59-8.79,17.21v.5c6.42,4.11,11.61,10.13,11.61,20.59,0,12.42-9.54,21.8-23.82,21.8-13.44,0-23.48-8.81-23.48-21.61Zm32.81-.8c0-6.97-5.75-9.59-14.21-13.73-2.97,3.12-5.16,7.61-5.16,12.49,0,6.9,4.71,10.99,10.39,10.99,5.11,0,8.98-3.19,8.98-9.75Zm-.99-36.45c0-6.11-3.03-10.16-8.17-10.16-4.13,0-7.49,3.02-7.49,9.08,0,6.38,4.69,9.46,11.54,12.65,2.66-3.66,4.13-7.45,4.13-11.57Z" style="fill: #dfe1df; stroke: #dfe1df; stroke-miterlimit: 10; stroke-width: 1.7px;"/>
      <path d="m876.18,781.26c0-29.42,13.06-42.67,27.22-42.67,8.91,0,15.42,4.41,19.69,9.48l-8.24,10.9c-2.29-3.03-6.51-5.67-10.44-5.67-7.83,0-14,6.98-14,27.96,0,19.54,5.25,25.34,10.94,25.34,4.6,0,8.48-3.8,8.48-12.7,0-8.32-3.75-11.47-8.84-11.47-3.52,0-7.42,2.29-10.47,8.48l-.7-11.9c3.48-5.96,9.75-9.45,14.18-9.45,11.53,0,20.06,7.66,20.06,24.34s-10.19,26.38-22.39,26.38c-13.05,0-25.47-11.39-25.47-39.02Z" style="fill: #dfe1df; stroke: #dfe1df; stroke-miterlimit: 10; stroke-width: 1.7px;"/>
      <path d="m932.17,781.26c0-29.42,13.06-42.67,27.22-42.67,8.91,0,15.42,4.41,19.69,9.48l-8.24,10.9c-2.29-3.03-6.51-5.67-10.44-5.67-7.83,0-14,6.98-14,27.96,0,19.54,5.25,25.34,10.94,25.34,4.6,0,8.48-3.8,8.48-12.7,0-8.32-3.75-11.47-8.84-11.47-3.52,0-7.42,2.29-10.47,8.48l-.7-11.9c3.48-5.96,9.75-9.45,14.18-9.45,11.53,0,20.06,7.66,20.06,24.34s-10.19,26.38-22.39,26.38c-13.05,0-25.47-11.39-25.47-39.02Z" style="fill: #dfe1df; stroke: #dfe1df; stroke-miterlimit: 10; stroke-width: 1.7px;"/>
    </g>
    <polygon points="1305 867.11 9 864.5 9 .5 1305 .5 1305 867.11" style="fill: none; stroke: #221000; stroke-miterlimit: 10;"/>
  </g>
</svg>