<?xml version="1.0" encoding="UTF-8"?>
<svg id="Layer_2" data-name="Layer 2" xmlns="http://www.w3.org/2000/svg" xmlns:xlink="http://www.w3.org/1999/xlink" viewBox="0 0 360 277.74">
  <defs>
    <style>
      .cls-1 {
        fill: none;
      }

      .cls-2 {
        fill: #58b947;
      }

      .cls-3 {
        fill: #dfe1df;
      }

      .cls-4 {
        clip-path: url(#clippath-17);
      }

      .cls-5 {
        clip-path: url(#clippath-19);
      }

      .cls-6 {
        clip-path: url(#clippath-11);
      }

      .cls-7 {
        clip-path: url(#clippath-16);
      }

      .cls-8 {
        clip-path: url(#clippath-18);
      }

      .cls-9 {
        clip-path: url(#clippath-10);
      }

      .cls-10 {
        clip-path: url(#clippath-15);
      }

      .cls-11 {
        clip-path: url(#clippath-13);
      }

      .cls-12 {
        clip-path: url(#clippath-14);
      }

      .cls-13 {
        clip-path: url(#clippath-12);
      }

      .cls-14 {
        clip-path: url(#clippath-61);
      }

      .cls-15 {
        clip-path: url(#clippath-67);
      }

      .cls-16 {
        clip-path: url(#clippath-68);
      }

      .cls-17 {
        clip-path: url(#clippath-60);
      }

      .cls-18 {
        clip-path: url(#clippath-65);
      }

      .cls-19 {
        clip-path: url(#clippath-62);
      }

      .cls-20 {
        clip-path: url(#clippath-64);
      }

      .cls-21 {
        clip-path: url(#clippath-66);
      }

      .cls-22 {
        clip-path: url(#clippath-63);
      }

      .cls-23 {
        clip-path: url(#clippath-76);
      }

      .cls-24 {
        clip-path: url(#clippath-78);
      }

      .cls-25 {
        clip-path: url(#clippath-75);
      }

      .cls-26 {
        clip-path: url(#clippath-79);
      }

      .cls-27 {
        clip-path: url(#clippath-50);
      }

      .cls-28 {
        clip-path: url(#clippath-55);
      }

      .cls-29 {
        clip-path: url(#clippath-52);
      }

      .cls-30 {
        clip-path: url(#clippath-57);
      }

      .cls-31 {
        clip-path: url(#clippath-54);
      }

      .cls-32 {
        clip-path: url(#clippath-56);
      }

      .cls-33 {
        clip-path: url(#clippath-53);
      }

      .cls-34 {
        clip-path: url(#clippath-70);
      }

      .cls-35 {
        clip-path: url(#clippath-77);
      }

      .cls-36 {
        clip-path: url(#clippath-74);
      }

      .cls-37 {
        clip-path: url(#clippath-71);
      }

      .cls-38 {
        clip-path: url(#clippath-73);
      }

      .cls-39 {
        clip-path: url(#clippath-72);
      }

      .cls-40 {
        clip-path: url(#clippath-51);
      }

      .cls-41 {
        clip-path: url(#clippath-58);
      }

      .cls-42 {
        clip-path: url(#clippath-59);
      }

      .cls-43 {
        clip-path: url(#clippath-31);
      }

      .cls-44 {
        clip-path: url(#clippath-32);
      }

      .cls-45 {
        clip-path: url(#clippath-33);
      }

      .cls-46 {
        clip-path: url(#clippath-34);
      }

      .cls-47 {
        clip-path: url(#clippath-35);
      }

      .cls-48 {
        clip-path: url(#clippath-39);
      }

      .cls-49 {
        clip-path: url(#clippath-30);
      }

      .cls-50 {
        clip-path: url(#clippath-36);
      }

      .cls-51 {
        clip-path: url(#clippath-37);
      }

      .cls-52 {
        clip-path: url(#clippath-38);
      }

      .cls-53 {
        clip-path: url(#clippath-27);
      }

      .cls-54 {
        clip-path: url(#clippath-29);
      }

      .cls-55 {
        clip-path: url(#clippath-26);
      }

      .cls-56 {
        clip-path: url(#clippath-28);
      }

      .cls-57 {
        clip-path: url(#clippath-20);
      }

      .cls-58 {
        clip-path: url(#clippath-21);
      }

      .cls-59 {
        clip-path: url(#clippath-22);
      }

      .cls-60 {
        clip-path: url(#clippath-23);
      }

      .cls-61 {
        clip-path: url(#clippath-24);
      }

      .cls-62 {
        clip-path: url(#clippath-25);
      }

      .cls-63 {
        clip-path: url(#clippath-69);
      }

      .cls-64 {
        clip-path: url(#clippath-41);
      }

      .cls-65 {
        clip-path: url(#clippath-42);
      }

      .cls-66 {
        clip-path: url(#clippath-43);
      }

      .cls-67 {
        clip-path: url(#clippath-44);
      }

      .cls-68 {
        clip-path: url(#clippath-45);
      }

      .cls-69 {
        clip-path: url(#clippath-49);
      }

      .cls-70 {
        clip-path: url(#clippath-40);
      }

      .cls-71 {
        clip-path: url(#clippath-46);
      }

      .cls-72 {
        clip-path: url(#clippath-47);
      }

      .cls-73 {
        clip-path: url(#clippath-48);
      }

      .cls-74 {
        clip-path: url(#clippath-90);
      }

      .cls-75 {
        clip-path: url(#clippath-95);
      }

      .cls-76 {
        clip-path: url(#clippath-93);
      }

      .cls-77 {
        clip-path: url(#clippath-99);
      }

      .cls-78 {
        clip-path: url(#clippath-94);
      }

      .cls-79 {
        clip-path: url(#clippath-96);
      }

      .cls-80 {
        clip-path: url(#clippath-85);
      }

      .cls-81 {
        clip-path: url(#clippath-86);
      }

      .cls-82 {
        clip-path: url(#clippath-87);
      }

      .cls-83 {
        clip-path: url(#clippath-80);
      }

      .cls-84 {
        clip-path: url(#clippath-89);
      }

      .cls-85 {
        clip-path: url(#clippath-81);
      }

      .cls-86 {
        clip-path: url(#clippath-82);
      }

      .cls-87 {
        clip-path: url(#clippath-83);
      }

      .cls-88 {
        clip-path: url(#clippath-84);
      }

      .cls-89 {
        clip-path: url(#clippath-88);
      }

      .cls-90 {
        clip-path: url(#clippath-92);
      }

      .cls-91 {
        clip-path: url(#clippath-97);
      }

      .cls-92 {
        clip-path: url(#clippath-91);
      }

      .cls-93 {
        clip-path: url(#clippath-98);
      }

      .cls-94 {
        clip-path: url(#clippath-1);
      }

      .cls-95 {
        clip-path: url(#clippath-3);
      }

      .cls-96 {
        clip-path: url(#clippath-4);
      }

      .cls-97 {
        clip-path: url(#clippath-2);
      }

      .cls-98 {
        clip-path: url(#clippath-7);
      }

      .cls-99 {
        clip-path: url(#clippath-6);
      }

      .cls-100 {
        clip-path: url(#clippath-9);
      }

      .cls-101 {
        clip-path: url(#clippath-8);
      }

      .cls-102 {
        clip-path: url(#clippath-5);
      }

      .cls-103 {
        clip-path: url(#clippath-102);
      }

      .cls-104 {
        clip-path: url(#clippath-101);
      }

      .cls-105 {
        clip-path: url(#clippath-104);
      }

      .cls-106 {
        clip-path: url(#clippath-109);
      }

      .cls-107 {
        clip-path: url(#clippath-106);
      }

      .cls-108 {
        clip-path: url(#clippath-103);
      }

      .cls-109 {
        clip-path: url(#clippath-105);
      }

      .cls-110 {
        clip-path: url(#clippath-100);
      }

      .cls-111 {
        clip-path: url(#clippath-108);
      }

      .cls-112 {
        clip-path: url(#clippath-107);
      }

      .cls-113 {
        clip-path: url(#clippath-118);
      }

      .cls-114 {
        clip-path: url(#clippath-114);
      }

      .cls-115 {
        clip-path: url(#clippath-119);
      }

      .cls-116 {
        clip-path: url(#clippath-111);
      }

      .cls-117 {
        clip-path: url(#clippath-110);
      }

      .cls-118 {
        clip-path: url(#clippath-113);
      }

      .cls-119 {
        clip-path: url(#clippath-112);
      }

      .cls-120 {
        clip-path: url(#clippath-115);
      }

      .cls-121 {
        clip-path: url(#clippath-116);
      }

      .cls-122 {
        clip-path: url(#clippath-120);
      }

      .cls-123 {
        clip-path: url(#clippath-125);
      }

      .cls-124 {
        clip-path: url(#clippath-122);
      }

      .cls-125 {
        clip-path: url(#clippath-121);
      }

      .cls-126 {
        clip-path: url(#clippath-123);
      }

      .cls-127 {
        clip-path: url(#clippath-124);
      }

      .cls-128 {
        clip-path: url(#clippath-126);
      }

      .cls-129 {
        clip-path: url(#clippath-127);
      }

      .cls-130 {
        fill: #582700;
      }

      .cls-131 {
        clip-path: url(#clippath);
      }
    </style>
    <clipPath id="clippath">
      <rect class="cls-1" y="3.56" width="360" height="209.5"/>
    </clipPath>
    <clipPath id="clippath-1">
      <rect class="cls-1" x="24.3" y="10.66" width="316" height="174.3"/>
    </clipPath>
    <clipPath id="clippath-2">
      <rect class="cls-1" x="24.3" y="10.66" width="316" height="174.3"/>
    </clipPath>
    <clipPath id="clippath-3">
      <rect class="cls-1" x="24.3" y="10.66" width="316" height="174.3"/>
    </clipPath>
    <clipPath id="clippath-4">
      <rect class="cls-1" x="24.3" y="10.66" width="316" height="174.3"/>
    </clipPath>
    <clipPath id="clippath-5">
      <rect class="cls-1" x="24.3" y="10.66" width="316" height="174.3"/>
    </clipPath>
    <clipPath id="clippath-6">
      <rect class="cls-1" x="24.3" y="10.66" width="316" height="174.3"/>
    </clipPath>
    <clipPath id="clippath-7">
      <rect class="cls-1" x="24.3" y="10.66" width="316" height="174.3"/>
    </clipPath>
    <clipPath id="clippath-8">
      <rect class="cls-1" x="24.3" y="10.66" width="316" height="174.3"/>
    </clipPath>
    <clipPath id="clippath-9">
      <rect class="cls-1" x="24.3" y="10.66" width="316" height="174.3"/>
    </clipPath>
    <clipPath id="clippath-10">
      <rect class="cls-1" x="24.3" y="10.66" width="316" height="174.3"/>
    </clipPath>
    <clipPath id="clippath-11">
      <rect class="cls-1" x="24.3" y="10.66" width="316" height="174.3"/>
    </clipPath>
    <clipPath id="clippath-12">
      <rect class="cls-1" x="24.3" y="10.66" width="316" height="174.3"/>
    </clipPath>
    <clipPath id="clippath-13">
      <rect class="cls-1" x="24.3" y="10.66" width="316" height="174.3"/>
    </clipPath>
    <clipPath id="clippath-14">
      <rect class="cls-1" x="24.3" y="10.66" width="316" height="174.3"/>
    </clipPath>
    <clipPath id="clippath-15">
      <rect class="cls-1" x="24.3" y="10.66" width="316" height="174.3"/>
    </clipPath>
    <clipPath id="clippath-16">
      <rect class="cls-1" x="24.3" y="10.66" width="316" height="174.3"/>
    </clipPath>
    <clipPath id="clippath-17">
      <rect class="cls-1" x="24.3" y="10.66" width="316" height="174.3"/>
    </clipPath>
    <clipPath id="clippath-18">
      <rect class="cls-1" x="24.3" y="10.66" width="316" height="174.3"/>
    </clipPath>
    <clipPath id="clippath-19">
      <rect class="cls-1" x="24.3" y="10.66" width="316" height="174.3"/>
    </clipPath>
    <clipPath id="clippath-20">
      <rect class="cls-1" x="24.3" y="10.66" width="316" height="174.3"/>
    </clipPath>
    <clipPath id="clippath-21">
      <rect class="cls-1" x="24.3" y="10.66" width="316" height="174.3"/>
    </clipPath>
    <clipPath id="clippath-22">
      <rect class="cls-1" x="24.3" y="10.66" width="316" height="174.3"/>
    </clipPath>
    <clipPath id="clippath-23">
      <rect class="cls-1" x="24.3" y="10.66" width="316" height="174.3"/>
    </clipPath>
    <clipPath id="clippath-24">
      <rect class="cls-1" x="24.3" y="10.66" width="316" height="174.3"/>
    </clipPath>
    <clipPath id="clippath-25">
      <rect class="cls-1" x="24.3" y="10.66" width="316" height="174.3"/>
    </clipPath>
    <clipPath id="clippath-26">
      <rect class="cls-1" x="24.3" y="10.66" width="316" height="174.3"/>
    </clipPath>
    <clipPath id="clippath-27">
      <rect class="cls-1" x="24.3" y="10.66" width="316" height="174.3"/>
    </clipPath>
    <clipPath id="clippath-28">
      <rect class="cls-1" x="24.3" y="10.66" width="316" height="174.3"/>
    </clipPath>
    <clipPath id="clippath-29">
      <rect class="cls-1" x="24.3" y="10.66" width="316" height="174.3"/>
    </clipPath>
    <clipPath id="clippath-30">
      <rect class="cls-1" x="24.3" y="10.66" width="316" height="174.3"/>
    </clipPath>
    <clipPath id="clippath-31">
      <rect class="cls-1" x="24.3" y="10.66" width="316" height="174.3"/>
    </clipPath>
    <clipPath id="clippath-32">
      <rect class="cls-1" x="24.3" y="10.66" width="316" height="174.3"/>
    </clipPath>
    <clipPath id="clippath-33">
      <rect class="cls-1" x="24.3" y="10.66" width="316" height="174.3"/>
    </clipPath>
    <clipPath id="clippath-34">
      <rect class="cls-1" x="24.3" y="10.66" width="316" height="174.3"/>
    </clipPath>
    <clipPath id="clippath-35">
      <rect class="cls-1" x="24.3" y="10.66" width="316" height="174.3"/>
    </clipPath>
    <clipPath id="clippath-36">
      <rect class="cls-1" x="24.3" y="10.66" width="316" height="174.3"/>
    </clipPath>
    <clipPath id="clippath-37">
      <rect class="cls-1" x="24.3" y="10.66" width="316" height="174.3"/>
    </clipPath>
    <clipPath id="clippath-38">
      <rect class="cls-1" x="24.3" y="10.66" width="316" height="174.3"/>
    </clipPath>
    <clipPath id="clippath-39">
      <rect class="cls-1" x="24.3" y="10.66" width="316" height="174.3"/>
    </clipPath>
    <clipPath id="clippath-40">
      <rect class="cls-1" x="24.3" y="10.66" width="316" height="174.3"/>
    </clipPath>
    <clipPath id="clippath-41">
      <rect class="cls-1" x="24.3" y="10.66" width="316" height="174.3"/>
    </clipPath>
    <clipPath id="clippath-42">
      <rect class="cls-1" x="24.3" y="10.66" width="316" height="174.3"/>
    </clipPath>
    <clipPath id="clippath-43">
      <rect class="cls-1" x="24.3" y="10.66" width="316" height="174.3"/>
    </clipPath>
    <clipPath id="clippath-44">
      <rect class="cls-1" x="24.3" y="10.66" width="316" height="174.3"/>
    </clipPath>
    <clipPath id="clippath-45">
      <rect class="cls-1" x="24.3" y="10.66" width="316" height="174.3"/>
    </clipPath>
    <clipPath id="clippath-46">
      <rect class="cls-1" x="24.3" y="10.66" width="316" height="174.3"/>
    </clipPath>
    <clipPath id="clippath-47">
      <rect class="cls-1" x="24.3" y="10.66" width="316" height="174.3"/>
    </clipPath>
    <clipPath id="clippath-48">
      <rect class="cls-1" x="24.3" y="10.66" width="316" height="174.3"/>
    </clipPath>
    <clipPath id="clippath-49">
      <rect class="cls-1" x="24.3" y="10.66" width="316" height="174.3"/>
    </clipPath>
    <clipPath id="clippath-50">
      <rect class="cls-1" x="24.3" y="10.66" width="316" height="174.3"/>
    </clipPath>
    <clipPath id="clippath-51">
      <rect class="cls-1" x="24.3" y="10.66" width="316" height="174.3"/>
    </clipPath>
    <clipPath id="clippath-52">
      <rect class="cls-1" x="24.3" y="10.66" width="316" height="174.3"/>
    </clipPath>
    <clipPath id="clippath-53">
      <rect class="cls-1" x="24.3" y="10.66" width="316" height="174.3"/>
    </clipPath>
    <clipPath id="clippath-54">
      <rect class="cls-1" x="24.3" y="10.66" width="316" height="174.3"/>
    </clipPath>
    <clipPath id="clippath-55">
      <rect class="cls-1" x="24.3" y="10.66" width="316" height="174.3"/>
    </clipPath>
    <clipPath id="clippath-56">
      <rect class="cls-1" x="24.3" y="10.66" width="316" height="174.3"/>
    </clipPath>
    <clipPath id="clippath-57">
      <rect class="cls-1" x="24.3" y="10.66" width="316" height="174.3"/>
    </clipPath>
    <clipPath id="clippath-58">
      <rect class="cls-1" x="24.3" y="10.66" width="316" height="174.3"/>
    </clipPath>
    <clipPath id="clippath-59">
      <rect class="cls-1" x="24.3" y="10.66" width="316" height="174.3"/>
    </clipPath>
    <clipPath id="clippath-60">
      <rect class="cls-1" x="24.3" y="10.66" width="316" height="174.3"/>
    </clipPath>
    <clipPath id="clippath-61">
      <rect class="cls-1" x="24.3" y="10.66" width="316" height="174.3"/>
    </clipPath>
    <clipPath id="clippath-62">
      <rect class="cls-1" x="24.3" y="10.66" width="316" height="174.3"/>
    </clipPath>
    <clipPath id="clippath-63">
      <rect class="cls-1" x="24.3" y="10.66" width="316" height="174.3"/>
    </clipPath>
    <clipPath id="clippath-64">
      <rect class="cls-1" x="24.3" y="10.66" width="316" height="174.3"/>
    </clipPath>
    <clipPath id="clippath-65">
      <rect class="cls-1" x="24.3" y="10.66" width="316" height="174.3"/>
    </clipPath>
    <clipPath id="clippath-66">
      <rect class="cls-1" x="24.3" y="10.66" width="316" height="174.3"/>
    </clipPath>
    <clipPath id="clippath-67">
      <rect class="cls-1" x="24.3" y="10.66" width="316" height="174.3"/>
    </clipPath>
    <clipPath id="clippath-68">
      <rect class="cls-1" x="24.3" y="10.66" width="316" height="174.3"/>
    </clipPath>
    <clipPath id="clippath-69">
      <rect class="cls-1" x="24.3" y="10.66" width="316" height="174.3"/>
    </clipPath>
    <clipPath id="clippath-70">
      <rect class="cls-1" x="24.3" y="10.66" width="316" height="174.3"/>
    </clipPath>
    <clipPath id="clippath-71">
      <rect class="cls-1" x="24.3" y="10.66" width="316" height="174.3"/>
    </clipPath>
    <clipPath id="clippath-72">
      <rect class="cls-1" x="24.3" y="10.66" width="316" height="174.3"/>
    </clipPath>
    <clipPath id="clippath-73">
      <rect class="cls-1" x="24.3" y="10.66" width="316" height="174.3"/>
    </clipPath>
    <clipPath id="clippath-74">
      <rect class="cls-1" x="24.3" y="10.66" width="316" height="174.3"/>
    </clipPath>
    <clipPath id="clippath-75">
      <rect class="cls-1" x="24.3" y="10.66" width="316" height="174.3"/>
    </clipPath>
    <clipPath id="clippath-76">
      <rect class="cls-1" x="24.3" y="10.66" width="316" height="174.3"/>
    </clipPath>
    <clipPath id="clippath-77">
      <rect class="cls-1" x="24.3" y="10.66" width="316" height="174.3"/>
    </clipPath>
    <clipPath id="clippath-78">
      <rect class="cls-1" x="24.3" y="10.66" width="316" height="174.3"/>
    </clipPath>
    <clipPath id="clippath-79">
      <rect class="cls-1" x="24.3" y="10.66" width="316" height="174.3"/>
    </clipPath>
    <clipPath id="clippath-80">
      <rect class="cls-1" x="24.3" y="10.66" width="316" height="174.3"/>
    </clipPath>
    <clipPath id="clippath-81">
      <rect class="cls-1" x="24.3" y="10.66" width="316" height="174.3"/>
    </clipPath>
    <clipPath id="clippath-82">
      <rect class="cls-1" x="24.3" y="10.66" width="316" height="174.3"/>
    </clipPath>
    <clipPath id="clippath-83">
      <rect class="cls-1" x="24.3" y="10.66" width="316" height="174.3"/>
    </clipPath>
    <clipPath id="clippath-84">
      <rect class="cls-1" x="24.3" y="10.66" width="316" height="174.3"/>
    </clipPath>
    <clipPath id="clippath-85">
      <rect class="cls-1" x="24.3" y="10.66" width="316" height="174.3"/>
    </clipPath>
    <clipPath id="clippath-86">
      <rect class="cls-1" x="24.3" y="10.66" width="316" height="174.3"/>
    </clipPath>
    <clipPath id="clippath-87">
      <rect class="cls-1" x="24.3" y="10.66" width="316" height="174.3"/>
    </clipPath>
    <clipPath id="clippath-88">
      <rect class="cls-1" x="24.3" y="10.66" width="316" height="174.3"/>
    </clipPath>
    <clipPath id="clippath-89">
      <rect class="cls-1" x="24.3" y="10.66" width="316" height="174.3"/>
    </clipPath>
    <clipPath id="clippath-90">
      <rect class="cls-1" x="24.3" y="10.66" width="316" height="174.3"/>
    </clipPath>
    <clipPath id="clippath-91">
      <rect class="cls-1" x="24.3" y="10.66" width="316" height="174.3"/>
    </clipPath>
    <clipPath id="clippath-92">
      <rect class="cls-1" x="24.3" y="10.66" width="316" height="174.3"/>
    </clipPath>
    <clipPath id="clippath-93">
      <rect class="cls-1" x="24.3" y="10.66" width="316" height="174.3"/>
    </clipPath>
    <clipPath id="clippath-94">
      <rect class="cls-1" x="24.3" y="10.66" width="316" height="174.3"/>
    </clipPath>
    <clipPath id="clippath-95">
      <rect class="cls-1" x="24.3" y="10.66" width="316" height="174.3"/>
    </clipPath>
    <clipPath id="clippath-96">
      <rect class="cls-1" x="24.3" y="10.66" width="316" height="174.3"/>
    </clipPath>
    <clipPath id="clippath-97">
      <rect class="cls-1" x="24.3" y="10.66" width="316" height="174.3"/>
    </clipPath>
    <clipPath id="clippath-98">
      <rect class="cls-1" x="24.3" y="10.66" width="316" height="174.3"/>
    </clipPath>
    <clipPath id="clippath-99">
      <rect class="cls-1" x="24.3" y="10.66" width="316" height="174.3"/>
    </clipPath>
    <clipPath id="clippath-100">
      <rect class="cls-1" x="24.3" y="10.66" width="316" height="174.3"/>
    </clipPath>
    <clipPath id="clippath-101">
      <rect class="cls-1" x="24.3" y="10.66" width="316" height="174.3"/>
    </clipPath>
    <clipPath id="clippath-102">
      <rect class="cls-1" x="24.3" y="10.66" width="316" height="174.3"/>
    </clipPath>
    <clipPath id="clippath-103">
      <rect class="cls-1" x="24.3" y="10.66" width="316" height="174.3"/>
    </clipPath>
    <clipPath id="clippath-104">
      <rect class="cls-1" x="24.3" y="10.66" width="316" height="174.3"/>
    </clipPath>
    <clipPath id="clippath-105">
      <rect class="cls-1" x="24.3" y="10.66" width="316" height="174.3"/>
    </clipPath>
    <clipPath id="clippath-106">
      <rect class="cls-1" x="24.3" y="10.66" width="316" height="174.3"/>
    </clipPath>
    <clipPath id="clippath-107">
      <rect class="cls-1" x="24.3" y="10.66" width="316" height="174.3"/>
    </clipPath>
    <clipPath id="clippath-108">
      <rect class="cls-1" x="24.3" y="10.66" width="316" height="174.3"/>
    </clipPath>
    <clipPath id="clippath-109">
      <rect class="cls-1" x="24.3" y="10.66" width="316" height="174.3"/>
    </clipPath>
    <clipPath id="clippath-110">
      <rect class="cls-1" x="24.3" y="10.66" width="316" height="174.3"/>
    </clipPath>
    <clipPath id="clippath-111">
      <rect class="cls-1" x="24.3" y="10.66" width="316" height="174.3"/>
    </clipPath>
    <clipPath id="clippath-112">
      <rect class="cls-1" x="24.3" y="10.66" width="316" height="174.3"/>
    </clipPath>
    <clipPath id="clippath-113">
      <rect class="cls-1" x="17.7" y="210.06" width="329.3" height="56.8"/>
    </clipPath>
    <clipPath id="clippath-114">
      <rect class="cls-1" x="17.7" y="210.06" width="329.3" height="56.8"/>
    </clipPath>
    <clipPath id="clippath-115">
      <rect class="cls-1" x="17.7" y="210.06" width="329.3" height="56.8"/>
    </clipPath>
    <clipPath id="clippath-116">
      <rect class="cls-1" x="17.7" y="210.06" width="329.3" height="56.8"/>
    </clipPath>
    <clipPath id="clippath-118">
      <rect class="cls-1" x="17.7" y="210.06" width="329.3" height="56.8"/>
    </clipPath>
    <clipPath id="clippath-119">
      <rect class="cls-1" x="17.7" y="210.06" width="329.3" height="56.8"/>
    </clipPath>
    <clipPath id="clippath-120">
      <rect class="cls-1" x="17.7" y="210.06" width="329.3" height="56.8"/>
    </clipPath>
    <clipPath id="clippath-121">
      <rect class="cls-1" x="17.7" y="210.06" width="329.3" height="56.8"/>
    </clipPath>
    <clipPath id="clippath-122">
      <rect class="cls-1" x="17.7" y="210.06" width="329.3" height="56.8"/>
    </clipPath>
    <clipPath id="clippath-123">
      <rect class="cls-1" x="17.7" y="210.06" width="329.3" height="56.8"/>
    </clipPath>
    <clipPath id="clippath-124">
      <rect class="cls-1" x="17.7" y="210.06" width="329.3" height="56.8"/>
    </clipPath>
    <clipPath id="clippath-125">
      <rect class="cls-1" x="17.7" y="210.06" width="329.3" height="56.8"/>
    </clipPath>
    <clipPath id="clippath-126">
      <rect class="cls-1" x="17.7" y="210.06" width="329.3" height="56.8"/>
    </clipPath>
    <clipPath id="clippath-127">
      <rect class="cls-1" x="17.7" y="210.06" width="329.3" height="56.8"/>
    </clipPath>
  </defs>
  <g id="Layer_2-2" data-name="Layer 2">
    <rect class="cls-3" width="360" height="277.74"/>
  </g>
  <g id="Layer_1-2" data-name="Layer 1">
    <g>
      <g class="cls-131">
        <path id="flat_bottom_ground" data-name="flat bottom ground" class="cls-130" d="M-82.5,190.96c34.3-5.3,107.1-9.4,233.4-12.2,202.2-4.5,363.1,32.5,500.7,32.2,64.4-.1,174.2-14.8,205.8-23.2v56.5H-82.5c0,.1,0-44.3,0-53.3Z"/>
      </g>
      <g>
        <g>
          <g class="cls-94">
            <path class="cls-130" d="M193,74.56c.7-1.7,1.8-4,3.7-6.5,3-4,7.3-9.7,20.2-12.8,14-3.4,23.2-5.8,37.2-9,3.1-.7,5.4-1.3,7.5-1.9,3.1.8,12.1-.1,18.7,2.8,3.6,1.5,11.5,5.1,12.3,4,1.9-2.6-14.3-9.8-23-9.9l.2-.1c1.2-.6,2.2-1.2,3.6-1.8,6.5-3.2,11-11.8,0-6.5-1.3.7-9.2,3.8-13.3,4.9-9.4,2.6-17.1,3.9-25,5.6-1.2-.6.9-3.4,2-4.6,7.6-7.6,3.1-9.6-4.5-.4-1.8,2.1-2.6,4.7-3.8,6-4.5.9-7.9,2-13,3.4-1.2.4-2.2.6-3.3.9-1.7-4,13.5-14.4,9.9-18-1.1-1.1-5.7,4.1-7.3,5.9-2.8,3.2-4.7,4.3-7.1,7.6-1.8,2.5-2.5,4.7-5.3,8.1-8.3,3.8-12.6,8.1-15.3,12.9-4.9-7.9-3.6-11.4.4-17.3,7.9-11.8,1.4-10.9-6.6-.1-3.3,4.4-3.4,9.6-1.2,18.9.2.9-1.4,3.6-4.5,5.1-1.2.6-4,1.8-5.4,2.4-3.8,1.7-5,5.8,6.3,2,3.1-.9,4.4-3.7,6.6-3.2v-1.2c.4.6.8,2.2,1.2,2.8-.4,1.4-.7,1.7-1.1,3.2-.9,4-1.9,8.4-5.4,17.2-4.7-5.1-10.3-9.5-16.2-13.3-.5-1.5.2-5.6.8-8.4,1.3-1.5,5.6,0,10.7-4.5,2.7-1.7,6-8.5,2.2-6,0,0-3.8,2.4-5.3,3.6-1.8,1.4-4.4,2.8-5.7,2.2h0c2.5-4,6.4-8.3,6.7-14,1.1-22.1-3.2-29.6-5-.9-.2,3.1-1.1,4.7-2.2,6.4h0c-5.2-3.2-7.7-5.2-9.7-5.9-9-3.7-14-3.6-11.5-.9,2.6,2.6,4.9,2.2,12.8,7.1,1.3.8,3.1,1.7,3.6,4-2,2-4.3,5.8-4.5,8.3-4.5-10.5-11.1-12.9-18.6-15.9-.2-6.9-.1-6.6,1.2-10.3,3-8.8,5.3-11.7,4-11.6-3.7.4-6.2,9.2-7.5,12.1,0,.1-.1.2-.1.4-3.9-.7-19.7-16.3-18.6-11.6,1.5,6.9,16.5,14.2,15.9,17.1h0c-.4.7-.6,1.1-1.1,2-4.4-1.2-8.9-1.9-13.5-2.6-4.3-.4-8.3-.5-12.1-.2-2.7-7.3-8.6-9.8-11.6-11-2.6-1.1-9.6-2.5-9.5-1.4.2,2.4,17.6,7.7,14.6,12.9-3.7.4-7,.7-9.9,1.1-3.1.4-8.4.4-11.8-.8-6-2-7.7-1.7-5.7,2,3.9,7,33.6,2.2,46.1,5.1,9.2,2.1,19.7,7.9,24.3,12.3-13.5-4.6-27.2-6.5-37.9-5.7-5.7.5-14.8,3.4-22.3,5.7-1.5-2.6,1.7-4.7,2.2-5.8,1.7-3,1.5-4,1.7-4.5.4-3.8-3.3.6-4.5,2.5-1.5,2.5-2.2,3.4-5.1,5.9-2.4-1.5-11.2-1.1-16.2-8.3-.7-.9-4.3-5.9-5.4-5.2-1.7.7,1.9,7.9,2.7,9.2,1.1,1.7,4.5,5.6,7.3,6.5,1.7.6,5.3.8,7.3,2.4-6.3,1.3-11.8,2-19.7,2.4-6.9-.1-8.5,4.1-1.5,6,12.8,2.1,23.2.9,34.6-1.2-2.1,4-2.1,4.1-5.4,7.3-.7.6-1.4,1.2-2.1,1.8h0c-7.3-5.1-21.7,5.2-30.2-.1-10.9-6.9-1.8,4.5,3.8,5.1,9.9,1.2,17.1-3.1,19.7.7-2.6,2.1-5.4,4-8.8,6.9-6.9,6.2-16.2,16.6-14.4,17.3,2.4.9,23.3-16.2,29.5-20.7,6.5-4.7,5.8-5,12.1-9.7,3.9-3,7.8-6.2,15.2-12.1h0c4.1-.2,8.4,0,12.7.6.1.6-1.1,2.1-1.5,2.7-1.3,1.3-5.9,3.8-7.5,4.5-16,7.3-14.3,10.7-1.1,6.2,12.6-4.3,12.6-5.3,21-11.5,3.1.7,6,1.5,8.6,2.5,13.9,4.6,25.8,19.2,30,31.7,5.7,16.8,7.8,32.1,5.9,47.4-1.5,7.6-4,15.3-7.2,22.5,8.5.1,32.8,0,41.4.1-9.2-22.1-14.1-46.7-3.6-68.1,6.9-12.6,21.4-22.6,33.9-27.6,2.4-.8,4.6-1.7,6.7-2.5,10.8-.1,19.3-4.9,32.1.8,5.7,2.7,7.5-.6.8-4.4-5.1-2.8-11.4-2.5-16.9-2.6,4.6-1.7,9.1-3,13.9-3.9h0c9.6.8,6.5,2.5,11.7,6.7.1.8,0,4.5,0,7.7-.1,6,3.9,9,4,4,0-2.8-.6-8.2-.1-8.8.7.4,1.3.7,2,1.2,1.4.7,3,1.5,4.7,2.1,2,1.3,1.2,9.5,8.5,15.4,14.1,11.4,22.5,6.9,7.3-.7-5.9-3-8.5-10.4-8.6-12.1,5.6,1.9,11.4,3.9,14.3,5.2,9,4.3,14.7,1.1.9-5.3-15.4-7-27.8-11.7-30.8-16.7,7.7.8,12.1.5,20.5,3.1,13.9,4.3,23.2.2,3.8-6.2-28.5-9.5-43.2-6-75.7,4.3-5.3,1.7-14.2,7-19.3,9.4-1.8-4.1,22.4-13.6,31.1-16.7,7.9-2.7,21.6-4.7,30.4-9.2h0c2.5-.2,2.6.7,6.6,1.1,5.1.4,5.7.4,12-.5,9.6-.8,13.7-6.2-1.3-4.1-4.4.6-12.2.8-11.1-.1,11.7-9.6-6.2-5.2-30.1,3.9h0c0-3,3.6-4.1,9.7-7.6,7.3-4,4.7-9.5-11.2,1.7-3.6,2.5-4.5,6.4-5.6,7.9-1.1.2-2,.5-3,.7-8.8,1.9-17.8,5.2-25.1,9.9-.6-1.4-.6-4.3.6-6.7,1.7-3.2,4-3.6,7-6.6,6.9-7-3.8-2.2-8.1,1.9-3.2,3.1-3.7,6-4.5,8.3-2-.6-3.6-3-5.6-4.6-2-1.7-5.9-1.1-.7,4.3,2.8,2.8,3.8,5.1,4.1,6.7-.1.6.1,1.3,0,2-3.4,3.2-6.3,7-8.1,11.2h0c-3-3.1-5.7-8.7-9.6-15.3h0c-1.7,3.8-2,6-2.6,8.5,2.1,5.8,5,13.4,5,13.4l-3.6,2.4s-4.1-4-1.3-15.6c.3-2,1-5.1,2.5-8.7"/>
          </g>
          <g class="cls-97">
            <path class="cls-130" d="M231.5,155.06c0-4.6.5-8.8,1.3-12.4.8-3.7,2-6.7,3.6-9.4,1.5-2.6,3.2-4.5,5.1-5.9,1.9-1.4,3.9-2,5.9-2,2.4,0,4.4.7,6.3,2,1.8,1.3,3.3,3.3,4.5,5.7,1.2,2.5,2.1,5.3,2.7,8.6s.9,6.9.9,10.8c0,1.5,0,3-.1,4.1-.1,1.3-.1,2.2-.2,3h-20.6c.5,4.4,1.5,7.5,3.1,9.5,1.7,1.9,3.6,3,5.8,3,1.4,0,2.7-.4,4-.9,1.3-.7,2.6-1.7,3.9-3l3,10.1c-1.8,2-3.7,3.7-5.8,4.9-2.1,1.2-4.3,1.8-6.3,1.8-2.4,0-4.6-.7-6.6-2s-3.9-3.3-5.3-5.8c-1.5-2.6-2.7-5.7-3.7-9.4-1.2-3.8-1.5-8-1.5-12.7M253.6,149.26c0-3.3-.5-5.9-1.4-8.1-.9-2-2.5-3.1-4.6-3.1-1.7,0-3.1.9-4.4,2.7-1.3,1.8-2.1,4.6-2.5,8.4h12.9v.1Z"/>
          </g>
          <g class="cls-95">
            <path class="cls-130" d="M263.8,155.06c0-4.6.5-8.8,1.3-12.4.8-3.7,2-6.7,3.6-9.4s3.2-4.5,5.1-5.9,3.9-2,5.9-2c2.4,0,4.4.7,6.3,2,1.8,1.3,3.3,3.3,4.5,5.7,1.2,2.5,2.1,5.3,2.7,8.6s.9,6.9.9,10.8c0,1.5,0,3-.1,4.1-.1,1.3-.1,2.2-.2,3h-20.6c.5,4.4,1.5,7.5,3.1,9.5,1.7,1.9,3.6,3,5.8,3,1.4,0,2.7-.4,4-.9,1.3-.7,2.6-1.7,3.9-3l3,10.1c-1.8,2-3.7,3.7-5.8,4.9s-4.3,1.8-6.3,1.8c-2.4,0-4.6-.7-6.6-2s-3.9-3.3-5.3-5.8c-1.5-2.6-2.7-5.7-3.7-9.4-1.2-3.8-1.5-8-1.5-12.7M285.9,149.26c0-3.3-.5-5.9-1.4-8.1-.9-2-2.5-3.1-4.6-3.1-1.7,0-3.1.9-4.4,2.7s-2.1,4.6-2.5,8.4h12.9v.1Z"/>
          </g>
          <g class="cls-96">
            <path class="cls-130" d="M300,165.56c1.8,2,3.6,3.7,5.3,4.9s3.7,1.8,5.8,1.8,3.6-.4,4.5-1.3c.9-.8,1.3-2,1.3-3.6,0-1.8-.7-3.2-2.2-4.3s-3.6-2.2-5.9-3.6c-1.3-.7-2.7-1.5-4-2.5-1.3-.9-2.5-2.1-3.6-3.4-1.1-1.3-1.9-2.8-2.5-4.6s-.9-3.8-.9-6c0-2.6.4-5,.9-7.2.7-2.2,1.7-4,2.8-5.6,1.2-1.5,2.7-2.7,4.5-3.6,1.8-.8,3.7-1.3,5.9-1.3,2.7,0,5.2.8,7.5,2.5,2.2,1.7,4.1,3.4,5.8,5.3l-4,10.1c-1.4-1.5-2.8-2.8-4.3-3.8-1.5-1.1-3.1-1.5-4.6-1.5-1.9,0-3.3.4-4.1,1.2-.8.7-1.2,1.9-1.2,3.3,0,.8.2,1.7.6,2.2.4.7.9,1.3,1.7,1.8.7.6,1.5,1.1,2.5,1.5.9.5,2,1.1,3.1,1.5,1.5.7,3,1.7,4.3,2.6,1.3.9,2.6,2.1,3.6,3.4,1.1,1.3,1.9,2.8,2.5,4.7.6,1.8.9,3.9.9,6.4s-.4,5-.9,7.2c-.7,2.2-1.7,4.1-2.8,5.8-1.3,1.7-2.8,3-4.7,3.9-1.9.9-4,1.4-6.5,1.4-2.7,0-5.4-.8-8.1-2.5-2.6-1.7-5-3.8-6.9-6.2l3.7-10.5Z"/>
          </g>
          <g class="cls-102">
            <path class="cls-130" d="M206.1,128.16h7.5l.7,12.3h.2c1.5-4.6,3.3-8.1,5.6-10.3,2.1-2.2,4.5-3.4,6.9-3.4,1.3,0,2.5.2,3.3.6.8.4,1.8.9,2.6,1.8l-1.9,14.1c-.9-.6-1.8-.9-2.6-1.2-.7-.2-1.8-.4-2.8-.4-1.9,0-3.8,1.1-5.6,3.1-1.9,2-3.4,5.7-4.7,10.8v29.5h-9.1l-.1-56.9h0Z"/>
          </g>
          <g class="cls-99">
            <path class="cls-2" d="M55.8,184.96c-.5-.1-.9-.4-1.4-.6-2.4-1.1-4.3-2.7-5.8-4.7s-2.7-4.5-3.4-7.3-1.1-6.2-1.1-9.7v-35.4h13.3v37.2c0,2.5.4,4.5,1.2,6.2s2.2,2.4,4.4,2.4,3.7-.8,4.5-2.4c.8-1.7,1.2-3.7,1.2-6.2v-37.2h12.8v35.4c0,3.7-.4,6.9-1.1,9.7s-1.8,5.3-3.2,7.3c-1.5,2-3.4,3.7-5.7,4.7-.5.2-.8.4-1.3.6h-14.4Z"/>
          </g>
          <g class="cls-98">
            <path class="cls-2" d="M84.4,127.16h13.4l8.4,25.8,4,12.9h.4c-.1-1.5-.4-3.2-.6-5.1s-.4-3.7-.6-5.7c-.2-1.9-.4-3.9-.5-5.8-.1-1.9-.2-3.8-.2-5.6v-16.7h12.6v57.9h-13.3l-8.4-25.9-4-12.9h-.4c.4,3.3.7,6.9,1.2,10.9.5,3.9.7,7.7.7,11.2v16.7h-12.7v-57.7h0Z"/>
          </g>
          <g class="cls-101">
            <path class="cls-2" d="M125.8,127.16h16.5c2.6,0,5.1.2,7.3.7s4.3,1.2,5.9,2.2c1.7,1.1,3,2.5,4,4.4.9,1.9,1.4,4.3,1.4,7.1,0,1.2-.1,2.5-.5,3.8s-.8,2.5-1.5,3.7-1.5,2.1-2.6,3.1c-1.1.9-2.4,1.5-3.8,2v.4c3.6.8,6.2,2.4,7.9,4.5,1.8,2.1,2.6,5.2,2.6,9,0,3-.5,5.6-1.5,7.7-.9,2.1-2.4,3.9-4.1,5.3s-3.8,2.4-6.2,3.1c-2.4.7-4.9.9-7.6.9h-17.9v-57.9h.1ZM141.9,149.96c2.1,0,3.7-.6,4.7-1.7.9-1.1,1.4-2.6,1.4-4.4s-.5-3.1-1.4-3.8c-.9-.8-2.5-1.2-4.7-1.2h-3v11l3,.1h0ZM142.9,173.26c2.6,0,4.5-.6,5.7-1.7s1.8-2.7,1.8-4.9-.6-3.7-1.8-4.6c-1.2-.9-3.1-1.4-5.7-1.4h-3.8v12.7h3.8v-.1Z"/>
          </g>
          <g class="cls-100">
            <path class="cls-2" d="M163.2,56.86s12.1,8.3,5.4,12.7c-6.9,2.6-5.4-12.7-5.4-12.7"/>
          </g>
          <g class="cls-9">
            <path class="cls-2" d="M105.3,67.36c-9.9,1.1-9-17.1-9-17.1,0,0,18.6,7.9,9,17.1"/>
          </g>
          <g class="cls-6">
            <path class="cls-2" d="M91.2,79.96s4.7,14.6,13.6,9.1c3.9-11.6-13.6-9.1-13.6-9.1"/>
          </g>
          <g class="cls-13">
            <path class="cls-2" d="M134.4,20.76s9.7,10.8,3.2,16.7c-12.7-1.7-3.2-16.7-3.2-16.7"/>
          </g>
          <g class="cls-11">
            <path class="cls-2" d="M103,30.56s1.3,17.6-6.9,14.4c-4.9-8.2,6.9-14.4,6.9-14.4"/>
          </g>
          <g class="cls-12">
            <path class="cls-2" d="M209.3,73.66s-16.2-3.4-14.1,7.9c8.1,4.7,14.1-7.9,14.1-7.9"/>
          </g>
          <g class="cls-10">
            <path class="cls-2" d="M199,61.16s-15.2-3.9-13.6,4.3c5.4,7,13.6-4.3,13.6-4.3"/>
          </g>
          <g class="cls-7">
            <path class="cls-2" d="M313,49.36s-5,11.2-11.2,8.1c-5.9-6.7,11.2-8.1,11.2-8.1"/>
          </g>
          <g class="cls-4">
            <path class="cls-2" d="M275.3,63.66s-16.3-4.5-11.1-12.8c8.7-4.2,11.1,12.8,11.1,12.8"/>
          </g>
          <g class="cls-8">
            <path class="cls-2" d="M311.5,54.86s-11.8,12.4-.7,18.6c10.2-2,.7-18.6.7-18.6"/>
          </g>
          <g class="cls-5">
            <path class="cls-2" d="M155.8,74.66s10.3-5.7,12.9,1.9c-3.7,6.7-12.9-1.9-12.9-1.9"/>
          </g>
          <g class="cls-57">
            <path class="cls-2" d="M212.1,70.56s1.1,14.9,11.1,12.1c7.5-9.2-11.1-12.1-11.1-12.1"/>
          </g>
          <g class="cls-58">
            <path class="cls-2" d="M289.9,62.46s1.4-11.1-4.7-10.1c-5.8,4.2,4.7,10.1,4.7,10.1"/>
          </g>
          <g class="cls-59">
            <path class="cls-2" d="M283,57.66s4.3,9.7-1.9,10.7c-7.5-2,1.9-10.7,1.9-10.7"/>
          </g>
          <g class="cls-60">
            <path class="cls-2" d="M122,41.96s12-10.1,14.6-1.5c-1.3,8.6-14.6,1.5-14.6,1.5"/>
          </g>
          <g class="cls-61">
            <path class="cls-2" d="M334.1,111.46s-2.1-14.1-12-12.9c-8.2,8.6,12,12.9,12,12.9"/>
          </g>
          <g class="cls-62">
            <path class="cls-2" d="M122.3,53.06s-15.5,3.9-10.9,13.6c11.1,2.2,10.9-13.6,10.9-13.6"/>
          </g>
          <g class="cls-55">
            <path class="cls-2" d="M231.9,71.66s-15.3,1.1-13-8.6c6.9-6.8,13,8.6,13,8.6"/>
          </g>
          <g class="cls-53">
            <path class="cls-2" d="M51.3,95.66s11.4-2.8,9.8-12.1c-10.1-5.7-9.8,12.1-9.8,12.1"/>
          </g>
          <g class="cls-56">
            <path class="cls-2" d="M183.8,48.96s13,2.4,10.9,8.9c-10.1,6.5-10.9-8.9-10.9-8.9"/>
          </g>
          <g class="cls-54">
            <path class="cls-2" d="M249.4,20.36s19.9,9.7,13.3,19.8c-16.3,4-13.3-19.8-13.3-19.8"/>
          </g>
          <g class="cls-49">
            <path class="cls-2" d="M77.9,113.86s-16.7,3-16-6.2c6.7-7.3,16,6.2,16,6.2"/>
          </g>
          <g class="cls-43">
            <path class="cls-2" d="M195.3,27.16s18-.2,17.1,14.1c-13.3,8.7-17.1-14.1-17.1-14.1"/>
          </g>
          <g class="cls-44">
            <path class="cls-2" d="M240.1,47.16s-15,.9-15,10.1c6.4,8.1,15-10.1,15-10.1"/>
          </g>
          <g class="cls-45">
            <path class="cls-2" d="M236.2,45.06s-10.8-14.4-18.8-7.7c-4.8,11,18.8,7.7,18.8,7.7"/>
          </g>
          <g class="cls-46">
            <path class="cls-2" d="M289.7,118.76s-6.2-21.7,8.9-21.3c10.8,8.2-8.9,21.3-8.9,21.3"/>
          </g>
          <g class="cls-47">
            <path class="cls-2" d="M212.5,44.36s17.5,6,9.6,14.9c-9.2,3.9-9.6-14.9-9.6-14.9"/>
          </g>
          <g class="cls-50">
            <path class="cls-2" d="M237.1,19.66s-3.1,20.6-15.3,12.6c-4.3-9,15.3-12.6,15.3-12.6"/>
          </g>
          <g class="cls-51">
            <path class="cls-2" d="M166.1,51.86s11.6-7,14.4-.9c-.6,9.9-14.4.9-14.4.9"/>
          </g>
          <g class="cls-52">
            <path class="cls-2" d="M176.9,90.26s3.7-16.1-5.9-14.2c-8.7,5.4,5.9,14.2,5.9,14.2"/>
          </g>
          <g class="cls-48">
            <path class="cls-2" d="M337.4,119.56s-14-17.9-21.3-9c-3.2,14,21.3,9,21.3,9"/>
          </g>
          <g class="cls-70">
            <path class="cls-2" d="M302.9,88.06s-16.7-3.9-16.7,6c6.8,8.3,16.7-6,16.7-6"/>
          </g>
          <g class="cls-64">
            <path class="cls-2" d="M93.7,25.36s5.3,12.7-3.7,15.7c-7.9-4.6,3.7-15.7,3.7-15.7"/>
          </g>
          <g class="cls-65">
            <path class="cls-2" d="M65.8,86.26s9.9,10.7,17.3,2.8c1-11.3-17.3-2.8-17.3-2.8"/>
          </g>
          <g class="cls-66">
            <path class="cls-2" d="M186,77.46s-17.6-.4-14.3-8.8c8.1-7.3,14.3,8.8,14.3,8.8"/>
          </g>
          <g class="cls-67">
            <path class="cls-2" d="M262,54.86s5,13.1-7,16.5c-10.4-6.9,7-16.5,7-16.5"/>
          </g>
          <g class="cls-68">
            <path class="cls-2" d="M26.5,82.66s17.6,7.6,18.2-3c-7.4-10.5-18.2,3-18.2,3"/>
          </g>
          <g class="cls-71">
            <path class="cls-2" d="M209,52.36s5.6,11.4-2,13.4c-8.3-3.8,2-13.4,2-13.4"/>
          </g>
          <g class="cls-72">
            <path class="cls-2" d="M331.7,61.16s-20.6,5.1-16.1,14c11.4,6.3,16.1-14,16.1-14"/>
          </g>
          <g class="cls-73">
            <path class="cls-2" d="M47.3,68.16s11.8-5.9,15.5,1.5c-2.9,10.3-15.5-1.5-15.5-1.5"/>
          </g>
          <g class="cls-69">
            <path class="cls-2" d="M210.8,14.96s-6,21.8,6.2,20.7c10.4-6.3-6.2-20.7-6.2-20.7"/>
          </g>
          <g class="cls-27">
            <path class="cls-2" d="M186.5,42.76s-12.3,9.8-18.1,2.5c1.6-11.8,18.1-2.5,18.1-2.5"/>
          </g>
          <g class="cls-40">
            <path class="cls-2" d="M109.4,41.36s-12.8,2.8-8.1,8.4c7,3.8,8.1-8.4,8.1-8.4"/>
          </g>
          <g class="cls-29">
            <path class="cls-2" d="M186.6,20.86s11.5,14,2.2,20.8c-12.5.5-2.2-20.8-2.2-20.8"/>
          </g>
          <g class="cls-33">
            <path class="cls-2" d="M155.8,30.96s14.7,3.2,10.9,14.1c-14.9,2-10.9-14.1-10.9-14.1"/>
          </g>
          <g class="cls-31">
            <path class="cls-2" d="M49.1,96.66s13.6,0,13.4,8.8c-8.1,7.1-13.4-8.8-13.4-8.8"/>
          </g>
          <g class="cls-28">
            <path class="cls-2" d="M101.3,23.26s4,18.6,14.1,12.7c8.9-9.8-14.1-12.7-14.1-12.7"/>
          </g>
          <g class="cls-32">
            <path class="cls-2" d="M302.9,69.86s2.4-12.2-4.7-10.8c-7.1,4.6,4.7,10.8,4.7,10.8"/>
          </g>
          <g class="cls-30">
            <path class="cls-2" d="M75.9,50.36s10.1,9.7,3.8,13.7c-8.8.5-3.8-13.7-3.8-13.7"/>
          </g>
          <g class="cls-41">
            <path class="cls-2" d="M52.3,81.66s-9.7,2.2-8.4,9.2c7.4,4.8,8.4-9.2,8.4-9.2"/>
          </g>
          <g class="cls-42">
            <path class="cls-2" d="M47.7,115.26c9.5,7.3-8.6,19.8-8.6,19.8,0,0-4.2-21.4,8.6-19.8"/>
          </g>
          <g class="cls-17">
            <path class="cls-2" d="M209.5,49.26s-20.5,7.6-22.1-4.5c5.6-11.7,22.1,4.5,22.1,4.5"/>
          </g>
          <g class="cls-14">
            <path class="cls-2" d="M154.2,39.36s.6,12.2-8.3,13.7c-9.8-7,8.3-13.7,8.3-13.7"/>
          </g>
          <g class="cls-19">
            <path class="cls-2" d="M241.9,46.06s17.1,10.9,7.3,16.9c-9.7,2.1-7.3-16.9-7.3-16.9"/>
          </g>
          <g class="cls-22">
            <path class="cls-2" d="M98.5,65.86s-9-12.3-16-4.3c-.7,10.9,16,4.3,16,4.3"/>
          </g>
          <g class="cls-20">
            <path class="cls-2" d="M246.4,15.26s-15.3,11.8-6.7,17.9c12.9,2.8,6.7-17.9,6.7-17.9"/>
          </g>
          <g class="cls-18">
            <path class="cls-2" d="M232.2,63.06s4.6,15.2,13.5,11c5.1-8.1-13.5-11-13.5-11"/>
          </g>
          <g class="cls-21">
            <path class="cls-2" d="M39,65.36s14.6,4.3,11,12.6c-10.6,3.9-11-12.6-11-12.6"/>
          </g>
          <g class="cls-15">
            <path class="cls-2" d="M308.1,129.96s14.3-16.6-.1-22.3c-12.8,4.3.1,22.3.1,22.3"/>
          </g>
          <g class="cls-16">
            <path class="cls-2" d="M82.8,55.76s-.6-14.2,9.6-13c7.4,8.4-9.6,13-9.6,13"/>
          </g>
          <g class="cls-63">
            <path class="cls-2" d="M86,111.06s-6.6-19.2-13.4-12.7c-6.5,9.7,13.4,12.7,13.4,12.7"/>
          </g>
          <g class="cls-34">
            <path class="cls-2" d="M291.8,32.36s-13.5,9.1-4.3,15.4c8.7,1.2,4.3-15.4,4.3-15.4"/>
          </g>
          <g class="cls-37">
            <path class="cls-2" d="M181.1,55.26s-1.3,13-7.1,10.1c-5.7-5.8,7.1-10.1,7.1-10.1"/>
          </g>
          <g class="cls-39">
            <path class="cls-2" d="M24.3,88.26s17.1-6.6,17.9,3c-6.4,9.7-17.9-3-17.9-3"/>
          </g>
          <g class="cls-38">
            <path class="cls-2" d="M134.1,66.26s2.5-13.9,13-12c4.7,10.7-13,12-13,12"/>
          </g>
          <g class="cls-36">
            <path class="cls-2" d="M292.6,16.86s-17.6,4.5-14.7,16c12.9,8.6,14.7-16,14.7-16"/>
          </g>
          <g class="cls-25">
            <path class="cls-2" d="M278,39.56s-3.8,13.7,5.2,13.3c7.7-4.9-5.2-13.3-5.2-13.3"/>
          </g>
          <g class="cls-23">
            <path class="cls-2" d="M170.3,19.46s-8.9,16.3-1.4,20c13.6-.8,1.4-20,1.4-20"/>
          </g>
          <g class="cls-35">
            <path class="cls-2" d="M128.7,47.96s12.6-4.7,14,4c-5,7.8-14-4-14-4"/>
          </g>
          <g class="cls-24">
            <path class="cls-2" d="M340.3,90.36s-22.1-5.4-18.7,6c6.4,6.6,18.7-6,18.7-6"/>
          </g>
          <g class="cls-26">
            <path class="cls-2" d="M310,93.86s-9-12.9.4-15c7.6,3-.4,15-.4,15"/>
          </g>
          <g class="cls-83">
            <path class="cls-2" d="M72.8,28.46s15.2,1.4,13.3,12.2c-9.8,7.6-13.3-12.2-13.3-12.2"/>
          </g>
          <g class="cls-85">
            <path class="cls-2" d="M239.3,97.36s.8-15.7,12.1-15c8,7.9-12.1,15-12.1,15"/>
          </g>
          <g class="cls-86">
            <path class="cls-2" d="M265.8,15.26s-7.5,17.6,5,20.2c12.9-6.8-5-20.2-5-20.2"/>
          </g>
          <g class="cls-87">
            <path class="cls-2" d="M80.4,98.86s9.6-14.3,17.2-7.3c2.1,13-17.2,7.3-17.2,7.3"/>
          </g>
          <g class="cls-88">
            <path class="cls-2" d="M31.9,57.96s18-10.5,21.8,2.8c-9.5,9.6-21.8-2.8-21.8-2.8"/>
          </g>
          <g class="cls-80">
            <path class="cls-2" d="M125.4,97.36s14.2-10.8,5-16.6c-10.4-.1-5,16.6-5,16.6"/>
          </g>
          <g class="cls-81">
            <path class="cls-2" d="M304.7,106.16s16.2-2.2,12.8-11.2c-9.7-5.8-12.8,11.2-12.8,11.2"/>
          </g>
          <g class="cls-82">
            <path class="cls-2" d="M130.4,27.16s-1.7,14.4-11.1,12c-7.1-10.5,11.1-12,11.1-12"/>
          </g>
          <g class="cls-89">
            <path class="cls-2" d="M249.8,41.46s1.5,12.8,10.5,10.2c6.1-9.5-10.5-10.2-10.5-10.2"/>
          </g>
          <g class="cls-84">
            <path class="cls-2" d="M109.1,55.36s-1.7-17.4,11.2-14.2c5.9,8.1-11.2,14.2-11.2,14.2"/>
          </g>
          <g class="cls-74">
            <path class="cls-2" d="M62.2,86.26s-4.4,13.5,4.6,14c8.6-3.6-4.6-14-4.6-14"/>
          </g>
          <g class="cls-92">
            <path class="cls-2" d="M247.9,45.16s-13.5-2.5-9.7-9.8c7.8-5.3,9.7,9.8,9.7,9.8"/>
          </g>
          <g class="cls-90">
            <path class="cls-2" d="M277.4,37.56s-7.9,15.2-13.5,11.1c-6.8-9.7,13.5-11.1,13.5-11.1"/>
          </g>
          <g class="cls-76">
            <path class="cls-2" d="M36.4,111.06s16.2-9.4,9.7-17.6c-13.9-1.9-9.7,17.6-9.7,17.6"/>
          </g>
          <g class="cls-78">
            <path class="cls-2" d="M123,100.76s-16.8-5.4-13.1-12.2c10.6-6,13.1,12.2,13.1,12.2"/>
          </g>
          <g class="cls-75">
            <path class="cls-2" d="M194.5,69.66s7.3-7,11.5-3c.7,7.9-11.5,3-11.5,3"/>
          </g>
          <g class="cls-79">
            <path class="cls-2" d="M288.9,77.16s-6.7,13.7-14.8,7.6c-1.4-11.1,14.8-7.6,14.8-7.6"/>
          </g>
          <g class="cls-91">
            <path class="cls-2" d="M146.4,74.66s-1.3-18.9,8.6-16.3c9.5,6.3-8.6,16.3-8.6,16.3"/>
          </g>
          <g class="cls-93">
            <path class="cls-2" d="M166.9,47.06s-6.5,14.4-13.9,8.3c-5-9.9,13.9-8.3,13.9-8.3"/>
          </g>
          <g class="cls-77">
            <path class="cls-2" d="M271.5,107.66s4-17.4,14.7-12.8c4.9,8.5-14.7,12.8-14.7,12.8"/>
          </g>
          <g class="cls-110">
            <path class="cls-2" d="M258.7,98.66s-6.9-12.4,1.7-15c9.9,2-1.7,15-1.7,15"/>
          </g>
          <g class="cls-104">
            <path class="cls-2" d="M62.5,127.06s4.3-15.6-5.8-15.3c-8.1,6.3,5.8,15.3,5.8,15.3"/>
          </g>
          <g class="cls-103">
            <path class="cls-2" d="M60.1,36.36s6.5,18.4-4.7,22.9c-12.3-8.4,4.7-22.9,4.7-22.9"/>
          </g>
          <g class="cls-108">
            <path class="cls-2" d="M153.1,30.96s-16.5-.4-14.8,9.5c7.3,6.2,14.8-9.5,14.8-9.5"/>
          </g>
          <g class="cls-105">
            <path class="cls-2" d="M310.1,45.86s-10.4,11.5-18.9,4.6c-1.1-11.7,18.9-4.6,18.9-4.6"/>
          </g>
          <g class="cls-109">
            <path class="cls-2" d="M340.4,86.16s-13.7-14.1-22-7c-2.3,15.1,22,7,22,7"/>
          </g>
          <g class="cls-107">
            <path class="cls-2" d="M264.6,103.96s-3-18.7,8.9-17.6c9.8,8.8-8.9,17.6-8.9,17.6"/>
          </g>
          <g class="cls-112">
            <path class="cls-2" d="M65.3,71.86s12.3-12.3,5.7-17.5c-13.1-2.3-5.7,17.5-5.7,17.5"/>
          </g>
          <g class="cls-111">
            <path class="cls-2" d="M65.1,31.56s-7,19.9,7,21.3c13.1-7.7-7-21.3-7-21.3"/>
          </g>
          <g class="cls-106">
            <path class="cls-2" d="M107.9,111.06s5.6-15.6-4.4-20c-13.2,6.4,4.4,20,4.4,20"/>
          </g>
          <g class="cls-117">
            <path class="cls-2" d="M128.8,52.36s9.1,12.2-.6,16.8c-10.8-3.6.6-16.8.6-16.8"/>
          </g>
          <g class="cls-116">
            <path class="cls-2" d="M181.5,96.56s17.1-.7,11.5-12.4c-9.7-2.4-11.5,12.4-11.5,12.4"/>
          </g>
          <g class="cls-119">
            <path class="cls-2" d="M47.7,101.76s10.9,8.2,3.7,13.4c-9.1.6-3.7-13.4-3.7-13.4"/>
          </g>
        </g>
        <g id="Dark_Skyline" data-name="Dark Skyline">
          <g class="cls-118">
            <g>
              <g class="cls-114">
                <path class="cls-130" d="M40.9,232.96v-.1h0v.1h-.6.6l-.1.1v.4h0v-.2l.1-.3h0l.1.1h0l-.1-.1h0Z"/>
              </g>
              <g class="cls-120">
                <rect class="cls-130" x="40.9" y="233.66" width=".1" height=".1"/>
              </g>
              <g class="cls-121">
                <polygon class="cls-130" points="41.3 233.56 41.3 233.56 41.3 233.66 41.3 233.66 41.4 233.66 41.3 233.56"/>
              </g>
              <g class="cls-113">
                <rect class="cls-130" x="41.5" y="232.96" width=".1" height=".1"/>
              </g>
              <g class="cls-115">
                <polygon class="cls-130" points="41.5 232.76 41.6 232.56 41.6 232.56 41.5 232.56 41.5 232.76"/>
              </g>
              <g class="cls-122">
                <polygon class="cls-130" points="41.3 232.36 41.3 232.46 41.4 232.26 41.3 232.26 41.3 232.36"/>
              </g>
              <g class="cls-125">
                <rect class="cls-130" x="40.9" y="232.16" width=".1" height=".1"/>
              </g>
              <g class="cls-124">
                <polygon class="cls-130" points="40.6 232.46 40.7 232.36 40.6 232.26 40.6 232.26 40.4 232.26 40.6 232.46"/>
              </g>
              <g class="cls-126">
                <polygon class="cls-130" points="40.2 232.56 40.3 232.76 40.3 232.56 40.2 232.56"/>
              </g>
              <g class="cls-127">
                <rect class="cls-130" x="40.1" y="232.96" width=".1" height=".1"/>
              </g>
              <g class="cls-123">
                <polygon class="cls-130" points="40.2 233.26 40.2 233.46 40.3 233.26 40.3 233.26 40.2 233.26"/>
              </g>
              <g class="cls-128">
                <polygon class="cls-130" points="40.4 233.66 40.6 233.66 40.7 233.56 40.6 233.56 40.4 233.66"/>
              </g>
              <g class="cls-129">
                <path class="cls-130" d="M21.3,213.16h5.6v.5l.2.1v2.7h-.2v.4l1.8,1.1v1.9c0,.2-.1.2-.1.2-.1,0-.1.1-.1.1v.2c0,.1.1.1.1.1v.7c.2,1.3,1.5,1.7,1.5,1.7v1.8l-.4.2v.4l1.7,1.3h3v.6h.6v.9l.4.1v1.9s-.1.2-.1.6.1.2.1.6v1.5h.4s.2,3.9,4.3,5.1v.4s0,.1.1.1v1.2s-.2,0-.2.2.2.1.2.4c0,.1.1.9.9,1.1v.4c-.1,0-.2.1-.2.4,0,.1.1.2.2.4v.1h0v.8h-.5s0,.1.1.1h.4v.4q0,.1.1.1v-.9h.4s.1,0,.1-.1,0,0-.1,0h-.6v-.8h0v-.1c.1,0,.2-.1.2-.4,0-.1-.1-.2-.2-.4v-.4c.9,0,.9-.8.9-1.1,0-.1.2-.1.2-.4s-.1-.1-.1-.1v-1.2c.1,0,.1-.1.1-.1v-.4c4-1.2,4.3-5.1,4.3-5.1h.4v-1.5c0-.4.1-.2.1-.6s-.1-.6-.1-.6v-1.9l.4-.1v-.9h.6v-.6h7.6v.2h.5v3.4l-.2.6v.4l-.2.1v.2l3.2,1.1v.4c-.1,0-.2.1-.2.4,0,.1.1.2.2.4v.1h0v.8h-.7s0,.1.1.1h.4v.4q0,.1.1.1v-.3.1h.4s.1,0,.1-.1,0,0-.1,0h-.4v-.8h0v-.1c.1,0,.2-.1.2-.4,0-.1-.1-.2-.2-.4v-.4l3.2-1.1v-.2l-.2-.1v-.4l-.2-.6v-3.4h.5v-.2l-.4-.5v-3.2l.5-.1h2.6c.7.5,1.5.9,2.5,1.4v.6h-.1v8.1h.2v.5h.2v1.4s-.1,0-.1.1h.1v.4h0s0,.1.1.1.1.4.1.6c0,0-.2.2.1.7h0l.1-.1v1.4h.2v.2-.1c.1,0,0-.1,0-.1h.1v-.3h.2l.7,2.4v1.2s-.1.1-.1.2h.2v1.2l-.1.1v.1h.1s-.2,1.1.4,1.5v1.9h0c-.1,0-.4-.1-.5-.2s-.1-.1-.2-.1h0v.5c.1.1.2.2.4.5.1.2.2.4.2.4v.2l-.1.1q0,.1.1.1t.1-.1s0-.1-.1-.1v-3.1c.6-.5.4-1.5.4-1.5h.1v-.1l-.1-.1v-1.2h.2c0-.2-.1-.2-.1-.2v-1.2l.7-2.4h.2v.3h.2v.2-.1c.1,0,0-.1,0-.1h.1v-1.4l.1.1h0c.4-.5.1-.7.1-.7,0-.2,0-.6.1-.6s.1-.1.1-.1v-.4h.7c0-.1-.1-.1-.1-.1v-1.4h.2v-.5h.2v-6.2c2,.6,4.3.9,6.5.9,5.7,0,11-2.5,14.7-4.9h12.1v.4h1.5v.5h-1.5v.7h1.5v.5h-1.5v.7h1.5v.5h-1.5v.7h1.5v.5h-1.5v.7h1.5v.5h-1.5v.7h1.5v.5h-1.5v.7h1.5v.5h-1.5v.7h1.5v.5h-1.5v.7h1.5v.5h-1.5v.7h1.5v.5h-1.5v.7h1.5v.5h-1.5v.7h1.5v.5h-1.5v.7h1.5v.5h-1.5v.7h1.5v.5h-1.5v.7h1.5v.5h-1.5v.7h1.5v.5h-1.5v.7h1.5v.5h-1.5v.7h1.5v.5h-1.5v.9h13.7v-.9h-1.5v-.5h2.3v.1h.2v1.7h.8v1.1h1.7l.2,3.2h0v.1h0v.5h0v-.1h.1v.1h0v-.1h.1v.1h0v-.1h.1v.1h0v-.5h0v-.1h0l.2-3.2h.1v8.2h0v-1.7h.2v-6.7h1.3v-1.1h.8v-1.7h.2v-.1h1.4v-4.7h.1v-19.2h.8v19.9h.6v.9h.6v-.4h1.3v.4h.6v-.9h6.3v4.1h.1v.6l.1.1v.2s-.1.1.2.5v.2-.2c.4-.2.2-.5.2-.5v-1.4l.1-.1v-.5l1.4,2.1v1.8l.1.2v.1l.1.1v.1l.1.1v2.2c-.5.2-1.8-.2-1.5,0,.2.2.2.5.2.5.2,0,.5.1.7.2h.6v.2h0v-3.2l.1-.1v-.1l.1-.1v-.1l.1-.2v-1.8l1.4-2.1v.5l.1.1v.2s-.1.1.2.5v.2-.2c.4-.2.2-.5.2-.5v-.2l.1-.1v-.5h.1v-4.1h0v-16.8h1.2v27.6h.1v.2h.1v5h.1v.2h.1v.4h.2v1h0v-1h.2v-.4h.1v-.2h.5v.8h0v-.8h.6v.8h0v-.8h.6v.8h0v-.8h.6v.8h0v-.8h.6v.8h0v-.8h.6v.8h0v-.8h.2l.9,1.7-.1.1v.4h.1v1.8h.1s0,.6.6.7v2.4c-.2.1-.9-.2-1.1-.1-.2.2-.1.5-.1.5,0,0,.5,0,.6.1s.5.1.5.1v.2h0v-3.1c.6,0,.6-.7.6-.7h.1v-1.8h.1v-.4l-.1-.1.9-1.7h.2v.8h0v-.8h.6v.8h0v-.8h.6v.8h0v-.8h.6v.8h0v-.8h.6v.8h0v-.8h.6v.8h0v-.8h.5v.2h.1v.4h.2v1h0v-1h.2v-.4h.1v-.2h.1v-5h.1v-.4h.1v-2.6l2.4.4v.7l14.4-.7,3-1.4v3.4l.7,1.1.7-1.1v-.6l.8,1.3h0l.5,1.5h.4l2.5,4.1v1.8s-.1.1-.2.1h-.5v.5h.7v.1h0v-2.5l2.5-4.1h.4l.5-1.5h0l.8-1.3v.6l.7,1.1.7-1.1v-8.9l1.9-.5v-1.4h.2s.1,0,.1-.2-.1-.2-.4-.2v-10.5h1.5v6.3h.9v3.2h.7v4.1h1.4v.2h.1v1.3h.2v.7h.9v.1c-.1,0-.4.2-.4.7,0,.6.4,1.1.4,1.5v.1s0,.1.1.1.1-.1.1-.1v-.1c0-.4.4-.9.4-1.5,0-.5-.2-.6-.4-.7v-.1h.9v-.7h.2v-1.3h.1v-.2h1.4v-4.3h.7v-3.2h.9v-6.3h1.7v-8.4h.8v47.6h4.2v.7h8.4v-.7h4.2v-23.5h8.4v-29.5h.8v.6h1.1v.7h-1.1v.6h1.1v.7h-1.1v.6h1.1v.7h-1.1v.6h1.1v.7h-1.1v.6h1.1v.7h-1.1v.6h1.1v.7h-1.1v.6h1.1v.7h-1.1v.6h1.1v.7h-1.1v.6h1.1v.7h-1.1v.6h1.1v.7h-1.1v.6h1.1v.7h-1.1v.6h1.1v.7h-1.1v.6h1.1v.7h-1.1v.6h1.1v.7h-1.1v.6h1.1v.7h-1.1v18.2h2.8v.6h4v.6h2.8v-1.3h.6v-10.1h.7v-10.2h1.3v12.9h1.5v1.5l3.1,3.2h0l3.1-3.2v-1.5h1.5v-12.9h1.5v31.1c9.9,0,15.3-4,15.3-4v-9.5c.5-.1.7-.2.7-.2v-21.2l30.1,12.7,3.9,5.4s.1.1.1,0v-.2l-3.8-5.4h0l.4-9.6c1.2,1.5,3,1.7,3.8,1.7h.1c1.1.1,3.8,1.4,3.9,1.4h0c.2.2.6.4.8.5l1.9,2.1h0l-1.2-1.8c3.6,1.9,7.2,2.1,7.2,2.1,0,0,.1,0,.1-.1v-.1s-.9-.7-3.8-1.7c-1.5-.5-3.2-1.5-4.5-2.7l5-6.5h5.6v2.8h.4v.4h.2v-.4h.4v-2.8h5.8l.6-3.4h1.4v-.4l-.2-.1v-1.9h4.3l1.7,14.1s0,.1-.1.2l-.2.2v.2h.1v.7h.7v1.3l-.1.1.9.8v.4h0v.1h.1v.2h0v-.2h.1v-.1h0v-.4l.9-.8-.1-.1v-1.3h.7v-.7h.1v-.2l-.2-.2c-.1-.1-.1-.2-.1-.2l2.2-18.5h.2l.1-.8h5.6c1.8,0,3.3-1.3,3.4-3.1H17.7c.3,1.7,1.8,3,3.6,3M141.3,249.76c-.1-.2,0-.5,0-.6v.6ZM152,261.76v-.2.2ZM44.5,220.66q0-.1,0,0v-.4c.1.1.2.1.4.1h.1c-.1,0-.1.1-.2.2q-.2,0-.3.1M44.7,220.16c-.2,0-.4-.2-.4-.2h0v-5h.7v5.1c-.1,0-.2.1-.3.1M45.1,220.16h0q0,.1,0,0c0,.1,0,0,0,0M45.2,220.36h0s-.1,0-.2.1q.1-.1.2-.1M45.5,220.16c-.1,0-.2-.1-.4-.2v-5.1h.6v5.1c.1.1,0,.2-.2.2M45.3,220.26h0c0-.1,0,0,0,0M45.4,220.26s.1,0,0,0c.1,0,0,0,0,0h0M45.9,220.26q0-.1,0,0h0q0-.1,0,0M50.6,219.56h0c.2,0,.3,0,.5-.1v.4c-.1.1-.1.2-.2.4v-.1c0-.2-.1-.5-.3-.6M50.8,219.46c-.1,0-.2-.1-.4-.2.2-.1.5-.2.7-.4v.2c-.1.3-.2.4-.3.4M50.3,219.46h0q-.1.1,0,0c-.1.1-.1,0,0,0M50.4,219.46s.1.1,0,0c.1.1,0,.1,0,0h0ZM50.3,218.66c-.2.1-.5.2-.8.4v-2.8h.8v2.4ZM49.8,220.06v.1c-.1-.1-.2-.2-.2-.4v-.2s.1,0,.1-.1h.1v.2q0,.3,0,.4M50,219.96c.1-.1.2-.2.4-.2s.4.1.4.4-.1.4-.4.4c-.1,0-.2-.1-.4-.2v-.4ZM50.4,218.66v-2.4h.7v2c-.2.1-.5.2-.7.4M51.7,215.56c-.2,0-.2-.5-.2-.5v-1.3h.6v1.3s0,.5-.4.5M52.5,215.56c-.2,0-.2-.5-.2-.5v-1.3h.6v1.3c-.1,0-.1.5-.4.5M56.1,215.56h0c.1,0,0,0,0,0h0ZM56.8,215.56h0c.1-.1.1-.2.1-.4v.7c0-.2-.1-.3-.1-.3M54.9,216.26h0c-.2.1-.5.4-.7.5v-.5h.7M54.3,219.56h0c.2,0,.3,0,.5-.1v.4c-.1.1-.1.2-.2.4v-.1c.1-.2-.1-.5-.3-.6M54.1,219.66c.2,0,.4.1.4.4s-.1.4-.4.4c-.2,0-.4-.1-.4-.4,0-.3.1-.4.4-.4M53.8,219.56c.1,0,.1-.1,0,0h0q.1,0,0,0M54.2,219.46s0,.1,0,0q0,.1,0,0h0ZM54.4,219.46c-.1,0-.4-.2-.4-.2v-1.8c.2-.1.5-.2.7-.4v2.1c.1.2,0,.3-.3.3M53.9,216.86c-.2.1-.5.2-.8.5v-1.1h.8v.6ZM53.2,217.96c.2-.1.5-.2.7-.4v1.7c-.1.1-.2.2-.4.2-.1,0-.2-.1-.2-.1l-.1-1.4h0ZM53.2,219.56c.1.1.2.1.4.1h.1c-.1.1-.2.2-.2.5v.1q-.1-.1-.2-.2c-.1,0-.1-.5-.1-.5ZM56.1,216.36v-.1c.1-.1.2-.1.4-.2v.4l-.4-.1h0ZM56.6,216.26c0,.1.1.1.2.2h-.2v-.2ZM57.3,216.16v-2.2h.9v2.6h-.6c-.1-.3-.2-.4-.3-.4M61.4,216.76c-.5,0-.5-.6-.5-.6v-1.9h.9v1.9c.1,0,.1.6-.4.6M62.9,216.76c-.5,0-.5-.6-.5-.6v-1.9h.9v1.9c.1,0,.1.6-.4.6M40.6,229.06h.8v1.4s0,.4-.4.4-.4-.4-.4-.4v-1.4h0ZM40.2,227.46h.5c-.1.1-.2.2-.2.4,0,.1,0,.2.1.4-.4-.3-.4-.8-.4-.8M41.2,228.26c.1-.1.1-.2.1-.4,0-.1-.1-.2-.2-.4h.5s0,.5-.4.8M41,225.76l.1-.1h.2c0,.1-.1.1-.3.1M41.3,227.86c0,.2-.1.4-.4.4-.2,0-.4-.1-.4-.4,0-.2.1-.4.4-.4s.4.2.4.4M40.9,225.76q-.1.1-.4.1c-.1,0-.2,0-.4-.1q-.1-.1-.1-.2l.2-.7h.2l.2.7c.4-.1.3,0,.3.2M40.6,224.66c-.2,0-.4-.1-.4-.4,0-.1.1-.2.2-.4h.2c.1,0,.2.1.2.4.1.3,0,.4-.2.4M39.4,223.86s-.1,0-.2.1v-1.3c.1.1.4.4.7.4h.3c0,.1-.1.1-.1.2,0,0-.1,0-.2-.1h0c-.1,0-.2.1-.4.2s-.2.2-.2.4t.1.1M40.9,221.96c-.1,0-.2-.1-.4-.2v-3.2h.6v3.2c.2.1.1.2-.2.2M41.3,222.06h0s-.1,0,0,0c-.1,0,0,0,0,0M40.1,222.16s.1,0,0,0c.2,0,.4,0,.4-.1v.4c0,.1-.1.2-.2.2v-.1c0-.3-.1-.4-.2-.4M40.3,222.96q.1-.1.4-.1c.1,0,.2,0,.4.1q.1.1.1.2l-.2.7h-.2l-.2-.7c-.4,0-.4-.2-.3-.2M40.6,222.76h-.2q.1-.1.2-.2c.1.1.1.2.2.2h-.2M40.6,218.66v3.2c-.1.1-.2.2-.4.2-.1,0-.2-.1-.2-.2v-3.2h.6M40.2,222.56c0,.1-.1.2-.1.2h-.1c-.1,0-.4-.1-.4-.4,0-.1.1-.4.4-.4,0,.2.2.3.2.6M39.7,221.86c-.1.1-.2.2-.4.2-.1,0-.4-.2-.4-.2h0v-3.2h.6v3.2h.2ZM39.5,222.16c.1,0,.2,0,.4-.1h0c-.2,0-.4.2-.4.5v.2c-.2-.1-.2-.4-.4-.4v-.4c.2.1.3.2.4.2M39.6,223.26c.1-.1.2-.1.2-.1.1,0,.2.1.2.1l.2.7c-.1,0-.1.1-.1.1l-.7-.2s-.1-.1-.1-.2c.1-.2.2-.3.3-.4M40.8,223.96l.2-.7s.1-.1.2-.1.2,0,.2.1c.1.1.1.2.1.2,0,.1-.1.2-.1.2l-.6.3q.1,0,0,0M40.9,222.56h0q-.1,0-.2-.2v-.4c.1.1.2.1.4.1h.1c-.3.1-.3.2-.3.5M41.3,222.16c.1,0,.4.1.4.4,0,.1-.1.4-.4.4h-.1c-.1,0-.1-.1-.1-.2-.1-.5.1-.6.2-.6M36.1,219.96v-5.1h.7v5h0s-.1.2-.4.2c-.1.1-.2,0-.3-.1M36.2,220.26h0c0-.1,0,0,0,0M29.1,215.66c-.2,0-.2-.2-.2-.2v-.8h.6v.8c-.2,0-.1.2-.4.2M32.3,218.06v1.8s-.1.1-.2.1-.1,0-.2-.1v-1.8h.4ZM32,220.26c-.1,0-.1-.1-.1-.2v-.2q.1.1.2.1h.1c-.2.1-.2.2-.2.3h0M32.3,220.36c-.1,0-.2-.1-.2-.2s.1-.2.2-.2.2.1.2.2c0,.2-.1.2-.2.2M32.8,220.06c0,.1-.1.1-.1.2v-.1c0-.1-.1-.2-.1-.2h.1q.1,0,.2-.1v.2h-.1ZM32.9,219.66h0s-.1.1-.2.1-.1,0-.2-.1v-1.8h.5l-.1,1.8h0ZM35.9,214.86v5.1s-.1.2-.4.2c-.1,0-.2-.1-.4-.2v-5.1h.8ZM35.9,220.16h0q0,.1,0,0c0,.1,0,0,0,0M35.6,220.86c-.1-.1-.2-.2-.2-.4v-.4c.1.1.2.1.4.1h.1c-.3.2-.4.4-.3.7q-.1-.1,0,0M36.1,231.96c-.1,0-.2-.1-.4-.1v-.7c.1,0,.2.1.4.1v.7ZM36.1,221.16c-.2,0-.4-.1-.4-.4s.1-.4.4-.4.4.1.4.4c-.2.1-.3.4-.4.4M36.3,220.26s.1,0,0,0c.2,0,.4,0,.5-.1v.4c-.1.1-.1.2-.2.4v-.1c-.1-.3-.2-.5-.3-.6M37,232.36c-.1,0-.4-.1-.5-.1v-.7c.1,0,.2.1.5.1v.7ZM37,229.96s0,.4-.2.4-.2-.4-.2-.4v-1.4c.1,0,.2.1.5.1-.1,0-.1,1.3-.1,1.3ZM38.3,232.46c-.2,0-.4,0-.6-.1v-.7c.2,0,.4,0,.6.1v.7ZM39.1,224.26v-.1q0-.1.1-.2.1-.1.2-.1l.7.2v.2l-.7.2s-.1,0-.2-.1l-.1-.1c0,.2,0,0,0,0M39.3,225.06q0-.1-.1-.2h.1v.2M39.9,225.46c-.1,0-.2,0-.2-.1-.1-.1-.1-.2-.1-.2,0-.1.1-.2.1-.2l.7-.2c0,.1.1.1.1.1l-.2.7c-.2-.1-.3-.1-.4-.1M40.1,225.56s0,.1.1.1c-.1,0-.2-.1-.2-.1h.1M40.3,239.36c-.2,0-.1-.2-.1-.2v-.9s.1.1.4.1v.7c-.2,0-.2.3-.3.3M40.9,239.46c-.2,0-.2-.2-.2-.2v-.8h.4v.8c.1,0,.1.2-.2.2M41.5,239.36c-.2,0-.1-.2-.1-.2v-.7c.2,0,.4-.1.4-.1v.8c0-.1,0,.2-.3.2M40.9,233.76c-.5,0-.8-.4-.8-.8,0-.5.4-.8.8-.8.5,0,.8.4.8.8.1.5-.3.8-.8.8M41.6,225.36c-.1.1-.2.1-.2.1-.1,0-.2-.1-.2-.1l-.2-.7c.1,0,.1-.1.1-.1l.7.2s.1.1.1.2c-.1.2-.1.3-.3.4M41.9,225.06v-.1h.1q0-.1-.1.1M42.1,224.26v.1q0,.1-.1.1-.1.1-.2.1l-.7-.2v-.2l.7-.2s.1,0,.2.1c0,0,.1.1.1.2h0ZM42.1,223.96c-.1,0-.1-.1-.2-.1v-.2c0-.1-.1-.2-.2-.4-.1-.1-.2-.2-.4-.2h0q-.1,0-.2.1,0-.1-.1-.2h.2c.4,0,.6-.2.7-.4v1.4h.2ZM42.1,222.26c0,.1-.1.2-.4.4v-.2c0-.2-.1-.4-.4-.5h0c.1.1.2.1.4.1s.2-.1.4-.1v.3ZM42.1,221.66q-.1.2,0,0s-.1.2-.4.2c-.1,0-.2-.1-.4-.2v-3.2h.7l.1,3.2h0ZM44.1,232.46c-.2,0-.4,0-.6.1v-.7c.2,0,.4,0,.6-.1v.7ZM45.3,232.26c-.1,0-.2.1-.5.1v-.7c.1,0,.4-.1.5-.1v.7ZM45.3,229.96s0,.4-.2.4-.2-.4-.2-.4v-1.3c.1,0,.4-.1.5-.1-.1,0-.1,1.4-.1,1.4ZM46.1,231.86c-.1,0-.2.1-.4.1v-.7c.1,0,.2-.1.4-.1v.7ZM57.6,229.56h0v.2h0s0,.5-.5.5-.5-.5-.5-.5h0v-.2h0v-1.5h0v-.2h.9v.2h0c.1-.1.1,1.5.1,1.5ZM57.6,224.56v-1.3h.6v1.3s0,.4-.2.4c-.4-.1-.4-.4-.4-.4M58.9,229.56h0v.2h0s0,.5-.5.5-.5-.5-.5-.5h0v-.2h0v-1.5h0v-.2h.9v.2h0c.1-.1.1,1.5.1,1.5ZM58.9,224.86c-.4,0-.2-.4-.2-.4v-1.2h.6v1.3s0,.3-.4.3M60.3,229.56h0v.2h0s0,.5-.5.5-.5-.5-.5-.5h0v-.2h0v-1.5h0v-.2h.9v.2h0c.1-.1.1,1.5.1,1.5ZM66.9,223.46c-.5-.2-.8-.5-1.3-.7h1.3v.7ZM63.7,221.16v-.2l2.5-1.3v-.5h-.5v-.4l-.2-.5v-4.4l.1-.2v-.4h1.1v4h.1v3.9h-3.1ZM71,223.46h.2v.4h-.2v-.4ZM71.2,224.16h-.2v-.4h.2v.4ZM70.9,222.86h-.2v-.1h.2v.1ZM70.6,223.46h.2v.4h-.2v-.4ZM70.9,224.16h-.2v-.4h.2v.4ZM71,222.76h.2v.1h-.2v-.1ZM69.8,236.36v-.5h-.3.3v.5c-.4,0-.5-.2-.5-.5,0-.2.2-.5.5-.5.2,0,.5.2.5.5s-.2.5-.5.5M70.1,236.36c-.1,0-.1.1-.2.1v-.1h.2ZM69.3,235.56q0,.1-.1.2h-.1c0-.1.1-.2.2-.2h0ZM69.2,235.46c0-.1.1-.1.2-.2v.1c.1.1-.1.1-.2.1h0ZM69.8,235.16h0q-.1.1-.2.1v-.1s.1,0,.2,0M69.6,233.26h.4v.9h-.4v-.9ZM70.1,235.36h0c.1,0,.2,0,.2.1h-.1l-.1-.1M70.1,235.36q-.1,0-.2-.1v-.1s.2,0,.2.2h0ZM69.8,231.26c-.5,0-.4-.5-.4-.5v-1.4h.8v1.4c0,.1,0,.5-.4.5M69.7,226.96h-.2v-.2h.2v.2ZM69.5,226.36h.2v.2h-.2v-.2ZM69.7,227.26h-.2v-.2h.2v.2ZM69.7,228.46h-.2v-.4h.2v.4ZM70.1,227.26h-.2v-.2h.2v.2ZM69.8,226.66h.2v.2h-.2v-.2ZM70.1,228.46h-.2v-.4h.2v.4ZM70.1,226.56h-.2v-.2h.2v.2ZM70.1,222.86h-.2v-.1h.2v.1ZM69.8,223.46h.2v.4h-.2v-.4ZM70.1,224.16h-.2v-.4h.2v.4ZM69.7,222.86h-.2v-.1h.2v.1ZM69.5,223.46h.2v.4h-.2v-.4ZM69.7,224.16h-.2v-.4h.2v.4ZM69.3,223.36h-.2.2ZM68.9,222.86h-.2v-.1h.2v.1ZM68.6,223.46h.2v.4h-.2v-.4ZM68.9,224.16h-.2v-.4h.2v.4ZM68.5,222.86h-.2v-.1h.2v.1ZM68.5,223.86h-.2v-.4h.2v.4ZM68.2,223.36h-.2.2ZM68.3,224.16v-.4h.2v.4h-.2M68.5,217.96h-.2v-.2h.2v.2ZM68.3,217.36h.2v.2h-.2v-.2ZM68.5,218.26h-.2v-.2h.2v.2ZM68.5,219.06h-.2v-.2h.2v.2ZM68.5,219.46h-.2v-.2h.2v.2ZM68.5,219.76h-.2v-.2h.2v.2ZM68.5,220.66h-.2v-.2h.2v.2ZM68.5,220.96h-.2v-.2h.2v.2ZM68.9,217.96h-.2v-.2h.2v.2ZM68.6,217.36h.2v.2h-.2v-.2ZM68.9,218.26h-.2v-.2h.2v.2ZM68.9,219.06h-.2v-.2h.2v.2ZM68.9,219.46h-.2v-.2h.2v.2ZM68.9,219.76h-.2v-.2h.2v.2ZM68.9,220.66h-.2v-.2h.2v.2ZM68.9,220.96h-.2v-.2h.2v.2ZM69.7,217.96h-.2v-.2h.2v.2ZM69.5,217.36h.2v.2h-.2v-.2ZM69.7,218.26h-.2v-.2h.2v.2ZM69.7,219.06h-.2v-.2h.2v.2ZM69.7,219.46h-.2v-.2h.2v.2ZM69.7,219.76h-.2v-.2h.2v.2ZM69.7,220.66h-.2v-.2h.2v.2ZM69.7,220.96h-.2v-.2h.2v.2ZM70.1,217.96h-.2v-.2h.2v.2ZM69.8,217.36h.2v.2h-.2v-.2ZM70.1,218.26h-.2v-.2h.2v.2ZM70.1,219.06h-.2v-.2h.2v.2ZM70.1,219.46h-.2v-.2h.2v.2ZM70.1,219.76h-.2v-.2h.2v.2ZM70.1,220.66h-.2v-.2h.2v.2ZM70.1,220.96h-.2v-.2h.2v.2ZM70.9,217.96h-.2v-.2h.2v.2ZM70.6,217.36h.2v.2h-.2v-.2ZM70.9,218.26h-.2v-.2h.2v.2ZM70.9,219.06h-.2v-.2h.2v.2ZM70.9,219.46h-.2v-.2h.2v.2ZM70.9,219.76h-.2v-.2h.2v.2ZM70.9,220.66h-.2v-.2h.2v.2ZM70.9,220.96h-.2v-.2h.2v.2ZM71.2,218.26h-.2v-.2h.2v.2ZM71,217.66h.2v.2h-.2v-.2ZM71.2,219.06h-.2v-.2h.2v.2ZM71.2,219.46h-.2v-.2h.2v.2ZM71.2,219.76h-.2v-.2h.2v.2ZM71.2,220.66h-.2v-.2h.2v.2ZM71.2,220.96h-.2v-.2h.2v.2ZM71.2,217.46h-.2v-.2h.2v.2ZM71.2,213.86s-.1.8-1.4.8-1.4-.8-1.4-.8v-.7h2.7v.7h.1ZM69.7,225.56v.2h-.2v-.4h.1c0,.1.1.1.1.2M68.7,227.06h.3v.2h-.2v-.2h-.1ZM68.9,228.46h-.2v-.4h.2v.4ZM68.6,225.46h.2v.4h-.2v-.4ZM68.7,226.66h.3v.2h-.2v-.2h-.1ZM68.7,226.36h.3v.2h-.2v-.2h-.1ZM68.4,227.06h.2v.2h-.2v-.2ZM68.5,228.46h-.2v-.4h.2v.4ZM68.3,225.46h.2v.4h-.2v-.4ZM68.4,226.66h.2v.2h-.2v-.2ZM68.4,226.36h.2v.2h-.2v-.2ZM67.6,234.26h0v-.7h0v.7ZM67.7,236.06h0v-.6h0v.6ZM67.8,234.26h0v-.7h0v.7ZM67.8,236.06h0v-.6h0v.6ZM68,234.26h0v-.7h0v.7ZM68.6,231.26c-.5,0-.5-.5-.5-.5v-1.4h.9v1.4c.1.1.1.5-.4.5M69.1,233.26h.4v.9h-.4v-.9ZM69.1,235.96h0q.1.1.1.2h-.1c.1-.1,0-.2,0-.2M69.2,236.16h0c.1,0,.2.1.2.1v.1c-.1,0-.1-.1-.2-.2M69.6,242.26h0l-.1-.5h.1v.5ZM69.5,236.36h.2v.1s-.1,0-.2-.1M69.8,242.26h0l-.1-.5h.1v.5ZM70.2,242.26h0l-.1-.5h.1v.5ZM70.2,236.36h0c0-.1.1-.2.1-.2h.1c-.1.1-.2.2-.2.2M70.4,236.16h0v-.2h.1c-.1,0-.1.1-.1.2M70.4,235.76q0-.1-.1-.2h.1v.2h0ZM70.5,234.26h-.4v-1h.4v1ZM71.4,230.66c0,.1,0,.5-.5.5s-.5-.5-.5-.5v-1.4h.9c.1,0,.1,1.4.1,1.4ZM70.9,226.56h-.2v-.2h.2v.2ZM70.9,228.46h-.2v-.4h.2v.4ZM70.9,226.96h-.2v-.2h.2v.2ZM70.9,227.26h-.2v-.2h.2v.2ZM71.2,226.56h-.2v-.2h.2v.2ZM71.2,228.46h-.2v-.4h.2v.4ZM71.2,226.96h-.2v-.2h.2v.2ZM71.2,227.26h-.2v-.2h.2v.2ZM71.6,234.26h0v-.7h0v.7ZM71.8,236.06h0v-.6h0v.6ZM71.8,234.26h0v-.7h0v.7ZM71.9,236.06h0v-.6h0v.6ZM72.1,234.26h0v-.7h0v.7ZM70.1,225.86h-.2v-.2c0-.1.2.1.2.2h0ZM73.8,226.36c-.5-.1-.8-.2-1.3-.4v-1.2h.1v-2.1h1.2s0,3.7,0,3.7ZM77.4,226.96c-1.2-.1-2.2-.4-3.4-.6v-3.6h3.4v4.2ZM80.8,226.96c-.6,0-1.2.1-1.7.1-.6,0-1.2,0-1.7-.1v-4.1h3.4v4.1h0ZM84.3,226.36c-1.1.2-2.2.5-3.4.6v-4.1h3.4v3.5ZM87.8,225.16c-1.1.5-2.2.8-3.4,1.1v-3.6h3.4v2.5ZM91.2,223.46c-1.1.6-2.2,1.2-3.4,1.7v-2.4h3.4v.7ZM91.4,223.46v-.7h1.3c-.5.2-.9.5-1.3.7M72.7,221.16v-3.9h.1v-4h28.3c.1.4.2,1.5.2,2.2h.2c-.4.4-2.7,3-6.4,5.6h-22.4v.1ZM176.5,234.26v.7h-.1v-.7h.1ZM176.4,233.66v-.7h.1v.7h-.1ZM176.5,235.46v.7l-.1.1v-.7l.1-.1ZM176.5,236.76v.7l-.1.1v-.7l.1-.1ZM176.5,218.06v.7h-.1v-.7h.1ZM176.4,217.46v-.7h.1v.7h-.1ZM176.5,219.26v.7h-.1v-.7h.1ZM176.5,220.56v.7h-.1v-.7h.1ZM176.5,221.66v.7h-.1v-.7h.1ZM176.5,222.96v.7h-.1v-.7h.1ZM176.5,224.16v.7h-.1v-.7h.1ZM176.5,225.46v.7h-.1v-.7h.1ZM176.5,226.66v.7h-.1v-.7h.1ZM176.5,227.96v.7h-.1v-.7h.1ZM176.5,229.26v.7h-.1v-.7h.1ZM176.5,230.46v.7h-.1v-.7h.1ZM176.5,214.96h-.1v-.7h.1v.7ZM172.6,237.76v-.7h.7v.7h-.7ZM173.3,238.36v.7h-.7v-.7h.7ZM172.6,236.66v-.7h.7v.7h-.7ZM172.6,235.36v-.7h.7v.7h-.7ZM173.3,216.86v.7h-.7v-.7h.7ZM172.6,216.16v-.7h.7v.7h-.7ZM173.3,218.06v.7h-.7v-.7h.7ZM173.3,219.36v.7h-.7v-.7h.7ZM173.3,221.96v.7h-.7v-.7h.7ZM173.3,223.16v.7h-.7v-.7h.7ZM173.3,224.46v.7h-.7v-.7h.7ZM173.3,225.76v.7h-.7v-.7h.7ZM173.3,228.26v.7h-.7v-.7h.7ZM173.3,229.56v.7h-.7v-.7h.7ZM173.3,230.86v.7h-.7v-.7h.7ZM173.3,232.16v.7h-.7v-.7h.7ZM172.2,235.96v.7h-.1v-.7h.1ZM172.2,232.76h-.1v-.7h.1v.7ZM172.1,220.66v.7h-.1v-.7h.1ZM172.1,217.46h-.1v-.7h.1v.7ZM171.8,241.16v.7h-.7v-.7h.7ZM171.1,240.56v-.7h.7v.7h-.7ZM171.8,234.76v.7h-.7v-.7h.7ZM171.1,234.16v-.7h.7v.7h-.7ZM171.8,237.26v.7h-.7v-.7h.7ZM171.1,227.76v-.7h.7v.7h-.7ZM171.8,228.36v.7h-.7v-.7h.7ZM171.8,225.16h-.7v-.7h.7v.7ZM171.1,218.76v-.7h.7v.7h-.7ZM171.8,219.36v.7h-.7v-.7h.7ZM171.8,216.16h-.7v-.7h.7v.7ZM170.2,223.26v.7h-.7v-.7h.7ZM170.2,221.36h-.7v-.7h.7v.7ZM168.7,232.26v.7h-.7v-.7h.7ZM168,231.66v-.7h.7v.7h-.7ZM142.5,233.66c-.1,0-.2-.1-.2-.1v-.8h.4v.8c.1.1-.1.1-.2.1M142.8,234.36v.8s0,.1-.2.1c-.1,0-.2-.1-.2-.1v-.8h.4ZM142.5,232.16c-.1,0-.2-.1-.2-.1v-.8h.4v.8c.1.1-.1.1-.2.1M142.5,230.56c-.1,0-.2-.1-.2-.1v-.8h.4v.8c.1.1-.1.1-.2.1M142.5,229.06c-.1,0-.2-.1-.2-.1v-.8h.4v.8c.1.1-.1.1-.2.1M142.5,227.46c-.1,0-.2-.1-.2-.1v-.8h.4v.8c.1.1-.1.1-.2.1M142.5,225.96c-.1,0-.2-.1-.2-.1v-.8h.4v.8c.1.1-.1.1-.2.1M142.5,224.46c-.1,0-.2-.1-.2-.1v-.8h.4v.8c.1.1-.1.1-.2.1M142.5,222.86c-.1,0-.2-.1-.2-.1v-.8h.4v.8c.1.1-.1.1-.2.1M142.5,221.36c-.1,0-.2-.1-.2-.1v-.7h.4v.8c.1,0-.1,0-.2,0M142.5,219.76c-.1,0-.2-.1-.2-.1v-.8h.4v.8c.1.1-.1.1-.2.1M142.5,218.26c-.1,0-.2-.1-.2-.1v-.8h.4v.8c.1.1-.1.1-.2.1M142.5,216.76c-.1,0-.2-.1-.2-.1v-.8h.4v.8c.1.1-.1.1-.2.1M142.5,215.16c-.1,0-.2-.1-.2-.1v-.8h.4v.8c.1.1-.1.1-.2.1M141.9,233.66c-.1,0-.2-.1-.2-.1v-.8h.4v.8c.1.1-.1.1-.2.1M142.2,234.36v.8s0,.1-.2.1c-.1,0-.2-.1-.2-.1v-.8h.4ZM141.9,232.16c-.1,0-.2-.1-.2-.1v-.8h.4v.8c.1.1-.1.1-.2.1M141.9,230.56c-.1,0-.2-.1-.2-.1v-.8h.4v.8c.1.1-.1.1-.2.1M141.9,229.06c-.1,0-.2-.1-.2-.1v-.8h.4v.8c.1.1-.1.1-.2.1M141.9,227.46c-.1,0-.2-.1-.2-.1v-.8h.4v.8c.1.1-.1.1-.2.1M141.9,225.96c-.1,0-.2-.1-.2-.1v-.8h.4v.8c.1.1-.1.1-.2.1M141.9,224.46c-.1,0-.2-.1-.2-.1v-.8h.4v.8c.1.1-.1.1-.2.1M141.9,222.86c-.1,0-.2-.1-.2-.1v-.8h.4v.8c.1.1-.1.1-.2.1M141.9,221.36c-.1,0-.2-.1-.2-.1v-.7h.4v.8c.1,0-.1,0-.2,0M141.9,219.76c-.1,0-.2-.1-.2-.1v-.8h.4v.8c.1.1-.1.1-.2.1M141.9,218.26c-.1,0-.2-.1-.2-.1v-.8h.4v.8c.1.1-.1.1-.2.1M141.9,216.76c-.1,0-.2-.1-.2-.1v-.8h.4v.8c.1.1-.1.1-.2.1M141.9,215.16c-.1,0-.2-.1-.2-.1v-.8h.4v.8c.1.1-.1.1-.2.1M123.6,247.16h.2l-.1.4-.1-.4ZM123.8,247.86h0v-.2.2ZM123.6,247.16l.1-.2.1.2h-.2ZM123.6,246.46h.2l-.1.4-.1-.4ZM123.6,245.86h.2l-.1.2-.1-.2ZM123.8,246.36h-.2l.1-.2.1.2ZM123.6,245.66v-.7h.4v.7h-.4ZM123.5,247.16h0v-.6.6ZM123.5,247.16v.6l-.2-.6h.2ZM123.6,245.86l.1.2-.1.2v-.4ZM123.7,246.06l.1-.2v.5l-.1-.3ZM123.8,247.16h0l-.1.6.1-.6ZM123.8,247.16v-.6.6h0ZM123.9,245.86h0v.5-.5ZM123.5,246.36l-.1-.5h.1v.5ZM118.1,238.76h.9v.5h-.9v-.5ZM119.1,240.46h-.9v-.5h.9v.5ZM118.1,237.66h.9v.5h-.9v-.5ZM118.1,236.66h.8v.5h-.8v-.5ZM118.1,235.46h.8v.5h-.8v-.5ZM118.1,234.36h.8v.5h-.8v-.5ZM118.1,233.16h.8v.5h-.8v-.5ZM118.1,232.16h.8v.5h-.8v-.5ZM118.1,230.96h.8v.5h-.8v-.5ZM118.1,229.86h.8v.5h-.8v-.5ZM118.1,228.66h.8v.5h-.8v-.5ZM118.1,227.66h.8v.5h-.8v-.5ZM118.1,226.46h.8v.5h-.8v-.5ZM118.1,225.36h.8v.5h-.8v-.5ZM118.1,224.16h.8v.5h-.8v-.5ZM118.1,223.16h.8v.5h-.8v-.5ZM118.1,221.96h.8v.5h-.8v-.5ZM118.1,220.86h.8v.5h-.8v-.5ZM118.1,219.76h.8v.5h-.8v-.5ZM118.1,218.66h.8v.5h-.8v-.5ZM118.1,217.56h.8v.5h-.8v-.5ZM118.1,216.36h.8v.5h-.8v-.5ZM118.1,215.26h.8v.5h-.8v-.5ZM118.1,214.16h.8v.5h-.8v-.5ZM111.7,216.86h-1.5v-.5h1.5v.5ZM110.2,215.26h1.5v.5h-1.5v-.5ZM111.7,217.96h-1.5v-.5h1.5v.5ZM111.7,219.06h-1.5v-.5h1.5v.5ZM110.2,220.86h1.3v.2h-1.3v-.2ZM111.7,220.86h0v.2h0v-.2ZM110.9,219.76h.8v.2c-.2,0-.6-.2-.8-.2M111.7,214.56h-1.5v-.5h1.5v.5ZM107.5,214.16v.5h-1.5v.7h1.5v.5h-1.5v.7h1.5v.5h-1.5v.7h1.5v.5h-.9c-2.2-1.1-3.9-2.1-4.4-2.5h.1c0-.7.1-1.9.2-2.2h3.4v.9h1.5v-.3h.1ZM98.4,221.16h-2.1c.8-.6,1.5-1.2,2.1-1.8v1.8ZM101.7,221.16h-3.1v-1.9c1.5-1.3,2.6-2.4,3.1-3v4.9ZM105,221.16h-3.1v-5c.5.4,1.5.9,3.1,1.8v3.2ZM105.2,218.06c.2.1.5.2.8.4v.2h.6c.4.1.6.2.9.5h-1.4v.7h1.5v.5h-1.5v.7h1.5v.2h-2.2v-3.2h-.2ZM111.7,242.56h-1.5v-.5h1.5v.5ZM111.7,241.46h-1.5v-.5h1.5v.5ZM111.7,240.46h-1.5v-.5h1.5v.5ZM111.7,239.26h-1.5v-.5h1.5v.5ZM111.7,238.16h-1.5v-.5h1.5v.5ZM111.7,236.96h-1.5v-.5h1.5v.5ZM111.7,235.96h-1.5v-.5h1.5v.5ZM111.7,234.76h-1.5v-.5h1.5v.5ZM111.7,233.66h-1.5v-.5h1.5v.5ZM111.7,232.46h-1.5v-.5h1.5v.5ZM111.7,231.46h-1.5v-.5h1.5v.5ZM111.7,230.26h-1.5v-.5h1.5v.5ZM111.7,229.16h-1.5v-.5h1.5v.5ZM111.7,227.96h-1.5v-.4h1.5v.4ZM111.7,226.96h-1.5v-.5h1.5v.5ZM111.7,225.76h-1.5v-.5h1.5v.5ZM111.7,224.66h-1.5v-.5h1.5v.5ZM111.7,223.56h-1.5v-.5h1.5v.5ZM115.4,242.56h-1.5v-.5h1.5v.5ZM115.4,241.46h-1.5v-.5h1.5v.5ZM115.4,240.46h-1.5v-.5h1.5v.5ZM115.4,239.26h-1.5v-.5h1.5v.5ZM115.4,238.16h-1.5v-.5h1.5v.5ZM115.4,236.96h-1.5v-.5h1.5v.5ZM115.4,235.96h-1.5v-.5h1.5v.5ZM115.4,234.76h-1.5v-.5h1.5v.5ZM115.4,233.66h-1.5v-.5h1.5v.5ZM115.4,232.46h-1.5v-.5h1.5v.5ZM115.4,231.46h-1.5v-.5h1.5v.5ZM115.4,230.26h-1.5v-.5h1.5v.5ZM115.4,229.16h-1.5v-.5h1.5v.5ZM115.4,227.96h-1.5v-.4h1.5v.4ZM115.4,226.96h-1.5v-.5h1.5v.5ZM115.4,225.76h-1.5v-.5h1.5v.5ZM115.4,224.66h-1.5v-.5h1.5v.5ZM115.4,223.56h-1.5v-.5h1.5v.5ZM115.4,222.46h0v-.5h0v.5ZM115.4,221.36h0v-.1s0-.1-.1-.1c0-.1-.1-.1-.1-.2h.4v.5l-.2-.1h0ZM115.4,220.16h-1.5v-.5h1.5v.5ZM115.4,219.06h-1.5v-.5h1.5v.5ZM115.4,217.96h-1.5v-.5h1.5v.5ZM115.4,216.86h-1.5v-.5h1.5v.5ZM115.4,215.66h-1.5v-.5h1.5v.5ZM115.4,214.56h-1.5v-.5h1.5v.5ZM118.1,240.96h.9v.5h-.9v-.5ZM123.2,245.06h.2v.7h-.2v-.7ZM123.2,245.86h0l.2.6h-.1l-.1-.6ZM123.3,247.06v-.6h.1l-.1.6ZM123.3,247.26l.2.6h-.1l-.1-.6ZM123.3,247.86h0l.1.1-.1-.1h0ZM123.3,247.96h0l.1.1h-.1v-.1ZM123.3,248.26h0l.1.1h-.1v-.1ZM123.3,248.46h0l.1-.1-.1.1h0ZM123.6,247.06v-.5l.1.2-.1.3ZM123.6,247.26l.1.2-.1.2v-.4ZM123.8,248.46h0l-.1-.1.1.1h0ZM123.8,248.36h0l-.1-.1h.2l-.1.1ZM123.8,248.26h-.2v-.1h.2v.1ZM123.8,247.96h-.2v-.1l.2.1h0ZM123.8,247.76l-.1-.2.1-.2v.4ZM123.7,246.76l.1-.2v.5l-.1-.3ZM123.9,248.46h0l-.1-.1.1.1h0ZM123.9,248.36h0l-.1-.1h.1v.1ZM124,248.06h0l-.1-.1h.1v.1ZM124,247.96h0l-.1-.1.1.1h0ZM124,247.86h0l.1-.6-.1.6ZM124,247.06l-.1-.6h.1v.6ZM124,246.36h0l.1-.6h0l-.1.6ZM124.2,245.66h-.2v-.7h.2v.7ZM124.4,251.46h0l-.1-.7h.1v.7ZM124.4,250.56h0l-.1-.7h.1v.7ZM124.4,249.86h0l-.1-.7h.1v.7ZM124.4,249.06h0l-.1-.7h.1v.7ZM124.4,248.26h0l-.1-.7h.1v.7ZM124.4,247.36h0l-.1-.7h.1v.7ZM124.4,246.66h0l-.1-.7h.1v.7ZM124.4,245.86h0l-.1-.7h.1v.7ZM131,236.76s0,.1-.2.1c-.1,0-.2-.1-.2-.1v-.8h.4v.8h0ZM131,235.16s0,.1-.2.1c-.1,0-.2-.1-.2-.1v-.8h.4v.8h0ZM131,233.66s0,.1-.2.1c-.1,0-.2-.1-.2-.1v-.8h.4v.8h0ZM131,232.16s0,.1-.2.1c-.1,0-.2-.1-.2-.1v-.9h.4v.8h0v.1ZM131,230.56s0,.1-.2.1c-.1,0-.2-.1-.2-.1v-.8h.4v.8h0ZM131,229.06s0,.1-.2.1c-.1,0-.2-.1-.2-.1v-.8h.4v.8h0ZM131,227.46s0,.1-.2.1c-.1,0-.2-.1-.2-.1v-.8h.4v.8h0ZM131,225.96s0,.1-.2.1c-.1,0-.2-.1-.2-.1v-.8h.4v.8h0ZM131,224.46s0,.1-.2.1c-.1,0-.2-.1-.2-.1v-.8h.4v.8h0ZM131,222.86s0,.1-.2.1c-.1,0-.2-.1-.2-.1v-.8h.4v.8h0ZM131,221.36s0,.1-.2.1c-.1,0-.2-.1-.2-.1v-.8h.4v.8h0ZM131,219.76s0,.1-.2.1c-.1,0-.2-.1-.2-.1v-.8h.4v.8h0ZM131,218.26s0,.1-.2.1c-.1,0-.2-.1-.2-.1v-.8h.4v.8h0ZM131,216.76s0,.1-.2.1c-.1,0-.2-.1-.2-.1v-.8h.4v.8h0ZM131,215.16s0,.1-.2.1c-.1,0-.2-.1-.2-.1v-.8h.4v.8h0ZM131.6,236.76s0,.1-.2.1c-.1,0-.2-.1-.2-.1v-.8h.4v.8h0ZM131.6,235.16s0,.1-.2.1c-.1,0-.2-.1-.2-.1v-.8h.4v.8h0ZM131.6,233.66s0,.1-.2.1c-.1,0-.2-.1-.2-.1v-.8h.4v.8h0ZM131.6,232.16s0,.1-.2.1c-.1,0-.2-.1-.2-.1v-.9h.4v.8h0v.1ZM131.6,230.56s0,.1-.2.1c-.1,0-.2-.1-.2-.1v-.8h.4v.8h0ZM131.6,229.06s0,.1-.2.1c-.1,0-.2-.1-.2-.1v-.8h.4v.8h0ZM131.6,227.46s0,.1-.2.1c-.1,0-.2-.1-.2-.1v-.8h.4v.8h0ZM131.6,225.96s0,.1-.2.1c-.1,0-.2-.1-.2-.1v-.8h.4v.8h0ZM131.6,224.46s0,.1-.2.1c-.1,0-.2-.1-.2-.1v-.8h.4v.8h0ZM131.6,222.86s0,.1-.2.1c-.1,0-.2-.1-.2-.1v-.8h.4v.8h0ZM131.6,221.36s0,.1-.2.1c-.1,0-.2-.1-.2-.1v-.8h.4v.8h0ZM131.6,219.76s0,.1-.2.1c-.1,0-.2-.1-.2-.1v-.8h.4v.8h0ZM131.6,218.26s0,.1-.2.1c-.1,0-.2-.1-.2-.1v-.8h.4v.8h0ZM131.6,216.76s0,.1-.2.1c-.1,0-.2-.1-.2-.1v-.8h.4v.8h0ZM131.6,215.16s0,.1-.2.1c-.1,0-.2-.1-.2-.1v-.8h.4v.8h0ZM133.2,236.76h-.2v-.8h.2v.8ZM133.2,235.16h-.2v-.8h.2v.8ZM133.2,233.66h-.2v-.8h.2v.8ZM133.2,232.16h-.2v-.9h.2v.9ZM133.2,230.56h-.2v-.8h.2v.8ZM133.2,229.06h-.2v-.8h.2v.8ZM133.2,227.46h-.2v-.8h.2v.8ZM133.2,225.96h-.2v-.8h.2v.8ZM133.2,224.46h-.2v-.8h.2v.8ZM133.2,222.86h-.2v-.8h.2v.8ZM133.2,221.36h-.2v-.8h.2v.8ZM133.2,219.76h-.2v-.8h.2v.8ZM133.2,218.26h-.2v-.8h.2v.8ZM133.2,216.76h-.2v-.8h.2v.8ZM133.2,215.16h-.2v-.8h.2v.8ZM133.6,236.76h-.4v-.8h.4v.8ZM133.6,235.16h-.4v-.8h.4v.8ZM133.6,233.66h-.4v-.8h.4v.8ZM133.6,232.16h-.4v-.9h.4v.9ZM133.6,230.56h-.4v-.8h.4v.8ZM133.6,229.06h-.4v-.8h.4v.8ZM133.6,227.46h-.4v-.8h.4v.8ZM133.6,225.96h-.4v-.8h.4v.8ZM133.6,224.46h-.4v-.8h.4v.8ZM133.6,222.86h-.4v-.8h.4v.8ZM133.6,221.36h-.4v-.8h.4v.8ZM133.6,219.76h-.4v-.8h.4v.8ZM133.6,218.26h-.4v-.8h.4v.8ZM133.6,216.76h-.4v-.8h.4v.8ZM133.6,215.16h-.4v-.8h.4v.8ZM134.1,236.76h-.2v-.8h.2v.8ZM134.1,235.16h-.2v-.8h.2v.8ZM134.1,233.66h-.2v-.8h.2v.8ZM134.1,232.16h-.2v-.9h.2v.9ZM134.1,230.56h-.2v-.8h.2v.8ZM134.1,229.06h-.2v-.8h.2v.8ZM134.1,227.46h-.2v-.8h.2v.8ZM134.1,225.96h-.2v-.8h.2v.8ZM134.1,224.46h-.2v-.8h.2v.8ZM134.1,222.86h-.2v-.8h.2v.8ZM134.1,221.36h-.2v-.8h.2v.8ZM134.1,219.76h-.2v-.8h.2v.8ZM134.1,218.26h-.2v-.8h.2v.8ZM134.1,216.76h-.2v-.8h.2v.8ZM134.1,215.16h-.2v-.8h.2v.8ZM135.4,236.76h-.2v-.8h.2v.8ZM135.4,235.16h-.2v-.8h.2v.8ZM135.4,233.66h-.2v-.8h.2v.8ZM135.4,232.16h-.2v-.9h.2v.9ZM135.4,230.56h-.2v-.8h.2v.8ZM135.4,229.06h-.2v-.8h.2v.8ZM135.4,227.46h-.2v-.8h.2v.8ZM135.4,225.96h-.2v-.8h.2v.8ZM135.4,224.46h-.2v-.8h.2v.8ZM135.4,222.86h-.2v-.8h.2v.8ZM135.4,221.36h-.2v-.8h.2v.8ZM135.4,219.76h-.2v-.8h.2v.8ZM135.4,218.26h-.2v-.8h.2v.8ZM135.4,216.76h-.2v-.8h.2v.8ZM135.4,215.16h-.2v-.8h.2v.8ZM136,236.76h-.4v-.8h.4v.8ZM136,235.16h-.4v-.8h.4v.8ZM136,233.66h-.4v-.8h.4v.8ZM136,232.16h-.4v-.9h.4v.9ZM136,230.56h-.4v-.8h.4v.8ZM136,229.06h-.4v-.8h.4v.8ZM136,227.46h-.4v-.8h.4v.8ZM136,225.96h-.4v-.8h.4v.8ZM136,224.46h-.4v-.8h.4v.8ZM136,222.86h-.4v-.8h.4v.8ZM136,221.36h-.4v-.8h.4v.8ZM136,219.76h-.4v-.8h.4v.8ZM136,218.26h-.4v-.8h.4v.8ZM136,216.76h-.4v-.8h.4v.8ZM136,215.16h-.4v-.8h.4v.8ZM136.5,236.76h-.2v-.8h.2v.8ZM136.5,235.16h-.2v-.8h.2v.8ZM136.5,233.66h-.2v-.8h.2v.8ZM136.5,232.16h-.2v-.9h.2v.9ZM136.5,230.56h-.2v-.8h.2v.8ZM136.5,229.06h-.2v-.8h.2v.8ZM136.5,227.46h-.2v-.8h.2v.8ZM136.5,225.96h-.2v-.8h.2v.8ZM136.5,224.46h-.2v-.8h.2v.8ZM136.5,222.86h-.2v-.8h.2v.8ZM136.5,221.36h-.2v-.8h.2v.8ZM136.5,219.76h-.2v-.8h.2v.8ZM136.5,218.26h-.2v-.8h.2v.8ZM136.5,216.76h-.2v-.8h.2v.8ZM136.5,215.16h-.2v-.8h.2v.8ZM137.8,236.76h-.2v-.8h.2v.8ZM137.8,235.16h-.2v-.8h.2v.8ZM137.8,233.66h-.2v-.8h.2v.8ZM137.8,232.16h-.2v-.9h.2v.9ZM137.8,230.56h-.2v-.8h.2v.8ZM137.8,229.06h-.2v-.8h.2v.8ZM137.8,227.46h-.2v-.8h.2v.8ZM137.8,225.96h-.2v-.8h.2v.8ZM137.8,224.46h-.2v-.8h.2v.8ZM137.8,222.86h-.2v-.8h.2v.8ZM137.8,221.36h-.2v-.8h.2v.8ZM137.8,219.76h-.2v-.8h.2v.8ZM137.8,218.26h-.2v-.8h.2v.8ZM137.8,216.76h-.2v-.8h.2v.8ZM137.8,215.16h-.2v-.8h.2v.8ZM138.3,236.76h-.4v-.8h.4v.8ZM138.3,235.16h-.4v-.8h.4v.8ZM138.3,233.66h-.4v-.8h.4v.8ZM138.3,232.16h-.4v-.9h.4v.9ZM138.3,230.56h-.4v-.8h.4v.8ZM138.3,229.06h-.4v-.8h.4v.8ZM138.3,227.46h-.4v-.8h.4v.8ZM138.3,225.96h-.4v-.8h.4v.8ZM138.3,224.46h-.4v-.8h.4v.8ZM138.3,222.86h-.4v-.8h.4v.8ZM138.3,221.36h-.4v-.8h.4v.8ZM138.3,219.76h-.4v-.8h.4v.8ZM138.3,218.26h-.4v-.8h.4v.8ZM138.3,216.76h-.4v-.8h.4v.8ZM138.3,215.16h-.4v-.8h.4v.8ZM138.7,236.76h-.2v-.8h.2v.8ZM138.7,235.16h-.2v-.8h.2v.8ZM138.7,233.66h-.2v-.8h.2v.8ZM138.7,232.16h-.2v-.9h.2v.9ZM138.7,230.56h-.2v-.8h.2v.8ZM138.7,229.06h-.2v-.8h.2v.8ZM138.7,227.46h-.2v-.8h.2v.8ZM138.7,225.96h-.2v-.8h.2v.8ZM138.7,224.46h-.2v-.8h.2v.8ZM138.7,222.86h-.2v-.8h.2v.8ZM138.7,221.36h-.2v-.8h.2v.8ZM138.7,219.76h-.2v-.8h.2v.8ZM138.7,218.26h-.2v-.8h.2v.8ZM138.7,216.76h-.2v-.8h.2v.8ZM138.7,215.16h-.2v-.8h.2v.8ZM139,242.76v-.3.3c.1,0,0,0,0,0h0M139.1,243.16h0q-.1,0,0,0v-.1h0v.1ZM139.2,243.16h0v-.1h0v.1ZM139.2,242.76h0l-.1-.2v-.1.3h.1ZM139.4,243.16h0q-.1,0,0,0v-.1h0v.1ZM139.4,242.76h0s-.1,0,0,0l-.1-.2v-.1.3h.1ZM140,240.46s0,.1,0,0c-.2.1-.2,0-.2,0v-.8h.2v.8ZM140,238.96h-.2v-.8h.2v.8ZM140,236.76h-.2v-.8h.2v.8ZM140,235.16h-.2v-.8h.2v.8ZM140,233.66h-.2v-.8h.2v.8ZM140,232.16h-.2v-.9h.2v.9ZM140,230.56h-.2v-.8h.2v.8ZM140,229.06h-.2v-.8h.2v.8ZM140,227.46h-.2v-.8h.2v.8ZM140,225.96h-.2v-.8h.2v.8ZM140,224.46h-.2v-.8h.2v.8ZM140,222.86h-.2v-.8h.2v.8ZM140,221.36h-.2v-.8h.2v.8ZM140,219.76h-.2v-.8h.2v.8ZM140,218.26h-.2v-.8h.2v.8ZM140,216.76h-.2v-.8h.2v.8ZM140,215.16h-.2v-.8h.2v.8ZM140.6,240.46s0,.1-.1.1-.1-.1-.1-.1v-.8h.4v.8h-.2ZM140.6,238.96h-.4v-.8h.4v.8ZM140.6,236.76h-.4v-.8h.4v.8ZM140.6,235.16h-.4v-.8h.4v.8ZM140.6,233.66h-.4v-.8h.4v.8ZM140.6,232.16h-.4v-.9h.4v.9ZM140.6,230.56h-.4v-.8h.4v.8ZM140.6,229.06h-.4v-.8h.4v.8ZM140.6,227.46h-.4v-.8h.4v.8ZM140.6,225.96h-.4v-.8h.4v.8ZM140.6,224.46h-.4v-.8h.4v.8ZM140.6,222.86h-.4v-.8h.4v.8ZM140.6,221.36h-.4v-.8h.4v.8ZM140.6,219.76h-.4v-.8h.4v.8ZM140.6,218.26h-.4v-.8h.4v.8ZM140.6,216.76h-.4v-.8h.4v.8ZM140.6,215.16h-.4v-.8h.4v.8ZM141.1,240.46s0,.1,0,0c-.2.1-.2,0-.2,0v-.8h.2v.8ZM141.1,238.96h-.2v-.8h.2v.8ZM141.1,236.76h-.2v-.8h.2v.8ZM141.1,235.16h-.2v-.8h.2v.8ZM141.1,233.66h-.2v-.8h.2v.8ZM141.1,232.16h-.2v-.9h.2v.9ZM141.1,230.56h-.2v-.8h.2v.8ZM141.1,229.06h-.2v-.8h.2v.8ZM141.1,227.46h-.2v-.8h.2v.8ZM141.1,225.96h-.2v-.8h.2v.8ZM141.1,224.46h-.2v-.8h.2v.8ZM141.1,222.86h-.2v-.8h.2v.8ZM141.1,221.36h-.2v-.8h.2v.8ZM141.1,219.76h-.2v-.8h.2v.8ZM141.1,218.26h-.2v-.8h.2v.8ZM141.1,216.76h-.2v-.8h.2v.8ZM141.1,215.16h-.2v-.8h.2v.8ZM141.2,246.06s0,.2,0,0c-.1.2-.1,0,0,0l-.1-.2h.1v.2ZM141.2,245.76s0,.1,0,0c-.1.1-.1,0,0,0l-.1-.2h.1v.2ZM141.2,245.26s0,.1,0,0c-.1.1-.1,0,0,0l-.1-.2h.1v.2ZM141.3,246.56h0l-.1-.2h.1v.2ZM141.5,246.06s0,.2,0,0c-.2.2-.2,0,0,0l-.1-.2h.1v.2ZM141.5,245.76s0,.1,0,0c-.2.1-.2,0,0,0l-.1-.2h.1v.2ZM141.5,245.26s0,.1,0,0c-.2.1-.2,0,0,0l-.1-.2h.1v.2ZM141.6,246.06s0,.2,0,0c-.1.2-.1,0,0,0l-.1-.2h.1v.2ZM141.6,245.76s0,.1,0,0c-.1.1-.1,0,0,0l-.1-.2h.1v.2ZM141.6,245.26s0,.1,0,0c-.1.1-.1,0,0,0l-.1-.2h.1v.2ZM141.8,240.46s0,.1,0,0c-.2.1-.2,0-.2,0v-.8h.2v.8ZM141.8,238.96h-.2v-.8h.2v.8ZM141.8,236.76v-.8h.4v.8s0,.1-.2.1l-.2-.1M142.4,240.46s0,.1-.1.1-.1-.1-.1-.1v-.8h.4v.8h-.2ZM142.4,238.96h-.4v-.8h.4v.8ZM142.4,236.76v-.8h.4v.8s0,.1-.2.1l-.2-.1M142.9,240.46s0,.1,0,0c-.2.1-.2,0-.2,0v-.8h.2v.8ZM142.9,238.96h-.2v-.8h.2v.8ZM143.2,242.76v-.3.3q.2,0,0,0h0M143.4,243.16h0v-.1h0v.1ZM143.6,243.16s-.1,0,0,0q-.1,0,0,0v-.1h0v.1ZM143.6,242.76h0q-.1,0,0,0l-.1-.2v-.1.3h.1ZM143.7,243.16h0s-.1,0,0,0v-.1h0v.1ZM143.7,242.76h0l-.1-.2v-.1.3h.1ZM146.3,249.56c-.1,0-.1-.1,0,0h0ZM152.2,257.46h-.5v-1.1h.5v1.1ZM159.2,244.46h-.2v-.7h.2v.7ZM159.2,243.16h-.2v-.7h.2v.7ZM159.2,241.86h-.2v-.7h.2v.7ZM159.2,240.56h-.2v-.7h.2v.7ZM159.2,239.36h-.2v-.7h.2v.7ZM159.2,238.06h-.2v-.7h.2v.7ZM159.2,236.76h-.2v-.7h.2v.7ZM159.2,235.46h-.2v-.7h.2v.7ZM159.2,234.16h-.2v-.7h.2v.7ZM159.2,232.86h-.2v-.7h.2v.7ZM159.2,231.56h-.2v-.7h.2v.7ZM159.2,230.36h-.2v-.7h.2v.7ZM159.2,229.06h-.2v-.7h.2v.7ZM159.2,227.76h-.2v-.7h.2v.7ZM159.2,226.46h-.2v-.7h.2v.7ZM159.2,225.16h-.2v-.7h.2v.7ZM159.2,223.86h-.2v-.7h.2v.7ZM159.2,222.66h-.2v-.7h.2v.7ZM159.2,221.36h-.2v-.7h.2v.7ZM159.2,220.06h-.2v-.7h.2v.7ZM159.2,218.76h-.2v-.7h.2v.7ZM159.2,217.46h-.2v-.7h.2v.7ZM159.2,216.16h-.2v-.7h.2v.7ZM159.2,214.96h-.2v-.7h.2v.7ZM159.9,244.56h-.2v-.7h.2v.7ZM159.9,243.26h-.2v-.7h.2v.7ZM159.9,241.96h-.2v-.7h.2v.7ZM159.9,240.66h-.2v-.7h.2v.7ZM159.9,239.36h-.2v-.7h.2v.7ZM159.9,238.16h-.2v-.7h.2v.7ZM159.9,236.86h-.2v-.7h.2v.7ZM159.9,235.56h-.2v-.7h.2v.7ZM159.9,234.26h-.2v-.7h.2v.7ZM159.9,232.96h-.2v-.7h.2v.7ZM159.9,231.66h-.2v-.7h.2v.7ZM159.9,230.36h-.2v-.7h.2v.7ZM159.9,229.06h-.2v-.7h.2v.7ZM159.9,227.76h-.2v-.7h.2v.7ZM159.9,226.56h-.2v-.7h.2v.7ZM159.9,225.26h-.2v-.7h.2v.7ZM159.9,223.96h-.2v-.7h.2v.7ZM159.9,222.66h-.2v-.7h.2v.7ZM159.9,221.36h-.2v-.7h.2v.7ZM159.9,220.06h-.2v-.7h.2v.7ZM159.9,218.76h-.2v-.6h.2v.6ZM159.9,217.46h-.2v-.7h.2v.7ZM159.9,216.16h-.2v-.7h.2v.7ZM159.9,214.96h-.2v-.7h.2v.7ZM160.6,244.66h-.2v-.7h.2v.7ZM160.6,243.36h-.2v-.7h.2v.7ZM160.6,242.06h-.2v-.7h.2v.7ZM160.6,240.76h-.2v-.7h.2v.7ZM160.6,239.46h-.2v-.7h.2v.7ZM160.6,238.16h-.2v-.7h.2v.7ZM160.6,236.96h-.2v-.7h.2v.7ZM160.6,235.66h-.2v-.7h.2v.7ZM160.6,234.36h-.2v-.7h.2v.7ZM160.6,233.06h-.2v-.7h.2v.7ZM160.6,231.76h-.2v-.7h.2v.7ZM160.6,230.46h-.2v-.7h.2v.7ZM160.6,229.16h-.2v-.7h.2v.7ZM160.6,227.86h-.2v-.7h.2v.7ZM160.6,226.56h-.2v-.7h.2v.7ZM160.6,225.26h-.2v-.7h.2v.7ZM160.6,223.96h-.2v-.7h.2v.7ZM160.6,222.66h-.2v-.7h.2v.7ZM160.6,221.36h-.2v-.7h.2v.7ZM160.6,220.06h-.2v-.7h.2v.7ZM160.6,218.76h-.2v-.6h.2v.6ZM160.6,217.46h-.2v-.7h.2v.7ZM160.6,216.16h-.2v-.7h.2v.7ZM160.6,214.96h-.2v-.7h.2v.7ZM161.2,244.76h-.2v-.7h.2v.7ZM161.2,243.46h-.2v-.7h.2v.7ZM161.2,242.16h-.2v-.7h.2v.7ZM161.2,240.86h-.2v-.7h.2v.7ZM161.2,239.56h-.2v-.7h.2v.7ZM161.2,238.26h-.2v-.7h.2v.7ZM161.2,236.96h-.2v-.7h.2v.7ZM161.2,235.66h-.2v-.7h.2v.7ZM161.2,234.36h-.2v-.7h.2v.7ZM161.2,233.06h-.2v-.7h.2v.7ZM161.2,231.76h-.2v-.6h.2v.6ZM161.2,230.46h-.2v-.7h.2v.7ZM161.2,229.16h-.2v-.7h.2v.7ZM161.2,227.86h-.2v-.7h.2v.7ZM161.2,226.56h-.2v-.7h.2v.7ZM161.2,225.26h-.2v-.7h.2v.7ZM161.2,223.96h-.2v-.7h.2v.7ZM161.2,222.66h-.2v-.7h.2v.7ZM161.2,221.36h-.2v-.7h.2v.7ZM161.2,220.06h-.2v-.7h.2v.7ZM161.2,218.76h-.2v-.6h.2v.6ZM161.2,217.46h-.2v-.7h.2v.7ZM161.2,216.26h-.2v-.7h.2v.7ZM161.2,214.96h-.2v-.7h.2v.7ZM161.8,214.26h.7v.7h-.7v-.7ZM161.8,215.56h.7v.7h-.7v-.7ZM161.8,216.86h.7v.7h-.7v-.7ZM161.8,218.16h.7v.7h-.7v-.7ZM161.8,219.46h.7v.7h-.7v-.7ZM161.8,220.76h.7v.7h-.7v-.7ZM161.8,222.06h.7v.7h-.7v-.7ZM161.8,223.36h.7v.7h-.7v-.7ZM161.8,224.66h.7v.7h-.7v-.7ZM161.8,225.96h.7v.7h-.7v-.7ZM161.8,227.26h.7v.7h-.7v-.7ZM161.8,228.56h.7v.7h-.7v-.7ZM161.8,229.86h.7v.7h-.7v-.7ZM161.8,231.16h.7v.7h-.7v-.7ZM161.8,232.46h.7v.7h-.7v-.7ZM161.8,233.76h.7v.7h-.7v-.7ZM161.8,235.06h.7v.7h-.7v-.7ZM161.8,236.36h.7v.7h-.7v-.7ZM161.8,237.66h.7v.7h-.7v-.7ZM161.8,238.96h.7v.7h-.7v-.7ZM161.8,240.26h.7v.7h-.7v-.7ZM161.8,241.56h.7v.7h-.7v-.7ZM161.8,242.86h.7v.7h-.7v-.7ZM161.8,244.16h.7v.7h-.7v-.7ZM162.5,246.06h-.7v-.7h.7v.7ZM162.8,214.26h.1v.7h-.1v-.7ZM162.8,215.56h.1v.7h-.1v-.7ZM162.8,216.86h.1v.7h-.1v-.7ZM162.8,218.16h.1v.7h-.1v-.7ZM162.8,219.46h.1v.7h-.1v-.7ZM162.8,220.76h.1v.7h-.1v-.7ZM162.8,222.06h.1v.7h-.1v-.7ZM162.8,223.36h.1v.7h-.1v-.7ZM162.8,224.66h.1v.7h-.1v-.7ZM162.8,225.96h.1v.7h-.1v-.7ZM162.8,227.26h.1v.7h-.1v-.7ZM162.8,228.56h.1v.7h-.1v-.7ZM162.8,229.86h.1v.7h-.1v-.7ZM162.8,231.16h.1v.7h-.1v-.7ZM162.8,232.46h.1v.7h-.1v-.7ZM162.8,233.76h.1v.7h-.1v-.7ZM162.8,235.06h.1v.7h-.1v-.7ZM162.8,236.36h.1v.7h-.1v-.7ZM162.8,237.66h.1v.7h-.1v-.7ZM162.8,238.96h.1v.7h-.1v-.7ZM162.8,240.26h.1v.7h-.1v-.7ZM162.8,241.56h.1v.7h-.1v-.7ZM162.8,242.86h.1v.7h-.1v-.7ZM162.8,244.06h.1v.7h-.1v-.7ZM163,246.06h-.1v-.7h.1v.7ZM163.4,214.26h.7v.7h-.7v-.7ZM163.4,215.56h.7v.7h-.7v-.7ZM163.4,216.86h.7v.7h-.7v-.7ZM163.4,218.16h.7v.7h-.7v-.7ZM163.4,219.46h.7v.7h-.7v-.7ZM163.4,220.76h.7v.7h-.7v-.7ZM163.4,222.06h.7v.7h-.7v-.7ZM163.4,223.36h.7v.7h-.7v-.7ZM163.4,224.66h.7v.7h-.7v-.7ZM163.4,225.96h.7v.7h-.7v-.7ZM163.4,227.26h.7v.7h-.7v-.7ZM163.4,228.56h.7v.7h-.7v-.7ZM163.4,229.86h.7v.7h-.7v-.7ZM163.4,231.16h.7v.7h-.7v-.7ZM163.4,232.36h.7v.7h-.7v-.7ZM163.4,233.66h.7v.7h-.7v-.7ZM163.4,234.96h.7v.7h-.7v-.7ZM163.4,236.26h.7v.7h-.7v-.7ZM163.4,237.56h.7v.7h-.7v-.7ZM163.4,238.86h.7v.7h-.7v-.7ZM163.4,240.16h.7v.7h-.7v-.7ZM163.4,241.46h.7v.7h-.7v-.7ZM163.4,242.76h.7v.7h-.7v-.7ZM164.1,244.06v.7h-.7v-.7h.7ZM164.1,245.96h-.7v-.6h.7v.6ZM164.3,214.26h.1v.7h-.1v-.7ZM164.3,215.56h.1v.7h-.1v-.7ZM164.3,216.86h.1v.7h-.1v-.7ZM164.4,218.16v.7h-.1v-.7h.1ZM164.3,219.46h.1v.7h-.1v-.7ZM164.3,220.76h.1v.7h-.1v-.7ZM164.3,222.06h.1v.7h-.1v-.7ZM164.3,223.36h.1v.7h-.1v-.7ZM164.3,224.66h.1v.7h-.1v-.7ZM164.3,225.86h.1v.7h-.1v-.7ZM164.3,227.16h.1v.7h-.1v-.7ZM164.3,228.46h.1v.7h-.1v-.7ZM164.3,229.76h.1v.7h-.1v-.7ZM164.3,231.06h.1v.7h-.1v-.7ZM164.3,232.36h.1v.7h-.1v-.7ZM164.3,233.66h.1v.7h-.1v-.7ZM164.3,234.96h.1v.7h-.1v-.7ZM164.3,236.26h.1v.7h-.1v-.7ZM164.3,237.56h.1v.7h-.1v-.7ZM164.3,238.86h.1v.7h-.1v-.7ZM164.3,240.16h.1v.7h-.1v-.7ZM164.3,241.46h.1v.7h-.1v-.7ZM164.3,242.76h.1v.7h-.1v-.7ZM164.3,244.06h.1v.7h-.1v-.7ZM164.5,245.96h-.1v-.6h.1v.6ZM164.9,214.26h.7v.7h-.7v-.7ZM164.9,215.56h.7v.7h-.7v-.7ZM164.9,216.86h.7v.7h-.7v-.7ZM164.9,218.16h.7v.7h-.7v-.7ZM164.9,219.46h.7v.7h-.7v-.7ZM164.9,220.76h.7v.7h-.7v-.7ZM164.9,222.06h.7v.7h-.7v-.7ZM164.9,223.36h.7v.7h-.7v-.7ZM164.9,224.56h.7v.7h-.7v-.7ZM164.9,225.86h.7v.7h-.7v-.7ZM164.9,227.16h.7v.7h-.7v-.7ZM164.9,228.46h.7v.7h-.7v-.7ZM164.9,229.76h.7v.7h-.7v-.7ZM164.9,231.06h.7v.7h-.7v-.7ZM164.9,232.36h.7v.7h-.7v-.7ZM164.9,233.66h.7v.7h-.7v-.7ZM164.9,234.96h.7v.7h-.7v-.7ZM164.9,236.26h.7v.7h-.7v-.7ZM164.9,237.56h.7v.7h-.7v-.7ZM164.9,238.86h.7v.7h-.7v-.7ZM165.6,240.06v.7h-.7v-.7h.7ZM164.9,241.46h.7v.7h-.7v-.7ZM164.9,242.76h.7v.7h-.7v-.7ZM164.9,243.96h.7v.7h-.7v-.7ZM165.6,245.96h-.7v-.7h.7v.7ZM165.8,214.26h.1v.7h-.1v-.7ZM165.8,215.56h.1v.7h-.1v-.7ZM165.8,216.86h.1v.7h-.1v-.7ZM165.8,218.16h.1v.7h-.1v-.7ZM165.8,219.46h.1v.7h-.1v-.7ZM165.8,220.76h.1v.7h-.1v-.7ZM165.8,221.96h.1v.7h-.1v-.7ZM165.8,223.26h.1v.7h-.1v-.7ZM165.8,224.56h.1v.7h-.1v-.7ZM165.8,225.86h.1v.7h-.1v-.7ZM165.8,227.16h.1v.7h-.1v-.7ZM165.8,228.46h.1v.7h-.1v-.7ZM165.8,229.76h.1v.7h-.1v-.7ZM165.8,231.06h.1v.7h-.1v-.7ZM165.8,232.36h.1v.7h-.1v-.7ZM165.8,233.66h.1v.7h-.1v-.7ZM165.8,234.96h.1v.7h-.1v-.7ZM165.8,236.26h.1v.7h-.1v-.7ZM165.8,237.46h.1v.7h-.1v-.7ZM165.8,238.76h.1v.7h-.1v-.7ZM165.8,240.06h.1v.7h-.1v-.7ZM165.8,241.36h.1v.7h-.1v-.7ZM165.8,242.66h.1v.7h-.1v-.7ZM165.8,243.96h.1v.7h-.1v-.7ZM166.1,245.86h-.1v-.7h.1v.7ZM166.4,214.26h.7v.7h-.7v-.7ZM166.4,215.56h.7v.7h-.7v-.7ZM166.4,216.86h.7v.7h-.7v-.7ZM166.4,218.16h.7v.7h-.7v-.7ZM166.4,219.46h.7v.7h-.7v-.7ZM166.4,220.66h.7v.7h-.7v-.7ZM167.2,221.96v.7h-.7v-.7h.7ZM166.4,223.26h.7v.7h-.7v-.7ZM166.4,224.56h.7v.7h-.7v-.7ZM166.4,225.86h.7v.7h-.7v-.7ZM166.4,227.16h.7v.7h-.7v-.7ZM166.4,228.46h.7v.7h-.7v-.7ZM166.4,229.76h.7v.7h-.7v-.7ZM166.4,231.06h.7v.7h-.7v-.7ZM166.4,232.36h.7v.7h-.7v-.7ZM166.4,233.66h.7v.7h-.7v-.7ZM166.4,234.86h.7v.7h-.7v-.7ZM166.4,236.16h.7v.7h-.7v-.7ZM166.4,237.46h.7v.7h-.7v-.7ZM166.4,238.76h.7v.7h-.7v-.7ZM166.4,240.06h.7v.7h-.7v-.7ZM166.4,241.36h.7v.7h-.7v-.7ZM166.4,242.66h.7v.7h-.7v-.7ZM166.4,243.96h.7v.7h-.7v-.7ZM167.2,245.86h-.7v-.7h.7v.7ZM167.4,214.26h.1v.7h-.1v-.7ZM167.4,215.56h.1v.7h-.1v-.7ZM167.4,216.86h.1v.7h-.1v-.7ZM167.4,218.16h.1v.7h-.1v-.7ZM167.4,219.46h.1v.7h-.1v-.7ZM167.4,220.66h.1v.7h-.1v-.7ZM167.5,221.96v.7h-.1v-.7h.1ZM167.4,223.26h.1v.7h-.1v-.7ZM167.4,224.56h.1v.7h-.1v-.7ZM167.4,225.86h.1v.7h-.1v-.7ZM167.4,227.16h.1v.7h-.1v-.7ZM167.4,228.46h.1v.7h-.1v-.7ZM167.4,229.76h.1v.7h-.1v-.7ZM167.4,230.96h.1v.7h-.1v-.7ZM167.4,232.26h.1v.7h-.1v-.7ZM167.4,233.56h.1v.7h-.1v-.7ZM167.4,234.86h.1v.7h-.1v-.7ZM167.4,236.16h.1v.7h-.1v-.7ZM167.4,237.46h.1v.7h-.1v-.7ZM167.4,238.76h.1v.7h-.1v-.7ZM167.4,240.06h.1v.7h-.1v-.7ZM167.4,241.36h.1v.7h-.1v-.7ZM167.4,242.56h.1v.7h-.1v-.7ZM167.4,243.86h.1v.7h-.1v-.7ZM167.6,245.86h-.1v-.7h.1v.7ZM168,214.26h.7v.7h-.7v-.7ZM168,215.56h.7v.7h-.7v-.7ZM168,216.86h.7v.7h-.7v-.7ZM168,218.16h.7v.7h-.7v-.7ZM168,219.36h.7v.7h-.7v-.7ZM168,220.66h.7v.7h-.7v-.7ZM168.7,221.96v.7h-.7v-.7h.7ZM168,223.26h.7v.7h-.7v-.7ZM168,224.56h.7v.7h-.7v-.7ZM168,225.86h.7v.7h-.7v-.7ZM168,227.16h.7v.7h-.7v-.7ZM168,228.46h.7v.7h-.7v-.7ZM168,229.66h.7v.7h-.7v-.7ZM168,233.56h.7v.7h-.7v-.7ZM168,234.86h.7v.7h-.7v-.7ZM168,236.16h.7v.7h-.7v-.7ZM168,237.46h.7v.7h-.7v-.7ZM168,238.76h.7v.7h-.7v-.7ZM168,239.96h.7v.7h-.7v-.7ZM168,241.26h.7v.7h-.7v-.7ZM168.7,242.56v.7h-.7v-.7h.7ZM168,243.86h.7v.7h-.7v-.7ZM168.7,245.76h-.7v-.7h.7v.7ZM168.9,214.26h.1v.7h-.1v-.7ZM168.9,215.56h.1v.7h-.1v-.7ZM168.9,216.86h.1v.7h-.1v-.7ZM168.9,218.16h.1v.7h-.1v-.7ZM168.9,219.36h.1v.7h-.1v-.7ZM168.9,220.66h.1v.7h-.1v-.7ZM168.9,221.96h.1v.7h-.1v-.7ZM168.9,223.26h.1v.7h-.1v-.7ZM168.9,224.56h.1v.7h-.1v-.7ZM168.9,225.86h.1v.7h-.1v-.7ZM168.9,227.06h.1v.7h-.1v-.7ZM168.9,228.36h.1v.7h-.1v-.7ZM168.9,229.66h.1v.7h-.1v-.7ZM168.9,230.96h.1v.7h-.1v-.7ZM168.9,232.26h.1v.7h-.1v-.7ZM169,233.56v.7h-.1v-.7h.1ZM168.9,234.86h.1v.7h-.1v-.7ZM168.9,236.06h.1v.7h-.1v-.7ZM168.9,237.36h.1v.7h-.1v-.7ZM168.9,238.66h.1v.7h-.1v-.7ZM168.9,239.96h.1v.7h-.1v-.7ZM168.9,241.26h.1v.7h-.1v-.7ZM168.9,242.56h.1v.7h-.1v-.7ZM169.2,245.76h-.2v-.7h.1l.1.7h0ZM169.2,244.46h-.2v-.7h.1l.1.7h0ZM169.5,214.26h.7v.7h-.7v-.7ZM169.5,215.56h.7v.7h-.7v-.7ZM170.2,216.86v.7h-.7v-.7h.7ZM169.5,218.06h.7v.7h-.7v-.7ZM169.5,219.36h.7v.7h-.7v-.7ZM169.5,221.96h.7v.7h-.7v-.7ZM169.5,224.56h.7v.7h-.7v-.7ZM170.2,227.06v.7h-.7v-.7h.7ZM169.5,225.86h.7v.7h-.7v-.7ZM169.5,228.36h.7v.7h-.7v-.7ZM170.2,229.66v.7h-.7v-.7h.7ZM169.5,230.96h.7v.7h-.7v-.7ZM169.5,232.26h.7v.7h-.7v-.7ZM170.2,233.46v.7h-.7v-.6l.7-.1ZM169.5,234.76h.7v.7h-.7v-.7ZM169.5,236.06h.7v.7h-.7v-.7ZM170.2,237.36v.7h-.7v-.7h.7ZM169.5,238.66h.7v.7h-.7v-.7ZM170.2,239.86v.7h-.7v-.7h.7ZM169.5,241.26h.7v.7h-.7v-.7ZM169.5,242.46h.7v.7h-.7v-.7ZM170.2,245.66h-.7v-.7h.7v.7ZM170.2,244.36h-.7v-.7h.7v.7ZM170.5,214.26h.1v.7h-.1v-.7ZM170.5,215.56h.1v.7h-.1v-.7ZM170.5,216.86h.1v.7h-.1v-.7ZM170.5,218.06h.1v.7h-.1v-.7ZM170.5,219.36h.1v.7h-.1v-.7ZM170.5,220.66h.1v.7h-.1v-.7ZM170.6,221.96v.7h-.1v-.7h.1ZM170.5,223.26h.1v.7h-.1v-.7ZM170.5,224.56h.1v.7h-.1v-.7ZM170.5,225.76h.1v.7h-.1v-.7ZM170.5,227.06h.1v.7h-.1v-.7ZM170.5,228.36h.1v.7h-.1v-.7ZM170.5,229.66h.1v.7h-.1v-.7ZM170.6,232.16v.7h-.1v-.7h.1ZM170.5,230.96h.1v.7h-.1v-.7ZM170.5,233.46h.1v.7h-.1v-.7ZM170.5,234.76h.1v.7h-.1v-.7ZM170.5,236.06h.1v.7h-.1v-.7ZM170.5,237.36h.1v.7h-.1v-.7ZM170.5,238.66h.1v.7h-.1v-.7ZM170.5,239.86h.1v.7h-.1v-.7ZM170.5,241.16h.1v.7h-.1v-.7ZM170.7,242.46v.7h-.1v-.7h.1ZM170.7,245.66h-.1v-.7h.1v.7ZM170.7,244.36h-.1v-.7h.1v.7ZM171.1,214.26h.7v.7h-.7v-.7ZM171.1,216.86h.7v.7h-.7v-.7ZM171.1,220.66h.7v.7h-.7v-.7ZM171.8,221.96v.7h-.7v-.7h.7ZM171.1,223.26h.7v.7h-.7v-.7ZM171.1,225.76h.7v.7h-.7v-.7ZM171.1,229.66h.7v.7h-.7v-.7ZM171.8,230.86v.7h-.7v-.7h.7ZM171.1,232.16h.7v.7h-.7v-.7ZM171.1,236.06h.7v.7h-.7v-.7ZM171.1,238.56h.7v.7h-.7v-.7ZM171.1,242.46h.7v.7h-.7v-.7ZM171.8,245.66h-.7v-.7h.7v.7ZM171.8,244.36h-.7v-.7h.7v.7ZM172,214.26h.1v.7h-.1v-.7ZM172,215.56h.1v.7h-.1v-.7ZM172,218.06h.1v.7h-.1v-.7ZM172,219.36h.1v.7h-.1v-.7ZM172,221.96h.1v.7h-.1v-.7ZM172,223.16h.1v.7h-.1v-.7ZM172.1,224.46v.7h-.1v-.7h.1ZM172,225.76h.1v.7h-.1v-.7ZM172,227.06h.1v.7h-.1v-.7ZM172.1,228.36v.7h-.1v-.7h.1ZM172,229.56h.1v.7h-.1v-.7ZM172,230.86h.1v.7h-.1v-.7ZM172,233.46h.1v.7h-.1v-.7ZM172,234.76h.1v.7h-.1v-.7ZM172,237.26h.1v.7h-.1v-.7ZM172,238.56h.1v.7h-.1v-.7ZM172.2,239.86v.7h-.1v-.7h.1ZM172.2,245.46h-.1v-.7h.1v.7ZM172.2,244.36h-.1v-.7h.1v.7ZM172.2,243.06h-.1v-.8h.1v.8ZM172.2,241.76h-.1v-.7h.1v.7ZM172.6,214.26h.7v.7h-.7v-.7ZM172.6,220.66h.7v.7h-.7v-.7ZM172.6,227.06h.7v.7h-.7v-.7ZM172.6,233.46h.7v.7h-.7v-.7ZM172.6,239.66h.7v.7h-.7v-.7ZM173.3,245.46h-.7v-.7h.7v.7ZM173.3,244.16h-.7v-.7h.7v.7ZM173.3,242.86h-.7v-.7h.7v.7ZM173.3,241.56h-.7v-.7h.7v.7ZM173.7,245.46h-.1v-.7h.1v.7ZM173.7,244.16h-.1v-.7h.1v.7ZM173.7,242.86h-.1v-.7h.1v.7ZM173.7,241.56h-.1v-.7h.1v.7ZM173.7,240.46h-.1v-.7h.1v.7ZM173.7,239.06h-.1v-.7h.1v.7ZM173.7,237.76h-.1v-.7h.1v.7ZM173.7,236.46h-.1v-.6h.1v.6ZM173.7,235.36h-.1v-.7h.1v.7ZM173.7,234.06h-.1v-.8h.1v.8ZM173.7,232.76h-.1v-.7h.1v.7ZM173.7,231.46h-.1v-.7h.1v.7ZM173.7,230.26h-.1v-.7h.1v.7ZM173.7,228.96h-.1v-.7h.1v.7ZM173.7,227.66h-.1v-.7h.1v.7ZM173.7,226.36h-.1v-.7h.1v.7ZM173.7,225.16h-.1v-.7h.1v.7ZM173.7,223.86h-.1v-.7h.1v.7ZM173.7,222.56h-.1v-.7h.1v.7ZM173.7,221.26h-.1v-.7h.1v.7ZM173.7,220.06h-.1v-.7h.1v.7ZM173.7,218.76h-.1v-.7h.1v.7ZM173.7,217.46h-.1v-.7h.1v.7ZM173.7,216.16h-.1v-.7h.1v.7ZM173.7,214.96h-.1v-.7h.1v.7ZM174.8,245.36h-.7v-.7h.7v.7ZM174.8,244.06h-.7v-.7h.7v.7ZM174.8,242.86h-.7v-.7h.7v.7ZM174.8,241.56h-.7v-.7h.7v.7ZM174.8,240.26h-.7v-.7h.7v.7ZM174.8,238.96h-.7v-.7h.7v.7ZM174.8,237.76h-.7v-.7h.7v.7ZM174.8,236.46h-.7v-.6h.7v.6ZM174.8,235.16h-.7v-.7h.7v.7ZM174.8,233.86h-.7v-.7h.7v.7ZM174.8,232.76h-.7v-.7h.7v.7ZM174.8,231.46h-.7v-.7h.7v.7ZM174.8,230.06h-.7v-.7h.7v.7ZM174.8,228.96h-.7v-.7h.7v.7ZM174.8,227.66h-.7v-.7h.7v.7ZM174.8,226.36h-.7v-.7h.7v.7ZM174.8,225.06h-.7v-.8h.7v.8ZM174.8,223.86h-.7v-.7h.7v.7ZM174.8,222.56h-.7v-.7h.7v.7ZM174.8,221.26h-.7v-.7h.7v.7ZM174.8,219.96h-.7v-.6h.7v.6ZM174.8,218.76h-.7v-.7h.7v.7ZM174.8,217.46h-.7v-.7h.7v.7ZM174.8,216.16h-.7v-.7h.7v.7ZM174.8,214.96h-.7v-.7h.7v.7ZM175.2,245.36h-.1v-.7h.1v.7ZM175.2,244.06h-.1v-.7h.1v.7ZM175.2,242.76h-.1v-.7h.1v.7ZM175.2,241.56h-.1v-.7h.1v.7ZM175.2,240.26h-.1v-.7h.1v.7ZM175.2,238.96h-.1v-.7h.1v.7ZM175.3,237.66h-.1v-.6h.1v.6ZM175.3,236.46h-.1v-.7h.1v.7ZM175.3,235.16h-.1v-.7h.1v.7ZM175.3,233.86h-.1v-.7h.1v.7ZM175.3,232.76h-.1v-.7h.1v.7ZM175.3,231.46h-.1v-.7h.1v.7ZM175.3,230.06h-.1v-.7h.1v.7ZM175.3,228.76h-.1v-.7h.1v.7ZM175.3,227.66h-.1v-.7h.1v.7ZM175.3,226.36h-.1v-.7h.1v.7ZM175.3,225.06h-.1v-.8h.1v.8ZM175.3,223.86h-.1v-.7h.1v.7ZM175.3,222.56h-.1v-.7h.1v.7ZM175.3,221.26h-.1v-.7h.1v.7ZM175.3,219.96h-.1v-.6h.1v.6ZM175.3,218.76h-.1v-.7h.1v.7ZM175.3,217.46h-.1v-.7h.1v.7ZM175.3,216.16h-.1v-.7h.1v.7ZM175.3,214.96h-.1v-.7h.1v.7ZM176,245.16l-.1.1v-.7l.1-.1v.7ZM176,243.86l-.1.1v-.7l.1-.1v.7ZM176,242.56l-.1.1v-.7l.1-.1v.7ZM176,241.36l-.1.1v-.7l.1-.1v.7ZM176,240.06l-.1.1v-.7l.1-.1v.7ZM176,238.76l-.1.1v-.7l.1-.1v.7ZM176,237.56l-.1.1v-.7l.1-.1v.7ZM176,236.26l-.1.1v-.7l.1-.1v.7ZM176,235.06h-.1v-.7h.1v.7ZM176,233.76h-.1v-.7h.1v.7ZM176,232.46h-.1v-.7h.1v.7ZM176,231.26h-.1v-.7h.1v.7ZM176,229.96h-.1v-.7h.1v.7ZM176,228.66h-.1v-.7h.1v.7ZM176,227.46h-.1v-.7h.1v.7ZM176,226.16h-.1v-.7h.1v.7ZM176,225.06h-.1v-.8h.1v.8ZM176,223.76h-.1v-.7h.1v.7ZM176,222.46h-.1v-.7h.1v.7ZM176,221.26h-.1v-.7h.1v.7ZM176,219.96h-.1v-.6h.1v.6ZM176,218.66h-.1v-.7h.1v.7ZM176,217.46h-.1v-.7h.1v.7ZM176,216.16h-.1v-.7h.1v.7ZM176,214.96h-.1v-.7h.1v.7ZM176.4,215.56h.1v.7h-.1v-.7ZM176.4,231.76h.1v.7h-.1v-.7ZM176.5,244.96l-.1.1v-.7l.1-.1v.7ZM176.5,243.56l-.1.1v-.7l.1-.1v.7ZM176.5,242.46l-.1.1v-.7l.1-.1v.7ZM176.5,241.16l-.1.1v-.7l.1-.1v.7ZM176.5,239.86l-.1.1v-.7l.1-.1v.7ZM176.5,238.66l-.1.1v-.7l.1-.1v.7ZM177,244.66l-.1.1v-.7l.1-.1v.7ZM177,243.36l-.1.1v-.7l.1-.1v.7ZM177,242.16l-.1.1v-.7l.1-.1v.7ZM177,240.86l-.1.1v-.7l.1-.1v.7ZM176.9,239.66v-.4h.1v.4h-.1ZM177.5,244.46l-.1.1v-.7l.1-.1v.7ZM177.5,243.16l-.1.1v-.7l.1-.1v.7ZM177.5,241.96l-.1.1v-.7l.1-.1v.7ZM177.5,240.76l-.1.1v-.7l.1-.1v.7ZM177.3,239.56v-.1h.1l-.1.1ZM177.9,244.16l-.1.1v-.7l.1-.1v.7ZM177.9,243.06l-.1.1v-.7l.1-.1v.7ZM177.9,241.76l-.1.1v-.7l.1-.1v.7ZM177.9,240.56l-.1.1v-.7l.1-.1v.7ZM178.4,243.96l-.1.1v-.7l.1-.1v.7ZM178.4,242.76l-.1.1v-.7l.1-.1v.7ZM178.4,241.56l-.1.1v-.7l.1-.1v.7ZM178.3,240.46v-.7l.1-.1h0v.6l-.1.2ZM222,241.76v-28.5h.1l-.1,28.5h0ZM222.5,213.16h.2v28.5h-.2v-28.5ZM223.2,213.16h.2v28.5h-.2v-28.5ZM223.8,213.16h.2v28.5h-.2v-28.5ZM224.5,213.16h.2v28.5h-.2v-28.5ZM225.1,213.16h.2v28.5h-.2v-28.5ZM225.6,213.16h.2v28.5h-.2v-28.5ZM226.4,213.16h.2v28.5h-.2v-28.5ZM227,213.16h.2v28.5h-.2v-28.5ZM227.7,213.16h.2v28.5h-.2v-28.5ZM228.3,213.16h.2v28.5h-.2v-28.5ZM229,213.16h.2v28.5h-.2v-28.5ZM229.9,241.76h-.2v-28.5h.2v28.5ZM253.4,219.26v-.5h.6v.5h-.6ZM248.6,225.86h.4v.7h-.4v-.7ZM249,228.26h-.4v-.6h.4v.6ZM248.6,224.06h.4v.7h-.4v-.7ZM248.6,222.26h.4v.7h-.4v-.7ZM248.6,220.56h.4v.7h-.4v-.7ZM248.6,218.76h.4v.7h-.4v-.7ZM285.2,219.36h0q.1,0,0,0,.1,0,0,0,.1,0,0,0,.1,0,0,0,.1,0,0,0,.1,0,0,0l1.2.1,3.2,4.5-7.2-5.9h3l.5.7c-.2-.1-.6.1-.7.6q0-.1,0,0h0M291,220.06c.1.1.2.1.2.1h9.6l-10.4,3.9-3.2-4.6h3.7v.5q.1,0,.1.1M300.1,226.46l-1.9,8.8-1.2-1.8,3.1-9c-.1.7-.1,1.4,0,2M270.4,218.06l23.4,11.8,1.2,1.8-24.7-11.7v-1.9h.1ZM295.3,231.76l1.2,1.8-26.1-11.8v-1.7l24.9,11.7ZM270.4,221.66l26.2,12,1.2,1.8-27.4-12.1v-1.7h0ZM296.9,233.26l-1.2-1.8,5.6-10.9h0l-4.4,12.7ZM295.6,231.46l-1.2-1.8,6.7-9.1h0l-5.5,10.9ZM294.3,229.66l-1.2-1.8,7.9-7.3h0l-6.7,9.1ZM293.1,227.76l-1.2-1.8,9.1-5.7h0l-7.9,7.5ZM291.8,225.86l-1.2-1.8,10.4-3.9h0l-9.2,5.7ZM286.8,218.46l-.4-.6h2.5c-.8.4-1.6.5-2.1.6M289.8,224.16l1.3,1.8-12.7-8.1h3.8l7.6,6.3ZM291.3,226.06l1.2,1.8-18-9.9h3.8l13,8.1ZM292.6,227.96l1.2,1.8-23.3-11.8h3.8l18.3,10ZM254.1,214.56h-.8v-1.3h.8v1.3ZM253.4,216.96h.6v.1l-.6-.1h0ZM252.4,214.56h-1.1v-1.3h1.1v1.3ZM251.6,216.86h.8v.2h-.8v-.2ZM250.8,217.06h-.8v-.2h.8v.2ZM250.5,214.56h-1.1v-1.3h1.1v1.3ZM249,217.36q-.1.1-.1.2h-.2v-.6h.4l-.1.4h0ZM252.4,218.66h-.2.2ZM270.4,223.36l27.5,12.1,1.2,1.8-28.7-12.3v-1.6ZM298.2,235.16l1.9-8.6c.1.6.2,1.1.4,1.5l-1.1,8.9-1.2-1.8ZM300.1,224.26l1.2-3.6h0l-.6,3.1-.6.5ZM301.3,220.86h0l-.2,2.6-.4.2.6-2.8ZM295.6,213.16c0,.5-2.6,2.5-4.3,3.3-.4.2-.7.4-1.1.6h-4.1l3.6-3.3s.1-.1.1-.6h5.8M288.4,213.26h0l.4.5h0l-4.3,3.3h-14.1v-3.9l18,.1q0-.1,0,0,0-.1,0,0,0-.1,0,0h0M247.2,225.86h.4v.7h-.4v-.7ZM247.6,228.26h-.4v-.6h.4v.6ZM247.2,224.06h.4v.7h-.4v-.7ZM247.2,222.26h.4v.7h-.4v-.7ZM247.2,220.56h.4v.7h-.4v-.7ZM247.2,218.76h.4v.7h-.4v-.7ZM247.2,216.96h.4v.7h-.4v-.7ZM245.4,223.96h.8v.7h-.8v-.7ZM246.3,226.56h-.8v-.7h.8v.7ZM245.4,222.16h.8v.7h-.8v-.7ZM245.4,220.36h.8v.7h-.8v-.7ZM245.4,218.66h.8v.7h-.8v-.7ZM245.4,216.86h.8v.7h-.8v-.7ZM241.5,214.56h0v-1.3h0v1.3ZM234.1,217.46h.8v.7h-.8v-.7ZM234.9,219.46h-.8v-.7h.8v.7ZM234.1,216.26h.8v.7h-.8v-.7ZM234.1,214.96h.8v.7h-.8v-.7ZM234.1,213.76h.8v.7h-.8v-.7ZM233.8,231.76h-.5v-.6h.5v.6ZM233.8,230.56h-.5v-.7h.5v.7ZM233.8,229.26h-.5v-.7h.5v.7ZM233.8,228.06h-.5v-.7h.5v.7ZM233.8,226.76h-.5v-.7h.5v.7ZM233.8,225.56h-.5v-.7h.5v.7ZM233.8,224.26h-.5v-.7h.5v.7ZM233.8,223.16h-.5v-.7h.5v.7ZM233.8,221.96h-.5v-.7h.5v.7ZM233.8,220.66h-.5v-.7h.5v.7ZM233.8,219.46h-.5v-.7h.5v.7ZM233.8,218.16h-.5v-.7h.5v.7ZM233.8,216.96h-.5v-.7h.5v.7ZM233.8,215.66h-.5v-.7h.5v.7ZM233.8,214.46h-.5v-.7h.5v.7ZM235.1,231.76h-1.1v-.6h1.1v.6ZM235.1,230.56h-1.1v-.7h1.1v.7ZM235.1,229.26h-1.1v-.7h1.1v.7ZM235.1,228.06h-1.1v-.7h1.1v.7ZM235.1,226.76h-1.1v-.7h1.1v.7ZM235.1,225.56h-1.1v-.7h1.1v.7ZM235.1,224.26h-1.1v-.7h1.1v.7ZM235.1,223.16h-1.1v-.7h1.1v.7ZM235.1,221.96h-1.1v-.7h1.1v.7ZM235.1,220.66h-1.1v-.7h1.1v.7ZM236.5,218.16h-1.1v-.7h1.1v.7ZM236.5,216.96h-1.1v-.7h1.1v.7ZM236.5,215.66h-1.1v-.7h1.1v.7ZM238,248.06h-.7v-.7h.7v.7ZM238,246.76h-.7v-.7h.7v.7ZM238,245.66h-.7v-.7h.7v.7ZM238,244.36h-.7v-.7h.7v.7ZM238,243.16h-.7v-.7h.7v.7ZM238,241.86h-.7v-.7h.7v.7ZM242.8,229.56h-.6v-.5h.6v.5ZM242.8,228.26h-.6v-.6h.6v.6ZM242.8,226.46h-.6v-.5h.6v.5ZM242.8,224.66h-.6v-.6h.6v.6ZM242.8,222.86h-.6v-.5h.6v.5ZM242.8,221.16h-.6v-.6h.6v.6ZM242.8,219.36h-.6v-.5h.6v.5ZM242.8,217.56h-.6v-.6h.6v.6ZM242.9,214.56h-.8v-1.3h.8v1.3ZM243.8,213.26h1.1v1.3h-1.1v-1.3ZM243.9,223.96h.8v.7h-.8v-.7ZM244.6,226.56h-.8v-.7h.8v.7ZM243.9,222.16h.8v.7h-.8v-.7ZM243.9,220.36h.8v.7h-.8v-.7ZM243.9,218.66h.8v.7h-.8v-.7ZM243.9,216.86h.8v.7h-.8v-.7ZM243.9,227.46h.8v.7h-.8v-.7ZM244,229.06h.6v.5h-.6v-.5ZM245,241.16h-.7v-.7h.7v.7ZM245,239.46h-.7v-.7h.7v.7ZM245,237.76h-.7v-.7h.7v.7ZM245,236.16h-.7v-.7h.7v.7ZM245,234.46h-.7v-.7h.7v.7ZM245,232.86h-.7v-.7h.7v.7ZM245,231.16h-.7v-.7h.7v.7ZM245.4,227.46h.8v.7h-.8v-.7ZM245.5,229.06h.6v.5h-.6v-.5ZM246.5,241.16h-.7v-.7h.7v.7ZM246.5,239.46h-.7v-.7h.7v.7ZM246.5,237.76h-.7v-.7h.7v.7ZM246.5,236.16h-.7v-.7h.7v.7ZM246.5,234.46h-.7v-.7h.7v.7ZM246.5,232.86h-.7v-.7h.7v.7ZM246.5,231.16h-.7v-.7h.7v.7ZM246.7,214.56h-1.1v-1.3h1.1v1.3ZM247.6,241.16h-.4v-.7h.4v.7ZM247.6,239.46h-.4v-.7h.4v.7ZM247.6,237.76h-.4v-.7h.4v.7ZM247.6,236.16h-.4v-.7h.4v.7ZM247.6,234.46h-.4v-.7h.4v.7ZM247.6,232.86h-.4v-.7h.4v.7ZM247.6,231.16h-.4v-.7h.4v.7ZM247.7,229.56h-.6v-.5h.6v.5ZM247.6,213.26h1.1v1.3h-1.1v-1.3ZM249,241.16h-.4v-.7h.4v.7ZM249,239.46h-.4v-.7h.4v.7ZM249,237.76h-.4v-.7h.4v.7ZM249,236.16h-.4v-.7h.4v.7ZM249,234.46h-.4v-.7h.4v.7ZM249,232.86h-.4v-.7h.4v.7ZM249,231.16h-.4v-.7h.4v.7ZM249.1,229.56h-.6v-.5h.6v.5ZM250.5,241.16h-.7v-.7h.7v.7ZM250.5,239.46h-.7v-.7h.7v.7ZM250.5,237.76h-.7v-.7h.7v.7ZM250.5,236.16h-.7v-.7h.7v.7ZM250.5,234.46h-.7v-.7h.7v.7ZM250.5,232.86h-.7v-.7h.7v.7ZM250.5,231.16h-.7v-.7h.7v.7ZM250.6,229.56h-.6v-.5h.6v.5ZM250.8,228.36h-.8v-.7h.8v.7ZM250.8,226.56h-.8v-.7h.8v.7ZM250.8,224.76h-.8v-.7h.8v.7ZM250.8,222.96h-.8v-.7h.8v.7ZM250.8,221.26h-.8v-.7h.8v.7ZM250.8,219.46h-.8v-.7h.8v.7ZM251.9,241.16h-.7v-.7h.7v.7ZM251.9,239.46h-.7v-.7h.7v.7ZM251.9,237.76h-.7v-.7h.7v.7ZM251.9,236.16h-.7v-.7h.7v.7ZM251.9,234.46h-.7v-.7h.7v.7ZM251.9,232.86h-.7v-.7h.7v.7ZM251.9,231.16h-.7v-.7h.7v.7ZM252.3,229.56h-.6v-.5h.6v.5ZM252.4,228.36h-.8v-.7h.8v.7ZM252.4,226.56h-.8v-.7h.8v.7ZM252.4,224.76h-.8v-.7h.8v.7ZM252.4,222.96h-.8v-.7h.8v.7ZM252.4,221.26h-.8v-.7h.8v.7ZM251.6,219.46v-.7h.4l.5.2v.6h-.8l-.1-.1h0ZM253.9,229.56h-.6v-.5h.6v.5ZM253.9,228.26h-.6v-.6h.6v.6ZM253.9,226.46h-.6v-.5h.6v.5ZM253.9,224.66h-.6v-.6h.6v.6ZM253.9,222.86h-.6v-.5h.6v.5ZM253.9,221.16h-.6v-.6h.6v.6ZM270.4,226.36v-1.4l28.8,12.4,1.2,1.8-30-12.8ZM300.8,238.86l-1.2-1.8h0l1.1-8.8c.1.2.2.5.4.7,0,.1.1.1.1.2l-.4,9.7ZM301.2,223.46l.2-2.5h0l-.1,2.2-.1.3ZM301.4,223.26l.1-2.1.8,1.4-.9.7ZM318.4,216.76h-.7v-.6h.7v.6ZM317.7,215.26h.7v.6h-.7v-.6ZM318.7,220.76h-.7v-.6h.7v.6ZM318.1,219.96h0l.4-.6h.4v.6h-.8ZM320.3,220.76h-.7v-.6h.7v.6ZM319.7,219.36h.7v.6h-.7v-.6ZM320.7,216.76h-.7v-.6h.7v.6ZM320.7,215.86h-.7v-.6h.7v.6ZM322.2,223.36h-.4v-.5h.4v.5ZM322.9,223.36h-.4v-.5h.4v.5ZM324.3,216.76h-1.1v-2.6h1.1v2.6ZM325.7,220.26h-.7v-.6h.7v.6ZM325.7,219.56h-.7v-.6h.7v.6ZM326.4,216.76h-.7v-.6h.7v.6ZM326.4,215.86h-.7v-.6h.7v.6ZM329.1,216.76h-.7v-.6h.7v.6ZM329.1,215.86h-.7v-.6h.7v.6ZM333.2,233.66h-.6v-.5h.6v.5ZM333.8,235.16h-.4v-.8h.4v.8ZM334.6,235.16h-.7v-.8h.7v.8ZM334.2,219.06c.1,0,.2.1.2.2s-.1.2-.2.2-.2-.1-.2-.2c0-.2.1-.2.2-.2M334,216.06c0-.1.1-.2.2-.2s.2.1.2.2-.1.2-.2.2-.2-.1-.2-.2M334.2,222.26c.1,0,.2.1.2.2s-.1.2-.2.2-.2-.1-.2-.2.1-.2.2-.2M334.1,229.06h.1v.2h-.1v-.2ZM334.2,229.66h-.1v-.2h.1v.2ZM334.1,226.66h.1v.2h-.1v-.2ZM334.1,226.36h.1v.2h-.1v-.2ZM334.2,231.66c.1,0,.2.1.2.2s-.1.2-.2.2-.2-.1-.2-.2.1-.2.2-.2M335.1,235.16h-.4v-.8h.4v.8ZM335.8,233.66h-.6v-.5h.6v.5ZM314.1,213.86v2.4c-1.9-1.3-3.6-2.5-3.8-3.1h3.7l.1.7h0Z"/>
              </g>
            </g>
          </g>
        </g>
      </g>
    </g>
  </g>
</svg>