<?xml version="1.0" encoding="UTF-8"?>
<svg id="Layer_1" data-name="Layer 1" xmlns="http://www.w3.org/2000/svg" xmlns:xlink="http://www.w3.org/1999/xlink" viewBox="0 0 1728 1296">
  <defs>
    <clipPath id="clippath">
      <rect x="-149.01" y="0" width="2003.71" height="1211.01" style="fill: none;"/>
    </clipPath>
    <clipPath id="clippath-1">
      <rect x="86.8" y="5.75" width="1532.1" height="845.18" style="fill: none;"/>
    </clipPath>
    <clipPath id="clippath-2">
      <rect x="-149.01" y="0" width="2003.71" height="1210.29" style="fill: none;"/>
    </clipPath>
    <clipPath id="clippath-3">
      <rect x="-149.01" y="0" width="2003.71" height="1211.01" style="fill: none;"/>
    </clipPath>
  </defs>
  <g id="Logo_Phone" data-name="Logo Phone">
    <g style="clip-path: url(#clippath);">
      <g style="clip-path: url(#clippath-1);">
        <path d="m904.24,315.66c3.17-7.77,8.8-19.79,17.57-31.75,14.42-19.65,35.46-46.8,97.92-62.22,67.75-16.72,112.53-28.14,180.49-43.8,14.7-3.39,26.36-6.43,35.89-9.24,15.17,3.87,58.3-.55,90.54,13.69,17.3,7.64,55.86,24.93,59.53,19.76,9-12.7-69.34-47.54-111.31-48.44l.96-.49c5.51-2.83,10.67-5.6,16.95-8.74,31.55-15.74,53.3-57.61-.19-31.25-6.53,3.22-44.87,18.38-64.55,23.78-45.26,12.42-82.81,19.21-121.37,26.76-6.03-2.75,4.35-16.64,9.94-22.27,36.63-36.88,15.09-46.29-21.95-1.91-8.79,10.52-12.5,23.07-18.47,29.19-21.52,4.46-38.4,9.56-63.06,16.33-5.6,1.54-10.98,3.1-16.16,4.67-7.82-19.27,65.68-70.25,48.36-87.02-5.32-5.15-27.77,20.02-35.64,28.69-13.83,15.24-23,20.95-34.59,36.7-8.89,12.07-12.09,22.81-25.74,39.23-40.09,18.19-61.14,38.91-74.16,62.84-23.46-38.21-17.38-55.03,1.75-83.72,38.37-57.53,6.77-53.06-32.11-.69-15.91,21.44-16.58,46.26-5.52,91.68,1.19,4.3-6.95,16.96-21.59,24.61-5.93,3.1-19.82,8.46-26.65,11.56-18.2,8.27-24.06,27.89,30.58,9.76,14.68-4.87,21.22-17.84,32.36-15.34v-5.5c1.86,2.84,3.74,11.12,5.63,13.87-1.87,6.76-3.61,8.24-5.38,15.45-4.77,19.43-8.93,41-26.49,83.27-23.01-24.76-49.79-46.11-78.66-64.16-2.26-7.29,1.09-26.9,4.26-40.91,6.29-7.52,26.91.08,51.58-22.05,13.4-8.1,29.06-41.59,10.95-29.45,0,0-18.39,11.41-25.82,17.47-8.71,7.1-21.39,13.59-27.63,11.22h0c11.71-19.63,31.16-40.33,32.49-67.74,5.2-107.25-15.26-143.3-24.42-4.86-1.18,14.83-5.34,23-11.03,30.71h0c-25.5-15.31-37.52-25.03-46.97-28.84-43.58-17.57-67.88-17.42-55.41-4.65,12.46,12.76,23.79,10.81,61.85,34.41,6.27,3.89,14.77,8.12,17.47,19.38-9.9,10.05-20.72,27.86-22.02,40.29-21.75-51.2-54.17-62.68-90.09-76.98-.91-33.58-.6-32.07,5.53-49.93,14.58-42.48,25.6-57,19.76-56.4-18.02,1.85-30.19,44.74-35.87,58.24-.29.69-.58,1.37-.87,2.03-19.23-3.47-95.3-79.11-90.09-56.29,7.55,33.13,80.07,68.64,76.84,82.5l.06.03c-1.94,3.68-2.68,5.02-5.2,10.01-21.22-5.71-43.34-9.35-65.49-12.33-20.44-1.92-40.02-2.14-58.41-1.43-13.05-35.78-42.14-47.42-56.33-53.59-12.4-5.39-46.41-12.29-45.75-6.72,1.36,11.45,85.53,37.25,70.7,62.35-17.8,1.59-34.03,3.67-48.28,5.29-14.75,1.68-40.48,1.87-57.7-4.06-29.09-10.02-37.45-7.8-27.72,9.6,18.9,33.82,163.02,10.68,223.38,24.67,44.57,10.33,95.22,38.21,117.61,59.56-65.58-22.55-132.01-31.32-183.95-27.4-27.68,2.09-71.69,16.32-108.09,27.61-7.16-12.88,8.02-22.68,11.04-27.99,8.06-14.16,7.57-19.72,7.78-21.96,1.75-18.26-16.3,3.06-21.95,11.92-7.61,11.92-10.77,16.36-24.53,28.88-11.48-7.34-54.24-5.47-78.42-40.28-3.34-4.81-20.65-28.88-26.28-25.49-8.19,3.61,9.13,38.29,13.07,44.47,5.09,8,21.72,26.93,35.65,31.34,8.3,2.63,25.61,3.76,35.69,11.37-30.31,6.14-57.38,9.52-95.22,11.3-33.55-.33-41.36,20.2-7.61,29.45,61.94,10.41,112.38,4.54,167.34-6.04-10.64,19.41-10.27,20-26.07,35.46-3.52,3.06-6.86,5.95-10.08,8.73h0c-35.34-24.45-105.07,25.58-146.22-.31-52.71-33.17-8.51,21.79,18.09,24.83,48.49,5.53,82.4-15.23,95.23,3.13-12.5,10.21-26.27,19.42-42.27,33.59-33.58,29.73-78.43,80.68-69.8,84.09,11.66,4.6,112.85-78.69,142.66-100.44,31.64-23.09,28.37-24.22,58.39-47.03,18.86-14.33,37.99-29.7,73.74-58.65h0c19.84-1.05,40.78.08,61.6,2.72.51,2.71-5.01,10.25-7.31,13.4-6.14,6.23-28.49,18.23-36.34,21.83-77.18,35.34-69.67,51.96-5.11,30.15,60.61-20.47,60.67-25.95,101.65-55.59,14.9,3.59,29.13,7.7,42.16,12.06,67.09,22.44,125,93.1,145.52,153.66,27.59,81.47,38.08,155.75,28.54,229.61-7.39,36.77-19.6,73.84-34.87,109.33,41.23.43,159.24.09,200.8.34-44.69-107.52-68.4-226.23-17.14-329.77,33.12-60.63,103.9-109.83,164.03-133.74,11.28-3.95,22.2-8,32.85-12.06,52.24-.83,93.45-23.33,155.42,4.12,27.46,13.25,36.04-2.7,4.2-21.02-24.43-14.06-55.32-12.02-81.95-12.74,22.25-7.88,44.05-14.49,67.27-19.06h0c46.28,4.05,31.38,11.85,56.56,32.6.68,4,.02,21.77-.23,37.34-.48,29.6,19.04,43.92,19.47,19.63.24-13.93-2.68-39.62-.56-42.63,3.15,1.95,6.1,3.63,10,5.7,6.9,3.67,14.65,7.17,22.85,10.51,10,6.43,5.91,46.16,41.33,74.67,68.28,54.96,109.37,33.33,35.73-3.39-28.78-14.35-41.4-50.46-42.11-58.65,27.15,8.94,55.28,18.97,69.25,25.49,43.93,20.51,71.28,4.9,4.51-25.62-74.38-33.99-135.03-56.92-149.04-80.99,37.22,3.92,58.45,2.38,99.19,14.93,67.28,20.72,112.32,1.38,18.32-29.92-138.13-45.99-209.64-29.29-366.48,20.64-25.87,8.23-68.68,33.94-93.55,45.48-8.77-20.27,108.39-66.3,150.79-81.15,38.47-13.47,104.24-22.8,147.67-44.89h0c12.05-1.26,12.31,3.31,32,4.93,25,2.05,27.48,1.74,57.81-2.25,46.56-4.01,66.63-29.93-6.59-20.05-21.28,2.87-58.97,3.9-53.66-.42,57.01-46.41-29.92-25.11-146.1,18.68h-.01c-.15-14.52,17.02-20.38,46.91-36.85,35.3-19.44,23.09-45.65-54.57,7.96-17.13,11.83-21.71,31.1-26.73,38.5-5.45,1.4-9.86,2.44-14.54,3.43-42.77,9.07-86.2,25.02-121.98,48.16-2.74-6.74-3.05-20.8,3.06-33.01,7.72-15.42,19.42-17.22,34.16-32.34,33.05-33.87-18.07-10.89-38.83,9.31-15.54,15.12-18.05,29.54-21.52,40.28-9.67-2.78-17.26-14.58-26.68-22.11-9.97-7.98-28.74-4.95-3.37,20.5,13.7,13.75,18.54,24.67,20.27,32.99-.59,3.09.67,6.35.12,9.78-16.83,15.77-30.34,33.87-39.05,54.34h0c-14.55-13.27-27.57-40.56-46.16-72.25h0c-7.8,18.44-9.77,29.43-12.68,41.4,10.52,27.85,23.84,64.61,23.84,64.61l-17.44,11.39s-20.32-19.32-6.4-76c2.15-8.76,5.3-24.05,12.68-41.4" style="fill: #582700;"/>
        <path d="m1090.37,705.89c0-22.54,2.14-42.68,6.44-60.42,4.29-17.74,10.04-32.79,17.23-45.18,7.19-12.38,15.43-21.9,24.72-28.54,9.29-6.65,18.93-9.98,28.92-9.98,11.39,0,21.47,3.33,30.26,9.98,8.79,6.65,16.08,15.89,21.87,27.71,5.79,11.83,10.19,25.77,13.18,41.85,3,16.08,4.49,33.54,4.49,52.38,0,7.4-.2,14.13-.6,20.23-.4,6.1-.8,10.81-1.2,14.13h-100.08c2.2,21.07,7.19,36.31,14.98,45.73,7.79,9.42,17.18,14.13,28.17,14.13,6.79,0,13.23-1.57,19.32-4.71,6.09-3.14,12.44-7.85,19.03-14.14l14.38,48.78c-8.39,9.98-17.78,17.83-28.17,23.56-10.39,5.72-20.58,8.59-30.56,8.59-11.59,0-22.37-3.24-32.36-9.7-9.99-6.46-18.68-15.88-26.07-28.27-7.39-12.38-13.24-27.44-17.53-45.18-4.3-17.74-6.44-38.05-6.44-60.97m107.27-28.27c0-15.89-2.3-28.82-6.89-38.8-4.6-9.98-11.98-14.97-22.17-14.97-7.99,0-15.13,4.35-21.42,13.02-6.29,8.69-10.34,22.27-12.14,40.74h62.63Z" style="fill: #582700;"/>
        <path d="m1247.08,705.89c0-22.54,2.14-42.68,6.44-60.42,4.29-17.74,10.04-32.79,17.23-45.18,7.19-12.38,15.43-21.9,24.72-28.54,9.29-6.65,18.93-9.98,28.92-9.98,11.39,0,21.47,3.33,30.27,9.98,8.79,6.65,16.08,15.89,21.87,27.71,5.79,11.83,10.19,25.77,13.18,41.85,3,16.08,4.5,33.54,4.5,52.38,0,7.4-.2,14.13-.6,20.23-.4,6.1-.8,10.81-1.2,14.13h-100.08c2.2,21.07,7.19,36.31,14.98,45.73,7.79,9.42,17.18,14.13,28.17,14.13,6.79,0,13.23-1.57,19.33-4.71,6.09-3.14,12.43-7.85,19.03-14.14l14.38,48.78c-8.39,9.98-17.78,17.83-28.17,23.56-10.39,5.72-20.58,8.59-30.56,8.59-11.59,0-22.37-3.24-32.36-9.7-9.99-6.46-18.68-15.88-26.07-28.27-7.39-12.38-13.24-27.44-17.53-45.18-4.3-17.74-6.44-38.05-6.44-60.97m107.27-28.27c0-15.89-2.3-28.82-6.89-38.8-4.6-9.98-11.98-14.97-22.17-14.97-7.99,0-15.13,4.35-21.42,13.02-6.29,8.69-10.34,22.27-12.14,40.74h62.63Z" style="fill: #582700;"/>
        <path d="m1422.97,756.88c8.59,9.98,17.23,17.93,25.92,23.83,8.69,5.92,18.03,8.87,28.02,8.87s17.48-2.03,21.88-6.1c4.39-4.06,6.59-9.79,6.59-17.18,0-8.5-3.65-15.42-10.94-20.79-7.29-5.35-16.93-11.17-28.91-17.46-6.59-3.33-13.03-7.29-19.33-11.92-6.29-4.62-11.94-10.16-16.93-16.63-5-6.46-9.04-13.95-12.14-22.45-3.1-8.5-4.65-18.29-4.65-29.38,0-12.56,1.6-24.2,4.8-34.92,3.19-10.71,7.74-19.76,13.63-27.16,5.89-7.39,13.08-13.21,21.57-17.46,8.49-4.24,18.02-6.37,28.62-6.37,13.19,0,25.22,3.97,36.11,11.92,10.89,7.95,20.23,16.54,28.02,25.78l-19.77,48.78c-6.79-7.39-13.78-13.58-20.98-18.57-7.19-4.99-14.68-7.48-22.47-7.48-9.39,0-16.03,1.85-19.93,5.54-3.9,3.7-5.84,9.06-5.84,16.08,0,4.07,1,7.76,3,11.09,1.99,3.32,4.69,6.29,8.09,8.87,3.4,2.59,7.44,5.09,12.14,7.48,4.69,2.41,9.64,4.9,14.83,7.48,7.39,3.7,14.38,7.85,20.97,12.47,6.59,4.62,12.38,10.07,17.38,16.35,4.99,6.29,8.99,13.86,11.99,22.73,3,8.87,4.5,19.22,4.5,31.04,0,12.57-1.6,24.21-4.8,34.92-3.2,10.72-7.84,20.05-13.93,27.99-6.1,7.95-13.69,14.23-22.77,18.85-9.09,4.62-19.63,6.93-31.61,6.93-13.38,0-26.47-4.07-39.25-12.2-12.79-8.13-23.97-18.1-33.56-29.93l19.78-51Z" style="fill: #582700;"/>
        <path d="m967.58,575.69h35.96l3.6,59.87h.9c7.39-22.54,16.28-39.26,26.67-50.16,10.38-10.9,21.57-16.35,33.56-16.35,6.59,0,11.93.93,16.03,2.77,4.09,1.85,8.34,4.62,12.74,8.31l-8.99,68.18c-4.6-2.58-8.74-4.52-12.44-5.82-3.7-1.29-8.34-1.94-13.93-1.94-9.19,0-18.23,4.99-27.12,14.97-8.89,9.98-16.53,27.35-22.92,52.1v143.01h-44.05v-274.94Z" style="fill: #582700;"/>
        <path d="m239.24,850.93c-2.39-.83-4.7-1.77-6.92-2.8-11.42-5.31-20.85-12.93-28.29-22.83-7.44-9.91-12.91-21.83-16.38-35.76-3.48-13.93-5.21-29.65-5.21-47.18v-171.47h64.02v180.08c0,12.06,1.92,21.97,5.77,29.73,3.84,7.75,10.85,11.64,21.03,11.64s17.62-3.88,21.59-11.64c3.97-7.75,5.95-17.66,5.95-29.73v-180.08h61.79v171.47c0,17.52-1.68,33.25-5.03,47.18-3.35,13.94-8.63,25.85-15.82,35.76-7.2,9.91-16.44,17.52-27.73,22.83-2.11.99-4.29,1.89-6.56,2.69l-68.23.11Z" style="fill: #58b947;"/>
        <path d="m377.86,570.89h64.77l40.57,124.94,19.73,62.9h1.49c-.75-7.47-1.62-15.65-2.61-24.56-.99-8.9-1.99-18.02-2.98-27.36-.99-9.33-1.8-18.67-2.42-28.01-.62-9.33-.93-18.31-.93-26.92v-81h61.05v280.04h-64.77l-40.57-125.37-19.73-62.47h-1.49c1.49,16.09,3.35,33.6,5.58,52.56,2.23,18.96,3.35,37.05,3.35,54.29v81h-61.05v-280.04Z" style="fill: #58b947;"/>
        <path d="m578.5,570.89h79.66c12.66,0,24.5,1.08,35.55,3.23,11.04,2.15,20.66,5.82,28.85,10.99,8.19,5.17,14.64,12.28,19.36,21.33,4.71,9.05,7.07,20.47,7.07,34.25,0,6.03-.81,12.14-2.42,18.31-1.62,6.18-4.09,12.06-7.44,17.66s-7.63,10.56-12.84,14.87c-5.21,4.31-11.29,7.47-18.24,9.48v1.72c17.12,4.03,29.97,11.27,38.53,21.76,8.56,10.49,12.84,25.06,12.84,43.73,0,14.37-2.42,26.78-7.26,37.27-4.84,10.49-11.54,19.11-20.1,25.85-8.56,6.75-18.55,11.71-29.97,14.86-11.42,3.16-23.58,4.74-36.48,4.74h-87.11v-280.04Zm78.17,110.29c10.42,0,17.99-2.73,22.71-8.19,4.71-5.46,7.07-12.49,7.07-21.11s-2.36-14.79-7.07-18.53c-4.72-3.73-12.28-5.6-22.71-5.6h-14.14v53.43h14.14Zm4.47,112.88c12.66,0,21.78-2.73,27.36-8.19,5.58-5.45,8.38-13.35,8.38-23.7s-2.79-17.8-8.38-22.4c-5.58-4.59-14.71-6.9-27.36-6.9h-18.61v61.18h18.61Z" style="fill: #58b947;"/>
        <path d="m760.11,229.96s58.74,40.19,26.16,61.23c-34.07,12.86-26.16-61.23-26.16-61.23" style="fill: #58b947;"/>
        <path d="m479.3,280.7c-48.32,5.25-43.94-82.58-43.94-82.58,0,0,90.56,37.98,43.94,82.58" style="fill: #58b947;"/>
        <path d="m410.69,341.65s22.68,70.54,66.18,44.11c18.32-55.99-66.18-44.11-66.18-44.11" style="fill: #58b947;"/>
        <path d="m619.78,54.97s47.13,52.51,15.6,80.92c-61.58-8.4-15.6-80.92-15.6-80.92" style="fill: #58b947;"/>
        <path d="m467.6,102.26s6.1,85.48-33.38,69.81c-23.04-39.49,33.38-69.81,33.38-69.81" style="fill: #58b947;"/>
        <path d="m983.19,311.48s-78.49-16.77-68.34,38.38c38.91,22.5,68.34-38.38,68.34-38.38" style="fill: #58b947;"/>
        <path d="m933.55,250.34s-73.48-18.96-65.94,20.96c26.03,34.62,65.94-20.96,65.94-20.96" style="fill: #58b947;"/>
        <path d="m1486.04,193.8s-24.25,54.38-54.68,38.85c-28.35-32.93,54.68-38.85,54.68-38.85" style="fill: #58b947;"/>
        <path d="m1302.58,262.72s-78.98-22.06-54.09-61.82c42.81-20.28,54.09,61.82,54.09,61.82" style="fill: #58b947;"/>
        <path d="m1478.77,220.03s-57.58,60.27-3.33,90.39c49.21-10.01,3.33-90.39,3.33-90.39" style="fill: #58b947;"/>
        <path d="m723.72,315.81s49.85-27.36,62.85,8.93c-18.33,33.09-62.85-8.93-62.85-8.93" style="fill: #58b947;"/>
        <path d="m996.8,296.53s5.01,72.37,54.17,58.3c36.24-44.66-54.17-58.3-54.17-58.3" style="fill: #58b947;"/>
        <path d="m1374.29,256.64s6.85-53.73-23.02-48.96c-28.3,20.38,23.02,48.96,23.02,48.96" style="fill: #58b947;"/>
        <path d="m1340.02,234.04s20.81,47.2-9.05,51.96c-35.93-10.34,9.05-51.96,9.05-51.96" style="fill: #58b947;"/>
        <path d="m560.44,157.35s58.14-48.77,70.41-7.13c-6.46,41.89-70.41,7.13-70.41,7.13" style="fill: #58b947;"/>
        <path d="m1588.25,494.61s-10.24-68.28-57.84-62.9c-40.5,42.04,57.84,62.9,57.84,62.9" style="fill: #58b947;"/>
        <path d="m561.35,211.42s-75.47,19.19-53.07,66.01c54.18,10.54,53.07-66.01,53.07-66.01" style="fill: #58b947;"/>
        <path d="m1092.88,301.79s-73.98,5.01-63.29-41.85c33.66-33.1,63.29,41.85,63.29,41.85" style="fill: #58b947;"/>
        <path d="m217.48,417.95s55.08-13.73,47.86-58.52c-49.58-28.08-47.86,58.52-47.86,58.52" style="fill: #58b947;"/>
        <path d="m859.93,191.32s63.11,11.71,52.89,42.92c-49.31,32.03-52.89-42.92-52.89-42.92" style="fill: #58b947;"/>
        <path d="m1177.75,52.95s96.55,46.9,64.05,95.88c-78.97,19.86-64.05-95.88-64.05-95.88" style="fill: #58b947;"/>
        <path d="m346.12,506.17s-80.84,14.49-77.29-29.94c32.28-35.93,77.29,29.94,77.29,29.94" style="fill: #58b947;"/>
        <path d="m915.75,85.82s87.22-1.19,82.76,68.03c-64.83,42.45-82.76-68.03-82.76-68.03" style="fill: #58b947;"/>
        <path d="m1132.55,182.77s-73,4.31-73,48.75c30.98,39.75,73-48.75,73-48.75" style="fill: #58b947;"/>
        <path d="m1113.76,172.52s-52.47-69.97-91.06-37.49c-23.29,53.79,91.06,37.49,91.06,37.49" style="fill: #58b947;"/>
        <path d="m1373.12,530.16s-30.15-105.01,43.35-103.58c52.03,39.91-43.35,103.58-43.35,103.58" style="fill: #58b947;"/>
        <path d="m998.67,168.75s85.27,29.34,46.3,72.38c-44.9,19.05-46.3-72.38-46.3-72.38" style="fill: #58b947;"/>
        <path d="m1118.04,49.46s-14.99,99.82-73.94,60.57c-21.5-42.98,73.94-60.57,73.94-60.57" style="fill: #58b947;"/>
        <path d="m773.57,205.84s56.3-33.61,69.9-4.64c-2.5,48.03-69.9,4.64-69.9,4.64" style="fill: #58b947;"/>
        <path d="m825.91,391.68s17.56-77.74-28.55-69.06c-42.21,26.61,28.55,69.06,28.55,69.06" style="fill: #58b947;"/>
        <path d="m1604.12,533.35s-67.65-86.43-103.49-43.65c-15.27,68.53,103.49,43.65,103.49,43.65" style="fill: #58b947;"/>
        <path d="m1436.75,380.74s-80.98-19.15-80.98,29.28c33.45,40.37,80.98-29.28,80.98-29.28" style="fill: #58b947;"/>
        <path d="m422.9,77.19s25.82,61.7-17.92,76.14c-38.36-21.97,17.92-76.14,17.92-76.14" style="fill: #58b947;"/>
        <path d="m287.46,372.14s48.4,51.43,84.08,13.85c4.77-55.28-84.08-13.85-84.08-13.85" style="fill: #58b947;"/>
        <path d="m870.24,329.72s-85.72-1.74-69.64-42.57c39.58-35.56,69.64,42.57,69.64,42.57" style="fill: #58b947;"/>
        <path d="m1238.76,220.03s23.92,63.58-34.17,80c-50.45-33.31,34.17-80,34.17-80" style="fill: #58b947;"/>
        <path d="m97.11,354.99s85.81,36.69,88.57-14.38c-36.33-50.93-88.57,14.38-88.57,14.38" style="fill: #58b947;"/>
        <path d="m981.15,208.09s27.2,54.92-9.52,64.82c-39.98-18.5,9.52-64.82,9.52-64.82" style="fill: #58b947;"/>
        <path d="m1576.92,250.61s-99.98,24.92-78.01,67.68c54.82,30.77,78.01-67.68,78.01-67.68" style="fill: #58b947;"/>
        <path d="m197.84,284.2s57.33-28.85,74.95,7.49c-13.92,50.27-74.95-7.49-74.95-7.49" style="fill: #58b947;"/>
        <path d="m990.76,26.92s-29.31,105.72,29.91,100.58c50.26-30.48-29.91-100.58-29.91-100.58" style="fill: #58b947;"/>
        <path d="m872.44,161.85s-59.78,47.52-87.91,12.12c7.85-58.08,87.91-12.12,87.91-12.12" style="fill: #58b947;"/>
        <path d="m498.5,154.87s-61.97,13.68-38.83,40.86c34.13,18.24,38.83-40.86,38.83-40.86" style="fill: #58b947;"/>
        <path d="m873.05,55.1s55.8,67.72,10.66,101.15c-60.76,2.28-10.66-101.15-10.66-101.15" style="fill: #58b947;"/>
        <path d="m723.62,104.24s71.12,15.46,52.59,68.36c-71.82,9.37-52.59-68.36-52.59-68.36" style="fill: #58b947;"/>
        <path d="m206.39,422.67s66.12,0,64.62,42.38c-38.46,34.66-64.62-42.38-64.62-42.38" style="fill: #58b947;"/>
        <path d="m459.72,67.13s19.51,90.14,68.3,61.29c42.97-46.96-68.3-61.29-68.3-61.29" style="fill: #58b947;"/>
        <path d="m1436.75,293.09s11.62-59.05-22.75-52.39c-34.43,22.01,22.75,52.39,22.75,52.39" style="fill: #58b947;"/>
        <path d="m336.38,198.12s48.72,46.81,18.56,66.54c-42.92,2.75-18.56-66.54-18.56-66.54" style="fill: #58b947;"/>
        <path d="m221.87,350.09s-46.87,11.17-40.95,44.89c36.56,22.96,40.95-44.89,40.95-44.89" style="fill: #58b947;"/>
        <path d="m199.91,513.07c46.15,35.43-41.96,95.67-41.96,95.67,0,0-20.37-103.58,41.96-95.67" style="fill: #58b947;"/>
        <path d="m984.58,193.11s-99.44,36.85-107.1-22.05c26.68-56.44,107.1,22.05,107.1,22.05" style="fill: #58b947;"/>
        <path d="m716.18,144.68s2.92,59.36-40.39,66.74c-47.43-33.99,40.39-66.74,40.39-66.74" style="fill: #58b947;"/>
        <path d="m1140.96,177.87s82.88,52.74,35.75,82.07c-47.18,9.68-35.75-82.07-35.75-82.07" style="fill: #58b947;"/>
        <path d="m445.91,273.55s-43.8-59.88-77.21-20.79c-3.9,52.98,77.21,20.79,77.21,20.79" style="fill: #58b947;"/>
        <path d="m1163.03,28.55s-74.32,57.27-32.62,86.75c62.88,13.21,32.62-86.75,32.62-86.75" style="fill: #58b947;"/>
        <path d="m1093.74,260.03s22.45,73.41,65.68,53.33c24.52-39.45-65.68-53.33-65.68-53.33" style="fill: #58b947;"/>
        <path d="m157.7,271.07s70.68,21,53.16,60.8c-51.33,19.25-53.16-60.8-53.16-60.8" style="fill: #58b947;"/>
        <path d="m1462.14,583.98s69.17-80.17-.34-107.64c-62.29,20.41.34,107.64.34,107.64" style="fill: #58b947;"/>
        <path d="m370.28,224.83s-2.58-69.15,46.45-63.24c35.57,40.78-46.45,63.24-46.45,63.24" style="fill: #58b947;"/>
        <path d="m385.49,492.77s-31.88-93.13-64.98-61.28c-31.43,46.19,64.98,61.28,64.98,61.28" style="fill: #58b947;"/>
        <path d="m1383.34,111.1s-65.7,43.98-20.49,74.35c41.93,5.76,20.49-74.35,20.49-74.35" style="fill: #58b947;"/>
        <path d="m846.69,222.15s-6.21,63.19-34.42,48.56c-27.75-27.85,34.42-48.56,34.42-48.56" style="fill: #58b947;"/>
        <path d="m86.79,381.97s82.64-31.88,86.92,14.38c-31.28,47.09-86.92-14.38-86.92-14.38" style="fill: #58b947;"/>
        <path d="m618.58,275.03s12.27-67.2,62.94-57.9c22.91,51.88-62.94,57.9-62.94,57.9" style="fill: #58b947;"/>
        <path d="m1386.77,36.02s-85.59,21.85-71.04,77.21c62.44,41.84,71.04-77.21,71.04-77.21" style="fill: #58b947;"/>
        <path d="m1316.37,145.82s-18.13,66.45,25.54,64.1c37.01-23.21-25.54-64.1-25.54-64.1" style="fill: #58b947;"/>
        <path d="m794.51,48.51s-42.93,78.98-6.95,97.01c65.87-4.1,6.95-97.01,6.95-97.01" style="fill: #58b947;"/>
        <path d="m592.57,186.92s60.57-22.8,67.71,19.6c-24.44,36.91-67.71-19.6-67.71-19.6" style="fill: #58b947;"/>
        <path d="m1618.33,392.03s-107.18-26.27-90.46,29.09c30.25,31.9,90.46-29.09,90.46-29.09" style="fill: #58b947;"/>
        <path d="m1470.89,408.86s-43.44-62.34,2.03-72.89c37.32,15.21-2.03,72.89-2.03,72.89" style="fill: #58b947;"/>
        <path d="m321.63,92.2s73.22,6.67,64.15,59.18c-47.32,36.46-64.15-59.18-64.15-59.18" style="fill: #58b947;"/>
        <path d="m1128.69,426.12s3.86-76.67,58.79-72.88c38.33,38.74-58.79,72.88-58.79,72.88" style="fill: #58b947;"/>
        <path d="m1257.07,28.21s-36.04,85.78,24.2,98.18c62.15-32.86-24.2-98.18-24.2-98.18" style="fill: #58b947;"/>
        <path d="m358.09,433.37s46.65-69.33,83.16-35.8c10.1,63.75-83.16,35.8-83.16,35.8" style="fill: #58b947;"/>
        <path d="m123.52,234.85s87.32-50.97,105.47,13.86c-45.77,46.53-105.47-13.86-105.47-13.86" style="fill: #58b947;"/>
        <path d="m576.35,426.45s69.12-52.37,24.27-80.11c-50.24-.95-24.27,80.11-24.27,80.11" style="fill: #58b947;"/>
        <path d="m1445.94,468.99s78.56-11.2,61.99-54.32c-46.96-28-61.99,54.32-61.99,54.32" style="fill: #58b947;"/>
        <path d="m600.75,85.66s-8.06,70.29-54,57.93c-34.3-50.64,54-57.93,54-57.93" style="fill: #58b947;"/>
        <path d="m1179.29,155.08s7.47,61.92,51.25,49.4c29.23-45.69-51.25-49.4-51.25-49.4" style="fill: #58b947;"/>
        <path d="m497.77,222.35s-8.01-84.22,54.74-69.02c27.89,39.85-54.74,69.02-54.74,69.02" style="fill: #58b947;"/>
        <path d="m270.38,372.13s-21.46,65.61,22.52,67.64c40.94-17.1-22.52-67.64-22.52-67.64" style="fill: #58b947;"/>
        <path d="m1170.3,173.1s-65.44-11.83-47.15-47.45c38.23-25.42,47.15,47.45,47.15,47.45" style="fill: #58b947;"/>
        <path d="m1313.34,136.55s-38.31,73.63-65.24,53.9c-32.9-46.95,65.24-53.9,65.24-53.9" style="fill: #58b947;"/>
        <path d="m145.31,492.82s78.35-45.32,47.29-85.65c-67.93-9.32-47.29,85.65-47.29,85.65" style="fill: #58b947;"/>
        <path d="m564.79,442.8s-81.38-26.24-63.6-59.23c51.38-28.94,63.6,59.23,63.6,59.23" style="fill: #58b947;"/>
        <path d="m911.48,291.72s35.56-33.84,55.8-14.58c3.01,38.45-55.8,14.58-55.8,14.58" style="fill: #58b947;"/>
        <path d="m1369.17,328.17s-32.46,66.44-71.64,36.5c-7.02-53.15,71.64-36.5,71.64-36.5" style="fill: #58b947;"/>
        <path d="m678.54,315.81s-6.36-91.98,41.63-79.17c46.21,31.31-41.63,79.17-41.63,79.17" style="fill: #58b947;"/>
        <path d="m777.71,182.44s-31.32,69.99-67.13,40.08c-24.76-47.94,67.13-40.08,67.13-40.08" style="fill: #58b947;"/>
        <path d="m1284.57,476.33s19.6-84.4,70.94-61.8c24.05,40.71-70.94,61.8-70.94,61.8" style="fill: #58b947;"/>
        <path d="m1222.76,432.66s-33.08-60.43,7.96-72.77c48.19,9.72-7.96,72.77-7.96,72.77" style="fill: #58b947;"/>
        <path d="m271.2,570.25s20.75-75.99-28.09-74.13c-38.62,30.24,28.09,74.13,28.09,74.13" style="fill: #58b947;"/>
        <path d="m259.64,130.64s31.77,88.84-23.19,110.84c-59.28-41.03,23.19-110.84,23.19-110.84" style="fill: #58b947;"/>
        <path d="m710.37,104.25s-79.52-1.99-71.59,45.72c35.52,30.78,71.59-45.72,71.59-45.72" style="fill: #58b947;"/>
        <path d="m1471.35,176.67s-50.58,55.88-91.59,22.48c-5.16-57.33,91.59-22.48,91.59-22.48" style="fill: #58b947;"/>
        <path d="m1618.9,371.74s-66.79-68.45-106.47-33.82c-11.63,73.23,106.47,33.82,106.47,33.82" style="fill: #58b947;"/>
        <path d="m1251.43,458.07s-14.5-90.5,43.14-85.65c47.36,42.83-43.14,85.65-43.14,85.65" style="fill: #58b947;"/>
        <path d="m285.02,302.96s59.48-59.58,27.38-84.79c-63.6-11.79-27.38,84.79-27.38,84.79" style="fill: #58b947;"/>
        <path d="m284.21,107.23s-33.86,96.37,34.11,103.54c63.29-37.85-34.11-103.54-34.11-103.54" style="fill: #58b947;"/>
        <path d="m491.92,492.77s26.67-75.66-21.3-97.05c-64.33,31.18,21.3,97.05,21.3,97.05" style="fill: #58b947;"/>
        <path d="m592.72,208.32s44.11,58.81-3.11,81.48c-51.72-18.08,3.11-81.48,3.11-81.48" style="fill: #58b947;"/>
        <path d="m848.45,422.39s82.67-3.51,55.4-60.14c-47.21-11.65-55.4,60.14-55.4,60.14" style="fill: #58b947;"/>
        <path d="m199.88,447.51s52.83,39.76,17.59,65.12c-43.76,2.3-17.59-65.12-17.59-65.12" style="fill: #58b947;"/>
      </g>
      <g style="clip-path: url(#clippath-2);">
        <path d="m-592.52,894.1c191.12-31.29,595.91-55.25,1298.71-71.92,1125.4-26.7,2020.72,192.89,2787.26,190.71,358.11-1.02,969.46-87.86,1144.96-136.93v334.32H-592.52s0-262.6,0-316.19" style="fill: #582700;"/>
      </g>
      <path d="m236.39,1033.39h-63.58v-24.05l53.69-90.3h41.65v87.85h16.97v26.49h-16.97v35.83h-31.75v-35.83Zm0-51.01c0-9.54.84-24.09,1.31-33.64h-.93c-3.71,8.49-7.87,16.81-12.04,25.38l-19.3,32.78h30.96v-24.52Zm70.32,58.79h32.15v-86.89h-27.54v-21.57c15.78-3.06,26.18-7.15,36.48-13.66h25.1v122.12h27.54v28.05h-93.73v-28.05Zm174.22-7.77h-63.58v-24.05l53.69-90.3h41.65v87.85h16.97v26.49h-16.97v35.83h-31.75v-35.83Zm0-51.01c0-9.54.84-24.09,1.31-33.64h-.93c-3.71,8.49-7.87,16.81-12.04,25.38l-19.3,32.78h30.96v-24.52Zm64.24,14.67h56.89v24.63h-56.89v-24.63Zm131.2,36.34h-63.58v-24.05l53.69-90.3h41.65v87.85h16.97v26.49h-16.97v35.83h-31.75v-35.83Zm0-51.01c0-9.54.84-24.09,1.31-33.64h-.93c-3.71,8.49-7.87,16.81-12.04,25.38l-19.3,32.78h30.96v-24.52Zm59.26,68.4l15.7-21.96c8.99,8.76,19.89,15.19,32.22,15.19,14.35,0,23.91-6.39,23.91-17.93,0-13.18-7.54-21.3-39.52-21.3v-24.63c26.42,0,34.73-8.2,34.73-20.11,0-10.57-6.59-16.55-18.14-16.55-10.46,0-18.39,4.84-27.48,13.13l-17.22-21.18c13.54-11.88,28.34-19.22,46.24-19.22,30.54,0,50.73,14.8,50.73,41.2,0,15.47-8.69,26.55-24.52,33.35v.95c17,4.95,29.31,17.19,29.31,36.61,0,27.96-25.09,43.73-54.68,43.73-23.81,0-40.49-8.62-51.27-21.28Zm122.27,0l15.7-21.96c8.99,8.76,19.89,15.19,32.22,15.19,14.35,0,23.91-6.39,23.91-17.93,0-13.18-7.54-21.3-39.52-21.3v-24.63c26.42,0,34.73-8.2,34.73-20.11,0-10.57-6.59-16.55-18.14-16.55-10.46,0-18.39,4.84-27.48,13.13l-17.22-21.18c13.54-11.88,28.34-19.22,46.24-19.22,30.54,0,50.73,14.8,50.73,41.2,0,15.47-8.69,26.55-24.52,33.35v.95c17,4.95,29.31,17.19,29.31,36.61,0,27.96-25.09,43.73-54.68,43.73-23.81,0-40.49-8.62-51.27-21.28Zm127.25-53.73h56.89v24.63h-56.89v-24.63Zm72.79,33.78c0-18.08,11.25-29.32,25.14-36.89v-.95c-11.42-8.65-19.78-19.61-19.78-35.3,0-25.57,19.73-41.48,47.05-41.48s44.71,16.25,44.71,41.2c0,14.3-9.15,25.92-19.21,32.82v.95c14.03,7.85,25.36,19.34,25.36,39.28,0,23.7-20.84,41.59-52.01,41.59-29.34,0-51.27-16.8-51.27-41.23Zm71.64-1.53c0-13.29-12.55-18.3-31.02-26.2-6.48,5.95-11.27,14.52-11.27,23.83,0,13.16,10.29,20.97,22.69,20.97,11.16,0,19.61-6.09,19.61-18.6Zm-2.15-69.55c0-11.65-6.62-19.38-17.84-19.38-9.01,0-16.37,5.76-16.37,17.33,0,12.18,10.24,18.05,25.19,24.14,5.8-6.98,9.01-14.21,9.01-22.08Zm52.77,71.08c0-18.08,11.25-29.32,25.14-36.89v-.95c-11.42-8.65-19.78-19.61-19.78-35.3,0-25.57,19.73-41.48,47.05-41.48s44.71,16.25,44.71,41.2c0,14.3-9.15,25.92-19.21,32.82v.95c14.03,7.85,25.36,19.34,25.36,39.28,0,23.7-20.84,41.59-52.01,41.59-29.34,0-51.27-16.8-51.27-41.23Zm71.64-1.53c0-13.29-12.55-18.3-31.02-26.2-6.48,5.95-11.27,14.52-11.27,23.83,0,13.16,10.29,20.97,22.69,20.97,11.16,0,19.61-6.09,19.61-18.6Zm-2.15-69.55c0-11.65-6.62-19.38-17.84-19.38-9.01,0-16.37,5.76-16.37,17.33,0,12.18,10.24,18.05,25.19,24.14,5.8-6.98,9.01-14.21,9.01-22.08Zm52.58,37.86c0-56.14,28.53-81.4,59.45-81.4,19.46,0,33.68,8.4,43,18.08l-17.99,20.79c-5-5.79-14.22-10.82-22.8-10.82-16.17,0-29.11,11.91-30.47,47.05,7.8-10.14,20.46-16.02,29.55-16.02,25.17,0,43.81,14.6,43.81,46.43s-22.26,50.33-48.91,50.33c-28.5,0-55.63-21.73-55.63-74.45Zm54.95,48.34c10.05,0,18.52-7.26,18.52-24.22,0-15.88-8.2-21.89-19.31-21.89-7.39,0-15.56,4.04-22.11,14.91,3.03,23.65,12.64,31.2,22.9,31.2Zm67.31-48.34c0-56.14,28.53-81.4,59.45-81.4,19.46,0,33.68,8.4,43,18.08l-17.99,20.79c-5-5.79-14.22-10.82-22.8-10.82-16.17,0-29.11,11.91-30.47,47.05,7.8-10.14,20.46-16.02,29.55-16.02,25.17,0,43.81,14.6,43.81,46.43s-22.26,50.33-48.91,50.33c-28.5,0-55.63-21.73-55.63-74.45Zm54.95,48.34c10.05,0,18.52-7.26,18.52-24.22,0-15.88-8.2-21.89-19.31-21.89-7.39,0-15.56,4.04-22.11,14.91,3.03,23.65,12.64,31.2,22.9,31.2Z" style="fill: #dfe1df;"/>
      <g style="clip-path: url(#clippath-3);">
        <path d="m236.39,1069.22h31.75v-150.17h-41.65l-53.69,90.3v24.05h112.3v-26.5h-79.68l19.3-32.78c4.17-8.57,8.34-16.89,12.04-25.38h.93c-.46,9.54-1.31,24.09-1.31,33.64v86.84Z" style="fill: none; stroke: #dfe1df; stroke-miterlimit: 10; stroke-width: 2.49px;"/>
        <path d="m306.7,1069.22h93.73v-28.05h-27.54v-122.12h-25.1c-10.3,6.51-20.71,10.6-36.48,13.66v21.57h27.54v86.89h-32.15v28.05Z" style="fill: none; stroke: #dfe1df; stroke-miterlimit: 10; stroke-width: 2.49px;"/>
        <path d="m480.92,1069.22h31.75v-150.17h-41.65l-53.69,90.3v24.05h112.3v-26.5h-79.68l19.3-32.78c4.17-8.57,8.34-16.89,12.04-25.38h.93c-.46,9.54-1.31,24.09-1.31,33.64v86.84Z" style="fill: none; stroke: #dfe1df; stroke-miterlimit: 10; stroke-width: 2.49px;"/>
        <rect x="545.16" y="997.05" width="56.89" height="24.63" style="fill: none; stroke: #dfe1df; stroke-miterlimit: 10; stroke-width: 2.49px;"/>
        <path d="m676.36,1069.22h31.75v-150.17h-41.65l-53.69,90.3v24.05h112.3v-26.5h-79.68l19.3-32.78c4.17-8.57,8.34-16.89,12.04-25.38h.93c-.46,9.54-1.31,24.09-1.31,33.64v86.84Z" style="fill: none; stroke: #dfe1df; stroke-miterlimit: 10; stroke-width: 2.49px;"/>
        <path d="m786.89,1072.06c29.59,0,54.68-15.77,54.68-43.73,0-19.42-12.31-31.66-29.31-36.61v-.95c15.83-6.8,24.52-17.89,24.52-33.35,0-26.4-20.19-41.2-50.73-41.2-17.9,0-32.69,7.34-46.23,19.22l17.22,21.18c9.1-8.29,17.03-13.13,27.49-13.13,11.55,0,18.14,5.98,18.14,16.55,0,11.9-8.31,20.11-34.73,20.11v24.63c31.98,0,39.52,8.12,39.52,21.3,0,11.54-9.56,17.94-23.91,17.94-12.34,0-23.23-6.42-32.22-15.19l-15.7,21.96c10.79,12.66,27.47,21.28,51.28,21.28Z" style="fill: none; stroke: #dfe1df; stroke-miterlimit: 10; stroke-width: 2.49px;"/>
        <path d="m909.16,1072.06c29.59,0,54.68-15.77,54.68-43.73,0-19.42-12.31-31.66-29.31-36.61v-.95c15.83-6.8,24.52-17.89,24.52-33.35,0-26.4-20.19-41.2-50.73-41.2-17.9,0-32.69,7.34-46.23,19.22l17.22,21.18c9.1-8.29,17.03-13.13,27.49-13.13,11.55,0,18.14,5.98,18.14,16.55,0,11.9-8.31,20.11-34.73,20.11v24.63c31.98,0,39.52,8.12,39.52,21.3,0,11.54-9.56,17.94-23.91,17.94-12.34,0-23.23-6.42-32.22-15.19l-15.7,21.96c10.79,12.66,27.47,21.28,51.28,21.28Z" style="fill: none; stroke: #dfe1df; stroke-miterlimit: 10; stroke-width: 2.49px;"/>
        <rect x="985.14" y="997.05" width="56.89" height="24.63" style="fill: none; stroke: #dfe1df; stroke-miterlimit: 10; stroke-width: 2.49px;"/>
        <path d="m1109.97,1047.9c-12.39,0-22.69-7.81-22.69-20.97,0-9.32,4.79-17.88,11.27-23.83,18.47,7.9,31.02,12.91,31.02,26.2,0,12.52-8.44,18.61-19.61,18.61Zm8.44-66.07c-14.95-6.09-25.19-11.96-25.19-24.14s7.35-17.33,16.37-17.33c11.22,0,17.84,7.73,17.84,19.38,0,7.87-3.21,15.1-9.01,22.08Zm-9.21,90.22c31.17,0,52.01-17.89,52.01-41.59,0-19.95-11.33-31.44-25.36-39.28v-.95c10.05-6.9,19.21-18.53,19.21-32.82,0-24.96-17.79-41.2-44.71-41.2s-47.05,15.91-47.05,41.48c0,15.69,8.36,26.65,19.78,35.3v.94c-13.89,7.57-25.14,18.8-25.14,36.89,0,24.43,21.93,41.23,51.27,41.23Z" style="fill: none; stroke: #dfe1df; stroke-miterlimit: 10; stroke-width: 2.49px;"/>
        <path d="m1232.24,1047.9c-12.39,0-22.69-7.81-22.69-20.97,0-9.32,4.79-17.88,11.27-23.83,18.47,7.9,31.02,12.91,31.02,26.2,0,12.52-8.44,18.61-19.61,18.61Zm8.44-66.07c-14.95-6.09-25.19-11.96-25.19-24.14s7.35-17.33,16.37-17.33c11.22,0,17.84,7.73,17.84,19.38,0,7.87-3.21,15.1-9.01,22.08Zm-9.21,90.22c31.17,0,52.01-17.89,52.01-41.59,0-19.95-11.33-31.44-25.36-39.28v-.95c10.05-6.9,19.21-18.53,19.21-32.82,0-24.96-17.79-41.2-44.71-41.2s-47.05,15.91-47.05,41.48c0,15.69,8.36,26.65,19.78,35.3v.94c-13.89,7.57-25.14,18.8-25.14,36.89,0,24.43,21.93,41.23,51.27,41.23Z" style="fill: none; stroke: #dfe1df; stroke-miterlimit: 10; stroke-width: 2.49px;"/>
        <path d="m1357.91,1072.06c26.65,0,48.91-19.08,48.91-50.33s-18.64-46.43-43.81-46.43c-9.67,0-23.37,6.65-30.97,18.02l1.53,22.71c6.67-11.82,15.2-16.19,22.88-16.19,11.11,0,19.31,6,19.31,21.88,0,16.97-8.47,24.22-18.52,24.22-12.42,0-23.88-11.06-23.88-48.34,0-40.02,13.48-53.34,30.59-53.34,8.58,0,17.8,5.04,22.8,10.82l17.99-20.79c-9.32-9.68-23.54-18.08-43-18.08-30.92,0-59.45,25.26-59.45,81.4,0,52.72,27.14,74.45,55.64,74.45Z" style="fill: none; stroke: #dfe1df; stroke-miterlimit: 10; stroke-width: 2.49px;"/>
        <path d="m1480.18,1072.06c26.65,0,48.91-19.08,48.91-50.33s-18.64-46.43-43.81-46.43c-9.67,0-23.37,6.65-30.97,18.02l1.53,22.71c6.67-11.82,15.2-16.19,22.88-16.19,11.11,0,19.31,6,19.31,21.88,0,16.97-8.47,24.22-18.52,24.22-12.42,0-23.88-11.06-23.88-48.34,0-40.02,13.48-53.34,30.59-53.34,8.58,0,17.8,5.04,22.8,10.82l17.99-20.79c-9.32-9.68-23.54-18.08-42.99-18.08-30.92,0-59.45,25.26-59.45,81.4,0,52.72,27.14,74.45,55.64,74.45Z" style="fill: none; stroke: #dfe1df; stroke-miterlimit: 10; stroke-width: 2.49px;"/>
      </g>
    </g>
  </g>
  <rect x="-9" y="1117.55" width="1746" height="187.45" style="fill: #582700;"/>
  <g>
    <path d="m110.68,1147.51h49.02l-2.77,14.85h-33.75l-4.12,22.55h31.75l-2.77,14.62h-31.75l-7.06,39.11h-15.27l16.73-91.13Z" style="fill: #e6e6e5;"/>
    <path d="m161.1,1193.09c2.05-11.31,3.31-18.34,4-23.29h14.69c-.12,2.17-.95,7.96-1.78,12.46,3.94-7.9,9.58-13.52,20.04-13.52l-3.4,18.01c-11.8-.22-18.23,5.73-20.99,20.69l-5.7,31.21h-15.22l8.37-45.54Z" style="fill: #e6e6e5;"/>
    <path d="m213.68,1208.28c-.17,1.15-.5,3.06-.5,5.3,0,6.55,1.92,12.61,8.85,12.61s9.18-4.86,10.98-8.81h15.24c-4.12,12.98-11.65,22.48-27.43,22.48s-22.69-11.02-22.69-27.62,8.01-43.73,31.98-43.73c15.02,0,22,10.96,22,24.48,0,3.79-.49,8.54-1.99,15.29h-36.44Zm23.42-11.31c.35-1.68.47-3.15.47-4.76,0-5.87-2.23-10.63-8.8-10.63-7.95,0-11.51,8.93-12.86,15.39h21.18Z" style="fill: #e6e6e5;"/>
    <path d="m274.38,1208.28c-.17,1.15-.5,3.06-.5,5.3,0,6.55,1.92,12.61,8.85,12.61s9.18-4.86,10.98-8.81h15.24c-4.12,12.98-11.65,22.48-27.43,22.48s-22.69-11.02-22.69-27.62,8.01-43.73,31.98-43.73c15.02,0,22,10.96,22,24.48,0,3.79-.49,8.54-1.99,15.29h-36.44Zm23.42-11.31c.35-1.68.47-3.15.47-4.76,0-5.87-2.23-10.63-8.8-10.63-7.95,0-11.51,8.93-12.86,15.39h21.18Z" style="fill: #e6e6e5;"/>
    <path d="m400.21,1198.61h-32.69l-4.62,25.3h38.54l-4.58,14.73h-51.78l16.73-91.13h49.19l-2.77,14.85h-34.03l-4,21.4h32.69l-2.67,14.85Z" style="fill: #e6e6e5;"/>
    <path d="m423.47,1217.05c.24,7.1,3.82,10.19,8.91,10.19s7.9-2.47,7.9-7.38c0-4.36-3.06-6.71-9.94-10.1-10.93-5.37-15.94-10.22-15.94-20.08,0-12.35,7.99-21.19,22.77-21.19,15.84,0,22.22,10.78,21.82,21.66h-14.7c-.24-5.25-2.3-8.83-8.02-8.83-3.29,0-6.71,1.64-6.71,6.42,0,3.6,2.32,4.92,9.05,8.24,11.23,5.49,17.35,10.6,17.35,21.42,0,11.83-7.24,22.42-24.68,22.42-14.96,0-23.25-8.38-23.02-22.79h15.22Z" style="fill: #e6e6e5;"/>
    <path d="m467.38,1169.8h9.14l3.7-18.69h14.62l-3.6,18.69h10.76l-2.56,13.53h-10.76l-6.84,36.34c-.85,4.73-.22,6.7,4.55,6.7,1.83,0,3.94-.46,5.58-.73l-2.24,11.99c-3.29,1.42-7.83,1.7-9.88,1.7-11.2,0-15.74-5.35-13.35-18.39l7.16-37.61h-8.83l2.56-13.53Z" style="fill: #e6e6e5;"/>
    <path d="m511.86,1169.8h15.22l-12.62,68.84h-15.22l12.62-68.84Zm5.02-27.88h15.22l-3.01,16.63h-15.22l3.01-16.63Z" style="fill: #e6e6e5;"/>
    <path d="m537.89,1191.13c2.47-13.6,3.23-18.14,3.7-21.33h14.7c-.23,2.33-.72,6.45-1.12,8.55,4.09-5.93,8.94-9.85,16.82-9.85s11.11,5.15,12.17,10.08c3.67-5.26,9.37-10.08,17.91-10.08,10.35,0,18.01,6.37,14.48,25.81l-8.15,44.33h-14.82l8.12-44.21c1.13-6.18.33-11.64-5.95-11.64-7.08,0-10.27,6.02-12.16,16.35l-7.23,39.5h-14.92l8-43.82c1.17-6.48.14-11.92-5.93-11.92-6.54,0-10.03,5.34-12.29,17.53l-7.01,38.21h-15.02l8.7-47.51Z" style="fill: #e6e6e5;"/>
    <path d="m671.77,1222.27c-1.2,6.77-2.38,13.18-2.83,16.37h-14.69c.14-1.87.39-3.83.9-6.86-3.75,5.44-8.49,8.06-16.2,8.06-9.97,0-16.02-7.44-16.02-18.48,0-15.55,9.96-23.71,26.51-25.3,4.04-.42,7.06-.67,12.22-.67l.41-1.99c1.51-7.25.46-12.65-7.39-12.65-6.94,0-8.75,5.05-9.8,8.69h-14.95c2.07-10.76,7.94-20.93,25.85-20.93,15.27,0,24.61,7.42,20.79,27.82l-4.82,25.94Zm-12.05-15.23c-3.33-.02-6.2.02-9.44.53-6.09.83-11.68,3.56-11.68,11.27,0,4.46,2.02,7.68,7.08,7.68,9.42,0,12.04-8.94,13.74-18.01l.3-1.48Z" style="fill: #e6e6e5;"/>
    <path d="m687.41,1169.8h9.14l3.7-18.69h14.62l-3.6,18.69h10.76l-2.56,13.53h-10.76l-6.84,36.34c-.85,4.73-.22,6.7,4.55,6.7,1.83,0,3.94-.46,5.58-.73l-2.24,11.99c-3.29,1.42-7.83,1.7-9.88,1.7-11.2,0-15.74-5.35-13.35-18.39l7.16-37.61h-8.83l2.56-13.53Z" style="fill: #e6e6e5;"/>
    <path d="m735.99,1208.28c-.17,1.15-.5,3.06-.5,5.3,0,6.55,1.92,12.61,8.85,12.61s9.18-4.86,10.98-8.81h15.24c-4.12,12.98-11.65,22.48-27.43,22.48s-22.69-11.02-22.69-27.62,8.01-43.73,31.98-43.73c15.02,0,22,10.96,22,24.48,0,3.79-.49,8.54-1.99,15.29h-36.44Zm23.42-11.31c.35-1.68.47-3.15.47-4.76,0-5.87-2.23-10.63-8.8-10.63-7.95,0-11.51,8.93-12.86,15.39h21.18Z" style="fill: #e6e6e5;"/>
    <path d="m793.72,1217.05c.24,7.1,3.82,10.19,8.91,10.19s7.9-2.47,7.9-7.38c0-4.36-3.06-6.71-9.94-10.1-10.93-5.37-15.94-10.22-15.94-20.08,0-12.35,7.99-21.19,22.77-21.19,15.84,0,22.22,10.78,21.82,21.66h-14.7c-.24-5.25-2.3-8.83-8.02-8.83-3.29,0-6.71,1.64-6.71,6.42,0,3.6,2.32,4.92,9.05,8.24,11.23,5.49,17.35,10.6,17.35,21.42,0,11.83-7.24,22.42-24.68,22.42-14.96,0-23.25-8.38-23.02-22.79h15.22Z" style="fill: #e6e6e5;"/>
    <path d="m915.8,1191.27l-4.7,25.84h-21.3l4.7-25.84h21.3Z" style="fill: #e6e6e5;"/>
    <path d="m993.21,1147.51h49.02l-2.78,14.85h-33.75l-4.12,22.55h31.75l-2.78,14.62h-31.75l-7.06,39.11h-15.27l16.73-91.13Z" style="fill: #e6e6e5;"/>
    <path d="m1087.41,1218.31c-1.79,9.91-2.95,16.67-3.52,20.33h-14.8c.23-2.2.63-5.52.93-7.42-4.63,6.78-9.71,8.62-17.04,8.62-11.27,0-16.54-10.13-13.68-25.58l8.17-44.46h15.12l-7.83,42.75c-1.35,7.42-.23,13.01,5.96,13.01s10.88-4.49,13.33-17.52l7.09-38.23h15.25l-8.97,48.51Z" style="fill: #e6e6e5;"/>
    <path d="m1098.27,1238.64l17.64-96.72h15.22l-17.64,96.72h-15.22Z" style="fill: #e6e6e5;"/>
    <path d="m1128.11,1238.64l17.64-96.72h15.22l-17.64,96.72h-15.22Z" style="fill: #e6e6e5;"/>
    <path d="m1180.12,1169.8c1.44,26.39,2.74,45.3,2.71,52.52h.12c2.97-7.94,11.51-31.56,20.44-52.52h15.99l-32.72,74.03c-9.17,20.64-14.91,22.39-26.98,22.39-1.06,0-5.36-.3-7.09-.68l2.66-14.63c1.44.27,3.5.43,4.95.43,5.68,0,8.16-3.97,11.22-11.32l-6.71-70.22h15.43Z" style="fill: #e6e6e5;"/>
    <path d="m1279.15,1147.51l-16.73,91.13h-15.57l16.73-91.13h15.57Z" style="fill: #e6e6e5;"/>
    <path d="m1286.22,1191.26c2.64-14.2,3.24-18.5,3.7-21.46h14.91c-.14,1.46-.54,4.87-1.15,8.66,3.12-4.96,8-9.96,16.74-9.96,12.21,0,17.8,9.44,14.87,25.07l-8.23,45.07h-15.25l7.6-41.64c1.44-7.67.87-13.63-6.42-13.63-6.66,0-10.96,4.76-13.23,16.94l-7.02,38.33h-15.22l8.7-47.37Z" style="fill: #e6e6e5;"/>
    <path d="m1355.2,1217.05c.24,7.1,3.82,10.19,8.91,10.19s7.9-2.47,7.9-7.38c0-4.36-3.06-6.71-9.94-10.1-10.93-5.37-15.94-10.22-15.94-20.08,0-12.35,7.99-21.19,22.77-21.19,15.84,0,22.22,10.78,21.82,21.66h-14.7c-.24-5.25-2.3-8.83-8.02-8.83-3.29,0-6.71,1.64-6.71,6.42,0,3.6,2.32,4.92,9.05,8.24,11.23,5.49,17.35,10.6,17.35,21.42,0,11.83-7.24,22.42-24.68,22.42-14.96,0-23.25-8.38-23.02-22.79h15.22Z" style="fill: #e6e6e5;"/>
    <path d="m1445.1,1218.31c-1.79,9.91-2.95,16.67-3.52,20.33h-14.8c.23-2.2.63-5.52.93-7.42-4.63,6.78-9.71,8.62-17.04,8.62-11.27,0-16.54-10.13-13.68-25.58l8.17-44.46h15.12l-7.83,42.75c-1.35,7.42-.23,13.01,5.96,13.01s10.88-4.49,13.33-17.52l7.09-38.23h15.25l-8.97,48.51Z" style="fill: #e6e6e5;"/>
    <path d="m1464.34,1193.09c2.05-11.31,3.31-18.34,4-23.29h14.69c-.11,2.17-.95,7.96-1.78,12.46,3.94-7.9,9.58-13.52,20.04-13.52l-3.4,18.01c-11.8-.22-18.23,5.73-20.99,20.69l-5.7,31.21h-15.22l8.37-45.54Z" style="fill: #e6e6e5;"/>
    <path d="m1516.92,1208.28c-.17,1.15-.5,3.06-.5,5.3,0,6.55,1.92,12.61,8.86,12.61s9.18-4.86,10.98-8.81h15.24c-4.12,12.98-11.65,22.48-27.43,22.48s-22.69-11.02-22.69-27.62,8.01-43.73,31.98-43.73c15.02,0,22,10.96,22,24.48,0,3.79-.49,8.54-1.99,15.29h-36.44Zm23.42-11.31c.34-1.68.47-3.15.47-4.76,0-5.87-2.23-10.63-8.8-10.63-7.95,0-11.51,8.93-12.86,15.39h21.18Z" style="fill: #e6e6e5;"/>
    <path d="m1628.49,1141.92l-14.24,77.54c-1.54,8.03-2.71,15.26-3.37,19.18h-14.8c.12-1.48.59-5.15,1.02-7.47-3.79,5.79-8.26,8.79-16.72,8.79-11.14,0-18.17-9.26-18.17-26.39,0-19.83,10.09-45.06,30.02-45.06,8.88,0,13.35,4.53,14.67,7.94l6.37-34.52h15.22Zm-50.21,70.09c0,9.6,3.16,14.14,8.83,14.14,9.61,0,13.22-10.5,15.28-21.99,2.35-13.16,1.46-21.4-7.86-21.4-11.25,0-16.25,17.91-16.25,29.25Z" style="fill: #e6e6e5;"/>
  </g>
</svg>