<?xml version="1.0" encoding="UTF-8"?>
<svg id="Layer_2" data-name="Layer 2" xmlns="http://www.w3.org/2000/svg" xmlns:xlink="http://www.w3.org/1999/xlink" viewBox="0 0 286.57 420">
  <defs>
    <style>
      .cls-1, .cls-2, .cls-3, .cls-4, .cls-5, .cls-6 {
        fill: none;
      }

      .cls-2 {
        stroke-width: .71px;
      }

      .cls-2, .cls-3, .cls-7, .cls-4, .cls-8, .cls-9, .cls-10, .cls-5, .cls-11, .cls-12, .cls-13, .cls-14, .cls-15, .cls-16, .cls-17, .cls-6, .cls-18, .cls-19, .cls-20, .cls-21, .cls-22, .cls-23 {
        stroke-linecap: round;
      }

      .cls-2, .cls-3, .cls-5, .cls-14, .cls-15, .cls-24, .cls-6, .cls-20 {
        stroke: #225003;
      }

      .cls-2, .cls-3, .cls-25, .cls-24, .cls-26 {
        stroke-miterlimit: 10;
      }

      .cls-3, .cls-24 {
        stroke-width: 1.42px;
      }

      .cls-27, .cls-14, .cls-15, .cls-20 {
        isolation: isolate;
      }

      .cls-27, .cls-20 {
        opacity: .92;
      }

      .cls-7 {
        fill: #73523c;
      }

      .cls-7, .cls-4, .cls-8, .cls-9, .cls-10, .cls-5, .cls-11, .cls-12, .cls-13, .cls-14, .cls-15, .cls-16, .cls-17, .cls-6, .cls-18, .cls-19, .cls-20, .cls-21, .cls-22, .cls-23 {
        stroke-linejoin: round;
      }

      .cls-7, .cls-8, .cls-9, .cls-10, .cls-11, .cls-25, .cls-12, .cls-13, .cls-16, .cls-17, .cls-26, .cls-18, .cls-19, .cls-21, .cls-22, .cls-23 {
        stroke: #000;
      }

      .cls-7, .cls-8, .cls-10, .cls-11, .cls-12, .cls-13, .cls-16, .cls-18, .cls-19, .cls-22 {
        stroke-width: .72px;
      }

      .cls-4 {
        stroke: #c96;
        stroke-width: .43px;
      }

      .cls-8 {
        fill: #813e00;
      }

      .cls-9 {
        stroke-width: .57px;
      }

      .cls-9, .cls-10 {
        fill: #f8c666;
      }

      .cls-28 {
        fill: #f8991d;
        font-family: JosefinSansRoman-SemiBold, 'Josefin Sans';
        font-size: 22px;
        font-variation-settings: 'wght' 600;
        font-weight: 600;
      }

      .cls-5 {
        stroke-width: 14.17px;
      }

      .cls-11 {
        fill: #002859;
      }

      .cls-25 {
        stroke-width: .75px;
      }

      .cls-25, .cls-29 {
        fill: #333;
      }

      .cls-30 {
        fill: #c96;
      }

      .cls-12 {
        fill: #563e2d;
      }

      .cls-13 {
        fill: #009bd0;
      }

      .cls-14 {
        fill: url(#radial-gradient-2);
      }

      .cls-14, .cls-15 {
        opacity: .58;
      }

      .cls-14, .cls-15, .cls-20 {
        stroke-width: 5.67px;
      }

      .cls-15 {
        fill: url(#radial-gradient-3);
      }

      .cls-16 {
        fill: #002c5c;
      }

      .cls-24 {
        fill: url(#radial-gradient-6);
      }

      .cls-17, .cls-26, .cls-23 {
        stroke-width: .29px;
      }

      .cls-17, .cls-18 {
        fill: #2f1d00;
      }

      .cls-26 {
        fill: url(#radial-gradient-4);
      }

      .cls-6 {
        stroke-width: 8.5px;
      }

      .cls-31 {
        opacity: .86;
      }

      .cls-19 {
        fill: #ffd0a4;
      }

      .cls-20 {
        fill: url(#radial-gradient);
      }

      .cls-21 {
        fill: url(#radial-gradient-5);
        stroke-width: .14px;
      }

      .cls-32 {
        fill: #f8991d;
      }

      .cls-22 {
        fill: #003577;
      }

      .cls-23 {
        fill: #fff;
      }
    </style>
    <radialGradient id="radial-gradient" cx="143.64" cy="-65.4" fx="143.64" fy="-65.4" r="130.63" gradientTransform="translate(0 138) scale(1 -1)" gradientUnits="userSpaceOnUse">
      <stop offset="0" stop-color="#219e00"/>
      <stop offset=".27" stop-color="#219b00"/>
      <stop offset=".45" stop-color="#219200"/>
      <stop offset=".6" stop-color="#218301"/>
      <stop offset=".74" stop-color="#226e02"/>
      <stop offset=".86" stop-color="#225303"/>
      <stop offset=".87" stop-color="#225003"/>
    </radialGradient>
    <radialGradient id="radial-gradient-2" cx="62.25" cy="-23.96" fx="62.25" fy="-14.77" r="64.08" gradientTransform="translate(0 209.79) scale(1 -1.2)" gradientUnits="userSpaceOnUse">
      <stop offset=".08" stop-color="#219e00"/>
      <stop offset=".29" stop-color="#219b00"/>
      <stop offset=".44" stop-color="#219200"/>
      <stop offset=".56" stop-color="#218301"/>
      <stop offset=".67" stop-color="#226e02"/>
      <stop offset=".78" stop-color="#225303"/>
      <stop offset=".79" stop-color="#225003"/>
    </radialGradient>
    <radialGradient id="radial-gradient-3" cx="223.65" cy="-109.76" fx="223.65" fy="-109.76" r="60.2" gradientTransform="translate(0 138) scale(1 -1)" gradientUnits="userSpaceOnUse">
      <stop offset=".3" stop-color="#219e00"/>
      <stop offset=".45" stop-color="#218d01"/>
      <stop offset="1" stop-color="#225003"/>
    </radialGradient>
    <radialGradient id="radial-gradient-4" cx="431.86" cy="-1994.02" fx="431.86" fy="-1994.02" r="8.86" gradientTransform="translate(698.78 1407.24) rotate(-45.64) scale(1 .61)" gradientUnits="userSpaceOnUse">
      <stop offset="0" stop-color="#cddcdf"/>
      <stop offset=".15" stop-color="#bed1d6"/>
      <stop offset=".44" stop-color="#95b4bc"/>
      <stop offset=".84" stop-color="#548692"/>
      <stop offset="1" stop-color="#397381"/>
    </radialGradient>
    <radialGradient id="radial-gradient-5" cx="2598.09" cy="3526.85" fx="2598.09" fy="3526.85" r=".73" gradientTransform="translate(2083.52 -3044.31) rotate(73.84) scale(1 .79)" gradientUnits="userSpaceOnUse">
      <stop offset=".1" stop-color="#a9cd93"/>
      <stop offset=".41" stop-color="#7ea565"/>
      <stop offset="1" stop-color="#225003"/>
    </radialGradient>
    <radialGradient id="radial-gradient-6" cx="19.14" cy="591.89" fx="19.14" fy="591.89" r="20.61" gradientTransform="translate(0 -240)" gradientUnits="userSpaceOnUse">
      <stop offset="0" stop-color="#219e00"/>
      <stop offset=".24" stop-color="#219a00"/>
      <stop offset=".46" stop-color="#218f01"/>
      <stop offset=".67" stop-color="#217d01"/>
      <stop offset=".88" stop-color="#226302"/>
      <stop offset="1" stop-color="#225003"/>
    </radialGradient>
  </defs>
  <g id="hf">
    <g id="Tree_5" data-name="Tree 5">
      <path class="cls-20" d="M144.13,323.7c-17.4,1.6-31-13.4-44.4-18.3-24.7-9-33.5-7.3-44.1-9.5-1.7-.4-13.3,8.7-25.2,1.8-14.8-8.6-9.8-21.5-10.7-24-.4-1.2-17.6-10.7-16.1-32.6,2.2-32.5,30.3-27.4,31-29.7,5.5-16.5,6.2-18.9,15.2-28,16.8-16.9,34.9-14.2,35.2-16.1,2.1-11.8-9.5-13,.2-32.6,8.8-17.8,26.4-14.7,28.2-16.5,3.5-3.7,4.5-35.9,32.8-35.2,30.4.7,28.2,33.9,30.4,35.7,2,1.6,19.4-4.7,28.8,19.6,11,28.2-.8,30.4.2,34.8.4,1.9,7.9-3,26.8,13.3,17.2,14.8,17.7,26,17.7,32,0,1.4,21.6-1.9,32.4,26.4,7.7,20.4-23.8,37.3-24.4,38.5-3.6,6.5-7.2,17.4-17.6,20.7-12.7,4-17.9-2.3-22.2-2.2-3,.1-9.1,12.6-28.4,4.2-1.8-.7-8.7,14.1-45.8,17.7Z"/>
      <path class="cls-14" d="M18.13,272.2c-.8-2.5-17.7-13.3-15-32.4,4.3-30.4,29.5-26.6,31.7-29.4,2.6-3.4,2.1-31.9,27.3-32.7,27.7-.8,29.2,32.4,30.9,33.7,2,1.6,27.2.3,28.6,30.4,1.3,28.6-24.1,32.1-25.4,34.5-1.5,2.6-2.6,15.4-16.5,20.3-13.1,4.7-15.7-1.6-22.8-1.8-5.6-.2-9.9,8.4-24.9,3.1-19.5-6.7-12.8-22.6-13.9-25.7Z"/>
      <path class="cls-15" d="M179.53,281.3c-.8-2.5-17.7-13.3-15-32.4,4.3-30.4,29.5-26.6,31.7-29.4,2.6-3.4,2.1-31.9,27.3-32.7,27.7-.8,29.2,32.4,30.9,33.7,2,1.6,27.2.3,28.6,30.4,1.3,28.6-24.1,32.1-25.4,34.5-1.5,2.6-2.6,15.4-16.5,20.3-13.1,4.7-15.7-1.6-22.8-1.8-5.6-.2-9.9,8.4-24.9,3.1-19.5-6.7-12.8-22.6-13.9-25.7Z"/>
      <g>
        <line class="cls-5" x1="144.53" y1="134.2" x2="144.53" y2="370.8"/>
        <path class="cls-6" d="M224.23,256.5s-4.8,32-37.7,52.4c-14.6,9.1-40.2,14.1-40.3,14.3"/>
        <path class="cls-6" d="M69.93,250.1s3,35.4,32.3,55.1c19.2,12.9,42.5,18.4,42.5,18.4"/>
        <path class="cls-6" d="M105.83,149.7s3.9,17.9,13.7,28.4c13.2,14.2,25.8,15,25.8,15,0,0,14.7-2.5,26-17,8.3-10.6,13.7-24.4,13.7-24.4"/>
      </g>
    </g>
    <g id="person">
      <g id="shoes">
        <path class="cls-18" d="M76.03,375.6l-.1-8.3s1.8.6,4.3,0,3.5-1.4,3.5-1.4c0,0,2.7,3.2,6.4,2.9s6.4-1.2,8-1.6c1.4-.3,2.1,2.9,1.8,3.3-.4.4-10.4,5.1-12.5,4.8s-4.7-1.8-4.7-1.8h-5.1l5,.1,1,.5-2.5,1.5h-5.1Z"/>
        <path class="cls-18" d="M118.23,371l-4.8-7.7s2.1-.3,4-2,3.2-3.1,3.2-3.1c0,0,3.8.8,6.3-.4,2.7-1.2,4.9-5.2,5.8-6,.6-.5,2.4.9,2.4,1.5-.5,7.5-2.3,8.8-8,10.8-2,.7-4.5,1.6-4.5,1.6l-4.2,2.5,3.9-2.4,2-.8-.8,2.9-5.3,3.1Z"/>
      </g>
      <g id="pants">
        <path class="cls-11" d="M113.33,363.4s-9.8-17.8-13.7-25.8-8.7-19-10.3-22.4,7.9-14.4,7.9-14.4l7-2.3s.2,2.6,1,11.7c.8,9,3,24.8,6,31.2,2.4,5.2,4.6,11.5,9.5,16.4,1.9,1.8-7.4,5.6-7.4,5.6Z"/>
        <path class="cls-11" d="M75.33,368.1s.6-10.4.1-18.9c-.5-8,.8-17.4,1.3-22.4.6-5.4,3.3-12.7,2.8-17.3-1.2-10.4-1.6-13.7-1.2-13.9.8-.5,27.7.2,27.7.2,0,0-6,10.8-7.8,14.6s-8.7,19.2-11.2,28.2c-2.5,8.9-2.8,18.6-2.3,28.1.2,2.7-9.4,1.4-9.4,1.4Z"/>
        <path class="cls-11" d="M89.03,296.1s-1.8,6.7-1.4,8.1,4-1.9,4.9-3.5c.8-1.6,1.2-4.6,1.2-4.6h-4.7Z"/>
      </g>
      <g id="briefcase">
        <path class="cls-7" d="M66.33,344.3l-19.4-10.6c-2.4-1.3-3.2-4.3-1.9-6.6l8.3-15.2c1.3-2.4,4.3-3.2,6.6-1.9l19.4,10.6c2.4,1.3,3.2,4.3,1.9,6.6l-8.3,15.2c-1.3,2.3-4.2,3.2-6.6,1.9Z"/>
        <path class="cls-12" d="M72.53,334.9l-20.9-11.5c-1.9-1.1-2.6-3.5-1.6-5.4l2-3.6c1.1-1.9,3.5-2.6,5.4-1.6l20.9,11.5c1.9,1.1,2.6,3.5,1.6,5.4l-2,3.6c-1,1.9-3.4,2.6-5.4,1.6Z"/>
        <path class="cls-9" d="M60.63,331.1l-2.8-1.5c-.8-.5-1.1-1.5-.7-2.3l.4-.7c.5-.8,1.5-1.1,2.3-.7l2.8,1.5c.8.5,1.1,1.5.7,2.3l-.4.7c-.4.8-1.4,1.1-2.3.7Z"/>
        <path class="cls-10" d="M60.93,312.4c1.1-1.7,2.4-2.4,3.1-2.7,5.3-2.2,11.1,2.5,11.8,6.4.1.7.4,2.1,0,3.4,0,.1-.3.6-.9.7-.7.1-1.4-.8-1.5-1.4,0-1.3,0-1.9-.2-3.4-.5-3.1-7.2-5.3-8.8-3.6-.5.5-.6,1-1.4,1.8-.1.1-1.3.7-1.9.2-.4-.5-.2-1.4-.2-1.4Z"/>
      </g>
      <path id="hand" class="cls-19" d="M71.33,315.9c-.2.1-.9.6-1.6.3-.7-.3-.4-1.1-1.1-1.5-.7-.3-1.3.3-1.9-.1-.4-.3,0-.8-.5-1.2-.6-.5-1.4.1-1.9-.3-.1-.1-.3-.6,0-1.4,1.1-3,4.3-5.3,6.1-8.7.1-.2.3-.6.7-.8,1.4-.7,3.7,1.6,4.5,2.4.2.2.4.5.6.9.2.7-.1,1.3-.2,1.7-.4,1.2-.4,1.4-.5,5.2,0,.3,0,1.2-.2,1.4-.1.1-.3-.2-1-.5l-.6-.3c-.9-.4-.8,2-2.4,2.9Z"/>
      <g id="phone_hand" data-name="phone hand">
        <path class="cls-25" d="M135.23,262.9l10.7-10.7c.3-.3.3-.9,0-1.2l-5.1-5.1c-.3-.3-.9-.3-1.2,0l-10.7,10.7c-.3.3-.3.9,0,1.2l5.1,5.1c.3.4.8.4,1.2,0Z"/>
        <path class="cls-26" d="M135.33,261.3l9.1-9.1c.3-.3.3-.9,0-1.2l-3.5-3.5c-.3-.3-.9-.3-1.2,0l-9.1,9.1c-.3.3-.3.9,0,1.2l3.5,3.5c.3.3.8.3,1.2,0Z"/>
        <path class="cls-19" d="M122.33,263s3.1-2.7,3.4-3.5-.1-3,.6-3.7c.7-.7,6.8-4.6,6.8-4.6,0,0,.8-.3,1.1.6.3.7-.4,1.6-.9,2.1s-2.5,2-2.5,2c0,0-.6,3.2-.4,3.5.4.6,3.7,3.5,4,3.5s7.7-7.2,7.7-7.2c0,0,.6,1.1-.1,1.9s-8.9,8.1-8.9,8.1c0,0-3.1.4-4,1.1-.8.7-3.4,2-3.4,2l-3.4-5.8Z"/>
      </g>
      <path id="neck" class="cls-19" d="M98.03,243.6l1.4-3.2s.8-1,1.1-2.1c.5-1.5.4-3.3.4-3.3v-3.3l3.7-.5,3.4,5.1,2.3,4.7s-.3,1.4-.7,3.1c-.6,2.4-3.3,5.8-4.2,6.4-.9.8-7.4-6.9-7.4-6.9Z"/>
      <g id="jacket">
        <path id="sleeve" class="cls-22" d="M106.03,269c.1.1,3.3,2.2,4.9,1.3,1.4-.8,9.1-7.1,11.2-8.8.3-.2.7-.2.9.2l4.2,7c.2.3.1.8-.2,1l-14.6,10.3c-.1.1-1.9,1.7-5.4.3-1.1-.5-.9-11.3-1-11.3Z"/>
        <path id="shirt" class="cls-13" d="M97.43,241s.2-3.3,2-2.2c1,.7,5.8,8,7.4,11,.7,1.4,1.2,7.1-.4,7.1-.4,0-9-15.9-9-15.9Z"/>
        <path id="collar" class="cls-16" d="M93.13,245s-.1-1,1.3-3c.9-1.3,2.1-2.7,2.7-2.4.7.4,8.9,9.4,10,18.1s1.1,7.2,1.1,7.2l-1,1-14.1-20.9Z"/>
        <path id="jacket-2" data-name="jacket" class="cls-22" d="M108.43,265.7v28s.4,4.3-2.8,4.4-24.3-.2-24.3-.2l-3.7,8.2c-.2.5-.8.6-1.2.4l-5.7-3.6c-.5-.3-.7-1-.5-1.5,1.1-3,4.7-10.4,7.8-19.7,3.1-9.1,6.3-19.4,6.9-21.3,1.5-4.7,3.3-14.7,8.5-16.4.6-.2,3.3,1.7,8.6,8.3,4.1,5.2,6.4,13.4,6.4,13.4Z"/>
        <path d="M91.63,251.7c-1.1,1.3-2.3,2.6-3.3,4-.5.7-1,1.4-1.5,2.1-.5.7-.9,1.4-1.2,2.2h0c-.1.2-.3.3-.5.2s-.3-.3-.2-.5h0c.4-.8.9-1.6,1.4-2.3.5-.7,1-1.4,1.6-2.1,1.1-1.3,2.3-2.6,3.5-3.9.1-.1.2-.1.2,0v.3Z"/>
        <path d="M98.93,252.9c.7,2,.9,4.1.7,6.2s-.8,4.1-1.5,6c-.8,1.9-1.8,3.8-2.9,5.5-.6.9-1.2,1.7-1.8,2.5s-1.1,1.7-1.6,2.6c-2,3.6-3.8,7.3-5.4,11l-4.7,11.4c-.1.2-.3.3-.5.2s-.3-.3-.2-.5h0l4.8-11.4c1.7-3.8,3.4-7.5,5.5-11.1.5-.9,1.1-1.8,1.7-2.6.6-.8,1.2-1.6,1.8-2.5,1.1-1.7,2.1-3.5,2.9-5.4.8-1.9,1.3-3.9,1.5-5.9s0-4.1-.6-6h0c0-.1,0-.2.1-.3,0,.1.1.2.2.3Z"/>
      </g>
      <g id="head">
        <path class="cls-19" d="M103.23,236.7s-.6,2.9,1.3,3.9,7.5,3.1,7.5,3.1c0,0,3.2.8,3.4-1.4s-.5-2.7,0-3.3,1.1-.4,1.2-.8c.1-.4.3-2.3.6-2.5s2.5.2,2.9-.3.4-1.1-.9-2.6c-.5-.6-.8-1.7-.7-2.6.1-.8.3-2.6.7-3s.4-2.3-.1-3.2-2-5.3-2-5.3l-11.4-1.4-1.3,5.2,1.8,3.7-.5,2.6-.6-2.7-1.8-1.2s-3.7-1.3-5-.2c-1,.9.8,6,.9,7,.2,1,2.1,1.1,2.7,1.4.7.3,1.7.3,1.7.8.1.7-.4,2.8-.4,2.8Z"/>
        <g>
          <line class="cls-1" x1="116.13" y1="235.5" x2="117.53" y2="235.7"/>
          <path d="M116.13,235.3l1.4.1c.1,0,.3.1.3.3s-.1.3-.3.3h0l-1.3-.2c-.1,0-.2-.1-.2-.2-.1-.2,0-.3.1-.3Z"/>
        </g>
        <path class="cls-30" d="M112.53,237.8l2.4.9c.2.1.2.2.2.4-.1.2-.2.2-.4.2h0l-2.3-1.2c-.1,0-.1-.1-.1-.2q.1-.1.2-.1Z"/>
        <path class="cls-23" d="M112.93,230.7c.2-.1,1-.8,1.9-.7.5.1.9.6.9.9.1.5-.3,1-.3,1-.9-.6-1.8-1.2-2-1.3-.1-.2-.5.1-.5.1Z"/>
        <path class="cls-4" d="M103.03,229.4c-.7-1.1-1.1-.1-.6,1.1.3.8.8,1.4,1.1.7"/>
        <path class="cls-17" d="M110.93,227.9s2.4-2.1,3.6-2.5c.9-.3,2.4-.9,2.6.2.2,1-.1,1.4-.6,1.5-.3.1-1.2-.5-2.2-.2-1.3.3-3.4,1-3.4,1Z"/>
        <path class="cls-8" d="M99.73,237.2c-.8.3-2.7.3-3-.7-.7-2.2-1.2-5-1.5-6.1-.5-1.6-2.6-6.8-2-8.2s5.7-6.1,8.7-7.1,9.1-2.7,14,.5c4.9,3.1,3.9,3.6,4.3,4.7s-1.1,2.1-2.1,1.9c-.9-.2-1.9-1-4.2-.6-1.6.3-3.9,1.7-4.8,3.1-1.3,1.8-1.4,2.6-1.7,4-.3,1.3-.6,1.5-1.3,1.7s-1.1.8-1.3,0c-.3-1.2-.7-2.1-1.4-3.2-.8-1.1-1.7-.7-2.4-.3-.5.3-.7,1.4-.7,2.5,0,1.5.8,2.9,1.3,3.5.9,1.1,0,1.4-.5,2.9-.4,1-1,1.3-1.4,1.4Z"/>
        <path class="cls-21" d="M115.03,231.6s-.6-.2-.5-.7c.1-.6.5-.7.8-.5,0,0,.5.4.3.9,0,.2-.1.4-.6.3Z"/>
      </g>
    </g>
    <g id="mesurements">
      <path class="cls-32" d="M105.83,212.3c4.1,0,8.1.8,11.9,2.3,3.8,1.5,7.3,3.7,10.5,6.2,6.4,5.1,11.4,11.8,15.3,18.9,3.9,7.1,6.7,14.8,8.7,22.6,1.9,7.8,3,15.9,2.8,24,0,.2-.2.3-.4.3s-.3-.1-.3-.3h0c-.1-2-.3-4-.5-6s-.4-4-.7-5.9c-.6-3.9-1.4-7.9-2.4-11.7-2.1-7.7-5-15.2-8.9-22.1-3.9-6.9-8.7-13.4-14.6-18.5-3-2.6-6.3-4.8-9.9-6.4-3.6-1.6-7.5-2.5-11.5-2.6-.2,0-.4-.2-.4-.4,0-.2.2-.4.4-.4Z"/>
      <path class="cls-32" d="M155.63,309.9c-6,5.3-13.3,9-21,11.4-7.7,2.3-15.7,3.3-23.7,3.3s-15.9-1.2-23.7-3.1c-7.7-2.1-15.1-5.3-21.9-9.4-.2-.1-.3-.4-.2-.7.1-.2.4-.3.6-.2h0c7,3.6,14.4,6.5,21.9,8.6,7.5,2.3,15.4,3.4,23.2,3.5,7.9.1,15.7-1.1,23.2-3.5,7.5-2.3,14.6-5.9,20.9-10.6h0c.2-.1.5-.1.6.1.3.2.3.4.1.6Z"/>
      <path class="cls-32" d="M69.43,376.7c-2.7-.6-5.3-1.4-7.9-2.4-2.6-1-5.1-2.1-7.6-3.3-2.4-1.3-4.8-2.7-7.1-4.2s-4.6-3.1-6.7-4.8c-.2-.2-.3-.5-.1-.7s.5-.2.7-.1c2.3,1.5,4.5,3,6.9,4.4,2.3,1.4,4.7,2.7,7.2,3.9,2.4,1.2,4.8,2.4,7.3,3.5s5,2.1,7.6,3.1c.2.1.3.3.2.5-.2.1-.4.2-.5.1Z"/>
      <path class="cls-32" d="M157.23,354.3c-2.7,2.6-5.6,5-8.6,7.2-3,2.3-6.1,4.3-9.3,6.2-3.2,1.9-6.6,3.6-10,5.1s-7,2.7-10.6,3.7c-.3.1-.5-.1-.6-.4s.1-.5.3-.6c3.5-1.3,6.9-2.7,10.2-4.3,3.3-1.6,6.6-3.3,9.8-5.1,3.2-1.8,6.3-3.8,9.4-5.9,3.1-2.1,6.1-4.3,9-6.5.1-.1.4-.1.5.1,0,.2,0,.4-.1.5Z"/>
      <path class="cls-32" d="M66.23,198.7c.4,3.7.4,7.4.5,11.1v11.1c-.1,7.4-.1,14.8-.1,22.2l-.1,44.5c.1,14.8.2,29.6.2,44.5s-.3,29.6-.5,44.5c0,.3-.3.6-.6.6s-.5-.2-.6-.6c-.2-14.8-.4-29.6-.5-44.5,0-14.8.1-29.6.2-44.5l-.1-44.5c0-7.4,0-14.8-.1-22.2v-11.1c.1-3.7.1-7.4.5-11.1,0-.3.3-.5.5-.4.5,0,.7.2.7.4Z"/>
      <path class="cls-32" d="M100.63,201.8c.6,7.3.4,14.6.5,21.9v21.8l-.2,43.7v21.9l.1,21.9c.1,14.6,0,29.2-.4,43.7,0,.3-.3.6-.6.5-.3,0-.5-.2-.5-.5-.4-14.6-.5-29.2-.4-43.7l.1-21.9v-21.9l-.2-43.7v-21.8c.1-7.3-.1-14.6.5-21.9,0-.3.3-.5.6-.5s.5.2.5.5Z"/>
      <path class="cls-32" d="M160.53,283.2c-5.6.5-11.2.5-16.8.6l-16.8.2h-16.8c-5.6,0-11.2,0-16.8-.4-.3,0-.5-.3-.5-.6s.2-.5.5-.5c5.6-.3,11.2-.4,16.8-.4h16.8l16.8.2c5.6,0,11.2.1,16.8.6.1,0,.2.1.2.2,0,0-.1.1-.2.1Z"/>
      <path class="cls-32" d="M132.73,347.3c2.2,1.6,3.8,3.9,5.2,6.2,1.3,2.3,2.4,4.8,3.3,7.3.9,2.5,1.5,5.1,1.9,7.8.5,2.6.7,5.3.4,8,0,.2-.2.3-.3.2-.1,0-.2-.1-.2-.2-.5-2.6-.9-5.2-1.3-7.7-.5-2.6-1.1-5.1-1.9-7.6-1.6-4.9-3.9-9.7-7.5-13.4h0c-.2-.2-.2-.4,0-.6,0-.1.2-.1.4,0Z"/>
      <path class="cls-32" d="M73.53,303.5c-.1.8-.4,1.6-.7,2.4l-.9,2.3-1.9,4.6-3.8,9.1-7.6,18.3c-2.5,6.1-5.1,12.2-7.7,18.2l-3.9,9.1c-1.3,3-2.7,6-4.2,8.9-.1.2-.3.3-.5.2-.2-.1-.2-.3-.2-.5,1-3.2,2.2-6.2,3.5-9.3l3.8-9.2c2.5-6.1,5.1-12.2,7.7-18.2l7.9-18.2,3.9-9.1,2-4.5,1-2.3c.3-.8.7-1.5,1.2-2.2.1-.2.3-.2.5-.1-.1.3-.1.4-.1.5Z"/>
      <path class="cls-32" d="M51.33,302.9c2-.1,4-.2,6-.4,2-.1,4-.2,6-.2s4,0,6,.1,4,.2,6,.5c.2,0,.3.2.3.4,0,.1-.1.3-.3.3-2,.3-4,.4-6,.5s-4,.1-6,.1-4-.1-6-.2-4-.2-6-.4c-.2,0-.4-.2-.3-.4,0-.1.1-.3.3-.3Z"/>
      <path class="cls-32" d="M48.53,249.1c3-.4,6-.5,8.9-.6,3-.1,6-.1,8.9-.1s6,.1,8.9.1c3,.1,6,.2,8.9.5.3,0,.5.3.5.6s-.2.5-.5.5c-3,.3-6,.4-8.9.5-3,.1-6,.1-8.9.1s-6,0-8.9-.1c-3,0-6-.1-8.9-.6-.3,0-.5-.3-.5-.6.1-.1.3-.3.5-.3Z"/>
      <path class="cls-32" d="M48.23,212.3c3.9-.3,7.8-.4,11.8-.5,3.9-.1,7.8-.2,11.8-.2s7.8,0,11.8.1c3.9.1,7.8.2,11.8.5.2,0,.4.2.4.4s-.2.4-.4.4c-3.9.3-7.8.4-11.8.5-3.9.1-7.8.1-11.8.1s-7.8-.1-11.8-.2c-3.9-.1-7.8-.2-11.8-.5-.2,0-.4-.2-.4-.4,0,0,.2-.2.4-.2Z"/>
      <path class="cls-32" d="M56.23,258.1c2.6-3.2,5.5-6.2,8.4-9.2,1.5-1.4,3-2.9,4.5-4.3,1.5-1.4,3.1-2.8,4.7-4.1.2-.2.5-.1.7.1.2.2.1.4,0,.6-1.3,1.6-2.7,3.2-4.1,4.7-1.4,1.5-2.9,3-4.3,4.5-2.9,2.9-5.9,5.8-9.2,8.4-.2.2-.5.1-.7-.1-.2-.1-.2-.4,0-.6Z"/>
      <path class="cls-32" d="M57.23,220.7c1.3-1.6,2.7-3.2,4.1-4.7,1.4-1.5,2.8-3.1,4.2-4.6s2.9-2.9,4.5-4.3c1.5-1.4,3.1-2.7,4.8-4,.2-.2.5-.1.7.1.1.2.1.4,0,.6-1.3,1.7-2.6,3.3-4,4.8s-2.8,3.1-4.3,4.5-3,2.8-4.6,4.2c-1.5,1.4-3.1,2.7-4.7,4.1-.2.2-.5.1-.7-.1-.1-.1-.1-.4,0-.6Z"/>
      <path class="cls-32" d="M57.23,310.6c2.3-3,5-5.7,7.6-8.3,1.4-1.3,2.7-2.6,4.1-3.9,1.4-1.3,2.8-2.5,4.3-3.7.2-.2.5-.1.7.1.1.2.1.4,0,.6-1.2,1.5-2.4,2.9-3.7,4.3s-2.6,2.7-3.9,4.1c-2.7,2.7-5.4,5.3-8.4,7.6-.2.2-.5.1-.7-.1-.2-.3-.2-.5,0-.7Z"/>
      <path class="cls-32" d="M63.33,376.4c.6-.9,1.3-1.8,2-2.6.7-.8,1.5-1.6,2.3-2.4s1.6-1.5,2.4-2.2c.8-.7,1.7-1.4,2.6-2,.2-.2.6-.1.7.1.1.2.1.4,0,.6-.6.9-1.3,1.8-2.1,2.6-.7.8-1.5,1.6-2.3,2.4s-1.6,1.5-2.4,2.3c-.8.7-1.7,1.4-2.7,2-.2.2-.6.1-.7-.2.1-.2.1-.4.2-.6Z"/>
    </g>
    <g id="Tree_4" data-name="Tree 4">
      <g class="cls-27">
        <path class="cls-24" d="M19.03,362.6c-.4.3-6,5-9.8,2.2-5.4-4-2.7-9.5-2.7-10.6,0-.8-.9-2.7-.1-5.6.9-2.9,3.2-2.8,3.7-3.5.6-.7.5-7.1,8.6-7,7.1.1,7.9,5.9,8.4,6.7.4.6,3.9.9,4.5,4.3.6,3.6-.7,4.1-.7,4.8,0,.9,3.3,4.3.1,9.5-3.2,5.1-11-.2-12-.8Z"/>
      </g>
      <g class="cls-31">
        <line class="cls-3" x1="18.93" y1="344.7" x2="18.93" y2="375.6"/>
        <line class="cls-2" x1="22.83" y1="349.4" x2="19.13" y2="353.1"/>
        <line class="cls-2" x1="15.23" y1="349.4" x2="18.83" y2="353.1"/>
        <line class="cls-2" x1="25.33" y1="354" x2="19.03" y2="360.3"/>
        <line class="cls-2" x1="12.43" y1="354" x2="18.73" y2="360.3"/>
      </g>
    </g>
    <rect class="cls-29" x="2.83" y="375" width="281" height="5"/>
  </g>
  <g id="text">
    <text class="cls-28" transform="translate(22.9 405.34)"><tspan x="0" y="0">User Experience</tspan></text>
  </g>
</svg>