<?xml version="1.0" encoding="UTF-8"?><svg id="Layer_2" xmlns="http://www.w3.org/2000/svg" xmlns:xlink="http://www.w3.org/1999/xlink" viewBox="0 0 222 420"><defs><linearGradient id="linear-gradient" x1="147.29" y1="865.25" x2="150.13" y2="865.25" gradientTransform="translate(0 -662)" gradientUnits="userSpaceOnUse"><stop offset="0" stop-color="#000"/><stop offset=".03" stop-color="#1d150f"/><stop offset=".06" stop-color="#38281d"/><stop offset=".1" stop-color="#4e3728"/><stop offset=".15" stop-color="#5f4331"/><stop offset=".2" stop-color="#6a4c37"/><stop offset=".28" stop-color="#71513b"/><stop offset=".5" stop-color="#73523c"/><stop offset=".72" stop-color="#71513b"/><stop offset=".8" stop-color="#6a4c37"/><stop offset=".85" stop-color="#5f4331"/><stop offset=".9" stop-color="#4e3728"/><stop offset=".94" stop-color="#38281d"/><stop offset=".97" stop-color="#1d150f"/><stop offset="1" stop-color="#000"/></linearGradient><linearGradient id="linear-gradient-2" x1="136.48" y1="888.7" x2="162.18" y2="888.7" gradientTransform="translate(0 -662)" gradientUnits="userSpaceOnUse"><stop offset="0" stop-color="#f8991d"/><stop offset=".04" stop-color="#f99e28"/><stop offset=".18" stop-color="#fcae4e"/><stop offset=".31" stop-color="#fdba69"/><stop offset=".42" stop-color="#ffc17a"/><stop offset=".51" stop-color="#ffc480"/><stop offset=".59" stop-color="#ffc179"/><stop offset=".71" stop-color="#fdb866"/><stop offset=".85" stop-color="#fbab46"/><stop offset="1" stop-color="#f8991d"/></linearGradient><radialGradient id="radial-gradient" cx="1981.26" cy="-2326.49" fx="1981.26" fy="-2326.49" r="2.73" gradientTransform="translate(2291.2 2353.59) rotate(-90) scale(1 .95)" gradientUnits="userSpaceOnUse"><stop offset=".53" stop-color="#333"/><stop offset=".68" stop-color="#575757"/><stop offset=".74" stop-color="#666"/><stop offset=".81" stop-color="#636363"/><stop offset=".87" stop-color="#595959"/><stop offset=".92" stop-color="#494949"/><stop offset=".97" stop-color="#333"/></radialGradient><radialGradient id="radial-gradient-2" cx="1996.41" cy="-2326.44" fx="1996.41" fy="-2326.44" r="2.73" gradientTransform="translate(2306.31 2368.79) rotate(-90) scale(1 .95)" xlink:href="#radial-gradient"/><radialGradient id="radial-gradient-3" cx="2010.86" cy="-2326.5" fx="2010.86" fy="-2326.5" r="2.73" gradientTransform="translate(2320.81 2383.18) rotate(-90) scale(1 .95)" xlink:href="#radial-gradient"/><radialGradient id="radial-gradient-4" cx="115.83" cy="934.41" fx="115.83" fy="934.41" r=".97" gradientTransform="translate(0 -662)" gradientUnits="userSpaceOnUse"><stop offset="0" stop-color="#397381"/><stop offset=".21" stop-color="#366f7f"/><stop offset=".44" stop-color="#2d6278"/><stop offset=".68" stop-color="#1e4c6c"/><stop offset=".92" stop-color="#092e5c"/><stop offset="1" stop-color="#025"/></radialGradient><linearGradient id="linear-gradient-3" x1="42.34" y1="-181" x2="42.34" y2="-224.2" gradientTransform="translate(0 138) scale(1 -1)" gradientUnits="userSpaceOnUse"><stop offset=".11" stop-color="#219e00"/><stop offset=".42" stop-color="#219c00"/><stop offset=".59" stop-color="#219300"/><stop offset=".73" stop-color="#218501"/><stop offset=".86" stop-color="#227202"/><stop offset=".97" stop-color="#225803"/><stop offset="1" stop-color="#225003"/></linearGradient><linearGradient id="linear-gradient-4" x1="17.34" y1="-170.15" x2="17.34" y2="-232.56" gradientTransform="translate(0 138) scale(1 -1)" gradientUnits="userSpaceOnUse"><stop offset=".16" stop-color="#219e00"/><stop offset=".29" stop-color="#219800"/><stop offset=".48" stop-color="#218501"/><stop offset=".7" stop-color="#226802"/><stop offset=".85" stop-color="#225003"/></linearGradient></defs><g id="Layer_1-2"><g id="ux"><g id="walls"><rect x="101.38" y="225.3" width="89" height="120.4" style="fill:#d6cce5;"/><polygon points="73.58 189.2 101.38 225.3 101.38 345.7 79.68 375.7 73.08 375.7 73.58 189.2" style="fill:#ededf3;"/><polygon points="217.88 188.3 189.18 223.8 189.18 344.2 213.18 375.7 216.98 375.7 217.88 188.3" style="fill:#ededf3;"/><polygon points="148.78 188.3 218.58 188.3 219.08 189.8 190.38 225.3 101.38 225.3 73.58 189.2 148.78 188.3" style="fill:#fff; isolation:isolate; opacity:.45;"/><polygon points="190.38 345.7 213.18 375.7 79.68 375.7 101.38 345.7 190.38 345.7" style="fill:#666; isolation:isolate; opacity:.36;"/></g><g id="clock" style="opacity:.54;"><circle cx="115.98" cy="243.1" r="8" style="fill:#69c; stroke:#006897; stroke-miterlimit:10; stroke-width:1.42px;"/><line x1="115.98" y1="243.1" x2="119.68" y2="246.8" style="fill:none; stroke:#006897; stroke-linecap:round; stroke-linejoin:round; stroke-width:.71px;"/><polygon points="120.28 246 118.78 247.5 120.28 247.5 120.28 246" style="fill:#006897;"/><line x1="118.38" y1="241.1" x2="116.08" y2="243" style="fill:none; stroke:#006897; stroke-linecap:round; stroke-linejoin:round; stroke-width:.71px;"/><polygon points="118.98 242 117.58 240.4 119.08 240.5 118.98 242" style="fill:#006897;"/><circle cx="115.98" cy="243.1" r="1" style="fill:#006897;"/></g><g id="lamp"><line x1="148.68" y1="187" x2="148.68" y2="219.5" style="fill:none; stroke:url(#linear-gradient); stroke-miterlimit:10; stroke-width:2.83px;"/><ellipse cx="149.08" cy="235.4" rx="5.7" ry="6.4" style="fill:#ffe797;"/><path d="m149.18,240.3c-1.3-.1-2.1-.6-2.2-.9-.1-.4,4.6-.4,4.6-1.1s-5.2-1-5.3-1.7c-.1-.6,5-.1,5-.9,0-.7-2.9-1.1-4.4-1.4" style="fill:none; stroke:#fff; stroke-linecap:round; stroke-linejoin:round; stroke-width:.85px;"/><path d="m162.18,234.7h-25.7s1.2-16,12.2-16c12.1,0,13.5,16,13.5,16Z" style="fill:url(#linear-gradient-2);"/></g><g id="window"><polygon points="193.88 254.1 208.98 245.9 208.98 325.7 193.88 316.4 193.88 254.1" style="fill:#fff; stroke:#b78248; stroke-linecap:round; stroke-linejoin:round; stroke-width:2.13px;"/><line x1="194.38" y1="284.6" x2="208.48" y2="284.8" style="fill:none; stroke:#b78248; stroke-linejoin:round; stroke-width:2.83px;"/><line x1="201.08" y1="250.7" x2="201.08" y2="320.8" style="fill:none; stroke:#b78248; stroke-linejoin:round; stroke-width:2.83px;"/></g><g id="plant"><g style="opacity:.63;"><path d="m165.58,309.6c.2-.8-.8-3.3-5.2-6.8-2.6-2-7.3-2.1-8.5.1-.9,1.6,1.9,4.8,4.5,6.3,4.4,2.5,8.9,1.4,9.2.4Z" style="fill:#225003; stroke:#225003; stroke-linecap:round; stroke-miterlimit:10; stroke-width:.25px;"/><path d="m153.28,303.4c1.4.3,2.7.7,4,1.2s2.6,1,3.8,1.6c1.2.6,2.4,1.4,3.5,2.2,1.1.9,2.1,1.9,2.9,3.1.1.1.1.3-.1.4s-.3,0-.4-.1h0c-.7-1.1-1.6-2.1-2.7-3s-2.2-1.6-3.4-2.3c-1.2-.7-2.5-1.2-3.8-1.7s-2.6-.9-3.9-1.2c-.1,0-.1-.1-.1-.1q.1-.1.2-.1Z" style="fill:#4f9820;"/></g><g style="opacity:.63;"><path d="m168.88,313.7c-.2-.2,1.2-5.4,4.1-7,3.7-2,6.9-2.6,9.1,0,.9,1-4.1,4-5.8,4.9-1.3.6-6.7,3-7.4,2.1Z" style="fill:#225003; stroke:#225003; stroke-linecap:round; stroke-miterlimit:10; stroke-width:.25px;"/><path d="m180.98,306.9c-1.4,0-2.7.3-4,.7-1.3.5-2.5,1.2-3.6,1.9-1.1.8-2.1,1.8-3,2.8-.5.5-.8,1.1-1.3,1.6l-1.1,1.7h0c-.1.1-.3.2-.4.1s-.2-.3-.1-.4h0l1.2-1.7c.4-.5.9-1.1,1.3-1.6.9-1,2-2,3.1-2.8s2.4-1.4,3.7-1.9c1.5-.3,2.9-.6,4.2-.4q.1-.1,0,0,.1,0,0,0Z" style="fill:#4f9820;"/></g><g style="opacity:.63;"><path d="m166.68,322.7c.3-.4-.5-6-2.3-8.2-2.7-3.3-7.8-4.8-9.3-3.3-1.5,1.6.7,5.3,2.6,7.8,1.9,2.5,7.6,5.4,9,3.7Z" style="fill:#225003; stroke:#225003; stroke-linecap:round; stroke-miterlimit:10; stroke-width:.25px;"/><path d="m167.18,324.6c-.4-1.2-1-2.4-1.7-3.5-.7-1.1-1.4-2.2-2.2-3.1-.8-1-1.7-1.9-2.7-2.8s-2-1.6-3.1-2.3h0c-.1,0-.1-.1,0-.2,0-.1.1-.1.2,0,1.1.7,2.2,1.4,3.2,2.3,1,.8,2,1.8,2.8,2.7.9,1,1.7,2,2.4,3.2.7,1.1,1.3,2.3,1.8,3.5.1.2,0,.3-.2.4s-.4,0-.5-.2h0Z" style="fill:#4f9820;"/></g><g style="opacity:.63;"><path d="m164.78,313.5s-2-4.8-7-5.4c-6.7-.9-7.9,2.8-7.9,2.8,0,0,.9,3.1,6.9,3.3,5.4,0,8-.7,8-.7Z" style="fill:#4f9820; stroke:#4f9820; stroke-linecap:round; stroke-linejoin:round; stroke-width:.25px;"/><path d="m150.98,310.7c1.5-.2,3-.3,4.5-.2,1.5.1,3,.3,4.5.7,1.5.4,2.9,1,4.2,1.7,1.3.7,2.5,1.7,3.6,2.7.1.1.1.2,0,.3-.1.1-.2.1-.3,0h0c-1.1-1-2.2-2-3.5-2.7s-2.6-1.3-4.1-1.7c-1.4-.4-2.9-.7-4.4-.8-1.5-.1-3-.1-4.5.1,0,0-.1,0,0-.1q-.1,0,0,0Z" style="fill:#306f0e;"/></g><g style="opacity:.63;"><path d="m162.78,323.9s-2.2-.7-2.8-2.7c-.7-2,.1-3.8,1-4.8s2.3-.9,2.9-.6c.7.2,2,1.2,2,1.2,0,0,1-.2,2.3-.7s1.6,0,1.7.1.6,1.2-2,3.7c-2.6,2.6-5.1,3.8-5.1,3.8Z" style="fill:#306f0e; stroke:#306f0e; stroke-linecap:round; stroke-linejoin:round; stroke-width:.25px;"/><path d="m162.78,323.1c.1-1.1.5-2.2.9-3.3.5-1,1.1-2,1.9-2.8.1-.1.2-.1.2,0,.1.1.1.2,0,.2h0c-.8.8-1.5,1.7-2,2.7-.4,1-.8,2-1,3.2q.1,0,0,0h0Z" style="fill:#225003;"/></g><g style="opacity:.63;"><path d="m169.18,323.6c-.7-.2.3-5.3,2.9-7.8,2.6-2.6,6.2-3,8.4-1,.8.7-1.1,3.4-4.3,5.6-3.5,2.3-6.3,3.4-7,3.2Z" style="fill:#306f0e; stroke:#306f0e; stroke-linecap:round; stroke-linejoin:round; stroke-width:.25px;"/><path d="m179.78,315.2c-1.3.1-2.6.6-3.8,1.2-1.2.6-2.3,1.5-3.2,2.4-1,.9-1.8,2-2.5,3.1-.4.6-.7,1.2-1,1.7l-.9,1.8h0c-.1.1-.2.2-.3.1s-.2-.2-.1-.3h0l.9-1.8c.4-.6.7-1.2,1.1-1.7.8-1.1,1.6-2.2,2.6-3.1s2.1-1.8,3.3-2.4c1.2-.6,2.5-1.1,3.9-1,0-.1.1-.1,0,0q.1,0,0,0h0Z" style="fill:#225003;"/></g><g id="stem" style="opacity:.63;"><path d="m166.78,333.4c.3-4.9.6-9.9.6-14.8,0-2.5,0-4.9-.2-7.4-.1-1.2-.2-2.5-.3-3.7-.2-1.2-.4-2.4-.7-3.6-.1-.2,0-.4.2-.5s.4,0,.5.2c.4,1.2.7,2.4.9,3.7.2,1.2.3,2.5.4,3.7.2,2.5.3,5,.4,7.5.1,5,0,10-.2,14.9,0,.4-.4.7-.8.7s-.8-.3-.8-.7h0Z" style="fill:#795e39;"/></g><path d="m160.78,348.1h13l-.4,1.6s0,.1-.2.2c-.1.1-.4.1-.4.1v.3h-11v-.3s-.2,0-.4-.1c-.2-.1-.2-.3-.2-.3l-.4-1.5Z" style="fill:#666; stroke:#666; stroke-linecap:round; stroke-linejoin:round; stroke-width:.18px;"/><path d="m161.08,334.1c-.2-.1-.6-.4-.7-.9,0-.4.2-.8.5-1,.6-.5,1.1-.2,1.2-.2.1-.1,0-.4.4-.6.7-.2.8.2.9.2,0,0,.3-.3.8-.3.4,0,.6.2.8.2s.4-.8,1.3-.8c1,0,1.3.6,1.4.6s.2-.7.9-.7.6.5.8.6c.1.1.4-.1.7,0,.5.2.3.4.4.5s.6-.3,1.2,0c.7.3.7.8.8.8s.3-.3.7-.3c.6.1.7.5.7.9,0,.5-.4.9-.6,1.1-2,1.9-10.3,1.1-12.2-.1Z" style="fill:#442313; isolation:isolate; opacity:.74;"/><path d="m161.98,348.1l-1.8-14.1c0-.3.2-.6.5-.6h13.2c.3,0,.5.3.5.6l-1.9,14.1h-10.5Z" style="fill:#397381;"/><g style="opacity:.63;"><path d="m166.28,300.3c-2.7.6-5.3-1.5-6.3-3.7-1.5-3.3-.8-8.3.8-8.9,3.2-1.1,6.4,3.2,6.7,3.5.9,1,1.6,2.3,2,4,.5,1.9.4,4.4-3.2,5.1Z" style="fill:#225003;"/><path d="m161.68,289.3c1.2,1.8,2.2,3.8,3.1,5.8s1.7,4.1,2.1,6.3c0,.2-.1.4-.3.4s-.4-.1-.4-.3h0c-.3-2.1-1-4.2-1.8-6.2-.9-2-1.8-4-2.7-6q-.1,0,0,0h0Z" style="fill:#4f9820;"/></g><g style="opacity:.63;"><path d="m168.88,304.1c-1.3-1.2-1.5-3.4,1.4-6.8,2.6-3.1,6.5-4.3,7.4-3.6,1.1.9-.8,4.4-2.5,6.6-2.3,3.1-5.2,4.3-6.3,3.8Z" style="fill:#306f0e; stroke:#306f0e; stroke-linecap:round; stroke-miterlimit:10; stroke-width:.25px;"/><path d="m167.18,307.5c1-2.6,2.3-5,3.8-7.3s3.4-4.4,5.7-5.9h.1v.1c-2.2,1.6-4,3.7-5.5,6s-2.7,4.7-3.6,7.3h0c0,.1-.2.2-.3.2-.2-.1-.3-.3-.2-.4h0Z" style="fill:#225003;"/></g><g style="opacity:.63;"><path d="m165.78,304c.7-.5-1.6-4-1.8-4.2-.6-.8-2.1-2.5-4.7-3.1-2.7-.6-4.6,1.1-4.8,1.7-.6,2.2,9.7,6.8,11.3,5.6Z" style="fill:#306f0e; stroke:#306f0e; stroke-linecap:round; stroke-miterlimit:10; stroke-width:.25px;"/><path d="m155.28,298.4c1.2-.2,2.4,0,3.6.3s2.2.9,3.3,1.5c1,.7,1.9,1.5,2.8,2.3.4.4.8.9,1.2,1.4l1.1,1.5c.1.1,0,.2,0,.3-.1.1-.2,0-.3,0h0l-1-1.5c-.4-.5-.7-.9-1.1-1.4-.8-.9-1.7-1.7-2.7-2.3-1-.7-2-1.2-3.2-1.6-1.1-.3-2.3-.5-3.5-.4h0q-.2.1-.2-.1c0,.1,0,0,0,0Z" style="fill:#225003;"/></g><g style="opacity:.63;"><path d="m163.78,304s-4.2-4.7-3.5-4.8c1.3-.1,4.6,2.3,4.9,2.3.8.2,3.6-1.9,4.7-.1,1,1.9-4.2,2.6-6.1,2.6Z" style="fill:#4f9820; stroke:#4f9820; stroke-linecap:round; stroke-miterlimit:10; stroke-width:.25px;"/><path d="m163.98,303.5c.1-.9.7-1.6,1.4-2.1h.2c.1,0,0,.1,0,.2h0c-.8.4-1.3,1.1-1.6,1.9h0q.1.1,0,0,0,.1,0,0Z" style="fill:#306f0e;"/></g><g style="opacity:.63;"><path d="m170.48,312.5s-2-.1-3.4-1.2c-1.7-1.4-3.3-4-3.3-4.1s.9-.8,2.1-1.2c1.3-.3,2.8-.3,2.8-.3,0,0,1.2-1.1,2.3-1.3,1.2-.3,2.5-.1,2.5-.1,0,0,0,3.3-.4,4.9-.7,2.3-2.6,3.3-2.6,3.3Z" style="fill:#4f9820; stroke:#4f9820; stroke-linecap:round; stroke-miterlimit:10; stroke-width:.25px;"/><path d="m170.28,311.3c-.2-.9-.5-1.9-.7-2.8-.1-.5-.3-.9-.4-1.4-.2-.4-.4-.9-.6-1.2h0c-.1-.1-.1-.2,0-.3.1-.1.2-.1.3,0h0c.4.5.5.9.6,1.4s.3.9.4,1.4c.2.9.4,1.9.6,2.9-.1,0-.1.1-.2,0q0,.1,0,0Z" style="fill:#306f0e;"/></g></g><polygon id="door" points="84.98 237.5 95.08 245.1 95.08 353.9 85.38 368.1 84.98 237.5" style="fill:#b78248; isolation:isolate; opacity:.68;"/><g id="desk"><line x1="139.38" y1="315.3" x2="195.18" y2="315.3" style="fill:none; stroke:#333; stroke-linecap:round; stroke-miterlimit:10; stroke-width:2.83px;"/><line x1="131.58" y1="312.4" x2="197.68" y2="312.4" style="fill:none; stroke:#666; stroke-linecap:round; stroke-miterlimit:10; stroke-width:3.54px;"/><polyline points="159.68 374 154.98 374 154.98 371.4 199.68 371.4 199.68 373.9 195.88 373.9" style="fill:none; stroke:#333; stroke-linecap:square; stroke-linejoin:round; stroke-width:2.76px;"/><path d="m178.88,315.6c2.4,2.6,10.8,8.8,11.3,25.3.4,14.5-8.5,28.6-10.4,30.7" style="fill:none; stroke:#333; stroke-linejoin:bevel; stroke-width:2.83px;"/><line x1="145.88" y1="309.9" x2="162.48" y2="307.5" style="fill:none; stroke:#333; stroke-linecap:round; stroke-linejoin:bevel; stroke-width:1.42px;"/><line x1="159.78" y1="308.1" x2="159.78" y2="310.6" style="fill:none; stroke:#333; stroke-linejoin:bevel; stroke-width:.71px;"/><line x1="179.38" y1="309.5" x2="193.68" y2="309.5" style="fill:none; stroke:#333; stroke-linecap:round; stroke-linejoin:bevel; stroke-width:2.13px;"/><line x1="172.68" y1="303.5" x2="179.28" y2="264.5" style="fill:none; stroke:#333; stroke-linecap:round; stroke-linejoin:bevel; stroke-width:2.13px;"/><path d="m176.98,282s4.2-.1,8.1,7.9c1.9,3.7,1.8,8.7,1.8,8.7v11" style="fill:none; stroke:#333; stroke-linejoin:bevel; stroke-width:1.42px;"/></g><g id="chair"><path d="m91.18,370s0-1.9.8-2.8c.8-1,1.7-1,1.7-1h24.9s1.8.1,2.1,1.6c.2,1.2.1,2.2.1,2.2" style="fill:none; stroke:#333; stroke-miterlimit:10; stroke-width:1.15px;"/><ellipse cx="91.28" cy="372.3" rx="2.6" ry="2.8" style="fill:url(#radial-gradient);"/><ellipse cx="106.38" cy="372.4" rx="2.6" ry="2.8" style="fill:url(#radial-gradient-2);"/><ellipse cx="120.88" cy="372.3" rx="2.6" ry="2.8" style="fill:url(#radial-gradient-3);"/><line x1="106.38" y1="370.1" x2="106.38" y2="349.7" style="fill:none; stroke:#333; stroke-miterlimit:10; stroke-width:1.19px;"/><line x1="106.38" y1="341.7" x2="106.38" y2="349.8" style="fill:none; stroke:#333; stroke-miterlimit:10; stroke-width:4.77px;"/><line x1="106.38" y1="337" x2="106.38" y2="341.9" style="fill:none; stroke:#333; stroke-miterlimit:10; stroke-width:9.53px;"/><path d="m92.28,325.7c-.5.2-2.8,1.4-3.7,4.1-.9,2.8.3,5.7,2.2,7.4.7.6,2.3,1.7,4.5,1.6,2.6-.1,4.2-1.9,4.5-2.2" style="fill:none; stroke:#333; stroke-linecap:round; stroke-miterlimit:10; stroke-width:1.19px;"/><line x1="95.88" y1="335.9" x2="117.18" y2="335.9" style="fill:none; stroke:#666; stroke-linecap:round; stroke-miterlimit:10; stroke-width:2.98px;"/><path d="m80.98,296s12,15.6,12.1,37.7" style="fill:none; stroke:#666; stroke-linecap:round; stroke-miterlimit:10; stroke-width:2.38px;"/></g><g id="woman"><path d="m121.58,369.8s-.8-19.2-1-22.6c-.2-3.4,1.1-12.3,4.4-14.3,2.8-1.8-.4-1.9-.4-1.9,0,0-9.8,2.6-13,3.1s-9.6.2-12.3-3c-2.7-3.1,7-9.7,8.5-10s23.8.8,23.8.8c0,0,4.8-.4,3.4,6.5-1.1,6-2.6,2.8-6.4,18.5-3.3,13.6-3.3,22.8-3.3,22.8l-3.7.1Z" style="fill:#003577; stroke:#000; stroke-miterlimit:10; stroke-width:.28px;"/><path d="m120.68,375.1h19s-.1-2-.6-2.9-1.4-1.2-2.1-1.3c-1-.2-4.5-.4-4.5-.4l-5.7-.2s-.8-2.4-2.9-2.2c-2.2.2-2.7.8-3,2.2-.4,1.5-.2,4.8-.2,4.8Z" style="fill:#cd646b; stroke:#000; stroke-miterlimit:10; stroke-width:.14px;"/><path d="m111.58,297.6c-.3.3-8.5-5.6-13.3-11.9-3.5-4.6-1.2-12.7,3-17.2.6-.7,2.7-2.8,6-3.6.8-.2,5.4-1.3,8.5,1.4.5.5,2,1.9,2.1,3.6.1,1.1-.5,1-.3,2.2.2,1.1,1.2,1.2,2.9,2.2.5.3.4.7.3,1.2-.2.5-1.1-.1-1.3.5-.2.5.1,1.1-.1,2.1s-.6.9-1,2.1c-.4,1.4.2,1.9-.3,2.3-.9.6-4-.6-6.1,0-1.3.4-2.8,1.5-2.8,5.3,0,5.5,2.5,9.7,2.4,9.8Z" style="fill:#ffd0a4; stroke:#000; stroke-miterlimit:10; stroke-width:.28px;"/><path d="m108.48,280.6s1.7,1.7,3.2,1.8" style="fill:none; stroke:#c96; stroke-linecap:round; stroke-linejoin:round; stroke-width:.42px;"/><path d="m116.78,277.6c.7-.1,1.5-.2,2.3-.2.2,0,.4.2.4.4s-.2.4-.4.4h-.1c-.7-.1-1.4-.1-2.2-.1h0c-.1,0-.2-.1-.2-.2,0-.2.1-.3.2-.3Z" style="fill:#c96;"/><path d="m106.88,274.7c.2,0,.1.1,0,0l.1.1v.1l.1.1.2.3c.1.2.2.4.4.4h0c.1,0,.1.1.1.2s-.1.1-.2.1h0c-.1-.1-.2-.2-.3-.3-.1-.1-.1-.2-.2-.3l-.1-.3-.1-.2v-.1h0s-.1,0,0,0v-.1h0Z" style="fill:#c96;"/><path d="m113.58,270.2s1.2-.9,3.1-.6" style="fill:#73523c;"/><path d="m113.48,270.1c.5-.4,1-.6,1.5-.7.6-.1,1.1-.2,1.7-.1.2,0,.4.2.3.4,0,.2-.2.4-.4.3h-.1c-.5-.1-1-.1-1.5-.1-.5.1-1,.2-1.5.4h0c-.1,0-.2,0-.2-.1.1,0,.1-.1.2-.1Z" style="fill:#73523c;"/><path d="m113.58,273.2c.1-.2.5-1.4,1.9-1.7.4-.1.8-.1,1.3,0,.4.1.8,1.6,0,1.7-1.7.4-1.2.5-3.2,0Z" style="fill:#fff; stroke:#000; stroke-miterlimit:10; stroke-width:.03px;"/><path d="m116.58,273c-.1.5-.7.6-1.1.4s-.5-1.1-.5-1.6.7-.7,1.1-.6.6,1.3.5,1.8Z" style="fill:url(#radial-gradient-4); stroke:#000; stroke-miterlimit:10; stroke-width:.06px;"/><path d="m113.38,273.2c.2-.7.7-1.4,1.4-1.8.3-.2.7-.3,1.1-.4s.8,0,1.2,0c.2,0,.3.2.3.3,0,.2-.2.3-.3.3h0c-.3-.1-.7-.1-1-.1s-.7.1-1,.2c-.6.3-1.1.9-1.4,1.5h0c0,.1-.1.1-.1.1q-.2,0-.2-.1Z" style="fill:#c96;"/><path d="m99.08,331.3s-6.5-5.7-7.1-21.7c-.6-16,2.7-18.2,4.5-19.9,2.7-2.6,10.2,4.6,13.7,6.9,2.4,1.6,2.6,2,2,4.8-.7,3.4-2.8,5.9-3.3,6.8-1.6,2.8-.9,5.3-.6,7,1.4,6.3,2.1,6.4,1.1,7.4-1.7,1.7-2.5,3.1-4.7,4.8-2.2,1.7-5.6,3.9-5.6,3.9Z" style="fill:#f77884; stroke:#000; stroke-miterlimit:10; stroke-width:.28px;"/><path d="m100.98,294.6c2.3-2.7,8.3,2.9,11,4.9,4.2,3.2,5.9,5.9,7,6,6.6.6,21.2.4,25.7-.2,1.1-.1,2-2.2,5.4-1.8,2.3.3,5.4,2.7,5.9,3.5.3.5-.7.7-1.6.7-1.2,0-1.6-.9-2.8-1.2-1.8-.6-2.5.2-3.9,1-1.1.6-3.4-.4-11.3,1.6-5.8,1.5-6.7,2.4-13.3,2.7-7.1.3-14.7-3.8-19.9-7.8-2.7-2.1-4.7-6.3-2.2-9.4Z" style="fill:#ffd0a4; stroke:#000; stroke-miterlimit:10; stroke-width:.28px;"/><path d="m92.08,300.6c-1.9-1.6-2.6-6.4-2.4-8.9.3-3.3,3.3-5.8,4.4-7.9,1.5-3,1.8-5.2,2.3-10.5.4-4.1,3.8-6.6,4.3-7.1.6-.5.5-1.9,2-3,1.3-1,2.7-1.3,5.7-1.2,4.5.1,8.2.1,9.1.8.8.7.5,2.2-.1,2.8-.5.5-2.5.4-3.6.4-3.5,0-4.2-1.6-4.3-1.3-.1.1.2.4.6,1.1s.6,1.4.6,1.8c.3,2.2-2.1,3.1-2.4,4.8-.2,1.2,0,2.3-.2,2.3s-1-1.5-1.7-1.5c-.5,0-1.1.2-1.3.6-.4.7-.2,2.5.9,2.8.3.1,1.3,1.4,1.3,2.4.1,1.7-2,2.9-1.9,5.3.4,7.3,4.8,12.2,4,11.8-.4-.2-5.9-4.5-7.9-5.9-.4-.3-2.6-.9-4.4.3-3.7,2.5-4.1,10.9-5,10.1Z" style="fill:#95471a; stroke:#000; stroke-miterlimit:10; stroke-width:.28px;"/><g id="glasses"><path d="m119.08,273.6l-11,1.6c-.2,0-.4-.1-.4-.3s.1-.4.3-.4h0l11.1-1.4c.2,0,.3.1.3.2-.1.1-.2.3-.3.3Z" style="fill:#333;"/><path d="m119.28,270l.1,4.5c0,.2-.1.3-.3.3s-.3-.1-.3-.3h0v-4.5c0-.2.1-.3.3-.3,0-.1.2.1.2.3Z" style="fill:#333;"/></g></g><polyline id="border" points="70.28 374.7 70.28 186 219.18 186 219.18 374.3" style="fill:none; stroke:#8d8d8d; stroke-linecap:square; stroke-linejoin:round; stroke-width:5.64px;"/><g id="Tree_6"><path d="m54.68,362.2h-23.9s-1.9-.2-2.7-1.3c-.7-.8-.1-2.7-.1-2.7l11.5-35.4s1-3.8,2.9-3.8c1.7,0,2.7,3.7,2.7,3.7l11.6,34.6s.5,2.5.1,3.3c-.8,1.3-2.1,1.6-2.1,1.6Z" style="fill:url(#linear-gradient-3); isolation:isolate; opacity:.81; stroke:#225003; stroke-linecap:round; stroke-miterlimit:10; stroke-width:1.22px;"/><g style="opacity:.73;"><line x1="42.08" y1="330.3" x2="42.08" y2="376" style="fill:none; stroke:#225003; stroke-linecap:round; stroke-miterlimit:10; stroke-width:1.22px;"/><line x1="47.38" y1="353.2" x2="42.28" y2="358.1" style="fill:none; stroke:#225003; stroke-linecap:round; stroke-miterlimit:10; stroke-width:1.22px;"/><line x1="37.68" y1="350.1" x2="41.88" y2="354.2" style="fill:none; stroke:#225003; stroke-linecap:round; stroke-miterlimit:10; stroke-width:1.22px;"/><line x1="46.18" y1="346.6" x2="42.08" y2="350.6" style="fill:none; stroke:#225003; stroke-linecap:round; stroke-miterlimit:10; stroke-width:1.22px;"/><line x1="38.28" y1="343.3" x2="41.88" y2="346.9" style="fill:none; stroke:#225003; stroke-linecap:round; stroke-miterlimit:10; stroke-width:1.22px;"/><line x1="46.38" y1="339.6" x2="42.18" y2="343.6" style="fill:none; stroke:#225003; stroke-linecap:round; stroke-miterlimit:10; stroke-width:1.22px;"/><line x1="38.78" y1="336.5" x2="41.98" y2="339.6" style="fill:none; stroke:#225003; stroke-linecap:round; stroke-miterlimit:10; stroke-width:1.22px;"/><line x1="43.98" y1="333.7" x2="42.18" y2="335.4" style="fill:none; stroke:#225003; stroke-linecap:round; stroke-miterlimit:10; stroke-width:1.22px;"/></g><path d="m31.58,360H4.18s-2.1-.2-3.1-1.5c-.7-1-.2-3.2-.2-3.2l13.2-41.7s1.1-4.5,3.3-4.4c2,0,3.1,4.3,3.1,4.3l13.2,40.7s.6,2.9.1,3.9c-.8,1.5-2.2,1.9-2.2,1.9Z" style="fill:url(#linear-gradient-4); isolation:isolate; opacity:.91; stroke:#225003; stroke-linecap:round; stroke-miterlimit:10; stroke-width:1.42px;"/><g style="opacity:.93;"><line x1="17.18" y1="322.3" x2="17.18" y2="376.2" style="fill:none; stroke:#225003; stroke-linecap:round; stroke-miterlimit:10; stroke-width:1.42px;"/><line x1="23.18" y1="349.3" x2="17.38" y2="355.1" style="fill:none; stroke:#225003; stroke-linecap:round; stroke-miterlimit:10; stroke-width:1.42px;"/><line x1="12.18" y1="345.7" x2="16.98" y2="350.5" style="fill:none; stroke:#225003; stroke-linecap:round; stroke-miterlimit:10; stroke-width:1.42px;"/><line x1="21.88" y1="341.6" x2="17.18" y2="346.3" style="fill:none; stroke:#225003; stroke-linecap:round; stroke-miterlimit:10; stroke-width:1.42px;"/><line x1="12.78" y1="337.7" x2="16.98" y2="341.9" style="fill:none; stroke:#225003; stroke-linecap:round; stroke-miterlimit:10; stroke-width:1.42px;"/><line x1="22.08" y1="333.3" x2="17.38" y2="338" style="fill:none; stroke:#225003; stroke-linecap:round; stroke-miterlimit:10; stroke-width:1.42px;"/><line x1="13.38" y1="329.7" x2="16.98" y2="333.3" style="fill:none; stroke:#225003; stroke-linecap:round; stroke-miterlimit:10; stroke-width:1.42px;"/><line x1="19.28" y1="326.3" x2="17.28" y2="328.3" style="fill:none; stroke:#225003; stroke-linecap:round; stroke-miterlimit:10; stroke-width:1.42px;"/></g></g><rect x=".68" y="375" width="221.3" height="5" style="fill:#333;"/></g><path d="m38.96,399.57c0,.63.17,1.21.5,1.73s.77.94,1.31,1.26c.54.32,1.15.48,1.83.48s1.33-.16,1.89-.48c.56-.32,1-.74,1.33-1.26s.5-1.1.5-1.73v-10.25h2.51v10.3c0,1.17-.28,2.2-.84,3.09s-1.31,1.58-2.25,2.07-1.99.74-3.13.74-2.19-.25-3.12-.74c-.94-.49-1.69-1.18-2.24-2.07-.56-.89-.84-1.92-.84-3.09v-10.3h2.57v10.25Z" style="fill:#f8991d;"/><path d="m55.24,405.53c-.7,0-1.38-.12-2.01-.37-.64-.25-1.17-.61-1.6-1.08l1.03-1.41c.41.38.82.67,1.22.86s.79.29,1.16.29c.28,0,.53-.03.76-.1.23-.07.41-.17.54-.32.13-.15.2-.34.2-.57,0-.31-.1-.54-.3-.7s-.46-.3-.78-.41c-.32-.11-.66-.22-1.01-.34-.81-.25-1.41-.62-1.8-1.1-.4-.48-.59-1.05-.59-1.69,0-.47.12-.93.37-1.39.25-.46.63-.83,1.13-1.11.51-.29,1.15-.43,1.95-.43.69,0,1.3.08,1.83.24.53.16,1.02.42,1.47.77l-.95,1.5c-.26-.25-.58-.45-.94-.59s-.69-.23-.98-.24c-.26-.01-.5.02-.7.11-.21.09-.37.2-.51.34s-.2.3-.2.5c-.01.29.09.53.31.7.22.18.5.32.85.42.34.1.68.21,1,.33.45.15.85.33,1.2.55.34.22.62.5.82.84.21.34.31.75.31,1.23,0,.56-.14,1.08-.42,1.56-.28.48-.69.88-1.24,1.18s-1.26.45-2.12.45Z" style="fill:#f8991d;"/><path d="m66.17,405.58c-1.07,0-2-.21-2.78-.64-.79-.42-1.38-1.01-1.79-1.76-.41-.75-.62-1.61-.62-2.57s.23-1.78.7-2.53c.47-.75,1.1-1.35,1.9-1.79.8-.45,1.68-.67,2.65-.67,1.28,0,2.33.37,3.16,1.11.83.74,1.38,1.79,1.66,3.14l-7.5,2.53-.55-1.39,5.83-2.09-.48.31c-.16-.45-.43-.85-.79-1.18-.37-.33-.87-.5-1.52-.5-.51,0-.97.12-1.36.37-.4.25-.71.59-.94,1.02s-.34.93-.34,1.51c0,.63.12,1.17.37,1.62.25.45.59.79,1.01,1.03.43.24.91.36,1.45.36.38,0,.75-.07,1.1-.2.35-.13.68-.31.99-.53l1.12,1.83c-.48.31-1.02.55-1.59.74-.58.18-1.14.28-1.68.28Z" style="fill:#f8991d;"/><path d="m75.68,396.03l.24,2.64-.07-.37c.23-.56.59-1.03,1.06-1.43.47-.4.95-.7,1.43-.92.48-.22.89-.33,1.21-.33l-.15,2.46c-.69-.06-1.29.07-1.81.37-.52.31-.92.72-1.21,1.24s-.43,1.07-.43,1.64v4h-2.44v-9.31h2.18Z" style="fill:#f8991d;"/><path d="m89.6,389.32h10.63v2.46h-8.05v4.27h7.17v2.46h-7.17v4.36h8.36v2.46h-10.93v-16.02Z" style="fill:#f8991d;"/><path d="m112.33,405.33h-2.99l-7.13-9.31h3.04l7.08,9.31Zm-5.24-3.28l-2.29,3.28h-2.46l3.61-4.93,1.14,1.65Zm.29-2.77l2.05-3.26h2.46l-3.63,5.04-.88-1.78Z" style="fill:#f8991d;"/><path d="m120.01,405.58c-.66,0-1.29-.14-1.89-.42s-1.08-.66-1.43-1.14l.13-.75v6.53h-2.44v-13.95h2.09l.37,2.13-.26-.64c.48-.5,1.05-.91,1.69-1.24.65-.33,1.38-.5,2.2-.5.88,0,1.67.21,2.36.62.7.41,1.24.99,1.64,1.74.4.75.59,1.64.59,2.68s-.22,1.91-.66,2.64c-.44.73-1.04,1.3-1.8,1.69-.76.4-1.63.59-2.6.59Zm-.48-1.96c.56,0,1.06-.12,1.52-.37.46-.25.82-.6,1.09-1.04.27-.45.41-.95.41-1.51,0-.59-.13-1.1-.38-1.55-.26-.45-.6-.8-1.03-1.06s-.91-.38-1.44-.38c-.47,0-.89.08-1.27.24s-.7.39-.97.69c-.27.3-.47.66-.6,1.07v1.87c.09.4.26.75.51,1.06.25.31.56.55.95.73.38.18.79.26,1.23.26Z" style="fill:#f8991d;"/><path d="m132.08,405.58c-1.07,0-2-.21-2.78-.64-.78-.42-1.38-1.01-1.79-1.76s-.62-1.61-.62-2.57.23-1.78.7-2.53,1.1-1.35,1.9-1.79c.8-.45,1.68-.67,2.65-.67,1.28,0,2.33.37,3.16,1.11.83.74,1.38,1.79,1.66,3.14l-7.5,2.53-.55-1.39,5.83-2.09-.48.31c-.16-.45-.42-.85-.79-1.18-.37-.33-.87-.5-1.52-.5-.51,0-.97.12-1.36.37-.4.25-.71.59-.93,1.02-.23.43-.34.93-.34,1.51,0,.63.12,1.17.37,1.62.25.45.59.79,1.01,1.03.42.24.91.36,1.45.36.38,0,.75-.07,1.1-.2.35-.13.68-.31.99-.53l1.12,1.83c-.48.31-1.02.55-1.6.74-.58.18-1.14.28-1.68.28Z" style="fill:#f8991d;"/><path d="m141.59,396.03l.24,2.64-.07-.37c.23-.56.59-1.03,1.06-1.43.47-.4.95-.7,1.43-.92.48-.22.89-.33,1.21-.33l-.15,2.46c-.69-.06-1.29.07-1.81.37-.52.31-.92.72-1.21,1.24s-.43,1.07-.43,1.64v4h-2.44v-9.31h2.18Z" style="fill:#f8991d;"/><path d="m147.88,392.66c0-.37.15-.67.44-.92.29-.25.62-.37.97-.37s.67.12.96.37c.29.25.43.56.43.95s-.14.67-.43.92c-.29.25-.6.37-.96.37s-.67-.12-.97-.37c-.29-.25-.44-.56-.44-.95Zm.11,3.37h2.46v9.31h-2.46v-9.31Z" style="fill:#f8991d;"/><path d="m158.24,405.58c-1.07,0-2-.21-2.78-.64-.79-.42-1.38-1.01-1.79-1.76-.41-.75-.62-1.61-.62-2.57s.23-1.78.7-2.53c.47-.75,1.1-1.35,1.9-1.79.8-.45,1.68-.67,2.65-.67,1.28,0,2.33.37,3.16,1.11.83.74,1.38,1.79,1.66,3.14l-7.5,2.53-.55-1.39,5.83-2.09-.48.31c-.16-.45-.43-.85-.79-1.18-.37-.33-.87-.5-1.52-.5-.51,0-.97.12-1.36.37-.4.25-.71.59-.94,1.02s-.34.93-.34,1.51c0,.63.12,1.17.37,1.62.25.45.59.79,1.01,1.03.43.24.91.36,1.45.36.38,0,.75-.07,1.1-.2.35-.13.68-.31.99-.53l1.12,1.83c-.48.31-1.02.55-1.59.74-.58.18-1.14.28-1.68.28Z" style="fill:#f8991d;"/><path d="m167.77,396.03l.22,2-.07-.26c.31-.64.78-1.16,1.42-1.55.64-.39,1.4-.58,2.28-.58s1.59.26,2.17.78.88,1.18.89,1.99v6.93h-2.46v-6.03c-.01-.47-.15-.85-.4-1.13-.25-.29-.65-.44-1.19-.45-.5,0-.95.15-1.35.45s-.71.71-.92,1.23c-.21.52-.32,1.13-.32,1.81v4.11h-2.46v-9.31h2.2Z" style="fill:#f8991d;"/><path d="m185.79,404.5c-.43.32-.93.58-1.53.78-.59.2-1.19.3-1.79.3-1.03,0-1.93-.2-2.72-.61-.78-.4-1.39-.97-1.81-1.69-.43-.73-.64-1.6-.64-2.61s.23-1.88.69-2.61c.46-.73,1.07-1.29,1.83-1.68.75-.4,1.55-.59,2.39-.59.79,0,1.49.11,2.09.32.6.21,1.12.5,1.54.87l-1.19,1.61c-.25-.19-.56-.37-.94-.54s-.8-.25-1.29-.25-.93.13-1.33.38c-.4.26-.73.6-.97,1.02-.24.42-.36.92-.36,1.47,0,.53.12,1.01.37,1.45.25.44.59.79,1.02,1.04s.94.38,1.51.38c.38,0,.73-.05,1.03-.17.31-.11.59-.26.84-.45l1.25,1.56Z" style="fill:#f8991d;"/><path d="m192.72,405.58c-1.07,0-2-.21-2.78-.64-.78-.42-1.38-1.01-1.79-1.76s-.62-1.61-.62-2.57.23-1.78.7-2.53,1.1-1.35,1.9-1.79c.8-.45,1.68-.67,2.65-.67,1.28,0,2.33.37,3.16,1.11.83.74,1.38,1.79,1.66,3.14l-7.5,2.53-.55-1.39,5.83-2.09-.48.31c-.16-.45-.42-.85-.79-1.18-.37-.33-.87-.5-1.52-.5-.51,0-.97.12-1.36.37-.4.25-.71.59-.93,1.02-.23.43-.34.93-.34,1.51,0,.63.12,1.17.37,1.62.25.45.59.79,1.01,1.03.42.24.91.36,1.45.36.38,0,.75-.07,1.1-.2.35-.13.68-.31.99-.53l1.12,1.83c-.48.31-1.02.55-1.6.74-.58.18-1.14.28-1.68.28Z" style="fill:#f8991d;"/></g></svg>