<?xml version="1.0" encoding="UTF-8"?>
<svg id="Layer_2" data-name="Layer 2" xmlns="http://www.w3.org/2000/svg" xmlns:xlink="http://www.w3.org/1999/xlink" viewBox="0 0 315.78 420">
  <defs>
    <style>
      .cls-1 {
        stroke-width: 4.96px;
      }

      .cls-1, .cls-2, .cls-3, .cls-4, .cls-5, .cls-6, .cls-7, .cls-8, .cls-9, .cls-10, .cls-11, .cls-12, .cls-13, .cls-14, .cls-15, .cls-16, .cls-17, .cls-18, .cls-19, .cls-20, .cls-21, .cls-22 {
        stroke-miterlimit: 10;
      }

      .cls-1, .cls-2, .cls-3, .cls-4, .cls-5, .cls-6, .cls-23, .cls-24, .cls-25, .cls-26, .cls-10, .cls-11, .cls-12, .cls-13, .cls-14, .cls-15, .cls-16, .cls-17, .cls-18, .cls-19, .cls-20, .cls-21, .cls-27, .cls-22 {
        fill: none;
      }

      .cls-1, .cls-2, .cls-4, .cls-24, .cls-28, .cls-20 {
        stroke: #95948e;
      }

      .cls-2, .cls-22 {
        stroke-width: 5.67px;
      }

      .cls-3, .cls-29, .cls-30, .cls-31, .cls-6, .cls-7, .cls-8, .cls-9, .cls-23, .cls-24, .cls-25, .cls-26, .cls-32, .cls-11, .cls-12, .cls-13, .cls-14, .cls-15, .cls-16, .cls-17, .cls-18, .cls-33, .cls-28, .cls-19, .cls-20, .cls-27, .cls-34, .cls-35 {
        stroke-linecap: round;
      }

      .cls-3, .cls-29, .cls-9, .cls-23, .cls-26, .cls-11, .cls-20, .cls-34, .cls-35 {
        stroke-width: 1.42px;
      }

      .cls-3, .cls-29, .cls-25, .cls-26, .cls-32, .cls-19, .cls-27, .cls-34, .cls-35 {
        stroke: #225003;
      }

      .cls-4 {
        stroke-width: 3.54px;
      }

      .cls-36 {
        opacity: .91;
      }

      .cls-36, .cls-29, .cls-25, .cls-26, .cls-27, .cls-34, .cls-35 {
        isolation: isolate;
      }

      .cls-5, .cls-6, .cls-10, .cls-21, .cls-22 {
        stroke: #c4beae;
      }

      .cls-5, .cls-27 {
        stroke-width: 2.13px;
      }

      .cls-29 {
        fill: url(#radial-gradient);
      }

      .cls-29, .cls-30, .cls-31, .cls-23, .cls-24, .cls-25, .cls-26, .cls-32, .cls-33, .cls-28, .cls-27, .cls-34, .cls-35 {
        stroke-linejoin: round;
      }

      .cls-29, .cls-34, .cls-35 {
        opacity: .93;
      }

      .cls-30 {
        stroke-width: .97px;
      }

      .cls-30, .cls-31, .cls-7, .cls-8, .cls-9 {
        fill: #f8991d;
      }

      .cls-30, .cls-31, .cls-7, .cls-8, .cls-9, .cls-23, .cls-11, .cls-12, .cls-13, .cls-14, .cls-15, .cls-16, .cls-17, .cls-18 {
        stroke: #f8991d;
      }

      .cls-31 {
        stroke-width: .97px;
      }

      .cls-7, .cls-18 {
        stroke-width: 1.31px;
      }

      .cls-8, .cls-17 {
        stroke-width: 1.28px;
      }

      .cls-37 {
        fill: #f8991d;
        font-family: JosefinSansRoman-SemiBold, 'Josefin Sans';
        font-size: 22px;
        font-variation-settings: 'wght' 600;
        font-weight: 600;
      }

      .cls-38 {
        fill: #387583;
      }

      .cls-25 {
        stroke-width: .99px;
      }

      .cls-25, .cls-26, .cls-27 {
        opacity: .82;
      }

      .cls-10 {
        stroke-width: 19.84px;
      }

      .cls-32 {
        fill: url(#linear-gradient);
      }

      .cls-32, .cls-19 {
        stroke-width: 2.83px;
      }

      .cls-12 {
        stroke-width: 1.51px;
      }

      .cls-13 {
        stroke-width: 1.54px;
      }

      .cls-14 {
        stroke-width: 1.57px;
      }

      .cls-15 {
        stroke-width: 1.57px;
      }

      .cls-16 {
        stroke-width: 1.65px;
      }

      .cls-39 {
        opacity: .65;
      }

      .cls-33 {
        fill: #397381;
        stroke: #397381;
      }

      .cls-28 {
        fill: #95948e;
      }

      .cls-40 {
        letter-spacing: -.01em;
      }

      .cls-41 {
        fill: #333;
      }

      .cls-21 {
        stroke-width: 4.25px;
      }

      .cls-34 {
        fill: url(#radial-gradient-3);
      }

      .cls-35 {
        fill: url(#radial-gradient-2);
      }
    </style>
    <radialGradient id="radial-gradient" cx="186.43" cy="-184.6" fx="186.43" fy="-184.6" r="11.78" gradientTransform="translate(0 138) scale(1 -1)" gradientUnits="userSpaceOnUse">
      <stop offset=".04" stop-color="#219e00"/>
      <stop offset=".21" stop-color="#219400"/>
      <stop offset=".5" stop-color="#217a01"/>
      <stop offset=".86" stop-color="#225003"/>
    </radialGradient>
    <radialGradient id="radial-gradient-2" cx="207.79" cy="-198.84" fx="207.79" fy="-198.84" r="9.5" gradientTransform="translate(0 138) scale(1 -1)" gradientUnits="userSpaceOnUse">
      <stop offset=".04" stop-color="#219e00"/>
      <stop offset=".22" stop-color="#219900"/>
      <stop offset=".41" stop-color="#218c01"/>
      <stop offset=".61" stop-color="#227602"/>
      <stop offset=".82" stop-color="#225703"/>
      <stop offset=".86" stop-color="#225003"/>
    </radialGradient>
    <radialGradient id="radial-gradient-3" cx="166.76" cy="-198.92" fx="166.76" fy="-198.92" r="13.45" xlink:href="#radial-gradient"/>
    <linearGradient id="linear-gradient" x1="15.31" y1="556.21" x2="72.93" y2="556.21" gradientTransform="translate(0 -240)" gradientUnits="userSpaceOnUse">
      <stop offset="0" stop-color="#219e00"/>
      <stop offset="1" stop-color="#225003"/>
    </linearGradient>
  </defs>
  <g id="ae">
    <g id="Tree_3" data-name="Tree 3">
      <circle class="cls-29" cx="186.43" cy="322.6" r="11.8"/>
      <circle class="cls-35" cx="207.83" cy="336.8" r="9.5"/>
      <circle class="cls-34" cx="166.73" cy="336.9" r="9.2"/>
      <g>
        <line class="cls-27" x1="186.73" y1="324.9" x2="186.73" y2="376.6"/>
        <line class="cls-26" x1="186.73" y1="358.4" x2="207.03" y2="338.1"/>
        <line class="cls-26" x1="167.13" y1="339" x2="186.83" y2="358.7"/>
        <line class="cls-25" x1="192.73" y1="333.7" x2="187.03" y2="346.5"/>
        <line class="cls-25" x1="179.93" y1="334" x2="186.23" y2="346"/>
        <line class="cls-25" x1="180.83" y1="346.5" x2="180.83" y2="352.8"/>
        <line class="cls-25" x1="167.73" y1="347.4" x2="178.23" y2="350.4"/>
        <line class="cls-25" x1="198.33" y1="341.8" x2="193.23" y2="351.5"/>
        <line class="cls-25" x1="202.63" y1="350.1" x2="195.43" y2="350"/>
      </g>
    </g>
    <line class="cls-6" x1="143.43" y1="102.6" x2="96.83" y2="80.3"/>
    <g class="cls-39">
      <line class="cls-24" x1="92.33" y1="39.8" x2="94.83" y2="61.8"/>
      <line class="cls-24" x1="100.43" y1="39.4" x2="97.93" y2="62"/>
    </g>
    <path class="cls-20" d="M94.33,79.8c.4,1.7,1.6,2.1,3,1.8,1.2-.2,2.2-1.9,1.5-3.2q-.7-1.3-2-2.9"/>
    <line class="cls-6" x1="96.93" y1="80.4" x2="50.63" y2="102.3"/>
    <path class="cls-28" d="M93.33,73.4s7,0,6.9,0-3.3,2.8-3.3,2.8l-3.6-2.8Z"/>
    <g>
      <line class="cls-4" x1="126.63" y1="125.3" x2="126.63" y2="151.2"/>
      <line class="cls-4" x1="88.23" y1="125.3" x2="88.23" y2="151.2"/>
      <line class="cls-21" x1="91.83" y1="125.3" x2="91.83" y2="151.2"/>
      <line class="cls-21" x1="130.43" y1="125.3" x2="130.43" y2="151.2"/>
    </g>
    <g>
      <line class="cls-5" x1="13.33" y1="136.1" x2="161.83" y2="136.1"/>
      <line class="cls-5" x1="13.83" y1="144.7" x2="162.33" y2="144.7"/>
    </g>
    <g>
      <line class="cls-1" x1="55.93" y1="116.5" x2="55.93" y2="151.2"/>
      <line class="cls-22" x1="60.43" y1="116.5" x2="60.43" y2="151.2"/>
    </g>
    <g>
      <line class="cls-1" x1="160.43" y1="116.5" x2="160.43" y2="151.2"/>
      <line class="cls-22" x1="164.63" y1="116.5" x2="164.63" y2="151.2"/>
    </g>
    <g>
      <line class="cls-1" x1="7.73" y1="90.7" x2="7.73" y2="151.5"/>
      <line class="cls-22" x1="12.63" y1="90.7" x2="12.63" y2="151.3"/>
    </g>
    <rect id="building" class="cls-38" x="5.13" y="150.8" width="162.5" height="225.6"/>
    <line class="cls-22" x1="95.73" y1="104" x2="153.43" y2="104"/>
    <line class="cls-2" x1="40.73" y1="104" x2="95.63" y2="104"/>
    <g id="crane-lines">
      <path class="cls-30" d="M91.83,70.7v-8.5s.8-3.4,5-3.4,4.8,2.9,4.8,2.9l.1,8.9s-.3,3.9-4.8,3.8c-4.7,0-5.1-3.7-5.1-3.7Z"/>
      <line class="cls-11" x1="29.73" y1="37.2" x2="315.03" y2="38"/>
      <line class="cls-11" x1="39.43" y1="25.5" x2="191.73" y2="23.2"/>
      <line class="cls-11" x1="29.33" y1="37.1" x2="39.33" y2="25.5"/>
      <line class="cls-11" x1="202.43" y1="32.8" x2="191.63" y2="23.2"/>
      <line class="cls-11" x1="196.63" y1="37.5" x2="191.43" y2="23.1"/>
      <line class="cls-11" x1="39.73" y1="25.6" x2="48.03" y2="36.8"/>
      <line class="cls-11" x1="57.43" y1="25.3" x2="47.83" y2="36.9"/>
      <line class="cls-11" x1="57.73" y1="25.9" x2="66.03" y2="37.1"/>
      <line class="cls-11" x1="75.43" y1="25.6" x2="65.83" y2="37.2"/>
      <g>
        <line class="cls-11" x1="75.03" y1="25.8" x2="83.23" y2="37"/>
        <line class="cls-11" x1="92.73" y1="25.4" x2="83.13" y2="37"/>
      </g>
      <g>
        <line class="cls-12" x1="93.33" y1="25.1" x2="102.13" y2="37"/>
        <line class="cls-12" x1="112.23" y1="24.7" x2="102.03" y2="37.1"/>
      </g>
      <g>
        <line class="cls-15" x1="112.83" y1="24.8" x2="121.93" y2="37.2"/>
        <line class="cls-15" x1="132.43" y1="24.4" x2="121.83" y2="37.3"/>
      </g>
      <g>
        <line class="cls-13" x1="134.03" y1="24.6" x2="142.63" y2="37.2"/>
        <line class="cls-13" x1="152.53" y1="24.1" x2="142.53" y2="37.3"/>
      </g>
      <g>
        <line class="cls-14" x1="152.33" y1="24.3" x2="161.13" y2="37.2"/>
        <line class="cls-14" x1="171.23" y1="23.9" x2="161.03" y2="37.3"/>
      </g>
      <g>
        <line class="cls-16" x1="170.93" y1="23.8" x2="180.23" y2="37.2"/>
        <line class="cls-16" x1="190.93" y1="23.4" x2="180.13" y2="37.3"/>
      </g>
      <path class="cls-7" d="M215.23,33.3h11.6s2.9.2,3.4,1.6.5,2.8.5,2.8h-17l-17.9-.1s.2-1.1,2.5-2.7c2-1.4,3.4-1.6,3.4-1.6h13.5Z"/>
      <line class="cls-18" x1="228.03" y1="28.2" x2="228.03" y2="37.5"/>
      <line class="cls-18" x1="314.93" y1="28.2" x2="228.23" y2="28.1"/>
      <line class="cls-18" x1="315.13" y1="37.9" x2="315.13" y2="28.3"/>
      <line class="cls-17" x1="269.53" y1="37.7" x2="269.53" y2="28.4"/>
      <line class="cls-17" x1="258.83" y1="37.7" x2="258.83" y2="28.4"/>
      <line class="cls-18" x1="244.33" y1="37.6" x2="244.33" y2="28.2"/>
      <line class="cls-18" x1="230.83" y1="37.6" x2="230.83" y2="28.3"/>
      <line class="cls-18" x1="228.03" y1="32.8" x2="276.23" y2="32.8"/>
      <rect class="cls-8" x="275.23" y="28.4" width="39.5" height="9.4"/>
      <line class="cls-11" x1="226.53" y1="36.6" x2="226.53" y2="56.6"/>
      <line class="cls-11" x1="208.73" y1="36.4" x2="208.73" y2="56.2"/>
      <rect class="cls-23" x="202.13" y="56.7" width="29.1" height="18.1"/>
      <line class="cls-23" x1="210.73" y1="36.9" x2="226.33" y2="49.8"/>
      <line class="cls-23" x1="218.33" y1="56.6" x2="226.13" y2="49.6"/>
      <line class="cls-11" x1="231.13" y1="66.4" x2="202.43" y2="66.4"/>
      <line class="cls-11" x1="227.43" y1="74.6" x2="227.43" y2="66.4"/>
      <line class="cls-11" x1="223.23" y1="74.8" x2="223.23" y2="66.5"/>
      <line class="cls-11" x1="218.93" y1="74.7" x2="218.93" y2="66.5"/>
      <line class="cls-11" x1="214.73" y1="74.7" x2="214.73" y2="66.4"/>
      <line class="cls-11" x1="210.53" y1="74.5" x2="210.53" y2="66.5"/>
      <line class="cls-11" x1="206.33" y1="74.6" x2="206.33" y2="66.4"/>
      <line class="cls-11" x1="226.13" y1="74.8" x2="226.13" y2="364.2"/>
      <line class="cls-11" x1="206.03" y1="75" x2="206.03" y2="364.4"/>
      <rect class="cls-9" x="206.53" y="75.1" width="19.2" height="8.5"/>
      <g>
        <line class="cls-11" x1="206.33" y1="362.2" x2="226.03" y2="342.5"/>
        <line class="cls-11" x1="206.03" y1="323" x2="226.03" y2="343"/>
      </g>
      <g>
        <line class="cls-11" x1="206.23" y1="323.6" x2="225.93" y2="303.9"/>
        <line class="cls-11" x1="206.03" y1="284.3" x2="226.03" y2="304.3"/>
      </g>
      <g>
        <line class="cls-11" x1="206.43" y1="284.7" x2="226.13" y2="265"/>
        <line class="cls-11" x1="206.13" y1="245.5" x2="226.13" y2="265.5"/>
      </g>
      <g>
        <line class="cls-11" x1="206.23" y1="246.1" x2="225.93" y2="226.4"/>
        <line class="cls-11" x1="206.03" y1="206.8" x2="226.03" y2="226.8"/>
      </g>
      <g>
        <line class="cls-11" x1="206.43" y1="207.3" x2="226.13" y2="187.6"/>
        <line class="cls-11" x1="206.13" y1="168.1" x2="226.13" y2="188.1"/>
      </g>
      <g>
        <line class="cls-11" x1="206.23" y1="168.6" x2="225.93" y2="148.9"/>
        <line class="cls-11" x1="206.03" y1="129.3" x2="226.03" y2="149.3"/>
      </g>
      <g>
        <line class="cls-11" x1="206.23" y1="130.4" x2="225.93" y2="110.7"/>
        <line class="cls-11" x1="206.03" y1="91.1" x2="226.03" y2="111.1"/>
      </g>
      <line class="cls-11" x1="206.13" y1="91.3" x2="216.23" y2="81.1"/>
      <line class="cls-11" x1="226.03" y1="110.8" x2="206.13" y2="110.8"/>
      <line class="cls-11" x1="206.33" y1="168.4" x2="226.13" y2="168.4"/>
      <line class="cls-11" x1="225.93" y1="226.2" x2="206.13" y2="226.2"/>
      <line class="cls-11" x1="206.33" y1="284.8" x2="225.83" y2="284.8"/>
      <line class="cls-11" x1="225.43" y1="342.6" x2="206.13" y2="342.6"/>
      <path class="cls-9" d="M183.43,375.7s-.1-1.5.1-4.1c.5-.6,13.5-9.6,15.6-9.7s30.7-.3,33-.2,14.3,7.9,15.2,8.8c.4,3.3.1,5.2.1,5.2h-64Z"/>
      <path class="cls-31" d="M87.63,37.5s1.6,3.6,4.3,3.6c3,0,2.5-1.7,4.1-1.6,1.7.1,2.1,1.8,4.1,1.8,2.3,0,4.9-3.6,4.9-3.6l-17.4-.2Z"/>
      <path class="cls-33" d="M217.23,43.3v27h-20.4s-3.2-5.1-2.4-11.7c1-9,5.2-12.8,9.7-14.4,4.4-1.5,13.1-.9,13.1-.9Z"/>
    </g>
    <line class="cls-10" x1="22.33" y1="179.7" x2="155.33" y2="179.7"/>
    <line class="cls-10" x1="22.33" y1="219.3" x2="155.33" y2="219.3"/>
    <line class="cls-10" x1="22.33" y1="258.9" x2="155.33" y2="258.9"/>
    <line class="cls-10" x1="22.33" y1="298.5" x2="155.33" y2="298.5"/>
    <line class="cls-10" x1="22.33" y1="338.1" x2="155.33" y2="338.1"/>
    <g id="Tree_2" data-name="Tree 2">
      <g class="cls-36">
        <path class="cls-32" d="M59.13,350.9H26.93s-4,.3-6.7-1.7-4.2-6.4-4.2-6.4l-.7-26.2s-.2-3.2.7-6.3c1-3.6,2.2-5.2,2.2-5.2l17.9-19.6s4.3-4,7.6-4,7.5,4,7.5,4l17.6,17.8s2.1,2.1,3.1,4.3c.9,2.2,1,5.4,1,5.4v23.8s-.3,6.6-3.3,9.4c-4,3.5-10.5,4.7-10.5,4.7Z"/>
      </g>
      <g>
        <line class="cls-19" x1="43.63" y1="296.2" x2="43.63" y2="376.1"/>
        <line class="cls-3" x1="53.83" y1="315.2" x2="43.83" y2="325.2"/>
        <line class="cls-3" x1="50.83" y1="303.4" x2="43.83" y2="310.4"/>
        <line class="cls-3" x1="36.43" y1="303.1" x2="43.63" y2="310.3"/>
        <line class="cls-3" x1="33.03" y1="315.6" x2="43.03" y2="325.7"/>
        <line class="cls-3" x1="53.73" y1="330.8" x2="43.83" y2="340.7"/>
        <line class="cls-3" x1="32.33" y1="329.6" x2="43.83" y2="341"/>
      </g>
    </g>
    <rect class="cls-41" x="5.13" y="375" width="310" height="5"/>
  </g>
  <g id="text">
    <text class="cls-37" transform="translate(0 405.33)"><tspan x="0" y="0">Architectu</tspan><tspan class="cls-40" x="103.29" y="0">r</tspan><tspan x="111.6" y="0">al Engineering</tspan></text>
  </g>
</svg>