<?xml version="1.0" encoding="UTF-8"?><svg id="Layer_2" xmlns="http://www.w3.org/2000/svg" xmlns:xlink="http://www.w3.org/1999/xlink" viewBox="0 0 286.57 420"><defs><radialGradient id="radial-gradient" cx="143.64" cy="-65.4" fx="143.64" fy="-65.4" r="130.63" gradientTransform="translate(0 138) scale(1 -1)" gradientUnits="userSpaceOnUse"><stop offset="0" stop-color="#219e00"/><stop offset=".27" stop-color="#219b00"/><stop offset=".45" stop-color="#219200"/><stop offset=".6" stop-color="#218301"/><stop offset=".74" stop-color="#226e02"/><stop offset=".86" stop-color="#225303"/><stop offset=".87" stop-color="#225003"/></radialGradient><radialGradient id="radial-gradient-2" cx="62.25" cy="-23.96" fx="62.25" fy="-14.77" r="64.08" gradientTransform="translate(0 209.79) scale(1 -1.2)" gradientUnits="userSpaceOnUse"><stop offset=".08" stop-color="#219e00"/><stop offset=".29" stop-color="#219b00"/><stop offset=".44" stop-color="#219200"/><stop offset=".56" stop-color="#218301"/><stop offset=".67" stop-color="#226e02"/><stop offset=".78" stop-color="#225303"/><stop offset=".79" stop-color="#225003"/></radialGradient><radialGradient id="radial-gradient-3" cx="223.65" cy="-109.76" fx="223.65" fy="-109.76" r="60.2" gradientTransform="translate(0 138) scale(1 -1)" gradientUnits="userSpaceOnUse"><stop offset=".3" stop-color="#219e00"/><stop offset=".45" stop-color="#218d01"/><stop offset="1" stop-color="#225003"/></radialGradient><radialGradient id="radial-gradient-4" cx="431.95" cy="-1994.37" fx="431.95" fy="-1994.37" r="8.86" gradientTransform="translate(698.87 1407.46) rotate(-45.64) scale(1 .61)" gradientUnits="userSpaceOnUse"><stop offset="0" stop-color="#cddcdf"/><stop offset=".15" stop-color="#bed1d6"/><stop offset=".44" stop-color="#95b4bc"/><stop offset=".84" stop-color="#548692"/><stop offset="1" stop-color="#397381"/></radialGradient><radialGradient id="radial-gradient-5" cx="2598.31" cy="3527.21" fx="2598.31" fy="3527.21" r=".73" gradientTransform="translate(2083.74 -3044.6) rotate(73.84) scale(1 .79)" gradientUnits="userSpaceOnUse"><stop offset=".1" stop-color="#a9cd93"/><stop offset=".41" stop-color="#7ea565"/><stop offset="1" stop-color="#225003"/></radialGradient><radialGradient id="radial-gradient-6" cx="19.14" cy="591.89" fx="19.14" fy="591.89" r="20.61" gradientTransform="translate(0 -240)" gradientUnits="userSpaceOnUse"><stop offset="0" stop-color="#219e00"/><stop offset=".24" stop-color="#219a00"/><stop offset=".46" stop-color="#218f01"/><stop offset=".67" stop-color="#217d01"/><stop offset=".88" stop-color="#226302"/><stop offset="1" stop-color="#225003"/></radialGradient></defs><g id="Layer_1-2"><g id="humanfactors"><g id="Tree_5"><path d="m144.13,323.7c-17.4,1.6-31-13.4-44.4-18.3-24.7-9-33.5-7.3-44.1-9.5-1.7-.4-13.3,8.7-25.2,1.8-14.8-8.6-9.8-21.5-10.7-24-.4-1.2-17.6-10.7-16.1-32.6,2.2-32.5,30.3-27.4,31-29.7,5.5-16.5,6.2-18.9,15.2-28,16.8-16.9,34.9-14.2,35.2-16.1,2.1-11.8-9.5-13,.2-32.6,8.8-17.8,26.4-14.7,28.2-16.5,3.5-3.7,4.5-35.9,32.8-35.2,30.4.7,28.2,33.9,30.4,35.7,2,1.6,19.4-4.7,28.8,19.6,11,28.2-.8,30.4.2,34.8.4,1.9,7.9-3,26.8,13.3,17.2,14.8,17.7,26,17.7,32,0,1.4,21.6-1.9,32.4,26.4,7.7,20.4-23.8,37.3-24.4,38.5-3.6,6.5-7.2,17.4-17.6,20.7-12.7,4-17.9-2.3-22.2-2.2-3,.1-9.1,12.6-28.4,4.2-1.8-.7-8.7,14.1-45.8,17.7Z" style="fill:url(#radial-gradient); isolation:isolate; opacity:.92; stroke:#225003; stroke-linecap:round; stroke-linejoin:round; stroke-width:5.67px;"/><path d="m18.13,272.2c-.8-2.5-17.7-13.3-15-32.4,4.3-30.4,29.5-26.6,31.7-29.4,2.6-3.4,2.1-31.9,27.3-32.7,27.7-.8,29.2,32.4,30.9,33.7,2,1.6,27.2.3,28.6,30.4,1.3,28.6-24.1,32.1-25.4,34.5-1.5,2.6-2.6,15.4-16.5,20.3-13.1,4.7-15.7-1.6-22.8-1.8-5.6-.2-9.9,8.4-24.9,3.1-19.5-6.7-12.8-22.6-13.9-25.7Z" style="fill:url(#radial-gradient-2); isolation:isolate; opacity:.58; stroke:#225003; stroke-linecap:round; stroke-linejoin:round; stroke-width:5.67px;"/><path d="m179.53,281.3c-.8-2.5-17.7-13.3-15-32.4,4.3-30.4,29.5-26.6,31.7-29.4,2.6-3.4,2.1-31.9,27.3-32.7,27.7-.8,29.2,32.4,30.9,33.7,2,1.6,27.2.3,28.6,30.4,1.3,28.6-24.1,32.1-25.4,34.5-1.5,2.6-2.6,15.4-16.5,20.3-13.1,4.7-15.7-1.6-22.8-1.8-5.6-.2-9.9,8.4-24.9,3.1-19.5-6.7-12.8-22.6-13.9-25.7Z" style="fill:url(#radial-gradient-3); isolation:isolate; opacity:.58; stroke:#225003; stroke-linecap:round; stroke-linejoin:round; stroke-width:5.67px;"/><line x1="144.53" y1="134.2" x2="144.53" y2="370.8" style="fill:none; stroke:#225003; stroke-linecap:round; stroke-linejoin:round; stroke-width:14.17px;"/><path d="m224.23,256.5s-4.8,32-37.7,52.4c-14.6,9.1-40.2,14.1-40.3,14.3" style="fill:none; stroke:#225003; stroke-linecap:round; stroke-linejoin:round; stroke-width:8.5px;"/><path d="m69.93,250.1s3,35.4,32.3,55.1c19.2,12.9,42.5,18.4,42.5,18.4" style="fill:none; stroke:#225003; stroke-linecap:round; stroke-linejoin:round; stroke-width:8.5px;"/><path d="m105.83,149.7s3.9,17.9,13.7,28.4c13.2,14.2,25.8,15,25.8,15,0,0,14.7-2.5,26-17,8.3-10.6,13.7-24.4,13.7-24.4" style="fill:none; stroke:#225003; stroke-linecap:round; stroke-linejoin:round; stroke-width:8.5px;"/></g><g id="person"><g id="shoes"><path d="m76.03,375.6l-.1-8.3s1.8.6,4.3,0,3.5-1.4,3.5-1.4c0,0,2.7,3.2,6.4,2.9s6.4-1.2,8-1.6c1.4-.3,2.1,2.9,1.8,3.3-.4.4-10.4,5.1-12.5,4.8s-4.7-1.8-4.7-1.8h-5.1l5,.1,1,.5-2.5,1.5h-5.1Z" style="fill:#2f1d00; stroke:#000; stroke-linecap:round; stroke-linejoin:round; stroke-width:.72px;"/><path d="m118.23,371l-4.8-7.7s2.1-.3,4-2,3.2-3.1,3.2-3.1c0,0,3.8.8,6.3-.4,2.7-1.2,4.9-5.2,5.8-6,.6-.5,2.4.9,2.4,1.5-.5,7.5-2.3,8.8-8,10.8-2,.7-4.5,1.6-4.5,1.6l-4.2,2.5,3.9-2.4,2-.8-.8,2.9-5.3,3.1Z" style="fill:#2f1d00; stroke:#000; stroke-linecap:round; stroke-linejoin:round; stroke-width:.72px;"/></g><g id="pants"><path d="m113.33,363.4s-9.8-17.8-13.7-25.8-8.7-19-10.3-22.4,7.9-14.4,7.9-14.4l7-2.3s.2,2.6,1,11.7c.8,9,3,24.8,6,31.2,2.4,5.2,4.6,11.5,9.5,16.4,1.9,1.8-7.4,5.6-7.4,5.6Z" style="fill:#002859; stroke:#000; stroke-linecap:round; stroke-linejoin:round; stroke-width:.72px;"/><path d="m75.33,368.1s.6-10.4.1-18.9c-.5-8,.8-17.4,1.3-22.4.6-5.4,3.3-12.7,2.8-17.3-1.2-10.4-1.6-13.7-1.2-13.9.8-.5,27.7.2,27.7.2,0,0-6,10.8-7.8,14.6s-8.7,19.2-11.2,28.2c-2.5,8.9-2.8,18.6-2.3,28.1.2,2.7-9.4,1.4-9.4,1.4Z" style="fill:#002859; stroke:#000; stroke-linecap:round; stroke-linejoin:round; stroke-width:.72px;"/><path d="m89.03,296.1s-1.8,6.7-1.4,8.1,4-1.9,4.9-3.5c.8-1.6,1.2-4.6,1.2-4.6h-4.7Z" style="fill:#002859; stroke:#000; stroke-linecap:round; stroke-linejoin:round; stroke-width:.72px;"/></g><g id="briefcase"><path d="m66.33,344.3l-19.4-10.6c-2.4-1.3-3.2-4.3-1.9-6.6l8.3-15.2c1.3-2.4,4.3-3.2,6.6-1.9l19.4,10.6c2.4,1.3,3.2,4.3,1.9,6.6l-8.3,15.2c-1.3,2.3-4.2,3.2-6.6,1.9Z" style="fill:#73523c; stroke:#000; stroke-linecap:round; stroke-linejoin:round; stroke-width:.72px;"/><path d="m72.53,334.9l-20.9-11.5c-1.9-1.1-2.6-3.5-1.6-5.4l2-3.6c1.1-1.9,3.5-2.6,5.4-1.6l20.9,11.5c1.9,1.1,2.6,3.5,1.6,5.4l-2,3.6c-1,1.9-3.4,2.6-5.4,1.6Z" style="fill:#563e2d; stroke:#000; stroke-linecap:round; stroke-linejoin:round; stroke-width:.72px;"/><path d="m60.63,331.1l-2.8-1.5c-.8-.5-1.1-1.5-.7-2.3l.4-.7c.5-.8,1.5-1.1,2.3-.7l2.8,1.5c.8.5,1.1,1.5.7,2.3l-.4.7c-.4.8-1.4,1.1-2.3.7Z" style="fill:#f8c666; stroke:#000; stroke-linecap:round; stroke-linejoin:round; stroke-width:.57px;"/><path d="m60.93,312.4c1.1-1.7,2.4-2.4,3.1-2.7,5.3-2.2,11.1,2.5,11.8,6.4.1.7.4,2.1,0,3.4,0,.1-.3.6-.9.7-.7.1-1.4-.8-1.5-1.4,0-1.3,0-1.9-.2-3.4-.5-3.1-7.2-5.3-8.8-3.6-.5.5-.6,1-1.4,1.8-.1.1-1.3.7-1.9.2-.4-.5-.2-1.4-.2-1.4Z" style="fill:#f8c666; stroke:#000; stroke-linecap:round; stroke-linejoin:round; stroke-width:.72px;"/></g><path id="hand" d="m71.33,315.9c-.2.1-.9.6-1.6.3-.7-.3-.4-1.1-1.1-1.5-.7-.3-1.3.3-1.9-.1-.4-.3,0-.8-.5-1.2-.6-.5-1.4.1-1.9-.3-.1-.1-.3-.6,0-1.4,1.1-3,4.3-5.3,6.1-8.7.1-.2.3-.6.7-.8,1.4-.7,3.7,1.6,4.5,2.4.2.2.4.5.6.9.2.7-.1,1.3-.2,1.7-.4,1.2-.4,1.4-.5,5.2,0,.3,0,1.2-.2,1.4-.1.1-.3-.2-1-.5l-.6-.3c-.9-.4-.8,2-2.4,2.9Z" style="fill:#ffd0a4; stroke:#000; stroke-linecap:round; stroke-linejoin:round; stroke-width:.72px;"/><g id="phone_hand"><path d="m135.23,262.9l10.7-10.7c.3-.3.3-.9,0-1.2l-5.1-5.1c-.3-.3-.9-.3-1.2,0l-10.7,10.7c-.3.3-.3.9,0,1.2l5.1,5.1c.3.4.8.4,1.2,0Z" style="fill:#333; stroke:#000; stroke-miterlimit:10; stroke-width:.75px;"/><path d="m135.33,261.3l9.1-9.1c.3-.3.3-.9,0-1.2l-3.5-3.5c-.3-.3-.9-.3-1.2,0l-9.1,9.1c-.3.3-.3.9,0,1.2l3.5,3.5c.3.3.8.3,1.2,0Z" style="fill:url(#radial-gradient-4); stroke:#000; stroke-miterlimit:10; stroke-width:.29px;"/><path d="m122.33,263s3.1-2.7,3.4-3.5-.1-3,.6-3.7c.7-.7,6.8-4.6,6.8-4.6,0,0,.8-.3,1.1.6.3.7-.4,1.6-.9,2.1s-2.5,2-2.5,2c0,0-.6,3.2-.4,3.5.4.6,3.7,3.5,4,3.5s7.7-7.2,7.7-7.2c0,0,.6,1.1-.1,1.9s-8.9,8.1-8.9,8.1c0,0-3.1.4-4,1.1-.8.7-3.4,2-3.4,2l-3.4-5.8Z" style="fill:#ffd0a4; stroke:#000; stroke-linecap:round; stroke-linejoin:round; stroke-width:.72px;"/></g><path id="neck" d="m98.03,243.6l1.4-3.2s.8-1,1.1-2.1c.5-1.5.4-3.3.4-3.3v-3.3l3.7-.5,3.4,5.1,2.3,4.7s-.3,1.4-.7,3.1c-.6,2.4-3.3,5.8-4.2,6.4-.9.8-7.4-6.9-7.4-6.9Z" style="fill:#ffd0a4; stroke:#000; stroke-linecap:round; stroke-linejoin:round; stroke-width:.72px;"/><g id="jacket"><path id="sleeve" d="m106.03,269c.1.1,3.3,2.2,4.9,1.3,1.4-.8,9.1-7.1,11.2-8.8.3-.2.7-.2.9.2l4.2,7c.2.3.1.8-.2,1l-14.6,10.3c-.1.1-1.9,1.7-5.4.3-1.1-.5-.9-11.3-1-11.3Z" style="fill:#003577; stroke:#000; stroke-linecap:round; stroke-linejoin:round; stroke-width:.72px;"/><path id="shirt" d="m97.43,241s.2-3.3,2-2.2c1,.7,5.8,8,7.4,11,.7,1.4,1.2,7.1-.4,7.1-.4,0-9-15.9-9-15.9Z" style="fill:#009bd0; stroke:#000; stroke-linecap:round; stroke-linejoin:round; stroke-width:.72px;"/><path id="collar" d="m93.13,245s-.1-1,1.3-3c.9-1.3,2.1-2.7,2.7-2.4.7.4,8.9,9.4,10,18.1s1.1,7.2,1.1,7.2l-1,1-14.1-20.9Z" style="fill:#002c5c; stroke:#000; stroke-linecap:round; stroke-linejoin:round; stroke-width:.72px;"/><path id="jacket-2" d="m108.43,265.7v28s.4,4.3-2.8,4.4-24.3-.2-24.3-.2l-3.7,8.2c-.2.5-.8.6-1.2.4l-5.7-3.6c-.5-.3-.7-1-.5-1.5,1.1-3,4.7-10.4,7.8-19.7,3.1-9.1,6.3-19.4,6.9-21.3,1.5-4.7,3.3-14.7,8.5-16.4.6-.2,3.3,1.7,8.6,8.3,4.1,5.2,6.4,13.4,6.4,13.4Z" style="fill:#003577; stroke:#000; stroke-linecap:round; stroke-linejoin:round; stroke-width:.72px;"/><path d="m91.63,251.7c-1.1,1.3-2.3,2.6-3.3,4-.5.7-1,1.4-1.5,2.1-.5.7-.9,1.4-1.2,2.2h0c-.1.2-.3.3-.5.2s-.3-.3-.2-.5h0c.4-.8.9-1.6,1.4-2.3.5-.7,1-1.4,1.6-2.1,1.1-1.3,2.3-2.6,3.5-3.9.1-.1.2-.1.2,0v.3Z"/><path d="m98.93,252.9c.7,2,.9,4.1.7,6.2s-.8,4.1-1.5,6c-.8,1.9-1.8,3.8-2.9,5.5-.6.9-1.2,1.7-1.8,2.5s-1.1,1.7-1.6,2.6c-2,3.6-3.8,7.3-5.4,11l-4.7,11.4c-.1.2-.3.3-.5.2s-.3-.3-.2-.5h0l4.8-11.4c1.7-3.8,3.4-7.5,5.5-11.1.5-.9,1.1-1.8,1.7-2.6.6-.8,1.2-1.6,1.8-2.5,1.1-1.7,2.1-3.5,2.9-5.4.8-1.9,1.3-3.9,1.5-5.9s0-4.1-.6-6h0c0-.1,0-.2.1-.3,0,.1.1.2.2.3Z"/></g><g id="head"><path d="m103.23,236.7s-.6,2.9,1.3,3.9,7.5,3.1,7.5,3.1c0,0,3.2.8,3.4-1.4s-.5-2.7,0-3.3,1.1-.4,1.2-.8c.1-.4.3-2.3.6-2.5s2.5.2,2.9-.3.4-1.1-.9-2.6c-.5-.6-.8-1.7-.7-2.6.1-.8.3-2.6.7-3s.4-2.3-.1-3.2-2-5.3-2-5.3l-11.4-1.4-1.3,5.2,1.8,3.7-.5,2.6-.6-2.7-1.8-1.2s-3.7-1.3-5-.2c-1,.9.8,6,.9,7,.2,1,2.1,1.1,2.7,1.4.7.3,1.7.3,1.7.8.1.7-.4,2.8-.4,2.8Z" style="fill:#ffd0a4; stroke:#000; stroke-linecap:round; stroke-linejoin:round; stroke-width:.72px;"/><line x1="116.13" y1="235.5" x2="117.53" y2="235.7" style="fill:none;"/><path d="m116.13,235.3l1.4.1c.1,0,.3.1.3.3s-.1.3-.3.3h0l-1.3-.2c-.1,0-.2-.1-.2-.2-.1-.2,0-.3.1-.3Z"/><path d="m112.53,237.8l2.4.9c.2.1.2.2.2.4-.1.2-.2.2-.4.2h0l-2.3-1.2c-.1,0-.1-.1-.1-.2q.1-.1.2-.1Z" style="fill:#c96;"/><path d="m112.93,230.7c.2-.1,1-.8,1.9-.7.5.1.9.6.9.9.1.5-.3,1-.3,1-.9-.6-1.8-1.2-2-1.3-.1-.2-.5.1-.5.1Z" style="fill:#fff; stroke:#000; stroke-linecap:round; stroke-linejoin:round; stroke-width:.29px;"/><path d="m103.03,229.4c-.7-1.1-1.1-.1-.6,1.1.3.8.8,1.4,1.1.7" style="fill:none; stroke:#c96; stroke-linecap:round; stroke-linejoin:round; stroke-width:.43px;"/><path d="m110.93,227.9s2.4-2.1,3.6-2.5c.9-.3,2.4-.9,2.6.2.2,1-.1,1.4-.6,1.5-.3.1-1.2-.5-2.2-.2-1.3.3-3.4,1-3.4,1Z" style="fill:#2f1d00; stroke:#000; stroke-linecap:round; stroke-linejoin:round; stroke-width:.29px;"/><path d="m99.73,237.2c-.8.3-2.7.3-3-.7-.7-2.2-1.2-5-1.5-6.1-.5-1.6-2.6-6.8-2-8.2s5.7-6.1,8.7-7.1,9.1-2.7,14,.5c4.9,3.1,3.9,3.6,4.3,4.7s-1.1,2.1-2.1,1.9c-.9-.2-1.9-1-4.2-.6-1.6.3-3.9,1.7-4.8,3.1-1.3,1.8-1.4,2.6-1.7,4-.3,1.3-.6,1.5-1.3,1.7s-1.1.8-1.3,0c-.3-1.2-.7-2.1-1.4-3.2-.8-1.1-1.7-.7-2.4-.3-.5.3-.7,1.4-.7,2.5,0,1.5.8,2.9,1.3,3.5.9,1.1,0,1.4-.5,2.9-.4,1-1,1.3-1.4,1.4Z" style="fill:#813e00; stroke:#000; stroke-linecap:round; stroke-linejoin:round; stroke-width:.72px;"/><path d="m115.03,231.6s-.6-.2-.5-.7c.1-.6.5-.7.8-.5,0,0,.5.4.3.9,0,.2-.1.4-.6.3Z" style="fill:url(#radial-gradient-5); stroke:#000; stroke-linecap:round; stroke-linejoin:round; stroke-width:.14px;"/></g></g><g id="mesurements"><path d="m105.83,212.3c4.1,0,8.1.8,11.9,2.3,3.8,1.5,7.3,3.7,10.5,6.2,6.4,5.1,11.4,11.8,15.3,18.9,3.9,7.1,6.7,14.8,8.7,22.6,1.9,7.8,3,15.9,2.8,24,0,.2-.2.3-.4.3s-.3-.1-.3-.3h0c-.1-2-.3-4-.5-6s-.4-4-.7-5.9c-.6-3.9-1.4-7.9-2.4-11.7-2.1-7.7-5-15.2-8.9-22.1-3.9-6.9-8.7-13.4-14.6-18.5-3-2.6-6.3-4.8-9.9-6.4-3.6-1.6-7.5-2.5-11.5-2.6-.2,0-.4-.2-.4-.4,0-.2.2-.4.4-.4Z" style="fill:#f8991d;"/><path d="m155.63,309.9c-6,5.3-13.3,9-21,11.4-7.7,2.3-15.7,3.3-23.7,3.3s-15.9-1.2-23.7-3.1c-7.7-2.1-15.1-5.3-21.9-9.4-.2-.1-.3-.4-.2-.7.1-.2.4-.3.6-.2h0c7,3.6,14.4,6.5,21.9,8.6,7.5,2.3,15.4,3.4,23.2,3.5,7.9.1,15.7-1.1,23.2-3.5,7.5-2.3,14.6-5.9,20.9-10.6h0c.2-.1.5-.1.6.1.3.2.3.4.1.6Z" style="fill:#f8991d;"/><path d="m69.43,376.7c-2.7-.6-5.3-1.4-7.9-2.4-2.6-1-5.1-2.1-7.6-3.3-2.4-1.3-4.8-2.7-7.1-4.2s-4.6-3.1-6.7-4.8c-.2-.2-.3-.5-.1-.7s.5-.2.7-.1c2.3,1.5,4.5,3,6.9,4.4,2.3,1.4,4.7,2.7,7.2,3.9,2.4,1.2,4.8,2.4,7.3,3.5s5,2.1,7.6,3.1c.2.1.3.3.2.5-.2.1-.4.2-.5.1Z" style="fill:#f8991d;"/><path d="m157.23,354.3c-2.7,2.6-5.6,5-8.6,7.2-3,2.3-6.1,4.3-9.3,6.2-3.2,1.9-6.6,3.6-10,5.1s-7,2.7-10.6,3.7c-.3.1-.5-.1-.6-.4s.1-.5.3-.6c3.5-1.3,6.9-2.7,10.2-4.3,3.3-1.6,6.6-3.3,9.8-5.1,3.2-1.8,6.3-3.8,9.4-5.9,3.1-2.1,6.1-4.3,9-6.5.1-.1.4-.1.5.1,0,.2,0,.4-.1.5Z" style="fill:#f8991d;"/><path d="m66.23,198.7c.4,3.7.4,7.4.5,11.1v11.1c-.1,7.4-.1,14.8-.1,22.2l-.1,44.5c.1,14.8.2,29.6.2,44.5s-.3,29.6-.5,44.5c0,.3-.3.6-.6.6s-.5-.2-.6-.6c-.2-14.8-.4-29.6-.5-44.5,0-14.8.1-29.6.2-44.5l-.1-44.5c0-7.4,0-14.8-.1-22.2v-11.1c.1-3.7.1-7.4.5-11.1,0-.3.3-.5.5-.4.5,0,.7.2.7.4Z" style="fill:#f8991d;"/><path d="m100.63,201.8c.6,7.3.4,14.6.5,21.9v21.8l-.2,43.7v21.9l.1,21.9c.1,14.6,0,29.2-.4,43.7,0,.3-.3.6-.6.5-.3,0-.5-.2-.5-.5-.4-14.6-.5-29.2-.4-43.7l.1-21.9v-21.9l-.2-43.7v-21.8c.1-7.3-.1-14.6.5-21.9,0-.3.3-.5.6-.5s.5.2.5.5Z" style="fill:#f8991d;"/><path d="m160.53,283.2c-5.6.5-11.2.5-16.8.6l-16.8.2h-16.8c-5.6,0-11.2,0-16.8-.4-.3,0-.5-.3-.5-.6s.2-.5.5-.5c5.6-.3,11.2-.4,16.8-.4h16.8l16.8.2c5.6,0,11.2.1,16.8.6.1,0,.2.1.2.2,0,0-.1.1-.2.1Z" style="fill:#f8991d;"/><path d="m132.73,347.3c2.2,1.6,3.8,3.9,5.2,6.2,1.3,2.3,2.4,4.8,3.3,7.3.9,2.5,1.5,5.1,1.9,7.8.5,2.6.7,5.3.4,8,0,.2-.2.3-.3.2-.1,0-.2-.1-.2-.2-.5-2.6-.9-5.2-1.3-7.7-.5-2.6-1.1-5.1-1.9-7.6-1.6-4.9-3.9-9.7-7.5-13.4h0c-.2-.2-.2-.4,0-.6,0-.1.2-.1.4,0Z" style="fill:#f8991d;"/><path d="m73.53,303.5c-.1.8-.4,1.6-.7,2.4l-.9,2.3-1.9,4.6-3.8,9.1-7.6,18.3c-2.5,6.1-5.1,12.2-7.7,18.2l-3.9,9.1c-1.3,3-2.7,6-4.2,8.9-.1.2-.3.3-.5.2-.2-.1-.2-.3-.2-.5,1-3.2,2.2-6.2,3.5-9.3l3.8-9.2c2.5-6.1,5.1-12.2,7.7-18.2l7.9-18.2,3.9-9.1,2-4.5,1-2.3c.3-.8.7-1.5,1.2-2.2.1-.2.3-.2.5-.1-.1.3-.1.4-.1.5Z" style="fill:#f8991d;"/><path d="m51.33,302.9c2-.1,4-.2,6-.4,2-.1,4-.2,6-.2s4,0,6,.1,4,.2,6,.5c.2,0,.3.2.3.4,0,.1-.1.3-.3.3-2,.3-4,.4-6,.5s-4,.1-6,.1-4-.1-6-.2-4-.2-6-.4c-.2,0-.4-.2-.3-.4,0-.1.1-.3.3-.3Z" style="fill:#f8991d;"/><path d="m48.53,249.1c3-.4,6-.5,8.9-.6,3-.1,6-.1,8.9-.1s6,.1,8.9.1c3,.1,6,.2,8.9.5.3,0,.5.3.5.6s-.2.5-.5.5c-3,.3-6,.4-8.9.5-3,.1-6,.1-8.9.1s-6,0-8.9-.1c-3,0-6-.1-8.9-.6-.3,0-.5-.3-.5-.6.1-.1.3-.3.5-.3Z" style="fill:#f8991d;"/><path d="m48.23,212.3c3.9-.3,7.8-.4,11.8-.5,3.9-.1,7.8-.2,11.8-.2s7.8,0,11.8.1c3.9.1,7.8.2,11.8.5.2,0,.4.2.4.4s-.2.4-.4.4c-3.9.3-7.8.4-11.8.5-3.9.1-7.8.1-11.8.1s-7.8-.1-11.8-.2c-3.9-.1-7.8-.2-11.8-.5-.2,0-.4-.2-.4-.4,0,0,.2-.2.4-.2Z" style="fill:#f8991d;"/><path d="m56.23,258.1c2.6-3.2,5.5-6.2,8.4-9.2,1.5-1.4,3-2.9,4.5-4.3,1.5-1.4,3.1-2.8,4.7-4.1.2-.2.5-.1.7.1.2.2.1.4,0,.6-1.3,1.6-2.7,3.2-4.1,4.7-1.4,1.5-2.9,3-4.3,4.5-2.9,2.9-5.9,5.8-9.2,8.4-.2.2-.5.1-.7-.1-.2-.1-.2-.4,0-.6Z" style="fill:#f8991d;"/><path d="m57.23,220.7c1.3-1.6,2.7-3.2,4.1-4.7,1.4-1.5,2.8-3.1,4.2-4.6s2.9-2.9,4.5-4.3c1.5-1.4,3.1-2.7,4.8-4,.2-.2.5-.1.7.1.1.2.1.4,0,.6-1.3,1.7-2.6,3.3-4,4.8s-2.8,3.1-4.3,4.5-3,2.8-4.6,4.2c-1.5,1.4-3.1,2.7-4.7,4.1-.2.2-.5.1-.7-.1-.1-.1-.1-.4,0-.6Z" style="fill:#f8991d;"/><path d="m57.23,310.6c2.3-3,5-5.7,7.6-8.3,1.4-1.3,2.7-2.6,4.1-3.9,1.4-1.3,2.8-2.5,4.3-3.7.2-.2.5-.1.7.1.1.2.1.4,0,.6-1.2,1.5-2.4,2.9-3.7,4.3s-2.6,2.7-3.9,4.1c-2.7,2.7-5.4,5.3-8.4,7.6-.2.2-.5.1-.7-.1-.2-.3-.2-.5,0-.7Z" style="fill:#f8991d;"/><path d="m63.33,376.4c.6-.9,1.3-1.8,2-2.6.7-.8,1.5-1.6,2.3-2.4s1.6-1.5,2.4-2.2c.8-.7,1.7-1.4,2.6-2,.2-.2.6-.1.7.1.1.2.1.4,0,.6-.6.9-1.3,1.8-2.1,2.6-.7.8-1.5,1.6-2.3,2.4s-1.6,1.5-2.4,2.3c-.8.7-1.7,1.4-2.7,2-.2.2-.6.1-.7-.2.1-.2.1-.4.2-.6Z" style="fill:#f8991d;"/></g><g id="Tree_4"><g style="isolation:isolate; opacity:.92;"><path d="m19.03,362.6c-.4.3-6,5-9.8,2.2-5.4-4-2.7-9.5-2.7-10.6,0-.8-.9-2.7-.1-5.6.9-2.9,3.2-2.8,3.7-3.5.6-.7.5-7.1,8.6-7,7.1.1,7.9,5.9,8.4,6.7.4.6,3.9.9,4.5,4.3.6,3.6-.7,4.1-.7,4.8,0,.9,3.3,4.3.1,9.5-3.2,5.1-11-.2-12-.8Z" style="fill:url(#radial-gradient-6); stroke:#225003; stroke-miterlimit:10; stroke-width:1.42px;"/></g><g style="opacity:.86;"><line x1="18.93" y1="344.7" x2="18.93" y2="375.6" style="fill:none; stroke:#225003; stroke-linecap:round; stroke-miterlimit:10; stroke-width:1.42px;"/><line x1="22.83" y1="349.4" x2="19.13" y2="353.1" style="fill:none; stroke:#225003; stroke-linecap:round; stroke-miterlimit:10; stroke-width:.71px;"/><line x1="15.23" y1="349.4" x2="18.83" y2="353.1" style="fill:none; stroke:#225003; stroke-linecap:round; stroke-miterlimit:10; stroke-width:.71px;"/><line x1="25.33" y1="354" x2="19.03" y2="360.3" style="fill:none; stroke:#225003; stroke-linecap:round; stroke-miterlimit:10; stroke-width:.71px;"/><line x1="12.43" y1="354" x2="18.73" y2="360.3" style="fill:none; stroke:#225003; stroke-linecap:round; stroke-miterlimit:10; stroke-width:.71px;"/></g></g><rect x="2.83" y="375" width="281" height="5" style="fill:#333;"/></g><path d="m64.28,389.32v16.02h-2.57v-6.8h-7.88v6.8h-2.57v-16.02h2.57v6.75h7.88v-6.75h2.57Z" style="fill:#f8991d;"/><path d="m71.15,405.73c-.84,0-1.53-.26-2.08-.78s-.84-1.19-.87-2.01v-6.91h2.46v6.01c.01.48.14.87.37,1.16.23.29.61.43,1.12.43.48,0,.91-.15,1.29-.45s.67-.71.89-1.24c.22-.53.33-1.12.33-1.78v-4.11h2.46v9.31h-2.22l-.2-2.05.07.31c-.19.43-.46.8-.81,1.12-.35.32-.76.57-1.23.75-.47.18-1,.26-1.58.26Z" style="fill:#f8991d;"/><path d="m82.76,396.03l.22,1.89-.09-.15c.37-.67.85-1.2,1.45-1.58.6-.38,1.3-.57,2.09-.57.53,0,.99.08,1.39.23.4.15.73.38,1,.68.27.3.44.67.52,1.11l-.09.07c.37-.66.85-1.17,1.45-1.54.6-.37,1.25-.55,1.94-.55.89,0,1.61.26,2.16.77.54.51.82,1.19.84,2.02v6.93h-2.44v-5.96c-.02-.45-.11-.83-.29-1.13-.18-.3-.51-.47-.99-.5-.53,0-.98.17-1.36.5s-.68.75-.89,1.28c-.21.52-.33,1.07-.34,1.64v4.18h-2.46v-5.96c-.01-.45-.12-.83-.31-1.13s-.53-.47-1.01-.5c-.51,0-.96.17-1.34.5-.38.33-.67.75-.87,1.28-.2.52-.3,1.08-.3,1.66v4.16h-2.46v-9.31h2.2Z" style="fill:#f8991d;"/><path d="m102.93,405.58c-.88,0-1.68-.18-2.39-.55-.71-.37-1.27-.91-1.68-1.64-.41-.73-.62-1.62-.62-2.69s.22-1.96.65-2.72c.43-.75,1-1.34,1.72-1.75.71-.41,1.48-.62,2.32-.62.89,0,1.61.18,2.16.53.54.35.98.77,1.3,1.25l-.13.35.24-1.72h2.29v9.31h-2.49v-2.27l.24.59c-.06.09-.17.23-.34.43-.17.2-.41.42-.73.65s-.68.43-1.1.59-.9.24-1.44.24Zm.68-2.02c.44,0,.84-.08,1.21-.23.37-.15.67-.38.92-.68.25-.3.43-.66.55-1.07v-2.02c-.12-.38-.31-.71-.58-1s-.59-.51-.97-.67-.78-.24-1.22-.24c-.51,0-.98.12-1.41.37-.43.25-.76.59-1.01,1.03-.25.44-.37.95-.37,1.52s.13,1.06.4,1.52c.26.46.61.81,1.04,1.08.43.26.91.4,1.44.4Z" style="fill:#f8991d;"/><path d="m114.4,396.03l.22,2-.07-.26c.31-.64.78-1.16,1.42-1.55s1.4-.58,2.28-.58,1.59.26,2.17.78c.58.52.88,1.18.89,1.99v6.93h-2.46v-6.03c-.01-.47-.15-.85-.4-1.13-.25-.29-.65-.44-1.19-.45-.5,0-.95.15-1.35.45s-.71.71-.92,1.23-.32,1.13-.32,1.81v4.11h-2.46v-9.31h2.2Z" style="fill:#f8991d;"/><path d="m132.24,389.32h9.72v2.46h-7.15v4.51h6.25v2.46h-6.25v6.58h-2.57v-16.02Z" style="fill:#f8991d;"/><path d="m147.64,405.58c-.88,0-1.68-.18-2.39-.55-.71-.37-1.27-.91-1.68-1.64-.41-.73-.62-1.62-.62-2.69s.22-1.96.65-2.72c.43-.75,1-1.34,1.72-1.75.71-.41,1.48-.62,2.32-.62.89,0,1.61.18,2.16.53.54.35.98.77,1.3,1.25l-.13.35.24-1.72h2.29v9.31h-2.49v-2.27l.24.59c-.06.09-.17.23-.34.43-.17.2-.41.42-.73.65s-.68.43-1.1.59-.9.24-1.44.24Zm.68-2.02c.44,0,.84-.08,1.21-.23.37-.15.67-.38.92-.68.25-.3.43-.66.55-1.07v-2.02c-.12-.38-.31-.71-.58-1s-.59-.51-.97-.67-.78-.24-1.22-.24c-.51,0-.98.12-1.41.37-.43.25-.76.59-1.01,1.03-.25.44-.37.95-.37,1.52s.13,1.06.4,1.52c.26.46.61.81,1.04,1.08.43.26.91.4,1.44.4Z" style="fill:#f8991d;"/><path d="m164.6,404.5c-.43.32-.94.58-1.53.78-.59.2-1.19.3-1.79.3-1.03,0-1.93-.2-2.72-.61-.79-.4-1.39-.97-1.82-1.69-.43-.73-.64-1.6-.64-2.61s.23-1.88.69-2.61c.46-.73,1.07-1.29,1.83-1.68.76-.4,1.55-.59,2.39-.59.79,0,1.49.11,2.09.32.6.21,1.11.5,1.54.87l-1.19,1.61c-.25-.19-.56-.37-.93-.54s-.8-.25-1.29-.25-.93.13-1.33.38c-.4.26-.73.6-.97,1.02-.24.42-.36.92-.36,1.47,0,.53.12,1.01.37,1.45.25.44.59.79,1.02,1.04.43.26.93.38,1.51.38.38,0,.73-.05,1.03-.17.31-.11.59-.26.84-.45l1.25,1.56Z" style="fill:#f8991d;"/><path d="m168.01,391.94h2.46v4.09h2.42v1.91h-2.42v7.39h-2.46v-7.39h-1.61v-1.91h1.61v-4.09Z" style="fill:#f8991d;"/><path d="m174.54,400.58c0-.94.22-1.78.67-2.53s1.07-1.34,1.86-1.78c.79-.44,1.7-.66,2.73-.66s1.92.22,2.7.66c.77.44,1.37,1.03,1.79,1.78.42.75.64,1.58.64,2.51s-.21,1.81-.64,2.56c-.43.76-1.02,1.35-1.79,1.79-.77.44-1.69.66-2.76.66-1,0-1.89-.2-2.67-.61-.78-.4-1.4-.98-1.85-1.73s-.67-1.64-.67-2.66Zm2.49.02c0,.56.12,1.06.35,1.5.23.44.55.79.96,1.06.4.26.86.4,1.38.4.54,0,1.02-.13,1.42-.4.4-.26.72-.62.96-1.06.23-.44.35-.94.35-1.5s-.12-1.06-.35-1.5c-.23-.44-.55-.79-.96-1.06-.4-.26-.87-.4-1.4-.4s-.98.13-1.39.4c-.41.26-.73.62-.97,1.07s-.35.94-.35,1.48Z" style="fill:#f8991d;"/><path d="m189.72,396.03l.24,2.64-.07-.37c.23-.56.59-1.03,1.06-1.43.47-.4.95-.7,1.43-.92.48-.22.89-.33,1.21-.33l-.15,2.46c-.69-.06-1.29.07-1.81.37-.52.31-.92.72-1.21,1.24s-.43,1.07-.43,1.64v4h-2.44v-9.31h2.18Z" style="fill:#f8991d;"/><path d="m198.9,405.53c-.7,0-1.38-.12-2.01-.37-.64-.25-1.17-.61-1.6-1.08l1.03-1.41c.41.38.82.67,1.22.86s.79.29,1.16.29c.28,0,.53-.03.76-.1.23-.07.41-.17.54-.32.13-.15.2-.34.2-.57,0-.31-.1-.54-.3-.7s-.46-.3-.78-.41c-.32-.11-.66-.22-1.01-.34-.81-.25-1.41-.62-1.8-1.1-.4-.48-.59-1.05-.59-1.69,0-.47.12-.93.37-1.39.25-.46.63-.83,1.13-1.11.51-.29,1.15-.43,1.95-.43.69,0,1.3.08,1.83.24.53.16,1.02.42,1.47.77l-.95,1.5c-.26-.25-.58-.45-.94-.59s-.69-.23-.98-.24c-.26-.01-.5.02-.7.11-.21.09-.37.2-.51.34s-.2.3-.2.5c-.01.29.09.53.31.7.22.18.5.32.85.42.34.1.68.21,1,.33.45.15.85.33,1.2.55.34.22.62.5.82.84.21.34.31.75.31,1.23,0,.56-.14,1.08-.42,1.56-.28.48-.69.88-1.24,1.18s-1.26.45-2.12.45Z" style="fill:#f8991d;"/></g></svg>