<?xml version="1.0" encoding="UTF-8"?>
<svg id="Layer_2" data-name="Layer 2" xmlns="http://www.w3.org/2000/svg" xmlns:xlink="http://www.w3.org/1999/xlink" viewBox="0 0 243.1 380">
  <defs>
    <style>
      .cls-1 {
        fill: #95471a;
      }

      .cls-1, .cls-2, .cls-3, .cls-4, .cls-5, .cls-6, .cls-7, .cls-8, .cls-9, .cls-10, .cls-11, .cls-12, .cls-13, .cls-14, .cls-15, .cls-16, .cls-17, .cls-18, .cls-19, .cls-20, .cls-21, .cls-22, .cls-23, .cls-24, .cls-25 {
        stroke-miterlimit: 10;
      }

      .cls-1, .cls-3, .cls-4, .cls-13, .cls-14, .cls-18, .cls-19 {
        stroke: #000;
      }

      .cls-1, .cls-13, .cls-14, .cls-18 {
        stroke-width: .28px;
      }

      .cls-2, .cls-26, .cls-5, .cls-7, .cls-27, .cls-28, .cls-8, .cls-29, .cls-9, .cls-30, .cls-11, .cls-12, .cls-31, .cls-32, .cls-33, .cls-17, .cls-34, .cls-20, .cls-21, .cls-23, .cls-35, .cls-25, .cls-36 {
        fill: none;
      }

      .cls-2, .cls-5, .cls-6, .cls-7, .cls-28, .cls-29, .cls-37, .cls-30, .cls-33, .cls-15, .cls-16, .cls-38, .cls-17, .cls-34, .cls-39, .cls-20, .cls-21, .cls-22, .cls-23, .cls-40, .cls-24 {
        stroke-linecap: round;
      }

      .cls-2, .cls-5, .cls-6, .cls-15, .cls-16 {
        stroke: #225003;
      }

      .cls-2, .cls-15 {
        stroke-width: 1.22px;
      }

      .cls-26 {
        stroke-width: 2.76px;
      }

      .cls-26, .cls-7, .cls-28, .cls-8, .cls-29, .cls-9, .cls-11, .cls-12, .cls-31, .cls-32, .cls-17, .cls-35 {
        stroke: #333;
      }

      .cls-26, .cls-27, .cls-37, .cls-30, .cls-33, .cls-38, .cls-34, .cls-39, .cls-40, .cls-36 {
        stroke-linejoin: round;
      }

      .cls-26, .cls-36 {
        stroke-linecap: square;
      }

      .cls-41, .cls-38, .cls-22 {
        fill: #4f9820;
      }

      .cls-3 {
        stroke-width: .03px;
      }

      .cls-3, .cls-37, .cls-42 {
        fill: #fff;
      }

      .cls-4 {
        fill: url(#radial-gradient-4);
        stroke-width: .06px;
      }

      .cls-5, .cls-29, .cls-10, .cls-31, .cls-16 {
        stroke-width: 1.42px;
      }

      .cls-6, .cls-38, .cls-22, .cls-40, .cls-24 {
        stroke-width: .25px;
      }

      .cls-6, .cls-43 {
        fill: #225003;
      }

      .cls-44 {
        fill: #397381;
      }

      .cls-45 {
        fill: url(#radial-gradient-3);
      }

      .cls-46 {
        fill: url(#radial-gradient-2);
      }

      .cls-7, .cls-12 {
        stroke-width: 1.19px;
      }

      .cls-47 {
        fill: #73523c;
      }

      .cls-27, .cls-37 {
        stroke: #b78248;
      }

      .cls-27, .cls-17, .cls-35, .cls-25 {
        stroke-width: 2.83px;
      }

      .cls-48 {
        fill: url(#linear-gradient-2);
      }

      .cls-28, .cls-29, .cls-31, .cls-32, .cls-35 {
        stroke-linejoin: bevel;
      }

      .cls-28, .cls-37 {
        stroke-width: 2.13px;
      }

      .cls-8 {
        stroke-width: 4.77px;
      }

      .cls-9 {
        stroke-width: 9.53px;
      }

      .cls-30 {
        stroke: #c96;
        stroke-width: .42px;
      }

      .cls-49 {
        fill: url(#radial-gradient);
      }

      .cls-50 {
        fill: #b78248;
        opacity: .68;
      }

      .cls-50, .cls-51, .cls-15, .cls-16, .cls-52, .cls-42 {
        isolation: isolate;
      }

      .cls-10 {
        fill: #69c;
      }

      .cls-10, .cls-34 {
        stroke: #006897;
      }

      .cls-11 {
        stroke-width: 1.15px;
      }

      .cls-53 {
        fill: #ededf3;
      }

      .cls-51 {
        opacity: .36;
      }

      .cls-51, .cls-39 {
        fill: #666;
      }

      .cls-32, .cls-34 {
        stroke-width: .71px;
      }

      .cls-54, .cls-40, .cls-24 {
        fill: #306f0e;
      }

      .cls-33 {
        stroke: #fff;
        stroke-width: .85px;
      }

      .cls-55 {
        fill: #c96;
      }

      .cls-13 {
        fill: #ffd0a4;
      }

      .cls-14 {
        fill: #003577;
      }

      .cls-15 {
        fill: url(#linear-gradient-3);
        opacity: .81;
      }

      .cls-16 {
        fill: url(#linear-gradient-4);
        opacity: .91;
      }

      .cls-38, .cls-22 {
        stroke: #4f9820;
      }

      .cls-56 {
        fill: #ffe797;
      }

      .cls-57 {
        fill: #006897;
      }

      .cls-39 {
        stroke-width: .18px;
      }

      .cls-39, .cls-20, .cls-21, .cls-23 {
        stroke: #666;
      }

      .cls-18 {
        fill: #f77884;
      }

      .cls-19 {
        fill: #cd646b;
        stroke-width: .14px;
      }

      .cls-58 {
        opacity: .73;
      }

      .cls-59 {
        opacity: .93;
      }

      .cls-60 {
        opacity: .63;
      }

      .cls-61 {
        opacity: .54;
      }

      .cls-20 {
        stroke-width: 3.54px;
      }

      .cls-21 {
        stroke-width: 2.98px;
      }

      .cls-23 {
        stroke-width: 2.38px;
      }

      .cls-40, .cls-24 {
        stroke: #306f0e;
      }

      .cls-25 {
        stroke: url(#linear-gradient);
      }

      .cls-36 {
        stroke: #8d8d8d;
        stroke-width: 5.64px;
      }

      .cls-62 {
        fill: #795e39;
      }

      .cls-63 {
        fill: #333;
      }

      .cls-52 {
        fill: #442313;
        opacity: .74;
      }

      .cls-64 {
        fill: #d6cce5;
      }

      .cls-42 {
        opacity: .45;
      }
    </style>
    <linearGradient id="linear-gradient" x1="168.39" y1="865.25" x2="171.23" y2="865.25" gradientTransform="translate(0 -662)" gradientUnits="userSpaceOnUse">
      <stop offset="0" stop-color="#000"/>
      <stop offset=".03" stop-color="#1d150f"/>
      <stop offset=".06" stop-color="#38281d"/>
      <stop offset=".1" stop-color="#4e3728"/>
      <stop offset=".15" stop-color="#5f4331"/>
      <stop offset=".2" stop-color="#6a4c37"/>
      <stop offset=".28" stop-color="#71513b"/>
      <stop offset=".5" stop-color="#73523c"/>
      <stop offset=".72" stop-color="#71513b"/>
      <stop offset=".8" stop-color="#6a4c37"/>
      <stop offset=".85" stop-color="#5f4331"/>
      <stop offset=".9" stop-color="#4e3728"/>
      <stop offset=".94" stop-color="#38281d"/>
      <stop offset=".97" stop-color="#1d150f"/>
      <stop offset="1" stop-color="#000"/>
    </linearGradient>
    <linearGradient id="linear-gradient-2" x1="157.58" y1="888.7" x2="183.28" y2="888.7" gradientTransform="translate(0 -662)" gradientUnits="userSpaceOnUse">
      <stop offset="0" stop-color="#f8991d"/>
      <stop offset=".04" stop-color="#f99e28"/>
      <stop offset=".18" stop-color="#fcae4e"/>
      <stop offset=".31" stop-color="#fdba69"/>
      <stop offset=".42" stop-color="#ffc17a"/>
      <stop offset=".51" stop-color="#ffc480"/>
      <stop offset=".59" stop-color="#ffc179"/>
      <stop offset=".71" stop-color="#fdb866"/>
      <stop offset=".85" stop-color="#fbab46"/>
      <stop offset="1" stop-color="#f8991d"/>
    </linearGradient>
    <radialGradient id="radial-gradient" cx="2002.46" cy="-2326.59" fx="2002.46" fy="-2326.59" r="2.73" gradientTransform="translate(2312.4 2374.79) rotate(-90) scale(1 .95)" gradientUnits="userSpaceOnUse">
      <stop offset=".53" stop-color="#333"/>
      <stop offset=".68" stop-color="#575757"/>
      <stop offset=".74" stop-color="#666"/>
      <stop offset=".81" stop-color="#636363"/>
      <stop offset=".87" stop-color="#595959"/>
      <stop offset=".92" stop-color="#494949"/>
      <stop offset=".97" stop-color="#333"/>
    </radialGradient>
    <radialGradient id="radial-gradient-2" cx="2017.61" cy="-2326.54" fx="2017.61" fy="-2326.54" r="2.73" gradientTransform="translate(2327.51 2389.99) rotate(-90) scale(1 .95)" xlink:href="#radial-gradient"/>
    <radialGradient id="radial-gradient-3" cx="2032.06" cy="-2326.6" fx="2032.06" fy="-2326.6" r="2.73" gradientTransform="translate(2342.01 2404.38) rotate(-90) scale(1 .95)" xlink:href="#radial-gradient"/>
    <radialGradient id="radial-gradient-4" cx="136.93" cy="934.41" fx="136.93" fy="934.41" r=".97" gradientTransform="translate(0 -662)" gradientUnits="userSpaceOnUse">
      <stop offset="0" stop-color="#397381"/>
      <stop offset=".21" stop-color="#366f7f"/>
      <stop offset=".44" stop-color="#2d6278"/>
      <stop offset=".68" stop-color="#1e4c6c"/>
      <stop offset=".92" stop-color="#092e5c"/>
      <stop offset="1" stop-color="#025"/>
    </radialGradient>
    <linearGradient id="linear-gradient-3" x1="63.44" y1="-181" x2="63.44" y2="-224.2" gradientTransform="translate(0 138) scale(1 -1)" gradientUnits="userSpaceOnUse">
      <stop offset=".11" stop-color="#219e00"/>
      <stop offset=".42" stop-color="#219c00"/>
      <stop offset=".59" stop-color="#219300"/>
      <stop offset=".73" stop-color="#218501"/>
      <stop offset=".86" stop-color="#227202"/>
      <stop offset=".97" stop-color="#225803"/>
      <stop offset="1" stop-color="#225003"/>
    </linearGradient>
    <linearGradient id="linear-gradient-4" x1="38.44" y1="-170.15" x2="38.44" y2="-232.56" gradientTransform="translate(0 138) scale(1 -1)" gradientUnits="userSpaceOnUse">
      <stop offset=".16" stop-color="#219e00"/>
      <stop offset=".29" stop-color="#219800"/>
      <stop offset=".48" stop-color="#218501"/>
      <stop offset=".7" stop-color="#226802"/>
      <stop offset=".85" stop-color="#225003"/>
    </linearGradient>
  </defs>
  <g id="md">
    <g id="walls">
      <rect class="cls-64" x="122.48" y="225.3" width="89" height="120.4"/>
      <polygon class="cls-53" points="94.68 189.2 122.48 225.3 122.48 345.7 100.78 375.7 94.18 375.7 94.68 189.2"/>
      <polygon class="cls-53" points="238.98 188.3 210.28 223.8 210.28 344.2 234.28 375.7 238.08 375.7 238.98 188.3"/>
      <polygon class="cls-42" points="169.88 188.3 239.68 188.3 240.18 189.8 211.48 225.3 122.48 225.3 94.68 189.2 169.88 188.3"/>
      <polygon class="cls-51" points="211.48 345.7 234.28 375.7 100.78 375.7 122.48 345.7 211.48 345.7"/>
    </g>
    <g id="clock" class="cls-61">
      <circle class="cls-10" cx="137.08" cy="243.1" r="8"/>
      <g>
        <line class="cls-34" x1="137.08" y1="243.1" x2="140.78" y2="246.8"/>
        <polygon class="cls-57" points="141.38 246 139.88 247.5 141.38 247.5 141.38 246"/>
      </g>
      <g>
        <line class="cls-34" x1="139.48" y1="241.1" x2="137.18" y2="243"/>
        <polygon class="cls-57" points="140.08 242 138.68 240.4 140.18 240.5 140.08 242"/>
      </g>
      <circle class="cls-57" cx="137.08" cy="243.1" r="1"/>
    </g>
    <g id="lamp">
      <line class="cls-25" x1="169.78" y1="187" x2="169.78" y2="219.5"/>
      <ellipse class="cls-56" cx="170.18" cy="235.4" rx="5.7" ry="6.4"/>
      <path class="cls-33" d="M170.28,240.3c-1.3-.1-2.1-.6-2.2-.9-.1-.4,4.6-.4,4.6-1.1s-5.2-1-5.3-1.7c-.1-.6,5-.1,5-.9,0-.7-2.9-1.1-4.4-1.4"/>
      <path class="cls-48" d="M183.28,234.7h-25.7s1.2-16,12.2-16c12.1,0,13.5,16,13.5,16Z"/>
    </g>
    <g id="window">
      <polygon class="cls-37" points="214.98 254.1 230.08 245.9 230.08 325.7 214.98 316.4 214.98 254.1"/>
      <line class="cls-27" x1="215.48" y1="284.6" x2="229.58" y2="284.8"/>
      <line class="cls-27" x1="222.18" y1="250.7" x2="222.18" y2="320.8"/>
    </g>
    <g id="plant">
      <g class="cls-60">
        <path class="cls-6" d="M186.68,309.6c.2-.8-.8-3.3-5.2-6.8-2.6-2-7.3-2.1-8.5.1-.9,1.6,1.9,4.8,4.5,6.3,4.4,2.5,8.9,1.4,9.2.4Z"/>
        <path class="cls-41" d="M174.38,303.4c1.4.3,2.7.7,4,1.2s2.6,1,3.8,1.6c1.2.6,2.4,1.4,3.5,2.2,1.1.9,2.1,1.9,2.9,3.1.1.1.1.3-.1.4s-.3,0-.4-.1h0c-.7-1.1-1.6-2.1-2.7-3s-2.2-1.6-3.4-2.3c-1.2-.7-2.5-1.2-3.8-1.7s-2.6-.9-3.9-1.2c-.1,0-.1-.1-.1-.1q.1-.1.2-.1Z"/>
      </g>
      <g class="cls-60">
        <path class="cls-6" d="M189.98,313.7c-.2-.2,1.2-5.4,4.1-7,3.7-2,6.9-2.6,9.1,0,.9,1-4.1,4-5.8,4.9-1.3.6-6.7,3-7.4,2.1Z"/>
        <path class="cls-41" d="M202.08,306.9c-1.4,0-2.7.3-4,.7-1.3.5-2.5,1.2-3.6,1.9-1.1.8-2.1,1.8-3,2.8-.5.5-.8,1.1-1.3,1.6l-1.1,1.7h0c-.1.1-.3.2-.4.1s-.2-.3-.1-.4h0l1.2-1.7c.4-.5.9-1.1,1.3-1.6.9-1,2-2,3.1-2.8s2.4-1.4,3.7-1.9c1.5-.3,2.9-.6,4.2-.4q.1-.1,0,0,.1,0,0,0Z"/>
      </g>
      <g class="cls-60">
        <path class="cls-6" d="M187.78,322.7c.3-.4-.5-6-2.3-8.2-2.7-3.3-7.8-4.8-9.3-3.3-1.5,1.6.7,5.3,2.6,7.8,1.9,2.5,7.6,5.4,9,3.7Z"/>
        <path class="cls-41" d="M188.28,324.6c-.4-1.2-1-2.4-1.7-3.5-.7-1.1-1.4-2.2-2.2-3.1-.8-1-1.7-1.9-2.7-2.8s-2-1.6-3.1-2.3h0c-.1,0-.1-.1,0-.2,0-.1.1-.1.2,0,1.1.7,2.2,1.4,3.2,2.3,1,.8,2,1.8,2.8,2.7.9,1,1.7,2,2.4,3.2.7,1.1,1.3,2.3,1.8,3.5.1.2,0,.3-.2.4s-.4,0-.5-.2h0Z"/>
      </g>
      <g class="cls-60">
        <path class="cls-38" d="M185.88,313.5s-2-4.8-7-5.4c-6.7-.9-7.9,2.8-7.9,2.8,0,0,.9,3.1,6.9,3.3,5.4,0,8-.7,8-.7Z"/>
        <path class="cls-54" d="M172.08,310.7c1.5-.2,3-.3,4.5-.2,1.5.1,3,.3,4.5.7,1.5.4,2.9,1,4.2,1.7,1.3.7,2.5,1.7,3.6,2.7.1.1.1.2,0,.3-.1.1-.2.1-.3,0h0c-1.1-1-2.2-2-3.5-2.7s-2.6-1.3-4.1-1.7c-1.4-.4-2.9-.7-4.4-.8-1.5-.1-3-.1-4.5.1,0,0-.1,0,0-.1q-.1,0,0,0Z"/>
      </g>
      <g class="cls-60">
        <path class="cls-40" d="M183.88,323.9s-2.2-.7-2.8-2.7c-.7-2,.1-3.8,1-4.8s2.3-.9,2.9-.6c.7.2,2,1.2,2,1.2,0,0,1-.2,2.3-.7s1.6,0,1.7.1.6,1.2-2,3.7c-2.6,2.6-5.1,3.8-5.1,3.8Z"/>
        <path class="cls-43" d="M183.88,323.1c.1-1.1.5-2.2.9-3.3.5-1,1.1-2,1.9-2.8.1-.1.2-.1.2,0,.1.1.1.2,0,.2h0c-.8.8-1.5,1.7-2,2.7-.4,1-.8,2-1,3.2q.1,0,0,0h0Z"/>
      </g>
      <g class="cls-60">
        <path class="cls-40" d="M190.28,323.6c-.7-.2.3-5.3,2.9-7.8,2.6-2.6,6.2-3,8.4-1,.8.7-1.1,3.4-4.3,5.6-3.5,2.3-6.3,3.4-7,3.2Z"/>
        <path class="cls-43" d="M200.88,315.2c-1.3.1-2.6.6-3.8,1.2-1.2.6-2.3,1.5-3.2,2.4-1,.9-1.8,2-2.5,3.1-.4.6-.7,1.2-1,1.7l-.9,1.8h0c-.1.1-.2.2-.3.1s-.2-.2-.1-.3h0l.9-1.8c.4-.6.7-1.2,1.1-1.7.8-1.1,1.6-2.2,2.6-3.1s2.1-1.8,3.3-2.4c1.2-.6,2.5-1.1,3.9-1,0-.1.1-.1,0,0q.1,0,0,0h0Z"/>
      </g>
      <g id="stem" class="cls-60">
        <path class="cls-62" d="M187.88,333.4c.3-4.9.6-9.9.6-14.8,0-2.5,0-4.9-.2-7.4-.1-1.2-.2-2.5-.3-3.7-.2-1.2-.4-2.4-.7-3.6-.1-.2,0-.4.2-.5s.4,0,.5.2c.4,1.2.7,2.4.9,3.7.2,1.2.3,2.5.4,3.7.2,2.5.3,5,.4,7.5.1,5,0,10-.2,14.9,0,.4-.4.7-.8.7s-.8-.3-.8-.7h0Z"/>
      </g>
      <g>
        <path class="cls-39" d="M181.88,348.1h13l-.4,1.6s0,.1-.2.2c-.1.1-.4.1-.4.1v.3h-11v-.3s-.2,0-.4-.1c-.2-.1-.2-.3-.2-.3l-.4-1.5Z"/>
        <path class="cls-52" d="M182.18,334.1c-.2-.1-.6-.4-.7-.9,0-.4.2-.8.5-1,.6-.5,1.1-.2,1.2-.2.1-.1,0-.4.4-.6.7-.2.8.2.9.2,0,0,.3-.3.8-.3.4,0,.6.2.8.2s.4-.8,1.3-.8c1,0,1.3.6,1.4.6s.2-.7.9-.7.6.5.8.6c.1.1.4-.1.7,0,.5.2.3.4.4.5s.6-.3,1.2,0c.7.3.7.8.8.8s.3-.3.7-.3c.6.1.7.5.7.9,0,.5-.4.9-.6,1.1-2,1.9-10.3,1.1-12.2-.1Z"/>
        <path class="cls-44" d="M183.08,348.1l-1.8-14.1c0-.3.2-.6.5-.6h13.2c.3,0,.5.3.5.6l-1.9,14.1h-10.5Z"/>
      </g>
      <g class="cls-60">
        <path class="cls-43" d="M187.38,300.3c-2.7.6-5.3-1.5-6.3-3.7-1.5-3.3-.8-8.3.8-8.9,3.2-1.1,6.4,3.2,6.7,3.5.9,1,1.6,2.3,2,4,.5,1.9.4,4.4-3.2,5.1Z"/>
        <path class="cls-41" d="M182.78,289.3c1.2,1.8,2.2,3.8,3.1,5.8.9,2,1.7,4.1,2.1,6.3,0,.2-.1.4-.3.4s-.4-.1-.4-.3h0c-.3-2.1-1-4.2-1.8-6.2-.9-2-1.8-4-2.7-6q-.1,0,0,0h0Z"/>
      </g>
      <g class="cls-60">
        <path class="cls-24" d="M189.98,304.1c-1.3-1.2-1.5-3.4,1.4-6.8,2.6-3.1,6.5-4.3,7.4-3.6,1.1.9-.8,4.4-2.5,6.6-2.3,3.1-5.2,4.3-6.3,3.8Z"/>
        <path class="cls-43" d="M188.28,307.5c1-2.6,2.3-5,3.8-7.3s3.4-4.4,5.7-5.9h.1v.1c-2.2,1.6-4,3.7-5.5,6s-2.7,4.7-3.6,7.3h0c0,.1-.2.2-.3.2-.2-.1-.3-.3-.2-.4h0Z"/>
      </g>
      <g class="cls-60">
        <path class="cls-24" d="M186.88,304c.7-.5-1.6-4-1.8-4.2-.6-.8-2.1-2.5-4.7-3.1-2.7-.6-4.6,1.1-4.8,1.7-.6,2.2,9.7,6.8,11.3,5.6Z"/>
        <path class="cls-43" d="M176.38,298.4c1.2-.2,2.4,0,3.6.3s2.2.9,3.3,1.5c1,.7,1.9,1.5,2.8,2.3.4.4.8.9,1.2,1.4l1.1,1.5c.1.1,0,.2,0,.3-.1.1-.2,0-.3,0h0l-1-1.5c-.4-.5-.7-.9-1.1-1.4-.8-.9-1.7-1.7-2.7-2.3-1-.7-2-1.2-3.2-1.6-1.1-.3-2.3-.5-3.5-.4h0q-.2.1-.2-.1c0,.1,0,0,0,0Z"/>
      </g>
      <g class="cls-60">
        <path class="cls-22" d="M184.88,304s-4.2-4.7-3.5-4.8c1.3-.1,4.6,2.3,4.9,2.3.8.2,3.6-1.9,4.7-.1,1,1.9-4.2,2.6-6.1,2.6Z"/>
        <path class="cls-54" d="M185.08,303.5c.1-.9.7-1.6,1.4-2.1h.2c.1,0,0,.1,0,.2h0c-.8.4-1.3,1.1-1.6,1.9h0q.1.1,0,0,0,.1,0,0Z"/>
      </g>
      <g class="cls-60">
        <path class="cls-22" d="M191.58,312.5s-2-.1-3.4-1.2c-1.7-1.4-3.3-4-3.3-4.1s.9-.8,2.1-1.2c1.3-.3,2.8-.3,2.8-.3,0,0,1.2-1.1,2.3-1.3,1.2-.3,2.5-.1,2.5-.1,0,0,0,3.3-.4,4.9-.7,2.3-2.6,3.3-2.6,3.3Z"/>
        <path class="cls-54" d="M191.38,311.3c-.2-.9-.5-1.9-.7-2.8-.1-.5-.3-.9-.4-1.4-.2-.4-.4-.9-.6-1.2h0c-.1-.1-.1-.2,0-.3.1-.1.2-.1.3,0h0c.4.5.5.9.6,1.4s.3.9.4,1.4c.2.9.4,1.9.6,2.9-.1,0-.1.1-.2,0q0,.1,0,0Z"/>
      </g>
    </g>
    <polygon id="door" class="cls-50" points="106.08 237.5 116.18 245.1 116.18 353.9 106.48 368.1 106.08 237.5"/>
    <g id="desk">
      <line class="cls-17" x1="160.48" y1="315.3" x2="216.28" y2="315.3"/>
      <line class="cls-20" x1="152.68" y1="312.4" x2="218.78" y2="312.4"/>
      <polyline class="cls-26" points="180.78 374 176.08 374 176.08 371.4 220.78 371.4 220.78 373.9 216.98 373.9"/>
      <path class="cls-35" d="M199.98,315.6c2.4,2.6,10.8,8.8,11.3,25.3.4,14.5-8.5,28.6-10.4,30.7"/>
      <line class="cls-29" x1="166.98" y1="309.9" x2="183.58" y2="307.5"/>
      <line class="cls-32" x1="180.88" y1="308.1" x2="180.88" y2="310.6"/>
      <line class="cls-28" x1="200.48" y1="309.5" x2="214.78" y2="309.5"/>
      <line class="cls-28" x1="193.78" y1="303.5" x2="200.38" y2="264.5"/>
      <path class="cls-31" d="M198.08,282s4.2-.1,8.1,7.9c1.9,3.7,1.8,8.7,1.8,8.7v11"/>
    </g>
    <g id="chair">
      <path class="cls-11" d="M112.28,370s0-1.9.8-2.8c.8-1,1.7-1,1.7-1h24.9s1.8.1,2.1,1.6c.2,1.2.1,2.2.1,2.2"/>
      <ellipse class="cls-49" cx="112.38" cy="372.3" rx="2.6" ry="2.8"/>
      <ellipse class="cls-46" cx="127.48" cy="372.4" rx="2.6" ry="2.8"/>
      <ellipse class="cls-45" cx="141.98" cy="372.3" rx="2.6" ry="2.8"/>
      <line class="cls-12" x1="127.48" y1="370.1" x2="127.48" y2="349.7"/>
      <line class="cls-8" x1="127.48" y1="341.7" x2="127.48" y2="349.8"/>
      <line class="cls-9" x1="127.48" y1="337" x2="127.48" y2="341.9"/>
      <path class="cls-7" d="M113.38,325.7c-.5.2-2.8,1.4-3.7,4.1-.9,2.8.3,5.7,2.2,7.4.7.6,2.3,1.7,4.5,1.6,2.6-.1,4.2-1.9,4.5-2.2"/>
      <line class="cls-21" x1="116.98" y1="335.9" x2="138.28" y2="335.9"/>
      <path class="cls-23" d="M102.08,296s12,15.6,12.1,37.7"/>
    </g>
    <g id="woman">
      <path class="cls-14" d="M142.68,369.8s-.8-19.2-1-22.6c-.2-3.4,1.1-12.3,4.4-14.3,2.8-1.8-.4-1.9-.4-1.9,0,0-9.8,2.6-13,3.1s-9.6.2-12.3-3c-2.7-3.1,7-9.7,8.5-10s23.8.8,23.8.8c0,0,4.8-.4,3.4,6.5-1.1,6-2.6,2.8-6.4,18.5-3.3,13.6-3.3,22.8-3.3,22.8l-3.7.1Z"/>
      <path class="cls-19" d="M141.78,375.1h19s-.1-2-.6-2.9-1.4-1.2-2.1-1.3c-1-.2-4.5-.4-4.5-.4l-5.7-.2s-.8-2.4-2.9-2.2c-2.2.2-2.7.8-3,2.2-.4,1.5-.2,4.8-.2,4.8Z"/>
      <g>
        <path class="cls-13" d="M132.68,297.6c-.3.3-8.5-5.6-13.3-11.9-3.5-4.6-1.2-12.7,3-17.2.6-.7,2.7-2.8,6-3.6.8-.2,5.4-1.3,8.5,1.4.5.5,2,1.9,2.1,3.6.1,1.1-.5,1-.3,2.2.2,1.1,1.2,1.2,2.9,2.2.5.3.4.7.3,1.2-.2.5-1.1-.1-1.3.5-.2.5.1,1.1-.1,2.1-.2,1-.6.9-1,2.1-.4,1.4.2,1.9-.3,2.3-.9.6-4-.6-6.1,0-1.3.4-2.8,1.5-2.8,5.3,0,5.5,2.5,9.7,2.4,9.8Z"/>
        <path class="cls-30" d="M129.58,280.6s1.7,1.7,3.2,1.8"/>
        <path class="cls-55" d="M137.88,277.6c.7-.1,1.5-.2,2.3-.2.2,0,.4.2.4.4s-.2.4-.4.4h-.1c-.7-.1-1.4-.1-2.2-.1h0c-.1,0-.2-.1-.2-.2,0-.2.1-.3.2-.3Z"/>
        <path class="cls-55" d="M127.98,274.7c.2,0,.1.1,0,0l.1.1v.1l.1.1.2.3c.1.2.2.4.4.4h0c.1,0,.1.1.1.2s-.1.1-.2.1h0c-.1-.1-.2-.2-.3-.3-.1-.1-.1-.2-.2-.3l-.1-.3-.1-.2v-.1h0s-.1,0,0,0v-.1h0Z"/>
        <g>
          <path class="cls-47" d="M134.68,270.2s1.2-.9,3.1-.6"/>
          <path class="cls-47" d="M134.58,270.1c.5-.4,1-.6,1.5-.7.6-.1,1.1-.2,1.7-.1.2,0,.4.2.3.4,0,.2-.2.4-.4.3h-.1c-.5-.1-1-.1-1.5-.1-.5.1-1,.2-1.5.4h0c-.1,0-.2,0-.2-.1.1,0,.1-.1.2-.1Z"/>
        </g>
        <path class="cls-3" d="M134.68,273.2c.1-.2.5-1.4,1.9-1.7.4-.1.8-.1,1.3,0,.4.1.8,1.6,0,1.7-1.7.4-1.2.5-3.2,0Z"/>
        <path class="cls-4" d="M137.68,273c-.1.5-.7.6-1.1.4s-.5-1.1-.5-1.6.7-.7,1.1-.6.6,1.3.5,1.8Z"/>
        <path class="cls-55" d="M134.48,273.2c.2-.7.7-1.4,1.4-1.8.3-.2.7-.3,1.1-.4s.8,0,1.2,0c.2,0,.3.2.3.3,0,.2-.2.3-.3.3h0c-.3-.1-.7-.1-1-.1s-.7.1-1,.2c-.6.3-1.1.9-1.4,1.5h0c0,.1-.1.1-.1.1q-.2,0-.2-.1Z"/>
      </g>
      <path class="cls-18" d="M120.18,331.3s-6.5-5.7-7.1-21.7c-.6-16,2.7-18.2,4.5-19.9,2.7-2.6,10.2,4.6,13.7,6.9,2.4,1.6,2.6,2,2,4.8-.7,3.4-2.8,5.9-3.3,6.8-1.6,2.8-.9,5.3-.6,7,1.4,6.3,2.1,6.4,1.1,7.4-1.7,1.7-2.5,3.1-4.7,4.8-2.2,1.7-5.6,3.9-5.6,3.9Z"/>
      <path class="cls-13" d="M122.08,294.6c2.3-2.7,8.3,2.9,11,4.9,4.2,3.2,5.9,5.9,7,6,6.6.6,21.2.4,25.7-.2,1.1-.1,2-2.2,5.4-1.8,2.3.3,5.4,2.7,5.9,3.5.3.5-.7.7-1.6.7-1.2,0-1.6-.9-2.8-1.2-1.8-.6-2.5.2-3.9,1-1.1.6-3.4-.4-11.3,1.6-5.8,1.5-6.7,2.4-13.3,2.7-7.1.3-14.7-3.8-19.9-7.8-2.7-2.1-4.7-6.3-2.2-9.4Z"/>
      <path class="cls-1" d="M113.18,300.6c-1.9-1.6-2.6-6.4-2.4-8.9.3-3.3,3.3-5.8,4.4-7.9,1.5-3,1.8-5.2,2.3-10.5.4-4.1,3.8-6.6,4.3-7.1.6-.5.5-1.9,2-3,1.3-1,2.7-1.3,5.7-1.2,4.5.1,8.2.1,9.1.8.8.7.5,2.2-.1,2.8-.5.5-2.5.4-3.6.4-3.5,0-4.2-1.6-4.3-1.3-.1.1.2.4.6,1.1s.6,1.4.6,1.8c.3,2.2-2.1,3.1-2.4,4.8-.2,1.2,0,2.3-.2,2.3s-1-1.5-1.7-1.5c-.5,0-1.1.2-1.3.6-.4.7-.2,2.5.9,2.8.3.1,1.3,1.4,1.3,2.4.1,1.7-2,2.9-1.9,5.3.4,7.3,4.8,12.2,4,11.8-.4-.2-5.9-4.5-7.9-5.9-.4-.3-2.6-.9-4.4.3-3.7,2.5-4.1,10.9-5,10.1Z"/>
      <g id="glasses">
        <path class="cls-63" d="M140.18,273.6l-11,1.6c-.2,0-.4-.1-.4-.3s.1-.4.3-.4h0l11.1-1.4c.2,0,.3.1.3.2-.1.1-.2.3-.3.3Z"/>
        <path class="cls-63" d="M140.38,270l.1,4.5c0,.2-.1.3-.3.3s-.3-.1-.3-.3h0v-4.5c0-.2.1-.3.3-.3,0-.1.2.1.2.3Z"/>
      </g>
    </g>
    <polyline id="border" class="cls-36" points="91.38 374.7 91.38 186 240.28 186 240.28 374.3"/>
    <g id="Tree_6" data-name="Tree 6">
      <g>
        <path class="cls-15" d="M75.78,362.2h-23.9s-1.9-.2-2.7-1.3c-.7-.8-.1-2.7-.1-2.7l11.5-35.4s1-3.8,2.9-3.8c1.7,0,2.7,3.7,2.7,3.7l11.6,34.6s.5,2.5.1,3.3c-.8,1.3-2.1,1.6-2.1,1.6Z"/>
        <g class="cls-58">
          <line class="cls-2" x1="63.18" y1="330.3" x2="63.18" y2="376"/>
          <line class="cls-2" x1="68.48" y1="353.2" x2="63.38" y2="358.1"/>
          <line class="cls-2" x1="58.78" y1="350.1" x2="62.98" y2="354.2"/>
          <line class="cls-2" x1="67.28" y1="346.6" x2="63.18" y2="350.6"/>
          <line class="cls-2" x1="59.38" y1="343.3" x2="62.98" y2="346.9"/>
          <line class="cls-2" x1="67.48" y1="339.6" x2="63.28" y2="343.6"/>
          <line class="cls-2" x1="59.88" y1="336.5" x2="63.08" y2="339.6"/>
          <line class="cls-2" x1="65.08" y1="333.7" x2="63.28" y2="335.4"/>
        </g>
      </g>
      <g>
        <path class="cls-16" d="M52.68,360h-27.4s-2.1-.2-3.1-1.5c-.7-1-.2-3.2-.2-3.2l13.2-41.7s1.1-4.5,3.3-4.4c2,0,3.1,4.3,3.1,4.3l13.2,40.7s.6,2.9.1,3.9c-.8,1.5-2.2,1.9-2.2,1.9Z"/>
        <g class="cls-59">
          <line class="cls-5" x1="38.28" y1="322.3" x2="38.28" y2="376.2"/>
          <line class="cls-5" x1="44.28" y1="349.3" x2="38.48" y2="355.1"/>
          <line class="cls-5" x1="33.28" y1="345.7" x2="38.08" y2="350.5"/>
          <line class="cls-5" x1="42.98" y1="341.6" x2="38.28" y2="346.3"/>
          <line class="cls-5" x1="33.88" y1="337.7" x2="38.08" y2="341.9"/>
          <line class="cls-5" x1="43.18" y1="333.3" x2="38.48" y2="338"/>
          <line class="cls-5" x1="34.48" y1="329.7" x2="38.08" y2="333.3"/>
          <line class="cls-5" x1="40.38" y1="326.3" x2="38.38" y2="328.3"/>
        </g>
      </g>
    </g>
    <rect class="cls-63" x="21.78" y="375" width="221.3" height="5"/>
  </g>
</svg>