<?xml version="1.0" encoding="utf-8"?>
<!-- Generator: Adobe Illustrator 24.0.3, SVG Export Plug-In . SVG Version: 6.00 Build 0)  -->
<svg version="1.1" id="Layer_1" xmlns="http://www.w3.org/2000/svg" xmlns:xlink="http://www.w3.org/1999/xlink" x="0px" y="0px"
	 viewBox="0 0 800 800" style="enable-background:new 0 0 800 800;" xml:space="preserve">
<style type="text/css">
	.st0{fill:#999999;}
	.st1{font-family:'SourceSansPro-Regular';}
	.st2{font-size:51.0236px;}
	
		.st3{fill-rule:evenodd;clip-rule:evenodd;fill:none;stroke:#000000;stroke-width:11.3386;stroke-linecap:round;stroke-linejoin:round;stroke-miterlimit:10;}
	.st4{fill:none;stroke:#000000;stroke-width:19.8425;stroke-linecap:round;stroke-linejoin:round;stroke-miterlimit:10;}
	
		.st5{fill:none;stroke:#000000;stroke-width:25.5118;stroke-linecap:square;stroke-miterlimit:10;stroke-dasharray:28.3465,73.7008,85.0394,59.5276,48.189,53.8583;}
	.st6{fill:none;stroke:#000000;stroke-width:5.6693;stroke-linecap:square;stroke-miterlimit:10;}
</style>
<g>
	<polygon points="478.5,773.6 272.4,729.8 271.5,702.4 533.4,642.6 533.4,655.4 313.5,598.8 313.1,587.3 487.6,531.6 487.3,540.3 
		328.9,475.8 326,474.7 328.3,469.1 331.1,470.2 490.7,531.7 490.4,540.4 316.9,598.7 316.5,587.2 536.6,642.6 536.6,655.4 
		278.5,729.6 277.6,702.2 485.5,736.4 504.2,739.5 497,777.5 	"/>
</g>
<g>
	<polygon points="437.7,358 482,471.8 473.1,471.5 546.3,306.4 558.2,307.8 602,534.7 588,534.3 638.9,327 654.9,326.2 725.3,502.9 
		696.1,504.9 734.9,305.2 738.4,287 775.3,294.8 771.1,312.8 725.9,511.1 696.7,513.1 639.1,331.8 655.1,331 602,537.7 588,537.3 
		545.8,310.2 557.7,311.6 481.9,475.5 473,475.2 432.3,360 431.3,357.3 436.7,355.3 	"/>
</g>
<g>
	<polygon points="24.8,515.2 60.4,316.2 85.1,313.9 141.1,485.6 120.6,486.4 169,307.3 182.8,306.8 244.9,507.8 233.9,508.4 
		274.3,317.3 281.2,315.9 348.8,421 350.3,423.3 345.7,426.4 344.2,424 274.8,320.1 281.7,318.7 245.1,510.6 234.1,511.2 
		169.2,311.2 183,310.7 141.4,491.6 120.9,492.4 60.9,322.1 85.6,319.8 63.2,520.8 61,540 21.4,534.3 	"/>
</g>
<g>
	<polygon points="358.6,346.4 470,297.1 470.1,306.9 272.8,231.8 273.1,220.1 486.7,150.9 487,165.2 289.3,112.6 287,94.3 
		415.8,15.5 428.1,8 442.9,33.7 430.2,40.5 297,111.7 294.7,93.4 491,150.8 491.3,165.1 276.9,231.9 277.2,220.2 473.9,297.1 
		474,306.9 360.4,350.6 358.3,351.4 356.6,347.3 	"/>
</g>
<text transform="matrix(1 0 0 1 632.0336 778.6772)" class="st0 st1 st2">angry</text>
</svg>
