<?xml version="1.0" encoding="utf-8"?>
<!-- Generator: Adobe Illustrator 24.0.3, SVG Export Plug-In . SVG Version: 6.00 Build 0)  -->
<svg version="1.1" id="Layer_1" xmlns="http://www.w3.org/2000/svg" xmlns:xlink="http://www.w3.org/1999/xlink" x="0px" y="0px"
	 viewBox="0 0 800 800" style="enable-background:new 0 0 800 800;" xml:space="preserve">
<style type="text/css">
	.st0{fill:#999999;}
	.st1{font-family:'SourceSansPro-Regular';}
	.st2{font-size:51.0236px;}
	
		.st3{fill-rule:evenodd;clip-rule:evenodd;fill:none;stroke:#000000;stroke-width:11.3386;stroke-linecap:round;stroke-linejoin:round;stroke-miterlimit:10;}
	.st4{fill:none;stroke:#000000;stroke-width:19.8425;stroke-linecap:round;stroke-linejoin:round;stroke-miterlimit:10;}
	
		.st5{fill:none;stroke:#000000;stroke-width:25.5118;stroke-linecap:square;stroke-miterlimit:10;stroke-dasharray:28.3465,73.7008,85.0394,59.5276,48.189,53.8583;}
	.st6{fill:none;stroke:#000000;stroke-width:5.6693;stroke-linecap:square;stroke-miterlimit:10;}
</style>
<text transform="matrix(1 0 0 1 571.0115 778.2556)" class="st0 st1 st2">confused</text>
<g>
	<path d="M751.4,693.9c-22.9-6.2-45.5-13.8-67.6-22.5c-22.1-8.7-43.9-18.3-65-29.2c-10.6-5.5-20.9-11.3-31.1-17.3
		c-5.1-3.1-10.2-6.1-15.2-9.3c-2.5-1.6-5-3.1-7.5-4.7l-7.5-4.8c-9.9-6.4-19.8-12.9-29.6-19.6c-9.8-6.6-19.5-13.3-29.1-20.2
		c-4.8-3.5-9.6-6.9-14.3-10.4c-2.4-1.8-4.8-3.5-7.1-5.3l-7-5.4c-4.7-3.6-9.3-7.3-14-10.9c-4.6-3.7-9.2-7.4-13.7-11.2
		c-4.5-3.8-9.1-7.6-13.5-11.4c-2.2-1.9-4.5-3.8-6.7-5.8l-6.6-5.9c-8.8-7.9-17.4-16-25.8-24.4c-16.8-16.7-32.7-34.3-47.8-52.6
		C327.1,404.9,312.9,386,299,367c-6.9-9.5-13.9-18.9-21-28.2c-7.1-9.2-14.4-18.3-22.3-26.6c-7.9-8.4-16.4-16-25.9-21.8
		c-4.8-2.9-9.8-5.3-15-7c-5.2-1.7-10.6-2.9-16.1-3.2c-2.7-0.2-5.5-0.2-8.2-0.1c-2.8,0.2-5.5,0.4-8.2,0.8c-5.5,0.8-10.9,2.2-16.2,4.1
		c-10.5,3.8-20.4,9.4-29.5,16.1c-9.1,6.7-17.3,14.6-24.7,23c-7.5,8.4-14.2,17.5-20.4,26.8c-6.2,9.3-11.8,19-16.9,29
		c-5,10-9.5,20.2-13.2,30.7c-7.4,21-12.2,42.9-13,65.3c-0.4,11.2,0.2,22.3,2,33.5c1.7,11.2,4.6,22.2,8.4,33
		c3.8,10.7,8.5,21.2,14.2,31.1c5.6,9.9,12.2,19.3,19.6,27.9c7.4,8.6,15.8,16.4,25,23c9.2,6.6,19.3,11.9,30.1,15.6
		c5.4,1.8,10.9,3.3,16.5,4.3c5.6,1,11.3,1.6,17,1.8c11.4,0.4,22.9-0.8,34.1-3.3c22.5-5.1,43.8-15.1,63.2-27.7
		c19.5-12.7,37.1-28.2,52.3-45.7c7.6-8.7,14.7-18,21.2-27.5s12.3-19.5,17.5-29.7c2.6-5.1,5-10.4,7.4-15.6c2.4-5.3,4.5-10.6,6.6-16
		c4.1-10.8,7.5-21.7,10.4-32.8c5.7-22.2,8.8-44.9,10.8-67.8c1-11.5,1.7-23,2.5-34.6c0.7-11.6,1.4-23.3,2.3-35.1
		c0.9-11.8,2.1-23.7,3.9-35.6c1.8-11.9,4.2-23.8,7.2-35.5c3.1-11.7,6.7-23.3,10.9-34.6l1.6-4.2l1.7-4.3c1.2-2.9,2.5-5.7,3.8-8.5
		c2.7-5.6,5.7-11,9.1-16.1c13.3-20.7,31.4-38,52.3-50.9c10.4-6.5,21.6-11.9,33.2-16.4c5.8-2.2,11.7-4.2,17.7-6
		c6-1.7,12.1-3.2,18.3-4.4c12.4-2.4,25.1-3.7,38-3.7c6.4,0,12.9,0.3,19.3,1c3.2,0.3,6.5,0.8,9.7,1.3c1.6,0.3,3.2,0.5,4.9,0.9
		c1.6,0.3,3.3,0.7,4.9,1c6.5,1.6,13,3.6,19.3,6c6.3,2.5,12.4,5.4,18.4,8.7c5.9,3.3,11.6,7,17,11.1c5.4,4.1,10.5,8.5,15.3,13.2
		c9.6,9.4,18,20,24.8,31.3c6.9,11.3,12.3,23.3,16.4,35.6c4.1,12.3,6.8,24.9,8.5,37.4c1.8,12.5,2.3,25.2,2.7,37.1
		c0.3,12.1,0.4,24.2,0.3,36.2c-0.1,12-0.2,24-0.6,35.9c-1.1,23.9-3.5,47.7-8.1,71.2c-2.3,11.8-5.1,23.4-8.7,34.9
		c-3.6,11.5-7.9,22.8-13.3,33.6c-5.4,10.8-12,21.2-20.2,30.3c-4.1,4.6-8.7,8.8-13.6,12.4c-1.2,1-2.5,1.8-3.8,2.7
		c-1.3,0.8-2.6,1.7-3.9,2.4c-2.6,1.5-5.3,2.9-8,4.3c-10.8,5.4-22.4,9.3-34.2,11.7c-11.9,2.3-24.1,3-36.1,1.7
		c-12-1.3-23.9-4.5-34.8-9.9c-10.9-5.3-20.8-12.8-29-21.7c-8.2-8.9-14.7-19.3-19.6-30.3c-4.9-11-8.3-22.6-10.7-34.3
		c-2.4-11.7-4.1-23.6-4.3-35.7c-0.2-12.1,1.1-24.5,5.5-36.5c2.2-5.9,5.1-11.7,9-16.9c3.8-5.2,8.5-10,13.8-13.8
		c10.6-7.8,23.5-12,36.3-13.2c12.8-1.2,25.6,0.4,37.6,4.3c12.4,4,23.1,11.2,32.3,19.5c4.5,4.2,8.7,8.7,12.6,13.5
		c3.8,4.8,7.3,9.8,10.5,14.9c6.4,10.3,11.5,21.4,15,33c3.4,11.6,5.1,23.7,5.2,35.8c0.1,12.1-1.6,24.2-4.8,35.8
		c-3.1,11.7-7.8,22.8-13.5,33.4c-2.8,5.3-6,10.4-9.3,15.4c-1.6,2.5-3.4,4.9-5.2,7.3c-1.8,2.4-3.6,4.8-5.5,7.1
		c-3.7,4.7-7.7,9.1-11.8,13.5c-4.1,4.3-8.4,8.6-12.6,12.6c-8.4,8.2-16.6,16.6-24.8,25c-8.2,8.4-16.2,17-24.3,25.5
		c-8.1,8.5-16.4,17-25.1,25.2c-8.7,8.1-18,15.8-27.9,22.7c-9.9,6.9-20.3,13-30.9,18.6c-21.2,11-43.9,20.3-67.9,25.2
		c-24,5-49.2,5.5-73.5,1c-1.5-0.2-3-0.6-4.5-0.9c-1.5-0.3-3-0.6-4.5-1c-3-0.7-6-1.4-8.9-2.3c-5.9-1.6-11.8-3.5-17.5-5.6
		c-11.5-4.2-22.5-9.3-33.2-15c-5.3-2.8-10.5-5.8-15.7-8.9c-2.6-1.5-5.2-3.2-7.8-4.9c-2.5-1.8-5.1-3.5-7.5-5.4
		c-9.8-7.5-18.7-16.1-26.5-25.6c-15.5-19-26.1-41.4-32.2-64.6c-6.1-23.3-7.4-47.6-5.3-71.3c1-11.9,2.9-23.7,5.5-35.3
		c2.6-11.6,5.8-23.1,9.8-34.4c4-11.2,8.6-22.3,13.8-32.9c5.2-10.7,11-21.1,17-31.3c12-20.4,24.8-40.1,35.2-60.8
		c5.2-10.3,9.8-20.9,13.7-31.8c3.9-10.8,7-21.9,9.4-33.2c1.2-5.6,2.2-11.3,3.1-17c0.4-2.8,0.8-5.7,1.2-8.6c0.4-2.9,0.6-5.6,0.8-8.5
		c0.8-11.2,0.3-22.6-1.2-33.8c-1.6-11.2-4.2-22.2-8-32.8c-3.8-10.6-8.7-20.7-14.8-30c-6.1-9.3-13.3-17.7-21.7-24.6
		c-8.4-7-17.8-12.2-28.1-16c-10.3-3.8-21.2-6.2-32-7c-10.8-0.8-21.7,0-31.8,2.8c-10.1,2.8-19.3,7.7-26.9,14.6
		c-7.6,6.9-13.4,15.5-17.1,25.1c-3.7,9.6-5.4,20.1-5.5,30.8c-0.1,5.3,0.3,10.7,1,16.1c0.3,2.7,0.8,5.3,1.3,8
		c0.3,1.3,0.5,2.6,0.8,3.9l0.5,1.9c0.2,0.6,0.3,1.3,0.5,1.6l3.6,11l-22.7,6.6l-3-11.2c-0.3-1.1-0.5-1.8-0.6-2.6l-0.5-2.4
		c-0.3-1.6-0.6-3.2-0.9-4.8c-0.5-3.2-0.9-6.3-1.2-9.5c-0.6-6.3-0.8-12.7-0.5-19.2c0.6-12.8,3-25.8,8.2-38c2.6-6.1,5.9-12,9.8-17.4
		c3.9-5.4,8.5-10.3,13.5-14.7c5.1-4.3,10.7-8.1,16.6-11.1c5.9-3,12.2-5.3,18.5-6.9c12.7-3.2,25.7-3.7,38.2-2.4
		c12.6,1.3,24.8,4.4,36.5,9c5.8,2.3,11.5,5.1,17,8.4c5.5,3.3,10.6,7,15.4,11.2c9.6,8.3,17.6,18.1,24.2,28.7
		c6.6,10.6,11.7,21.9,15.6,33.5c3.9,11.7,6.5,23.7,7.9,35.8c1.4,12.1,1.7,24.4,0.5,36.6c-0.3,3-0.7,6.1-1.1,9.1
		c-0.4,3-0.9,5.9-1.4,8.9c-1,5.9-2.2,11.8-3.6,17.7c-2.8,11.7-6.3,23.2-10.6,34.5c-4.3,11.2-9.4,22.1-15,32.6
		c-11.2,21.1-24.6,40.6-36.9,60.5c-12.4,19.8-23.3,40.4-31.3,62.2c-7.9,21.8-13.2,44.7-15.2,67.8c-2,23.1-0.5,46.5,5.6,68.7
		c3.1,11.1,7.4,21.8,13,31.7c5.6,9.9,12.5,19.1,20.5,27.1c7.9,8,16.9,15,26.4,20.9c4.8,2.9,9.7,5.6,14.8,8c5.2,2.6,10.4,5,15.6,7.4
		c20.9,9.4,42.3,17.2,64.3,21.5c22,4.4,44.5,5.1,66.9,2.1c11.2-1.5,22.3-4,33.3-7.3l4.1-1.2l4.1-1.4c1.4-0.5,2.7-0.9,4.1-1.4l4-1.5
		c5.4-2,10.7-4.3,16-6.6c10.5-4.8,20.7-10.2,30.3-16.5c9.6-6.2,18.6-13.5,27.3-21.1c8.7-7.7,17-15.9,25.3-24.2l24.9-25.1
		c8.3-8.3,16.8-16.6,25.3-24.7c4.3-4.1,8.5-8,12.5-12.2c4-4.2,7.9-8.5,11.6-13c1.9-2.2,3.6-4.5,5.4-6.8c1.7-2.3,3.4-4.6,5-7.1
		c3.3-4.8,6.3-9.7,9.1-14.7c5.5-10.1,9.9-20.8,12.9-31.9c3-11.1,4.5-22.5,4.4-34c-0.1-11.4-1.9-22.8-5.2-33.8
		c-3.4-10.9-8.2-21.4-14.6-30.8c-3.2-4.7-6.9-9.1-10.8-13.1c-3.9-4.1-8.3-7.7-12.8-11c-4.5-3.2-9.3-6.1-14.2-8.5
		c-2.4-1.2-5-2.2-7.5-3.2c-2.5-0.9-5.1-1.7-7.6-2.4c-10.6-2.6-21.5-3.9-32.2-3.2c-10.6,0.8-21,3.7-29.8,9.3
		c-8.8,5.5-16,13.8-20.6,23.6c-4.7,9.9-7.1,21.1-7.7,32.4c-0.7,11.4,0.3,23,2.4,34.4c2,11.4,5.3,22.6,10.1,33
		c4.7,10.5,11,20.2,18.7,28.6c7.8,8.4,17.1,15.3,27.3,20.2c10.3,4.9,21.4,7.9,32.8,9c11.4,1.1,22.9,0.3,34.1-2.1
		c11.2-2.4,22-6.3,32.2-11.6c2.5-1.3,5-2.7,7.4-4.2c1.2-0.7,2.4-1.5,3.5-2.3c1.1-0.8,2.3-1.6,3.4-2.5c4.4-3.4,8.4-7.4,12.1-11.7
		c7.3-8.6,13.1-18.5,17.8-28.9c4.7-10.4,8.4-21.3,11.3-32.5c2.9-11.1,5.1-22.5,6.7-34c3.2-22.9,4.2-46.1,3.7-69.3
		c-0.3-11.6-0.9-23.1-2.2-34.6c-1.3-11.5-3.3-22.9-5.8-34.2c-2.5-11.4-5.5-22-9.4-32.4c-3.9-10.3-8.4-20.2-13.5-29.6
		c-5.1-9.4-10.6-18.3-16.7-26.7c-6-8.4-12.6-16.2-19.6-23.4c-14.1-14.4-30.7-25.9-49.5-33.7c-4.6-1.9-9.7-3.7-14.8-5.2
		c-5.1-1.5-10.3-2.9-15.6-4c-10.6-2.3-21.5-3.6-32.5-3.8c-11-0.3-22.2,0.6-33.2,2.8c-11,2.2-21.7,5.7-31.8,10.7
		c-10.1,4.9-19.6,11.2-28,18.8c-8.3,7.6-15.5,16.5-20.9,26.3c-2.7,4.9-5,10-6.9,15.3c-1,2.6-1.8,5.3-2.5,8c-0.4,1.4-0.7,2.7-1,4.1
		l-1,4.2c-2.5,11.2-4.2,22.6-5.5,34c-1.3,11.4-2.1,22.9-2.8,34.4l-2,34.8c-1.5,23.3-3,47.1-6.7,70.9c-3.6,23.8-9.4,47.5-17.5,70.3
		c-4,11.4-8.6,22.6-13.7,33.5c-5.1,10.9-10.6,21.6-16.7,32c-12.3,20.8-27.5,39.6-44.3,56.6c-16.8,17-35,32.4-55,45.4
		c-20,12.9-41.9,23.4-65.3,29c-11.7,2.8-23.8,4.2-35.9,4.1c-12.1-0.2-24.3-2-35.9-5.6c-11.6-3.6-22.7-9-32.9-15.7
		c-10.2-6.7-19.4-14.7-27.7-23.6c-16.6-17.8-29.2-38.9-38.6-61.3c-4.7-11.2-8.6-22.8-11.6-34.7c-3-11.9-4.9-24.2-5.6-36.6
		c-0.7-12.4-0.2-24.8,1.5-37.1c0.8-6.2,2-12.3,3.4-18.3c1.4-6,3.1-12,5-17.9c7.8-23.5,19.5-45.7,35-65
		c15.5-19.3,34.4-35.7,55.5-48.1c10.6-6.2,21.8-11.4,33.7-15c11.8-3.5,24.3-5.4,36.9-4.3c6.3,0.5,12.5,1.9,18.4,3.9
		c5.9,2,11.6,4.7,16.9,7.9c10.6,6.4,19.8,14.5,28.3,23c8.5,8.5,16.2,17.6,23.8,26.8c7.5,9.2,14.7,18.5,21.9,27.9
		c14.3,18.7,28.4,37.4,43,55.7c7.3,9.1,14.7,18.2,22.2,27.1c7.5,8.9,15.2,17.7,23.1,26.4c15.7,17.3,32.2,33.9,49.6,49.6
		c2.1,2,4.4,3.9,6.6,5.8l6.6,5.8l6.8,5.6c2.3,1.9,4.5,3.8,6.8,5.5l6.9,5.4c2.3,1.8,4.7,3.5,7,5.3c4.7,3.6,9.4,7,14.2,10.4
		c4.8,3.4,9.6,6.7,14.5,9.9c4.9,3.2,9.8,6.4,14.9,9.4c10,6.1,20.2,11.8,30.6,17.3c10.4,5.4,21,10.5,31.6,15.3
		c10.6,4.8,21.4,9.5,32.1,14c10.8,4.5,21.5,8.9,32.4,13.2c10.8,4.2,21.7,8.3,32.7,12.3c21.9,7.9,44.1,15.1,66.3,22.1l8.9,2.8
		l-5.1,17.5L751.4,693.9z"/>
</g>
</svg>
