<?xml version="1.0" encoding="utf-8"?>
<!-- Generator: Adobe Illustrator 24.0.3, SVG Export Plug-In . SVG Version: 6.00 Build 0)  -->
<svg version="1.1" id="Layer_1" xmlns="http://www.w3.org/2000/svg" xmlns:xlink="http://www.w3.org/1999/xlink" x="0px" y="0px"
	 viewBox="0 0 800 800" style="enable-background:new 0 0 800 800;" xml:space="preserve">
<style type="text/css">
	
		.st0{fill-rule:evenodd;clip-rule:evenodd;fill:none;stroke:#000000;stroke-width:11.3386;stroke-linecap:round;stroke-linejoin:round;stroke-miterlimit:10;}
	.st1{fill:#999999;}
	.st2{font-family:'SourceSansPro-Regular';}
	.st3{font-size:51.0236px;}
	.st4{fill:none;stroke:#000000;stroke-width:19.8425;stroke-linecap:round;stroke-linejoin:round;stroke-miterlimit:10;}
	
		.st5{fill:none;stroke:#000000;stroke-width:25.5118;stroke-linecap:square;stroke-miterlimit:10;stroke-dasharray:28.3465,73.7008,85.0394,59.5276,48.189,53.8583;}
	.st6{fill:none;stroke:#000000;stroke-width:5.6693;stroke-linecap:square;stroke-miterlimit:10;}
</style>
<text transform="matrix(1 0 0 1 544.6077 775.2394)" class="st1 st2 st3">discomfort</text>
<g>
	<path d="M27.9,458.8c2-1,4.3-2.8,6.4-5c2.1-2.2,4.1-4.8,6-7.4c1.9-2.7,3.6-5.5,5.4-8.4c1.7-2.9,3.4-5.8,4.9-8.9
		c6.3-12,11.8-24.7,17.2-37.3c5.4-12.7,10.6-25.5,15.9-38.3c5.4-12.8,10.8-25.6,17.3-38c3.3-6.2,6.7-12.4,10.7-18.3
		c4-5.9,8.5-11.7,13.9-16.9c2.7-2.6,5.7-5,9-7.1c3.3-2.1,7-3.9,10.9-5.1c3.9-1.2,8.2-1.8,12.3-1.6c4.2,0.1,8.3,1.1,12.1,2.6
		c1.9,0.8,3.7,1.6,5.4,2.6c1.7,1,3.3,2,4.9,3.2c3.1,2.3,5.8,4.8,8.4,7.4c5.1,5.3,9.3,11.1,13.2,16.9c7.7,11.8,14.4,23.9,21.6,35.7
		l21.2,35.5c7.1,11.8,14.5,23.4,22.3,34.7c7.7,11.2,15.9,22.2,24.9,31.8c4.5,4.8,9.2,9.2,14.1,12.8c2.5,1.8,5,3.4,7.5,4.6
		c2.5,1.3,5,2.2,7.5,2.7c2.5,0.5,4.9,0.6,7.2,0.3c0.6-0.1,1.2-0.2,1.8-0.3l0.9-0.2c0.2,0,0.2-0.1,0.2-0.1c0,0,0.1,0,0.1,0
		c0.3-0.1,1.1-0.5,1.9-1.1c1.7-1.2,3.8-3.3,5.8-5.5c2-2.2,4-4.7,6-7.3c4-5.1,8-10.6,11.7-16.3c3.8-5.6,7.3-11.5,10.9-17.4
		c7.1-11.8,14.3-23.6,21.6-35.4c7.3-11.8,14.5-23.6,21.8-35.4c3.7-5.9,7.4-11.8,11.1-17.7c3.8-5.9,7.6-11.8,11.7-17.5
		c4.1-5.7,8.5-11.4,13.2-16.8c4.8-5.4,9.8-10.6,15.2-15.6c5.4-5,11.4-9.8,18-13.9c6.6-4,14-7.3,21.9-9.2c2-0.4,4-0.9,6-1.2
		c2-0.3,4-0.5,6.1-0.6c2-0.1,4.1-0.1,6.1-0.1c2.5,0.1,5.1,0.3,7.5,0.9c5,1,9.6,3,13.6,5.5c2,1.2,3.8,2.6,5.5,4
		c1.7,1.4,3.3,2.8,4.8,4.4c5.9,6.1,10.2,12.6,13.8,19.2c3.6,6.6,6.5,13.3,9.1,20c5.1,13.4,9,26.9,12.7,40.3
		c3.7,13.4,7.3,26.8,11.2,40c4,13.2,8,26.4,13.5,38.9c2.8,6.3,5.9,12.4,9.3,18.2c3.4,5.9,7,11.5,11,16.7c1.9,2.6,3.9,5.1,6,7.3
		c1,1.1,2,2.2,3.1,3.2c1.1,1,2.1,1.9,3.1,2.7c2.1,1.6,4.1,2.8,5.9,3.4c0.9,0.3,1.8,0.5,2.6,0.6l0.6,0.1l0.7,0c0.6,0,1.1,0,1.6-0.1
		c2.2-0.2,4.3-0.8,6.4-1.8c2.1-1,4.3-2.5,6.4-4.3c4.2-3.6,8.1-8.4,11.6-13.7c3.6-5.3,6.8-11,9.9-16.9c3.1-5.9,6-12,8.8-18.2
		c5.6-12.4,10.7-25.2,15.5-38.1c4.8-12.9,9.4-25.9,14.1-39c4.7-13,9.4-26,15-38.9c2.8-6.4,5.9-12.8,9.6-19
		c3.8-6.2,8.1-12.3,14.6-17.6l0.3-0.2c2.8-2.3,6.9-1.8,9.2,1s1.8,6.9-1,9.2c-0.5,0.4-1.1,0.7-1.7,1c-1.3,0.5-2.6,1.2-3.8,2
		c-1.2,0.8-2.5,1.8-3.7,2.8c-2.4,2-4.6,4.4-6.6,6.9c-4.1,5.1-7.6,10.9-10.8,16.9c-6.3,12-11.1,24.9-15.3,38
		c-4.2,13.1-7.9,26.3-11.5,39.7c-3.6,13.3-7.1,26.8-11.2,40.2c-4.2,13.4-8.8,26.8-16.1,39.8c-3.7,6.5-8,12.8-14,18.6
		c-3,2.8-6.5,5.5-10.5,7.6c-4,2.1-8.6,3.5-13.3,4c-1.2,0.1-2.3,0.2-3.5,0.2c-0.6,0-1.3,0-1.9-0.1c-0.6,0-1.3-0.1-1.9-0.2
		c-2.6-0.3-5.1-1-7.4-2c-4.6-1.9-8.3-4.7-11.4-7.7c-3.1-3-5.5-6.2-7.6-9.4c-1-1.6-2-3.3-2.9-4.9c-0.9-1.7-1.7-3.3-2.5-5
		c-3.1-6.7-5.5-13.4-7.7-20.2c-2.2-6.7-4.2-13.4-6.3-20c-4.2-13.3-8.9-26.2-13.8-39.1c-4.8-12.9-10-25.7-15.6-38.2
		c-5.7-12.5-11.7-24.7-18.5-36.2c-1.7-2.9-3.4-5.7-5.2-8.4c-1.8-2.7-3.6-5.4-5.4-7.9c-1.9-2.5-3.8-5-5.8-7.2c-2-2.2-4-4.3-6-6
		c-2-1.7-4.1-3.2-6.1-4.2c-2-1-3.8-1.6-5.6-1.9c-0.9-0.1-1.8-0.2-2.7-0.2c-1.4,0-2.8,0-4.2,0.1c-1.4,0.1-2.8,0.2-4.2,0.3
		c-1.4,0.1-2.8,0.3-4.2,0.5c-5.6,0.8-11.4,2.2-17.1,4.1c-5.8,1.9-11.6,4.5-17.2,7.7c-5.6,3.2-10.9,7.1-16,11.4
		c-5.1,4.3-9.9,8.9-14.6,13.8c-9.5,9.7-18.1,20.4-25.5,31.8c-7.5,11.4-14.2,23.4-20.3,35.7c-6.1,12.3-11.8,24.8-17.9,37.3l-9.1,18.8
		c-3.1,6.3-6.2,12.7-9.9,18.9c-1.8,3.1-3.9,6.2-6.3,9.3c-1.2,1.5-2.5,3.1-4,4.5c-1.5,1.5-3.1,3-5,4.4c-1.9,1.4-4.2,2.8-7.2,3.7
		c-0.4,0.1-0.8,0.2-1.1,0.3c-0.4,0.1-0.8,0.2-1,0.2l-1.6,0.3c-1.1,0.2-2.2,0.3-3.4,0.4c-4.5,0.3-9.1-0.1-13.3-1.2
		c-4.2-1.1-8.1-2.9-11.7-4.9c-3.5-2.1-6.7-4.4-9.6-7c-5.8-5.1-10.6-10.7-15-16.4c-8.7-11.5-15.6-23.8-22.2-36.1
		c-6.5-12.3-12.6-24.7-18.8-37c-6.2-12.3-12.6-24.5-19.5-36.4c-6.9-11.9-14.8-23.2-24-33.2c-4.6-5-9.4-9.6-14.5-13.7
		c-5.1-4-10.4-7.4-15.8-9.2c-5.4-1.9-10.8-2.1-16.2-0.5c-5.3,1.6-10.4,4.9-15.1,9.1c-4.7,4.2-9,9.1-13,14.4
		c-4,5.3-7.7,10.9-11.2,16.7c-7,11.6-13.2,23.8-18.9,36.2c-5.7,12.5-11,25.2-16.1,38c-5.1,12.8-10.1,25.7-15.6,38.6
		c-1.4,3.2-2.8,6.4-4.3,9.6c-1.5,3.2-3.1,6.4-4.8,9.6c-1.7,3.2-3.6,6.4-5.8,9.5c-2.2,3.1-4.8,6.3-8.5,9.2l-0.4,0.3
		c-3.3,2.5-8,2-10.5-1.3s-2-8,1.3-10.5C26.9,459.3,27.4,459,27.9,458.8z"/>
</g>
<g>
	<polygon points="628.8,348.5 710.8,80.8 716.8,61.2 757.6,76.5 749.2,95.2 634.2,350.5 633,353.2 627.9,351.3 	"/>
</g>
<g>
	<polygon points="485,383.1 629.9,660.4 641,681.7 594.1,702.2 586.1,679.6 481,384.9 480.3,382.8 484,381.2 	"/>
</g>
<g>
	<polygon points="340.3,351.4 178.4,86.9 167.4,68.9 206.7,47.9 215.6,67.1 345.7,348.6 347,351.3 341.9,354.1 	"/>
</g>
<g>
	<polygon points="62.2,689 192.1,382.2 194.1,377.3 203.5,380.8 201.9,385.8 99.8,703 93.6,722.1 54.4,707.5 	"/>
</g>
</svg>
