<?xml version="1.0" encoding="utf-8"?>
<!-- Generator: Adobe Illustrator 24.0.3, SVG Export Plug-In . SVG Version: 6.00 Build 0)  -->
<svg version="1.1" id="Layer_1" xmlns="http://www.w3.org/2000/svg" xmlns:xlink="http://www.w3.org/1999/xlink" x="0px" y="0px"
	 viewBox="0 0 800 800" style="enable-background:new 0 0 800 800;" xml:space="preserve">
<style type="text/css">
	.st0{fill:#999999;}
	.st1{font-family:'SourceSansPro-Regular';}
	.st2{font-size:51.0236px;}
	
		.st3{fill-rule:evenodd;clip-rule:evenodd;fill:none;stroke:#000000;stroke-width:11.3386;stroke-linecap:round;stroke-linejoin:round;stroke-miterlimit:10;}
	.st4{fill:none;stroke:#000000;stroke-width:19.8425;stroke-linecap:round;stroke-linejoin:round;stroke-miterlimit:10;}
	
		.st5{fill:none;stroke:#000000;stroke-width:25.5118;stroke-linecap:square;stroke-miterlimit:10;stroke-dasharray:28.3465,73.7008,85.0394,59.5276,48.189,53.8583;}
	.st6{fill:none;stroke:#000000;stroke-width:5.6693;stroke-linecap:square;stroke-miterlimit:10;}
</style>
<text transform="matrix(1 0 0 1 635.2794 771.0623)" class="st0 st1 st2">sad</text>
<g>
	<path d="M430,108.9c5.9,1.5,12.6,2.6,19.3,3.5c3.3,0.5,6.7,0.8,10.1,1.2c3.4,0.3,6.8,0.7,10.2,1c13.6,1.1,27.3,1.9,40.9,2.2
		c13.7,0.3,27.3,0.2,40.8-0.5c3.4-0.2,6.6-0.4,9.8-0.8c1.6-0.2,3.2-0.4,4.8-0.6l2.4-0.4l2.3-0.5c6.2-1.2,12.2-3.1,17.6-5.6
		c2.7-1.3,5.1-2.7,7.3-4.3c2.1-1.6,3.9-3.4,4.9-5c0.1-0.2,0.2-0.4,0.3-0.6c0.1-0.2,0.2-0.4,0.3-0.5c0.1-0.2,0.1-0.3,0.2-0.5
		c0-0.1,0.1-0.3,0.1-0.4c0.1-0.5,0.1-0.8,0.1-0.9c-0.1-0.1-0.1-0.3-0.3-0.6c-0.2-0.2-0.3-0.4-0.6-0.6c-0.2-0.2-0.6-0.4-1-0.7
		c-0.4-0.2-0.9-0.4-1.3-0.7c-0.5-0.2-1-0.4-1.6-0.6l-0.9-0.3c-0.3-0.1-0.6-0.2-0.7-0.2c-0.1,0-0.3,0-0.4-0.1c0,0-0.1,0-0.3,0l-0.4,0
		c-0.2,0-0.5,0-0.7,0c-0.3,0-0.6,0-0.9,0.1l-0.9,0.1c-0.3,0-0.7,0.1-1,0.1c-1.3,0.1-2.8,0.5-4.2,0.8c-6,1.4-12.3,3.7-18.5,6.1
		c-12.5,4.9-25,10.7-37.5,16.5c-12.5,5.9-24.9,11.9-37.4,18c-25,12.1-50.1,24.1-75.6,35.5c-25.5,11.3-51.4,22-78,31.1
		c-26.6,9-53.9,16.7-82.3,20.5c-14.2,1.8-28.6,2.6-43.2,1.5c-7.3-0.5-14.6-1.7-21.8-3.4c-3.6-0.8-7.2-1.9-10.7-3.1l-5.3-2
		c-1.8-0.8-3.7-1.6-5.6-2.6c-3.7-2-7.4-4.7-10.6-8.7c-1.5-2.1-2.9-4.4-3.6-7.2c-0.8-2.7-1.1-5.7-0.6-8.4c0.4-2.7,1.2-5.3,2.4-7.5
		c0.5-1.2,1.2-2.1,1.9-3.2c0.7-0.9,1.4-1.9,2.2-2.7c3.1-3.4,6.5-6,10.2-8c7.3-4.1,15.1-6.1,23-6.9c1-0.1,2-0.2,2.9-0.2l2.9-0.1
		c1,0,2,0.1,2.9,0.1c0.5,0,0.9,0,1.6,0.1c0.6,0,1.2,0.1,1.7,0.2c4.3,0.6,7.9,1.7,11.4,2.8c7,2.2,13.6,4.8,20.1,7.5
		c6.5,2.7,12.9,5.5,19.3,8.4c12.8,5.7,25.3,11.7,37.9,17.8c25.1,12.1,49.9,24.6,74.7,37.1l74.3,37.5c24.8,12.5,49.6,24.9,74.5,36.9
		c24.9,12,50,23.9,75.3,34.5c6.3,2.6,12.7,5.2,19.1,7.5c6.4,2.3,12.8,4.5,19.1,6c3.1,0.8,6.3,1.4,8.9,1.4c0.6,0,1.2,0,1.6-0.1
		c0.2,0,0.3-0.1,0.5-0.1l0.3-0.1l0.4-0.1c1.1-0.4,2.3-1,3.6-1.8c2.6-1.5,5.2-3.4,7.7-5.4c2.5-2,4.9-4.2,7.3-6.5
		c4.6-4.6,8.9-9.6,12.1-14.9c1.6-2.6,2.9-5.3,3.5-7.7c0.3-1.2,0.4-2.2,0.3-2.9c-0.1-0.7-0.2-0.9-0.5-1.2c-0.3-0.3-1-0.8-2-1.2
		c-0.5-0.2-1.2-0.3-1.7-0.5l-2-0.4c-2.8-0.4-6-0.3-9.1-0.1c-6.4,0.5-13.1,1.6-19.7,3c-13.3,2.9-26.5,6.7-39.7,10.6
		c-13.2,4-26.4,8.2-39.6,12.4c-26.4,8.5-52.9,17-79.5,25c-26.7,8-53.5,15.4-80.7,21.9c-27.1,6.4-54.6,11.9-82.3,15.6
		c-27.7,3.7-55.7,5.9-83.8,5.2l-5.3-0.1l-5.3-0.2c-3.5-0.1-7-0.4-10.5-0.6c-3.5-0.2-7-0.6-10.5-0.9c-3.6-0.4-7.1-0.9-10.6-1.5
		c-14.1-2.4-27.6-6.6-40.8-10.4c-3.3-0.9-6.6-1.8-9.8-2.6c-3.2-0.7-6.5-1.3-9.5-1.5c-3-0.2-5.7,0.2-7.1,1.2
		c-0.2,0.2-0.3,0.2-0.5,0.4l-0.8,0.8c-0.6,0.5-1,1.1-1.5,1.6c-0.8,1.1-1.6,2.2-2,3.2c-0.4,1-0.6,2-0.5,2.9c0.1,0.9,0.5,1.9,1.1,2.9
		c1.3,2,3.5,4,6.1,5.7c2.6,1.7,5.5,3.1,8.5,4.4c3,1.3,6.2,2.4,9.4,3.4c12.9,4,26.4,6.4,40,8.3c1.7,0.2,3.4,0.5,5.1,0.7l2.6,0.3
		c0.8,0.1,1.7,0.2,2.6,0.4c1.8,0.3,3.6,0.5,5.4,0.9l5.3,1.2c7.1,1.8,13.8,4.6,20.2,7.7c12.8,6.4,24.3,14.5,35.9,22.1
		c11.5,7.6,23.2,14.7,35.5,20.4l4.6,2.1l4.7,1.9c1.6,0.7,3.2,1.2,4.8,1.8c1.6,0.6,3.2,1.2,4.8,1.7c3.2,1,6.5,2.1,9.8,2.9
		c1.6,0.4,3.3,0.9,4.9,1.3l5,1.1l2.5,0.5c0.8,0.2,1.7,0.3,2.5,0.4l5,0.8c3.4,0.5,6.8,0.8,10.1,1.3c3.4,0.3,6.8,0.5,10.2,0.8
		c3.4,0.1,6.8,0.3,10.2,0.3c3.4,0,6.8,0,10.3-0.1l10.3-0.5l10.2-0.9l5.2-0.5c1.8-0.1,3.5-0.3,5.3-0.4c7.1-0.3,14.2-0.3,21.4,0.5
		c7.1,0.8,14.2,2.4,21,4.8c6.8,2.4,13.3,5.6,19.4,9.2c6.1,3.7,11.8,7.8,17.4,12.1c11.1,8.5,21.7,17.4,32.8,25.5
		c11.1,8.2,22.6,15.6,34.6,22.4c12,6.7,24.4,12.6,37.2,17.9c6.3,2.7,12.8,5,19.3,7.4l9.8,3.3c3.3,1.1,6.6,2.2,9.9,3.4
		c13.2,4.7,26.1,10.7,38,18.3c11.9,7.6,22.8,17,31.4,28.4c4.3,5.7,8,11.8,11.1,18.2c3.1,6.4,5.5,13.1,7.4,19.9
		c2,6.8,3.4,13.7,4.7,20.5c1.3,6.8,2.5,13.7,4,20.3c0.8,3.3,1.7,6.6,2.9,9.7c1.2,3.1,2.6,6.1,4.4,8.7c3.6,5.4,9.1,9,15.4,10.6
		c1.2,0.3,2,1.6,1.7,2.9c-0.3,1.2-1.6,2-2.9,1.7l0,0c-3.5-0.9-7-2.4-10.2-4.5c-1.6-1-3-2.3-4.4-3.6c-1.3-1.4-2.6-2.8-3.6-4.3
		c-2.1-3.1-3.7-6.4-5-9.8c-1.3-3.4-2.2-6.8-3.1-10.2c-1.7-6.9-2.8-13.7-4.2-20.5c-1.3-6.8-2.8-13.5-4.7-20c-1.9-6.6-4.3-12.9-7.2-19
		c-3-6.1-6.5-11.9-10.6-17.2c-8.2-10.8-18.6-19.7-30.1-26.9c-11.5-7.2-24-13-37-17.5c-3.2-1.2-6.5-2.2-9.8-3.3l-9.9-3.3
		c-6.6-2.4-13.2-4.7-19.6-7.4c-13-5.2-25.7-11.2-37.9-18c-12.3-6.8-24.1-14.3-35.4-22.6c-11.3-8.2-22.1-17.1-33.1-25.4
		c-5.5-4.1-11-8.1-16.8-11.6c-5.8-3.5-11.8-6.4-18.2-8.5c-6.3-2.2-12.8-3.6-19.5-4.3c-6.7-0.7-13.4-0.7-20.2-0.3
		c-1.7,0.1-3.4,0.3-5.1,0.4l-5.1,0.5l-10.5,1l-10.5,0.6c-3.5,0.1-7,0.1-10.6,0.2c-3.5,0-7-0.2-10.6-0.2c-3.5-0.2-7-0.5-10.6-0.7
		c-3.5-0.4-7-0.7-10.5-1.3l-5.2-0.8c-0.9-0.1-1.7-0.3-2.6-0.4l-2.6-0.5l-5.2-1.1c-1.7-0.4-3.4-0.9-5.2-1.3c-3.5-0.8-6.8-2-10.2-3
		c-1.7-0.5-3.3-1.2-5-1.7c-1.7-0.6-3.3-1.2-5-1.9l-4.9-2l-4.9-2.2c-12.9-5.9-25-13.2-36.7-20.8c-11.7-7.6-23-15.4-35.1-21.4
		c-6-3-12.2-5.4-18.6-7l-4.8-1.1c-1.6-0.3-3.2-0.5-4.9-0.7c-0.8-0.1-1.7-0.2-2.5-0.3l-2.6-0.3c-1.7-0.2-3.5-0.4-5.2-0.7
		c-13.9-1.8-27.8-4.2-41.5-8.4c-3.4-1-6.8-2.2-10.2-3.6c-3.4-1.4-6.7-3-10-5.1c-3.2-2.1-6.5-4.6-8.9-8.5c-1.2-1.9-2.2-4.3-2.4-6.8
		c-0.2-2.5,0.3-5.1,1.1-7.2c0.9-2.2,2.1-4,3.4-5.6c0.7-0.8,1.3-1.6,2.1-2.3l1.1-1c0.4-0.4,1-0.8,1.5-1.2c2.1-1.5,4.5-2.2,6.7-2.6
		c2.2-0.4,4.2-0.4,6.2-0.3c3.9,0.2,7.5,0.9,11.1,1.7c3.5,0.8,6.9,1.7,10.3,2.6c13.5,3.8,26.6,7.7,39.9,10c3.3,0.6,6.7,1,10,1.4
		c3.4,0.3,6.8,0.6,10.2,0.9c3.4,0.2,6.8,0.5,10.3,0.6l5.1,0.2l5.1,0.1c27.4,0.5,54.9-1.8,82.2-5.6c27.3-3.8,54.3-9.4,81.2-15.9
		c26.8-6.5,53.4-14.1,79.9-22.2c26.5-8.1,52.8-16.8,79.2-25.4c13.2-4.3,26.4-8.6,39.7-12.7c13.3-4.1,26.8-8,40.6-11.1
		c6.9-1.5,14-2.8,21.4-3.4c3.7-0.2,7.5-0.4,11.6,0.2c1,0.2,2.1,0.3,3.1,0.5c1.1,0.3,2.1,0.6,3.3,1c2.2,0.8,4.7,2.1,6.8,4.3
		c1,1.1,1.9,2.4,2.6,3.8c0.6,1.4,1,2.9,1.2,4.2c0.4,2.8,0.1,5.3-0.5,7.5c-1.1,4.4-2.9,8-4.9,11.3c-4,6.6-8.8,12.2-13.9,17.4
		c-2.6,2.6-5.3,5.1-8.2,7.4c-2.9,2.4-5.9,4.6-9.3,6.6c-1.7,1-3.5,2-5.7,2.8l-0.8,0.3l-0.9,0.3c-0.6,0.2-1.4,0.3-2,0.4
		c-1.3,0.2-2.5,0.2-3.6,0.2c-4.4-0.1-8-0.9-11.7-1.7c-7.2-1.7-13.9-4-20.6-6.4c-6.7-2.4-13.2-5-19.7-7.6
		c-13-5.3-25.7-10.9-38.4-16.7c-12.7-5.8-25.3-11.7-37.8-17.7c-25.1-12-50-24.3-74.9-36.6l-74.5-37.1
		c-24.8-12.3-49.7-24.6-74.7-36.5c-12.5-5.9-25-11.8-37.6-17.4c-6.3-2.8-12.6-5.5-18.9-8.1c-6.3-2.6-12.7-5-18.9-7
		c-3.1-1-6.3-1.8-8.8-2.2c-1-0.2-2.7-0.1-4.2-0.2l-2.3,0.1c-0.8,0-1.5,0.1-2.2,0.2c-5.9,0.6-11.8,2.2-16.6,5c-2.4,1.4-4.5,3-6.1,4.8
		c-0.4,0.4-0.7,0.9-1,1.3c-0.3,0.4-0.6,0.9-0.8,1.3c-0.5,0.9-0.7,1.6-0.8,2.3c-0.1,0.7,0,1.3,0.2,1.9c0.1,0.6,0.6,1.3,1.1,2
		c1.1,1.5,3.1,3,5.5,4.3c1.2,0.7,2.5,1.2,3.9,1.8l4.5,1.6c3.1,1,6.1,1.9,9.3,2.6c6.3,1.4,12.7,2.5,19.3,2.9
		c13.1,0.9,26.5,0.2,39.8-1.7c26.7-3.7,53.1-11.2,78.9-20.2c25.9-9,51.3-19.7,76.4-31c25.1-11.3,50-23.4,74.9-35.7
		c12.5-6.1,24.9-12.2,37.5-18.3c12.6-6,25.3-11.9,38.6-17.2c6.7-2.6,13.5-5.1,21-7c2-0.4,3.9-0.9,6-1.1c0.5-0.1,1-0.2,1.6-0.2
		l1.7-0.1c0.6,0,1.1-0.1,1.7-0.1l1.9,0.1l0.9,0c0.3,0,0.6,0,1,0.1c0.7,0.1,1.5,0.2,2.2,0.4c0.8,0.1,1.3,0.3,1.8,0.5l1.6,0.5
		c1.1,0.3,2.2,0.8,3.3,1.2c1.1,0.5,2.2,1.1,3.3,1.7c1.1,0.7,2.2,1.4,3.3,2.3c1.1,0.8,2.1,1.9,3.1,3c1.9,2.4,3.5,5.3,4.3,8.6
		c0.7,3.3,0.5,6.5-0.2,9.4c-0.2,0.7-0.4,1.4-0.6,2.1c-0.3,0.6-0.5,1.3-0.8,1.9c-0.3,0.7-0.6,1.2-0.9,1.8c-0.3,0.6-0.6,1.2-1,1.7
		c-2.7,4.2-6,7.4-9.4,10c-3.4,2.6-6.9,4.6-10.5,6.4c-7.2,3.4-14.6,5.6-21.9,7.1l-2.8,0.6l-2.8,0.5c-1.8,0.3-3.7,0.6-5.5,0.8
		c-3.7,0.5-7.4,0.7-10.9,0.9c-14.2,0.9-28.3,1.1-42.4,0.8c-14.1-0.3-28.1-0.9-42.2-2c-3.5-0.3-7-0.6-10.6-0.9
		c-3.5-0.4-7.1-0.7-10.6-1.2c-7.1-0.9-14.1-1.9-21.7-3.8c-5.3-1.3-8.5-6.7-7.2-12c1.3-5.3,6.7-8.5,12-7.2l0.1,0L430,108.9z"/>
</g>
</svg>
